<svg width="616" height="347" viewBox="0 0 616 347" fill="none" xmlns="http://www.w3.org/2000/svg">
<path d="M205.15 83.2303L245.032 13.5449L285.231 83.2303H260.324V155.374H229.865V83.2303H205.15Z" fill="url(#paint0_linear_7461_44446)"/>
<path d="M130.037 140.225L159.419 88.8867L189.034 140.225H170.684V193.375H148.245V140.225H130.037Z" fill="url(#paint1_linear_7461_44446)"/>
<path d="M303.713 131.783L323.065 97.9688L342.571 131.783H330.485V166.79H315.705V131.783H303.713Z" fill="url(#paint2_linear_7461_44446)"/>
<path d="M351.855 318.508L289.897 282.535C288.466 281.704 288.605 279.596 290.131 278.959L403.75 231.591C404.325 231.351 404.978 231.393 405.518 231.703L451.331 258.071C452.662 258.837 452.669 260.756 451.342 261.531L353.868 318.505C353.246 318.869 352.477 318.87 351.855 318.508Z" fill="#7601D3" fill-opacity="0.08"/>
<path d="M317.066 229.709L387.58 268.445V277.42L354.752 296.559L285.232 255.808V247.672L317.066 229.709Z" fill="#7601D3"/>
<path d="M285.232 247.672L354.752 287.68M285.232 247.672L317.066 229.709L387.58 268.445M285.232 247.672V255.808L354.752 296.559M354.752 287.68L387.58 268.445M354.752 287.68V296.559M387.58 268.445V277.42L354.752 296.559" stroke="white" stroke-width="2.02662"/>
<path d="M387.58 268.445L354.752 287.68V296.559L387.58 277.419V268.445Z" fill="#6A40AD"/>
<path d="M354.752 287.68L285.232 247.672V255.808L354.752 296.559V287.68Z" fill="#885FC7"/>
<path d="M354.752 287.68L285.232 247.672L317.066 229.709L387.58 268.445L354.752 287.68Z" fill="#9F8EF0"/>
<path d="M342.583 189.168L408.738 225.51V233.93L377.939 251.886L312.717 213.654V206.021L342.583 189.168Z" fill="#7601D3"/>
<path d="M312.717 206.021L377.939 243.556M312.717 206.021L342.583 189.168L408.738 225.51M312.717 206.021V213.654L377.939 251.886M377.939 243.556L408.738 225.51M377.939 243.556V251.886M408.738 225.51V233.93L377.939 251.886" stroke="white" stroke-width="2.02662"/>
<path d="M408.737 225.512L377.938 243.557V251.887L408.737 233.931V225.512Z" fill="#6A40AD"/>
<path d="M377.939 243.556L312.717 206.021V213.654L377.939 251.887V243.556Z" fill="#885FC7"/>
<path d="M377.939 243.556L312.717 206.021L342.583 189.168L408.738 225.51L377.939 243.556Z" fill="#9F8EF0"/>
<path d="M365.199 153.906L425.395 186.974V194.635L397.37 210.974L338.023 176.186V169.241L365.199 153.906Z" fill="#7601D3"/>
<path d="M338.023 169.241L397.37 203.394M338.023 169.241L365.199 153.906L425.395 186.974M338.023 169.241V176.186L397.37 210.974M397.37 203.394L425.395 186.974M397.37 203.394V210.974M425.395 186.974V194.635L397.37 210.974" stroke="white" stroke-width="2.02662"/>
<path d="M425.394 186.975L397.369 203.394V210.974L425.394 194.635V186.975Z" fill="#6A40AD"/>
<path d="M397.37 203.394L338.023 169.24V176.186L397.37 210.974V203.394Z" fill="#885FC7"/>
<path d="M397.37 203.394L338.023 169.241L365.199 153.906L425.395 186.974L397.37 203.394Z" fill="#9F8EF0"/>
<path d="M387.432 119.852L444.464 151.181V158.44L417.912 173.919L361.686 140.96V134.38L387.432 119.852Z" fill="#7601D3"/>
<path d="M361.686 134.38L417.912 166.738M361.686 134.38L387.432 119.852L444.464 151.181M361.686 134.38V140.96L417.912 173.919M417.912 166.738L444.464 151.181M417.912 166.738V173.919M444.464 151.181V158.44L417.912 173.919" stroke="white" stroke-width="2.02662"/>
<path d="M444.463 151.184L417.912 166.74V173.921L444.463 158.442V151.184Z" fill="#6A40AD"/>
<path d="M417.912 166.739L361.686 134.381V140.961L417.912 173.92V166.739Z" fill="#885FC7"/>
<path d="M417.912 166.738L361.686 134.38L387.432 119.852L444.464 151.181L417.912 166.738Z" fill="#9F8EF0"/>
<path d="M408.686 87.6523L461.29 116.55V123.245L436.799 137.523L384.938 107.122V101.053L408.686 87.6523Z" fill="#7601D3"/>
<path d="M384.938 101.053L436.8 130.899M384.938 101.053L408.686 87.6523L461.29 116.55M384.938 101.053V107.122L436.8 137.523M436.8 130.899L461.29 116.55M436.8 130.899V137.523M461.29 116.55V123.245L436.8 137.523" stroke="white" stroke-width="2.02662"/>
<path d="M436.799 130.899L384.938 101.053V107.122L436.799 137.523V130.899Z" fill="#885FC7"/>
<path d="M461.289 116.551L436.799 130.9V137.524L461.289 123.245V116.551Z" fill="#6A40AD"/>
<path d="M436.799 130.899L384.938 101.053L408.686 87.6523L461.29 116.55L436.799 130.899Z" fill="#9F8EF0"/>
<path d="M434.956 306.13C426.871 310.798 413.763 310.798 405.679 306.13C397.594 301.463 397.594 293.895 405.679 289.227C413.763 284.56 426.871 284.56 434.956 289.227C443.041 293.895 443.041 301.463 434.956 306.13Z" fill="url(#paint3_linear_7461_44446)"/>
<path d="M399.611 297.672C399.611 300.973 401.929 303.961 405.675 306.124V313.168C401.929 311.005 399.611 308.016 399.611 304.715V297.672Z" fill="#7601D3"/>
<path d="M399.611 297.672C399.611 300.973 401.929 303.961 405.675 306.124V313.168C401.929 311.005 399.611 308.016 399.611 304.715V297.672Z" fill="white" fill-opacity="0.2"/>
<path d="M399.611 297.672C399.611 300.973 401.929 303.961 405.675 306.124V313.168C401.929 311.005 399.611 308.016 399.611 304.715V297.672Z" fill="white" fill-opacity="0.2"/>
<path d="M405.674 306.129C413.759 310.797 426.866 310.797 434.951 306.129V313.172C426.866 317.84 413.759 317.84 405.674 313.172V306.129Z" fill="#7601D3"/>
<path d="M405.674 306.129C413.759 310.797 426.866 310.797 434.951 306.129V313.172C426.866 317.84 413.759 317.84 405.674 313.172V306.129Z" fill="white" fill-opacity="0.2"/>
<path d="M441.013 297.67C441.013 300.971 438.696 303.959 434.949 306.122V313.166C438.696 311.003 441.013 308.014 441.013 304.714V297.67Z" fill="#7601D3"/>
<path d="M434.992 306.131C426.886 310.811 413.743 310.811 405.636 306.131C397.53 301.45 397.53 293.862 405.636 289.182C413.743 284.502 426.886 284.502 434.992 289.182C443.099 293.862 443.099 301.45 434.992 306.131Z" fill="#7601D3"/>
<path d="M434.992 306.131C426.886 310.811 413.743 310.811 405.636 306.131C397.53 301.45 397.53 293.862 405.636 289.182C413.743 284.502 426.886 284.502 434.992 289.182C443.099 293.862 443.099 301.45 434.992 306.131Z" fill="black" fill-opacity="0.2"/>
<path d="M434.493 305.853C426.656 310.377 413.952 310.377 406.115 305.853C398.279 301.329 398.279 293.993 406.115 289.469C413.952 284.945 426.656 284.945 434.493 289.469C442.329 293.993 442.329 301.329 434.493 305.853Z" fill="#D9D9D9"/>
<g filter="url(#filter0_i_7461_44446)">
<path d="M434.493 305.853C426.656 310.377 413.952 310.377 406.115 305.853C398.279 301.329 398.279 293.993 406.115 289.469C413.952 284.945 426.656 284.945 434.493 289.469C442.329 293.993 442.329 301.329 434.493 305.853Z" fill="#7601D3"/>
<path d="M434.493 305.853C426.656 310.377 413.952 310.377 406.115 305.853C398.279 301.329 398.279 293.993 406.115 289.469C413.952 284.945 426.656 284.945 434.493 289.469C442.329 293.993 442.329 301.329 434.493 305.853Z" fill="white" fill-opacity="0.2"/>
</g>
<g filter="url(#filter1_i_7461_44446)">
<circle cx="10.8211" cy="10.8211" r="10.8211" transform="matrix(0.866028 0.499996 -0.866028 0.499996 420.301 286.84)" fill="#7601D3"/>
<circle cx="10.8211" cy="10.8211" r="10.8211" transform="matrix(0.866028 0.499996 -0.866028 0.499996 420.301 286.84)" fill="black" fill-opacity="0.2"/>
</g>
<path d="M427.236 294.653L425.381 295.724L424.094 294.981L425.949 293.91L427.236 294.653ZM416.827 300.663L415.106 301.657L413.817 300.913L415.539 299.919L416.827 300.663ZM419.294 299.629C419.528 299.494 419.68 299.359 419.752 299.223C419.823 299.088 419.825 298.934 419.758 298.763C419.69 298.591 419.562 298.385 419.375 298.145C418.966 297.644 418.638 297.182 418.391 296.76C418.149 296.34 418.069 295.946 418.152 295.576C418.24 295.21 418.573 294.86 419.151 294.526C419.678 294.222 420.283 294.042 420.967 293.985C421.655 293.931 422.365 293.992 423.095 294.169C423.835 294.345 424.545 294.63 425.227 295.024C425.745 295.323 426.149 295.635 426.44 295.96C426.731 296.285 426.903 296.612 426.956 296.942C427.013 297.269 426.938 297.589 426.732 297.902C426.53 298.213 426.193 298.504 425.722 298.776L423.297 297.376C423.539 297.236 423.718 297.099 423.835 296.966C423.956 296.835 424.022 296.708 424.032 296.586C424.041 296.464 424.005 296.35 423.921 296.243C423.842 296.133 423.724 296.033 423.565 295.941C423.325 295.803 423.084 295.718 422.842 295.686C422.604 295.651 422.377 295.658 422.161 295.705C421.945 295.752 421.746 295.828 421.563 295.934C421.372 296.044 421.24 296.162 421.168 296.287C421.104 296.412 421.102 296.563 421.161 296.739C421.224 296.913 421.351 297.129 421.54 297.385C421.93 297.88 422.244 298.341 422.483 298.768C422.721 299.196 422.797 299.595 422.71 299.967C422.632 300.339 422.306 300.69 421.732 301.022C421.179 301.341 420.561 301.528 419.878 301.585C419.198 301.64 418.495 301.575 417.768 301.39C417.041 301.206 416.335 300.916 415.649 300.52C415.188 300.254 414.783 299.959 414.434 299.635C414.089 299.313 413.849 298.975 413.712 298.622C413.585 298.269 413.611 297.913 413.79 297.555C413.969 297.197 414.349 296.85 414.931 296.514L417.356 297.914C417.072 298.078 416.872 298.238 416.758 298.393C416.643 298.547 416.593 298.695 416.608 298.836C416.632 298.978 416.702 299.111 416.819 299.238C416.94 299.362 417.092 299.476 417.274 299.582C417.519 299.723 417.761 299.813 417.999 299.853C418.242 299.89 418.472 299.888 418.688 299.846C418.914 299.804 419.116 299.732 419.294 299.629Z" fill="white"/>
<path d="M436.554 300.857C428.469 305.525 415.361 305.525 407.276 300.857C399.192 296.189 399.192 288.622 407.276 283.954C415.361 279.286 428.469 279.286 436.554 283.954C444.638 288.622 444.638 296.189 436.554 300.857Z" fill="url(#paint4_linear_7461_44446)"/>
<path d="M401.207 292.402C401.207 295.703 403.524 298.692 407.271 300.855V307.898C403.524 305.735 401.207 302.747 401.207 299.446V292.402Z" fill="#7601D3"/>
<path d="M401.207 292.402C401.207 295.703 403.524 298.692 407.271 300.855V307.898C403.524 305.735 401.207 302.747 401.207 299.446V292.402Z" fill="white" fill-opacity="0.2"/>
<path d="M401.207 292.402C401.207 295.703 403.524 298.692 407.271 300.855V307.898C403.524 305.735 401.207 302.747 401.207 299.446V292.402Z" fill="white" fill-opacity="0.2"/>
<path d="M407.271 300.857C415.356 305.525 428.464 305.525 436.549 300.857V307.9C428.464 312.568 415.356 312.568 407.271 307.9V300.857Z" fill="#7601D3"/>
<path d="M407.271 300.857C415.356 305.525 428.464 305.525 436.549 300.857V307.9C428.464 312.568 415.356 312.568 407.271 307.9V300.857Z" fill="white" fill-opacity="0.2"/>
<path d="M442.611 292.4C442.611 295.701 440.294 298.69 436.547 300.853V307.896C440.294 305.733 442.611 302.745 442.611 299.444V292.4Z" fill="#7601D3"/>
<path d="M436.59 300.859C428.484 305.539 415.341 305.539 407.234 300.859C399.128 296.179 399.128 288.591 407.234 283.911C415.341 279.23 428.484 279.23 436.59 283.911C444.697 288.591 444.697 296.179 436.59 300.859Z" fill="#7601D3"/>
<path d="M436.59 300.859C428.484 305.539 415.341 305.539 407.234 300.859C399.128 296.179 399.128 288.591 407.234 283.911C415.341 279.23 428.484 279.23 436.59 283.911C444.697 288.591 444.697 296.179 436.59 300.859Z" fill="black" fill-opacity="0.2"/>
<path d="M436.09 300.581C428.254 305.105 415.549 305.105 407.713 300.581C399.877 296.057 399.877 288.722 407.713 284.198C415.549 279.674 428.254 279.674 436.09 284.198C443.926 288.722 443.926 296.057 436.09 300.581Z" fill="#D9D9D9"/>
<g filter="url(#filter2_i_7461_44446)">
<path d="M436.09 300.581C428.254 305.105 415.549 305.105 407.713 300.581C399.877 296.057 399.877 288.722 407.713 284.198C415.549 279.674 428.254 279.674 436.09 284.198C443.926 288.722 443.926 296.057 436.09 300.581Z" fill="#7601D3"/>
<path d="M436.09 300.581C428.254 305.105 415.549 305.105 407.713 300.581C399.877 296.057 399.877 288.722 407.713 284.198C415.549 279.674 428.254 279.674 436.09 284.198C443.926 288.722 443.926 296.057 436.09 300.581Z" fill="white" fill-opacity="0.2"/>
</g>
<g filter="url(#filter3_i_7461_44446)">
<circle cx="10.8211" cy="10.8211" r="10.8211" transform="matrix(0.866029 0.499994 -0.866029 0.499994 421.902 281.57)" fill="#7601D3"/>
<circle cx="10.8211" cy="10.8211" r="10.8211" transform="matrix(0.866029 0.499994 -0.866029 0.499994 421.902 281.57)" fill="black" fill-opacity="0.2"/>
</g>
<path d="M428.834 289.383L426.979 290.454L425.692 289.711L427.547 288.64L428.834 289.383ZM418.425 295.394L416.704 296.387L415.415 295.643L417.136 294.649L418.425 295.394ZM420.892 294.359C421.125 294.224 421.278 294.089 421.349 293.954C421.421 293.818 421.423 293.665 421.355 293.493C421.288 293.322 421.16 293.116 420.973 292.875C420.564 292.374 420.236 291.912 419.989 291.49C419.747 291.071 419.667 290.676 419.75 290.307C419.838 289.941 420.171 289.59 420.749 289.257C421.275 288.953 421.881 288.772 422.564 288.715C423.253 288.661 423.962 288.723 424.693 288.899C425.433 289.076 426.143 289.361 426.824 289.754C427.342 290.053 427.747 290.365 428.038 290.69C428.329 291.015 428.501 291.343 428.553 291.672C428.61 292 428.536 292.32 428.33 292.633C428.128 292.943 427.791 293.234 427.319 293.507L424.894 292.107C425.136 291.967 425.316 291.83 425.433 291.696C425.554 291.565 425.62 291.438 425.629 291.317C425.639 291.195 425.602 291.08 425.519 290.973C425.44 290.864 425.321 290.763 425.163 290.672C424.923 290.533 424.682 290.448 424.44 290.416C424.202 290.382 423.975 290.388 423.759 290.435C423.543 290.482 423.344 290.559 423.161 290.664C422.97 290.775 422.838 290.892 422.765 291.017C422.702 291.143 422.7 291.293 422.759 291.47C422.822 291.644 422.948 291.859 423.137 292.115C423.527 292.61 423.842 293.072 424.08 293.499C424.319 293.926 424.395 294.326 424.307 294.697C424.229 295.069 423.903 295.421 423.33 295.752C422.777 296.071 422.159 296.259 421.475 296.316C420.796 296.37 420.093 296.305 419.366 296.121C418.639 295.937 417.933 295.647 417.247 295.251C416.786 294.985 416.381 294.689 416.031 294.365C415.687 294.043 415.446 293.706 415.31 293.352C415.183 292.999 415.209 292.644 415.387 292.285C415.566 291.927 415.947 291.58 416.529 291.244L418.954 292.644C418.669 292.809 418.47 292.968 418.355 293.123C418.241 293.278 418.191 293.426 418.206 293.567C418.23 293.708 418.3 293.842 418.417 293.968C418.538 294.092 418.69 294.207 418.872 294.312C419.117 294.453 419.358 294.544 419.597 294.583C419.84 294.62 420.069 294.618 420.286 294.576C420.511 294.535 420.713 294.462 420.892 294.359Z" fill="white"/>
<path d="M432.937 294.156C424.852 298.823 411.744 298.823 403.659 294.156C395.575 289.488 395.575 281.92 403.659 277.253C411.744 272.585 424.852 272.585 432.937 277.253C441.021 281.92 441.021 289.488 432.937 294.156Z" fill="url(#paint5_linear_7461_44446)"/>
<path d="M397.592 285.699C397.592 289 399.909 291.988 403.656 294.152V301.195C399.909 299.032 397.592 296.044 397.592 292.743V285.699Z" fill="#7601D3"/>
<path d="M397.592 285.699C397.592 289 399.909 291.988 403.656 294.152V301.195C399.909 299.032 397.592 296.044 397.592 292.743V285.699Z" fill="white" fill-opacity="0.2"/>
<path d="M397.592 285.699C397.592 289 399.909 291.988 403.656 294.152V301.195C399.909 299.032 397.592 296.044 397.592 292.743V285.699Z" fill="white" fill-opacity="0.2"/>
<path d="M403.654 294.158C411.739 298.826 424.847 298.826 432.932 294.158V301.201C424.847 305.869 411.739 305.869 403.654 301.201V294.158Z" fill="#7601D3"/>
<path d="M403.654 294.158C411.739 298.826 424.847 298.826 432.932 294.158V301.201C424.847 305.869 411.739 305.869 403.654 301.201V294.158Z" fill="white" fill-opacity="0.2"/>
<path d="M438.992 285.697C438.992 288.998 436.674 291.986 432.928 294.15V301.193C436.674 299.03 438.992 296.042 438.992 292.741V285.697Z" fill="#7601D3"/>
<path d="M432.973 294.158C424.866 298.838 411.723 298.838 403.617 294.158C395.511 289.478 395.511 281.89 403.617 277.209C411.723 272.529 424.866 272.529 432.973 277.209C441.079 281.89 441.079 289.478 432.973 294.158Z" fill="#7601D3"/>
<path d="M432.973 294.158C424.866 298.838 411.723 298.838 403.617 294.158C395.511 289.478 395.511 281.89 403.617 277.209C411.723 272.529 424.866 272.529 432.973 277.209C441.079 281.89 441.079 289.478 432.973 294.158Z" fill="black" fill-opacity="0.2"/>
<path d="M432.469 293.88C424.633 298.404 411.928 298.404 404.092 293.88C396.256 289.356 396.256 282.021 404.092 277.497C411.928 272.972 424.633 272.972 432.469 277.497C440.305 282.021 440.305 289.356 432.469 293.88Z" fill="#D9D9D9"/>
<g filter="url(#filter4_i_7461_44446)">
<path d="M432.469 293.88C424.633 298.404 411.928 298.404 404.092 293.88C396.256 289.356 396.256 282.021 404.092 277.497C411.928 272.972 424.633 272.972 432.469 277.497C440.305 282.021 440.305 289.356 432.469 293.88Z" fill="#7601D3"/>
<path d="M432.469 293.88C424.633 298.404 411.928 298.404 404.092 293.88C396.256 289.356 396.256 282.021 404.092 277.497C411.928 272.972 424.633 272.972 432.469 277.497C440.305 282.021 440.305 289.356 432.469 293.88Z" fill="white" fill-opacity="0.2"/>
</g>
<g filter="url(#filter5_i_7461_44446)">
<circle cx="10.8211" cy="10.8211" r="10.8211" transform="matrix(0.866028 0.499996 -0.866028 0.499996 418.283 274.867)" fill="#7601D3"/>
<circle cx="10.8211" cy="10.8211" r="10.8211" transform="matrix(0.866028 0.499996 -0.866028 0.499996 418.283 274.867)" fill="black" fill-opacity="0.2"/>
</g>
<path d="M425.215 282.68L423.36 283.751L422.073 283.008L423.928 281.937L425.215 282.68ZM414.806 288.69L413.085 289.684L411.796 288.94L413.517 287.946L414.806 288.69ZM417.272 287.656C417.506 287.521 417.659 287.386 417.73 287.251C417.802 287.115 417.804 286.962 417.736 286.79C417.668 286.619 417.541 286.413 417.353 286.172C416.945 285.671 416.617 285.209 416.37 284.787C416.128 284.367 416.048 283.973 416.131 283.604C416.219 283.237 416.551 282.887 417.129 282.554C417.656 282.249 418.262 282.069 418.945 282.012C419.634 281.958 420.343 282.019 421.074 282.196C421.813 282.373 422.524 282.658 423.205 283.051C423.723 283.35 424.128 283.662 424.419 283.987C424.71 284.312 424.882 284.64 424.934 284.969C424.991 285.297 424.917 285.617 424.711 285.929C424.509 286.24 424.172 286.531 423.7 286.804L421.275 285.403C421.517 285.264 421.697 285.127 421.813 284.993C421.935 284.862 422 284.735 422.01 284.613C422.02 284.491 421.983 284.377 421.9 284.27C421.821 284.161 421.702 284.06 421.544 283.969C421.304 283.83 421.063 283.745 420.821 283.713C420.583 283.679 420.356 283.685 420.14 283.732C419.924 283.779 419.725 283.856 419.542 283.961C419.351 284.072 419.219 284.189 419.146 284.314C419.083 284.439 419.08 284.59 419.14 284.767C419.203 284.941 419.329 285.156 419.518 285.412C419.908 285.907 420.222 286.368 420.461 286.796C420.7 287.223 420.775 287.622 420.688 287.994C420.61 288.366 420.284 288.718 419.71 289.049C419.158 289.368 418.54 289.556 417.856 289.612C417.177 289.667 416.474 289.602 415.747 289.418C415.02 289.234 414.313 288.943 413.627 288.547C413.167 288.281 412.762 287.986 412.412 287.662C412.068 287.34 411.827 287.003 411.691 286.649C411.564 286.296 411.589 285.94 411.768 285.582C411.947 285.224 412.327 284.877 412.91 284.541L415.335 285.941C415.05 286.106 414.851 286.265 414.736 286.42C414.622 286.575 414.572 286.723 414.587 286.864C414.61 287.005 414.681 287.139 414.798 287.265C414.919 287.389 415.071 287.504 415.253 287.609C415.498 287.75 415.739 287.841 415.978 287.88C416.22 287.917 416.45 287.915 416.667 287.873C416.892 287.831 417.094 287.759 417.272 287.656Z" fill="white"/>
<path d="M436.55 287.474C428.465 292.142 415.357 292.142 407.273 287.474C399.188 282.806 399.188 275.239 407.273 270.571C415.357 265.903 428.465 265.903 436.55 270.571C444.635 275.239 444.635 282.806 436.55 287.474Z" fill="url(#paint6_linear_7461_44446)"/>
<path d="M401.205 279.02C401.205 282.32 403.522 285.309 407.269 287.472V294.515C403.522 292.352 401.205 289.364 401.205 286.063V279.02Z" fill="#7601D3"/>
<path d="M401.205 279.02C401.205 282.32 403.522 285.309 407.269 287.472V294.515C403.522 292.352 401.205 289.364 401.205 286.063V279.02Z" fill="white" fill-opacity="0.2"/>
<path d="M401.205 279.02C401.205 282.32 403.522 285.309 407.269 287.472V294.515C403.522 292.352 401.205 289.364 401.205 286.063V279.02Z" fill="white" fill-opacity="0.2"/>
<path d="M407.268 287.477C415.352 292.144 428.46 292.144 436.545 287.477V294.52C428.46 299.187 415.352 299.187 407.268 294.52V287.477Z" fill="#7601D3"/>
<path d="M407.268 287.477C415.352 292.144 428.46 292.144 436.545 287.477V294.52C428.46 299.187 415.352 299.187 407.268 294.52V287.477Z" fill="white" fill-opacity="0.2"/>
<path d="M442.607 279.018C442.607 282.318 440.29 285.307 436.543 287.47V294.514C440.29 292.35 442.607 289.362 442.607 286.061V279.018Z" fill="#7601D3"/>
<path d="M436.586 287.476C428.48 292.156 415.337 292.156 407.23 287.476C399.124 282.796 399.124 275.208 407.23 270.528C415.337 265.848 428.48 265.848 436.586 270.528C444.693 275.208 444.693 282.796 436.586 287.476Z" fill="#7601D3"/>
<path d="M436.586 287.476C428.48 292.156 415.337 292.156 407.23 287.476C399.124 282.796 399.124 275.208 407.23 270.528C415.337 265.848 428.48 265.848 436.586 270.528C444.693 275.208 444.693 282.796 436.586 287.476Z" fill="black" fill-opacity="0.2"/>
<path d="M436.086 287.198C428.25 291.723 415.545 291.723 407.709 287.198C399.873 282.674 399.873 275.339 407.709 270.815C415.545 266.291 428.25 266.291 436.086 270.815C443.922 275.339 443.922 282.674 436.086 287.198Z" fill="#D9D9D9"/>
<g filter="url(#filter6_i_7461_44446)">
<path d="M436.086 287.198C428.25 291.723 415.545 291.723 407.709 287.198C399.873 282.674 399.873 275.339 407.709 270.815C415.545 266.291 428.25 266.291 436.086 270.815C443.922 275.339 443.922 282.674 436.086 287.198Z" fill="#7601D3"/>
<path d="M436.086 287.198C428.25 291.723 415.545 291.723 407.709 287.198C399.873 282.674 399.873 275.339 407.709 270.815C415.545 266.291 428.25 266.291 436.086 270.815C443.922 275.339 443.922 282.674 436.086 287.198Z" fill="white" fill-opacity="0.2"/>
</g>
<g filter="url(#filter7_i_7461_44446)">
<circle cx="10.8211" cy="10.8211" r="10.8211" transform="matrix(0.866031 0.499991 -0.866031 0.499991 421.896 268.188)" fill="#7601D3"/>
<circle cx="10.8211" cy="10.8211" r="10.8211" transform="matrix(0.866031 0.499991 -0.866031 0.499991 421.896 268.188)" fill="black" fill-opacity="0.2"/>
</g>
<path d="M428.828 276.001L426.973 277.071L425.686 276.328L427.541 275.257L428.828 276.001ZM418.419 282.011L416.698 283.004L415.409 282.26L417.13 281.267L418.419 282.011ZM420.886 280.976C421.119 280.841 421.272 280.706 421.344 280.571C421.415 280.435 421.417 280.282 421.349 280.111C421.282 279.939 421.154 279.733 420.967 279.492C420.558 278.991 420.23 278.53 419.983 278.107C419.741 277.688 419.661 277.293 419.744 276.924C419.832 276.558 420.165 276.208 420.743 275.874C421.27 275.57 421.875 275.389 422.559 275.332C423.247 275.278 423.956 275.34 424.687 275.516C425.427 275.693 426.137 275.978 426.818 276.371C427.337 276.67 427.741 276.983 428.032 277.308C428.323 277.633 428.495 277.96 428.548 278.29C428.604 278.617 428.53 278.937 428.324 279.25C428.122 279.56 427.785 279.852 427.314 280.124L424.888 278.724C425.131 278.584 425.31 278.447 425.427 278.313C425.548 278.182 425.614 278.056 425.623 277.934C425.633 277.812 425.596 277.697 425.513 277.59C425.434 277.481 425.315 277.38 425.157 277.289C424.917 277.151 424.676 277.065 424.434 277.033C424.196 276.999 423.969 277.005 423.753 277.053C423.537 277.1 423.338 277.176 423.155 277.281C422.964 277.392 422.832 277.51 422.759 277.635C422.696 277.76 422.694 277.911 422.753 278.087C422.816 278.261 422.942 278.476 423.132 278.733C423.521 279.228 423.836 279.689 424.074 280.116C424.313 280.543 424.389 280.943 424.301 281.314C424.223 281.686 423.897 282.038 423.324 282.369C422.771 282.688 422.153 282.876 421.47 282.933C420.79 282.987 420.087 282.922 419.36 282.738C418.633 282.554 417.927 282.264 417.241 281.868C416.78 281.602 416.375 281.307 416.026 280.982C415.681 280.66 415.44 280.323 415.304 279.969C415.177 279.616 415.203 279.261 415.381 278.903C415.56 278.545 415.941 278.198 416.523 277.861L418.948 279.262C418.663 279.426 418.464 279.585 418.349 279.74C418.235 279.895 418.185 280.043 418.2 280.184C418.224 280.325 418.294 280.459 418.411 280.585C418.532 280.709 418.684 280.824 418.866 280.929C419.111 281.07 419.352 281.161 419.591 281.2C419.834 281.238 420.063 281.235 420.28 281.193C420.505 281.152 420.707 281.079 420.886 280.976Z" fill="white"/>
<path d="M403.759 322.767C395.674 327.435 382.566 327.435 374.481 322.767C366.397 318.099 366.397 310.532 374.481 305.864C382.566 301.196 395.674 301.196 403.759 305.864C411.843 310.532 411.843 318.099 403.759 322.767Z" fill="url(#paint7_linear_7461_44446)"/>
<path d="M368.414 314.309C368.414 317.609 370.731 320.598 374.478 322.761V329.805C370.731 327.641 368.414 324.653 368.414 321.352V314.309Z" fill="#7601D3"/>
<path d="M368.414 314.309C368.414 317.609 370.731 320.598 374.478 322.761V329.805C370.731 327.641 368.414 324.653 368.414 321.352V314.309Z" fill="white" fill-opacity="0.2"/>
<path d="M368.414 314.309C368.414 317.609 370.731 320.598 374.478 322.761V329.805C370.731 327.641 368.414 324.653 368.414 321.352V314.309Z" fill="white" fill-opacity="0.2"/>
<path d="M374.475 322.766C382.559 327.433 395.667 327.433 403.752 322.766V329.809C395.667 334.476 382.559 334.476 374.475 329.809V322.766Z" fill="#7601D3"/>
<path d="M374.475 322.766C382.559 327.433 395.667 327.433 403.752 322.766V329.809C395.667 334.476 382.559 334.476 374.475 329.809V322.766Z" fill="white" fill-opacity="0.2"/>
<path d="M374.475 322.766C382.559 327.433 395.667 327.433 403.752 322.766V329.809C395.667 334.476 382.559 334.476 374.475 329.809V322.766Z" fill="white" fill-opacity="0.2"/>
<path d="M409.814 314.307C409.814 317.607 407.497 320.596 403.75 322.759V329.803C407.497 327.639 409.814 324.651 409.814 321.35V314.307Z" fill="#7601D3"/>
<path d="M409.814 314.307C409.814 317.607 407.497 320.596 403.75 322.759V329.803C407.497 327.639 409.814 324.651 409.814 321.35V314.307Z" fill="white" fill-opacity="0.2"/>
<path d="M403.795 322.767C395.689 327.447 382.546 327.447 374.439 322.767C366.333 318.087 366.333 310.499 374.439 305.819C382.546 301.139 395.689 301.139 403.795 305.819C411.902 310.499 411.902 318.087 403.795 322.767Z" fill="#7601D3"/>
<path d="M403.795 322.767C395.689 327.447 382.546 327.447 374.439 322.767C366.333 318.087 366.333 310.499 374.439 305.819C382.546 301.139 395.689 301.139 403.795 305.819C411.902 310.499 411.902 318.087 403.795 322.767Z" fill="black" fill-opacity="0.2"/>
<path d="M403.289 322.489C395.453 327.014 382.748 327.014 374.912 322.489C367.076 317.965 367.076 310.63 374.912 306.106C382.748 301.582 395.453 301.582 403.289 306.106C411.126 310.63 411.126 317.965 403.289 322.489Z" fill="#D9D9D9"/>
<g filter="url(#filter8_i_7461_44446)">
<path d="M403.289 322.489C395.453 327.014 382.748 327.014 374.912 322.489C367.076 317.965 367.076 310.63 374.912 306.106C382.748 301.582 395.453 301.582 403.289 306.106C411.126 310.63 411.126 317.965 403.289 322.489Z" fill="#7601D3"/>
<path d="M403.289 322.489C395.453 327.014 382.748 327.014 374.912 322.489C367.076 317.965 367.076 310.63 374.912 306.106C382.748 301.582 395.453 301.582 403.289 306.106C411.126 310.63 411.126 317.965 403.289 322.489Z" fill="white" fill-opacity="0.2"/>
</g>
<g filter="url(#filter9_i_7461_44446)">
<circle cx="10.8211" cy="10.8211" r="10.8211" transform="matrix(0.866028 0.499996 -0.866028 0.499996 389.105 303.477)" fill="#7601D3"/>
<circle cx="10.8211" cy="10.8211" r="10.8211" transform="matrix(0.866028 0.499996 -0.866028 0.499996 389.105 303.477)" fill="black" fill-opacity="0.2"/>
</g>
<path d="M396.039 311.29L394.184 312.361L392.897 311.617L394.752 310.547L396.039 311.29ZM385.63 317.3L383.909 318.294L382.62 317.549L384.341 316.556L385.63 317.3ZM388.097 316.266C388.33 316.131 388.483 315.995 388.554 315.86C388.626 315.725 388.628 315.571 388.56 315.4C388.493 315.228 388.365 315.022 388.178 314.781C387.769 314.28 387.441 313.819 387.194 313.396C386.952 312.977 386.872 312.582 386.955 312.213C387.043 311.847 387.376 311.497 387.954 311.163C388.481 310.859 389.086 310.678 389.769 310.622C390.458 310.568 391.167 310.629 391.898 310.805C392.638 310.982 393.348 311.267 394.029 311.66C394.548 311.96 394.952 312.272 395.243 312.597C395.534 312.922 395.706 313.249 395.758 313.579C395.815 313.906 395.741 314.226 395.535 314.539C395.333 314.849 394.996 315.141 394.524 315.413L392.099 314.013C392.341 313.873 392.521 313.736 392.638 313.602C392.759 313.471 392.825 313.345 392.834 313.223C392.844 313.101 392.807 312.986 392.724 312.879C392.645 312.77 392.526 312.67 392.368 312.578C392.128 312.44 391.887 312.354 391.645 312.323C391.407 312.288 391.18 312.295 390.964 312.342C390.748 312.389 390.549 312.465 390.366 312.571C390.175 312.681 390.043 312.799 389.97 312.924C389.907 313.049 389.905 313.2 389.964 313.376C390.027 313.55 390.153 313.765 390.342 314.022C390.732 314.517 391.047 314.978 391.285 315.405C391.524 315.832 391.6 316.232 391.512 316.604C391.434 316.976 391.108 317.327 390.535 317.658C389.982 317.977 389.364 318.165 388.681 318.222C388.001 318.276 387.298 318.211 386.571 318.027C385.844 317.843 385.138 317.553 384.452 317.157C383.991 316.891 383.586 316.596 383.237 316.271C382.892 315.95 382.651 315.612 382.515 315.259C382.388 314.905 382.414 314.55 382.592 314.192C382.771 313.834 383.152 313.487 383.734 313.151L386.159 314.551C385.874 314.715 385.675 314.875 385.56 315.029C385.446 315.184 385.396 315.332 385.411 315.473C385.435 315.614 385.505 315.748 385.622 315.875C385.743 315.999 385.895 316.113 386.077 316.218C386.322 316.36 386.563 316.45 386.802 316.49C387.045 316.527 387.274 316.524 387.491 316.482C387.716 316.441 387.918 316.369 388.097 316.266Z" fill="white"/>
<path d="M401.772 313.156C393.688 317.823 380.58 317.823 372.495 313.156C364.41 308.488 364.41 300.92 372.495 296.253C380.58 291.585 393.688 291.585 401.772 296.253C409.857 300.92 409.857 308.488 401.772 313.156Z" fill="url(#paint8_linear_7461_44446)"/>
<path d="M366.426 304.699C366.426 308 368.743 310.988 372.49 313.152V320.195C368.743 318.032 366.426 315.044 366.426 311.743V304.699Z" fill="#7601D3"/>
<path d="M366.426 304.699C366.426 308 368.743 310.988 372.49 313.152V320.195C368.743 318.032 366.426 315.044 366.426 311.743V304.699Z" fill="white" fill-opacity="0.2"/>
<path d="M366.426 304.699C366.426 308 368.743 310.988 372.49 313.152V320.195C368.743 318.032 366.426 315.044 366.426 311.743V304.699Z" fill="white" fill-opacity="0.2"/>
<path d="M372.49 313.156C380.575 317.824 393.683 317.824 401.768 313.156V320.199C393.683 324.867 380.575 324.867 372.49 320.199V313.156Z" fill="#7601D3"/>
<path d="M372.49 313.156C380.575 317.824 393.683 317.824 401.768 313.156V320.199C393.683 324.867 380.575 324.867 372.49 320.199V313.156Z" fill="white" fill-opacity="0.2"/>
<path d="M372.49 313.156C380.575 317.824 393.683 317.824 401.768 313.156V320.199C393.683 324.867 380.575 324.867 372.49 320.199V313.156Z" fill="white" fill-opacity="0.2"/>
<path d="M407.824 304.697C407.824 307.998 405.506 310.986 401.76 313.15V320.193C405.506 318.03 407.824 315.042 407.824 311.741V304.697Z" fill="#7601D3"/>
<path d="M407.824 304.697C407.824 307.998 405.506 310.986 401.76 313.15V320.193C405.506 318.03 407.824 315.042 407.824 311.741V304.697Z" fill="white" fill-opacity="0.2"/>
<path d="M401.807 313.158C393.7 317.838 380.557 317.838 372.451 313.158C364.344 308.478 364.344 300.89 372.451 296.209C380.557 291.529 393.7 291.529 401.807 296.209C409.913 300.89 409.913 308.478 401.807 313.158Z" fill="#7601D3"/>
<path d="M401.807 313.158C393.7 317.838 380.557 317.838 372.451 313.158C364.344 308.478 364.344 300.89 372.451 296.209C380.557 291.529 393.7 291.529 401.807 296.209C409.913 300.89 409.913 308.478 401.807 313.158Z" fill="black" fill-opacity="0.2"/>
<path d="M401.301 312.878C393.465 317.402 380.76 317.402 372.924 312.878C365.088 308.354 365.088 301.019 372.924 296.495C380.76 291.971 393.465 291.971 401.301 296.495C409.137 301.019 409.137 308.354 401.301 312.878Z" fill="#D9D9D9"/>
<g filter="url(#filter10_i_7461_44446)">
<path d="M401.301 312.878C393.465 317.402 380.76 317.402 372.924 312.878C365.088 308.354 365.088 301.019 372.924 296.495C380.76 291.971 393.465 291.971 401.301 296.495C409.137 301.019 409.137 308.354 401.301 312.878Z" fill="#7601D3"/>
<path d="M401.301 312.878C393.465 317.402 380.76 317.402 372.924 312.878C365.088 308.354 365.088 301.019 372.924 296.495C380.76 291.971 393.465 291.971 401.301 296.495C409.137 301.019 409.137 308.354 401.301 312.878Z" fill="white" fill-opacity="0.2"/>
</g>
<g filter="url(#filter11_i_7461_44446)">
<circle cx="10.8211" cy="10.8211" r="10.8211" transform="matrix(0.866028 0.499996 -0.866028 0.499996 387.117 293.867)" fill="#7601D3"/>
<circle cx="10.8211" cy="10.8211" r="10.8211" transform="matrix(0.866028 0.499996 -0.866028 0.499996 387.117 293.867)" fill="black" fill-opacity="0.2"/>
</g>
<path d="M394.051 301.68L392.196 302.751L390.909 302.008L392.764 300.937L394.051 301.68ZM383.642 307.691L381.921 308.684L380.632 307.94L382.353 306.946L383.642 307.691ZM386.108 306.656C386.342 306.521 386.495 306.386 386.566 306.251C386.638 306.115 386.64 305.962 386.572 305.79C386.504 305.619 386.377 305.413 386.189 305.172C385.781 304.671 385.453 304.209 385.206 303.787C384.963 303.367 384.884 302.973 384.967 302.604C385.055 302.237 385.387 301.887 385.965 301.554C386.492 301.249 387.098 301.069 387.781 301.012C388.47 300.958 389.179 301.019 389.91 301.196C390.649 301.373 391.36 301.658 392.041 302.051C392.559 302.35 392.964 302.662 393.255 302.987C393.546 303.312 393.718 303.64 393.77 303.969C393.827 304.297 393.752 304.617 393.546 304.93C393.345 305.24 393.008 305.531 392.536 305.804L390.111 304.404C390.353 304.264 390.533 304.127 390.649 303.993C390.771 303.862 390.836 303.735 390.846 303.613C390.856 303.491 390.819 303.377 390.736 303.27C390.657 303.161 390.538 303.06 390.38 302.969C390.14 302.83 389.899 302.745 389.656 302.713C389.419 302.679 389.192 302.685 388.976 302.732C388.76 302.779 388.56 302.856 388.378 302.961C388.186 303.072 388.055 303.189 387.982 303.314C387.919 303.44 387.916 303.59 387.975 303.767C388.039 303.941 388.165 304.156 388.354 304.412C388.744 304.907 389.058 305.369 389.297 305.796C389.536 306.223 389.611 306.623 389.524 306.994C389.446 307.366 389.12 307.718 388.546 308.049C387.994 308.368 387.376 308.556 386.692 308.613C386.013 308.667 385.31 308.602 384.583 308.418C383.856 308.234 383.149 307.944 382.463 307.547C382.003 307.282 381.598 306.986 381.248 306.662C380.904 306.34 380.663 306.003 380.527 305.649C380.4 305.296 380.425 304.94 380.604 304.582C380.783 304.224 381.163 303.877 381.746 303.541L384.171 304.941C383.886 305.106 383.686 305.265 383.572 305.42C383.458 305.575 383.408 305.723 383.423 305.864C383.446 306.005 383.517 306.139 383.634 306.265C383.755 306.389 383.907 306.504 384.089 306.609C384.334 306.75 384.575 306.841 384.814 306.88C385.056 306.917 385.286 306.915 385.502 306.873C385.728 306.832 385.93 306.759 386.108 306.656Z" fill="white"/>
<path d="M170.711 239.107C170.711 239.107 168.946 230.976 165.406 227.436C161.865 223.896 153.734 222.131 153.734 222.131C153.734 222.131 161.865 220.366 165.406 216.826C168.946 213.285 170.711 205.154 170.711 205.154C170.711 205.154 172.476 213.285 176.016 216.826C179.556 220.366 187.688 222.131 187.688 222.131C187.688 222.131 179.556 223.896 176.016 227.436C172.476 230.976 170.711 239.107 170.711 239.107Z" fill="#7601D3" fill-opacity="0.6"/>
<path d="M281.471 164.082C281.471 164.082 280.593 160.036 278.831 158.275C277.069 156.513 273.023 155.635 273.023 155.635C273.023 155.635 277.069 154.757 278.831 152.995C280.593 151.233 281.471 147.188 281.471 147.188C281.471 147.188 282.349 151.233 284.11 152.995C285.872 154.757 289.918 155.635 289.918 155.635C289.918 155.635 285.872 156.513 284.11 158.275C282.349 160.036 281.471 164.082 281.471 164.082Z" fill="#7601D3" fill-opacity="0.16"/>
<ellipse cx="425.375" cy="84.3726" rx="3.07425" ry="1.32572" fill="#D9D9D9"/>
<path d="M400.339 63.3381C401.056 58.0564 405.999 57.9718 408.381 58.5897C408.381 58.8775 408.334 59.6663 408.149 60.5195C406.906 60.0878 403.232 59.9862 402.769 63.3381C401.89 71.1793 407.667 72.6994 410.666 72.4793C410.82 72.8517 411.216 73.7845 411.563 74.5361C403.608 75.3487 399.442 69.9402 400.339 63.3381Z" fill="#EBA703"/>
<path d="M425.337 104.114C433.129 104.114 439.445 101.775 439.445 98.8906V111.328C439.445 114.213 433.129 116.551 425.337 116.551C417.545 116.551 411.229 114.213 411.229 111.328V98.8906C411.229 101.775 417.545 104.114 425.337 104.114Z" fill="#0A2445"/>
<path d="M450.448 63.3381C449.731 58.0564 444.788 57.9718 442.406 58.5897C442.406 58.8775 442.453 59.6663 442.638 60.5195C443.882 60.0878 447.555 59.9862 448.018 63.3381C448.898 71.1793 443.12 72.6994 440.121 72.4793C439.967 72.8517 439.571 73.7845 439.224 74.5361C447.179 75.3487 451.345 69.9402 450.448 63.3381Z" fill="#EBA703"/>
<ellipse cx="425.316" cy="99.0508" rx="14.1085" ry="5.57422" fill="#FCCB21"/>
<g filter="url(#filter12_d_7461_44446)">
<path d="M438.586 98.5508C438.586 101.382 432.68 103.677 425.395 103.677C418.109 103.677 412.203 101.382 412.203 98.5508" stroke="#EBA106"/>
</g>
<path d="M430.701 94.6133C430.701 96.3462 428.29 97.751 425.316 97.751" stroke="#EBA106"/>
<path d="M425.375 96.5951C427.601 96.5951 429.405 95.8171 429.405 94.8574C427.648 91.6958 428.035 86.4242 428.449 84.1836H422.401C423.245 89.9898 422.049 93.7187 421.346 94.8574C421.346 95.8171 423.15 96.5951 425.375 96.5951Z" fill="#EBA106"/>
<ellipse cx="425.337" cy="111.455" rx="14.1085" ry="5.09518" fill="#D9D9D9"/>
<path d="M424.211 84.3728C411.572 84.3728 406.075 68.3086 407.373 52.7812H424.211H426.543H443.381C444.678 68.3086 439.182 84.3728 426.543 84.3728C426.543 84.3728 425.817 84.4845 425.349 84.4824C424.902 84.4804 424.211 84.3728 424.211 84.3728Z" fill="#FBCB23"/>
<path d="M425.684 58.6856C416.213 58.3271 409.52 55.6982 407.322 54.354L407.322 53.4814L443.418 53.4199C443.45 53.9321 443.518 55.2782 443.518 55.614C443.238 55.838 437.492 59.1326 425.684 58.6856Z" fill="#EBA703"/>
<path d="M425.337 104.417C433.129 104.417 439.445 102.136 439.445 99.3223V111.455C439.445 114.269 433.129 116.55 425.337 116.55C417.545 116.55 411.229 114.269 411.229 111.455V99.3223C411.229 102.136 417.545 104.417 425.337 104.417Z" fill="#0A2445"/>
<path d="M444.8 51.2638C444.8 47.7224 436.122 44.8516 425.417 44.8516C414.712 44.8516 406.033 47.7224 406.033 51.2638V54.3555C406.033 57.8968 414.712 60.7676 425.417 60.7676C436.122 60.7676 444.8 57.8968 444.8 54.3555V51.2638Z" fill="#FFECB7"/>
<ellipse cx="425.417" cy="51.5898" rx="19.3836" ry="6.73828" fill="#EDCC3B"/>
<ellipse cx="425.574" cy="51.4585" rx="18.0778" ry="5.82568" fill="#EDA401"/>
<path fill-rule="evenodd" clip-rule="evenodd" d="M425.338 79.6474C430.176 79.6474 434.098 75.9662 434.098 71.4253C434.098 66.8843 430.176 63.2031 425.338 63.2031C420.5 63.2031 416.578 66.8843 416.578 71.4253C416.578 75.9662 420.5 79.6474 425.338 79.6474ZM425.338 79.139C429.876 79.139 433.556 75.6853 433.556 71.425C433.556 67.1646 429.876 63.7109 425.338 63.7109C420.799 63.7109 417.119 67.1646 417.119 71.425C417.119 75.6853 420.799 79.139 425.338 79.139Z" fill="#E6AC09"/>
<path d="M432.948 71.424C432.948 75.3688 429.541 78.5667 425.338 78.5667C421.136 78.5667 417.729 75.3688 417.729 71.424C417.729 67.4792 421.136 64.2812 425.338 64.2812C429.541 64.2812 432.948 67.4792 432.948 71.424Z" fill="#FEEDB7"/>
<path d="M424.967 67.0016C425.111 66.7 425.567 66.7 425.71 67.0016L426.92 69.5503C426.979 69.6747 427.105 69.7601 427.249 69.7744L430.205 70.0673C430.555 70.102 430.696 70.5092 430.435 70.7303L428.227 72.5984C428.119 72.6896 428.071 72.8278 428.101 72.961L428.718 75.6907C428.791 76.0138 428.422 76.2655 428.117 76.1005L425.542 74.7063C425.416 74.6382 425.261 74.6382 425.136 74.7063L422.56 76.1004C422.255 76.2655 421.886 76.0138 421.959 75.6907L422.576 72.961C422.606 72.8278 422.559 72.6896 422.451 72.5984L420.242 70.7303C419.981 70.5092 420.122 70.102 420.472 70.0673L423.428 69.7744C423.573 69.7601 423.698 69.6747 423.757 69.5503L424.967 67.0016Z" fill="#FBCB23"/>
<path d="M417.061 112.812V106.62C417.061 105.968 417.675 105.49 418.314 105.62C423.374 106.648 429.099 106.384 432.239 105.712C432.918 105.567 433.613 106.068 433.613 106.763V112.804C433.613 113.275 433.286 113.682 432.825 113.775C431.109 114.121 428.042 114.651 425.197 114.651C422.369 114.651 419.476 114.127 417.84 113.781C417.383 113.685 417.061 113.279 417.061 112.812Z" fill="#FFEFB9"/>
<path d="M417.934 112.068V107.506C417.934 106.854 418.547 106.376 419.188 106.498C423.391 107.298 428.51 107.102 431.313 106.574C431.996 106.445 432.696 106.955 432.696 107.649V112.06C432.696 112.531 432.369 112.939 431.909 113.036C430.356 113.364 427.556 113.9 425.22 113.9C422.897 113.9 420.208 113.369 418.711 113.041C418.255 112.941 417.934 112.535 417.934 112.068Z" stroke="#FCCB21"/>
<path d="M459.862 54.3408C459.299 50.1924 454.529 44.702 452.215 42.4754C453.152 41.8896 455.502 40.63 457.4 40.2783C459.58 41.1923 463.172 48.8036 464.695 52.495C464.197 52.6708 462.533 53.286 459.862 54.3408Z" fill="#BE3F36"/>
<path d="M412.886 34.1593L404.843 36.2043C404.843 32.9452 401.025 27.3023 399.117 24.8883L404.843 21.3438L412.886 34.1593Z" fill="#BE3F36"/>
<path d="M374.167 54.3408L378.53 52.495L374.986 44.9296L371.168 48.338L374.167 54.3408Z" fill="#BE3F36"/>
<path d="M481.055 36.2043C479.201 34.1321 477.283 33.9776 476.556 34.1593C477.742 32.8292 480.303 29.6845 481.055 27.7466C481.27 28.6125 484.417 29.2012 485.963 29.3874C484.6 30.978 481.709 34.5683 481.055 36.2043Z" fill="#BE3F36"/>
<path d="M445.164 132.676L447.211 123.98L452.215 127.731L451.303 134.381L445.164 132.676Z" fill="#BE3F36"/>
<path d="M436.978 28.1355L433.249 26.7959L435.389 19.7031L439.422 21.2919L436.978 28.1355Z" fill="#0A2544"/>
<path d="M481.815 80.5621L478.637 79.0957L481.815 73.1076C483.2 73.6779 485.774 74.8674 484.992 75.0629C484.21 75.2584 482.548 78.8105 481.815 80.5621Z" fill="#0A2544"/>
<path d="M379.423 86.2294L374.67 83.5583L371.843 89.8971L376.733 92.3422L379.423 86.2294Z" fill="#0A2544"/>
<path d="M481.815 138.328L474.464 141.193L476.084 151.036C476.748 151.036 478.825 150.862 481.815 150.164C480.021 148.17 481.067 141.443 481.815 138.328Z" fill="#0A2544"/>
<path d="M353.923 125.829L350.746 124.363L353.923 118.375C355.308 118.945 357.883 120.134 357.101 120.33C356.319 120.525 354.657 124.077 353.923 125.829Z" fill="#0A2544"/>
<defs>
<filter id="filter0_i_7461_44446" x="400.238" y="286.076" width="40.1309" height="23.1699" filterUnits="userSpaceOnUse" color-interpolation-filters="sRGB">
<feFlood flood-opacity="0" result="BackgroundImageFix"/>
<feBlend mode="normal" in="SourceGraphic" in2="BackgroundImageFix" result="shape"/>
<feColorMatrix in="SourceAlpha" type="matrix" values="0 0 0 0 0 0 0 0 0 0 0 0 0 0 0 0 0 0 127 0" result="hardAlpha"/>
<feOffset dx="-0.202662" dy="0.202662"/>
<feComposite in2="hardAlpha" operator="arithmetic" k2="-1" k3="1"/>
<feColorMatrix type="matrix" values="0 0 0 0 1 0 0 0 0 1 0 0 0 0 1 0 0 0 1 0"/>
<feBlend mode="normal" in2="shape" result="effect1_innerShadow_7461_44446"/>
</filter>
<filter id="filter1_i_7461_44446" x="407.047" y="290.01" width="26.5078" height="15.3027" filterUnits="userSpaceOnUse" color-interpolation-filters="sRGB">
<feFlood flood-opacity="0" result="BackgroundImageFix"/>
<feBlend mode="normal" in="SourceGraphic" in2="BackgroundImageFix" result="shape"/>
<feColorMatrix in="SourceAlpha" type="matrix" values="0 0 0 0 0 0 0 0 0 0 0 0 0 0 0 0 0 0 127 0" result="hardAlpha"/>
<feOffset dx="0.405328" dy="0.405328"/>
<feComposite in2="hardAlpha" operator="arithmetic" k2="-1" k3="1"/>
<feColorMatrix type="matrix" values="0 0 0 0 0 0 0 0 0 0 0 0 0 0 0 0 0 0 0.6 0"/>
<feBlend mode="normal" in2="shape" result="effect1_innerShadow_7461_44446"/>
</filter>
<filter id="filter2_i_7461_44446" x="401.836" y="280.805" width="40.1309" height="23.1699" filterUnits="userSpaceOnUse" color-interpolation-filters="sRGB">
<feFlood flood-opacity="0" result="BackgroundImageFix"/>
<feBlend mode="normal" in="SourceGraphic" in2="BackgroundImageFix" result="shape"/>
<feColorMatrix in="SourceAlpha" type="matrix" values="0 0 0 0 0 0 0 0 0 0 0 0 0 0 0 0 0 0 127 0" result="hardAlpha"/>
<feOffset dx="-0.202662" dy="0.202662"/>
<feComposite in2="hardAlpha" operator="arithmetic" k2="-1" k3="1"/>
<feColorMatrix type="matrix" values="0 0 0 0 1 0 0 0 0 1 0 0 0 0 1 0 0 0 1 0"/>
<feBlend mode="normal" in2="shape" result="effect1_innerShadow_7461_44446"/>
</filter>
<filter id="filter3_i_7461_44446" x="408.648" y="284.74" width="26.5078" height="15.3027" filterUnits="userSpaceOnUse" color-interpolation-filters="sRGB">
<feFlood flood-opacity="0" result="BackgroundImageFix"/>
<feBlend mode="normal" in="SourceGraphic" in2="BackgroundImageFix" result="shape"/>
<feColorMatrix in="SourceAlpha" type="matrix" values="0 0 0 0 0 0 0 0 0 0 0 0 0 0 0 0 0 0 127 0" result="hardAlpha"/>
<feOffset dx="0.405328" dy="0.405328"/>
<feComposite in2="hardAlpha" operator="arithmetic" k2="-1" k3="1"/>
<feColorMatrix type="matrix" values="0 0 0 0 0 0 0 0 0 0 0 0 0 0 0 0 0 0 0.6 0"/>
<feBlend mode="normal" in2="shape" result="effect1_innerShadow_7461_44446"/>
</filter>
<filter id="filter4_i_7461_44446" x="398.215" y="274.104" width="40.1309" height="23.1699" filterUnits="userSpaceOnUse" color-interpolation-filters="sRGB">
<feFlood flood-opacity="0" result="BackgroundImageFix"/>
<feBlend mode="normal" in="SourceGraphic" in2="BackgroundImageFix" result="shape"/>
<feColorMatrix in="SourceAlpha" type="matrix" values="0 0 0 0 0 0 0 0 0 0 0 0 0 0 0 0 0 0 127 0" result="hardAlpha"/>
<feOffset dx="-0.202662" dy="0.202662"/>
<feComposite in2="hardAlpha" operator="arithmetic" k2="-1" k3="1"/>
<feColorMatrix type="matrix" values="0 0 0 0 1 0 0 0 0 1 0 0 0 0 1 0 0 0 1 0"/>
<feBlend mode="normal" in2="shape" result="effect1_innerShadow_7461_44446"/>
</filter>
<filter id="filter5_i_7461_44446" x="405.029" y="278.037" width="26.5078" height="15.3027" filterUnits="userSpaceOnUse" color-interpolation-filters="sRGB">
<feFlood flood-opacity="0" result="BackgroundImageFix"/>
<feBlend mode="normal" in="SourceGraphic" in2="BackgroundImageFix" result="shape"/>
<feColorMatrix in="SourceAlpha" type="matrix" values="0 0 0 0 0 0 0 0 0 0 0 0 0 0 0 0 0 0 127 0" result="hardAlpha"/>
<feOffset dx="0.405328" dy="0.405328"/>
<feComposite in2="hardAlpha" operator="arithmetic" k2="-1" k3="1"/>
<feColorMatrix type="matrix" values="0 0 0 0 0 0 0 0 0 0 0 0 0 0 0 0 0 0 0.6 0"/>
<feBlend mode="normal" in2="shape" result="effect1_innerShadow_7461_44446"/>
</filter>
<filter id="filter6_i_7461_44446" x="401.832" y="267.422" width="40.1309" height="23.1699" filterUnits="userSpaceOnUse" color-interpolation-filters="sRGB">
<feFlood flood-opacity="0" result="BackgroundImageFix"/>
<feBlend mode="normal" in="SourceGraphic" in2="BackgroundImageFix" result="shape"/>
<feColorMatrix in="SourceAlpha" type="matrix" values="0 0 0 0 0 0 0 0 0 0 0 0 0 0 0 0 0 0 127 0" result="hardAlpha"/>
<feOffset dx="-0.202662" dy="0.202662"/>
<feComposite in2="hardAlpha" operator="arithmetic" k2="-1" k3="1"/>
<feColorMatrix type="matrix" values="0 0 0 0 1 0 0 0 0 1 0 0 0 0 1 0 0 0 1 0"/>
<feBlend mode="normal" in2="shape" result="effect1_innerShadow_7461_44446"/>
</filter>
<filter id="filter7_i_7461_44446" x="408.643" y="271.357" width="26.5078" height="15.3027" filterUnits="userSpaceOnUse" color-interpolation-filters="sRGB">
<feFlood flood-opacity="0" result="BackgroundImageFix"/>
<feBlend mode="normal" in="SourceGraphic" in2="BackgroundImageFix" result="shape"/>
<feColorMatrix in="SourceAlpha" type="matrix" values="0 0 0 0 0 0 0 0 0 0 0 0 0 0 0 0 0 0 127 0" result="hardAlpha"/>
<feOffset dx="0.405328" dy="0.405328"/>
<feComposite in2="hardAlpha" operator="arithmetic" k2="-1" k3="1"/>
<feColorMatrix type="matrix" values="0 0 0 0 0 0 0 0 0 0 0 0 0 0 0 0 0 0 0.6 0"/>
<feBlend mode="normal" in2="shape" result="effect1_innerShadow_7461_44446"/>
</filter>
<filter id="filter8_i_7461_44446" x="369.035" y="302.713" width="40.1309" height="23.1699" filterUnits="userSpaceOnUse" color-interpolation-filters="sRGB">
<feFlood flood-opacity="0" result="BackgroundImageFix"/>
<feBlend mode="normal" in="SourceGraphic" in2="BackgroundImageFix" result="shape"/>
<feColorMatrix in="SourceAlpha" type="matrix" values="0 0 0 0 0 0 0 0 0 0 0 0 0 0 0 0 0 0 127 0" result="hardAlpha"/>
<feOffset dx="-0.202662" dy="0.202662"/>
<feComposite in2="hardAlpha" operator="arithmetic" k2="-1" k3="1"/>
<feColorMatrix type="matrix" values="0 0 0 0 1 0 0 0 0 1 0 0 0 0 1 0 0 0 1 0"/>
<feBlend mode="normal" in2="shape" result="effect1_innerShadow_7461_44446"/>
</filter>
<filter id="filter9_i_7461_44446" x="375.852" y="306.646" width="26.5078" height="15.3027" filterUnits="userSpaceOnUse" color-interpolation-filters="sRGB">
<feFlood flood-opacity="0" result="BackgroundImageFix"/>
<feBlend mode="normal" in="SourceGraphic" in2="BackgroundImageFix" result="shape"/>
<feColorMatrix in="SourceAlpha" type="matrix" values="0 0 0 0 0 0 0 0 0 0 0 0 0 0 0 0 0 0 127 0" result="hardAlpha"/>
<feOffset dx="0.405328" dy="0.405328"/>
<feComposite in2="hardAlpha" operator="arithmetic" k2="-1" k3="1"/>
<feColorMatrix type="matrix" values="0 0 0 0 0 0 0 0 0 0 0 0 0 0 0 0 0 0 0.6 0"/>
<feBlend mode="normal" in2="shape" result="effect1_innerShadow_7461_44446"/>
</filter>
<filter id="filter10_i_7461_44446" x="367.047" y="293.102" width="40.1309" height="23.1699" filterUnits="userSpaceOnUse" color-interpolation-filters="sRGB">
<feFlood flood-opacity="0" result="BackgroundImageFix"/>
<feBlend mode="normal" in="SourceGraphic" in2="BackgroundImageFix" result="shape"/>
<feColorMatrix in="SourceAlpha" type="matrix" values="0 0 0 0 0 0 0 0 0 0 0 0 0 0 0 0 0 0 127 0" result="hardAlpha"/>
<feOffset dx="-0.202662" dy="0.202662"/>
<feComposite in2="hardAlpha" operator="arithmetic" k2="-1" k3="1"/>
<feColorMatrix type="matrix" values="0 0 0 0 1 0 0 0 0 1 0 0 0 0 1 0 0 0 1 0"/>
<feBlend mode="normal" in2="shape" result="effect1_innerShadow_7461_44446"/>
</filter>
<filter id="filter11_i_7461_44446" x="373.863" y="297.037" width="26.5078" height="15.3027" filterUnits="userSpaceOnUse" color-interpolation-filters="sRGB">
<feFlood flood-opacity="0" result="BackgroundImageFix"/>
<feBlend mode="normal" in="SourceGraphic" in2="BackgroundImageFix" result="shape"/>
<feColorMatrix in="SourceAlpha" type="matrix" values="0 0 0 0 0 0 0 0 0 0 0 0 0 0 0 0 0 0 127 0" result="hardAlpha"/>
<feOffset dx="0.405328" dy="0.405328"/>
<feComposite in2="hardAlpha" operator="arithmetic" k2="-1" k3="1"/>
<feColorMatrix type="matrix" values="0 0 0 0 0 0 0 0 0 0 0 0 0 0 0 0 0 0 0.6 0"/>
<feBlend mode="normal" in2="shape" result="effect1_innerShadow_7461_44446"/>
</filter>
<filter id="filter12_d_7461_44446" x="407.703" y="98.5508" width="35.3828" height="13.625" filterUnits="userSpaceOnUse" color-interpolation-filters="sRGB">
<feFlood flood-opacity="0" result="BackgroundImageFix"/>
<feColorMatrix in="SourceAlpha" type="matrix" values="0 0 0 0 0 0 0 0 0 0 0 0 0 0 0 0 0 0 127 0" result="hardAlpha"/>
<feOffset dy="4"/>
<feGaussianBlur stdDeviation="2"/>
<feComposite in2="hardAlpha" operator="out"/>
<feColorMatrix type="matrix" values="0 0 0 0 0 0 0 0 0 0 0 0 0 0 0 0 0 0 0.25 0"/>
<feBlend mode="normal" in2="BackgroundImageFix" result="effect1_dropShadow_7461_44446"/>
<feBlend mode="normal" in="SourceGraphic" in2="effect1_dropShadow_7461_44446" result="shape"/>
</filter>
<linearGradient id="paint0_linear_7461_44446" x1="245.191" y1="13.5449" x2="245.191" y2="155.374" gradientUnits="userSpaceOnUse">
<stop stop-color="#D9ABFC"/>
<stop offset="1" stop-color="#E6C7FF" stop-opacity="0"/>
</linearGradient>
<linearGradient id="paint1_linear_7461_44446" x1="159.536" y1="88.8867" x2="159.536" y2="193.375" gradientUnits="userSpaceOnUse">
<stop stop-color="#D9ABFC"/>
<stop offset="1" stop-color="#E6C7FF" stop-opacity="0"/>
</linearGradient>
<linearGradient id="paint2_linear_7461_44446" x1="323.142" y1="97.9688" x2="323.142" y2="166.79" gradientUnits="userSpaceOnUse">
<stop stop-color="#D9ABFC"/>
<stop offset="1" stop-color="#E6C7FF" stop-opacity="0"/>
</linearGradient>
<linearGradient id="paint3_linear_7461_44446" x1="420.301" y1="314.579" x2="419.225" y2="280.803" gradientUnits="userSpaceOnUse">
<stop stop-color="#FAD5FF"/>
<stop offset="1" stop-color="#CFBDFD"/>
</linearGradient>
<linearGradient id="paint4_linear_7461_44446" x1="421.898" y1="309.306" x2="420.823" y2="275.529" gradientUnits="userSpaceOnUse">
<stop stop-color="#FAD5FF"/>
<stop offset="1" stop-color="#CFBDFD"/>
</linearGradient>
<linearGradient id="paint5_linear_7461_44446" x1="418.281" y1="302.605" x2="417.206" y2="268.828" gradientUnits="userSpaceOnUse">
<stop stop-color="#FAD5FF"/>
<stop offset="1" stop-color="#CFBDFD"/>
</linearGradient>
<linearGradient id="paint6_linear_7461_44446" x1="421.894" y1="295.923" x2="420.819" y2="262.146" gradientUnits="userSpaceOnUse">
<stop stop-color="#FAD5FF"/>
<stop offset="1" stop-color="#CFBDFD"/>
</linearGradient>
<linearGradient id="paint7_linear_7461_44446" x1="389.103" y1="331.216" x2="388.028" y2="297.439" gradientUnits="userSpaceOnUse">
<stop stop-color="#FAD5FF"/>
<stop offset="1" stop-color="#CFBDFD"/>
</linearGradient>
<linearGradient id="paint8_linear_7461_44446" x1="387.117" y1="321.605" x2="386.042" y2="287.828" gradientUnits="userSpaceOnUse">
<stop stop-color="#FAD5FF"/>
<stop offset="1" stop-color="#CFBDFD"/>
</linearGradient>
</defs>
</svg>
