<svg width="752" height="433" viewBox="0 0 752 433" fill="none" xmlns="http://www.w3.org/2000/svg">
<path d="M512.273 17.7533C549.399 36.1577 574.046 77.2802 593.388 122.429C612.731 167.29 626.77 216.176 614.603 259.024C602.124 301.872 563.75 338.969 519.449 367.726C475.148 396.195 425.231 416.325 373.13 418.626C321.029 421.214 267.368 405.685 221.819 377.503C176.27 349.321 138.832 308.199 133.528 264.488C128.224 220.778 155.055 174.191 180.637 135.369C206.532 96.5474 231.178 65.4899 263.624 45.6475C295.758 25.5177 335.38 16.8906 380.305 10.2764C424.919 3.66234 474.836 -0.651199 512.273 17.7533Z" fill="#FBF7FF"/>
<path d="M247.047 196.028L304.839 167.274L303.144 182.207C401.454 197.617 399.917 288.314 396.176 344.794H359.27C363.956 246.177 348.773 232.791 299.23 216.68L297.401 232.791L247.047 196.028Z" fill="#DDC4EF"/>
<path d="M394.533 345.408H356.282C336.65 213.186 405.7 191.046 451.098 179.383L450.036 163.976L510.908 192.266L455.108 237.53L453.43 213.194C381.284 217.149 384.098 302.967 394.533 345.408Z" fill="#9065B0"/>
<path d="M394.533 345.408H356.282C336.65 213.186 405.7 191.046 451.098 179.383L450.036 163.976L510.908 192.266L455.108 237.53L453.43 213.194C381.284 217.149 384.098 302.967 394.533 345.408Z" fill="white" fill-opacity="0.2"/>
<path d="M394.533 345.408H356.282C336.65 213.186 405.7 191.046 451.098 179.383L450.036 163.976L510.908 192.266L455.108 237.53L453.43 213.194C381.284 217.149 384.098 302.967 394.533 345.408Z" fill="white" fill-opacity="0.2"/>
<path d="M376.665 88.1436L409.436 140.68H392.962V345.092H359.603V140.68H346.258L376.665 88.1436Z" fill="#9065B0"/>
<path d="M538.22 57.3926L530.098 60.9651L515.779 36.8624L530.406 30.9101L538.22 57.3926Z" fill="#FF9F98"/>
<path d="M562.444 56.9772L553.613 55.5163L552.812 28.5456L568.071 29.3759L562.444 56.9772Z" fill="#FF9F98"/>
<path d="M579.062 68.8319L574.127 63.3791L591.099 41.0368L601.282 52.1076L579.062 68.8319Z" fill="#FF9F98"/>
<path d="M611.034 69.6119L586.716 82.2861L590.264 89.4307L615.737 83.9316L611.034 69.6119Z" fill="#FF9F98"/>
<path d="M553.625 136.998L533.224 131.99C533.804 128.527 534.214 119.619 531.211 111.695C521.318 91.9412 527.931 79.4673 534.29 72.85C540.65 66.2327 551.612 63.2202 559.732 65.2134C567.852 67.2066 577.466 74.9473 579.862 84.0369C584.207 104.474 572.434 113.421 564.603 119.892C558.339 125.07 554.674 133.453 553.625 136.998Z" fill="#F59247"/>
<path d="M534.29 72.85C540.65 66.2327 551.612 63.2202 559.732 65.2134C565.676 66.6726 572.422 71.2123 576.55 77.1066C580.975 85.9578 578.682 93.1286 575.2 100.749C571.593 108.643 567.634 109.54 558.127 120.652C550.522 129.542 538.489 128.545 533.624 127.116C533.711 122.847 533.239 117.047 531.211 111.695C521.318 91.9412 527.931 79.4673 534.29 72.85Z" fill="#FFBE53"/>
<ellipse cx="546.375" cy="83.5763" rx="17.2034" ry="11.2611" transform="rotate(-42.0625 546.375 83.5763)" fill="#FFDA5F"/>
<path d="M538.234 133.715C541.328 124.764 545.819 106.424 539.042 104.666C534.643 103.586 537.175 114.523 543.317 113.817C549.458 113.112 549.453 107.498 547.616 106.771C545.779 106.043 541.826 113.451 547.902 114.943C553.978 116.434 555.644 107.556 553.649 106.987C551.654 106.418 546.739 112.919 552.172 116.386C557.604 119.854 564.08 114.566 560.55 112.04C557.02 109.514 548.709 120.832 547.422 135.732" stroke="white"/>
<path d="M533.248 134.379L551.495 138.858L549.644 146.399C548.407 151.438 543.32 154.52 538.281 153.283V153.283C533.242 152.046 530.16 146.959 531.397 141.92L533.248 134.379Z" fill="#2C3772"/>
<path d="M533.248 134.379L551.495 138.858L550.953 141.067L532.706 136.588L533.248 134.379Z" fill="#2C3772"/>
<path d="M533.248 134.379L551.495 138.858L550.953 141.067L532.706 136.588L533.248 134.379Z" fill="black" fill-opacity="0.2"/>
<path d="M532.945 131.962L553.511 137.01V137.01C552.974 139.195 550.769 140.531 548.585 139.994L535.929 136.888C533.745 136.351 532.409 134.146 532.945 131.962V131.962Z" fill="#2B3575"/>
<rect x="531.035" y="138.111" width="21.1372" height="2.2646" rx="1.1323" transform="rotate(13.7922 531.035 138.111)" fill="#5D669D"/>
<rect x="529.98" y="142.411" width="21.1372" height="2.2646" rx="1.1323" transform="rotate(13.7922 529.98 142.411)" fill="#5D669D"/>
<path d="M283.882 113.704L297.509 100.077L294.803 97.3704L283.882 108.292L278.373 102.783L275.666 105.489L283.882 113.704ZM286.588 124.143C283.914 124.143 281.401 123.635 279.049 122.62C276.697 121.606 274.652 120.228 272.912 118.489C271.172 116.749 269.795 114.703 268.78 112.351C267.765 109.999 267.258 107.486 267.258 104.813C267.258 102.139 267.765 99.6256 268.78 97.2738C269.795 94.9219 271.172 92.8762 272.912 91.1365C274.652 89.3968 276.697 88.0195 279.049 87.0047C281.401 85.9898 283.914 85.4824 286.588 85.4824C289.262 85.4824 291.775 85.9898 294.127 87.0047C296.478 88.0195 298.524 89.3968 300.264 91.1365C302.004 92.8762 303.381 94.9219 304.396 97.2738C305.411 99.6256 305.918 102.139 305.918 104.813C305.918 107.486 305.411 109.999 304.396 112.351C303.381 114.703 302.004 116.749 300.264 118.489C298.524 120.228 296.478 121.606 294.127 122.62C291.775 123.635 289.262 124.143 286.588 124.143Z" fill="#34A853"/>
<circle cx="267.26" cy="289.324" r="38.8385" fill="#9065B0"/>
<path d="M228.834 283.681C228.956 282.853 229.104 282.028 229.279 281.209L267.26 289.324L228.834 283.681Z" fill="white"/>
<path d="M262.272 250.807C263.103 250.699 263.937 250.619 264.772 250.565L267.26 289.324L262.272 250.807Z" fill="white"/>
<path d="M243.092 252.504C233.327 258.913 226.508 268.939 224.135 280.377L267.259 289.324L243.092 252.504Z" fill="#C781FF"/>
<path d="M260.712 233.33C251.958 234.353 243.565 237.415 236.208 242.27L267.259 289.323L260.712 233.33Z" fill="#EFDBFF"/>
<g filter="url(#filter0_ddd_7461_44568)">
<path d="M576.598 345.674C576.598 304.451 543.18 271.033 501.957 271.033C489.29 271.033 477.361 274.188 466.911 279.756L435.406 266.745L446.474 295.744C434.565 308.97 427.316 326.475 427.316 345.674C427.316 386.897 460.734 420.314 501.957 420.314C543.18 420.314 576.598 386.897 576.598 345.674Z" fill="white"/>
<circle cx="501.957" cy="342.059" r="48.4552" fill="#E60004"/>
<circle cx="501.956" cy="342.059" r="33.8541" fill="white"/>
<circle cx="501.957" cy="342.06" r="13.3573" fill="#E60004"/>
<path d="M544.854 298.404L546.963 300.397L556.333 302.15L545.339 311.75H535.58L503.715 343.528L501.957 341.536L533.615 309.704L532.831 300.397L544.064 289.323L544.854 298.404Z" fill="black"/>
</g>
<defs>
<filter id="filter0_ddd_7461_44568" x="419.316" y="262.744" width="165.281" height="169.57" filterUnits="userSpaceOnUse" color-interpolation-filters="sRGB">
<feFlood flood-opacity="0" result="BackgroundImageFix"/>
<feColorMatrix in="SourceAlpha" type="matrix" values="0 0 0 0 0 0 0 0 0 0 0 0 0 0 0 0 0 0 127 0" result="hardAlpha"/>
<feOffset/>
<feGaussianBlur stdDeviation="0.25"/>
<feComposite in2="hardAlpha" operator="out"/>
<feColorMatrix type="matrix" values="0 0 0 0 0.792157 0 0 0 0 0.533333 0 0 0 0 1 0 0 0 0.4 0"/>
<feBlend mode="normal" in2="BackgroundImageFix" result="effect1_dropShadow_7461_44568"/>
<feColorMatrix in="SourceAlpha" type="matrix" values="0 0 0 0 0 0 0 0 0 0 0 0 0 0 0 0 0 0 127 0" result="hardAlpha"/>
<feOffset dy="1"/>
<feGaussianBlur stdDeviation="1.5"/>
<feComposite in2="hardAlpha" operator="out"/>
<feColorMatrix type="matrix" values="0 0 0 0 0.792157 0 0 0 0 0.533333 0 0 0 0 1 0 0 0 0.09 0"/>
<feBlend mode="normal" in2="effect1_dropShadow_7461_44568" result="effect2_dropShadow_7461_44568"/>
<feColorMatrix in="SourceAlpha" type="matrix" values="0 0 0 0 0 0 0 0 0 0 0 0 0 0 0 0 0 0 127 0" result="hardAlpha"/>
<feOffset dy="4"/>
<feGaussianBlur stdDeviation="4"/>
<feComposite in2="hardAlpha" operator="out"/>
<feColorMatrix type="matrix" values="0 0 0 0 0.792157 0 0 0 0 0.533333 0 0 0 0 1 0 0 0 0.09 0"/>
<feBlend mode="normal" in2="effect2_dropShadow_7461_44568" result="effect3_dropShadow_7461_44568"/>
<feBlend mode="normal" in="SourceGraphic" in2="effect3_dropShadow_7461_44568" result="shape"/>
</filter>
</defs>
</svg>
