<svg width="65" height="64" viewBox="0 0 65 64" fill="none" xmlns="http://www.w3.org/2000/svg">
<mask id="mask0_7461_44178" style="mask-type:alpha" maskUnits="userSpaceOnUse" x="5" y="4" width="55" height="55">
<rect x="5.32227" y="4.32227" width="54.3555" height="54.3555" fill="#D9D9D9"/>
</mask>
<g mask="url(#mask0_7461_44178)">
<path d="M46.0903 49.62L35.3325 38.8621L32.5015 47.3551L25.707 24.707L48.3551 31.5015L39.9753 34.4457L50.62 45.0903L46.0903 49.62Z" fill="#7601D3"/>
<path d="M9.85156 26.9709V31.5005H16.646V26.9709H9.85156Z" fill="#C57DFF"/>
<path d="M14.3812 40.7862L17.5519 44.0702L22.4213 39.2008L19.1373 36.0301L14.3812 40.7862Z" fill="#C57DFF"/>
<path d="M14.3812 17.6851L19.1373 22.4412L22.4213 19.2705L17.5519 14.4012L14.3812 17.6851Z" fill="#C57DFF"/>
<path d="M27.9701 11.1172V17.9116H32.4997V11.1172H27.9701Z" fill="#C57DFF"/>
<path d="M38.0485 19.2705L41.3324 22.4412L46.0885 17.5719L42.9178 14.4012L38.0485 19.2705Z" fill="#C57DFF"/>
</g>
</svg>
