<svg width="64" height="64" viewBox="0 0 64 64" fill="none" xmlns="http://www.w3.org/2000/svg">
<path d="M57.0658 18.6261C58.3955 18.6261 59.4735 17.5481 59.4735 16.2183C59.4735 14.8885 58.3955 13.8105 57.0658 13.8105C56.1027 13.8105 55.2717 14.3759 54.8866 15.1929H38.5082C38.2328 15.1929 37.9689 15.3037 37.7761 15.5004L22.1779 31.412C21.7854 31.8125 21.7873 32.454 22.1823 32.852L37.7805 48.5709C37.973 48.7649 38.2349 48.874 38.5082 48.874H42.5469C42.932 49.691 43.763 50.2565 44.726 50.2565C46.0558 50.2565 47.1338 49.1784 47.1338 47.8487C47.1338 46.5189 46.0558 45.4409 44.726 45.4409C43.7629 45.4409 42.9319 46.0064 42.5468 46.8234H38.9353L27.486 35.2855L40.2194 40.9448C40.3505 41.003 40.4923 41.0331 40.6358 41.0331H47.4077C47.8102 41.8005 48.6146 42.3241 49.5413 42.3241C50.8711 42.3241 51.9491 41.246 51.9491 39.9163C51.9491 38.5865 50.8711 37.5085 49.5413 37.5085C48.5426 37.5085 47.686 38.1165 47.3213 38.9825H40.8534L27.7416 33.1551H54.8202C55.1691 34.0546 56.043 34.6923 57.0658 34.6923C58.3955 34.6923 59.4735 33.6143 59.4735 32.2845C59.4735 30.9548 58.3955 29.8767 57.0658 29.8767C56.1647 29.8767 55.3793 30.3717 54.9665 31.1045H27.861L40.8481 25.4843H47.4144C47.8191 26.2448 48.6198 26.7625 49.5413 26.7625C50.8711 26.7625 51.9491 25.6845 51.9491 24.3547C51.9491 23.0249 50.8711 21.9469 49.5413 21.9469C48.5378 21.9469 47.6776 22.5609 47.316 23.4337H40.6358C40.4957 23.4337 40.3571 23.4624 40.2286 23.518L27.3059 29.1103L38.9389 17.2435H54.8865C55.2715 18.0606 56.1026 18.6261 57.0658 18.6261Z" fill="#FACE1C"/>
<path d="M20.1025 14.625C20.1025 14.0727 20.5502 13.625 21.1025 13.625H22.9006L22.9006 50.375H21.1025C20.5502 50.375 20.1025 49.9273 20.1025 49.375V47.0729C17.9519 46.6761 15.9586 45.8303 14.2235 44.6364L12.5942 46.2657C12.2037 46.6562 11.5705 46.6562 11.18 46.2657L8.63701 43.7227C8.24648 43.3322 8.24649 42.699 8.63701 42.3085L10.2662 40.6793C9.07163 38.9434 8.22551 36.9492 7.82881 34.7974H5.52539C4.97311 34.7974 4.52539 34.3497 4.52539 33.7974V30.2012C4.52539 29.6489 4.97311 29.2012 5.52539 29.2012H7.82938C8.22619 27.0513 9.07165 25.0587 10.265 23.3241L8.63473 21.6938C8.2442 21.3033 8.2442 20.6701 8.63473 20.2796L11.1777 17.7366C11.5682 17.3461 12.2014 17.3461 12.5919 17.7366L14.2218 19.3665C15.9573 18.172 17.9512 17.3258 20.1025 16.9288V14.625Z" fill="#DB94FF"/>
<path d="M24.6985 13.625C25.2508 13.625 25.6985 14.0727 25.6985 14.625V16.9286C27.8499 17.3254 29.8438 18.1714 31.5794 19.3658L33.2087 17.7365C33.5992 17.346 34.2324 17.346 34.6229 17.7365L37.1659 20.2795C37.5564 20.67 37.5564 21.3032 37.1659 21.6937L35.5365 23.3231C36.7303 25.058 37.576 27.0509 37.9728 29.2012H40.2751C40.8274 29.2012 41.2751 29.6489 41.2751 30.2012V33.7974C41.2751 34.3497 40.8274 34.7974 40.2751 34.7974H37.9734C37.5766 36.9496 36.7303 38.9442 35.5353 40.6803L37.1636 42.3086C37.5541 42.6991 37.5541 43.3323 37.1636 43.7228L34.6206 46.2657C34.2301 46.6563 33.597 46.6563 33.2064 46.2657L31.5777 44.6371C29.8425 45.8308 27.8492 46.6765 25.6985 47.0731V49.375C25.6985 49.9273 25.2508 50.375 24.6985 50.375H22.9004L22.9004 13.625H24.6985Z" fill="#A056F7"/>
<ellipse cx="22.9001" cy="32.0017" rx="11.236" ry="11.236" fill="#7601D3"/>
<path d="M22.9004 43.2377C29.1059 43.2377 34.1364 38.2072 34.1364 32.0017C34.1364 25.7962 29.1059 20.7656 22.9004 20.7656V43.2377Z" fill="#5E01A9"/>
<path d="M22.3232 24.0936C22.3232 23.7733 22.5828 23.5137 22.9031 23.5137C23.2233 23.5137 23.4829 23.7733 23.4829 24.0936V25.9754C23.4829 26.2956 23.2233 26.5553 22.9031 26.5553C22.5828 26.5553 22.3232 26.2956 22.3232 25.9754V24.0936Z" fill="white"/>
<path d="M22.3232 38.044C22.3232 37.7238 22.5828 37.4641 22.9031 37.4641C23.2233 37.4641 23.4829 37.7238 23.4829 38.044V39.925C23.4829 40.2453 23.2233 40.5049 22.9031 40.5049C22.5828 40.5049 22.3232 40.2453 22.3232 39.925V38.044Z" fill="white"/>
<path d="M17.449 32.0119C17.449 31.6916 17.1894 31.432 16.8691 31.432H14.9881C14.6678 31.432 14.4082 31.6916 14.4082 32.0119C14.4082 32.3321 14.6678 32.5918 14.9881 32.5918H16.8691C17.1893 32.5918 17.449 32.3321 17.449 32.0119Z" fill="white"/>
<path d="M30.8158 31.432C31.136 31.432 31.3956 31.6916 31.3956 32.0119C31.3956 32.3321 31.136 32.5918 30.8158 32.5918H28.9348C28.6145 32.5918 28.3549 32.3321 28.3549 32.0119C28.3549 31.6916 28.6145 31.432 28.9348 31.432H30.8158Z" fill="white"/>
<path d="M20.9238 31.805L19.5609 31.0181C19.1683 30.7915 19.0338 30.2895 19.2605 29.8969C19.4872 29.5043 19.9892 29.3698 20.3818 29.5964L21.7437 30.3828C22.0695 30.1489 22.4689 30.0113 22.9005 30.0113C23.9973 30.0113 24.8865 30.9004 24.8865 31.9972C24.8865 32.5216 24.6833 32.9984 24.3514 33.3534L26.0673 36.3256C26.2275 36.6029 26.1324 36.9576 25.8551 37.1177C25.5777 37.2778 25.2231 37.1828 25.063 36.9054L23.3467 33.9329C23.2033 33.9658 23.054 33.9832 22.9005 33.9832C21.8037 33.9832 20.9146 33.094 20.9146 31.9972C20.9146 31.9324 20.9177 31.8682 20.9238 31.805Z" fill="white"/>
</svg>
