<svg width="65" height="64" viewBox="0 0 65 64" fill="none" xmlns="http://www.w3.org/2000/svg">
<path d="M53.7014 30.1359C53.7014 29.0361 52.8098 28.1445 51.71 28.1445H28.3154C27.2156 28.1445 26.324 29.0361 26.324 30.1359V45.5653C26.324 46.6651 27.2156 47.5566 28.3154 47.5566H45.4056C46.0516 47.5566 46.6574 47.8699 47.0307 48.3971L50.0867 52.7118C51.209 54.2964 53.704 53.5018 53.7031 51.56L53.7014 30.1359Z" fill="#DB94FF"/>
<path d="M11.2954 12.1556C11.2954 10.6598 12.508 9.44727 14.0037 9.44727H45.8214C47.3171 9.44727 48.5297 10.6598 48.5297 12.1556V33.1402C48.5297 34.636 47.3171 35.8486 45.8214 35.8486H22.5779C21.6994 35.8486 20.8755 36.2747 20.3677 36.9916L16.2115 42.8598C14.6851 45.015 11.2918 43.9342 11.293 41.2933L11.2954 12.1556Z" fill="#7601D3"/>
<path d="M24.1277 22.4974C24.1277 23.7904 23.0795 24.8386 21.7865 24.8386C20.4935 24.8386 19.4453 23.7904 19.4453 22.4974C19.4453 21.2044 20.4935 20.1562 21.7865 20.1562C23.0795 20.1562 24.1277 21.2044 24.1277 22.4974Z" fill="white"/>
<path d="M32.2528 22.4974C32.2528 23.7904 31.2046 24.8386 29.9116 24.8386C28.6186 24.8386 27.5705 23.7904 27.5705 22.4974C27.5705 21.2044 28.6186 20.1562 29.9116 20.1562C31.2046 20.1562 32.2528 21.2044 32.2528 22.4974Z" fill="white"/>
<path d="M38.0365 24.8386C39.3295 24.8386 40.3777 23.7904 40.3777 22.4974C40.3777 21.2044 39.3295 20.1562 38.0365 20.1562C36.7435 20.1562 35.6953 21.2044 35.6953 22.4974C35.6953 23.7904 36.7435 24.8386 38.0365 24.8386Z" fill="white"/>
</svg>
