<svg width="65" height="64" viewBox="0 0 65 64" fill="none" xmlns="http://www.w3.org/2000/svg">
<path d="M22.392 11.7941C22.651 11.609 22.9685 11.5 23.3121 11.5C24.1879 11.5 24.8972 12.2096 24.8972 13.0851V16.8657H21.727V13.0851C21.727 12.7796 21.8129 12.4942 21.9626 12.2522C22.0732 12.0726 22.2203 11.9168 22.392 11.7941Z" fill="#FACE1C"/>
<path d="M28.1298 12.1868C28.4161 11.772 28.8937 11.5 29.4363 11.5C30.3122 11.5 31.0214 12.2096 31.0214 13.0851V16.8657H27.8513V13.0851C27.8513 12.9104 27.8786 12.7425 27.9307 12.5853C27.9788 12.4422 28.0465 12.3085 28.1298 12.1868Z" fill="#FACE1C"/>
<path d="M33.9755 13.0851C33.9755 12.2096 34.6848 11.5 35.5606 11.5C36.4364 11.5 37.1456 12.2096 37.1456 13.0851V16.8657H33.9755V13.0851Z" fill="#FACE1C"/>
<path d="M40.0997 13.0851C40.0997 12.2096 40.809 11.5 41.6848 11.5C42.5606 11.5 43.2699 12.2096 43.2699 13.0851V16.8657H40.0997V13.0851Z" fill="#FACE1C"/>
<path d="M22.392 52.2059C22.651 52.391 22.9685 52.5 23.3121 52.5C24.1879 52.5 24.8972 51.7904 24.8972 50.9149V45.1343H21.727V50.9149C21.727 51.2204 21.8129 51.5058 21.9626 51.7478C22.0732 51.9274 22.2203 52.0832 22.392 52.2059Z" fill="#FACE1C"/>
<path d="M28.1298 51.8132C28.4161 52.228 28.8937 52.5 29.4363 52.5C30.3122 52.5 31.0214 51.7904 31.0214 50.9149V45.1343H27.8513V50.9149C27.8513 51.0896 27.8786 51.2575 27.9307 51.4147C27.9788 51.5578 28.0465 51.6915 28.1298 51.8132Z" fill="#FACE1C"/>
<path d="M33.9755 50.9149C33.9755 51.7904 34.6848 52.5 35.5606 52.5C36.4364 52.5 37.1456 51.7904 37.1456 50.9149V45.1343H33.9755V50.9149Z" fill="#FACE1C"/>
<path d="M40.0997 50.9149C40.0997 51.7904 40.809 52.5 41.6848 52.5C42.5606 52.5 43.2699 51.7904 43.2699 50.9149V45.1343H40.0997V50.9149Z" fill="#FACE1C"/>
<path d="M12 22.8134C12 22.4699 12.109 22.1523 12.2941 21.8933C12.4168 21.7216 12.5726 21.5745 12.7522 21.4639C12.9942 21.3142 13.2796 21.2283 13.5851 21.2283H19.3657V24.3985L13.5851 24.3985C12.7096 24.3985 12 23.6892 12 22.8134Z" fill="#FACE1C"/>
<path d="M12 28.9376C12 28.395 12.272 27.9174 12.6868 27.6311C12.8085 27.5478 12.9422 27.4801 13.0853 27.432C13.2425 27.3799 13.4104 27.3526 13.5851 27.3526H19.3657V30.5227L13.5851 30.5227C12.7096 30.5227 12 29.8135 12 28.9376Z" fill="#FACE1C"/>
<path d="M12 35.0619C12 34.1861 12.7096 33.4768 13.5851 33.4768H19.3657V36.647H13.5851C12.7096 36.647 12 35.9377 12 35.0619Z" fill="#FACE1C"/>
<path d="M12 41.1861C12 40.3103 12.7096 39.6011 13.5851 39.6011H19.3657V42.7712H13.5851C12.7096 42.7712 12 42.0619 12 41.1861Z" fill="#FACE1C"/>
<path d="M52.7059 21.8933C52.891 22.1523 53 22.4699 53 22.8134C53 23.6892 52.2904 24.3985 51.4149 24.3985L45.6343 24.3985V21.2283H51.4149C51.7204 21.2283 52.0058 21.3142 52.2478 21.4639C52.4274 21.5745 52.5832 21.7216 52.7059 21.8933Z" fill="#FACE1C"/>
<path d="M52.3132 27.6311C52.728 27.9174 53 28.395 53 28.9376C53 29.8135 52.2904 30.5227 51.4149 30.5227L45.6343 30.5227V27.3526H51.4149C51.5896 27.3526 51.7575 27.3799 51.9147 27.432C52.0578 27.4801 52.1915 27.5478 52.3132 27.6311Z" fill="#FACE1C"/>
<path d="M51.4149 33.4768C52.2904 33.4768 53 34.1861 53 35.0619C53 35.9377 52.2904 36.647 51.4149 36.647H45.6343V33.4768H51.4149Z" fill="#FACE1C"/>
<path d="M51.4149 39.6011C52.2904 39.6011 53 40.3103 53 41.1861C53 42.0619 52.2904 42.7712 51.4149 42.7712H45.6343V39.6011H51.4149Z" fill="#FACE1C"/>
<path d="M17.3652 19.8672C17.3652 18.2103 18.7084 16.8672 20.3652 16.8672H32.4995H44.6337C46.2906 16.8672 47.6338 18.2103 47.6338 19.8672V44.1357C47.6338 45.7926 46.2906 47.1357 44.6338 47.1357H32.4995H20.3652C18.7084 47.1357 17.3652 45.7926 17.3652 44.1357V19.8672Z" fill="#7601D3"/>
<path d="M17.3652 19.8672C17.3652 18.2103 18.7084 16.8672 20.3652 16.8672H32.4995H44.6337C46.2906 16.8672 47.6338 18.2103 47.6338 19.8672V44.1357C47.6338 45.7926 46.2906 47.1357 44.6338 47.1357H32.4995H20.3652C18.7084 47.1357 17.3652 45.7926 17.3652 44.1357V19.8672Z" fill="white" fill-opacity="0.2"/>
<path d="M47.6343 44.1357V19.8672C47.6343 18.2103 46.2911 16.8672 44.6343 16.8672H32.5L32.5 47.1357H44.6343C46.2911 47.1357 47.6343 45.7926 47.6343 44.1357Z" fill="#7601D3"/>
<path d="M40.4403 26.6245H41.9861V24.4609H36.5568V26.6245H38.1056V35.1434H36.5566V37.3069H41.9859V35.1434H40.4403V26.6245Z" fill="white"/>
<path fill-rule="evenodd" clip-rule="evenodd" d="M30.2543 24.461L34.2456 35.1436H35.319V37.3071H30.5625V35.1436H31.7776L31.2149 33.4326H27.1288L26.5675 35.1434H27.776V37.3069H23.0195V35.1434H24.1066L28.0758 24.461H30.2543ZM27.7308 31.5977H30.6113L29.1693 27.2134L27.7308 31.5977Z" fill="white"/>
</svg>
