<svg width="65" height="64" viewBox="0 0 65 64" fill="none" xmlns="http://www.w3.org/2000/svg">
<path d="M50.8139 53.6875L35.6326 38.5063C34.4278 39.4701 33.0422 40.2332 31.4759 40.7955C29.9095 41.3578 28.2428 41.6389 26.4757 41.6389C22.098 41.6389 18.3931 40.1228 15.3609 37.0905C12.3286 34.0583 10.8125 30.3534 10.8125 25.9757C10.8125 21.598 12.3286 17.8931 15.3609 14.8609C18.3931 11.8286 22.098 10.3125 26.4757 10.3125C30.8534 10.3125 34.5583 11.8286 37.5905 14.8609C40.6228 17.8931 42.1389 21.598 42.1389 25.9757C42.1389 27.7428 41.8578 29.4095 41.2955 30.9759C40.7332 32.5422 39.9701 33.9278 39.0063 35.1326L54.1875 50.3139L50.8139 53.6875ZM26.4757 36.8194C29.4878 36.8194 32.0482 35.7652 34.1567 33.6567C36.2652 31.5482 37.3194 28.9878 37.3194 25.9757C37.3194 22.9635 36.2652 20.4032 34.1567 18.2947C32.0482 16.1862 29.4878 15.1319 26.4757 15.1319C23.4635 15.1319 20.9032 16.1862 18.7947 18.2947C16.6862 20.4032 15.6319 22.9635 15.6319 25.9757C15.6319 28.9878 16.6862 31.5482 18.7947 33.6567C20.9032 35.7652 23.4635 36.8194 26.4757 36.8194Z" fill="#7601D3"/>
</svg>
