<svg width="65" height="64" viewBox="0 0 65 64" fill="none" xmlns="http://www.w3.org/2000/svg">
<path d="M12.8125 15.7899C12.8125 14.0743 14.2032 12.6836 15.9188 12.6836H44.0952C45.8108 12.6836 47.2015 14.0743 47.2015 15.7899V49.294C47.2015 51.0095 45.8108 52.4003 44.0952 52.4003H15.9188C14.2032 52.4003 12.8125 51.0095 12.8125 49.294V15.7899Z" fill="#DB94FF"/>
<path d="M17.9082 34.0543C17.9082 33.5162 18.3444 33.0801 18.8824 33.0801H31.4636C32.0016 33.0801 32.4378 33.5162 32.4378 34.0543C32.4378 34.5923 32.0016 35.0285 31.4636 35.0285H18.8824C18.3444 35.0285 17.9082 34.5923 17.9082 34.0543Z" fill="white"/>
<path d="M17.9082 40.232C17.9082 39.694 18.3444 39.2578 18.8824 39.2578H31.4636C32.0016 39.2578 32.4378 39.694 32.4378 40.232C32.4378 40.77 32.0016 41.2062 31.4636 41.2062H18.8824C18.3444 41.2062 17.9082 40.77 17.9082 40.232Z" fill="white"/>
<path d="M18.8824 45.4375C18.3444 45.4375 17.9082 45.8737 17.9082 46.4117C17.9082 46.9497 18.3444 47.3859 18.8824 47.3859H31.4636C32.0016 47.3859 32.4378 46.9497 32.4378 46.4117C32.4378 45.8737 32.0016 45.4375 31.4636 45.4375H18.8824Z" fill="white"/>
<path d="M10 12.9735C10 11.2579 11.3907 9.86719 13.1063 9.86719H38.2583C39.9739 9.86719 41.3646 11.2579 41.3646 12.9735V27.2621C41.3646 28.9777 39.9739 30.3684 38.2583 30.3684H13.1063C11.3907 30.3684 10 28.9777 10 27.2621V12.9735Z" fill="white"/>
<path d="M11.7773 13.6036C11.7773 12.3781 12.7707 11.3848 13.9961 11.3848H37.3857C38.6111 11.3848 39.6045 12.3781 39.6045 13.6036V26.6294C39.6045 27.8548 38.6111 28.8482 37.3857 28.8482H13.9961C12.7707 28.8482 11.7773 27.8548 11.7773 26.6294V13.6036Z" fill="#7601D3"/>
<path fill-rule="evenodd" clip-rule="evenodd" d="M20.1934 15.0371H18.3353L14.7324 24.7336H16.8569L17.5276 22.6891H21.0127L21.6851 24.7336H23.8162L20.1934 15.0371ZM20.4979 21.1241H18.0411L19.268 17.3847L20.4979 21.1241Z" fill="white"/>
<path d="M28.0811 15.0371V24.7336H26.0898V15.0371H28.0811Z" fill="white"/>
<path d="M37.3667 23.459H30.7207V24.7326H37.3667V23.459Z" fill="white"/>
<path d="M38.5703 54.1317C42.0338 52.2091 49.0561 48.3071 49.4376 48.0798C49.9144 47.7958 50.5739 46.9943 50.6145 45.9289C50.647 45.0767 50.9053 41.3532 51.0305 39.5979L45.0487 35.4141C43.4002 36.2255 39.9462 37.9238 39.3182 38.2253C38.5332 38.6021 37.8424 39.1987 37.7168 40.3919C37.6163 41.3464 36.5408 48.8018 36.0156 52.4102L36.7093 52.8777L41.6527 45.7099C41.4076 45.3762 41.2629 44.9643 41.2629 44.5185C41.2629 43.4058 42.165 42.5037 43.2777 42.5037C44.3905 42.5037 45.2925 43.4058 45.2925 44.5185C45.2925 45.6313 44.3905 46.5333 43.2777 46.5333C43.1105 46.5333 42.9481 46.513 42.7928 46.4746L37.7738 53.595L38.5703 54.1317Z" fill="#FACE1C"/>
<path d="M47.477 31.7748C48.2523 30.6609 49.7839 30.3864 50.8979 31.1617L52.9831 32.6131C54.0971 33.3884 54.3716 34.92 53.5962 36.034L51.9448 38.4066L45.8255 34.1475L47.477 31.7748Z" fill="#7601D3"/>
</svg>
