<svg width="64" height="64" viewBox="0 0 64 64" fill="none" xmlns="http://www.w3.org/2000/svg">
<path d="M11.1562 11.7504C11.1562 10.5075 12.1638 9.5 13.4066 9.5H47.1101C48.353 9.5 49.3605 10.5075 49.3605 11.7504V49.8025C49.3605 51.0453 48.353 52.0528 47.1101 52.0528H13.4066C12.1638 52.0528 11.1562 51.0453 11.1562 49.8025V11.7504Z" fill="#FFF5F5"/>
<path d="M11.1562 11.7504C11.1562 10.5075 12.1638 9.5 13.4066 9.5H47.1101C48.353 9.5 49.3605 10.5075 49.3605 11.7504V15.374H11.1562V11.7504Z" fill="#7601D3"/>
<path d="M11.1562 11.7504C11.1562 10.5075 12.1638 9.5 13.4066 9.5H47.1101C48.353 9.5 49.3605 10.5075 49.3605 11.7504V15.374H11.1562V11.7504Z" fill="black" fill-opacity="0.2"/>
<path d="M11.1562 11.7504V15.374H30.2584V9.5H13.4066C12.1638 9.5 11.1562 10.5075 11.1562 11.7504Z" fill="#7601D3"/>
<path d="M41.0898 24.9968C41.0898 24.6307 41.3866 24.334 41.7527 24.334C42.1187 24.334 42.4155 24.6307 42.4155 24.9968V29.3466C42.4155 29.7127 42.1187 30.0094 41.7527 30.0094C41.3866 30.0094 41.0898 29.7127 41.0898 29.3466V24.9968Z" fill="black" fill-opacity="0.87"/>
<path d="M19.5566 25.9593C19.5566 24.8546 20.4522 23.959 21.557 23.959H29.0835H36.6101C37.7148 23.959 38.6104 24.8546 38.6104 25.9593V31.1813C38.6104 32.2861 37.7148 33.1816 36.6101 33.1816H29.0835H21.557C20.4522 33.1816 19.5566 32.2861 19.5566 31.1813V25.9593Z" fill="#A056F7"/>
<path d="M38.6109 31.1794V25.9573C38.6109 24.8526 37.7153 23.957 36.6106 23.957H29.084V33.1797H36.6106C37.7153 33.1797 38.6109 32.2841 38.6109 31.1794Z" fill="#A056F7"/>
<path d="M38.6109 31.1794V25.9573C38.6109 24.8526 37.7153 23.957 36.6106 23.957H29.084V33.1797H36.6106C37.7153 33.1797 38.6109 32.2841 38.6109 31.1794Z" fill="white" fill-opacity="0.2"/>
<path d="M28.8074 20.4139C28.9697 20.3725 29.1398 20.3725 29.302 20.4139L41.8371 23.6129C42.8409 23.8691 42.8409 25.2949 41.8371 25.5511L29.302 28.7501C29.1398 28.7916 28.9697 28.7916 28.8074 28.7501L16.2724 25.5511C15.2686 25.2949 15.2686 23.8691 16.2724 23.6129L28.8074 20.4139Z" fill="#7601D3"/>
<path d="M18.0332 37.3983C18.0332 36.9712 18.3794 36.625 18.8065 36.625H38.8439C39.2709 36.625 39.6172 36.9712 39.6172 37.3983C39.6172 37.8254 39.2709 38.1716 38.8439 38.1716H18.8065C18.3794 38.1716 18.0332 37.8254 18.0332 37.3983Z" fill="#7601D3"/>
<path d="M18.0332 41.2383C18.0332 40.8112 18.3794 40.465 18.8065 40.465H33.4451C33.8721 40.465 34.2184 40.8112 34.2184 41.2383C34.2184 41.6654 33.8721 42.0116 33.4451 42.0116H18.8065C18.3794 42.0116 18.0332 41.6654 18.0332 41.2383Z" fill="#7601D3"/>
<path d="M40.6836 30.0833C40.6836 29.4829 41.1704 28.9961 41.7708 28.9961C42.3712 28.9961 42.858 29.4829 42.858 30.0833V31.9388C42.858 32.5393 42.3712 33.026 41.7708 33.026C41.1704 33.026 40.6836 32.5393 40.6836 31.9388V30.0833Z" fill="#FACE1C"/>
<path fill-rule="evenodd" clip-rule="evenodd" d="M47.6273 38.3145C47.2129 38.3145 46.8772 38.6503 46.8772 39.0646V39.957C46.5712 40.0459 46.2741 40.1559 45.9877 40.2855C45.8277 40.3577 45.6712 40.4361 45.5183 40.5204L44.8871 39.889C44.5941 39.5961 44.1192 39.5961 43.8262 39.889L42.2344 41.4808C41.9416 41.7737 41.9416 42.2488 42.2344 42.5417L42.8658 43.1731C42.6309 43.5998 42.4412 44.0549 42.3027 44.5317H41.4103C40.9959 44.5317 40.6602 44.8676 40.6602 45.2819V47.5329C40.6602 47.9472 40.9959 48.2831 41.4103 48.2831H42.303C42.4414 48.7598 42.6312 49.2147 42.8661 49.6414L42.2346 50.273C41.9416 50.5659 41.9416 51.0408 42.2346 51.3338L43.8262 52.9255C44.1192 53.2185 44.5941 53.2185 44.8871 52.9255L45.5188 52.2939C45.9454 52.5288 46.4003 52.7186 46.8772 52.857V53.7497C46.8772 54.164 47.2129 54.4999 47.6273 54.4999H49.8784C50.095 54.4999 50.2901 54.408 50.4271 54.2612C50.5521 54.1272 50.6285 53.9474 50.6285 53.7497V52.857C51.1052 52.7186 51.5601 52.5287 51.9866 52.2939L52.6183 52.9256C52.9114 53.2185 53.3863 53.2185 53.6793 52.9256L55.2711 51.3338C55.5639 51.0409 55.5639 50.566 55.2711 50.2731L54.6394 49.6414C54.763 49.4172 54.8741 49.1849 54.9717 48.946C55.0596 48.7304 55.1368 48.5092 55.2025 48.2831H56.0954C56.5098 48.2831 56.8456 47.9472 56.8456 47.5329V45.2819C56.8456 44.8676 56.5098 44.5317 56.0954 44.5317H55.2027C55.0643 44.0549 54.8746 43.5998 54.6397 43.1731L55.2711 42.5416C55.5641 42.2487 55.5641 41.7736 55.2711 41.4807L53.6793 39.8889C53.3865 39.596 52.9114 39.596 52.6186 39.8889L51.9871 40.5204C51.5603 40.2855 51.1054 40.0955 50.6285 39.957V39.0646C50.6285 38.6503 50.2928 38.3145 49.8784 38.3145H47.6273ZM48.7527 48.873C50.1148 48.873 51.2187 47.7689 51.2187 46.407C51.2187 45.0451 50.1148 43.9411 48.7527 43.9411C47.3907 43.9411 46.2868 45.0451 46.2868 46.407C46.2868 47.7689 47.3907 48.873 48.7527 48.873Z" fill="#FACE1C"/>
<circle cx="48.7518" cy="46.4081" r="3.69321" fill="#7601D3"/>
<circle cx="48.7517" cy="46.406" r="1.73416" fill="white"/>
</svg>
