<svg width="65" height="64" viewBox="0 0 65 64" fill="none" xmlns="http://www.w3.org/2000/svg">
<path d="M21.9093 25.8841C23.445 24.6667 25.1442 23.5077 26.9845 22.4452C28.8246 21.3828 30.6779 20.4908 32.5 19.7695C34.322 20.4908 36.1753 21.3828 38.0155 22.4452C39.8558 23.5078 41.5551 24.6668 43.0909 25.8843C43.3772 27.8228 43.5314 29.8738 43.5314 31.9986C43.5314 34.1235 43.3772 36.1746 43.0908 38.1133C41.5551 39.3306 39.856 40.4896 38.0158 41.552C36.1755 42.6145 34.3221 43.5066 32.5 44.2279C30.6778 43.5066 28.8244 42.6145 26.9842 41.552C25.1441 40.4896 23.445 39.3307 21.9093 38.1134C21.6229 36.1747 21.4688 34.1236 21.4688 31.9986C21.4688 29.8737 21.6229 27.8227 21.9093 25.8841Z" fill="#FACE1C"/>
<path fill-rule="evenodd" clip-rule="evenodd" d="M13.9432 32.0001C13.8617 31.8775 13.7819 31.7548 13.7037 31.6322C11.1494 27.6267 10.2371 23.4406 12.0967 20.2197C13.9563 16.9988 18.0376 15.6958 22.7837 15.9051C22.929 15.9115 23.0751 15.9194 23.222 15.9286C23.2875 15.7968 23.3538 15.6664 23.4208 15.5374C25.6125 11.3225 28.7817 8.43945 32.5008 8.43945C36.22 8.43945 39.3891 11.3225 41.5809 15.5374C41.6479 15.6664 41.7142 15.7968 41.7796 15.9286C41.9265 15.9193 42.0726 15.9115 42.2178 15.9051C46.9638 15.6958 51.0452 16.9988 52.9048 20.2197C54.7644 23.4406 53.8521 27.6267 51.2978 31.6322C51.2196 31.7548 51.1398 31.8775 51.0583 32.0001C51.1397 32.1226 51.2194 32.2451 51.2975 32.3676C53.8518 36.3731 54.7641 40.5592 52.9045 43.7801C51.0449 47.001 46.9635 48.304 42.2175 48.0946C42.0724 48.0882 41.9264 48.0804 41.7796 48.0712C41.7141 48.203 41.6479 48.3334 41.5809 48.4623C39.3891 52.6772 36.22 55.5602 32.5008 55.5602C28.7817 55.5602 25.6125 52.6772 23.4208 48.4623C23.3538 48.3334 23.2875 48.203 23.2221 48.0712C23.0752 48.0804 22.9292 48.0882 22.784 48.0946C18.038 48.304 13.9566 47.001 12.097 43.7801C10.2374 40.5592 11.1497 36.3731 13.704 32.3676C13.7821 32.2451 13.8618 32.1226 13.9432 32.0001ZM32.5007 18.0496C29.8882 17.0625 27.3289 16.4082 24.9408 16.096C27.0199 12.1895 29.7271 10.0448 32.5008 10.0448C35.2746 10.0448 37.9817 12.1895 40.0608 16.096C37.6727 16.4081 35.1134 17.0625 32.5007 18.0496ZM30.272 18.9676C28.1545 18.2801 26.1063 17.8321 24.2009 17.624C23.4283 19.3782 22.7923 21.376 22.3289 23.5536C23.5373 22.677 24.8249 21.8401 26.1826 21.0562C27.5401 20.2724 28.9087 19.5758 30.272 18.9676ZM21.9101 25.8854C23.4458 24.668 25.145 23.509 26.9852 22.4465C28.8254 21.3841 30.6787 20.4921 32.5007 19.7708C34.3228 20.4921 36.1761 21.3841 38.0162 22.4465C39.8566 23.509 41.5559 24.6681 43.0916 25.8855C43.378 27.8241 43.5321 29.875 43.5321 31.9998C43.5321 34.1248 43.378 36.1759 43.0916 38.1145C41.5559 39.3319 39.8567 40.4908 38.0166 41.5533C36.1763 42.6157 34.3229 43.5078 32.5007 44.2291C30.6786 43.5078 28.8252 42.6158 26.9849 41.5533C25.1448 40.4909 23.4457 39.332 21.9101 38.1147C21.6237 36.176 21.4695 34.1248 21.4695 31.9998C21.4695 29.875 21.6237 27.824 21.9101 25.8854ZM20.4195 25.0248C20.8709 22.2687 21.5839 19.7251 22.5076 17.5008C18.0849 17.3481 14.8738 18.6202 13.4869 21.0223C12.1 23.4245 12.6039 26.8414 14.9476 30.5953C16.4119 28.6831 18.2583 26.7938 20.4195 25.0248ZM15.9008 32.0001C17.0338 30.4539 18.446 28.9041 20.1001 27.414C19.9452 28.8987 19.8642 30.4323 19.8642 31.9998C19.8642 33.5676 19.9452 35.1013 20.1002 36.5861C18.446 35.096 17.0338 33.5462 15.9008 32.0001ZM22.5077 46.499C18.0851 46.6516 14.8741 45.3795 13.4873 42.9774C12.1004 40.5753 12.6042 37.1586 14.9476 33.4049C16.412 35.317 18.2584 37.2063 20.4195 38.9753C20.871 41.7313 21.5839 44.2748 22.5077 46.499ZM24.9409 47.9038C27.02 51.8102 29.7271 53.9549 32.5008 53.9549C35.2746 53.9549 37.9817 51.8102 40.0608 47.9038C37.6727 47.5917 35.1133 46.9374 32.5007 45.9503C29.8882 46.9373 27.3289 47.5917 24.9409 47.9038ZM30.2719 45.0322C28.1545 45.7197 26.1063 46.1678 24.2009 46.3758C23.4284 44.6217 22.7923 42.6239 22.329 40.4464C23.5372 41.3229 24.8248 42.1598 26.1823 42.9435C27.5399 43.7274 28.9086 44.424 30.2719 45.0322ZM34.7295 45.0322C36.8471 45.7197 38.8953 46.1678 40.8008 46.3758C41.5733 44.6217 42.2093 42.6238 42.6727 40.4463C41.4644 41.3228 40.1768 42.1597 38.8192 42.9435C37.4616 43.7274 36.0929 44.424 34.7295 45.0322ZM44.5822 38.9751C44.1307 41.7312 43.4177 44.2748 42.494 46.499C46.9165 46.6516 50.1274 45.3795 51.5142 42.9774C52.9011 40.5753 52.3973 37.1586 50.0539 33.4049C48.5895 35.317 46.7432 37.2062 44.5822 38.9751ZM50.0539 30.5953C52.3976 26.8414 52.9014 23.4245 51.5145 21.0223C50.1277 18.6202 46.9167 17.3481 42.494 17.5008C43.4178 19.7251 44.1308 22.2688 44.5822 25.025C46.7433 26.794 48.5896 28.6832 50.0539 30.5953ZM40.8008 17.6239C41.5733 19.3782 42.2094 21.3761 42.6728 23.5538C41.4644 22.6771 40.1766 21.8401 38.8189 21.0562C37.4613 20.2724 36.0928 19.5758 34.7295 18.9676C36.8471 18.2801 38.8953 17.832 40.8008 17.6239ZM49.1006 32.0001C47.9677 33.5462 46.5556 35.0959 44.9015 36.5859C45.0565 35.1012 45.1375 33.5675 45.1375 31.9998C45.1375 30.4323 45.0565 28.8988 44.9015 27.4142C46.5557 28.9042 47.9678 30.454 49.1006 32.0001Z" fill="#7601D3"/>
<path d="M29.0596 28.4174L26.0972 37.4464H23.7109L27.7579 26.5547H29.2765L29.0596 28.4174ZM31.5207 37.4464L28.5509 28.4174L28.3115 26.5547H29.845L33.9145 37.4464H31.5207ZM31.386 33.392V35.1499H25.6335V33.392H31.386Z" fill="black" fill-opacity="0.87"/>
<path d="M39.4555 26.5547V37.4464H37.2188V26.5547H39.4555Z" fill="black" fill-opacity="0.87"/>
<circle cx="12.7987" cy="21.0389" r="2.79867" fill="#DB94FF"/>
<circle cx="12.7987" cy="42.8416" r="2.79867" fill="#DB94FF"/>
<circle cx="52.201" cy="21.0389" r="2.79867" fill="#DB94FF"/>
<circle cx="52.201" cy="42.8416" r="2.79867" fill="#DB94FF"/>
</svg>
