<svg width="64" height="64" viewBox="0 0 64 64" fill="none" xmlns="http://www.w3.org/2000/svg">
<path d="M24.4573 36.2852C28.4661 36.2852 31.1573 39.2691 32.0019 40.761C32.8464 39.2691 35.5374 36.2852 39.5462 36.2852C44.5572 36.2852 45.459 38.7724 48.6513 38.7724H52.3024V41.4936H48.6513C46.0571 41.4936 42.9366 38.9359 39.5462 38.9359C36.8339 38.9359 34.8691 41.1954 34.2258 42.3252C33.7643 42.5521 32.6736 43.1469 32.0019 43.7107C31.3301 43.1469 30.2392 42.5521 29.7777 42.3252C29.1344 41.1954 27.1696 38.9359 24.4573 38.9359C21.0669 38.9359 17.9465 41.4936 15.3522 41.4936H11.7012V38.7724H15.3522C18.5446 38.7724 19.4464 36.2852 24.4573 36.2852Z" fill="#EFE2DE"/>
<path d="M32.002 40.761V43.7107C32.6737 43.1469 33.7644 42.5521 34.2259 42.3252C34.8692 41.1954 36.834 38.9359 39.5463 38.9359C42.9367 38.9359 46.0572 41.4936 48.6514 41.4936H52.3025V38.7724H48.6514C45.4591 38.7724 44.5573 36.2852 39.5463 36.2852C35.5375 36.2852 32.8465 39.2691 32.002 40.761Z" fill="#E2D3CF"/>
<path d="M24.8334 41.4922C27.7212 41.4922 29.3321 42.0466 29.7766 42.3238C30.2381 42.5508 31.329 43.1456 32.0007 43.7093C32.6725 43.1456 33.7632 42.5508 34.2247 42.3238C34.6692 42.0466 36.2801 41.4922 39.1679 41.4922C42.7777 41.4922 42.0054 44.2017 50.9375 44.1849C51.1079 44.5447 52.4395 47.1779 53.6517 49.5691H48.0692C44.9298 49.5691 41.8237 46.7976 37.5944 46.7976C34.211 46.7976 32.4556 47.9935 32.0007 48.5915C31.5459 47.9935 29.7903 46.7976 26.4069 46.7976C22.1776 46.7976 19.0715 49.5691 15.9321 49.5691H10.3496C11.5618 47.1779 12.8934 44.5447 13.0638 44.1849C21.9959 44.2017 21.2236 41.4922 24.8334 41.4922Z" fill="#EFE2DE"/>
<path d="M24.8334 41.4922C27.7212 41.4922 29.3321 42.0466 29.7766 42.3238C30.2381 42.5508 31.329 43.1456 32.0007 43.7093V48.5915C31.5459 47.9935 29.7903 46.7976 26.4069 46.7976C22.1776 46.7976 19.0715 49.5691 15.9321 49.5691H10.3496C11.5618 47.1779 12.8934 44.5447 13.0638 44.1849C21.9959 44.2017 21.2236 41.4922 24.8334 41.4922Z" fill="#FFF5F5"/>
<path d="M15.1103 52.262H8.98438C9.35601 51.5303 9.84258 50.5716 10.3501 49.5704H15.9326C19.072 49.5704 22.1781 46.7988 26.4074 46.7988C29.7907 46.7988 31.5463 47.9948 32.0012 48.5928C32.4561 47.9948 34.2115 46.7988 37.5949 46.7988C41.8241 46.7988 44.9303 49.5704 48.0697 49.5704H53.6522C54.1597 50.5716 54.6463 51.5303 55.0179 52.262H48.892C44.7999 52.262 40.733 49.5704 37.5949 49.5704C34.4568 49.5704 33.2451 51.0148 32.0012 52.2586C30.7573 51.0148 29.5454 49.5704 26.4074 49.5704C23.2693 49.5704 19.2023 52.262 15.1103 52.262Z" fill="#7601D3"/>
<path d="M15.1103 52.262H8.98438C9.35601 51.5303 9.84258 50.5716 10.3501 49.5704H15.9326C19.072 49.5704 22.1781 46.7988 26.4074 46.7988C29.7907 46.7988 31.5463 47.9948 32.0012 48.5928V52.2586C30.7573 51.0148 29.5454 49.5704 26.4074 49.5704C23.2693 49.5704 19.2023 52.262 15.1103 52.262Z" fill="#A056F7"/>
<path d="M8.98438 22.5932C8.98438 28.5904 13.846 33.452 19.8432 33.452C21.7614 33.452 23.5635 32.9546 25.1274 32.0818L30.0916 32.899L29.3782 27.7933C30.2223 26.249 30.702 24.4771 30.702 22.5932C30.702 16.596 25.8404 11.7344 19.8432 11.7344C13.846 11.7344 8.98438 16.596 8.98438 22.5932Z" fill="#FACE1C"/>
<path d="M55.0176 22.5932C55.0176 28.5904 50.1559 33.452 44.1588 33.452C42.2405 33.452 40.4385 32.9546 38.8745 32.0818L33.9104 32.899L34.6237 27.7933C33.7797 26.249 33.2999 24.4771 33.2999 22.5932C33.2999 16.596 38.1616 11.7344 44.1588 11.7344C50.1559 11.7344 55.0176 16.596 55.0176 22.5932Z" fill="#7601D3"/>
<rect x="39.0469" y="20.7266" width="3.73351" height="3.73351" fill="white"/>
<rect x="45.5371" y="20.7266" width="3.73351" height="3.73351" fill="white"/>
</svg>
