<svg width="616" height="347" viewBox="0 0 616 347" fill="none" xmlns="http://www.w3.org/2000/svg">
<rect x="473.537" y="112.533" width="46.3718" height="56.0337" rx="2" transform="rotate(20.1049 473.537 112.533)" fill="#EBEBEB"/>
<rect x="476.039" y="118.979" width="37.4283" height="2.45746" rx="1.22873" transform="rotate(20.1049 476.039 118.979)" fill="white"/>
<rect x="473.203" y="126.729" width="37.4283" height="2.45746" rx="1.22873" transform="rotate(20.1049 473.203 126.729)" fill="white"/>
<rect x="470.365" y="134.479" width="29.296" height="2.45746" rx="1.22873" transform="rotate(20.1049 470.365 134.479)" fill="white"/>
<rect x="467.529" y="142.227" width="37.4283" height="2.45746" rx="1.22873" transform="rotate(20.1049 467.529 142.227)" fill="white"/>
<rect x="464.691" y="149.977" width="29.296" height="2.45746" rx="1.22873" transform="rotate(20.1049 464.691 149.977)" fill="white"/>
<rect x="65.4961" y="160.152" width="39.3299" height="47.5245" rx="2" transform="rotate(-27.6496 65.4961 160.152)" fill="#EBEBEB"/>
<rect x="70.9688" y="162.258" width="31.7445" height="2.08428" rx="1.04214" transform="rotate(-27.6496 70.9688 162.258)" fill="white"/>
<rect x="74.2168" y="168.455" width="31.7445" height="2.08428" rx="1.04214" transform="rotate(-27.6496 74.2168 168.455)" fill="white"/>
<rect x="77.4648" y="174.656" width="24.8471" height="2.08428" rx="1.04214" transform="rotate(-27.6496 77.4648 174.656)" fill="white"/>
<rect x="80.7109" y="180.855" width="31.7445" height="2.08428" rx="1.04214" transform="rotate(-27.6496 80.7109 180.855)" fill="white"/>
<rect x="83.9609" y="187.055" width="24.8471" height="2.08428" rx="1.04214" transform="rotate(-27.6496 83.9609 187.055)" fill="white"/>
<path fill-rule="evenodd" clip-rule="evenodd" d="M411.819 219.695H408.565V221.417C407.124 221.663 405.792 222.229 404.646 223.041L403.428 221.822L401.128 224.123L402.346 225.341C401.534 226.487 400.968 227.818 400.722 229.259H399V232.512H400.722C400.968 233.953 401.535 235.284 402.346 236.43L401.129 237.647L403.429 239.948L404.647 238.73C405.793 239.542 407.124 240.108 408.565 240.354V242.075H411.819V240.353C413.259 240.107 414.589 239.54 415.734 238.73L416.953 239.948L419.253 237.647L418.035 236.429C418.846 235.283 419.412 233.952 419.658 232.512H421.38V229.259H419.658C419.412 227.819 418.846 226.488 418.035 225.342L419.254 224.123L416.954 221.822L415.735 223.041C414.59 222.23 413.259 221.664 411.819 221.418V219.695ZM410.188 236.208C413.129 236.208 415.512 233.825 415.512 230.885C415.512 227.944 413.129 225.561 410.188 225.561C407.248 225.561 404.864 227.944 404.864 230.885C404.864 233.825 407.248 236.208 410.188 236.208Z" fill="#7601D3" fill-opacity="0.06"/>
<path fill-rule="evenodd" clip-rule="evenodd" d="M393.036 179.555H387.201V182.644C384.618 183.085 382.231 184.101 380.176 185.555L377.991 183.37L373.865 187.496L376.05 189.681C374.596 191.736 373.579 194.123 373.139 196.707H370.049V202.542H373.138C373.579 205.126 374.595 207.513 376.05 209.568L373.864 211.754L377.99 215.88L380.176 213.694C382.23 215.149 384.618 216.165 387.201 216.606V219.695H393.036V216.607C395.621 216.166 398.009 215.15 400.064 213.695L402.249 215.88L406.375 211.754L404.19 209.569C405.645 207.514 406.661 205.126 407.102 202.542H410.189V196.707H407.102C406.661 194.123 405.645 191.735 404.189 189.68L406.374 187.496L402.248 183.37L400.063 185.555C398.008 184.1 395.62 183.084 393.036 182.643V179.555ZM390.115 209.174C395.389 209.174 399.665 204.899 399.665 199.625C399.665 194.351 395.389 190.076 390.115 190.076C384.842 190.076 380.566 194.351 380.566 199.625C380.566 204.899 384.842 209.174 390.115 209.174Z" fill="#7601D3" fill-opacity="0.08"/>
<path fill-rule="evenodd" clip-rule="evenodd" d="M283.653 129.814H266.855V138.707C259.416 139.976 252.542 142.901 246.626 147.09L240.336 140.801L228.458 152.679L234.748 158.969C230.56 164.885 227.635 171.759 226.366 179.197H217.471V195.996H226.366C227.635 203.434 230.56 210.307 234.748 216.222L228.455 222.515L240.334 234.393L246.626 228.101C252.542 232.29 259.416 235.216 266.855 236.485V245.378H283.653V236.486C291.092 235.217 297.966 232.292 303.883 228.103L310.174 234.395L322.052 222.517L315.761 216.226C319.951 210.309 322.876 203.435 324.145 195.996H333.035V179.197H324.145C322.876 171.757 319.951 164.883 315.761 158.966L322.05 152.677L310.171 140.799L303.882 147.088C297.966 142.9 291.092 139.975 283.653 138.706V129.814ZM275.249 215.09C290.432 215.09 302.741 202.781 302.741 187.598C302.741 172.415 290.432 160.106 275.249 160.106C260.066 160.106 247.757 172.415 247.757 187.598C247.757 202.781 260.066 215.09 275.249 215.09Z" fill="#7601D3" fill-opacity="0.24"/>
<path d="M282.633 183.596L280.966 179.93L277.299 178.263L280.966 176.596L282.633 172.93L284.299 176.596L287.966 178.263L284.299 179.93L282.633 183.596ZM282.633 202.263L280.966 198.596L277.299 196.93L280.966 195.263L282.633 191.596L284.299 195.263L287.966 196.93L284.299 198.596L282.633 202.263ZM269.299 198.263L265.966 190.93L258.633 187.596L265.966 184.263L269.299 176.93L272.633 184.263L279.966 187.596L272.633 190.93L269.299 198.263Z" fill="#7601D3" fill-opacity="0.24"/>
<path fill-rule="evenodd" clip-rule="evenodd" d="M121.995 43.6562H115.023V47.348C111.936 47.8748 109.083 49.0888 106.628 50.8271L104.017 48.2159L99.0863 53.1465L101.697 55.7574C99.9581 58.2134 98.7436 61.0671 98.2169 64.1553H94.5254V71.1282H98.217C98.7436 74.2152 99.9575 77.0679 101.696 79.5233L99.0833 82.1356L104.014 87.0662L106.626 84.4543C109.081 86.1934 111.935 87.408 115.023 87.935V91.6261H121.995V87.9355C125.084 87.409 127.938 86.1944 130.395 84.455L133.006 87.0663L137.937 82.1357L135.325 79.5243C137.064 77.0687 138.278 74.2156 138.804 71.1282H142.495V64.1553H138.805C138.278 61.0667 137.063 58.2126 135.324 55.7565L137.934 53.1464L133.003 48.2158L130.393 50.8264C127.937 49.0879 125.083 47.8738 121.995 47.3474V43.6562ZM118.506 79.0536C124.809 79.0536 129.918 73.9445 129.918 67.6421C129.918 61.3396 124.809 56.2305 118.506 56.2305C112.204 56.2305 107.095 61.3396 107.095 67.6421C107.095 73.9445 112.204 79.0536 118.506 79.0536Z" fill="#7601D3" fill-opacity="0.16"/>
<path fill-rule="evenodd" clip-rule="evenodd" d="M178.926 47.9043H174.463V50.267C172.486 50.6039 170.66 51.381 169.088 52.4939L167.416 50.8226L164.261 53.9785L165.932 55.6495C164.818 57.2214 164.041 59.0478 163.704 61.0244H161.342V65.4875H163.704C164.041 67.4639 164.818 69.2903 165.931 70.8622L164.26 72.5328L167.416 75.6887L169.087 74.0181C170.659 75.1314 172.486 75.9088 174.463 76.2458V78.6077H178.926V76.2453C180.902 75.908 182.728 75.1306 184.3 74.0176L185.971 75.689L189.127 72.5332L187.455 70.8615C188.568 69.2898 189.345 67.4636 189.682 65.4875H192.045V61.0244H189.682C189.345 59.0481 188.567 57.2219 187.455 55.6501L189.127 53.9781L185.971 50.8223L184.299 52.4944C182.727 51.3818 180.901 50.6047 178.926 50.2675V47.9043ZM176.691 70.5612C180.725 70.5612 183.995 67.2911 183.995 63.2572C183.995 59.2233 180.725 55.9531 176.691 55.9531C172.657 55.9531 169.387 59.2233 169.387 63.2572C169.387 67.2911 172.657 70.5612 176.691 70.5612Z" fill="#7601D3" fill-opacity="0.04"/>
<path fill-rule="evenodd" clip-rule="evenodd" d="M173.03 91.625H161.631V97.6591C156.583 98.5199 151.918 100.505 147.904 103.347L143.635 99.0786L135.575 107.139L139.842 111.407C136.999 115.422 135.014 120.087 134.153 125.136H128.117V136.535H134.152C135.013 141.583 136.998 146.248 139.841 150.262L135.571 154.532L143.632 162.592L147.901 158.323C151.916 161.166 156.582 163.152 161.631 164.013V170.047H173.03V164.012C178.078 163.151 182.743 161.165 186.758 158.322L191.027 162.592L199.088 154.531L194.818 150.261C197.66 146.247 199.645 141.583 200.506 136.535H206.539V125.136H200.506C199.644 120.088 197.659 115.423 194.816 111.408L199.084 107.14L191.024 99.0792L186.755 103.348C182.741 100.506 178.077 98.5207 173.03 97.6596V91.625ZM167.324 149.491C177.627 149.491 185.98 141.139 185.98 130.836C185.98 120.532 177.627 112.18 167.324 112.18C157.02 112.18 148.668 120.532 148.668 130.836C148.668 141.139 157.02 149.491 167.324 149.491Z" fill="#7601D3" fill-opacity="0.08"/>
<path d="M390.744 46.3145C423.611 46.3145 450.255 72.9583 450.255 105.825C450.255 134.327 430.217 158.15 403.46 163.974L404.235 167.776C404.661 169.865 404.874 170.909 404.548 171.537C404.276 172.06 403.788 172.436 403.213 172.566C402.523 172.722 401.567 172.25 399.655 171.307L377.314 160.284C376.054 159.663 375.424 159.352 375.123 158.875C374.871 158.474 374.768 157.997 374.835 157.528C374.914 156.969 375.362 156.428 376.257 155.345L392.376 135.848C393.763 134.17 394.457 133.331 395.158 133.193C395.741 133.079 396.345 133.23 396.806 133.605C397.36 134.056 397.578 135.123 398.013 137.256L399.424 144.178C416.961 140.226 430.059 124.555 430.059 105.825C430.059 84.1124 412.458 66.5109 390.744 66.5109C369.032 66.5109 351.431 84.1124 351.431 105.825C351.431 114.881 354.493 123.222 359.638 129.869C360.399 130.851 360.779 131.343 360.872 131.799C360.955 132.205 360.923 132.562 360.768 132.947C360.594 133.378 360.166 133.762 359.31 134.529L349.071 143.7C348.231 144.452 347.811 144.828 347.322 144.947C346.923 145.043 346.463 145.007 346.085 144.85C345.62 144.657 345.281 144.241 344.603 143.411C336.246 133.163 331.234 120.079 331.234 105.825C331.234 72.9583 357.878 46.3145 390.744 46.3145Z" fill="#6A40AD"/>
<rect x="351.094" y="44.9512" width="50.9688" height="7.52375" rx="1" transform="rotate(-15 351.094 44.9512)" fill="#FFB45B"/>
<path d="M362.876 69.8966C358.158 63.6243 356.391 54.8023 356.098 51.1753L376.828 45.6206L377.464 45.4503L377.936 45.3238L398.666 39.7691C400.226 43.0569 403.107 51.5803 402.157 59.3713C400.97 69.1101 389.296 79.4225 389.843 81.716C390.39 84.0095 405.473 87.4235 411.51 94.278C415.71 98.5749 417.753 110.499 418.075 111.7C418.326 112.638 404.259 115.86 396.673 117.467C389.3 119.868 375.506 124.111 375.255 123.174C374.933 121.972 370.74 110.624 372.229 104.803C374.031 95.8484 385.386 85.3502 384.713 83.0906C384.039 80.831 368.773 77.737 362.876 69.8966Z" fill="#D3E5FF"/>
<rect x="372.227" y="123.82" width="50.9688" height="7.52375" rx="1" transform="rotate(-15 372.227 123.82)" fill="#FFB45B"/>
<path d="M381.442 77.0316C367.782 73.0454 362.677 64.7097 361.832 61.0402C367.818 59.5579 383.434 55.0971 398.013 49.1117C401.674 59.0913 392.675 71.8398 390.07 74.7197C387.986 77.0235 386.855 79.4596 386.55 80.3897C385.892 79.6137 383.949 77.8556 381.442 77.0316Z" fill="#F3C168"/>
<path d="M398.008 49.1129C395.337 50.1923 378.059 64.2659 361.828 61.0414C367.814 59.5591 383.43 55.0983 398.008 49.1129Z" fill="#F1B140"/>
<path d="M387.3 109.333C381.355 114.996 380.053 120.038 380.145 121.852L413.52 112.909C410.239 107.829 402.764 106.083 399.48 104.821C396.852 103.811 393.748 101.863 392.524 101.016C391.538 103.169 389.114 107.848 387.3 109.333Z" fill="#F3C168"/>
<circle cx="388.777" cy="89.201" r="1.06322" transform="rotate(-15 388.777 89.201)" fill="#F3C168"/>
<circle cx="390.494" cy="94.4315" r="1.06322" transform="rotate(-15 390.494 94.4315)" fill="#F3C168"/>
<circle cx="391.843" cy="98.7538" r="1.06322" transform="rotate(-15 391.843 98.7538)" fill="#F3C168"/>
<ellipse cx="365.596" cy="61.1093" rx="2.72043" ry="5.5" transform="rotate(-18.5149 365.596 61.1093)" fill="#EFFAFC"/>
<ellipse cx="380.573" cy="96.5395" rx="2.53873" ry="4.21043" transform="rotate(29.3989 380.573 96.5395)" fill="#EFFAFC"/>
<ellipse cx="376.682" cy="103.055" rx="0.827716" ry="1.37275" transform="rotate(29.3989 376.682 103.055)" fill="#EFFAFC"/>
<path d="M171.779 188.891C171.779 246.038 218.106 292.364 275.252 292.364V270.524C230.167 270.524 193.619 233.975 193.619 188.891C193.619 150.966 219.481 119.082 254.531 109.911L241.478 98.0456L249.379 88.6797C204.753 100.168 171.779 140.679 171.779 188.891Z" fill="#885FC7"/>
<path d="M122.879 270.523V292.353H275.234V270.523H122.879Z" fill="#9F8EF0"/>
<path d="M411.613 300.938L434.217 283.005C435.226 282.204 435.226 280.672 434.217 279.871L411.613 261.938C410.302 260.898 408.37 261.832 408.37 263.505V268.523C408.37 269.627 407.475 270.523 406.37 270.523H277.234C276.13 270.523 275.234 271.418 275.234 272.523V290.353C275.234 291.457 276.13 292.353 277.234 292.353H406.37C407.475 292.353 408.37 293.248 408.37 294.353V299.371C408.37 301.044 410.302 301.978 411.613 300.938Z" fill="url(#paint0_linear_7461_44836)"/>
<circle cx="106.661" cy="272.485" r="44.0376" fill="white" stroke="#FACE1C" stroke-width="4"/>
<path d="M106.66 240.029C93.2252 240.029 82.334 250.92 82.334 264.355C82.334 271.798 85.676 278.459 90.9412 282.922C91.5248 283.626 92.7329 285.615 92.8958 287.937C93.0995 290.839 101.587 292.315 106.66 292.315C111.733 292.315 120.221 290.839 120.424 287.937C120.587 285.615 121.786 283.634 122.369 282.93C127.64 278.468 130.986 271.802 130.986 264.355C130.986 250.92 120.095 240.029 106.66 240.029Z" fill="#885FC7" fill-opacity="0.16"/>
<path d="M84.2109 265.203C84.2109 269.32 85.2569 273.165 87.0678 276.422C87.3134 276.864 87.8852 276.986 88.3038 276.703C88.6983 276.436 88.8098 275.907 88.5763 275.491C86.9004 272.511 85.9311 268.983 85.9311 265.203C85.9311 261.085 87.0807 257.268 89.0405 254.131C89.2615 253.777 89.2287 253.317 88.9458 253.011C88.5556 252.588 87.8733 252.635 87.571 253.125C85.452 256.556 84.2109 260.717 84.2109 265.203Z" fill="white"/>
<path d="M102.307 289.663C103.502 282.909 105.035 269.557 101.606 270.181C97.3199 270.96 101.216 282.104 107.216 282.026C113.217 281.948 114.385 269.09 111.112 269.168C107.839 269.246 110.723 283.351 113.528 289.663" stroke="black" stroke-opacity="0.4"/>
<ellipse opacity="0.32" cx="106.936" cy="251.424" rx="14.3773" ry="10.0388" fill="white"/>
<path d="M95.4492 291.238C95.4492 291.238 102.384 292.764 106.893 292.773C111.469 292.782 118.509 291.238 118.509 291.238L116.227 299.072C115.029 303.183 111.261 306.009 106.979 306.009V306.009C102.697 306.009 98.9296 303.183 97.7317 299.072L95.4492 291.238Z" fill="#2C3772"/>
<path d="M95.4863 291.238C95.4863 291.238 102.319 292.216 106.726 292.233C111.344 292.252 118.51 291.238 118.51 291.238L118.051 293.196C118.051 293.196 113.961 294.246 106.819 294.246C100.311 294.246 95.8906 293.196 95.8906 293.196L95.4863 291.238Z" fill="#2C3772"/>
<path d="M95.4863 291.238C95.4863 291.238 102.319 292.216 106.726 292.233C111.344 292.252 118.51 291.238 118.51 291.238L118.051 293.196C118.051 293.196 113.961 294.246 106.819 294.246C100.311 294.246 95.8906 293.196 95.8906 293.196L95.4863 291.238Z" fill="black" fill-opacity="0.2"/>
<path d="M93.5469 289.191C93.5469 289.191 96.9898 292.248 106.603 292.248C116.275 292.248 119.771 289.201 119.771 289.201V289.201C119.771 291.257 118.26 292.998 116.218 293.231C113.435 293.548 109.554 293.918 106.603 293.916C103.691 293.914 99.8665 293.548 97.1102 293.233C95.0622 292.999 93.5469 291.253 93.5469 289.191V289.191Z" fill="#2B3575"/>
<path d="M98.1873 295.524C99.8901 295.915 103.218 296.545 107.014 296.545C110.746 296.545 113.917 295.868 115.575 295.432C116.078 295.318 117.165 295.022 117.486 294.746C117.173 295.826 116.946 296.605 116.858 296.902L116.42 297.1C116.348 297.147 116.268 297.184 116.181 297.207C114.852 297.573 111.513 298.345 107.014 298.345C102.534 298.345 99.0666 297.665 97.6618 297.339L97.1881 297.205L96.5156 294.922C96.7409 295.142 97.7239 295.415 98.1873 295.524Z" fill="#5D669D"/>
<path d="M107.351 300.26C103.937 300.26 101.274 299.725 99.8099 299.344C99.1448 299.184 97.7731 298.829 97.6074 298.695C97.7504 299.165 98.0745 300.202 98.4727 300.894C98.5926 300.965 98.9838 301.065 99.1643 301.106C100.328 301.43 103.135 302.06 107.351 302.06C111.43 302.06 114.153 301.47 115.362 301.139C115.719 300.597 116.152 299.351 116.263 298.916C116.091 299.014 115.227 299.247 114.817 299.351C113.368 299.732 110.746 300.26 107.351 300.26Z" fill="#5D669D"/>
<circle cx="495.267" cy="272.073" r="48.4074" fill="white"/>
<circle cx="495.267" cy="272.073" r="45.9074" stroke="#7601D3" stroke-opacity="0.32" stroke-width="5"/>
<path d="M553.132 283.48L540.44 285.667L547.88 277.571L553.132 283.48Z" fill="black"/>
<path d="M537.062 312.83L532.072 303.816L543.823 308.484L537.062 312.83Z" fill="black"/>
<path d="M446.343 240.909L450.589 227.611L472.479 242.741L446.343 240.909Z" fill="black"/>
<path d="M440.197 290.3L442.991 284.042L451.484 288.177L440.197 290.3Z" fill="black"/>
<path d="M472.073 222.484H461.271L472.073 235.842V222.484Z" fill="#F4C06D"/>
<path d="M456.45 249.639L453.609 243.349L466.921 246.19L456.45 249.639Z" fill="#F4C06D"/>
<path d="M445.013 301.665L435.154 296.188L452.133 290.711L445.013 301.665Z" fill="#F4C06D"/>
<path d="M552.515 303.654L524.989 292.064L555.377 287.836L552.515 303.654Z" fill="#F4C06D"/>
<path d="M471.237 299.174C465.391 289.569 466.021 278.781 467.457 272.975C467.75 271.791 468.819 271 470.038 270.959C471.596 270.906 473.492 270.872 475.077 270.914C476.338 270.947 477.553 270.297 478.145 269.182C479.478 266.674 481.848 262.369 483.657 259.898C484.077 259.325 484.335 258.645 484.317 257.935C484.24 254.878 483.902 249.682 483.69 248.334C483.448 246.806 481.196 238.52 482.764 237.595C484.333 236.67 493.101 232.768 497.284 244.674C499.215 250.385 498.813 253.442 498.853 255.252C498.885 256.7 499.952 258.376 500.482 259.033C503.879 258.102 511.55 256.293 515.052 256.499C517.702 256.499 520.498 259.369 520.498 262.165C520.498 264.402 519.394 266.36 518.842 267.059C521.008 267.235 523.84 270.843 524.015 272.823C524.189 274.803 523.898 277.453 520.498 279.142C522.785 282.075 523.158 286.461 519.288 289.055C520.914 292.019 518.967 296.739 516.065 297.378C513.744 297.889 508.56 297.773 506.259 297.652C500.555 301.465 489.023 299.723 483.176 298.19C482.595 298.037 481.987 298.047 481.416 298.231C479.64 298.8 476.835 299.673 474.366 300.367C473.168 300.703 471.884 300.237 471.237 299.174Z" fill="#9065B0"/>
<path d="M506.259 297.652C500.555 301.465 489.023 299.723 483.176 298.19C482.595 298.037 481.987 298.047 481.416 298.231C479.64 298.8 476.835 299.673 474.366 300.367C473.168 300.703 471.884 300.237 471.237 299.174C465.391 289.569 466.021 278.781 467.457 272.975C467.75 271.791 468.819 271 470.038 270.959C471.596 270.906 473.492 270.872 475.077 270.914C476.338 270.947 477.553 270.297 478.145 269.182C479.478 266.674 481.848 262.369 483.657 259.898C484.077 259.325 484.335 258.645 484.317 257.935C484.24 254.878 483.902 249.682 483.69 248.334C483.448 246.806 481.196 238.52 482.764 237.595C484.333 236.67 493.101 232.768 497.284 244.674C499.215 250.385 498.813 253.442 498.853 255.252C498.885 256.7 499.952 258.376 500.482 259.033M506.259 297.652C505.695 297.652 504.272 297.528 503.091 297.034C498.367 294.48 499.683 290.331 500.932 288.575M506.259 297.652C508.56 297.773 513.744 297.889 516.065 297.378C518.967 296.739 520.914 292.019 519.288 289.055M500.482 259.033C499.341 259.654 497.023 260.693 497.023 264.704C497.023 267.912 499.525 269.45 500.776 269.818M500.482 259.033C503.879 258.102 511.55 256.293 515.052 256.499C517.702 256.499 520.498 259.369 520.498 262.165C520.498 264.402 519.394 266.36 518.842 267.059M500.776 269.818C504.632 268.111 514.427 267.267 518.842 267.059M500.776 269.818C499.777 270.762 497.843 273.178 498.099 275.298C498.378 277.6 499.206 279.024 500.583 279.949M518.842 267.059C521.008 267.235 523.84 270.843 524.015 272.823C524.189 274.803 523.898 277.453 520.498 279.142M520.498 279.142C517.098 280.83 503.02 281.238 501.244 280.335C501.011 280.217 500.791 280.089 500.583 279.949M520.498 279.142C522.785 282.075 523.158 286.461 519.288 289.055M500.583 279.949C499.272 281.665 497.634 285.663 500.932 288.575M519.288 289.055C515.418 291.648 503.21 290.212 501.535 289.055C501.318 288.899 501.117 288.739 500.932 288.575" stroke="white" stroke-width="1.5"/>
<path fill-rule="evenodd" clip-rule="evenodd" d="M378.725 188.892C378.725 244.965 334.122 290.621 278.46 292.316C278.179 292.324 277.934 292.332 277.717 292.334C276.898 292.354 276.076 292.363 275.252 292.363V270.523C320.337 270.523 356.885 233.975 356.885 188.891H356.886C356.885 146.413 324.44 111.513 282.98 107.62C281.855 107.514 281.292 107.462 280.824 107.663C280.423 107.835 280.067 108.159 279.857 108.543C279.613 108.991 279.613 109.576 279.613 110.746V111.73C279.613 113.838 279.613 114.893 279.18 115.439C278.803 115.914 278.231 116.192 277.625 116.196C276.928 116.2 276.098 115.549 274.439 114.248L254.869 98.9038C253.78 98.0498 253.235 97.6229 253.037 97.104C252.864 96.6492 252.862 96.1468 253.033 95.6909C253.228 95.1708 253.769 94.7404 254.853 93.8797L274.423 78.3371C276.086 77.0167 276.917 76.3564 277.616 76.3574C278.224 76.3583 278.799 76.6357 279.178 77.1114C279.613 77.6583 279.613 78.7198 279.613 80.8429V82.4394C279.613 83.519 279.613 84.0587 279.812 84.4709C279.991 84.841 280.262 85.1313 280.618 85.3358C281.015 85.5636 281.572 85.6031 282.685 85.6821C336.362 89.4918 378.725 134.245 378.725 188.892Z" fill="#9F8EF0"/>
<path d="M470.188 79.1928C470.188 79.1928 469.402 74.0839 467.824 71.8594C466.246 69.635 462.622 68.5261 462.622 68.5261C462.622 68.5261 466.246 67.4172 467.824 65.1928C469.402 62.9683 470.188 57.8594 470.188 57.8594C470.188 57.8594 470.975 62.9683 472.553 65.1928C474.131 67.4172 477.755 68.5261 477.755 68.5261C477.755 68.5261 474.131 69.635 472.553 71.8594C470.975 74.0839 470.188 79.1928 470.188 79.1928Z" fill="#7601D3" fill-opacity="0.6"/>
<path d="M486.977 47.9032C486.977 47.9032 486.541 45.0709 485.666 43.8377C484.792 42.6045 482.782 41.9897 482.782 41.9897C482.782 41.9897 484.792 41.3749 485.666 40.1417C486.541 38.9085 486.977 36.0762 486.977 36.0762C486.977 36.0762 487.413 38.9085 488.288 40.1417C489.163 41.3749 491.172 41.9897 491.172 41.9897C491.172 41.9897 489.163 42.6045 488.288 43.8377C487.413 45.0709 486.977 47.9032 486.977 47.9032Z" fill="#7601D3" fill-opacity="0.16"/>
<path d="M316.066 64.6362C316.066 64.6362 316.225 61.7749 315.625 60.3874C315.024 58.9999 313.186 57.9827 313.186 57.9827C313.186 57.9827 315.278 57.7969 316.389 56.7714C317.5 55.7459 318.513 53.0651 318.513 53.0651C318.513 53.0651 318.354 55.9263 318.954 57.3139C319.555 58.7014 321.394 59.7185 321.394 59.7185C321.394 59.7185 319.301 59.9043 318.19 60.9298C317.079 61.9554 316.066 64.6362 316.066 64.6362Z" fill="#7601D3" fill-opacity="0.32"/>
<defs>
<linearGradient id="paint0_linear_7461_44836" x1="143.179" y1="281.438" x2="432.856" y2="281.438" gradientUnits="userSpaceOnUse">
<stop stop-color="#9F8EF0"/>
<stop offset="1" stop-color="#6A40AD"/>
</linearGradient>
</defs>
</svg>
