<svg width="752" height="424" viewBox="0 0 752 424" fill="none" xmlns="http://www.w3.org/2000/svg">
<g clip-path="url(#clip0_7461_44946)">
<path d="M512.273 17.7533C549.399 36.1577 574.046 77.2802 593.388 122.429C612.731 167.29 626.77 216.176 614.603 259.024C602.124 301.872 563.75 338.969 519.449 367.726C475.148 396.195 425.231 416.325 373.13 418.626C321.029 421.214 267.368 405.685 221.819 377.503C176.27 349.321 138.832 308.199 133.528 264.488C128.224 220.778 155.055 174.191 180.637 135.369C206.532 96.5474 231.178 65.4899 263.624 45.6475C295.758 25.5177 335.38 16.8906 380.305 10.2764C424.919 3.66234 474.836 -0.651199 512.273 17.7533Z" fill="#FBF7FF"/>
<path d="M312.734 202.098C314.179 204.226 318.017 208.481 321.807 208.481C323.815 208.481 326.412 206.008 329.404 203.159L329.404 203.159C333.468 199.288 338.26 194.724 343.296 194.724C357.284 194.724 368.624 206.064 368.624 220.052C368.624 234.04 357.284 245.38 343.295 245.38C338.259 245.38 333.467 240.816 329.403 236.945L329.403 236.945C326.412 234.096 323.815 231.623 321.806 231.623C318.017 231.623 314.179 235.879 312.733 238.006V287.819H262.92C260.792 286.373 256.537 282.536 256.537 278.747C256.537 276.738 259.01 274.142 261.859 271.15L261.859 271.15C265.73 267.086 270.294 262.294 270.294 257.258C270.294 243.269 258.955 231.929 244.966 231.929C230.978 231.929 219.638 243.269 219.638 257.257C219.638 262.293 224.203 267.086 228.073 271.15C230.922 274.141 233.395 276.738 233.395 278.746C233.395 282.536 229.14 286.374 227.012 287.819H177.199L177.2 194.866C177.2 171.346 196.272 152.285 219.792 152.285L312.734 152.285V202.098Z" fill="#F4EBFB"/>
<path d="M227.012 287.715C229.14 286.27 233.395 282.432 233.395 278.642C233.395 276.634 230.922 274.037 228.073 271.046L228.073 271.045C224.202 266.981 219.638 262.189 219.638 257.153C219.638 243.165 230.978 231.825 244.966 231.825C258.954 231.825 270.294 243.166 270.294 257.154C270.294 262.19 265.73 266.982 261.86 271.046L261.859 271.046C259.01 274.038 256.537 276.634 256.537 278.643C256.537 282.432 260.793 286.271 262.92 287.716L312.733 287.716L312.733 337.53C311.288 339.658 307.45 343.912 303.661 343.912C301.652 343.912 299.056 341.439 296.064 338.59L296.064 338.59C292 334.719 287.208 330.155 282.172 330.155C268.184 330.155 256.843 341.495 256.843 355.483C256.843 369.471 268.183 380.811 282.171 380.811C287.207 380.811 292 376.246 296.064 372.376C299.055 369.527 301.652 367.054 303.66 367.054C307.45 367.054 311.288 371.309 312.733 373.437L312.733 423.25L219.78 423.25C196.261 423.25 177.199 404.177 177.199 380.657L177.199 287.715L227.012 287.715Z" fill="#F1E1FD"/>
<path d="M312.639 373.437C311.194 371.309 307.356 367.054 303.566 367.054C301.558 367.054 298.961 369.527 295.97 372.376L295.969 372.376C291.905 376.247 287.113 380.811 282.077 380.811C268.089 380.811 256.749 369.471 256.749 355.483C256.749 341.495 268.089 330.155 282.078 330.155C287.114 330.155 291.906 334.719 295.97 338.59L295.97 338.59C298.961 341.439 301.558 343.912 303.567 343.912C307.356 343.912 311.194 339.657 312.64 337.529L312.64 287.716L362.453 287.716C364.582 289.162 368.836 292.999 368.836 296.788C368.836 298.797 366.363 301.393 363.514 304.385L363.514 304.385C359.643 308.449 355.079 313.241 355.079 318.277C355.079 332.266 366.419 343.606 380.407 343.606C394.395 343.606 405.735 332.266 405.735 318.278C405.735 313.242 401.17 308.449 397.3 304.385C394.451 301.394 391.978 298.797 391.978 296.789C391.978 292.999 396.233 289.161 398.361 287.716L448.174 287.716L448.173 380.669C448.173 404.189 429.101 423.25 405.581 423.25L312.639 423.25L312.639 373.437Z" fill="#F4EBFB"/>
<path d="M458.513 208.627C456.385 210.073 452.13 213.911 452.13 217.701C452.13 219.709 454.603 222.306 457.452 225.297L457.452 225.297C461.323 229.361 465.887 234.154 465.887 239.19C465.887 253.178 454.547 264.518 440.559 264.518C426.571 264.518 415.231 253.177 415.231 239.189C415.231 234.153 419.795 229.361 423.666 225.297L423.666 225.297C426.515 222.305 428.988 219.708 428.988 217.7C428.988 213.91 424.733 210.072 422.605 208.627L372.792 208.627L372.792 158.813C374.238 156.685 378.075 152.431 381.864 152.431C383.873 152.431 386.47 154.904 389.461 157.753L389.461 157.753C393.525 161.623 398.318 166.188 403.354 166.188C417.342 166.188 428.682 154.848 428.682 140.86C428.682 126.872 417.342 115.532 403.354 115.532C398.318 115.532 393.526 120.096 389.462 123.967C386.47 126.816 383.874 129.289 381.865 129.289C378.075 129.289 374.237 125.034 372.792 122.906L372.792 73.0928L465.745 73.0931C489.265 73.0932 508.326 92.1655 508.326 115.685L508.326 208.627L458.513 208.627Z" fill="#F1E1FD"/>
<path d="M388.383 257.638C388.383 251.886 393.045 247.224 398.797 247.224H483.375C489.126 247.224 493.788 251.886 493.788 257.638V309.939C493.788 315.691 489.126 320.353 483.375 320.353H398.797C393.045 320.353 388.383 315.691 388.383 309.939V257.638Z" fill="#333333"/>
<circle cx="432.802" cy="274.917" r="34.1806" fill="#FFB633"/>
<circle cx="432.802" cy="274.918" r="29.0191" fill="white"/>
<circle cx="432.8" cy="274.916" r="27.5188" fill="#FFB633"/>
<path d="M450.547 254.486L465.22 233.6L480.216 254.486H473.361V274.623H456.33V254.486H450.547Z" fill="#1FB727"/>
<path d="M456.33 278.573V275.844H473.361V278.573H456.33Z" fill="#1FB727"/>
<path d="M456.33 281.882V280.381H473.361V281.882H456.33Z" fill="#1FB727"/>
<path d="M456.33 284.918V284.236H473.361V284.918H456.33Z" fill="#1FB727"/>
<path fill-rule="evenodd" clip-rule="evenodd" d="M435.246 254.597H431.544V259.225C430.301 259.378 429.17 259.699 428.15 260.183C426.668 260.881 425.511 261.876 424.67 263.172C423.829 264.468 423.411 265.996 423.411 267.762C423.411 269.612 423.803 271.141 424.585 272.351C425.366 273.547 426.455 274.55 427.851 275.361C428.948 275.98 430.178 276.578 431.544 277.146V286.071C431.501 286.058 431.459 286.048 431.416 286.035C430.848 285.864 430.336 285.58 429.879 285.181C429.439 284.769 429.08 284.22 428.811 283.537C428.542 282.839 428.406 281.973 428.406 280.933H422.258C422.258 282.839 422.569 284.449 423.197 285.757C423.825 287.053 424.662 288.091 425.716 288.874C426.771 289.658 427.945 290.225 429.238 290.582C429.823 290.736 430.408 290.855 430.997 290.941C431.181 290.966 431.36 290.99 431.544 291.009V295.236H435.246V290.962C436.424 290.808 437.5 290.518 438.482 290.091C440.019 289.408 441.214 288.426 442.068 287.145C442.922 285.849 443.349 284.284 443.349 282.449C443.349 280.598 442.956 279.076 442.175 277.88C441.394 276.685 440.305 275.675 438.909 274.849C437.824 274.206 436.603 273.6 435.246 273.028V264.442C435.583 264.645 435.877 264.912 436.134 265.243C436.262 265.405 436.381 265.582 436.488 265.772C436.676 266.101 436.83 266.472 436.945 266.886C437.128 267.542 437.222 268.295 437.222 269.149H443.349C443.349 267.555 443.114 266.139 442.645 264.901C442.175 263.663 441.5 262.617 440.617 261.763C439.733 260.894 438.682 260.241 437.457 259.799C436.765 259.543 436.027 259.357 435.246 259.246L435.258 254.633L435.246 254.597ZM431.544 264.233C431.407 264.291 431.279 264.357 431.16 264.431C430.959 264.555 430.78 264.694 430.617 264.848C430.331 265.121 430.105 265.445 429.943 265.819C429.828 266.092 429.738 266.383 429.678 266.694C429.614 267.034 429.58 267.397 429.58 267.783C429.58 268.509 429.708 269.143 429.964 269.683C430.233 270.223 430.699 270.722 431.352 271.177C431.412 271.22 431.476 271.26 431.544 271.303V264.233ZM435.246 278.839V285.875C435.293 285.851 435.339 285.826 435.386 285.8C435.634 285.666 435.856 285.51 436.052 285.333C436.33 285.083 436.556 284.79 436.731 284.455C437.043 283.872 437.201 283.217 437.201 282.491C437.201 281.68 437.052 280.991 436.753 280.421C436.467 279.851 435.997 279.347 435.344 278.905C435.31 278.884 435.28 278.86 435.246 278.839Z" fill="white"/>
<path d="M126.583 423.25C123.675 380.212 142.382 354.979 152.099 347.743C187.755 350.352 211.82 347.794 219.396 346.188L228.12 423.25H126.583Z" fill="#212D3A"/>
<path d="M126.884 392.855C111.416 381.379 87.4577 353.128 77.4121 340.437C81.4797 337.001 91.5915 330.128 99.4985 330.128C102.566 339.16 124.117 371.714 127.441 376.904C130.36 370.336 133.946 367.503 136.051 368.713C135.69 369.255 135.229 370.071 135.229 370.151C135.633 370.353 137.823 370.248 143.353 368.211C155.721 364.937 157.176 373.182 156.328 380.215C155.479 387.248 145.035 381.763 144.092 381.763C142.961 386.1 130.002 395.766 126.884 392.855Z" fill="white" stroke="black"/>
<path d="M342.89 332.758C296.117 335.964 271.378 331.422 264.855 328.75C266.007 322.08 269.597 308.595 274.746 308.012C281.182 307.283 304.135 311.17 312.393 312.384C320.651 313.599 342.025 316.148 351.497 316.148C360.105 310.197 364.249 310.44 367.163 311.17C369.106 316.149 359.755 318.092 360.484 320.521C363.52 325.743 385.744 328.75 388.173 329.629C389.994 337.644 379.55 347.602 371.049 346.267C362.548 344.931 346.275 337.401 342.89 332.758Z" fill="white" stroke="black"/>
<path d="M181.32 221.999C187.463 223.049 201.171 222.965 206.86 214.232C210.092 209.061 208.512 198.934 207.363 195.128C206.443 192.083 206.644 189.071 206.86 187.946" stroke="black"/>
<path d="M135.139 286.894C127.362 296.205 109.164 316.818 98.5854 324.783C98.872 325.201 99.1471 325.597 99.4107 325.974C102.428 330.287 103.936 332.102 103.936 335.928C101.707 335.928 87.5908 330.728 76.2979 342.02C73.595 339.804 71.3838 336.526 70.0291 332.765C67.6603 326.188 67.9108 318.136 72.7319 311.708C80.31 301.604 115.377 252.42 123.549 245.882C126.967 242.911 176.15 229.835 218.202 243.951C226.225 247.814 259.212 298.038 263.819 302.198C265.84 303.268 266.618 303.799 266.755 303.93C269.167 304.242 274.553 305.493 276.803 308.001C274.121 312.846 268.188 326.529 265.557 332.765C261.592 332.44 253.294 331.705 251.823 331.359C250.353 331.013 235.024 315.13 227.544 307.232C226.864 318.321 224.624 341.64 221.104 346.202C213.805 349.591 172.549 349.027 152.834 348.321C146.469 339.142 134.018 314.008 135.139 286.894Z" fill="#D8A6FF"/>
<path d="M76.2981 342.021C87.591 330.728 101.707 335.928 103.936 335.928C103.936 332.102 102.428 330.287 99.411 325.974C82.279 322.759 72.6849 329.162 70.0293 332.765C71.3839 336.526 73.5952 339.804 76.2981 342.021Z" fill="#9065B0"/>
<path d="M276.804 308.001C274.555 305.493 269.168 304.242 266.756 303.93C262.578 310.534 253.743 325.265 251.824 331.359C253.295 331.705 261.593 332.441 265.558 332.765C268.189 326.529 274.122 312.846 276.804 308.001Z" fill="#9065B0"/>
<path d="M192.018 272.123C186.262 272.859 172.259 269.151 162.298 248.427C159.147 251.168 158.108 256.668 158.108 262.572C154.834 259.041 148.709 249.823 150.404 241.195C154.062 237.055 156.897 229.799 161.845 229.984C165.515 230.122 175.305 226.947 187.087 233.1C191.189 235.242 195.533 238.516 199.944 243.453C200.498 247.432 200.175 253.654 199.944 256.268L198.355 245.382C198.355 245.382 195.647 246.958 194.337 248.427C192.791 250.161 191.492 253.651 191.492 253.651L187.087 233.1C175.305 226.947 165.515 230.122 161.845 229.984C162.519 238.698 169.498 259.325 192.018 272.123Z" fill="#9065B0"/>
<path d="M161.089 233.016C164.408 225.377 164.995 214.813 164.995 214.813L151.332 198.239L165.767 182.869L193.567 155.47L207.364 166.43L206.861 187.947C206.645 189.072 206.445 192.083 207.364 195.128C208.513 198.935 210.093 209.062 206.861 214.232C203.389 219.563 196.929 221.671 191.026 222.266L188.471 236.444C188.471 236.444 194.619 259.277 191.971 272.549C174.465 266.552 164.07 243.822 161.089 233.016Z" fill="white"/>
<path d="M181.322 222C183.715 222.409 187.257 222.646 191.026 222.266M191.026 222.266C196.929 221.671 203.389 219.563 206.861 214.232C210.093 209.062 208.513 198.935 207.364 195.128C206.445 192.083 206.645 189.072 206.861 187.947L207.364 166.43L193.567 155.47L165.767 182.869L151.332 198.239L164.995 214.813C164.995 214.813 164.408 225.377 161.089 233.016C164.07 243.822 174.465 266.552 191.971 272.549C194.619 259.277 188.471 236.444 188.471 236.444L191.026 222.266Z" stroke="black"/>
<circle cx="190.292" cy="192.036" r="2.03374" fill="black"/>
<circle cx="202.807" cy="192.036" r="2.03374" fill="black"/>
<path d="M197.795 193.895C198.963 194.017 201.271 194.885 201.16 197.37C201.048 199.856 198.87 200.941 197.795 201.173" stroke="black" stroke-linecap="round"/>
<path d="M188.206 202.172C187.56 204.106 188.352 207.883 196.683 207.521" stroke="black" stroke-linecap="round"/>
<path d="M180.836 185.243C181.979 182.053 185.782 176.862 191.846 181.62M198.594 182.329C199.221 180.542 201.558 177.694 205.897 180.603" stroke="black" stroke-linecap="round"/>
<path d="M176.75 147.213C162.235 148.002 154.53 154.093 152.492 157.04C126.688 153.29 129.281 184.764 130.543 192.723C131.804 200.682 133.163 220.579 131.223 228.441C127.923 244.553 135.801 248.842 140.275 249.418C137.334 248.075 137.398 243.6 138.677 241.554C141.809 236.44 146.093 227.042 147.435 216.366C148.138 224.229 147.6 229.652 145.209 238.949C151.983 223.941 153.9 216.238 153.9 207.49C155.404 210.077 157.721 209.084 158.864 209.084C159.562 210.908 163.296 213.82 165.075 215.049V210.591C165.932 210.639 168.427 210.706 171.548 210.591C174.669 210.475 174.486 208.019 174.005 206.805C173.908 206.497 173.613 205.472 173.202 203.837C173.202 206.47 167.996 207.607 165.243 206.351C158.327 202.82 157.943 193.246 162.55 190.134C166.236 187.645 169.738 189.865 171.029 191.286C171.076 189.425 171.368 184.544 172.159 179.908C188.484 177.293 197.106 167.541 198.237 163.953C198.972 168.489 204.083 173.417 206.546 175.315V190.816C209.297 186.307 214.145 174.621 211.535 163.953C205.587 141.503 180.758 146.509 176.75 147.213Z" fill="black"/>
<path d="M456.444 374.049C463.228 368.868 473.505 372.709 481.372 377.745C496.859 366.191 531.867 340.494 549.168 329.266C549.294 324.398 552.036 307.494 553.418 299.502L562.05 299.457L554.526 358.276C546.289 365.172 505.639 384.857 488.628 394.648C469.486 411.814 448.514 411.667 448.31 411.537C448.107 411.407 447.635 410.005 448.929 409.615C450.677 409.516 462.009 405.303 462.004 404.506C461.999 403.708 461.625 403.667 460.933 403.82C454.266 405.854 439.253 406.235 438.811 405.457C438.368 404.678 438.869 403.536 440.161 403.347C444.035 402.782 458.788 399.216 458.822 398.911C458.856 398.606 458.713 398.083 458.047 398.079C451.851 400.965 434.862 399.015 434.482 398.312C434.103 397.609 434.463 396.497 435.629 396.52C446.995 395.89 455.093 392.901 455.161 392.632C455.23 392.364 455.297 391.689 454.268 391.79C441.232 392.885 434.048 390.457 433.796 389.753C433.544 389.049 433.622 387.509 435.794 387.73C451.5 387.759 462.823 382.921 466.521 380.498C465.632 378.704 463.471 375.405 461.937 376.562C458.476 378.357 454.41 375.42 456.444 374.049Z" fill="white" stroke="black"/>
<path d="M557.906 308.007H544.041C544.103 305.491 544.223 302.777 544.408 299.909C546.621 265.548 558.151 209.082 591.157 206.402C612.676 204.657 646.103 204.374 660.437 212.436C674.771 220.499 685.297 223.858 690.896 238.416C696.495 252.974 703.886 313.67 704.11 318.597C692.106 320.747 671.635 324.271 662.9 325.764C662.509 320.212 661.931 311.9 661.433 304.509C660.492 311.594 657.304 331.756 652.076 355.723C646.848 379.691 652.163 418.513 655.474 434.929C650.856 434.842 634.823 434.72 607.637 434.929C573.654 435.19 551.174 431.792 544.041 426.302C546.057 418.46 551.174 383.171 552.917 374.733C553.054 367.039 556.3 327.043 557.906 308.007Z" fill="#9065B0"/>
<path d="M566.085 246.531L557.947 308.014C556.342 327.05 553.096 367.046 552.959 374.739C549.79 392.695 543.417 429.409 543.278 432.619C543.138 435.83 586.154 435.501 607.679 434.936C634.865 434.726 650.898 434.848 655.516 434.936C652.205 418.52 646.889 379.698 652.118 355.73C657.346 331.763 660.534 311.601 661.475 304.516C660.928 296.404 660.478 289.399 660.478 288.368C657.567 283.889 630.019 240.44 660.478 212.443C646.144 204.38 612.718 204.664 591.199 206.409C573.983 207.805 567.283 233.738 566.085 246.531Z" fill="#D8A6FF"/>
<path d="M582.459 149.587C583.365 145.822 585.406 137.314 586.313 133.53L612.179 134.744C612.552 139.819 613.298 151.86 613.298 159.429C618.802 160.186 620.58 168.461 620.781 172.503C621.211 172.331 622.501 171.85 624.221 171.299C623.361 164.418 626.371 159.87 629.21 159.87C632.048 159.87 635.372 159.87 636.779 165.45C638.499 173.501 634.743 181.019 632.65 183.771L635.372 182.825C635.372 186.109 634.574 195.282 635.372 207.112C621.413 237.796 606.824 248.604 605.117 246.233C598.572 239.594 598.83 219.408 599.777 210.144L603.839 188.525C602.593 188.581 600.825 188.632 598.668 188.644C596.074 188.657 592.918 188.613 589.43 188.453C581.831 188.105 580.106 180.291 580.193 176.427V164.924L572.35 159.87C573.308 158.417 576.672 154.327 582.459 149.587Z" fill="white"/>
<path d="M598.668 188.644C596.074 188.657 592.918 188.613 589.43 188.453C581.831 188.105 580.106 180.291 580.193 176.427V164.924L572.35 159.87C573.308 158.417 576.672 154.327 582.459 149.587C583.365 145.822 585.406 137.314 586.313 133.53L612.179 134.744C612.552 139.819 613.298 151.86 613.298 159.429C618.802 160.186 620.58 168.461 620.781 172.503C621.211 172.331 622.501 171.85 624.221 171.299C623.361 164.418 626.371 159.87 629.21 159.87C632.048 159.87 635.372 159.87 636.779 165.45C638.499 173.501 634.743 181.019 632.65 183.771L635.372 182.825C635.372 186.109 634.574 195.282 635.372 207.112C621.413 237.796 606.824 248.604 605.117 246.233C598.572 239.594 598.83 219.408 599.777 210.144L603.839 188.525M598.668 188.644L605.117 188.453C604.788 188.477 604.359 188.501 603.839 188.525M598.668 188.644C600.825 188.632 602.593 188.581 603.839 188.525" stroke="black"/>
<path d="M569.201 132.142L585.779 136.338H605.848C613.887 136.338 612.933 152.751 612.933 159.633C618.001 159.633 620.312 168.441 620.835 172.846C621.321 172.603 622.692 171.93 624.286 171.174C623.342 164.879 626.805 159.003 631.211 159.633C641.599 161.416 635.094 181.142 632.47 183.975C646.53 178.624 653.455 159.213 648.104 136.338C642.753 113.464 611.696 110.423 604.561 109.898C597.426 109.374 589.662 111.157 586.724 111.157H575.392L577.281 120.495L569.201 122.698L574.762 128.994L569.201 132.142Z" fill="black"/>
<path d="M590.402 142.172C591.993 142.294 595.571 143.435 597.157 147.017" stroke="black" stroke-linecap="round"/>
<path d="M585.193 173.225C588.815 173.47 595.851 172.036 595.03 164.343" stroke="black" stroke-linecap="round"/>
<ellipse cx="590.802" cy="150.132" rx="1.269" ry="2.4186" fill="black"/>
<path d="M685.828 374.479C695.702 361.26 696.248 328.026 695.287 313.062L663.7 322.546C664.589 327.965 666.099 339.203 665.033 340.802C662.474 340.056 617.505 339.159 595.34 338.804C592.453 337.382 585.825 333.584 582.414 329.764C578.15 324.989 573.353 324.801 567.589 324.801C561.32 324.801 561.581 329.764 562.234 329.764C562.887 329.764 571.116 328.98 570.724 333.029C570.332 337.078 561.19 336.556 555.443 336.556C549.696 336.556 543.688 331.854 538.202 327.674C533.814 324.331 532.629 326.281 532.586 327.674C532.978 328.806 536.138 332.167 539.691 336.556C534.858 333.291 529.713 333.682 529.713 336.556C533.631 339.429 545.086 349.396 551.456 351.387C557.826 353.377 583.506 352.382 590.275 353.974C599.233 358.553 656.764 368.108 661.94 369.9C667.116 371.692 677.467 372.488 685.828 374.479Z" fill="white" stroke="black"/>
<path d="M660.437 212.437C674.771 220.499 685.297 223.859 690.896 238.416C695.16 249.501 700.462 287.333 702.848 306.93C703.596 313.071 704.057 317.421 704.11 318.597C692.106 320.747 671.635 324.271 662.9 325.764C662.673 322.534 662.382 318.37 662.08 313.997C661.863 310.853 661.641 307.601 661.433 304.509C660.886 296.397 660.437 289.393 660.437 288.361C657.525 283.882 629.977 240.433 660.437 212.437Z" fill="#9065B0"/>
<g filter="url(#filter0_d_7461_44946)">
<path d="M387.094 152.55H264.277C257.718 152.55 252.4 157.867 252.4 164.426V218.809L244.967 240.838L264.277 230.685H387.094C393.654 230.685 398.971 225.368 398.971 218.809V164.426C398.971 157.867 393.654 152.55 387.094 152.55Z" fill="#9065B0"/>
<path d="M285.249 173.821L283.743 170.509L280.431 169.003L283.743 167.497L285.249 164.185L286.755 167.497L290.067 169.003L286.755 170.509L285.249 173.821ZM285.249 190.686L283.743 187.373L280.431 185.867L283.743 184.361L285.249 181.049L286.755 184.361L290.067 185.867L286.755 187.373L285.249 190.686ZM273.203 187.072L270.192 180.447L263.566 177.435L270.192 174.424L273.203 167.798L276.215 174.424L282.84 177.435L276.215 180.447L273.203 187.072Z" fill="white"/>
<rect x="305.131" y="165.674" width="68.5507" height="8.61317" rx="4" fill="white"/>
<rect x="305.131" y="184.263" width="68.5507" height="8.61317" rx="4" fill="white"/>
<rect x="267.297" y="202.853" width="77.5487" height="8.61317" rx="4" fill="white"/>
</g>
</g>
<defs>
<filter id="filter0_d_7461_44946" x="236.967" y="148.55" width="170.004" height="104.288" filterUnits="userSpaceOnUse" color-interpolation-filters="sRGB">
<feFlood flood-opacity="0" result="BackgroundImageFix"/>
<feColorMatrix in="SourceAlpha" type="matrix" values="0 0 0 0 0 0 0 0 0 0 0 0 0 0 0 0 0 0 127 0" result="hardAlpha"/>
<feOffset dy="4"/>
<feGaussianBlur stdDeviation="4"/>
<feComposite in2="hardAlpha" operator="out"/>
<feColorMatrix type="matrix" values="0 0 0 0 0 0 0 0 0 0 0 0 0 0 0 0 0 0 0.16 0"/>
<feBlend mode="normal" in2="BackgroundImageFix" result="effect1_dropShadow_7461_44946"/>
<feBlend mode="normal" in="SourceGraphic" in2="effect1_dropShadow_7461_44946" result="shape"/>
</filter>
<clipPath id="clip0_7461_44946">
<rect y="0.25" width="752" height="423" rx="8" fill="white"/>
</clipPath>
</defs>
</svg>
