<svg width="200" height="200" viewBox="0 0 200 200" fill="none" xmlns="http://www.w3.org/2000/svg">
<rect width="200" height="200" fill="white"/>
<path d="M151.853 116.319V112.113C151.853 109.038 148.528 107.113 145.862 108.643L126.292 119.874C125.05 120.587 124.283 121.911 124.283 123.343V127.347C124.283 130.407 127.581 132.334 130.247 130.832L149.817 119.804C151.075 119.095 151.853 117.763 151.853 116.319Z" fill="#E4E4E4"/>
<path d="M117.102 144.322L116.559 144.63C114.642 145.719 112.263 144.334 112.263 142.129C112.263 141.112 112.8 140.171 113.676 139.653L114.213 139.336C116.133 138.201 118.559 139.586 118.559 141.817C118.559 142.853 118.003 143.81 117.102 144.322Z" fill="#E4E4E4"/>
<path d="M108.546 149.782L109.088 149.474C109.989 148.962 110.546 148.005 110.546 146.969C110.546 144.738 108.12 143.354 106.199 144.488L105.662 144.806C104.787 145.323 104.25 146.264 104.25 147.281C104.25 149.486 106.629 150.871 108.546 149.782Z" fill="#E4E4E4"/>
<path d="M118.033 104.257C117.329 103.621 117.361 102.44 118.103 101.62C118.845 100.799 120.017 100.65 120.72 101.286C121.424 101.922 121.392 103.103 120.65 103.923C119.908 104.744 118.736 104.893 118.033 104.257Z" fill="#E4E4E4"/>
<path d="M111.234 105.055C110.492 105.876 110.461 107.057 111.164 107.693C111.867 108.329 113.039 108.179 113.781 107.359C114.523 106.538 114.555 105.357 113.852 104.721C113.148 104.085 111.976 104.235 111.234 105.055Z" fill="#E4E4E4"/>
<path d="M104.867 111.699C104.164 111.063 104.195 109.882 104.938 109.061C105.68 108.24 106.852 108.091 107.555 108.727C108.258 109.363 108.227 110.544 107.485 111.365C106.743 112.185 105.571 112.335 104.867 111.699Z" fill="#E4E4E4"/>
<path fill-rule="evenodd" clip-rule="evenodd" d="M100.783 38L39 73.2143V126.467L100.241 162.265L160.212 127.365L161.424 71.6236L129.029 54.2261L100.783 38ZM63.8956 136.386V89.6148L43 77.8042V124.172L63.8956 136.386ZM73.3401 94.9529V141.907L98.2428 156.464V109.028L73.3401 94.9529ZM129.25 58.8854L75.5708 91.619L100.219 105.551L155.33 72.8913L129.25 58.8854ZM66.0442 86.2344L119.794 53.5341L100.775 42.6086L45.0517 74.3691L66.0442 86.2344ZM156.262 125.036L102.243 156.471V109.001L157.32 76.3617L156.262 125.036Z" fill="#E4E4E4"/>
</svg>
