<svg width="617" height="347" viewBox="0 0 617 347" fill="none" xmlns="http://www.w3.org/2000/svg">
<path d="M415.7 94.255L397.938 78.5694V47.8906H467.485V49.1774V78.5694L415.7 94.255Z" fill="#1C1348"/>
<path d="M467.484 47.8906H397.936V49.1774C431.389 49.0302 458.24 52.7949 467.484 54.6957V47.8906Z" fill="#161034"/>
<path d="M378.152 35.791C378.152 34.6864 379.048 33.791 380.152 33.791H486.833C487.937 33.791 488.833 34.6864 488.833 35.791V45.8916C488.833 46.9962 487.937 47.8916 486.833 47.8916H380.152C379.048 47.8916 378.152 46.9962 378.152 45.8916V35.791Z" fill="#483F71"/>
<path d="M484.935 108.207H387.27C378.274 108.207 370.98 115.5 370.98 124.497C370.98 133.493 378.274 140.786 387.27 140.786H484.935V136.664H474.198V112.301H484.935V108.207Z" fill="#6A40AD"/>
<path d="M346.27 138.379H443.935C452.931 138.379 460.225 145.672 460.225 154.669C460.225 163.665 452.931 170.958 443.935 170.958H346.27V166.836H357.007V142.473H346.27V138.379Z" fill="#885FC7"/>
<path fill-rule="evenodd" clip-rule="evenodd" d="M484.934 112.279H460.435C453.687 112.279 448.217 117.75 448.217 124.497C448.217 131.245 453.687 136.716 460.435 136.716H484.934C482.87 133.116 481.689 128.945 481.689 124.498C481.689 120.051 482.87 115.879 484.934 112.279Z" fill="#9F8EF0"/>
<path d="M346.271 142.451H373.206C378.609 142.451 382.99 146.832 382.99 152.235V157.104C382.99 162.507 378.609 166.887 373.206 166.887H346.271C348.336 163.288 349.516 159.116 349.516 154.669C349.516 150.222 348.336 146.051 346.271 142.451Z" fill="#9F8EF0"/>
<path d="M424.456 170.16H335.264C323.576 170.16 314.102 179.635 314.102 191.322C314.102 203.01 323.576 212.484 335.264 212.484H424.456V207.821C421.723 204.016 419.749 197.93 419.749 190.279C419.749 184.158 422.887 177.121 424.456 174.367V170.16Z" fill="#8461C8"/>
<path d="M460.142 280.215H337.528C321.46 280.215 308.436 293.202 308.436 309.222C308.436 325.243 321.46 338.23 337.528 338.23H460.142V331.837C456.385 326.622 453.671 318.279 453.671 307.792C453.671 299.402 457.985 289.756 460.142 285.981V280.215Z" fill="#855FC6"/>
<path d="M424.456 174.787V174.361H335.634C326.266 174.361 318.672 181.955 318.672 191.323C318.672 200.69 326.266 208.284 335.634 208.284H424.456V207.859C421.479 203.055 419.761 197.389 419.761 191.323C419.761 185.256 421.479 179.59 424.456 174.787Z" fill="#9F8EF0"/>
<path d="M460.141 286.555V285.973H338.035C325.156 285.973 314.717 296.382 314.717 309.222C314.717 322.062 325.156 332.472 338.035 332.472H460.141V331.888C456.048 325.303 453.686 317.538 453.686 309.222C453.686 300.906 456.048 293.14 460.141 286.555Z" fill="#9F8EF0"/>
<path d="M458.061 212.35H273.865C264.422 212.35 256.768 220.004 256.768 229.447C256.768 238.889 264.422 246.544 273.865 246.544H458.061V241.707C456.939 239.792 454.695 234.533 454.695 228.821C454.695 223.109 456.939 218.721 458.061 217.241V212.35Z" fill="#6A40AD"/>
<path fill-rule="evenodd" clip-rule="evenodd" d="M458.059 217.229H412.57C405.822 217.229 400.352 222.699 400.352 229.447C400.352 236.195 405.822 241.665 412.57 241.665H458.059C455.995 238.065 454.814 233.893 454.814 229.446C454.814 224.999 455.995 220.828 458.059 217.229Z" fill="#9F8EF0"/>
<path d="M396.823 242.75H221.83V246.559H231.629L230.769 276.428H221.83V280.214H396.823C406.266 280.214 413.92 272.56 413.92 263.117V259.847C413.92 250.405 406.266 242.75 396.823 242.75Z" fill="#7A4BC7"/>
<path d="M221.83 246.543H254.764C261.371 246.543 266.727 251.899 266.727 258.506V264.459C266.727 271.066 261.371 276.422 254.764 276.422H221.83C224.354 272.021 225.798 266.92 225.798 261.483C225.798 256.045 224.354 250.944 221.83 246.543Z" fill="#A08FF2"/>
<path d="M91.4656 224.071C65.5504 218.482 60.3421 187.16 60.9774 172.198C66.6941 169.94 80.7952 164.237 91.4656 159.494C93.1588 184.902 109.957 196.335 118.144 198.876C115.039 201.346 105.356 209.843 91.4656 224.071Z" fill="url(#paint0_linear_7461_44738)"/>
<path d="M284.671 85.5918L236.606 140.985L244.926 154.674L228.098 136.849L284.671 85.5918Z" fill="#9B6CE8"/>
<path d="M212.152 128.369L228.098 136.849L284.671 85.5918L212.152 128.369Z" fill="#CE90FF"/>
<path d="M212.152 128.369L228.098 136.849L284.671 85.5918L212.152 128.369Z" fill="white" fill-opacity="0.4"/>
<path d="M236.602 140.993L284.694 85.3066L266.342 154.661L249.412 146.881L244.954 154.661L236.602 140.993Z" fill="#CE91FF"/>
<path d="M236.602 140.993L284.694 85.3066L266.342 154.661L249.412 146.881L244.954 154.661L236.602 140.993Z" fill="white" fill-opacity="0.2"/>
<path d="M236.602 140.992L244.928 154.701L249.412 146.88L236.602 140.992Z" fill="#6A40AD"/>
<path d="M430.406 37.3635C432.919 37.3635 434.956 35.3265 434.956 32.8137C434.956 31.1286 434.04 29.6575 432.679 28.8712C434.214 15.4875 423.105 10.6123 415.512 9.07313C407.919 7.534 396.516 10.86 392.194 12.2459C387.871 13.6318 381.151 12.8959 379.94 11.9389C375.023 7.64915 369.942 7.72626 368.094 7.55021C366.246 7.37415 362.451 3.09588 360.471 3.72284C358.887 4.22442 359.218 6.60078 359.581 7.72626C359.238 7.61211 358.375 7.4523 357.662 7.72626C354.923 9.64357 359.475 12.9866 359.581 12.9989C357.321 12.725 355.13 13.2728 357.252 14.9162C372.043 24.3658 380.26 14.9846 381.151 14.9162C382.041 14.8477 383.751 15.8062 389.229 15.7378C394.707 15.6693 406.759 11.7662 414.019 12.2459C426.892 13.3415 429.319 23.5458 428.924 28.5109C427.139 29.1258 425.857 30.82 425.857 32.8137C425.857 35.3265 427.894 37.3635 430.406 37.3635Z" fill="#FFE54A"/>
<ellipse cx="383.47" cy="13.9029" rx="3.59903" ry="3.565" fill="#FF9700"/>
<path d="M527.629 185.736C527.304 185.736 527.041 185.472 527.041 185.147V182.048C527.041 181.723 526.777 181.459 526.452 181.459H525.022C524.697 181.459 524.433 181.723 524.433 182.048V185.147C524.433 185.472 524.17 185.736 523.845 185.736H520.745C520.42 185.736 520.156 186 520.156 186.325V187.755C520.156 188.08 520.42 188.343 520.745 188.343H523.845C524.17 188.343 524.433 188.607 524.433 188.932V192.031C524.433 192.357 524.697 192.62 525.022 192.62H526.452C526.777 192.62 527.041 192.357 527.041 192.031V188.932C527.041 188.607 527.304 188.343 527.629 188.343H530.729C531.054 188.343 531.317 188.08 531.317 187.755V186.325C531.317 186 531.054 185.736 530.729 185.736H527.629Z" fill="#E9D6F8"/>
<path d="M538.812 178.271C538.668 178.271 538.552 178.154 538.552 178.01V176.636C538.552 176.492 538.435 176.375 538.291 176.375H537.657C537.513 176.375 537.396 176.492 537.396 176.636V178.01C537.396 178.154 537.279 178.271 537.135 178.271H535.761C535.617 178.271 535.5 178.388 535.5 178.532V179.166C535.5 179.31 535.617 179.427 535.761 179.427H537.135C537.279 179.427 537.396 179.543 537.396 179.687V181.061C537.396 181.205 537.513 181.322 537.657 181.322H538.291C538.435 181.322 538.552 181.205 538.552 181.061V179.687C538.552 179.543 538.668 179.427 538.812 179.427H540.186C540.33 179.427 540.447 179.31 540.447 179.166V178.532C540.447 178.388 540.33 178.271 540.186 178.271H538.812Z" fill="#E9D6F8"/>
<path d="M225.129 308.188H188.99V331.646H225.129V308.188Z" fill="#2C225C"/>
<path d="M123.084 209.381C123.084 206.408 124.082 203.667 125.762 201.477C128.138 198.379 131.878 196.381 136.084 196.381H280.41C287.59 196.381 293.41 202.201 293.41 209.381V297.227C293.41 300.059 292.505 302.679 290.968 304.814C288.608 308.092 284.758 310.227 280.41 310.227H136.084C128.904 310.227 123.084 304.407 123.084 297.227V209.381Z" fill="#1C1348"/>
<path d="M136.084 310.226H280.41C284.758 310.226 288.608 308.092 290.968 304.813L125.762 201.477C124.082 203.667 123.084 206.407 123.084 209.38V297.226C123.084 304.406 128.904 310.226 136.084 310.226Z" fill="#1C1348"/>
<path d="M136.084 310.226H280.41C284.758 310.226 288.608 308.092 290.968 304.813L125.762 201.477C124.082 203.667 123.084 206.407 123.084 209.38V297.226C123.084 304.406 128.904 310.226 136.084 310.226Z" fill="white" fill-opacity="0.2"/>
<path d="M131.748 205.605H284.746V301.002H131.748V205.605Z" fill="white"/>
<path d="M284.746 205.605H131.748L284.746 301.002V205.605Z" fill="#7601D3" fill-opacity="0.08"/>
<path d="M188.975 310.225H225.074V318.859L188.975 314.159V310.225Z" fill="#161034"/>
<rect x="153.074" y="330.758" width="107.902" height="7.47165" fill="#2C225D"/>
<path d="M187.53 170.161C187.53 170.161 186.421 165.053 184.197 162.828C181.972 160.604 176.863 159.495 176.863 159.495C176.863 159.495 181.972 158.386 184.197 156.161C186.421 153.937 187.53 148.828 187.53 148.828C187.53 148.828 188.639 153.937 190.863 156.161C193.088 158.386 198.197 159.495 198.197 159.495C198.197 159.495 193.088 160.604 190.863 162.828C188.639 165.053 187.53 170.161 187.53 170.161Z" fill="#7601D3" fill-opacity="0.6"/>
<path d="M205.174 116.921C205.174 116.921 204.448 113.579 202.993 112.124C201.538 110.668 198.195 109.943 198.195 109.943C198.195 109.943 201.538 109.218 202.993 107.762C204.448 106.307 205.174 102.965 205.174 102.965C205.174 102.965 205.899 106.307 207.354 107.762C208.809 109.218 212.152 109.943 212.152 109.943C212.152 109.943 208.809 110.668 207.354 112.124C205.899 113.579 205.174 116.921 205.174 116.921Z" fill="#7601D3" fill-opacity="0.32"/>
<path d="M298.291 111.219C298.291 111.219 297.862 109.242 297.001 108.381C296.141 107.521 294.164 107.092 294.164 107.092C294.164 107.092 296.141 106.663 297.001 105.802C297.862 104.941 298.291 102.965 298.291 102.965C298.291 102.965 298.72 104.941 299.581 105.802C300.441 106.663 302.418 107.092 302.418 107.092C302.418 107.092 300.441 107.521 299.581 108.381C298.72 109.242 298.291 111.219 298.291 111.219Z" fill="#7601D3" fill-opacity="0.16"/>
<defs>
<linearGradient id="paint0_linear_7461_44738" x1="63.5806" y1="173.043" x2="89.536" y2="224.071" gradientUnits="userSpaceOnUse">
<stop stop-color="#7601D3" stop-opacity="0.08"/>
<stop offset="1" stop-color="#D9D9D9" stop-opacity="0"/>
</linearGradient>
</defs>
</svg>
