<svg width="753" height="424" viewBox="0 0 753 424" fill="none" xmlns="http://www.w3.org/2000/svg">
<path d="M486.031 22.3905C531.646 33.0664 586.32 47.9481 618.348 83.5347C650.376 118.798 660.082 174.766 646.17 222.969C632.259 271.173 595.379 311.612 556.557 342.993C517.735 374.698 476.972 397.344 433.945 409.637C390.594 421.607 344.655 423.225 295.804 416.755C247.277 410.284 196.162 395.403 163.163 362.404C130.488 329.082 115.607 277.32 106.548 224.264C97.4897 170.884 94.2546 115.563 119.489 79.0055C144.399 42.7719 198.426 24.6551 244.689 14.3026C290.951 3.95013 329.45 1.68553 366.977 3.62662C404.505 5.5677 440.739 11.7145 486.031 22.3905Z" fill="#FBF7FF"/>
<path fill-rule="evenodd" clip-rule="evenodd" d="M311.18 96.4615C311.18 91.4493 315.247 87.3828 320.259 87.3828H347.507C352.531 87.3828 356.597 91.4493 356.597 96.4615V107.266C359.907 108.23 363.134 109.4 366.267 110.759C368.584 111.764 370.842 112.875 373.041 114.087L380.677 106.445C382.462 104.666 384.791 103.779 387.132 103.785C389.449 103.791 391.766 104.677 393.527 106.445L412.796 125.713C416.342 129.254 416.342 135.005 412.796 138.551L405.147 146.2C407.996 151.36 410.29 156.868 411.968 162.643H422.773C427.785 162.643 431.852 166.709 431.852 171.722V198.97C431.852 202.221 430.149 205.069 427.584 206.671C426.189 207.546 424.534 208.054 422.773 208.054H411.956C411.164 210.791 410.23 213.469 409.167 216.075C407.984 218.971 406.637 221.779 405.147 224.498L412.796 232.14C416.33 235.687 416.33 241.438 412.796 244.984L393.527 264.253C389.981 267.799 384.224 267.799 380.677 264.253L373.029 256.604C367.875 259.447 362.366 261.747 356.597 263.419V274.224C356.597 276.618 355.663 278.799 354.15 280.418C352.495 282.197 350.131 283.309 347.507 283.309H320.259C315.247 283.309 311.18 279.242 311.18 274.224V263.419C308.319 262.586 305.518 261.605 302.799 260.476C300.033 259.329 297.337 258.035 294.737 256.604L287.088 264.247C283.542 267.799 277.797 267.799 274.25 264.247L254.982 244.984C251.435 241.438 251.435 235.687 254.982 232.14L262.63 224.498C259.781 219.332 257.488 213.823 255.809 208.054H245.005C241.647 208.054 238.704 206.228 237.132 203.509C236.363 202.173 235.926 200.625 235.926 198.97V171.722C235.926 166.709 239.992 162.643 245.005 162.643H255.809C256.873 158.967 258.185 155.402 259.746 151.968C260.632 150 261.59 148.079 262.63 146.2L254.982 138.551C251.435 135.011 251.435 129.26 254.982 125.713L274.25 106.445C277.797 102.898 283.542 102.898 287.088 106.445L294.737 114.087C296.581 113.065 298.484 112.119 300.411 111.244C303.886 109.672 307.48 108.342 311.18 107.266V96.4615ZM333.9 230.048C358.595 230.048 378.609 210.034 378.609 185.346C378.609 160.651 358.595 140.638 333.9 140.638C309.206 140.638 289.192 160.651 289.192 185.346C289.192 210.034 309.206 230.048 333.9 230.048Z" fill="#7601D3" fill-opacity="0.08"/>
<path fill-rule="evenodd" clip-rule="evenodd" d="M423.074 255.442C423.074 253.871 424.349 252.596 425.921 252.596H434.463C436.039 252.596 437.313 253.871 437.313 255.442V258.83C438.351 259.132 439.363 259.499 440.345 259.925C441.072 260.24 441.779 260.588 442.469 260.968L444.863 258.572C445.423 258.014 446.153 257.736 446.887 257.738C447.613 257.74 448.339 258.018 448.892 258.572L454.933 264.613C456.045 265.723 456.045 267.526 454.933 268.638L452.535 271.036C453.428 272.654 454.147 274.381 454.673 276.191H458.061C459.632 276.191 460.907 277.466 460.907 279.038V287.58C460.907 288.6 460.374 289.493 459.569 289.995C459.132 290.269 458.613 290.429 458.061 290.429H454.67C454.421 291.287 454.129 292.126 453.795 292.943C453.424 293.851 453.002 294.732 452.535 295.584L454.933 297.98C456.041 299.092 456.041 300.895 454.933 302.007L448.892 308.048C447.78 309.16 445.975 309.16 444.863 308.048L442.465 305.65C440.849 306.541 439.122 307.262 437.313 307.787V311.174C437.313 311.925 437.021 312.609 436.546 313.116C436.027 313.674 435.286 314.022 434.463 314.022H425.921C424.349 314.022 423.074 312.748 423.074 311.174V307.787C422.177 307.525 421.299 307.218 420.447 306.864C419.579 306.504 418.734 306.099 417.919 305.65L415.521 308.046C414.409 309.16 412.608 309.16 411.496 308.046L405.455 302.007C404.343 300.895 404.343 299.092 405.455 297.98L407.853 295.584C406.96 293.964 406.241 292.237 405.714 290.429H402.327C401.274 290.429 400.351 289.856 399.859 289.004C399.618 288.585 399.48 288.099 399.48 287.58V279.038C399.48 277.466 400.755 276.191 402.327 276.191H405.714C406.048 275.039 406.459 273.921 406.948 272.845C407.226 272.228 407.527 271.625 407.853 271.036L405.455 268.638C404.343 267.528 404.343 265.725 405.455 264.613L411.496 258.572C412.608 257.46 414.409 257.46 415.521 258.572L417.919 260.968C418.497 260.647 419.094 260.351 419.698 260.077C420.787 259.584 421.914 259.167 423.074 258.83V255.442ZM430.198 297.324C437.94 297.324 444.214 291.05 444.214 283.309C444.214 275.567 437.94 269.292 430.198 269.292C422.455 269.292 416.181 275.567 416.181 283.309C416.181 291.05 422.455 297.324 430.198 297.324Z" fill="#7601D3" fill-opacity="0.04"/>
<g filter="url(#filter0_d_7461_44780)">
<path d="M291.292 296.838C291.755 295.109 293.532 294.083 295.26 294.547L405.336 324.041C407.064 324.504 408.09 326.281 407.627 328.009L406.029 333.972C405.566 335.7 403.789 336.726 402.061 336.263L291.986 306.768C290.257 306.305 289.232 304.528 289.695 302.8L291.292 296.838Z" fill="url(#paint0_linear_7461_44780)"/>
<path d="M354.477 177.391C338.646 155.918 344.495 115.446 349.398 97.894L402.501 112.123L455.604 126.352C451.074 144.004 435.903 181.979 411.457 192.66C387.01 203.341 382.982 210.083 381.763 214.631C380.848 218.095 382.742 228.859 397.646 244.203C415.421 262.505 407.093 303.316 402.502 323.282L349.711 309.136L296.92 294.991C302.927 275.405 316.121 235.897 340.666 228.935C361.244 223.098 368.267 214.724 369.206 211.266C370.425 206.718 370.307 198.864 354.477 177.391Z" fill="#DFD7F9"/>
<path d="M372.876 214.095C374.544 206.283 373.284 198.736 360.877 183.337C347.08 166.214 345.391 143.398 347.211 125.933C354.21 133.275 373.494 148.943 394.638 152.871C421.068 157.783 430.73 154.235 440.288 157.18C432.679 171.569 423.213 186.452 404.684 193.796C381.859 202.841 378.381 207.226 376.295 215.011L368.305 241.93L362.068 264.496L361.079 264.406L366.75 241.514L372.876 214.095Z" fill="#A4B4E4"/>
<path d="M304.843 285.579C304.393 286.352 302.291 293.526 301.511 296.087C331.388 304.636 392.665 320.572 397.239 321.798C397.737 321.237 399.366 314.4 400.104 311.104C384.121 305.223 358.793 274.874 363.452 257.487C358.764 274.981 320.189 289.72 304.843 285.579Z" fill="#A4B4E4"/>
<path d="M354.477 177.391C338.646 155.918 344.495 115.446 349.398 97.894L362.217 101.329C357.688 115.798 352.209 151.208 366.533 177.094C378.05 197.731 383.892 205.586 384.02 206.356C383.313 206.79 380.562 210.212 379.805 213.287C379.2 215.747 379.204 219.425 379.59 221.062C371.166 225.555 352.942 234.515 348.038 236.663C341.908 239.349 321.194 255.576 308.452 298.081L296.92 294.991C302.927 275.405 316.121 235.897 340.666 228.935C361.244 223.098 368.267 214.724 369.206 211.266C370.425 206.718 370.307 198.864 354.477 177.391Z" fill="#7601D3" fill-opacity="0.16"/>
<path d="M441.323 147.235C441.637 146.023 440.908 144.785 439.695 144.471C438.483 144.158 437.245 144.886 436.931 146.099C431.742 166.157 417.886 178.243 411.842 181.674C410.752 182.293 410.371 183.677 410.989 184.766C411.608 185.856 412.992 186.237 414.082 185.619C421.008 181.687 435.776 168.674 441.323 147.235Z" fill="white"/>
<path d="M388.009 240.308C387.183 239.367 385.75 239.273 384.808 240.098C383.867 240.924 383.772 242.357 384.598 243.299C398.257 258.877 400.45 277.133 399.884 284.059C399.782 285.308 400.712 286.402 401.96 286.505C403.209 286.606 404.303 285.677 404.405 284.428C405.053 276.49 402.608 256.959 388.009 240.308Z" fill="white"/>
<path d="M342.775 89.2927C343.238 87.5643 345.014 86.5385 346.743 87.0017L464.522 118.561C466.251 119.024 467.277 120.8 466.813 122.529L465.216 128.491C464.753 130.219 462.976 131.245 461.248 130.782L343.468 99.2231C341.74 98.76 340.714 96.9834 341.177 95.2549L342.775 89.2927Z" fill="url(#paint1_linear_7461_44780)"/>
</g>
<path d="M506.081 224.86C502.289 218.292 504.54 209.892 511.108 206.1L542.586 187.926C549.155 184.134 557.554 186.384 561.346 192.953L589.33 241.422C593.122 247.991 590.872 256.39 584.303 260.182L552.825 278.356C546.257 282.148 537.857 279.898 534.065 273.329L506.081 224.86Z" fill="white"/>
<path d="M506.081 224.86L534.065 273.329C537.857 279.898 546.257 282.148 552.825 278.356L568.564 269.269L526.847 197.013L511.108 206.1C504.54 209.892 502.289 218.292 506.081 224.86Z" fill="black" fill-opacity="0.08"/>
<path d="M512.768 222.306L555.793 197.465L557.219 199.934L514.193 224.774L512.768 222.306Z" fill="#CCCCCB"/>
<path d="M517.288 230.135L560.314 205.294L561.739 207.763L518.713 232.604L517.288 230.135Z" fill="#CCCCCB"/>
<path d="M564.834 213.124L521.808 237.965L523.234 240.434L566.259 215.593L564.834 213.124Z" fill="#CCCCCB"/>
<path d="M526.329 245.794L569.354 220.953L570.78 223.422L527.754 248.263L526.329 245.794Z" fill="#CCCCCB"/>
<path d="M573.875 228.783L530.849 253.624L532.274 256.093L575.3 231.252L573.875 228.783Z" fill="#CCCCCB"/>
<path d="M535.37 261.453L578.395 236.612L579.821 239.081L536.795 263.922L535.37 261.453Z" fill="#CCCCCB"/>
<path d="M568.657 251.726L539.89 269.283L541.315 271.752L570.082 254.195L568.657 251.726Z" fill="#CCCCCB"/>
<path d="M519.511 206.329C520.132 207.406 519.763 208.782 518.687 209.403C517.611 210.024 516.235 209.656 515.613 208.58C514.992 207.503 515.361 206.127 516.437 205.506C517.513 204.884 518.889 205.253 519.511 206.329Z" fill="#9E9A99"/>
<path d="M525.256 203.012C525.877 204.089 525.509 205.465 524.432 206.086C523.356 206.707 521.98 206.339 521.359 205.262C520.737 204.186 521.106 202.81 522.182 202.189C523.259 201.567 524.635 201.936 525.256 203.012Z" fill="#9E9A99"/>
<path d="M530.173 202.772C531.249 202.151 531.618 200.774 530.996 199.698C530.375 198.622 528.999 198.253 527.923 198.875C526.846 199.496 526.478 200.872 527.099 201.948C527.72 203.025 529.096 203.393 530.173 202.772Z" fill="#9E9A99"/>
<path d="M536.742 196.381C537.363 197.457 536.994 198.833 535.918 199.455C534.842 200.076 533.466 199.707 532.844 198.631C532.223 197.555 532.592 196.179 533.668 195.558C534.744 194.936 536.12 195.305 536.742 196.381Z" fill="#9E9A99"/>
<path d="M541.658 196.141C542.734 195.519 543.103 194.143 542.482 193.067C541.86 191.991 540.484 191.622 539.408 192.243C538.332 192.865 537.963 194.241 538.584 195.317C539.206 196.393 540.582 196.762 541.658 196.141Z" fill="#9E9A99"/>
<path d="M512.997 203.055C512.513 202.217 512.801 201.145 513.639 200.661C514.477 200.177 515.549 200.464 516.033 201.302L518.552 205.666C519.036 206.504 518.748 207.575 517.91 208.059C517.072 208.543 516 208.256 515.516 207.418L512.997 203.055Z" fill="#D9D9D9"/>
<path d="M518.743 199.738C518.259 198.899 518.546 197.828 519.384 197.344C520.222 196.86 521.294 197.147 521.778 197.985L524.297 202.348C524.781 203.187 524.494 204.258 523.656 204.742C522.817 205.226 521.746 204.939 521.262 204.101L518.743 199.738Z" fill="#D9D9D9"/>
<path d="M525.129 194.027C524.291 194.511 524.004 195.582 524.488 196.421L527.007 200.784C527.491 201.622 528.563 201.909 529.401 201.425C530.239 200.941 530.526 199.87 530.042 199.031L527.523 194.668C527.039 193.83 525.968 193.543 525.129 194.027Z" fill="#D9D9D9"/>
<path d="M530.233 193.103C529.749 192.265 530.037 191.194 530.875 190.71C531.713 190.226 532.785 190.513 533.269 191.351L535.788 195.714C536.272 196.552 535.985 197.624 535.146 198.108C534.308 198.592 533.236 198.305 532.753 197.467L530.233 193.103Z" fill="#D9D9D9"/>
<path d="M536.62 187.393C535.782 187.876 535.495 188.948 535.979 189.786L538.498 194.15C538.982 194.988 540.054 195.275 540.892 194.791C541.73 194.307 542.017 193.235 541.533 192.397L539.014 188.034C538.53 187.196 537.458 186.909 536.62 187.393Z" fill="#D9D9D9"/>
<path d="M577.521 187.578L580.815 188.721L584.109 189.863L571.72 225.582L568.426 224.44L565.132 223.298L577.521 187.578Z" fill="#FCDC57"/>
<path d="M571.719 225.583L584.108 189.863L580.814 188.721L568.425 224.44L571.719 225.583Z" fill="#FAC903"/>
<path d="M565.272 233.533L567.046 231.346L571.72 225.583L565.132 223.298L565.234 230.718L565.272 233.533Z" fill="#EAA47E"/>
<path d="M565.271 233.533L565.233 230.718L567.044 231.346L565.271 233.533Z" fill="black"/>
<rect x="578.654" y="184.312" width="6.97263" height="3.45865" transform="rotate(19.1291 578.654 184.312)" fill="#CECECE"/>
<path d="M579.938 180.607C580.29 179.595 581.395 179.059 582.407 179.41L585.329 180.424C586.341 180.775 586.877 181.88 586.526 182.892L585.242 186.596L578.654 184.311L579.938 180.607Z" fill="#E76F6F"/>
<path d="M179.187 158.682C180.335 154.993 184.256 152.933 187.944 154.081L255.156 174.994C258.844 176.142 260.904 180.062 259.756 183.751L245.322 230.14C244.175 233.829 240.254 235.889 236.565 234.741L169.354 213.828C165.665 212.68 163.606 208.76 164.753 205.071L179.187 158.682Z" fill="#686D7B"/>
<path d="M179.702 166.031C180.161 164.555 181.729 163.732 183.205 164.191L253.322 186.008C254.798 186.467 255.622 188.035 255.163 189.511L242.718 229.506C242.259 230.981 240.691 231.805 239.215 231.346L169.098 209.529C167.622 209.07 166.798 207.501 167.257 206.026L179.702 166.031Z" fill="white"/>
<path d="M198.864 187.382C199.323 185.906 200.891 185.082 202.367 185.541L204.371 186.165C205.846 186.624 206.67 188.192 206.211 189.667L205.587 191.671C205.128 193.147 203.56 193.97 202.085 193.511L200.081 192.888C198.605 192.429 197.782 190.861 198.241 189.385L198.864 187.382Z" fill="#7601D3"/>
<path d="M180.899 170.368C181.358 168.892 182.927 168.068 184.402 168.528L186.406 169.151C187.881 169.61 188.705 171.178 188.246 172.654L187.623 174.657C187.163 176.133 185.595 176.957 184.12 176.498L182.116 175.874C180.641 175.415 179.817 173.847 180.276 172.371L180.899 170.368Z" fill="#B6D9ED"/>
<path d="M177.658 180.784C178.117 179.309 179.686 178.485 181.161 178.944L183.165 179.567C184.64 180.026 185.464 181.594 185.005 183.07L184.382 185.074C183.922 186.549 182.354 187.373 180.879 186.914L178.875 186.29C177.4 185.831 176.576 184.263 177.035 182.788L177.658 180.784Z" fill="#B6D9ED"/>
<path d="M177.92 189.36C176.445 188.901 174.876 189.725 174.417 191.2L173.794 193.204C173.335 194.679 174.159 196.248 175.634 196.707L177.638 197.33C179.113 197.789 180.681 196.965 181.141 195.49L181.764 193.486C182.223 192.011 181.399 190.442 179.924 189.983L177.92 189.36Z" fill="#B6D9ED"/>
<path d="M171.176 201.616C171.635 200.141 173.204 199.317 174.679 199.776L176.683 200.399C178.158 200.859 178.982 202.427 178.523 203.902L177.9 205.906C177.44 207.381 175.872 208.205 174.397 207.746L172.393 207.123C170.918 206.664 170.094 205.095 170.553 203.62L171.176 201.616Z" fill="#B6D9ED"/>
<path d="M195.005 171.827C193.529 171.367 191.961 172.191 191.502 173.667L190.878 175.671C190.419 177.146 191.243 178.714 192.719 179.173L194.722 179.797C196.198 180.256 197.766 179.432 198.225 177.956L198.849 175.953C199.308 174.477 198.484 172.909 197.008 172.45L195.005 171.827Z" fill="#B6D9ED"/>
<path d="M188.261 184.083C188.72 182.608 190.288 181.784 191.764 182.243L193.767 182.866C195.243 183.325 196.067 184.894 195.608 186.369L194.984 188.373C194.525 189.848 192.957 190.672 191.481 190.213L189.478 189.589C188.002 189.13 187.178 187.562 187.637 186.087L188.261 184.083Z" fill="#B6D9ED"/>
<path d="M188.523 192.659C187.047 192.2 185.479 193.024 185.02 194.499L184.396 196.503C183.937 197.978 184.761 199.547 186.237 200.006L188.24 200.629C189.716 201.088 191.284 200.264 191.743 198.789L192.367 196.785C192.826 195.31 192.002 193.741 190.526 193.282L188.523 192.659Z" fill="#B6D9ED"/>
<path d="M181.779 204.915C182.238 203.44 183.806 202.616 185.282 203.075L187.285 203.698C188.761 204.158 189.585 205.726 189.126 207.201L188.502 209.205C188.043 210.68 186.475 211.504 184.999 211.045L182.996 210.422C181.52 209.963 180.696 208.394 181.155 206.919L181.779 204.915Z" fill="#B6D9ED"/>
<path d="M205.607 175.126C204.132 174.667 202.564 175.49 202.105 176.966L201.481 178.97C201.022 180.445 201.846 182.013 203.321 182.472L205.325 183.096C206.801 183.555 208.369 182.731 208.828 181.256L209.451 179.252C209.91 177.776 209.087 176.208 207.611 175.749L205.607 175.126Z" fill="#B6D9ED"/>
<path d="M195.623 197.798C196.082 196.323 197.65 195.499 199.125 195.958L201.129 196.581C202.605 197.04 203.428 198.609 202.969 200.084L202.346 202.088C201.887 203.563 200.319 204.387 198.843 203.928L196.839 203.305C195.364 202.846 194.54 201.277 194.999 199.802L195.623 197.798Z" fill="#B6D9ED"/>
<path d="M195.884 206.374C194.409 205.915 192.841 206.739 192.382 208.214L191.758 210.218C191.299 211.693 192.123 213.262 193.598 213.721L195.602 214.344C197.078 214.803 198.646 213.979 199.105 212.504L199.728 210.5C200.187 209.025 199.364 207.457 197.888 206.998L195.884 206.374Z" fill="#B6D9ED"/>
<path d="M212.707 180.265C213.166 178.789 214.735 177.966 216.21 178.425L218.214 179.048C219.689 179.507 220.513 181.075 220.054 182.551L219.431 184.555C218.972 186.03 217.403 186.854 215.928 186.395L213.924 185.771C212.449 185.312 211.625 183.744 212.084 182.269L212.707 180.265Z" fill="#B6D9ED"/>
<path d="M212.969 188.841C211.494 188.382 209.925 189.206 209.466 190.681L208.843 192.685C208.384 194.16 209.208 195.728 210.683 196.188L212.687 196.811C214.162 197.27 215.731 196.446 216.19 194.971L216.813 192.967C217.272 191.492 216.448 189.923 214.973 189.464L212.969 188.841Z" fill="#B6D9ED"/>
<path d="M206.225 201.097C206.684 199.622 208.253 198.798 209.728 199.257L211.732 199.88C213.207 200.34 214.031 201.908 213.572 203.383L212.949 205.387C212.49 206.862 210.921 207.686 209.446 207.227L207.442 206.604C205.967 206.145 205.143 204.576 205.602 203.101L206.225 201.097Z" fill="#B6D9ED"/>
<path d="M206.487 209.673C205.012 209.214 203.443 210.038 202.984 211.513L202.361 213.517C201.902 214.993 202.726 216.561 204.201 217.02L206.205 217.643C207.68 218.102 209.249 217.278 209.708 215.803L210.331 213.799C210.79 212.324 209.966 210.756 208.491 210.297L206.487 209.673Z" fill="#B6D9ED"/>
<path d="M223.31 183.564C223.769 182.089 225.337 181.265 226.813 181.724L228.816 182.347C230.292 182.806 231.116 184.374 230.657 185.85L230.033 187.854C229.574 189.329 228.006 190.153 226.531 189.694L224.527 189.07C223.051 188.611 222.227 187.043 222.687 185.568L223.31 183.564Z" fill="#B6D9ED"/>
<path d="M223.572 192.14C222.096 191.681 220.528 192.505 220.069 193.98L219.446 195.984C218.986 197.459 219.81 199.028 221.286 199.487L223.29 200.11C224.765 200.569 226.333 199.745 226.792 198.27L227.416 196.266C227.875 194.791 227.051 193.222 225.575 192.763L223.572 192.14Z" fill="#B6D9ED"/>
<path d="M216.828 204.396C217.287 202.921 218.855 202.097 220.331 202.556L222.334 203.179C223.81 203.639 224.634 205.207 224.175 206.682L223.551 208.686C223.092 210.161 221.524 210.985 220.049 210.526L218.045 209.903C216.569 209.444 215.745 207.875 216.205 206.4L216.828 204.396Z" fill="#B6D9ED"/>
<path d="M217.09 212.972C215.614 212.513 214.046 213.337 213.587 214.812L212.964 216.816C212.504 218.292 213.328 219.86 214.804 220.319L216.808 220.942C218.283 221.401 219.851 220.578 220.31 219.102L220.934 217.098C221.393 215.623 220.569 214.055 219.093 213.596L217.09 212.972Z" fill="#B6D9ED"/>
<path d="M233.913 186.863C234.372 185.388 235.94 184.564 237.415 185.023L239.419 185.646C240.895 186.105 241.719 187.674 241.259 189.149L240.636 191.153C240.177 192.628 238.609 193.452 237.133 192.993L235.13 192.369C233.654 191.91 232.83 190.342 233.289 188.867L233.913 186.863Z" fill="#B6D9ED"/>
<path d="M234.174 195.439C232.699 194.98 231.131 195.804 230.672 197.279L230.048 199.283C229.589 200.758 230.413 202.327 231.889 202.786L233.892 203.409C235.368 203.868 236.936 203.044 237.395 201.569L238.018 199.565C238.478 198.09 237.654 196.521 236.178 196.062L234.174 195.439Z" fill="#B6D9ED"/>
<path d="M227.431 207.695C227.89 206.22 229.458 205.396 230.933 205.855L232.937 206.478C234.413 206.938 235.237 208.506 234.777 209.981L234.154 211.985C233.695 213.46 232.127 214.284 230.651 213.825L228.648 213.202C227.172 212.743 226.348 211.174 226.807 209.699L227.431 207.695Z" fill="#B6D9ED"/>
<path d="M227.692 216.271C226.217 215.812 224.649 216.636 224.19 218.111L223.566 220.115C223.107 221.591 223.931 223.159 225.407 223.618L227.41 224.241C228.886 224.7 230.454 223.877 230.913 222.401L231.536 220.397C231.996 218.922 231.172 217.354 229.696 216.895L227.692 216.271Z" fill="#B6D9ED"/>
<path d="M244.515 190.162C244.974 188.687 246.543 187.863 248.018 188.322L250.022 188.945C251.497 189.404 252.321 190.973 251.862 192.448L251.239 194.452C250.78 195.927 249.211 196.751 247.736 196.292L245.732 195.669C244.257 195.209 243.433 193.641 243.892 192.166L244.515 190.162Z" fill="#B6D9ED"/>
<path d="M244.777 198.738C243.302 198.279 241.733 199.103 241.274 200.578L240.651 202.582C240.192 204.057 241.016 205.626 242.491 206.085L244.495 206.708C245.97 207.167 247.539 206.343 247.998 204.868L248.621 202.864C249.08 201.389 248.256 199.82 246.781 199.361L244.777 198.738Z" fill="#B6D9ED"/>
<path d="M238.033 210.994C238.492 209.519 240.061 208.695 241.536 209.154L243.54 209.778C245.015 210.237 245.839 211.805 245.38 213.28L244.757 215.284C244.298 216.759 242.729 217.583 241.254 217.124L239.25 216.501C237.775 216.042 236.951 214.473 237.41 212.998L238.033 210.994Z" fill="#B6D9ED"/>
<path d="M238.295 219.57C236.82 219.111 235.251 219.935 234.792 221.411L234.169 223.414C233.71 224.89 234.534 226.458 236.009 226.917L238.013 227.54C239.488 228 241.057 227.176 241.516 225.7L242.139 223.696C242.598 222.221 241.774 220.653 240.299 220.194L238.295 219.57Z" fill="#B6D9ED"/>
<path d="M197.885 153.02C198.266 151.797 197.583 150.497 196.36 150.116C195.136 149.735 193.836 150.418 193.455 151.642L190.629 160.725C190.249 161.948 190.932 163.248 192.155 163.629C193.378 164.01 194.678 163.326 195.059 162.103L197.885 153.02Z" fill="#3D3D3D"/>
<path d="M244.7 167.587C245.081 166.363 244.397 165.063 243.174 164.682C241.951 164.302 240.651 164.985 240.27 166.208L237.444 175.291C237.063 176.514 237.746 177.815 238.97 178.195C240.193 178.576 241.493 177.893 241.874 176.67L244.7 167.587Z" fill="#3D3D3D"/>
<path d="M200.75 153.911C201.131 152.688 202.431 152.005 203.654 152.386C204.877 152.766 205.561 154.067 205.18 155.29L202.354 164.373C201.973 165.596 200.673 166.279 199.45 165.899C198.226 165.518 197.543 164.218 197.924 162.994L200.75 153.911Z" fill="#3D3D3D"/>
<path d="M252 169.858C252.38 168.635 251.697 167.334 250.474 166.954C249.251 166.573 247.95 167.256 247.57 168.48L244.744 177.562C244.363 178.786 245.046 180.086 246.269 180.467C247.493 180.847 248.793 180.164 249.174 178.941L252 169.858Z" fill="#3D3D3D"/>
<path d="M489.961 321.273L451.447 365.66L458.114 376.629L444.629 362.346L489.961 321.273Z" fill="#9B6CE8"/>
<path d="M431.852 355.551L444.629 362.346L489.961 321.273L431.852 355.551Z" fill="#CE90FF"/>
<path d="M431.852 355.551L444.629 362.346L489.961 321.273L431.852 355.551Z" fill="white" fill-opacity="0.4"/>
<path d="M451.443 365.667L489.98 321.045L475.275 376.619L461.708 370.384L458.136 376.619L451.443 365.667Z" fill="#CE91FF"/>
<path d="M451.443 365.667L489.98 321.045L475.275 376.619L461.708 370.384L458.136 376.619L451.443 365.667Z" fill="white" fill-opacity="0.2"/>
<path d="M451.443 365.662L458.115 376.647L461.708 370.38L451.443 365.662Z" fill="#6A40AD"/>
<path d="M161.944 169.812C161.944 169.812 161.135 165.547 159.513 163.69C157.891 161.833 154.166 160.907 154.166 160.907C154.166 160.907 157.891 159.982 159.513 158.125C161.135 156.268 161.944 152.003 161.944 152.003C161.944 152.003 162.752 156.268 164.374 158.125C165.996 159.982 169.722 160.907 169.722 160.907C169.722 160.907 165.996 161.833 164.374 163.69C162.752 165.547 161.944 169.812 161.944 169.812Z" fill="#7601D3" fill-opacity="0.6"/>
<path d="M212.255 152.003C212.255 152.003 211.616 148.635 210.336 147.169C209.055 145.703 206.113 144.972 206.113 144.972C206.113 144.972 209.055 144.241 210.336 142.774C211.616 141.308 212.255 137.94 212.255 137.94C212.255 137.94 212.893 141.308 214.174 142.774C215.455 144.241 218.396 144.972 218.396 144.972C218.396 144.972 215.455 145.703 214.174 147.169C212.893 148.635 212.255 152.003 212.255 152.003Z" fill="#7601D3" fill-opacity="0.16"/>
<path d="M158.345 224.074C158.345 224.074 157.895 221.7 156.992 220.666C156.089 219.633 154.016 219.117 154.016 219.117C154.016 219.117 156.089 218.602 156.992 217.568C157.895 216.534 158.345 214.16 158.345 214.16C158.345 214.16 158.796 216.534 159.699 217.568C160.601 218.602 162.675 219.117 162.675 219.117C162.675 219.117 160.601 219.633 159.699 220.666C158.796 221.7 158.345 224.074 158.345 224.074Z" fill="#7601D3" fill-opacity="0.16"/>
<path d="M556.324 333.793C556.324 333.793 555.066 327.158 552.543 324.269C550.02 321.38 544.225 319.94 544.225 319.94C544.225 319.94 550.02 318.5 552.543 315.611C555.066 312.723 556.324 306.088 556.324 306.088C556.324 306.088 557.582 312.723 560.105 315.611C562.629 318.5 568.424 319.94 568.424 319.94C568.424 319.94 562.629 321.38 560.105 324.269C557.582 327.158 556.324 333.793 556.324 333.793Z" fill="#7601D3" fill-opacity="0.16"/>
<path d="M497.157 242.265C497.157 242.265 496.554 239.085 495.344 237.701C494.135 236.316 491.357 235.626 491.357 235.626C491.357 235.626 494.135 234.935 495.344 233.551C496.554 232.166 497.157 228.986 497.157 228.986C497.157 228.986 497.76 232.166 498.969 233.551C500.178 234.935 502.956 235.626 502.956 235.626C502.956 235.626 500.178 236.316 498.969 237.701C497.76 239.085 497.157 242.265 497.157 242.265Z" fill="#7601D3" fill-opacity="0.16"/>
<path d="M543.778 104.532C543.778 104.532 543.42 102.642 542.701 101.819C541.983 100.996 540.332 100.586 540.332 100.586C540.332 100.586 541.983 100.176 542.701 99.3532C543.42 98.5304 543.778 96.6406 543.778 96.6406C543.778 96.6406 544.137 98.5304 544.855 99.3532C545.574 100.176 547.225 100.586 547.225 100.586C547.225 100.586 545.574 100.996 544.855 101.819C544.137 102.642 543.778 104.532 543.778 104.532Z" fill="#7601D3" fill-opacity="0.08"/>
<path d="M500.496 56.7188C500.844 55.5798 502.084 54.9741 503.196 55.4002L556.789 75.9359C557.913 76.3669 558.428 77.6685 557.902 78.752L540.997 113.562C540.532 114.521 539.41 114.964 538.414 114.583L490.441 96.2004C489.433 95.8142 488.896 94.7141 489.211 93.6819L500.496 56.7188Z" fill="#F4CA7D"/>
<path d="M507.167 54.2927C507.554 53.2068 508.76 52.6526 509.837 53.0652L526.848 59.5836C527.928 59.9977 528.454 61.2226 528.009 62.2912L511.445 102.109C511.018 103.136 509.851 103.637 508.813 103.239L493.861 97.5096C492.819 97.1101 492.286 95.9513 492.662 94.8999L507.167 54.2927Z" fill="#F4CC7E"/>
<path d="M495.296 59.915C495.628 58.7565 496.881 58.1312 498.007 58.5624L557.771 81.463C558.912 81.9002 559.422 83.2307 558.864 84.3182L543.391 114.525C542.913 115.459 541.808 115.882 540.828 115.507L487.207 94.9603C486.211 94.579 485.673 93.5002 485.967 92.4758L495.296 59.915Z" fill="#FBE0B4"/>
<path d="M233.811 311.094C237.757 298.866 238.433 281.756 238.278 274.729C239.588 274.064 244.268 273.378 252.504 275.959C260.741 278.541 263.967 281.705 264.551 282.965C264.42 283.171 264.281 283.392 264.134 283.629C261.065 288.585 254.759 300.108 251.024 311.681C247.11 323.806 243.801 341.193 242.635 348.371C241.445 349.46 237.375 351.164 230.614 349.271C223.852 347.378 221.386 343.361 220.999 341.59C223.625 336.52 229.865 323.322 233.811 311.094Z" fill="#3B76E2"/>
<path d="M252.504 275.959C260.741 278.541 263.967 281.705 264.551 282.965C264.42 283.171 264.281 283.392 264.134 283.629C262.349 283.647 256.966 283.18 249.713 281.166C247.617 280.584 245.843 279.91 244.362 279.215C240.716 277.503 238.839 275.658 238.278 274.729C239.588 274.064 244.268 273.378 252.504 275.959Z" fill="#9ABFF2"/>
<path d="M264.551 282.965C264.42 283.171 264.281 283.392 264.134 283.629C262.349 283.647 256.966 283.18 249.713 281.166C247.617 280.584 245.843 279.91 244.362 279.215L245.098 276.867C250.876 279.466 262.857 284.324 264.551 282.965Z" fill="#295090"/>
<path d="M224.564 299.426L224.421 293.147C227.443 298.368 234.904 309.585 240.568 312.687C246.232 315.79 249.852 313.704 250.954 312.273L249.619 316.53C245.749 320.697 234.828 314.961 232.853 314.844C231.273 314.751 225.418 318.782 222.688 320.808L225.505 317.116L220.349 314.796L232.426 312.197L219.292 299.885L224.564 299.426Z" fill="#98412A"/>
<circle cx="236.798" cy="313.4" r="6.44728" transform="rotate(17.4033 236.798 313.4)" fill="#F96B4B"/>
<defs>
<filter id="filter0_d_7461_44780" x="273.584" y="70.8906" width="209.34" height="281.483" filterUnits="userSpaceOnUse" color-interpolation-filters="sRGB">
<feFlood flood-opacity="0" result="BackgroundImageFix"/>
<feColorMatrix in="SourceAlpha" type="matrix" values="0 0 0 0 0 0 0 0 0 0 0 0 0 0 0 0 0 0 127 0" result="hardAlpha"/>
<feOffset/>
<feGaussianBlur stdDeviation="8"/>
<feComposite in2="hardAlpha" operator="out"/>
<feColorMatrix type="matrix" values="0 0 0 0 0.68061 0 0 0 0 0.4636 0 0 0 0 0.89762 0 0 0 0.25 0"/>
<feBlend mode="normal" in2="BackgroundImageFix" result="effect1_dropShadow_7461_44780"/>
<feBlend mode="normal" in="SourceGraphic" in2="effect1_dropShadow_7461_44780" result="shape"/>
</filter>
<linearGradient id="paint0_linear_7461_44780" x1="408.465" y1="329.53" x2="290.993" y2="297.024" gradientUnits="userSpaceOnUse">
<stop stop-color="#2D3D51"/>
<stop offset="1" stop-color="#50566D"/>
</linearGradient>
<linearGradient id="paint1_linear_7461_44780" x1="466.015" y1="125.51" x2="342.541" y2="90.1813" gradientUnits="userSpaceOnUse">
<stop stop-color="#2D3D51"/>
<stop offset="1" stop-color="#50566D"/>
</linearGradient>
</defs>
</svg>
