<svg width="64" height="64" viewBox="0 0 64 64" fill="none" xmlns="http://www.w3.org/2000/svg">
<path d="M49.1385 6.72035C49.5178 6.02681 50.5139 6.02681 50.8932 6.72035L53.4816 11.453C53.5733 11.6207 53.7113 11.7587 53.8791 11.8505L58.6117 14.4388C59.3052 14.8181 59.3052 15.8142 58.6117 16.1935L53.8791 18.7819C53.7113 18.8736 53.5733 19.0116 53.4816 19.1794L50.8932 23.912C50.5139 24.6055 49.5178 24.6055 49.1385 23.912L46.5502 19.1794C46.4584 19.0116 46.3205 18.8736 46.1527 18.7819L41.4201 16.1935C40.7265 15.8142 40.7265 14.8181 41.4201 14.4388L46.1527 11.8505C46.3205 11.7587 46.4584 11.6207 46.5502 11.453L49.1385 6.72035Z" fill="#7601D3"/>
<path d="M25.3385 14.9203C25.7178 14.2267 26.7139 14.2267 27.0932 14.9203L33.2878 26.2466C33.3796 26.4144 33.5175 26.5524 33.6853 26.6442L45.0117 32.8387C45.7052 33.2181 45.7052 34.2141 45.0117 34.5935L33.6853 40.788C33.5175 40.8798 33.3796 41.0178 33.2878 41.1856L27.0932 52.5119C26.7139 53.2055 25.7178 53.2055 25.3385 52.5119L19.1439 41.1856C19.0522 41.0178 18.9142 40.8798 18.7464 40.788L7.42006 34.5935C6.72651 34.2141 6.72652 33.2181 7.42006 32.8387L18.7464 26.6442C18.9142 26.5524 19.0522 26.4144 19.1439 26.2466L25.3385 14.9203Z" fill="#7601D3"/>
<path d="M50.8932 39.9204C50.5139 39.2268 49.5178 39.2268 49.1385 39.9204L46.5502 44.653C46.4584 44.8208 46.3205 44.9587 46.1527 45.0505L41.4201 47.6388C40.7265 48.0181 40.7265 49.0142 41.4201 49.3935L46.1527 51.9819C46.3205 52.0736 46.4584 52.2116 46.5502 52.3794L49.1385 57.112C49.5178 57.8055 50.5139 57.8055 50.8932 57.112L53.4816 52.3794C53.5733 52.2116 53.7113 52.0736 53.8791 51.9819L58.6117 49.3935C59.3052 49.0142 59.3052 48.0181 58.6117 47.6388L53.8791 45.0505C53.7113 44.9587 53.5733 44.8208 53.4816 44.653L50.8932 39.9204Z" fill="#7601D3"/>
</svg>
