<svg width="32" height="32" viewBox="0 0 32 32" fill="none" xmlns="http://www.w3.org/2000/svg">
<mask id="mask0_6397_8221" style="mask-type:alpha" maskUnits="userSpaceOnUse" x="0" y="0" width="32" height="32">
<rect width="32" height="32" fill="#D9D9D9"/>
</mask>
<g mask="url(#mask0_6397_8221)">
<path d="M25.3335 11.9997L23.6668 8.33301L20.0002 6.66634L23.6668 4.99967L25.3335 1.33301L27.0002 4.99967L30.6668 6.66634L27.0002 8.33301L25.3335 11.9997ZM25.3335 30.6663L23.6668 26.9997L20.0002 25.333L23.6668 23.6663L25.3335 19.9997L27.0002 23.6663L30.6668 25.333L27.0002 26.9997L25.3335 30.6663ZM12.0002 26.6663L8.66683 19.333L1.3335 15.9997L8.66683 12.6663L12.0002 5.33301L15.3335 12.6663L22.6668 15.9997L15.3335 19.333L12.0002 26.6663Z" fill="#7601D3"/>
</g>
</svg>
