<svg width="617" height="347" viewBox="0 0 617 347" fill="none" xmlns="http://www.w3.org/2000/svg">
<path d="M188.465 160.355C188.465 155.193 192.65 151.008 197.812 151.008H420.88C426.043 151.008 430.227 155.193 430.227 160.355V301.317C430.227 306.479 426.043 310.664 420.88 310.664H197.812C192.65 310.664 188.465 306.479 188.465 301.317V160.355Z" fill="#1C1348"/>
<path d="M198.881 159.914H421.421V301.782H198.881V159.914Z" fill="white"/>
<path d="M167.77 310.66H448.294V313.528C448.294 317.657 444.946 321.005 440.817 321.005H175.247C171.117 321.005 167.77 317.657 167.77 313.528V310.66Z" fill="#D9D9D9"/>
<path d="M285.953 310.66H330.107V310.66C330.107 313.156 328.084 315.18 325.588 315.18H290.473C287.977 315.18 285.953 313.156 285.953 310.66V310.66Z" fill="url(#paint0_linear_7461_44996)"/>
<rect x="114.912" y="100.023" width="73.5579" height="26.7245" rx="3.73875" fill="#ECE8FC"/>
<path d="M119.604 107.227C119.604 105.162 121.277 103.488 123.342 103.488H198.246C200.31 103.488 201.984 105.162 201.984 107.227V126.474C201.984 128.539 200.31 130.213 198.246 130.213H123.342C121.277 130.213 119.604 128.539 119.604 126.474V107.227Z" fill="#6A40AD"/>
<rect x="128.055" y="112.664" width="51.2793" height="1.44336" fill="white"/>
<rect x="128.055" y="116.543" width="51.2793" height="1.44336" fill="white"/>
<rect x="128.055" y="120.42" width="51.2793" height="1.44336" fill="white"/>
<ellipse cx="203.462" cy="116.846" rx="16.4166" ry="16.4168" fill="#1C1348"/>
<path fill-rule="evenodd" clip-rule="evenodd" d="M205.514 116.944C207.118 116.177 208.226 114.539 208.226 112.643C208.226 110.012 206.093 107.879 203.462 107.879C200.831 107.879 198.698 110.012 198.698 112.643C198.698 114.539 199.806 116.177 201.41 116.943C197.727 117.86 194.998 121.19 194.998 125.156H211.925C211.925 121.19 209.196 117.861 205.514 116.944Z" fill="white"/>
<path d="M145.971 134.158C146.15 133.77 146.701 133.77 146.879 134.158L147.586 135.69C147.659 135.848 147.809 135.957 147.981 135.977L149.657 136.176C150.081 136.226 150.251 136.75 149.938 137.04L148.699 138.185C148.571 138.303 148.514 138.479 148.548 138.65L148.877 140.305C148.96 140.723 148.514 141.047 148.142 140.839L146.67 140.014C146.518 139.929 146.333 139.929 146.181 140.014L144.709 140.839C144.336 141.047 143.891 140.723 143.974 140.305L144.303 138.65C144.337 138.479 144.28 138.303 144.152 138.185L142.913 137.04C142.6 136.75 142.77 136.226 143.194 136.176L144.869 135.977C145.042 135.957 145.192 135.848 145.265 135.69L145.971 134.158Z" fill="#F4C06D"/>
<path d="M156.04 134.158C156.218 133.77 156.769 133.77 156.948 134.158L157.655 135.69C157.727 135.848 157.877 135.957 158.05 135.977L159.726 136.176C160.149 136.226 160.319 136.75 160.006 137.04L158.767 138.185C158.64 138.303 158.582 138.479 158.616 138.65L158.945 140.305C159.028 140.723 158.583 141.047 158.211 140.839L156.738 140.014C156.586 139.929 156.401 139.929 156.25 140.014L154.777 140.839C154.405 141.047 153.959 140.723 154.042 140.305L154.371 138.65C154.405 138.479 154.348 138.303 154.22 138.185L152.981 137.04C152.668 136.75 152.838 136.226 153.262 136.176L154.938 135.977C155.11 135.957 155.26 135.848 155.333 135.69L156.04 134.158Z" fill="#F4C06D"/>
<path d="M166.548 134.158C166.726 133.77 167.277 133.77 167.456 134.158L168.162 135.69C168.235 135.848 168.385 135.957 168.558 135.977L170.233 136.176C170.657 136.226 170.827 136.75 170.514 137.04L169.275 138.185C169.147 138.303 169.09 138.479 169.124 138.65L169.453 140.305C169.536 140.723 169.091 141.047 168.718 140.839L167.246 140.014C167.094 139.929 166.909 139.929 166.757 140.014L165.285 140.839C164.913 141.047 164.467 140.723 164.55 140.305L164.879 138.65C164.913 138.479 164.856 138.303 164.728 138.185L163.489 137.04C163.176 136.75 163.346 136.226 163.77 136.176L165.446 135.977C165.618 135.957 165.768 135.848 165.841 135.69L166.548 134.158Z" fill="#F4C06D"/>
<ellipse cx="195.524" cy="64.2861" rx="17.7371" ry="17.7373" fill="#B9C2D3"/>
<ellipse cx="532.54" cy="154.599" rx="17.7371" ry="17.7373" fill="#D9D9D9"/>
<g opacity="0.4">
<path d="M248.697 29.2329C248.697 27.168 250.371 25.4941 252.436 25.4941H307.019C309.084 25.4941 310.758 27.168 310.758 29.2329V63.3997C310.758 65.4646 309.084 67.1385 307.019 67.1385H252.436C250.371 67.1385 248.697 65.4646 248.697 63.3997V29.2329Z" fill="#9F8EF0"/>
<path d="M251.101 57.524L250.746 30.5391L252.019 43.3408L251.101 57.524Z" fill="white"/>
<path d="M279.844 49.1916L251.461 28.0059L279.844 46.3531L309.138 28.0059L279.844 49.1916Z" fill="#6A40AD"/>
</g>
<g filter="url(#filter0_d_7461_44996)">
<rect x="230.641" y="79.2246" width="153.638" height="195.479" fill="white"/>
</g>
<rect x="230.641" y="79.2246" width="50.0787" height="195.479" fill="#F4C06D"/>
<rect x="289.406" y="83.4492" width="9.78013" height="38.2232" fill="#F4C06D"/>
<rect x="236.709" y="127.043" width="39.0487" height="4.37042" fill="white"/>
<rect x="236.707" y="194.326" width="39.0487" height="4.37042" fill="white"/>
<rect x="241.129" y="138.012" width="29.1615" height="1.70082" fill="#333333"/>
<rect x="241.129" y="205.293" width="29.1615" height="1.70082" fill="#333333"/>
<rect x="241.129" y="155.707" width="29.1615" height="1.70082" fill="#333333"/>
<rect x="241.129" y="222.992" width="29.1615" height="1.70082" fill="#333333"/>
<rect x="241.129" y="173.408" width="29.1615" height="1.70082" fill="#333333"/>
<rect x="241.111" y="240.688" width="20.876" height="1.70082" fill="#333333"/>
<rect x="241.1" y="142.213" width="29.1615" height="1.70082" fill="#333333"/>
<rect x="241.102" y="209.498" width="29.1615" height="1.70082" fill="#333333"/>
<rect x="241.105" y="159.914" width="29.1615" height="1.70082" fill="#333333"/>
<rect x="241.102" y="227.195" width="29.1615" height="1.70082" fill="#333333"/>
<rect x="241.1" y="177.617" width="29.1615" height="1.70082" fill="#333333"/>
<rect x="241.092" y="244.896" width="15.1387" height="1.70082" fill="#333333"/>
<rect x="241.07" y="146.422" width="29.1615" height="1.70082" fill="#333333"/>
<rect x="241.07" y="213.703" width="29.1615" height="1.70082" fill="#333333"/>
<rect x="241.07" y="164.123" width="29.1615" height="1.70082" fill="#333333"/>
<rect x="241.07" y="231.406" width="29.1615" height="1.70082" fill="#333333"/>
<rect x="241.07" y="181.82" width="29.1615" height="1.70082" fill="#333333"/>
<rect x="241.07" y="249.105" width="9.11719" height="1.70082" fill="#333333"/>
<rect x="289.406" y="131.943" width="9.78013" height="38.2232" fill="#F4C06D"/>
<rect x="289.406" y="180.438" width="9.78013" height="38.2232" fill="#F4C06D"/>
<rect x="289.406" y="228.928" width="9.78013" height="38.2232" fill="#F4C06D"/>
<rect x="305.027" y="83.4492" width="0.324219" height="185.307" fill="#D9D9D9"/>
<rect x="311.697" y="92.1523" width="68.2041" height="1.68262" rx="0.841309" fill="#333333" fill-opacity="0.16"/>
<rect x="311.766" y="140.195" width="68.2041" height="1.68" rx="0.84" fill="#333333" fill-opacity="0.16"/>
<rect x="311.824" y="189.4" width="68.2041" height="1.68" rx="0.84" fill="#333333" fill-opacity="0.16"/>
<rect x="311.891" y="238.605" width="68.2041" height="1.68" rx="0.84" fill="#333333" fill-opacity="0.16"/>
<rect x="311.734" y="100.711" width="68.2041" height="1.68" rx="0.84" fill="#333333" fill-opacity="0.16"/>
<rect x="311.799" y="148.752" width="68.2041" height="1.68" rx="0.84" fill="#333333" fill-opacity="0.16"/>
<rect x="311.869" y="197.965" width="68.2041" height="1.68" rx="0.84" fill="#333333" fill-opacity="0.16"/>
<rect x="311.938" y="247.168" width="68.2041" height="1.68" rx="0.84" fill="#333333" fill-opacity="0.16"/>
<rect x="311.766" y="109.27" width="39.6256" height="1.68" rx="0.84" fill="#333333" fill-opacity="0.16"/>
<rect x="311.824" y="157.316" width="39.6256" height="1.68" rx="0.84" fill="#333333" fill-opacity="0.16"/>
<rect x="311.891" y="206.525" width="39.6256" height="1.68" rx="0.84" fill="#333333" fill-opacity="0.16"/>
<rect x="311.961" y="255.729" width="39.6256" height="1.68" rx="0.84" fill="#333333" fill-opacity="0.16"/>
<ellipse cx="256.225" cy="103.436" rx="18.0298" ry="18.03" fill="white"/>
<path fill-rule="evenodd" clip-rule="evenodd" d="M258.602 103.054C260.459 102.166 261.743 100.27 261.743 98.0735C261.743 95.0266 259.273 92.5566 256.226 92.5566C253.179 92.5566 250.709 95.0266 250.709 98.0735C250.709 100.269 251.992 102.166 253.849 103.054C249.584 104.115 246.424 107.971 246.424 112.565H266.026C266.026 107.972 262.866 104.116 258.602 103.054Z" fill="#7601D3"/>
<path d="M447.684 103.64C447.845 103.292 448.34 103.292 448.501 103.64L449.265 105.297C449.331 105.439 449.465 105.537 449.621 105.555L451.432 105.77C451.813 105.815 451.966 106.286 451.684 106.547L450.345 107.785C450.23 107.892 450.179 108.05 450.209 108.203L450.565 109.992C450.64 110.369 450.239 110.66 449.904 110.473L448.312 109.582C448.176 109.505 448.009 109.505 447.873 109.582L446.281 110.473C445.946 110.66 445.545 110.369 445.62 109.992L445.975 108.203C446.006 108.05 445.954 107.892 445.84 107.785L444.5 106.547C444.219 106.286 444.372 105.815 444.753 105.77L446.564 105.555C446.72 105.537 446.854 105.439 446.92 105.297L447.684 103.64Z" fill="#F4C06D"/>
<path d="M457.744 103.64C457.905 103.292 458.401 103.292 458.562 103.64L459.326 105.297C459.391 105.439 459.526 105.537 459.681 105.555L461.492 105.77C461.874 105.815 462.027 106.286 461.745 106.547L460.406 107.785C460.291 107.892 460.24 108.05 460.27 108.203L460.625 109.992C460.7 110.369 460.299 110.66 459.964 110.473L458.373 109.582C458.236 109.505 458.07 109.505 457.933 109.582L456.342 110.473C456.007 110.66 455.606 110.369 455.68 109.992L456.036 108.203C456.066 108.05 456.015 107.892 455.9 107.785L454.561 106.547C454.279 106.286 454.432 105.815 454.814 105.77L456.625 105.555C456.78 105.537 456.915 105.439 456.98 105.297L457.744 103.64Z" fill="#F4C06D"/>
<path d="M469.74 105.555C469.584 105.537 469.45 105.439 469.384 105.297L468.62 103.64C468.459 103.292 467.964 103.292 467.803 103.64L467.039 105.297C466.973 105.439 466.839 105.537 466.683 105.555L464.872 105.77C464.491 105.815 464.338 106.286 464.62 106.547L465.959 107.785C466.074 107.892 466.125 108.05 466.095 108.203L465.739 109.992C465.664 110.369 466.065 110.66 466.4 110.473L467.992 109.582C468.128 109.505 468.295 109.505 468.431 109.582L470.023 110.473C470.358 110.66 470.759 110.369 470.684 109.992L470.329 108.203C470.298 108.05 470.35 107.892 470.464 107.785L471.804 106.547C472.085 106.286 471.932 105.815 471.551 105.77L469.74 105.555Z" fill="#F4C06D"/>
<path d="M477.863 103.64C478.024 103.292 478.52 103.292 478.681 103.64L479.445 105.297C479.51 105.439 479.645 105.537 479.8 105.555L481.612 105.77C481.993 105.815 482.146 106.286 481.864 106.547L480.525 107.785C480.41 107.892 480.359 108.05 480.389 108.203L480.745 109.992C480.819 110.369 480.419 110.66 480.083 110.473L478.492 109.582C478.355 109.505 478.189 109.505 478.052 109.582L476.461 110.473C476.126 110.66 475.725 110.369 475.8 109.992L476.155 108.203C476.186 108.05 476.134 107.892 476.019 107.785L474.68 106.547C474.398 106.286 474.551 105.815 474.933 105.77L476.744 105.555C476.899 105.537 477.034 105.439 477.1 105.297L477.863 103.64Z" fill="#F4C06D"/>
<path d="M489.859 105.555C489.703 105.537 489.569 105.439 489.503 105.297L488.739 103.64C488.579 103.292 488.083 103.292 487.922 103.64L487.158 105.297C487.093 105.439 486.958 105.537 486.803 105.555L484.991 105.77C484.61 105.815 484.457 106.286 484.739 106.547L486.078 107.785C486.193 107.892 486.244 108.05 486.214 108.203L485.858 109.992C485.783 110.369 486.184 110.66 486.519 110.473L488.111 109.582C488.247 109.505 488.414 109.505 488.551 109.582L490.142 110.473C490.477 110.66 490.878 110.369 490.803 109.992L490.448 108.203C490.417 108.05 490.469 107.892 490.584 107.785L491.923 106.547C492.205 106.286 492.051 105.815 491.67 105.77L489.859 105.555Z" fill="#F4C06D"/>
<rect x="435.451" y="68.0742" width="71.4725" height="26.7245" rx="3.73875" fill="#ECE8FC"/>
<path d="M419.484 76.7153C419.484 74.6505 421.158 72.9766 423.223 72.9766H498.126C500.191 72.9766 501.865 74.6505 501.865 76.7153V95.9623C501.865 98.0272 500.191 99.7011 498.126 99.7011H423.223C421.158 99.7011 419.484 98.0272 419.484 95.9623V76.7153Z" fill="#6A40AD"/>
<ellipse cx="421.786" cy="86.3386" rx="16.4166" ry="16.4168" fill="#1C1348"/>
<path fill-rule="evenodd" clip-rule="evenodd" d="M424.162 84.7278C426.02 83.8401 427.303 81.9436 427.303 79.7473C427.303 76.7004 424.833 74.2305 421.786 74.2305C418.74 74.2305 416.27 76.7004 416.27 79.7473C416.27 81.9433 417.553 83.8395 419.41 84.7274C415.145 85.7892 411.984 89.6448 411.984 94.2385H431.586C431.586 89.6453 428.427 85.7901 424.162 84.7278Z" fill="white"/>
<rect x="443.785" y="81.7383" width="51.2793" height="1.44336" fill="white"/>
<rect x="443.785" y="85.6172" width="51.2793" height="1.44336" fill="white"/>
<rect x="443.785" y="89.4941" width="51.2793" height="1.44336" fill="white"/>
<path d="M256.234 236.182H158.569C149.572 236.182 142.279 243.475 142.279 252.471C142.279 261.468 149.572 268.761 158.569 268.761H256.234V265.223L245.497 264.639V240.276L256.234 239.529V236.182Z" fill="#6A40AD"/>
<path d="M232.21 268.342H140.018C128.33 268.342 118.855 277.816 118.855 289.504C118.855 301.191 128.33 310.666 140.018 310.666H232.21V306.002C229.477 302.198 227.503 296.111 227.503 288.46C227.503 282.34 230.641 275.302 232.21 272.548V268.342Z" fill="#8461C8"/>
<path d="M232.21 272.968V272.543H140.388C131.02 272.543 123.426 280.137 123.426 289.505C123.426 298.872 131.02 306.466 140.388 306.466H232.21V306.04C229.233 301.236 227.515 295.571 227.515 289.504C227.515 283.437 229.233 277.772 232.21 272.968Z" fill="#9F8EF0"/>
<path d="M256.231 239.779V239.453L159.607 239.453C152.417 239.453 146.588 245.282 146.588 252.472C146.588 259.663 152.417 265.492 159.607 265.492H256.231V265.165C253.946 261.477 252.627 257.129 252.627 252.472C252.627 247.815 253.946 243.467 256.231 239.779Z" fill="#9F8EF0"/>
<g filter="url(#filter1_d_7461_44996)">
<rect width="7.03183" height="9.25653" transform="matrix(-0.530439 -0.847731 0.847707 -0.530453 397.521 160.48)" fill="#9F8EF0"/>
<path d="M406.665 156.285C406.33 156.498 405.886 156.397 405.675 156.06L401.294 149.058C401.085 148.724 401.185 148.284 401.518 148.074L415.932 138.95C418.2 137.53 421.19 138.219 422.61 140.487C424.029 142.756 423.341 145.746 421.072 147.166L406.665 156.285Z" fill="#9065B0"/>
<path d="M401.826 149.555L394.2 154.327L395.357 156.532C396.336 156.398 399.378 155.49 403.72 152.937L401.826 149.555Z" fill="#9F8EF0"/>
<path d="M401.826 149.555L394.2 154.327L395.357 156.532C396.336 156.398 399.378 155.49 403.72 152.937L401.826 149.555Z" fill="black" fill-opacity="0.2"/>
<path d="M416.545 138.671L401.521 148.072C401.186 148.282 401.084 148.723 401.294 149.058L403.485 152.559C403.903 153.112 406.013 153.437 411.11 150.323C417.442 146.453 423.687 143.691 422.464 140.469C422.449 140.431 422.43 140.393 422.407 140.358C420.976 138.135 418.106 137.694 416.545 138.671Z" fill="#9065B0"/>
<path d="M416.545 138.671L401.521 148.072C401.186 148.282 401.084 148.723 401.294 149.058L403.485 152.559C403.903 153.112 406.013 153.437 411.11 150.323C417.442 146.453 423.687 143.691 422.464 140.469C422.449 140.431 422.43 140.393 422.407 140.358C420.976 138.135 418.106 137.694 416.545 138.671Z" fill="black" fill-opacity="0.2"/>
<path fill-rule="evenodd" clip-rule="evenodd" d="M400.875 184.466C405.33 165.113 393.253 145.812 373.9 141.357C354.547 136.902 335.247 148.978 330.792 168.331C326.336 187.684 338.413 206.985 357.766 211.44C377.119 215.895 396.42 203.819 400.875 184.466ZM395.13 183.143C398.856 166.961 388.757 150.822 372.575 147.097C356.393 143.372 340.254 153.47 336.529 169.652C332.803 185.835 342.902 201.973 359.084 205.699C375.267 209.424 391.405 199.326 395.13 183.143Z" fill="#9065B0"/>
<circle cx="365.829" cy="176.398" r="30.0673" transform="rotate(-77.0356 365.829 176.398)" fill="#D9D9D9" fill-opacity="0.2"/>
<path d="M352.487 153.507C339.948 160.747 335.652 176.78 342.891 189.319C343.162 189.789 343.446 190.246 343.741 190.692C344.305 191.545 345.495 191.64 346.243 190.943C346.89 190.338 346.972 189.347 346.491 188.604C346.278 188.275 346.072 187.939 345.874 187.596C339.586 176.705 343.318 162.779 354.209 156.491C354.499 156.324 354.791 156.163 355.085 156.01C355.881 155.595 356.297 154.672 356.011 153.821C355.69 152.865 354.62 152.379 353.721 152.837C353.307 153.048 352.895 153.272 352.487 153.507Z" fill="white"/>
</g>
<path d="M419.875 146.424C428.051 152.631 449.694 163.951 470.855 159.576C474.579 158.275 476.939 158.738 477.653 159.132L479.279 167.333C474.821 168.417 467.442 173.894 473.589 187.135C481.274 203.685 485.116 208.266 484.303 216.689C483.49 225.112 478.244 254.149 497.011 253.706" stroke="#333333"/>
<circle cx="509.42" cy="249.414" r="14.0781" fill="black" fill-opacity="0.87"/>
<path d="M418.916 147.826C416.024 147.168 414.47 144.016 415.708 141.321V141.321C416.593 139.395 418.665 138.306 420.754 138.67L476.481 148.373C480.177 149.017 482.432 152.802 481.238 156.358V156.358C480.236 159.341 477.138 161.08 474.07 160.382L418.916 147.826Z" fill="#ECE8FC"/>
<path d="M469.958 160.392C468.604 156.369 470.968 152.047 475.086 151.017V151.017C478.675 150.12 482.366 152.06 483.661 155.525L519.111 250.336C520.739 254.689 518.762 259.563 514.563 261.552V261.552C509.722 263.845 503.966 261.399 502.257 256.323L469.958 160.392Z" fill="#E9D6F8"/>
<path d="M499.511 252.802C502.718 247.974 509.126 246.471 514.146 249.369V249.369C519.2 252.286 521.088 258.647 518.446 263.85L505.589 289.166C502.42 295.406 494.784 297.882 488.557 294.688V294.688C481.847 291.247 479.625 282.733 483.798 276.452L499.511 252.802Z" fill="#9F8EF0"/>
<circle cx="419.875" cy="143.123" r="2.07812" fill="white"/>
<circle cx="476.998" cy="158.104" r="3.50195" fill="white"/>
<circle cx="480.84" cy="168.791" r="1.64258" fill="black" fill-opacity="0.87"/>
<circle cx="508.004" cy="245.945" r="1.41602" fill="black" fill-opacity="0.87"/>
<circle cx="424.037" cy="144.182" r="1.05859" fill="black" fill-opacity="0.87"/>
<circle cx="509.42" cy="256.627" r="5.38281" fill="#F4C06D"/>
<path d="M446.848 292.432C446.848 284.147 453.563 277.432 461.848 277.432H517.639C525.923 277.432 532.639 284.147 532.639 292.432V317.877H446.848V292.432Z" fill="#1C1348"/>
<path d="M424.82 322.426C424.82 315.792 430.198 310.414 436.832 310.414H540.943V322.426H424.82V322.426Z" fill="#6A40AD"/>
<circle cx="457.229" cy="286.857" r="2.64258" fill="#F4C06D"/>
<circle cx="465.307" cy="286.857" r="2.64258" fill="#D9D9D9"/>
<circle cx="523.498" cy="286.857" r="2.64258" fill="#F4C06D"/>
<defs>
<filter id="filter0_d_7461_44996" x="222.641" y="75.2246" width="169.637" height="211.479" filterUnits="userSpaceOnUse" color-interpolation-filters="sRGB">
<feFlood flood-opacity="0" result="BackgroundImageFix"/>
<feColorMatrix in="SourceAlpha" type="matrix" values="0 0 0 0 0 0 0 0 0 0 0 0 0 0 0 0 0 0 127 0" result="hardAlpha"/>
<feOffset dy="4"/>
<feGaussianBlur stdDeviation="4"/>
<feComposite in2="hardAlpha" operator="out"/>
<feColorMatrix type="matrix" values="0 0 0 0 0 0 0 0 0 0 0 0 0 0 0 0 0 0 0.04 0"/>
<feBlend mode="normal" in2="BackgroundImageFix" result="effect1_dropShadow_7461_44996"/>
<feBlend mode="normal" in="SourceGraphic" in2="effect1_dropShadow_7461_44996" result="shape"/>
</filter>
<filter id="filter1_d_7461_44996" x="321.867" y="134.18" width="109.48" height="90.1855" filterUnits="userSpaceOnUse" color-interpolation-filters="sRGB">
<feFlood flood-opacity="0" result="BackgroundImageFix"/>
<feColorMatrix in="SourceAlpha" type="matrix" values="0 0 0 0 0 0 0 0 0 0 0 0 0 0 0 0 0 0 127 0" result="hardAlpha"/>
<feOffset dy="4"/>
<feGaussianBlur stdDeviation="4"/>
<feComposite in2="hardAlpha" operator="out"/>
<feColorMatrix type="matrix" values="0 0 0 0 0 0 0 0 0 0 0 0 0 0 0 0 0 0 0.16 0"/>
<feBlend mode="normal" in2="BackgroundImageFix" result="effect1_dropShadow_7461_44996"/>
<feBlend mode="normal" in="SourceGraphic" in2="effect1_dropShadow_7461_44996" result="shape"/>
</filter>
<linearGradient id="paint0_linear_7461_44996" x1="330.107" y1="312.332" x2="285.953" y2="312.075" gradientUnits="userSpaceOnUse">
<stop stop-opacity="0.44"/>
<stop offset="0.535" stop-opacity="0.35975"/>
<stop offset="1" stop-opacity="0.29"/>
</linearGradient>
</defs>
</svg>
