<svg width="753" height="424" viewBox="0 0 753 424" fill="none" xmlns="http://www.w3.org/2000/svg">
<path d="M385.395 408.548C350.337 408.249 315.248 401.12 277.825 388.819C240.401 376.518 200.399 359.185 175.434 328.932C150.327 298.434 140.399 255.261 145.437 214.859C150.475 174.456 170.622 137.068 195.775 107.222C221.031 76.9905 251.05 54.4427 283.62 38.5728C315.945 22.844 350.577 13.9343 384.799 15.0427C418.879 15.9066 452.201 27.3155 484.875 42.6848C517.69 58.2986 549.65 78.6442 570.862 107.478C592.215 136.556 602.819 174.123 607.272 214.588C611.724 255.054 609.989 297.789 589.812 328.348C569.391 359.048 530.246 377.083 493.179 389.681C455.97 402.035 420.698 408.706 385.395 408.548Z" fill="#FBF7FF"/>
<path fill-rule="evenodd" clip-rule="evenodd" d="M221.05 214.56C221.05 213.455 220.154 212.56 219.05 212.56H188.175C187.071 212.56 186.175 213.455 186.175 214.56V225.454C186.175 226.381 185.537 227.184 184.639 227.416C177.788 229.19 171.314 231.901 165.363 235.406C164.564 235.877 163.545 235.76 162.89 235.104L155.185 227.399C154.404 226.618 153.137 226.618 152.356 227.399L130.525 249.231C129.744 250.012 129.744 251.279 130.525 252.06L138.229 259.764C138.884 260.419 139.001 261.438 138.53 262.237C135.025 268.189 132.312 274.663 130.538 281.515C130.306 282.413 129.503 283.051 128.576 283.051H117.691C116.587 283.051 115.691 283.946 115.691 285.051V315.925C115.691 317.03 116.587 317.925 117.691 317.925H128.576C129.503 317.925 130.306 318.563 130.538 319.461C132.313 326.315 135.027 332.792 138.534 338.744C139.005 339.543 138.888 340.562 138.232 341.218L130.53 348.92C129.749 349.701 129.749 350.968 130.53 351.749L152.362 373.58C153.143 374.361 154.409 374.361 155.19 373.58L162.896 365.875C163.552 365.219 164.57 365.103 165.369 365.573C171.319 369.076 177.79 371.786 184.639 373.559C185.537 373.792 186.175 374.595 186.175 375.522V386.419C186.175 387.524 187.071 388.419 188.175 388.419H219.05C220.154 388.419 221.05 387.524 221.05 386.419V375.52C221.05 374.593 221.688 373.79 222.586 373.558C229.436 371.784 235.909 369.072 241.86 365.567C242.659 365.096 243.678 365.213 244.333 365.868L252.048 373.583C252.829 374.364 254.095 374.364 254.876 373.583L276.708 351.751C277.489 350.97 277.489 349.703 276.708 348.922L268.993 341.207C268.337 340.552 268.22 339.533 268.691 338.734C272.195 332.784 274.906 326.311 276.68 319.461C276.912 318.563 277.715 317.925 278.642 317.925H289.551C290.655 317.925 291.551 317.03 291.551 315.925V285.051C291.551 283.946 290.655 283.051 289.551 283.051H278.643C277.715 283.051 276.912 282.413 276.68 281.515C274.907 274.667 272.197 268.196 268.694 262.248C268.224 261.449 268.341 260.43 268.996 259.775L276.713 252.057C277.494 251.276 277.494 250.01 276.713 249.229L254.882 227.397C254.101 226.616 252.834 226.616 252.053 227.397L244.34 235.111C243.684 235.767 242.665 235.883 241.866 235.412C235.914 231.906 229.439 229.193 222.586 227.418C221.688 227.185 221.05 226.383 221.05 225.455V214.56ZM203.609 352.509C232.337 352.509 255.626 329.22 255.626 300.492C255.626 271.764 232.337 248.476 203.609 248.476C174.881 248.476 151.593 271.764 151.593 300.492C151.593 329.22 174.881 352.509 203.609 352.509Z" fill="#F4EBFC"/>
<path fill-rule="evenodd" clip-rule="evenodd" d="M310.812 353.69C310.812 352.586 309.917 351.69 308.812 351.69H301.206C300.102 351.69 299.206 352.586 299.206 353.69V354.925C299.206 355.853 298.566 356.65 297.679 356.92C296.116 357.396 294.618 358.021 293.201 358.777C292.382 359.213 291.366 359.102 290.71 358.446L289.836 357.572C289.055 356.791 287.789 356.791 287.008 357.572L281.63 362.951C280.849 363.732 280.849 364.998 281.63 365.779L282.503 366.652C283.159 367.308 283.27 368.325 282.834 369.143C282.077 370.56 281.453 372.059 280.976 373.622C280.706 374.509 279.909 375.149 278.982 375.149H277.75C276.645 375.149 275.75 376.045 275.75 377.149V384.755C275.75 385.859 276.645 386.755 277.75 386.755H278.982C279.909 386.755 280.706 387.395 280.977 388.282C281.453 389.846 282.078 391.344 282.835 392.762C283.271 393.58 283.16 394.597 282.504 395.253L281.631 396.126C280.85 396.907 280.85 398.173 281.631 398.954L287.009 404.333C287.79 405.114 289.057 405.114 289.838 404.333L290.712 403.458C291.368 402.802 292.384 402.691 293.203 403.127C294.619 403.883 296.117 404.507 297.679 404.983C298.566 405.253 299.206 406.051 299.206 406.978V408.214C299.206 409.318 300.102 410.214 301.206 410.214H308.812C309.917 410.214 310.812 409.318 310.812 408.214V406.977C310.812 406.049 311.452 405.252 312.339 404.982C313.902 404.506 315.399 403.881 316.816 403.125C317.634 402.689 318.651 402.8 319.307 403.456L320.184 404.333C320.965 405.114 322.231 405.114 323.012 404.333L328.39 398.955C329.171 398.174 329.171 396.907 328.39 396.126L327.513 395.249C326.857 394.593 326.746 393.576 327.182 392.758C327.938 391.342 328.562 389.844 329.038 388.282C329.308 387.395 330.106 386.755 331.033 386.755H332.273C333.378 386.755 334.273 385.859 334.273 384.755V377.149C334.273 376.045 333.378 375.149 332.273 375.149H331.033C330.106 375.149 329.308 374.509 329.038 373.622C328.562 372.06 327.939 370.563 327.183 369.147C326.747 368.329 326.858 367.312 327.514 366.657L328.392 365.779C329.173 364.998 329.173 363.731 328.392 362.95L323.014 357.572C322.232 356.791 320.966 356.791 320.185 357.572L319.309 358.449C318.653 359.104 317.636 359.216 316.818 358.779C315.401 358.022 313.902 357.398 312.339 356.921C311.452 356.651 310.812 355.854 310.812 354.927V353.69ZM305.008 398.264C314.568 398.264 322.318 390.514 322.318 380.953C322.318 371.393 314.568 363.643 305.008 363.643C295.447 363.643 287.697 371.393 287.697 380.953C287.697 390.514 295.447 398.264 305.008 398.264Z" fill="#F4EBFC"/>
<g filter="url(#filter0_d_7461_45108)">
<rect width="156.034" height="206.812" rx="10.136" transform="matrix(0.965924 -0.258825 0.258814 0.965927 193.777 117.886)" fill="white"/>
<ellipse cx="31.4077" cy="31.4082" rx="31.4077" ry="31.4082" transform="matrix(0.965924 -0.258825 0.258814 0.965927 242.715 120.455)" fill="#B9C2D3" fill-opacity="0.4"/>
<rect width="48.1671" height="6.05783" transform="matrix(0.965924 -0.258825 0.258814 0.965927 267.641 184.987)" fill="#D9D9D9" fill-opacity="0.4"/>
<rect width="47.9516" height="1.79803" transform="matrix(0.965924 -0.258825 0.258814 0.965927 248.783 250.115)" fill="#D9D9D9" fill-opacity="0.3"/>
<rect width="47.9516" height="1.79803" transform="matrix(0.965924 -0.258825 0.258814 0.965927 252.711 264.781)" fill="#D9D9D9" fill-opacity="0.3"/>
<rect width="47.9516" height="1.79803" transform="matrix(0.965924 -0.258825 0.258814 0.965927 256.637 279.445)" fill="#D9D9D9" fill-opacity="0.3"/>
<rect width="98.8912" height="2.5241" transform="matrix(0.965924 -0.258825 0.258814 0.965927 238.098 211.617)" fill="#D9D9D9" fill-opacity="0.3"/>
<rect width="98.8912" height="2.5241" transform="matrix(0.965924 -0.258825 0.258814 0.965927 240.787 221.645)" fill="#D9D9D9" fill-opacity="0.3"/>
<rect width="98.8912" height="2.5241" transform="matrix(0.965924 -0.258825 0.258814 0.965927 243.463 231.665)" fill="#D9D9D9" fill-opacity="0.3"/>
<rect width="59.6865" height="2.5241" transform="matrix(0.965924 -0.258825 0.258814 0.965927 306.965 236.515)" fill="#D9D9D9"/>
<rect width="59.6865" height="2.5241" transform="matrix(0.965924 -0.258825 0.258814 0.965927 309.461 245.838)" fill="#D9D9D9"/>
<rect width="59.6865" height="2.5241" transform="matrix(0.965924 -0.258825 0.258814 0.965927 312.158 255.861)" fill="#D9D9D9"/>
<rect width="28.0275" height="2.5241" transform="matrix(0.965924 -0.258825 0.258814 0.965927 345.414 257.687)" fill="#D9D9D9"/>
<path fill-rule="evenodd" clip-rule="evenodd" d="M285.461 139.34C288.219 136.978 289.539 133.162 288.536 129.42C287.145 124.227 281.807 121.145 276.614 122.537C271.421 123.928 268.339 129.266 269.731 134.459C270.733 138.2 273.783 140.845 277.351 141.512C270.569 145.27 266.945 153.283 269.043 161.111L302.451 152.159C300.354 144.333 293.212 139.206 285.461 139.34Z" fill="white"/>
</g>
<g filter="url(#filter1_d_7461_45108)">
<rect width="156.034" height="206.812" rx="10.136" transform="matrix(0.965924 0.258824 -0.258814 0.965927 408.061 105.208)" fill="white"/>
</g>
<ellipse cx="31.4077" cy="31.4082" rx="31.4077" ry="31.4082" transform="matrix(0.965924 0.258824 -0.258814 0.965927 449.158 131.899)" fill="#B9C2D3" fill-opacity="0.6"/>
<path fill-rule="evenodd" clip-rule="evenodd" d="M475.242 169.17C478.815 168.506 481.869 165.859 482.872 162.115C484.264 156.922 481.182 151.584 475.989 150.193C470.796 148.801 465.458 151.883 464.067 157.076C463.064 160.819 464.385 164.637 467.146 166.999C459.39 166.859 452.242 171.988 450.144 179.818L483.552 188.77C485.65 180.941 482.025 172.928 475.242 169.17Z" fill="white"/>
<rect width="48.1671" height="6.05783" transform="matrix(0.965924 0.258824 -0.258814 0.965927 438.479 200.251)" fill="#D9D9D9" fill-opacity="0.4"/>
<rect width="31.2015" height="2.5241" transform="matrix(0.965924 0.258824 -0.258814 0.965927 398.236 208.561)" fill="#D9D9D9"/>
<rect width="31.2015" height="2.5241" transform="matrix(0.965924 0.258824 -0.258814 0.965927 395.555 218.584)" fill="#D9D9D9"/>
<rect width="31.2015" height="2.5241" transform="matrix(0.965924 0.258824 -0.258814 0.965927 392.865 228.606)" fill="#D9D9D9"/>
<rect width="47.9516" height="5.53212" transform="matrix(0.965924 0.258824 -0.258814 0.965927 389.592 247.223)" fill="#D9D9D9"/>
<rect width="47.9516" height="5.53212" transform="matrix(0.965924 0.258824 -0.258814 0.965927 385.65 261.888)" fill="#D9D9D9"/>
<rect width="47.9516" height="5.53212" transform="matrix(0.965924 0.258824 -0.258814 0.965927 381.732 276.552)" fill="#D9D9D9"/>
<rect width="84.3353" height="2.5241" transform="matrix(0.965924 0.258824 -0.258814 0.965927 433.695 218.064)" fill="#D9D9D9" fill-opacity="0.4"/>
<rect width="84.3353" height="2.5241" transform="matrix(0.965924 0.258824 -0.258814 0.965927 431.02 228.09)" fill="#D9D9D9" fill-opacity="0.4"/>
<rect width="84.3353" height="2.5241" transform="matrix(0.965924 0.258824 -0.258814 0.965927 428.336 238.113)" fill="#D9D9D9" fill-opacity="0.4"/>
<rect width="59.6865" height="2.5241" transform="matrix(0.965924 0.258824 -0.258814 0.965927 446.768 264.537)" fill="#D9D9D9" fill-opacity="0.4"/>
<rect width="59.6865" height="2.5241" transform="matrix(0.965924 0.258824 -0.258814 0.965927 444.271 273.86)" fill="#D9D9D9" fill-opacity="0.4"/>
<rect width="59.6865" height="2.5241" transform="matrix(0.965924 0.258824 -0.258814 0.965927 441.596 283.886)" fill="#D9D9D9" fill-opacity="0.4"/>
<rect width="28.0275" height="2.5241" transform="matrix(0.965924 0.258824 -0.258814 0.965927 469.484 302.103)" fill="#D9D9D9" fill-opacity="0.4"/>
<g filter="url(#filter2_d_7461_45108)">
<rect x="292.227" y="135.308" width="156.034" height="206.812" rx="10.136" fill="white"/>
<ellipse cx="370.244" cy="181.865" rx="31.4077" ry="31.4083" fill="#B9C2D3"/>
<path fill-rule="evenodd" clip-rule="evenodd" d="M375.051 182C378.329 180.434 380.594 177.088 380.594 173.212C380.594 167.836 376.236 163.478 370.859 163.478C365.483 163.478 361.125 167.836 361.125 173.212C361.125 177.087 363.389 180.433 366.666 181.999C359.139 183.872 353.562 190.676 353.562 198.782H388.15C388.15 190.677 382.575 183.875 375.051 182Z" fill="white"/>
<rect x="346.207" y="219.241" width="48.1671" height="6.05784" rx="3.02892" fill="#9F8EF0"/>
<rect x="309.484" y="237.68" width="31.2015" height="2.5241" fill="#D9D9D9"/>
<rect x="309.486" y="248.062" width="31.2015" height="2.5241" fill="#D9D9D9"/>
<rect x="309.484" y="258.435" width="31.2015" height="2.5241" fill="#D9D9D9"/>
<rect x="311.119" y="277.267" width="47.9515" height="5.53212" fill="#D9D9D9"/>
<rect x="311.119" y="292.449" width="47.9515" height="5.53212" fill="#D9D9D9"/>
<rect x="311.119" y="307.631" width="47.9515" height="5.53212" fill="#D9D9D9"/>
<rect x="346.205" y="237.68" width="84.3353" height="2.5241" fill="#D9D9D9"/>
<rect x="346.207" y="248.062" width="84.3353" height="2.5241" fill="#D9D9D9"/>
<rect x="346.205" y="258.434" width="84.3353" height="2.5241" fill="#D9D9D9"/>
<rect x="370.85" y="279.186" width="59.6864" height="2.5241" fill="#D9D9D9"/>
<rect x="370.85" y="288.839" width="59.6864" height="2.5241" fill="#D9D9D9"/>
<rect x="370.85" y="299.218" width="59.6864" height="2.5241" fill="#D9D9D9"/>
<rect x="402.512" y="309.594" width="28.0274" height="2.5241" fill="#D9D9D9"/>
</g>
<g filter="url(#filter3_d_7461_45108)">
<path d="M437.332 356.189L455.512 338.009L451.902 334.399L437.332 348.969L429.983 341.619L426.373 345.229L437.332 356.189ZM422.892 368.566C421.473 368.566 420.259 368.061 419.249 367.051C418.239 366.041 417.734 364.827 417.734 363.409V327.308C417.734 325.889 418.239 324.675 419.249 323.665C420.259 322.655 421.473 322.15 422.892 322.15H458.993C460.411 322.15 461.625 322.655 462.635 323.665C463.645 324.675 464.15 325.889 464.15 327.308V363.409C464.15 364.827 463.645 366.041 462.635 367.051C461.625 368.061 460.411 368.566 458.993 368.566H422.892Z" fill="#34A853"/>
</g>
<path d="M455.512 338.01L437.332 356.189L426.373 345.23L429.983 341.62L437.332 348.969L451.902 334.399L455.512 338.01Z" fill="white"/>
<g filter="url(#filter4_d_7461_45108)">
<rect width="11.9873" height="15.7797" transform="matrix(0.70712 -0.707103 0.707111 0.707093 555.377 321.91)" fill="#9F8EF0"/>
<rect width="11.9873" height="15.7797" transform="matrix(0.70712 -0.707103 0.707111 0.707093 555.377 321.91)" fill="black" fill-opacity="0.2"/>
<path d="M565.484 335.14C565.202 334.861 565.201 334.406 565.481 334.125L576.151 323.456C576.43 323.177 576.881 323.176 577.161 323.453L598.187 344.262C601.413 347.487 601.413 352.718 598.187 355.943C594.961 359.169 589.731 359.169 586.505 355.944L565.484 335.14Z" fill="#9065B0"/>
<path d="M565.484 335.14C565.202 334.861 565.201 334.406 565.481 334.125L576.151 323.456C576.43 323.177 576.881 323.176 577.161 323.453L598.187 344.262C601.413 347.487 601.413 352.718 598.187 355.943C594.961 359.169 589.731 359.169 586.505 355.944L565.484 335.14Z" fill="black" fill-opacity="0.2"/>
<path d="M575.174 324.885L564.33 314.042L561.109 316.807C561.707 318.381 564.377 323.087 570.279 329.324L575.174 324.885Z" fill="#9F8EF0"/>
<path d="M598.882 345.173L577.161 323.453C576.882 323.173 576.428 323.173 576.149 323.453L570.814 328.788C570.056 329.693 570.322 333.323 577.445 340.6C586.318 349.663 593.308 359.005 598.194 355.669C598.228 355.645 598.261 355.618 598.29 355.588C601.468 352.361 601.108 347.399 598.882 345.173Z" fill="#9065B0"/>
<path fill-rule="evenodd" clip-rule="evenodd" d="M516.81 336.653C550.664 336.653 578.109 309.208 578.109 275.354C578.109 241.5 550.664 214.056 516.81 214.056C482.956 214.056 455.512 241.5 455.512 275.354C455.512 309.208 482.956 336.653 516.81 336.653ZM516.81 326.604C545.118 326.604 568.066 303.655 568.066 275.348C568.066 247.04 545.118 224.091 516.81 224.091C488.502 224.091 465.554 247.04 465.554 275.348C465.554 303.655 488.502 326.604 516.81 326.604Z" fill="#9065B0"/>
<circle cx="516.811" cy="275.349" r="51.2561" fill="#D9D9D9" fill-opacity="0.2"/>
<path d="M517.899 232.814C493.215 232.814 473.207 252.823 473.207 277.506C473.207 278.43 473.235 279.347 473.29 280.257C473.396 281.997 475.072 283.151 476.771 282.759C478.242 282.419 479.208 281.025 479.131 279.518C479.097 278.851 479.08 278.18 479.08 277.505C479.08 256.066 496.458 238.687 517.897 238.687C518.467 238.687 519.035 238.699 519.599 238.724C521.129 238.79 522.53 237.782 522.833 236.282C523.174 234.596 522.009 232.968 520.292 232.877C519.499 232.836 518.701 232.814 517.899 232.814Z" fill="white"/>
</g>
<path d="M589.484 223.505C589.484 223.505 587.958 215.724 584.897 212.336C581.837 208.948 574.807 207.259 574.807 207.259C574.807 207.259 581.837 205.57 584.897 202.183C587.958 198.795 589.484 191.014 589.484 191.014C589.484 191.014 591.01 198.795 594.071 202.183C597.132 205.57 604.161 207.259 604.161 207.259C604.161 207.259 597.132 208.948 594.071 212.336C591.01 215.724 589.484 223.505 589.484 223.505Z" fill="#7601D3" fill-opacity="0.32"/>
<path d="M631.415 176.034C631.415 176.034 630.589 171.824 628.933 169.99C627.277 168.157 623.473 167.243 623.473 167.243C623.473 167.243 627.277 166.329 628.933 164.496C630.589 162.663 631.415 158.452 631.415 158.452C631.415 158.452 632.241 162.663 633.897 164.496C635.553 166.329 639.357 167.243 639.357 167.243C639.357 167.243 635.553 168.157 633.897 169.99C632.241 171.824 631.415 176.034 631.415 176.034Z" fill="#7601D3" fill-opacity="0.08"/>
<path d="M235.521 86.291C235.521 86.291 234.695 82.0804 233.039 80.2472C231.382 78.4139 227.578 77.5 227.578 77.5C227.578 77.5 231.382 76.5861 233.039 74.7528C234.695 72.9195 235.521 68.709 235.521 68.709C235.521 68.709 236.346 72.9195 238.002 74.7528C239.659 76.5861 243.463 77.5 243.463 77.5C243.463 77.5 239.659 78.4139 238.002 80.2472C236.346 82.0804 235.521 86.291 235.521 86.291Z" fill="#7601D3" fill-opacity="0.08"/>
<path d="M102.458 275.309C102.458 275.309 101.632 271.098 99.976 269.265C98.3197 267.431 94.5156 266.518 94.5156 266.518C94.5156 266.518 98.3197 265.604 99.976 263.77C101.632 261.937 102.458 257.727 102.458 257.727C102.458 257.727 103.284 261.937 104.94 263.77C106.596 265.604 110.4 266.518 110.4 266.518C110.4 266.518 106.596 267.431 104.94 269.265C103.284 271.098 102.458 275.309 102.458 275.309Z" fill="#7601D3" fill-opacity="0.08"/>
<path d="M520.423 373.771C520.423 373.771 519.597 369.561 517.941 367.728C516.285 365.894 512.48 364.98 512.48 364.98C512.48 364.98 516.285 364.067 517.941 362.233C519.597 360.4 520.423 356.189 520.423 356.189C520.423 356.189 521.249 360.4 522.905 362.233C524.561 364.067 528.365 364.98 528.365 364.98C528.365 364.98 524.561 365.894 522.905 367.728C521.249 369.561 520.423 373.771 520.423 373.771Z" fill="#7601D3" fill-opacity="0.16"/>
<defs>
<filter id="filter0_d_7461_45108" x="190.053" y="77.3715" width="211.691" height="247.601" filterUnits="userSpaceOnUse" color-interpolation-filters="sRGB">
<feFlood flood-opacity="0" result="BackgroundImageFix"/>
<feColorMatrix in="SourceAlpha" type="matrix" values="0 0 0 0 0 0 0 0 0 0 0 0 0 0 0 0 0 0 127 0" result="hardAlpha"/>
<feOffset dy="3.59607"/>
<feGaussianBlur stdDeviation="3"/>
<feComposite in2="hardAlpha" operator="out"/>
<feColorMatrix type="matrix" values="0 0 0 0 0 0 0 0 0 0 0 0 0 0 0 0 0 0 0.03 0"/>
<feBlend mode="normal" in2="BackgroundImageFix" result="effect1_dropShadow_7461_45108"/>
<feBlend mode="normal" in="SourceGraphic" in2="effect1_dropShadow_7461_45108" result="shape"/>
</filter>
<filter id="filter1_d_7461_45108" x="350.811" y="105.079" width="211.691" height="247.6" filterUnits="userSpaceOnUse" color-interpolation-filters="sRGB">
<feFlood flood-opacity="0" result="BackgroundImageFix"/>
<feColorMatrix in="SourceAlpha" type="matrix" values="0 0 0 0 0 0 0 0 0 0 0 0 0 0 0 0 0 0 127 0" result="hardAlpha"/>
<feOffset dy="3.59607"/>
<feGaussianBlur stdDeviation="3"/>
<feComposite in2="hardAlpha" operator="out"/>
<feColorMatrix type="matrix" values="0 0 0 0 0 0 0 0 0 0 0 0 0 0 0 0 0 0 0.05 0"/>
<feBlend mode="normal" in2="BackgroundImageFix" result="effect1_dropShadow_7461_45108"/>
<feBlend mode="normal" in="SourceGraphic" in2="effect1_dropShadow_7461_45108" result="shape"/>
</filter>
<filter id="filter2_d_7461_45108" x="276.459" y="124.609" width="187.567" height="238.347" filterUnits="userSpaceOnUse" color-interpolation-filters="sRGB">
<feFlood flood-opacity="0" result="BackgroundImageFix"/>
<feColorMatrix in="SourceAlpha" type="matrix" values="0 0 0 0 0 0 0 0 0 0 0 0 0 0 0 0 0 0 127 0" result="hardAlpha"/>
<feOffset dy="5.06799"/>
<feGaussianBlur stdDeviation="7.88353"/>
<feComposite in2="hardAlpha" operator="out"/>
<feColorMatrix type="matrix" values="0 0 0 0 0 0 0 0 0 0 0 0 0 0 0 0 0 0 0.05 0"/>
<feBlend mode="normal" in2="BackgroundImageFix" result="effect1_dropShadow_7461_45108"/>
<feBlend mode="normal" in="SourceGraphic" in2="effect1_dropShadow_7461_45108" result="shape"/>
</filter>
<filter id="filter3_d_7461_45108" x="413.734" y="322.15" width="54.416" height="54.416" filterUnits="userSpaceOnUse" color-interpolation-filters="sRGB">
<feFlood flood-opacity="0" result="BackgroundImageFix"/>
<feColorMatrix in="SourceAlpha" type="matrix" values="0 0 0 0 0 0 0 0 0 0 0 0 0 0 0 0 0 0 127 0" result="hardAlpha"/>
<feOffset dy="4"/>
<feGaussianBlur stdDeviation="2"/>
<feComposite in2="hardAlpha" operator="out"/>
<feColorMatrix type="matrix" values="0 0 0 0 0 0 0 0 0 0 0 0 0 0 0 0 0 0 0.04 0"/>
<feBlend mode="normal" in2="BackgroundImageFix" result="effect1_dropShadow_7461_45108"/>
<feBlend mode="normal" in="SourceGraphic" in2="effect1_dropShadow_7461_45108" result="shape"/>
</filter>
<filter id="filter4_d_7461_45108" x="447.512" y="210.056" width="161.102" height="160.308" filterUnits="userSpaceOnUse" color-interpolation-filters="sRGB">
<feFlood flood-opacity="0" result="BackgroundImageFix"/>
<feColorMatrix in="SourceAlpha" type="matrix" values="0 0 0 0 0 0 0 0 0 0 0 0 0 0 0 0 0 0 127 0" result="hardAlpha"/>
<feOffset dy="4"/>
<feGaussianBlur stdDeviation="4"/>
<feComposite in2="hardAlpha" operator="out"/>
<feColorMatrix type="matrix" values="0 0 0 0 0 0 0 0 0 0 0 0 0 0 0 0 0 0 0.16 0"/>
<feBlend mode="normal" in2="BackgroundImageFix" result="effect1_dropShadow_7461_45108"/>
<feBlend mode="normal" in="SourceGraphic" in2="effect1_dropShadow_7461_45108" result="shape"/>
</filter>
</defs>
</svg>
