<svg width="245" height="80" viewBox="0 0 245 80" fill="none" xmlns="http://www.w3.org/2000/svg">
<path d="M82.4094 35.1742C83.4821 34.1015 84.9571 33.6992 86.4321 33.6992H86.5662C89.1139 33.6992 90.3207 34.3697 90.4548 35.5765V36.7833H90.9912C90.9912 36.1129 91.1253 35.4424 91.2593 34.772C91.3934 34.3697 91.3934 34.1015 91.5275 33.6992L90.1866 33.297C89.5162 33.1629 88.9798 33.0288 88.3094 32.8947C87.6389 32.7606 86.9685 32.7606 86.4321 32.7606C84.2867 32.6265 82.2753 33.4311 80.6662 34.772C79.1912 36.1129 78.3867 37.9901 78.3867 40.0015C78.2526 43.2196 80.398 46.1696 83.4821 46.9742C84.4208 47.2424 85.3594 47.3764 86.298 47.3764C87.1026 47.3764 87.9071 47.2424 88.7116 47.1083C89.5162 46.9742 90.3207 46.5719 90.9912 46.3037L91.3934 45.3651L91.2593 45.0969C90.723 45.4992 90.1866 45.7674 89.6503 45.9015C88.7116 46.1696 87.773 46.3037 86.8344 46.3037C83.348 46.4378 80.5321 43.756 80.398 40.2697C80.398 40.0015 80.398 39.8674 80.398 39.5992C80.398 38.6606 80.5321 37.7219 80.9344 36.7833C81.3367 36.247 81.873 35.5765 82.4094 35.1742Z" fill="#B32226"/>
<path d="M101.316 38.9367C100.377 37.9981 99.1703 37.5958 97.9635 37.5958C95.2817 37.4617 93.0021 39.6072 92.868 42.1549C92.868 42.289 92.868 42.4231 92.868 42.5571C92.868 43.3617 93.0021 44.1662 93.2703 44.8367C93.6726 45.7753 94.343 46.5799 95.2817 46.9821C95.9521 47.2503 96.6226 47.3844 97.1589 47.3844C98.0976 47.3844 99.0362 47.1162 99.8407 46.7139C100.645 46.3117 101.316 45.6412 101.718 44.8367C102.12 44.0321 102.388 43.0935 102.388 42.1549C102.657 41.0822 102.254 39.8753 101.316 38.9367ZM99.9748 46.0435C99.5725 46.5799 98.768 46.9821 98.0976 46.9821C97.4271 46.9821 96.8907 46.7139 96.4885 46.4458C95.9521 45.9094 95.5498 45.373 95.2817 44.5685C95.0135 43.764 94.8794 42.9594 94.8794 42.0208C94.7453 41.0822 95.0135 40.0094 95.6839 39.2049C96.2203 38.6685 96.8907 38.2663 97.6953 38.2663C99.0362 38.2663 100.109 39.0708 100.511 40.4117C100.779 41.3503 101.048 42.289 100.913 43.0935C100.913 44.1662 100.645 45.239 99.9748 46.0435Z" fill="#B32226"/>
<path d="M107.081 38.2671C106.813 38.5353 106.679 38.6694 106.545 38.9376C106.277 39.2057 106.009 39.608 105.741 40.0103C105.741 38.8035 105.741 38.133 105.741 37.9989V37.8648H105.606C105.472 37.8648 105.472 37.8648 105.338 37.9989H105.204C104.266 38.4012 103.327 38.5353 102.388 38.6694V39.2057C102.791 39.2057 103.327 39.2057 103.729 39.2057C103.863 39.2057 103.863 39.3398 103.997 39.3398C103.997 39.608 104.131 39.7421 104.131 40.0103C104.131 40.6807 104.131 41.2171 104.131 41.7535C104.131 41.7535 104.131 42.9603 104.131 45.6421C104.131 45.9103 104.131 46.3125 103.863 46.5807C103.729 46.5807 103.729 46.7148 103.595 46.7148H102.388V47.2512C103.863 47.2512 104.802 47.2512 104.802 47.2512C106.277 47.2512 107.484 47.2512 107.752 47.2512V46.7148C107.216 46.7148 106.679 46.5807 106.143 46.5807C106.009 46.5807 105.875 46.4466 105.875 46.1784C105.875 45.9102 105.875 45.6421 105.875 45.3739C105.875 44.1671 105.875 43.3625 105.875 42.9603V42.0216C105.875 41.3512 106.009 40.6807 106.411 40.1444C106.679 39.7421 107.216 39.4739 107.752 39.4739C108.288 39.4739 108.959 39.8762 109.093 40.4126H109.495C109.495 39.7421 109.495 38.9376 109.629 38.133V37.9989C108.825 37.4626 107.752 37.5967 107.081 38.2671Z" fill="#B32226"/>
<path d="M120.089 46.1687C120.089 45.6323 120.089 44.9619 120.089 44.4255V42.6824C120.089 41.3415 120.089 40.5369 119.955 40.1346C119.821 39.196 119.285 38.3915 118.346 37.9892C117.407 37.5869 116.201 37.5869 115.262 37.9892L113.385 39.5983C113.385 38.6597 113.385 38.1233 113.385 37.9892V37.8551H113.251C113.116 37.8551 113.116 37.8551 112.982 37.9892C112.044 38.3915 111.105 38.5256 110.032 38.6597V39.196H110.166C110.569 39.196 110.971 39.196 111.373 39.196C111.507 39.196 111.507 39.196 111.641 39.3301C111.776 39.5983 111.776 39.7324 111.776 40.0006C111.776 40.671 111.776 41.2074 111.776 41.7437C111.776 41.7437 111.776 44.6937 111.776 45.7664C111.776 46.0346 111.776 46.3028 111.641 46.4369C111.507 46.571 111.373 46.7051 111.105 46.7051H110.032V47.2414H112.714C113.787 47.2414 114.591 47.2414 114.994 47.2414V46.7051H113.921C113.787 46.7051 113.653 46.571 113.519 46.4369C113.385 46.1687 113.385 45.9005 113.385 45.7664C113.385 44.6937 113.385 41.7437 113.385 41.7437C113.385 41.2074 113.385 40.671 113.653 40.1346C113.921 39.7324 114.189 39.4642 114.457 39.3301C114.86 39.0619 115.262 38.9278 115.798 38.9278C116.737 38.7937 117.675 39.4642 118.078 40.4028C118.212 41.0733 118.212 41.7437 118.212 42.4142V44.1574C118.212 44.5596 118.212 45.6323 118.078 47.2414H119.821C120.491 47.2414 121.162 47.2414 121.43 47.2414V46.7051H120.357C120.357 46.7051 120.089 46.4369 120.089 46.1687Z" fill="#B32226"/>
<path d="M128.805 38.1262C128.135 37.7239 127.464 37.5898 126.794 37.5898C125.721 37.5898 124.782 37.9921 123.844 38.5285C123.576 38.7967 123.173 38.9307 122.905 39.1989C122.637 39.6012 122.369 40.0035 122.235 40.5398C121.966 41.2103 121.966 41.8807 121.966 42.5512C121.832 44.2944 122.771 45.9034 124.246 46.708C124.916 47.1102 125.855 47.2443 126.66 47.2443C127.464 47.2443 128.269 47.1102 128.939 46.708C129.341 46.5739 129.61 46.3057 130.012 46.1716L130.28 45.5012L130.146 45.3671C129.744 45.6353 129.207 45.9034 128.671 46.0375C126.794 46.708 124.782 45.9034 124.112 44.0262C123.844 43.4898 123.844 42.8194 123.844 42.283H127.062C127.732 42.283 128.537 42.283 129.207 42.1489C129.61 42.1489 130.146 42.0148 130.548 42.0148C130.548 41.7466 130.548 41.6125 130.548 41.3444C130.682 40.1376 130.012 38.9307 128.805 38.1262ZM128.671 41.7466C128.403 41.7466 127.866 41.7466 126.928 41.7466H126.794C125.721 41.7466 124.38 41.7466 123.844 41.6126C123.844 40.6739 123.978 39.7353 124.514 39.0648C124.916 38.5285 125.587 38.2603 126.257 38.2603C127.732 38.2603 128.537 39.1989 128.537 41.3444C128.805 41.4785 128.671 41.6125 128.671 41.7466Z" fill="#B32226"/>
<path d="M134.705 46.5717C134.437 46.3035 134.437 46.0353 134.437 45.633C134.437 45.4989 134.437 44.5603 134.437 42.8171V36.1126L134.571 32.6263V32.4922H134.437C134.437 32.4922 134.303 32.4922 134.169 32.4922C133.23 32.8945 132.157 33.1626 131.085 33.1626V33.699C131.487 33.699 132.023 33.699 132.425 33.699C132.56 33.699 132.56 33.8331 132.56 33.8331C132.694 34.2354 132.694 34.7717 132.694 35.174C132.694 36.3808 132.694 37.4535 132.694 38.5262V42.683C132.694 44.4262 132.694 45.3648 132.694 45.4989C132.694 45.7671 132.694 46.0353 132.56 46.1694C132.425 46.3035 132.291 46.4376 132.023 46.4376H131.085V46.9739C132.828 46.9739 133.498 46.9739 133.632 46.9739C134.839 46.9739 135.778 46.9739 136.046 46.9739V46.4376H134.973C134.839 46.7058 134.705 46.7058 134.705 46.5717Z" fill="#B32226"/>
<path d="M140.739 46.5717C140.471 46.3035 140.471 46.0353 140.471 45.633C140.471 45.4989 140.471 44.5603 140.471 42.8171V36.1126L140.605 32.6263V32.4922H140.471C140.337 32.4922 140.069 32.6263 139.934 32.6263C138.996 32.8945 138.057 33.1626 137.119 33.1626V33.699C137.521 33.699 138.057 33.699 138.459 33.699C138.594 33.699 138.594 33.8331 138.594 33.8331C138.728 34.2354 138.728 34.7717 138.728 35.174C138.728 36.3808 138.728 37.4535 138.728 38.5262V42.683C138.728 44.4262 138.728 45.3648 138.728 45.4989C138.728 45.7671 138.728 46.0353 138.594 46.1694C138.459 46.3035 138.325 46.4376 138.057 46.4376H137.119V46.9739C138.728 46.9739 139.398 46.9739 139.666 46.9739C140.739 46.9739 141.544 46.9739 142.08 46.9739V46.4376H141.007C140.873 46.7058 140.739 46.7058 140.739 46.5717Z" fill="#B32226"/>
<path d="M161.656 33.1562C160.047 33.1562 159.109 33.1562 158.84 33.1562H156.829V33.8267C157.231 33.8267 157.768 33.8267 158.17 33.9608C158.304 33.9608 158.438 34.0949 158.572 34.229C158.706 34.6312 158.706 34.8994 158.706 35.3017C158.706 36.1062 158.706 37.0449 158.706 37.9835V41.0676C158.84 42.2744 158.706 43.4812 158.304 44.5539C157.902 45.3585 157.231 45.8948 156.427 46.163C155.756 46.2971 155.086 46.4312 154.415 46.4312C153.343 46.4312 152.404 46.163 151.465 45.7607C151.063 45.4926 150.795 45.0903 150.527 44.688C150.259 43.7494 150.259 42.8107 150.259 41.8721V37.9835C150.259 36.2403 150.259 35.3017 150.259 35.1676C150.259 34.8994 150.259 34.4972 150.393 34.229C150.527 34.0949 150.527 34.0949 150.661 33.9608C151.063 33.8267 151.6 33.8267 152.002 33.8267V33.1562C150.527 33.1562 149.052 33.1562 148.784 33.1562C147.979 33.1562 147.175 33.1562 146.236 33.1562V33.8267C146.638 33.8267 147.175 33.8267 147.577 33.9608C147.711 33.9608 147.845 34.0949 147.979 34.229C148.113 34.6312 148.113 34.8994 148.113 35.3017C148.113 36.1062 148.113 37.0449 148.113 37.9835V42.4085C148.113 43.3471 148.113 44.1516 148.381 45.0903C148.516 45.4926 148.784 45.8948 149.186 46.2971C150.393 47.2357 152.002 47.7721 153.477 47.638C154.952 47.7721 156.427 47.3698 157.634 46.4312C158.17 46.0289 158.706 45.3585 158.84 44.688C159.109 43.6153 159.243 42.4085 159.243 41.3358V37.9835C159.243 36.2403 159.243 35.3017 159.377 35.1676C159.377 34.8994 159.377 34.4972 159.511 34.229C159.645 34.0949 159.779 34.0949 159.913 33.9608C160.315 33.8267 160.852 33.8267 161.254 33.8267V33.1562H161.656Z" fill="#B32226"/>
<path d="M170.909 46.1687C170.909 45.6323 170.909 44.9619 170.909 44.4255V42.6824C170.909 41.8778 170.909 41.0733 170.775 40.1346C170.641 39.196 170.105 38.3915 169.166 37.9892C168.228 37.5869 167.021 37.5869 166.082 37.9892L164.205 39.5983C164.205 38.6597 164.205 38.1233 164.205 37.9892V37.8551H164.071C163.937 37.8551 163.937 37.8551 163.803 37.9892C162.864 38.3915 161.925 38.6597 160.853 38.6597V39.196H160.987C161.389 39.196 161.791 39.196 162.194 39.196C162.328 39.196 162.328 39.3301 162.462 39.3301C162.596 39.5983 162.596 39.7324 162.596 40.0006C162.596 40.671 162.596 41.2074 162.596 41.7437C162.596 41.7437 162.596 44.6937 162.596 45.7664C162.596 46.0346 162.596 46.3028 162.462 46.4369C162.328 46.571 162.194 46.7051 161.925 46.7051H160.987V47.2414H163.669C164.875 47.2414 165.68 47.2414 165.814 47.2414V46.7051H164.741C164.607 46.7051 164.473 46.571 164.339 46.4369C164.205 46.1687 164.205 45.9005 164.205 45.7664C164.205 44.6937 164.205 41.7437 164.205 41.7437C164.205 41.2074 164.205 40.671 164.473 40.1346C164.607 39.7324 165.009 39.4642 165.278 39.3301C165.68 39.0619 166.082 38.9278 166.619 38.9278C167.557 38.7937 168.496 39.4642 168.764 40.4028C168.898 41.0733 168.898 41.7437 168.898 42.4142V44.1574C168.898 44.5596 168.898 45.6323 168.764 47.2414H170.641C171.446 47.2414 171.982 47.2414 172.25 47.2414V46.7051H171.178C171.044 46.7051 170.909 46.4369 170.909 46.1687Z" fill="#B32226"/>
<path d="M175.871 35.5751C176.541 35.5751 176.943 35.0388 176.943 34.5024C176.943 34.2342 176.809 33.966 176.675 33.6979C176.407 33.4297 176.139 33.4297 175.871 33.4297C175.2 33.4297 174.798 33.966 174.798 34.5024C174.798 34.7706 174.932 35.0388 175.066 35.307C175.334 35.441 175.603 35.5751 175.871 35.5751Z" fill="#B32226"/>
<path d="M177.077 46.5765C176.808 46.3083 176.808 46.0402 176.808 45.6379C176.808 45.5038 176.808 44.5652 176.808 42.822V41.0788C176.808 40.2743 176.808 39.2016 176.808 37.8607L176.54 37.7266C175.468 38.1288 174.395 38.5311 173.322 38.5311V39.0675C173.724 39.0675 174.261 39.0675 174.663 39.0675C174.797 39.0675 174.797 39.2016 174.931 39.3356C175.065 39.872 175.065 40.5425 175.065 41.0788V42.822C175.065 44.5652 175.065 45.6379 175.065 45.6379C175.065 45.9061 175.065 46.1742 174.931 46.3083C174.797 46.4424 174.663 46.5765 174.395 46.5765H173.456V47.1129C175.199 47.1129 175.87 47.1129 176.138 47.1129C177.211 47.1129 178.149 47.1129 178.552 47.1129V46.5765H177.479C177.345 46.7106 177.211 46.7106 177.077 46.5765Z" fill="#B32226"/>
<path d="M189.145 37.9805C187.805 37.9805 187.134 37.9805 186.866 37.9805H185.391V38.5168C185.793 38.5168 186.195 38.5168 186.598 38.6509C186.732 38.785 186.732 39.0532 186.732 39.1873C186.598 39.8577 186.33 40.3941 186.061 41.0645C185.525 42.2714 185.257 43.0759 185.123 43.3441L184.05 45.6236L183.111 43.3441L181.905 40.3941C181.77 39.9918 181.502 39.4555 181.502 39.0532C181.502 38.9191 181.636 38.785 181.636 38.785C182.039 38.6509 182.441 38.6509 182.843 38.6509V37.9805C181.502 37.9805 180.43 37.9805 180.161 37.9805H178.15V38.5168C178.418 38.5168 178.686 38.5168 178.955 38.5168C179.223 38.6509 179.491 38.9191 179.625 39.3214L182.575 46.0259C182.709 46.2941 182.843 46.6963 183.111 47.3668H184.184C185.123 45.0873 185.793 43.7463 185.927 43.3441L186.866 41.3327C187.536 39.9918 187.805 39.3214 187.939 39.1873C188.073 39.0532 188.207 38.785 188.341 38.6509C188.609 38.5168 188.877 38.5168 189.145 38.5168V37.9805Z" fill="#B32226"/>
<path d="M195.715 38.1262C195.045 37.7239 194.375 37.5898 193.704 37.5898C192.631 37.5898 191.693 37.9921 190.754 38.5285C190.486 38.7967 190.084 38.9307 189.815 39.1989C189.547 39.6012 189.279 40.0035 189.145 40.5398C188.877 41.2103 188.877 41.8807 188.877 42.5512C188.743 44.2944 189.681 45.9034 191.156 46.708C191.827 47.1102 192.765 47.2443 193.57 47.2443C194.375 47.2443 195.179 47.1102 195.85 46.708C196.252 46.5739 196.52 46.3057 196.922 46.1716L197.19 45.5012L197.056 45.3671C196.654 45.6353 196.118 45.9034 195.581 46.0375C193.704 46.708 191.693 45.7693 191.022 43.8921C190.754 43.3557 190.754 42.6853 190.888 42.1489H194.106C194.777 42.1489 195.581 42.1489 196.252 42.0148C196.654 42.0148 197.19 41.8807 197.593 41.8807C197.593 41.6125 197.593 41.4785 197.593 41.2103C197.593 40.1376 196.922 38.7967 195.715 38.1262ZM195.581 41.7466C195.313 41.7466 194.777 41.7466 193.838 41.7466H191.827H190.754C190.754 40.808 190.888 39.8694 191.425 39.1989C191.827 38.6626 192.497 38.3944 193.302 38.3944C194.777 38.3944 195.581 39.333 195.581 41.4785C195.581 41.4785 195.581 41.6125 195.581 41.7466Z" fill="#B32226"/>
<path d="M203.358 38.2671C203.09 38.5353 202.956 38.6694 202.822 38.9376C202.42 39.4739 202.152 39.7421 202.017 40.0103C202.017 38.6694 202.017 38.133 202.017 37.9989V37.8648H201.883C201.749 37.8648 201.481 37.9989 201.213 38.133C200.408 38.4012 199.47 38.5353 198.665 38.6694V39.2057C199.067 39.2057 199.604 39.2057 200.006 39.2057C200.14 39.2057 200.14 39.2057 200.274 39.3398C200.274 39.608 200.408 39.7421 200.408 40.0103C200.408 40.6807 200.408 41.2171 200.408 41.7535C200.408 41.7535 200.408 42.9603 200.408 45.6421C200.408 45.9103 200.408 46.3125 200.14 46.5807C200.006 46.5807 200.006 46.7148 199.872 46.7148H198.665V47.2512C200.14 47.2512 200.945 47.2512 201.079 47.2512C202.42 47.2512 203.492 47.2512 204.029 47.2512V46.7148C203.492 46.7148 202.956 46.5807 202.42 46.5807C202.286 46.5807 202.151 46.4466 202.151 46.1784C202.151 45.9102 202.151 45.6421 202.151 45.3739C202.151 44.1671 202.151 43.3625 202.151 42.9603V42.0216C202.151 41.3512 202.286 40.6807 202.688 40.1444C202.956 39.7421 203.492 39.4739 204.029 39.4739C204.565 39.4739 205.236 39.8762 205.37 40.4126H205.772C205.772 39.7421 205.772 38.9376 205.906 38.133V37.9989C205.101 37.4626 204.029 37.5967 203.358 38.2671Z" fill="#B32226"/>
<path d="M212.611 42.283C212.074 42.0148 211.538 41.8807 210.867 41.7466L209.258 41.3444C208.856 41.2103 208.32 40.9421 208.186 40.5398C208.052 40.2716 208.052 40.1376 208.052 39.8694C208.052 39.4671 208.186 38.9307 208.588 38.6626C208.99 38.2603 209.392 38.1262 209.929 38.1262C210.733 37.9921 211.538 38.3944 212.074 39.0648C212.208 39.1989 212.208 39.333 212.208 39.4671C212.208 39.7353 212.342 40.1376 212.342 40.4057H212.879C212.879 39.6012 212.879 38.9307 213.013 38.1262C212.611 37.9921 212.074 37.7239 211.672 37.7239C211.136 37.5898 210.599 37.5898 209.929 37.5898C209.392 37.5898 208.856 37.7239 208.32 37.9921C207.247 38.3944 206.577 39.333 206.577 40.5398C206.577 41.2103 206.845 41.8807 207.247 42.283C207.515 42.5512 207.783 42.6853 208.186 42.8194C208.454 42.9535 208.99 43.0875 209.795 43.2216C210.331 43.3557 210.867 43.4898 211.404 43.758C211.94 44.0262 212.208 44.4284 212.208 44.9648C212.208 45.5012 211.94 46.0375 211.538 46.4398C211.002 46.8421 210.465 46.9762 209.929 46.9762C209.661 46.9762 209.258 46.9762 208.99 46.9762C208.588 46.9762 208.186 46.708 207.783 46.4398C207.515 46.1716 207.247 45.6353 207.247 45.233C207.247 44.9648 207.247 44.5625 207.247 44.2944H206.711C206.711 45.233 206.711 45.7693 206.711 46.0375C206.711 46.5739 206.577 46.9762 206.577 47.1102C206.577 47.1102 206.577 47.1103 206.577 47.2443C206.845 47.3784 207.113 47.3784 207.381 47.5125C208.186 47.6466 208.856 47.7807 209.661 47.7807C210.733 47.7807 211.806 47.5125 212.611 46.8421C213.281 46.3057 213.683 45.3671 213.683 44.5625C213.683 43.4898 213.281 42.6853 212.611 42.283Z" fill="#B32226"/>
<path d="M218.511 46.5765C218.243 46.3083 218.243 46.0402 218.243 45.6379C218.243 45.5038 218.243 44.5652 218.243 42.822V41.0788C218.243 40.2743 218.243 39.2016 218.243 37.8607L217.975 37.7266C216.902 38.1288 215.829 38.5311 214.756 38.5311V39.0675C215.159 39.0675 215.695 39.0675 216.097 39.0675C216.231 39.0675 216.231 39.2016 216.366 39.3356C216.5 39.872 216.5 40.5425 216.5 41.0788V42.822C216.5 44.5652 216.5 45.6379 216.5 45.6379C216.5 45.9061 216.5 46.1742 216.366 46.3083C216.231 46.4424 216.097 46.5765 215.829 46.5765H214.891V47.1129H217.572C218.779 47.1129 219.718 47.1129 219.986 47.1129V46.5765H218.913C218.779 46.7106 218.645 46.7106 218.511 46.5765Z" fill="#B32226"/>
<path d="M217.975 35.1647C218.243 34.8965 218.243 34.6283 218.243 34.3601C218.243 34.092 218.109 33.8238 217.975 33.5556C217.572 33.1533 216.902 33.1533 216.366 33.5556C215.963 33.9579 215.963 34.6283 216.366 35.1647C216.902 35.567 217.572 35.567 217.975 35.1647Z" fill="#B32226"/>
<path d="M223.473 39.3364H226.02L226.154 38.5319H226.02C224.679 38.5319 224.143 38.5319 223.875 38.5319H223.339C223.473 36.6546 223.473 35.4478 223.607 34.9114L223.339 34.7773C222.802 35.0455 222.266 35.3137 221.73 35.5819V38.5319C221.193 38.8 220.657 38.9341 220.255 39.2023V39.6046C221.327 39.6046 221.73 39.6046 221.73 39.6046C221.73 39.6046 221.73 43.8955 221.73 44.1637C221.73 44.7 221.73 45.2364 221.73 45.6387C221.73 46.0409 221.864 46.3091 221.998 46.7114C222.266 47.1136 222.534 47.3818 222.936 47.65C223.205 47.7841 223.473 47.7841 223.741 47.7841C224.277 47.7841 224.68 47.7841 225.216 47.5159C225.484 47.2477 225.752 46.9796 226.154 46.7114L226.02 46.175C225.886 46.175 225.618 46.3091 225.484 46.3091H225.35C225.082 46.3091 224.948 46.3091 224.679 46.3091H224.545C224.143 46.3091 223.741 46.175 223.473 45.7727C223.339 45.6387 223.339 45.5046 223.339 45.2364C223.339 44.7 223.339 44.0296 223.339 43.4932L223.473 39.3364Z" fill="#B32226"/>
<path d="M237.015 38.785C237.284 38.6509 237.552 38.5168 237.82 38.5168V37.9805C236.613 38.1146 235.272 38.1146 233.931 37.9805V38.5168C234.334 38.5168 234.736 38.6509 235.138 38.785C235.272 38.9191 235.406 39.1873 235.272 39.3214C235.138 39.5896 234.87 40.3941 234.334 41.735C233.797 43.0759 233.395 43.8804 233.261 44.4168L232.725 45.6236C232.188 44.5509 231.115 41.8691 231.115 41.8691C230.847 41.3327 230.579 40.5282 230.311 39.8577C230.177 39.5896 230.177 39.4555 230.177 39.1873C230.177 39.0532 230.311 38.9191 230.445 38.785C230.847 38.6509 231.25 38.6509 231.652 38.6509V37.9805C230.579 37.9805 229.238 37.9805 229.104 37.9805C228.434 37.9805 227.629 37.9805 226.959 37.9805V38.5168C227.227 38.5168 227.629 38.6509 227.897 38.6509C228.031 38.785 228.165 38.9191 228.3 39.1873C228.568 39.8577 228.97 40.6623 229.506 41.8691L231.115 45.7577C231.384 46.5622 231.652 47.2327 231.92 47.7691C231.652 48.4395 231.384 49.244 230.981 49.9145C230.847 50.3168 230.579 50.5849 230.445 50.8531C230.177 51.2554 229.775 51.3895 229.238 51.3895H228.97H228.836C228.568 51.2554 228.434 51.1213 228.3 50.9872H228.031L227.495 52.4622C227.897 52.7304 228.3 52.8645 228.702 52.7304C229.64 52.7304 230.445 52.3281 230.981 51.6577C231.384 51.1213 231.652 50.4509 232.054 49.7804L234.334 44.4168C235.406 42.1373 236.077 40.6623 236.479 39.9918C236.345 39.5896 236.613 39.1873 237.015 38.785Z" fill="#B32226"/>
<path d="M56.0801 23.5412C56.4584 23.2575 56.1746 22.8792 55.8909 22.5954L55.7017 22.4062L54.9451 23.1629L55.1342 23.3521C55.418 23.6358 55.7017 23.9196 56.0801 23.5412Z" fill="white"/>
<path d="M34.4208 40.9473L33.2859 41.0418C32.6238 41.1364 32.0563 41.1364 31.5834 41.231H30.0701C30.0701 42.366 30.0701 50.2163 30.0701 51.2567H31.1105C32.0563 51.2567 32.7184 51.1621 33.2859 51.0676C33.8534 50.973 34.5154 50.973 35.3667 50.973C35.6504 50.973 35.8396 50.973 36.1233 51.0676V41.1364C36.0287 41.1364 35.9342 41.0418 35.8396 41.0418C35.3667 40.9473 34.8938 40.9473 34.4208 40.9473ZM33.0021 42.5552C33.2859 42.5552 33.5696 42.5552 33.9479 42.4606L34.5154 42.366H34.8938V43.1227H34.5154H33.9479C33.5696 43.1227 33.2859 43.2172 33.0021 43.2172H31.2996V42.4606L33.0021 42.5552ZM34.7992 49.5542H34.5154L33.9479 49.6488C33.5696 49.6488 33.2859 49.7434 33.0021 49.7434H32.7184H31.2996V49.0813H32.7184H32.9075C33.1913 49.0813 33.475 49.0813 33.8534 48.9868L34.4208 48.8922H34.7992V49.5542ZM34.7992 47.3789H34.5154L33.9479 47.4734C33.5696 47.4734 33.2859 47.568 33.0021 47.568H32.813H31.2996V46.9059H32.813H33.0021C33.2859 46.9059 33.5696 46.9059 33.8534 46.8114L34.4208 46.7168H34.7992V47.3789ZM34.7992 45.2035H34.5154L33.9479 45.298C33.5696 45.298 33.2859 45.3926 33.0021 45.3926H31.2996V44.636H33.0021C33.2859 44.636 33.5696 44.636 33.9479 44.5414L34.5154 44.4468H34.8938L34.7992 45.2035Z" fill="white"/>
<path d="M36.6907 12.2871C21.3684 12.2871 8.97815 24.6774 8.97815 39.9997C8.97815 55.322 21.3684 67.7123 36.5962 67.7123C51.8239 67.7123 64.3088 55.322 64.3088 40.0943C64.3088 24.6774 51.9185 12.3817 36.6907 12.2871ZM63.1738 37.8243L61.5659 38.8647L63.2683 39.716V40.5672L60.8092 39.3376H59.2959V38.581L60.8092 38.4864L63.0792 36.9731L63.1738 37.8243ZM62.1334 32.244L62.89 35.176L62.3225 35.3652L62.0388 34.3248L58.7284 34.9868L58.5392 34.2302L61.755 33.4735L61.4713 32.4331L62.1334 32.244ZM61.3767 30.3523L57.7826 31.771L57.4988 31.0144L61.093 29.5011L61.3767 30.3523ZM57.8772 26.0015C58.4446 25.6232 59.2013 25.8124 59.4851 26.3799C59.4851 26.4744 59.5796 26.4744 59.5796 26.569C59.7688 26.8528 59.8634 27.1365 59.958 27.4203L59.3905 27.704C59.3905 27.4203 59.2959 27.1365 59.1067 26.9474C59.0121 26.6636 58.6338 26.569 58.4447 26.6636C58.4447 26.6636 58.4446 26.6636 58.3501 26.6636C57.7826 26.9474 58.823 28.2715 57.7826 28.9336C57.2151 29.3119 56.4584 29.0282 56.0801 28.4607C56.0801 28.3661 55.9855 28.3661 55.9855 28.2715C55.7963 27.9878 55.7018 27.704 55.6072 27.3257L56.1747 27.0419C56.1747 27.3257 56.2693 27.6094 56.3638 27.8932C56.4584 28.1769 56.8368 28.3661 57.1205 28.2715C57.8772 27.8932 56.8368 26.569 57.8772 26.0015ZM56.2693 22.1237C56.8368 22.7857 57.4988 23.4478 56.6476 24.2045C56.2693 24.4882 55.7963 24.4882 55.418 24.2045C55.5126 24.3936 55.5126 24.5828 55.418 24.772L54.6614 26.2853L54.0939 25.6232L54.7559 24.4882C54.9451 24.2991 54.9451 24.0153 54.7559 23.8261L54.5668 23.637L53.3372 24.6774L52.8643 24.1099L55.7964 21.5562L56.2693 22.1237ZM53.9047 19.7591L53.5264 20.232L52.3914 19.2862L51.8239 20.0429L52.8643 20.8941L52.486 21.367L51.4456 20.5158L50.6889 21.367L51.9185 22.3128L51.5402 22.7857L49.7431 21.367L52.1076 18.3404L53.9047 19.7591ZM47.0948 15.5029L47.8514 15.8812L47.3785 19.097L49.6485 16.8271L50.216 17.1108L47.3785 20.0429L46.4327 19.5699L47.0948 15.5029ZM44.3519 14.5571L45.014 14.7462L43.879 18.5295L43.1223 18.3404L44.3519 14.5571ZM38.7716 13.5167L39.7174 13.6113L40.7578 16.7325L41.2307 13.8004L41.9873 13.895L41.4199 17.7729L40.474 17.6783L39.4336 14.5571L39.0553 17.4891L38.2986 17.3945L38.7716 13.5167ZM33.7587 13.6113L33.9479 15.8812C34.0424 16.5433 34.2316 16.9216 34.7991 16.9216C35.3666 16.9216 35.5558 16.4487 35.5558 15.7867L35.3666 13.5167L36.1232 13.4221L36.3124 15.8812C36.5016 16.6379 36.0287 17.3 35.272 17.4891C35.1774 17.4891 34.9883 17.4891 34.8937 17.4891C34.137 17.6783 33.4749 17.2054 33.2858 16.5433C33.2858 16.4487 33.2858 16.2596 33.2858 16.165L33.0966 13.7058L33.7587 13.6113ZM27.5163 15.1246L28.6513 18.2458L30.07 17.7729L30.2591 18.3404L28.0838 19.097L26.7596 15.4083L27.5163 15.1246ZM23.5438 17.0162L25.1517 19.8537L26.4759 19.097L26.7596 19.6645L24.6788 20.7995L22.7872 17.3945L23.5438 17.0162ZM20.8009 18.7187L21.1793 19.1916L19.9497 20.1374L20.5172 20.8941L21.5576 20.0429L21.9359 20.5158L20.8955 21.367L21.5576 22.2182L22.6926 21.2724L23.0709 21.7453L21.463 23.2586L19.0039 20.1374L20.8009 18.7187ZM15.5989 23.7316L18.8147 24.4882L16.5447 22.5966L17.0176 22.0291L20.0443 24.4882L19.4768 25.1503L16.261 24.3936L18.531 26.2853L18.058 26.9474L15.0314 24.4882L15.5989 23.7316ZM12.7614 28.1769C13.1398 27.4203 13.6127 26.569 14.5585 27.0419C14.9368 27.2311 15.126 27.704 14.9368 28.1769C15.126 27.9878 15.3152 27.9878 15.5989 27.9878L17.2068 28.1769L16.8285 28.9336L15.5043 28.7444C15.2206 28.6498 15.0314 28.7444 14.9368 29.0282L14.8422 29.2173L16.1664 30.0686L15.7881 30.7306L12.3831 28.9336L12.7614 28.1769ZM10.8698 32.906C11.1535 31.9602 12.0994 31.3927 13.0452 31.5819C13.1398 31.5819 13.2343 31.6765 13.3289 31.6765C14.3693 31.8656 15.0314 32.906 14.7477 33.9464C14.5585 34.9868 13.5181 35.6489 12.4777 35.3652C12.3831 35.3652 12.2885 35.3652 12.2885 35.2706C11.3427 35.176 10.586 34.2302 10.7752 33.2844C10.7752 33.1898 10.7752 33.0006 10.8698 32.906ZM9.92397 37.8243C9.92397 37.5406 10.0186 37.2568 10.1131 36.9731L10.7752 37.0677C10.586 37.2568 10.4915 37.5406 10.4915 37.8243C10.3969 38.581 10.9644 39.1485 11.721 39.243H11.8156C12.5723 39.3376 13.2343 38.8647 13.3289 38.1081V38.0135C13.3289 37.7297 13.3289 37.446 13.2343 37.1622H13.8964C13.991 37.446 13.991 37.7297 13.991 38.0135C14.0856 39.0539 13.2343 39.9051 12.1939 39.9997C12.0994 39.9997 12.0048 39.9997 11.9102 39.9997C10.8698 40.0943 10.0186 39.243 9.92397 38.2026C9.92397 38.1081 9.92397 38.0135 9.92397 37.8243ZM10.7752 46.2421L14.5585 45.1071L15.126 47.1879L14.5585 47.3771L14.1802 46.053L13.2343 46.3367L13.6127 47.5663L12.9506 47.85L12.5723 46.6205L10.9644 47.0934L10.7752 46.2421ZM12.6669 51.8225C12.1939 50.9712 12.4777 49.8362 13.3289 49.3633C13.4235 49.2688 13.5181 49.2688 13.6127 49.2688C14.4639 48.6067 15.5989 48.8904 16.1664 49.7417C16.261 49.8363 16.261 49.9308 16.261 50.0254C16.7339 50.8767 16.4501 52.0116 15.5989 52.4846C15.5043 52.4846 15.4097 52.5791 15.3152 52.5791C14.4639 53.1466 13.3289 52.8629 12.7614 52.0116C12.7614 51.9171 12.7614 51.9171 12.6669 51.8225ZM15.8827 56.8353C15.3152 56.3624 15.2206 55.5112 15.7881 54.9437C15.8827 54.8491 15.9772 54.7545 16.0718 54.6599L18.058 53.1466L18.531 53.8087L16.7339 55.2274C16.1664 55.6058 15.9772 56.0787 16.3556 56.5516C16.7339 57.0245 17.2068 56.9299 17.6797 56.5516L19.4768 55.1329L19.9497 55.7949L18.058 57.3082C17.4905 57.8757 16.6393 57.8757 16.1664 57.3082C16.0718 57.1191 15.9772 56.9299 15.8827 56.8353ZM20.4226 61.2807L21.0847 58.0649L19.193 60.3349L18.6255 59.862L21.0847 56.8353L21.8413 57.4028L21.1793 60.6186L23.0709 58.3486L23.6384 58.8216L21.1793 61.8482L20.4226 61.2807ZM27.2325 63.0778C26.5704 64.4965 25.4355 64.3073 24.3951 63.8344L23.4492 63.3615L25.2463 59.862L26.1921 60.3349C27.1379 60.9024 27.9892 61.659 27.2325 63.0778ZM31.7725 63.0778L30.3537 62.6994L30.07 63.6453L31.3941 63.929L31.205 64.4965L29.8808 64.1182L29.5971 65.1586L31.1104 65.5369L30.9212 66.1044L28.6513 65.5369L29.6917 61.7536L31.9616 62.3211L31.7725 63.0778ZM34.5153 66.7665L33.4749 66.6719L33.6641 62.794L34.7045 62.8886C35.9341 62.9832 36.9745 63.4561 36.8799 64.9694C36.7853 66.4827 35.6503 66.7665 34.5153 66.7665ZM43.1223 66.0098L42.6494 65.1586L41.1361 65.4423L40.9469 66.3881L40.1903 66.5773L40.7578 62.4157L41.609 62.2265L43.9736 65.7261L43.1223 66.0098ZM45.1086 65.3477L44.8248 64.5911L45.5815 64.3073L45.8652 65.064L45.1086 65.3477ZM48.6081 63.8344L47.6623 64.3073L45.7706 60.9024L46.7165 60.4295C47.7569 59.862 48.8918 59.6728 49.6485 61.0915C50.4052 62.5103 49.6485 63.2669 48.6081 63.8344ZM51.2564 62.3211L50.7835 61.659L51.4456 61.1861L51.9185 61.8482L51.2564 62.3211ZM36.6907 61.7536C24.6788 61.7536 14.9368 52.0116 14.9368 39.9997C14.9368 27.9878 24.6788 18.2458 36.6907 18.2458C48.7027 18.2458 58.4447 27.9878 58.4447 39.9997C58.3501 52.0116 48.7027 61.7536 36.6907 61.7536ZM55.1343 59.1053L53.0535 56.9299L52.9589 57.7812L52.2968 57.6866L52.486 56.2678L52.9589 55.7949L55.7018 58.5378L55.1343 59.1053ZM57.9717 55.8895C57.688 56.457 57.0259 56.7408 56.4584 56.457C56.3638 56.457 56.3638 56.3624 56.2693 56.3624C55.8909 56.0787 55.7018 55.6058 55.8909 55.2274C55.5126 55.4166 55.1343 55.4166 54.7559 55.2274C54.283 54.8491 54.1884 54.187 54.5668 53.7141L54.6614 53.6195C54.9451 53.052 55.6072 52.8629 56.0801 53.052H56.1747C56.4584 53.3358 56.6476 53.7141 56.553 54.0924C56.9313 53.8087 57.4042 53.8087 57.7826 54.0924C58.2555 54.4708 58.4447 55.1329 58.0663 55.7003C58.0663 55.7949 58.0663 55.7949 57.9717 55.8895ZM60.5255 51.8225C60.0526 52.7683 59.1067 52.5791 58.3501 52.2008C57.5934 51.8225 56.553 50.8767 57.1205 49.7417C57.2151 49.4579 57.4042 49.2688 57.5934 49.0796L58.0663 49.4579C57.8772 49.6471 57.688 49.7417 57.5934 50.0254C57.4042 50.5929 57.688 51.1604 58.2555 51.3496C58.0663 51.0658 58.0663 50.7821 58.2555 50.4983C58.4447 49.9308 59.1067 49.6471 59.6742 49.9308C59.7688 49.9308 59.7688 50.0254 59.8634 50.0254C60.5255 50.2146 60.9038 50.9712 60.62 51.5387C60.62 51.6333 60.5255 51.7279 60.5255 51.8225ZM62.1334 47.6609C62.0388 47.9446 61.9442 48.2284 61.755 48.5121L61.093 48.3229C61.2821 48.1338 61.4713 47.85 61.5659 47.5663C61.755 47.1879 61.5659 46.8096 61.1875 46.6205C61.1875 46.6205 61.1875 46.6205 61.093 46.6205C60.7146 46.5259 60.2417 46.715 60.1471 47.0934C60.1471 47.0934 60.1471 47.1879 60.1471 47.2825C60.0525 47.4717 60.0526 47.7554 60.0526 47.9446L58.0663 47.2825L58.7284 45.1071L59.2959 45.2963L58.823 46.715L59.6742 46.9988C59.6742 46.9042 59.6742 46.8096 59.7688 46.6205C59.8634 45.9584 60.5255 45.5801 61.1875 45.6746C61.2821 45.6746 61.2821 45.6746 61.3767 45.7692C62.0388 45.9584 62.5117 46.715 62.3225 47.3771C62.2279 47.4717 62.2279 47.5663 62.1334 47.6609Z" fill="white"/>
<path d="M24.2058 43.8781C24.2058 51.823 33.1911 57.025 36.0286 58.5383V52.958C35.934 52.8634 35.8394 52.7688 35.7448 52.6742C35.6503 52.485 35.4611 52.3905 35.2719 52.3905C34.6099 52.3905 33.9478 52.3905 33.3803 52.485C32.8128 52.5796 32.0561 52.5796 31.1103 52.6742C30.1645 52.7688 29.4078 52.6742 29.3133 52.6742H28.6512V50.4988H27.327V48.7963H28.6512V47.0939H27.327V45.486H28.6512V43.4051H27.327V41.7972H28.6512V40.0002H31.4886C31.9616 40.0002 32.529 39.9056 33.0965 39.9056L34.2315 39.811C34.799 39.7164 35.3665 39.811 35.934 39.9056V38.2031H24.2058C24.2058 41.2298 24.2058 43.8781 24.2058 43.8781Z" fill="white"/>
<path d="M12.4777 34.5124C13.0452 34.7962 13.7072 34.7016 13.991 34.1341C14.2747 33.5666 14.1801 32.9045 13.6126 32.6208C13.4235 32.5262 13.2343 32.4316 13.0452 32.4316C12.4777 32.1479 11.721 32.4316 11.4373 32.9991V33.0937C11.3427 33.7558 11.721 34.4179 12.4777 34.5124Z" fill="white"/>
<path d="M14.0856 49.9312C13.4235 50.1204 13.0452 50.7824 13.2344 51.4445V51.5391C13.6127 52.1066 14.2748 52.2958 14.8423 52.012C14.8423 52.012 14.9368 52.012 14.9368 51.9174C15.5989 51.7283 15.9772 51.0662 15.6935 50.4041V50.3095C15.4098 49.742 14.6531 49.5529 14.0856 49.9312Z" fill="white"/>
<path d="M26.0029 60.9021L25.6246 60.7129L24.395 63.0774L24.7733 63.2666C25.4354 63.5504 26.2867 63.172 26.4758 62.4154C26.7596 61.9425 26.4758 61.2804 26.0029 60.9021Z" fill="white"/>
<path d="M14.2747 27.7985C13.8964 27.6093 13.6126 27.8931 13.4234 28.2714L13.3289 28.4606L14.2747 28.9335L14.3693 28.7443C14.5584 28.4606 14.653 27.9877 14.2747 27.7985Z" fill="white"/>
<path d="M47.1894 60.9019L46.811 61.091L48.0406 63.4556L48.4189 63.2664C49.081 62.8881 49.3648 62.1314 48.9864 61.4694C48.7027 60.8073 47.8514 60.5235 47.1894 60.9019Z" fill="white"/>
<path d="M41.4199 63.1738L41.1361 64.8763L42.2711 64.5926L41.4199 63.1738Z" fill="white"/>
<path d="M34.799 63.4551H34.3261L34.137 66.1034H34.6099C35.3665 66.1034 35.934 65.4413 35.934 64.6846C35.934 64.0226 35.4611 63.5497 34.799 63.4551Z" fill="white"/>
<path d="M55.2289 53.809C55.0397 53.9982 55.0397 54.2819 55.2289 54.5657C55.5127 54.6603 55.891 54.6603 56.0802 54.3765C56.1747 54.0928 56.0802 53.9036 55.891 53.7144C55.7018 53.5253 55.4181 53.6199 55.2289 53.809Z" fill="white"/>
<path d="M59.5796 50.7822C59.2958 50.5931 58.9175 50.5931 58.7283 50.8768C58.6337 51.1606 58.7283 51.5389 59.1067 51.6335H59.2012C59.485 51.8226 59.8633 51.7281 60.0525 51.5389C60.0525 51.5389 60.0525 51.5389 60.0525 51.4443C60.0525 51.2551 59.9579 50.8768 59.5796 50.7822Z" fill="white"/>
<path d="M49.1755 26.6621H24.2058C24.2058 27.3242 24.2058 32.2425 24.2058 36.6878H49.1755C49.1755 32.2425 49.1755 27.3242 49.1755 26.6621ZM34.6099 32.7154C34.5153 33.472 34.0424 34.1341 33.3803 34.5124C32.4345 35.1745 30.9211 36.0257 30.8266 36.0257L30.4482 36.2149L30.0699 36.0257C29.9753 36.0257 28.5566 35.1745 27.6108 34.5124C26.9487 34.1341 26.4758 33.472 26.3812 32.7154C26.3812 32.6208 26.3812 30.0671 26.3812 27.9863V27.3242H34.5153V27.9863C34.6099 32.6208 34.6099 32.7154 34.6099 32.7154ZM47.1893 32.7154C47.0947 33.472 46.6218 34.1341 45.9597 34.5124C45.0139 35.1745 43.5006 36.0257 43.406 36.0257L43.1223 36.2149L42.8385 36.0257C42.7439 36.0257 41.3252 35.1745 40.3794 34.5124C39.7173 34.1341 39.2444 33.472 39.0552 32.7154C39.0552 32.7154 39.0552 32.5262 39.0552 27.9863V27.3242H47.1893V27.9863C47.1893 31.0129 47.1893 32.6208 47.1893 32.7154Z" fill="white"/>
<path d="M56.553 54.9452C56.4584 55.2289 56.553 55.5127 56.7421 55.7018C57.0259 55.891 57.3096 55.7964 57.4988 55.6072C57.688 55.4181 57.688 55.0398 57.4988 54.8506C57.1205 54.6614 56.7421 54.6614 56.553 54.9452Z" fill="white"/>
<path d="M40.3794 28.6504C40.3794 29.1233 40.3794 29.6908 40.3794 30.1637V30.8258L42.6494 29.2179L43.0277 28.9341L45.7706 30.8258C45.7706 30.1637 45.7706 29.407 45.7706 28.745H40.3794V28.6504Z" fill="white"/>
<path d="M36.6906 19.5684C25.4353 19.5684 16.2609 28.7428 16.2609 39.9981C16.2609 51.2534 25.4353 60.4279 36.6906 60.4279C47.9459 60.4279 57.1204 51.2534 57.1204 39.9981C57.1204 28.6483 47.9459 19.5684 36.6906 19.5684ZM43.6897 56.0771C41.6089 57.685 39.3389 59.1037 36.9744 60.2387L36.6906 60.3333L36.4069 60.2387C33.9477 59.1037 31.6778 57.685 29.6915 56.0771C25.1516 52.483 22.787 48.2268 22.787 43.9706V25.2433H50.4996V44.1597C50.4996 48.3214 48.1351 52.483 43.6897 56.0771Z" fill="white"/>
<path d="M37.1637 38.0137V39.7162H37.2583C37.8258 39.6216 38.3933 39.6216 38.9608 39.6216L40.0957 39.7162C40.7578 39.8107 41.2307 39.8107 41.7036 39.8107H44.5411V41.9861H45.7707V43.594H44.5411V45.6748H45.7707V47.2827H44.5411V48.9852H45.7707V50.5931H44.5411V52.4848H43.879C43.879 52.4848 43.1224 52.4848 42.082 52.4848C41.0416 52.4848 40.5687 52.5793 39.9066 52.5793C39.2445 52.4848 38.5824 52.4848 38.0149 52.4848C37.8258 52.4848 37.6366 52.5793 37.542 52.7685C37.4474 52.8631 37.3529 52.9577 37.2583 53.0522V58.6326C40.0012 57.2139 49.2702 52.0118 49.2702 44.2561C49.2702 44.2561 49.2702 41.4186 49.2702 38.0137H37.1637Z" fill="white"/>
<path d="M43.1224 30.543L40.4741 32.4346C40.4741 32.5292 40.4741 32.5292 40.4741 32.5292C40.5687 32.8129 40.8525 33.0967 41.1362 33.2859C41.7037 33.7588 42.6495 34.3263 43.1224 34.61C43.5953 34.3263 44.5412 33.7588 45.2032 33.3804C45.487 33.1913 45.6761 33.0021 45.7707 32.7184V32.6238C45.7707 32.6238 45.7707 32.5292 45.7707 32.34L43.1224 30.543Z" fill="white"/>
<path d="M40.0011 41.1364L38.8661 40.9473C38.4877 40.9473 38.0148 40.9473 37.6365 40.9473C37.5419 40.9473 37.3528 41.0418 37.2582 41.1364V51.1621C37.5419 51.0676 37.8257 50.973 38.1094 50.973C38.9607 50.973 39.5282 51.0676 40.1902 51.0676C40.8523 51.0676 41.4198 51.1621 42.3656 51.2567H43.406C43.406 50.1217 43.406 42.2714 43.406 41.231H41.8927C41.2306 41.231 40.6631 41.1364 40.0011 41.1364ZM41.9873 49.838H40.2848C40.0011 49.838 39.7173 49.838 39.339 49.7434L38.7715 49.6488H38.4877V48.8922H38.8661L39.5282 48.9868C39.8119 48.9868 40.1902 49.0813 40.3794 49.0813H42.0819L41.9873 49.838ZM38.4877 46.7168H38.8661L39.5282 46.8114C39.8119 46.8114 40.1902 46.9059 40.3794 46.9059H41.1361H42.0819V47.6626H41.1361H40.3794C40.0956 47.6626 39.8119 47.6626 39.4336 47.568L38.8661 47.4734H38.6769L38.4877 46.7168ZM41.9873 45.4872H40.2848C40.0011 45.4872 39.7173 45.4872 39.339 45.3926L38.7715 45.298H38.4877V44.5414H38.8661L39.4336 44.636C39.8119 44.636 40.0956 44.7306 40.2848 44.7306H41.9873V45.4872ZM41.9873 43.3118H40.2848C40.0011 43.3118 39.7173 43.3118 39.339 43.2172L38.7715 43.1227H38.4877V42.366H38.8661L39.4336 42.4606C39.8119 42.4606 40.0956 42.5552 40.2848 42.5552H41.9873V43.3118Z" fill="white"/>
<path d="M33.2857 28.6504H27.8945V29.88H33.2857C33.2857 29.407 33.2857 29.0287 33.2857 28.6504Z" fill="white"/>
<path d="M27.8945 31.2031C27.8945 31.9598 27.8945 32.6219 27.8945 32.6219C27.9891 32.9056 28.2729 33.1894 28.5566 33.3785C29.2187 33.8514 30.0699 34.3243 30.5428 34.6081C31.0157 34.3243 31.9616 33.7568 32.6236 33.3785C32.9074 33.1894 33.0966 33.0002 33.1911 32.7164C33.1911 32.6219 33.1911 32.1489 33.1911 31.4869C33.1911 31.3923 33.1911 31.2977 33.1911 31.2977C33.2857 31.2031 27.8945 31.2031 27.8945 31.2031Z" fill="white"/>
<path d="M36.6907 10.9629C20.6117 10.9629 7.65393 23.9207 7.65393 39.9996C7.65393 56.0786 20.6117 69.0364 36.6907 69.0364C52.7697 69.0364 65.7274 56.0786 65.7274 39.9996C65.6328 23.9207 52.6751 10.9629 36.6907 10.9629ZM36.6907 67.6176C21.3684 67.6176 8.97808 55.2274 8.97808 39.9996C8.97808 24.7719 21.3684 12.287 36.6907 12.287C52.013 12.287 64.4033 24.6773 64.4033 39.9051C64.3087 55.2274 51.9184 67.6176 36.6907 67.6176Z" fill="#B32226"/>
<path d="M36.6906 18.1504C24.6786 18.1504 14.9366 27.8924 14.9366 39.9043C14.9366 51.9162 24.6786 61.6582 36.6906 61.6582C48.7025 61.6582 58.4445 51.9162 58.4445 39.9043C58.3499 27.9869 48.7025 18.245 36.6906 18.1504ZM36.6906 60.4286C25.4353 60.4286 16.2608 51.2542 16.2608 39.9989C16.2608 28.7436 25.3407 19.5691 36.6906 19.5691C48.0404 19.5691 57.1203 28.7436 57.1203 39.9989C57.1203 51.2542 47.9458 60.4286 36.6906 60.4286Z" fill="#B32226"/>
<path d="M33.002 43.2145C33.2858 43.2145 33.5695 43.2145 33.9478 43.1199H34.5153H34.7991V42.3633H34.4208L33.8533 42.4579C33.4749 42.4579 33.1912 42.5524 32.9074 42.5524H31.205V43.3091L33.002 43.2145Z" fill="#B32226"/>
<path d="M33.8532 48.9841C33.4748 48.9841 33.1911 49.0787 32.9073 49.0787H32.7182H31.2994V49.7407H32.8128H33.0019C33.2857 49.7407 33.5694 49.7407 33.9477 49.6462L34.5152 49.5516H34.799V48.7949H34.4207L33.8532 48.9841Z" fill="#B32226"/>
<path d="M33.8532 46.8094C33.4748 46.8094 33.1911 46.904 33.0019 46.904H32.8128H31.2994V47.6607H32.8128H33.0019C33.2857 47.6607 33.5694 47.6607 33.9477 47.5661L34.5152 47.4715H34.799V46.7148H34.4207L33.8532 46.8094Z" fill="#B32226"/>
<path d="M33.8533 44.6336C33.4749 44.6336 33.1912 44.7282 32.9074 44.7282H31.205V45.4849H32.9074C33.1912 45.4849 33.4749 45.4849 33.8533 45.3903L34.4208 45.2957H34.7045V44.5391H34.4208L33.8533 44.6336Z" fill="#B32226"/>
<path d="M38.7715 47.4715L39.339 47.5661C39.7174 47.5661 40.0011 47.6607 40.2849 47.6607H41.0415H41.9873V46.904H41.0415H40.2849C40.0011 46.904 39.7174 46.904 39.4336 46.8094L38.8661 46.7148H38.4878V47.4715H38.7715Z" fill="#B32226"/>
<path d="M39.4336 42.4579L38.8661 42.3633H38.4878V43.1199H38.7715L39.339 43.2145C39.7174 43.2145 40.0011 43.3091 40.2849 43.3091H41.9873V42.647H40.2849C40.0957 42.5524 39.8119 42.4579 39.4336 42.4579Z" fill="#B32226"/>
<path d="M39.4336 48.9833L38.8661 48.8887H38.4878V49.6453H38.7715L39.339 49.7399C39.7174 49.7399 40.0011 49.8345 40.2849 49.8345H41.9873V49.0778H40.2849C40.0957 49.0778 39.8119 48.9833 39.4336 48.9833Z" fill="#B32226"/>
<path d="M49.8376 25.2441H22.7871V43.8768C22.7871 48.2276 25.1517 52.3892 29.597 55.9834C31.6778 57.6858 33.9478 59.01 36.3124 60.145L36.5961 60.2396L36.8799 60.145C39.2444 59.01 41.5144 57.5913 43.5952 55.9834C48.0406 52.3892 50.4051 48.3222 50.4051 44.1606V25.2441H49.8376ZM36.0286 51.1597C35.8395 51.0651 35.5557 51.0651 35.272 51.0651C34.4207 51.0651 33.8532 51.1597 33.1912 51.1597C32.5291 51.1597 31.9616 51.2543 31.0158 51.3488H29.9754C29.9754 50.2138 29.9754 42.3635 29.9754 41.3231H31.4887C31.9616 41.3231 32.5291 41.2285 33.1912 41.2285L34.3261 41.134C34.7991 41.0394 35.1774 41.0394 35.6503 41.134C35.7449 41.134 35.8395 41.2285 35.934 41.2285L36.0286 51.1597ZM36.0286 39.7152C35.4611 39.6206 34.8936 39.6206 34.3261 39.6206L33.1912 39.7152C32.5291 39.8098 32.0562 39.8098 31.5833 39.8098H28.7458V41.6069H27.3271V43.2148H28.6512V45.2956H27.3271V46.9035H28.6512V48.7951H27.3271V50.403H28.6512V52.5784H29.3133C29.3133 52.5784 30.0699 52.5784 31.1103 52.5784C32.1507 52.5784 32.8128 52.5784 33.3803 52.5784C34.0424 52.4838 34.7045 52.4838 35.272 52.4838C35.4611 52.4838 35.6503 52.5784 35.7449 52.7676C35.8395 52.8622 35.934 52.9567 36.0286 53.0513V58.6317C33.0966 57.2129 24.1113 52.0109 24.1113 43.9714C24.1113 43.9714 24.1113 41.3231 24.1113 38.1073H36.0286V39.7152ZM24.2058 36.6886C24.2058 32.2432 24.2058 27.3249 24.2058 26.6629H49.1755C49.1755 27.3249 49.1755 32.2432 49.1755 36.6886H24.2058ZM43.3115 51.3488H42.271C41.3252 51.3488 40.6631 51.2543 40.0957 51.1597C39.5282 51.0651 38.8661 51.0651 38.0148 51.0651C37.7311 51.0651 37.4474 51.1597 37.1636 51.2543V41.2285C37.2582 41.134 37.4474 41.134 37.5419 41.0394C38.0148 40.9448 38.3932 40.9448 38.8661 40.9448L40.0011 41.0394C40.6631 41.134 41.2306 41.134 41.7036 41.2285H43.2169C43.3114 42.3635 43.3115 50.2138 43.3115 51.3488ZM37.1636 58.6317V53.0513C37.2582 52.9567 37.3528 52.8622 37.4474 52.7676C37.5419 52.5784 37.7311 52.4838 37.9203 52.4838C38.5823 52.4838 39.2444 52.4838 39.8119 52.5784C40.474 52.673 41.1361 52.673 42.0819 52.7676C43.0277 52.8622 43.7844 52.7676 43.8789 52.7676H44.541V50.8759H45.7706V49.268H44.6356V47.5655H45.8652V45.9576H44.6356V43.8768H45.8652V42.2689H44.6356V40.0935H41.7981C41.3252 40.0935 40.8523 39.999 40.1902 39.999L39.0553 39.9044C38.4878 39.8098 37.9203 39.9044 37.3528 39.999H37.2582V38.2965H49.2701C49.2701 41.7014 49.2701 44.5389 49.2701 44.5389C49.1755 51.9163 39.9065 57.2129 37.1636 58.6317Z" fill="#B32226"/>
<path d="M34.6098 27.3262H26.5703V27.9882C26.5703 30.0691 26.5703 32.6228 26.5703 32.7174C26.6649 33.474 27.1378 34.1361 27.7999 34.5144C28.7457 35.1765 30.1644 35.9332 30.259 36.0277L30.6373 36.2169L31.0157 36.0277C31.1103 36.0277 32.6236 35.1765 33.5694 34.5144C34.2315 34.1361 34.7044 33.474 34.7044 32.7174C34.7044 32.7174 34.7044 32.5282 34.7044 27.9882V27.3262H34.6098ZM27.8945 28.6503H33.2857C33.2857 29.0287 33.2857 29.407 33.2857 29.7853H27.8945V28.6503ZM33.2857 32.6228C33.1911 33.0011 33.0019 33.1903 32.7182 33.3794C32.0561 33.8523 31.1103 34.3253 30.6373 34.609C30.1644 34.3253 29.2186 33.7578 28.6511 33.3794C28.3674 33.1903 28.0836 33.0011 27.989 32.6228C27.989 32.5282 27.989 31.9607 27.989 31.204H33.3802C33.3802 31.2986 33.3802 31.3932 33.3802 31.3932C33.2857 32.1499 33.2857 32.6228 33.2857 32.6228Z" fill="#B32226"/>
<path d="M39.4336 44.6336L38.8661 44.5391H38.4878V45.2957H38.7715L39.339 45.3903C39.7174 45.3903 40.0011 45.4849 40.2849 45.4849H41.9873V44.7282H40.2849C40.0957 44.7282 39.8119 44.7282 39.4336 44.6336Z" fill="#B32226"/>
<path d="M47.1892 27.3262H39.0552V27.9882C39.0552 32.6228 39.0552 32.7174 39.0552 32.7174C39.1498 33.474 39.6227 34.1361 40.2847 34.4198C41.2306 35.0819 42.6493 35.8386 42.7439 35.9332L43.0276 36.1223L43.3114 35.9332C43.406 35.9332 44.9193 35.0819 45.8651 34.4198C46.5272 34.0415 47.0001 33.474 47.0947 32.7174C47.0947 32.6228 47.0947 31.0149 47.0947 27.9882V27.3262H47.1892ZM45.7705 32.6228C45.6759 33.0011 45.4868 33.1903 45.203 33.3794C44.5409 33.8523 43.5951 34.3253 43.1222 34.609C42.6493 34.3253 41.7035 33.7578 41.136 33.3794C40.8522 33.1903 40.5685 33.0011 40.4739 32.6228V32.5282L43.1222 30.6365L45.8651 32.4336C45.7705 32.6228 45.7705 32.7174 45.7705 32.6228ZM43.0276 28.9341L42.6493 29.2178L40.3793 30.8257V30.1636C40.3793 29.6907 40.3793 29.1232 40.3793 28.6503H45.7705C45.7705 29.3124 45.7705 30.0691 45.7705 30.7311L43.0276 28.9341Z" fill="#B32226"/>
<path d="M13.991 38.1076C13.991 37.8239 13.991 37.5401 13.8964 37.2564H13.2343C13.3289 37.4456 13.3289 37.7293 13.3289 38.0131C13.3289 38.6751 12.7614 39.2426 12.0047 39.2426C11.9102 39.2426 11.9102 39.2426 11.8156 39.2426C11.0589 39.2426 10.4914 38.6751 10.4914 38.0131V37.9185C10.4914 37.6347 10.586 37.351 10.7752 37.0672L10.1131 36.9727C10.0185 37.2564 9.92393 37.5401 9.92393 37.8239C9.73477 38.8643 10.3968 39.8101 11.4372 39.9993C11.6264 39.9993 11.721 39.9993 11.9102 39.9993C12.9506 40.0939 13.8964 39.3372 13.991 38.2968C13.991 38.2968 13.991 38.2022 13.991 38.1076Z" fill="#B32226"/>
<path d="M12.2885 35.2697C13.2343 35.5534 14.2747 34.9859 14.653 34.0401C15.0314 33.0943 14.3693 31.9593 13.3289 31.6755C12.3831 31.2972 11.3427 31.7701 10.9643 32.7159C10.9643 32.8105 10.8697 32.9051 10.8697 32.9997C10.586 33.9455 11.0589 34.9859 12.0047 35.2697C12.0993 35.2697 12.1939 35.2697 12.2885 35.2697ZM11.4372 33.0943C11.6264 32.4322 12.3831 32.1484 12.9506 32.4322H13.0451C13.7072 32.4322 14.1801 32.9051 14.1801 33.5672C14.1801 34.2292 13.7072 34.7022 13.0451 34.7022C12.856 34.7022 12.6668 34.6076 12.4776 34.513C11.8156 34.4184 11.3427 33.8509 11.4372 33.0943Z" fill="#B32226"/>
<path d="M16.1663 30.0671L14.7476 29.3105L14.8422 29.1213C14.9368 28.8376 15.2205 28.743 15.4097 28.8376L16.8284 28.9321L17.2068 28.1755L15.5989 27.9863C15.4097 27.9863 15.2205 27.9863 15.0314 28.1755C15.2205 27.7026 15.0314 27.2297 14.5584 27.0405C13.6126 26.5676 13.1397 27.4188 12.7614 28.1755L12.3831 28.9321L15.8826 30.7292L16.1663 30.0671ZM14.2747 28.743V28.9321L13.3289 28.4592L13.4235 28.2701C13.6126 27.8917 13.8018 27.608 14.2747 27.7972C14.7476 27.9863 14.5584 28.4592 14.2747 28.743Z" fill="#B32226"/>
<path d="M18.5309 26.379L16.2609 24.4873L19.4767 25.244L20.0442 24.4873L17.0176 21.9336L16.5447 22.5957L18.8147 24.3927L15.5989 23.7307L15.0314 24.3927L18.058 26.9465L18.5309 26.379Z" fill="#B32226"/>
<path d="M23.1654 21.7454L22.7871 21.2725L21.6521 22.2183L20.8954 21.3671L22.0304 20.5158L21.6521 20.0429L20.5171 20.8941L19.9496 20.1375L21.0846 19.1917L20.7062 18.7188L18.9092 20.1375L21.4629 23.1641L23.1654 21.7454Z" fill="#B32226"/>
<path d="M26.665 19.6659L26.3812 19.0984L25.0571 19.855L23.4492 17.0176L22.7871 17.3959L24.6788 20.8009L26.665 19.6659Z" fill="#B32226"/>
<path d="M30.2591 18.2462L29.9753 17.6787L28.5566 18.2462L27.5162 15.125L26.7595 15.4087L28.0837 19.0975L30.2591 18.2462Z" fill="#B32226"/>
<path d="M34.8936 17.4889C35.6503 17.5835 36.3123 17.016 36.4069 16.2593C36.4069 16.1648 36.4069 15.9756 36.4069 15.881L36.2178 13.4219L35.4611 13.5165L35.5557 15.6918C35.6503 16.3539 35.4611 16.8268 34.799 16.8268C34.1369 16.8268 33.9478 16.4485 33.9478 15.7864L33.7586 13.611L33.002 13.7056L33.1911 16.1648C33.1911 16.9214 33.7586 17.4889 34.5153 17.5835C34.6099 17.5835 34.799 17.5835 34.8936 17.4889Z" fill="#B32226"/>
<path d="M39.339 14.556L40.474 17.6772L41.4198 17.7718L41.8927 13.894L41.2306 13.7994L40.7577 16.7314L39.7173 13.6102L38.7715 13.5156L38.204 17.3935L38.9606 17.4881L39.339 14.556Z" fill="#B32226"/>
<path d="M44.3524 14.5388L43.1902 18.2383L43.912 18.4651L45.0742 14.7656L44.3524 14.5388Z" fill="#B32226"/>
<path d="M50.2159 17.1118L49.5538 16.7335L47.2839 19.0034L47.8514 15.8822L47.0947 15.5039L46.4326 19.5709L47.3784 19.9493L50.2159 17.1118Z" fill="#B32226"/>
<path d="M51.5401 22.8817L51.9184 22.3143L50.6889 21.463L51.3509 20.5172L52.4859 21.3684L52.8643 20.8955L51.7293 20.0443L52.3913 19.2876L53.5263 20.2334L53.9047 19.7605L52.1076 18.3418L49.743 21.463L51.5401 22.8817Z" fill="#B32226"/>
<path d="M52.7697 24.0155L53.2426 24.583L54.4721 23.5426L54.6613 23.7317C54.8505 23.9209 54.8505 24.2047 54.6613 24.3938L53.9992 25.5288L54.5667 26.1909L55.3234 24.6776C55.418 24.4884 55.418 24.2992 55.3234 24.1101C55.7017 24.3938 56.1746 24.3938 56.5529 24.1101C57.4042 23.3534 56.7421 22.6913 56.1746 22.0293L55.6071 21.3672L52.7697 24.0155ZM55.9854 22.5968C56.2692 22.8805 56.4584 23.2588 56.1746 23.5426C55.8909 23.8263 55.5125 23.5426 55.2288 23.2588L54.945 23.1642L55.7017 22.5022L55.9854 22.5968Z" fill="#B32226"/>
<path d="M56.4583 27.9896C56.2691 27.7059 56.1745 27.3275 56.2691 27.0438L55.6071 27.3275C55.7016 27.7059 55.7962 27.9896 55.9854 28.2734C56.1745 28.9354 56.9312 29.2192 57.4987 29.03C57.5933 29.03 57.6879 28.9354 57.6879 28.9354C58.8229 28.2734 57.6879 26.9492 58.2554 26.5709C58.5391 26.3817 58.8228 26.4763 59.012 26.76C59.012 26.76 59.012 26.76 59.012 26.8546C59.1066 27.0438 59.2012 27.3275 59.2958 27.6113L59.8633 27.3275C59.7687 27.0438 59.6741 26.76 59.4849 26.4763C59.2012 25.9088 58.5391 25.6251 57.9716 25.8142C57.877 25.8142 57.877 25.9088 57.7824 25.9088C56.6475 26.5709 57.7824 27.895 57.1204 28.2734C57.0258 28.4625 56.6475 28.2734 56.4583 27.9896Z" fill="#B32226"/>
<path d="M61.0764 29.5517L57.4855 31.0156L57.7711 31.7163L61.362 30.2524L61.0764 29.5517Z" fill="#B32226"/>
<path d="M58.5392 34.2304L58.7283 34.987L61.9441 34.2304L62.2279 35.2708L62.7954 35.0816L62.1333 32.2441L61.4712 32.3387L61.755 33.4737L58.5392 34.2304Z" fill="#B32226"/>
<path d="M59.2958 38.5806V39.3372L60.9037 39.2426L63.2682 40.4722V39.7155L61.5658 38.8643L63.1736 37.8239L63.0791 36.9727L60.8091 38.486L59.2958 38.5806Z" fill="#B32226"/>
<path d="M12.9505 47.8495L13.518 47.6603L13.2343 46.4307L14.0855 46.147L14.4639 47.4711L15.1259 47.282L14.4639 45.2012L10.7751 46.3362L10.9643 47.0928L12.5722 46.6199L12.9505 47.8495Z" fill="#B32226"/>
<path d="M16.3554 50.0263C15.9771 49.0805 14.9367 48.7022 13.9909 49.0805C13.8963 49.0805 13.8017 49.1751 13.7071 49.1751C12.7613 49.5534 12.2884 50.5938 12.6667 51.5397C12.6667 51.6342 12.7613 51.7288 12.7613 51.8234C13.1396 52.7692 14.2746 53.1476 15.1259 52.7692C15.2205 52.7692 15.315 52.6746 15.4096 52.6746C16.3554 52.2963 16.8284 51.2559 16.45 50.3101C16.45 50.2155 16.3554 50.1209 16.3554 50.0263ZM15.0313 51.918C14.4638 52.2963 13.7071 52.2017 13.3288 51.6342C13.3288 51.6342 13.3288 51.6342 13.2342 51.5397C12.9505 50.9722 13.2342 50.2155 13.8963 49.9318H13.9909C14.5584 49.5534 15.315 49.648 15.6934 50.2155C15.6934 50.2155 15.6934 50.2155 15.6934 50.3101C15.9771 50.9722 15.6934 51.6342 15.0313 51.918Z" fill="#B32226"/>
<path d="M19.4767 54.9444L17.6796 56.3631C17.1121 56.7414 16.6392 56.836 16.3554 56.3631C16.0717 55.8902 16.1663 55.4173 16.7338 55.1335L18.5308 53.7148L18.0579 53.0527L16.0717 54.6606C15.4096 55.039 15.2205 55.8902 15.6934 56.5523C15.7879 56.6469 15.8825 56.7414 15.9771 56.836C16.3554 57.4981 17.2067 57.7818 17.8688 57.4035C17.9633 57.3089 18.0579 57.3089 18.1525 57.2144L20.1387 55.701L19.4767 54.9444Z" fill="#B32226"/>
<path d="M23.0708 58.4419L21.2737 60.6173L21.9358 57.4961L21.1791 56.834L18.72 59.8606L19.2875 60.3335L21.1791 58.0636L20.517 61.2793L21.1791 61.9414L23.7328 58.9148L23.0708 58.4419Z" fill="#B32226"/>
<path d="M26.0975 60.3342L25.1517 59.8613L23.3546 63.3609L24.3004 63.8338C25.3408 64.4013 26.4758 64.4959 27.1379 63.0771C27.8 61.6584 27.1379 60.9017 26.0975 60.3342ZM26.5704 62.6988C26.2867 63.3609 25.53 63.6446 24.8679 63.3609C24.8679 63.3609 24.8679 63.3609 24.7733 63.3609L24.395 63.1717L25.6246 60.8072L26.0029 60.9963C26.665 61.2801 26.9487 62.0367 26.5704 62.6988Z" fill="#B32226"/>
<path d="M28.6511 65.6329L30.9211 66.2004L31.1103 65.6329L29.5969 65.2546L29.8807 64.1196L31.2048 64.4979L31.394 63.9304L30.0699 63.5521L30.259 62.6063L31.7723 63.0792L31.8669 62.4171L29.6915 61.8496L28.6511 65.6329Z" fill="#B32226"/>
<path d="M34.7044 62.7938L33.664 62.6992L33.4749 66.5771L34.5153 66.6717C35.7448 66.7663 36.7852 66.3879 36.8798 64.8746C36.9744 63.3613 35.8394 62.8884 34.7044 62.7938ZM34.7044 66.1042H34.2315L34.4207 63.4559H34.8936C35.6502 63.5505 36.1232 64.3071 36.0286 64.9692C35.8394 65.6313 35.2719 66.1042 34.7044 66.1042Z" fill="#B32226"/>
<path d="M40.7578 62.5114L40.0957 66.673L40.8524 66.4839L41.0415 65.5381L42.6494 65.1597L43.1223 65.9164L43.9736 65.8218L41.7036 62.3223L40.7578 62.5114ZM41.1361 64.876L41.3253 63.1735L42.1765 64.5922L41.1361 64.876Z" fill="#B32226"/>
<path d="M45.4169 64.4145L44.7053 64.6719L44.9627 65.3834L45.6742 65.1261L45.4169 64.4145Z" fill="#B32226"/>
<path d="M46.8109 60.4278L45.8651 60.9008L47.7568 64.3057L48.7026 63.8328C49.743 63.2653 50.4996 62.4141 49.743 60.9953C48.9863 59.5766 47.8513 59.8604 46.8109 60.4278ZM48.5134 63.2653L48.1351 63.4545L46.8109 61.0899L47.1893 60.9008C47.8513 60.617 48.7026 60.9953 48.8917 61.6574C49.1755 62.2249 48.9863 62.887 48.5134 63.2653Z" fill="#B32226"/>
<path d="M51.4577 61.2196L50.8357 61.6504L51.2665 62.2724L51.8885 61.8417L51.4577 61.2196Z" fill="#B32226"/>
<path d="M52.3912 56.2678L52.2966 57.7811H52.8641L52.9587 57.0245L55.1341 59.1053L55.7016 58.5378L52.8641 55.7949L52.3912 56.2678Z" fill="#B32226"/>
<path d="M57.8771 54.0917C57.4987 53.8079 57.0258 53.8079 56.6475 54.0917C56.7421 53.7134 56.6475 53.2405 56.2692 53.0513C55.7017 52.7675 55.0396 52.9567 54.7559 53.4296V53.5242C54.3775 53.9025 54.283 54.5646 54.7559 55.0375L54.8504 55.1321C55.2288 55.3213 55.6071 55.3213 55.9854 55.1321C55.7963 55.605 55.9854 56.0779 56.3638 56.3617C56.9313 56.74 57.5933 56.6454 57.9717 56.0779C57.9717 55.9833 58.0662 55.9833 58.0662 55.8888C58.5392 55.5104 58.5392 54.7538 58.1608 54.2809C58.0662 54.2809 57.9717 54.1863 57.8771 54.0917ZM56.08 54.3754C55.8909 54.5646 55.5125 54.6592 55.2288 54.5646C55.0396 54.3754 55.0396 54.0917 55.2288 53.8079C55.3234 53.6188 55.6071 53.5242 55.8909 53.7134C55.8909 53.7134 55.8908 53.7134 55.9854 53.7134C56.1746 53.9025 56.1746 54.1863 56.08 54.3754ZM57.4987 55.5104C57.3096 55.7942 56.9313 55.7942 56.7421 55.6996C56.5529 55.5104 56.4583 55.2267 56.5529 54.9429C56.8367 54.6592 57.215 54.6592 57.4987 54.8483C57.6879 54.9429 57.7825 55.2267 57.4987 55.5104C57.5933 55.5104 57.5933 55.5104 57.4987 55.5104Z" fill="#B32226"/>
<path d="M59.8633 50.0259C59.3904 49.7422 58.7283 49.8367 58.35 50.3096C58.35 50.4042 58.2554 50.4042 58.2554 50.4988C58.0662 50.7826 58.0662 51.0663 58.2554 51.3501C57.6879 51.1609 57.4042 50.5934 57.5933 50.0259C57.6879 49.8367 57.8771 49.6476 58.0662 49.4584L57.5933 49.0801C57.4042 49.2692 57.215 49.4584 57.1204 49.7422C56.5529 50.8771 57.4042 51.7284 58.35 52.2013C59.2958 52.6742 60.0525 52.7688 60.5254 51.823C60.9037 51.2555 60.62 50.4988 60.0525 50.1205C59.9579 50.1205 59.8633 50.0259 59.8633 50.0259ZM59.9579 51.5392C59.7687 51.823 59.485 51.9175 59.2012 51.7284C59.2012 51.7284 59.2012 51.7284 59.1067 51.7284C58.8229 51.6338 58.6337 51.2555 58.7283 50.9717C58.9175 50.688 59.2958 50.5934 59.5796 50.7826C59.9579 50.8771 60.0525 51.2555 59.9579 51.5392Z" fill="#B32226"/>
<path d="M61.3767 45.7695C60.8092 45.4858 60.1471 45.7695 59.8633 46.4316C59.8633 46.5262 59.7688 46.5262 59.7688 46.6207C59.7688 46.7153 59.6742 46.8099 59.6742 46.9991L58.9175 46.7153L59.3904 45.2966L58.7284 45.1074L58.0663 47.2828L60.0525 47.9449C60.0525 47.6611 60.0525 47.472 60.1471 47.2828C60.1471 46.9045 60.5254 46.5262 60.9038 46.6207C60.9983 46.6207 60.9983 46.6207 61.0929 46.6207C61.4712 46.7153 61.6604 47.1882 61.5658 47.5666V47.6611C61.4712 47.9449 61.3767 48.1341 61.1875 48.4178L61.8496 48.607C62.0387 48.3232 62.1333 48.0395 62.2279 47.7557C62.5117 47.0937 62.2279 46.337 61.5658 45.9587C61.4712 45.8641 61.3767 45.8641 61.3767 45.7695Z" fill="#B32226"/>
</svg>
