<svg width="233" height="80" viewBox="0 0 233 80" fill="none" xmlns="http://www.w3.org/2000/svg">
<path d="M101.215 29.8308H97.7084V29.384H98.9287V22.42H96.4881V23.3907H95.9011V21.4648H96.4881V21.8038H102.435V21.4648H103.022V23.3907H102.435V22.42H99.9946V29.384H101.215V29.8308Z" fill="#141414"/>
<path d="M112.306 29.8318H109.402V29.385H110.314V26.0418H105.741V29.385H106.653V29.8318H103.749V29.385H104.66V22.2671H103.749V21.8203H106.653V22.2671H105.741V25.5026H110.314V22.2671H109.402V21.8203H112.306V22.2671H111.379V29.4005H112.306V29.8318Z" fill="#141414"/>
<path d="M118.871 29.8309H113.325V29.3841H114.237V22.2662H113.325V21.8194H118.191V21.4805H118.747V23.4063H118.191V22.3741H115.302V25.4862H117.604V24.5773L118.16 24.5618V26.9499L117.604 26.9653V26.0255H115.302V29.2917H118.299V28.2286H118.855V29.8309H118.871Z" fill="#141414"/>
<path d="M130.919 22.2671H130.008V26.9046C130.008 28.1987 129.545 29.0462 128.525 29.6008C128.015 29.8627 127.429 30.0168 126.826 30.0168C125.065 30.0168 123.752 28.8458 123.752 27.259V22.2671H122.841V21.8203H125.745V22.2671H124.834V26.8738C124.834 28.3528 125.698 29.3081 127.058 29.3081C128.448 29.3081 129.39 28.322 129.39 26.8584V22.2671H128.478V21.8203H130.935V22.2671H130.919Z" fill="#141414"/>
<path d="M138.442 29.9706H138.056L133.376 23.5459V29.385H134.302V29.8318H131.831V29.385H132.758V22.7294L132.434 22.2671H131.599V21.8203H133.376L137.84 27.9214V22.2671H136.913V21.8203H139.369V22.2671H138.458V29.9706H138.442Z" fill="#141414"/>
<path d="M143.154 29.8318H140.25V29.385H141.161V22.2671H140.25V21.8203H143.154V22.2671H142.242V29.4005H143.154V29.8318Z" fill="#141414"/>
<path d="M148.081 30.0476H147.664L144.59 22.2671H143.864V21.8203H146.892V22.2671H145.749L148.112 28.245L150.46 22.2671H149.657V21.8203H151.742V22.2671H151.139L148.081 30.0476Z" fill="#141414"/>
<path d="M158.029 29.8309H152.483V29.3841H153.395V22.2662H152.483V21.8194H157.35V21.4805H157.906V23.4063H157.35V22.3741H154.461V25.4862H156.762V24.5773L157.318 24.5618V26.9499L156.762 26.9653V26.0255H154.461V29.2917H157.458V28.2286H158.014V29.8309H158.029Z" fill="#141414"/>
<path d="M166.246 29.8318H165.212C164.486 29.8318 164.362 29.7549 163.961 29.1078L162.138 26.2266H161.18V29.385H162.091V29.8318H159.187V29.385H160.099V22.2671H159.187V21.8203H162.586C163.775 21.8203 164.439 22.1438 164.81 22.8988C164.965 23.2223 165.058 23.5921 165.058 23.9773C165.058 25.1636 164.393 25.9186 163.234 26.088L164.995 28.7842C165.289 29.231 165.49 29.385 165.783 29.385H166.262V29.8318H166.246ZM161.18 25.672H162.354C163.281 25.672 163.93 24.9942 163.93 23.9927C163.93 22.945 163.358 22.3596 162.338 22.3596H161.196V25.672H161.18Z" fill="#141414"/>
<path d="M167.806 29.9553H167.235V27.7676H167.806V28.7228C168.548 29.2158 168.873 29.3391 169.413 29.3391C170.386 29.3391 171.05 28.8306 171.05 28.0603C171.05 27.367 170.572 26.8585 169.258 26.1807C167.714 25.3795 167.204 24.7632 167.204 23.7772C167.204 22.5755 168.224 21.6664 169.614 21.6664C170.217 21.6664 170.68 21.7743 171.066 22.0054V21.5586H171.622V23.6385H171.066V22.7757C170.448 22.3598 170.139 22.2365 169.645 22.2365C168.81 22.2365 168.285 22.7296 168.285 23.4844C168.285 24.1008 168.641 24.4551 170.17 25.3333C171.699 26.2115 172.132 26.7507 172.132 27.7368C172.132 29.0001 171.081 29.9708 169.706 29.9708C168.934 29.9708 168.44 29.8167 167.822 29.4161V29.9553H167.806Z" fill="#141414"/>
<path d="M176.133 29.8318H173.229V29.385H174.14V22.2671H173.229V21.8203H176.133V22.2671H175.222V29.4005H176.133V29.8318Z" fill="#141414"/>
<path d="M182.234 29.8308H178.728V29.384H179.948V22.42H177.508V23.3907H176.921V21.4648H177.508V21.8038H183.454V21.4648H184.041V23.3907H183.454V22.42H181.014V29.384H182.234V29.8308Z" fill="#141414"/>
<path d="M189.942 29.8316H187.038V29.3848H187.949V26.134L185.432 22.2515H184.721V21.8047H187.733V22.2515H186.621L188.722 25.4407L190.669 22.2515H189.557V21.8047H191.997V22.2515H191.364L189.016 26.057V29.3848H189.942V29.8316Z" fill="#141414"/>
<path d="M195.133 25.8412C195.133 23.5611 196.909 21.666 199.071 21.666C201.188 21.666 202.979 23.5611 202.979 25.8259C202.979 28.0907 201.203 30.0011 199.071 30.0011C196.94 30.0011 195.133 28.106 195.133 25.8412ZM196.353 25.8259C196.353 27.875 197.496 29.3694 199.087 29.3694C200.647 29.3694 201.79 27.875 201.79 25.8259C201.79 23.7767 200.662 22.2977 199.102 22.2977C197.496 22.2977 196.353 23.7613 196.353 25.8259Z" fill="#141414"/>
<path d="M206.641 29.8309H203.737V29.3841H204.648V22.2662H203.737V21.8194H208.602V21.4805H209.158V23.4063H208.602V22.3741H205.714V25.4862H208.015V24.5773L208.572 24.5618V26.9499L208.015 26.9653V26.0255H205.714V29.3841H206.626V29.8309H206.641Z" fill="#141414"/>
<path d="M97.4151 55.8219H95.9013V50.0597H97.4151V52.5864C99.3769 53.9115 100.242 54.2196 101.663 54.2196C104.242 54.2196 105.973 52.8792 105.973 50.8609C105.973 49.0275 104.722 47.6871 101.246 45.8845C97.1988 43.7737 95.8086 42.156 95.8086 39.5215C95.8086 36.3476 98.5119 33.975 102.142 33.975C103.748 33.975 104.938 34.2677 105.973 34.8686V33.7285H107.456V39.2133H105.973V36.9331C104.335 35.8392 103.532 35.5157 102.25 35.5157C100.057 35.5157 98.6508 36.8252 98.6508 38.8128C98.6508 40.4459 99.5777 41.3857 103.594 43.6967C107.61 46.0077 108.769 47.4098 108.769 50.0444C108.769 53.3722 106.003 55.9452 102.374 55.9452C100.35 55.9452 99.0371 55.5292 97.4306 54.4969V55.8219H97.4151Z" fill="#141414"/>
<path d="M123.103 55.5457H115.457V54.3594H117.867V45.7932L111.209 35.5476H109.34V34.3613H117.28V35.5476H114.361L119.89 43.9598L125.003 35.5476H122.084V34.3613H128.509V35.5476H126.841L120.663 45.5929V54.344H123.103V55.5457Z" fill="#141414"/>
<path d="M130.101 55.5457V54.3594H132.51V35.5476H130.101V34.3613H139.586C145.378 34.3613 150.089 39.1066 150.089 44.9304C150.089 50.862 145.455 55.5457 139.539 55.5457H130.101ZM135.338 53.9434H139.199C143.602 53.9434 146.954 50.0609 146.907 44.9612C146.907 40.0002 143.494 35.9944 139.261 35.9944H135.338V53.9434Z" fill="#141414"/>
<path d="M168.641 55.9001H167.653L155.31 38.9526V54.3594H157.751V55.5457H151.263V54.3594H153.704V36.7648L152.839 35.5476H150.615V34.3613H155.264L167.034 50.4769V35.5476H164.594V34.3613H171.051V35.5476H168.641V55.9001Z" fill="#141414"/>
<path d="M187.858 55.5467H173.229V54.3604H175.654V35.5487H173.244V34.3624H186.066V33.4688H187.548V38.5684H186.096V35.8414H178.481V44.0687H184.551V41.6652L186.034 41.6344V47.9511L184.551 47.982V45.5169H178.481V54.1139H186.39V51.2944H187.873V55.5467H187.858Z" fill="#141414"/>
<path d="M203.768 55.5457H196.121V54.3594H198.531V45.7932L191.873 35.5476H190.02V34.3613H197.96V35.5476H195.04L200.57 43.9598L205.683 35.5476H202.764V34.3613H209.189V35.5476H207.521L201.342 45.5929V54.344H203.783V55.5457H203.768Z" fill="#141414"/>
<path d="M55.5845 49.5985H60.3267V48.8743H55.5845V49.5985ZM55.5845 51.5551H60.3267V50.8464H55.5845V51.5551ZM55.5845 47.6418H60.3267V46.9177H55.5845V47.6418ZM52.1707 48.8743H47.4285V49.5985H52.1707V48.8743ZM52.1707 50.8464H47.4285V51.5551H52.1707V50.8464ZM52.1707 46.9177H47.4285V47.6418H52.1707V46.9177ZM59.7089 34.3611C57.778 34.2686 55.8162 34.207 53.8853 34.207C51.9545 34.207 49.9927 34.2686 48.0618 34.3611V43.9134H29.7263C30.4832 48.5046 32.3677 52.7877 35.0555 56.3621C35.4108 55.8536 36.0132 55.5147 36.6929 55.5147H48.0618V65.4675C49.9155 65.9759 51.8618 66.2533 53.8699 66.2533V66.3303H53.8853V66.2533C55.8934 66.2533 57.8397 65.9759 59.7089 65.4521V55.5147H71.0933C71.7575 55.5147 72.3599 55.8382 72.7152 56.3466C75.403 52.7722 77.2721 48.4738 78.0445 43.8979H59.7089V34.3611ZM50.5179 37.3346L52.9894 38.5055L53.8699 35.9326L54.7967 38.5055L57.2373 37.3192L56.0633 39.7843L58.643 40.6625L56.0633 41.5869L57.2528 44.0212L54.7658 42.8502L53.8853 45.4078L52.9585 42.8349L50.5179 44.0212L51.6919 41.5407L49.1122 40.6625L51.7073 39.7381L50.5179 37.3346ZM41.8521 53.1266L39.4115 51.9403L38.4847 54.5133L37.6042 51.9557L35.1173 53.1266L36.3221 50.6923L33.727 49.7679L36.3067 48.8898L35.1327 46.4093L37.5579 47.5956L38.4847 45.0226L39.3652 47.5802L41.8521 46.4093L40.6627 48.8435L43.2424 49.7679L40.6627 50.6462L41.8521 53.1266ZM45.7757 52.9418H44.6944V52.156H45.7757V52.9418ZM45.7757 50.831H44.6944V50.0453H45.7757V50.831ZM45.7757 48.7202H44.6944V47.9346H45.7757V48.7202ZM45.7757 46.625H44.6944V45.8392H45.7757V46.625ZM46.3626 52.9418V45.3462H51.1513C51.2439 45.3308 51.3521 45.3462 51.4447 45.3462C52.5414 45.3462 53.391 46.1935 53.391 47.2566V53.6197C53.0357 53.2037 52.4951 52.9263 51.8927 52.9263C51.8154 52.9418 47.861 52.9418 46.3626 52.9418ZM57.2528 62.8483L54.7658 61.6774L53.8853 64.2504L52.9585 61.662L50.5179 62.8483L51.6919 60.3678L49.1122 59.4897L51.6919 58.5653L50.5025 56.131L52.9894 57.3018L53.8699 54.7443L54.7967 57.3173L57.2373 56.131L56.0633 58.6114L58.643 59.4897L56.0633 60.4141L57.2528 62.8483ZM65.9031 46.4093L68.3901 47.5802L69.2705 45.0226L70.1973 47.5956L72.638 46.4093L71.464 48.8898L74.0437 49.7679L71.4485 50.6923L72.638 53.1266L70.151 51.9557L69.2705 54.5133L68.3437 51.9403L65.9031 53.1266L67.0771 50.6462L64.4974 49.7679L67.0771 48.8435L65.9031 46.4093ZM61.9796 45.8238H63.0609V46.6095H61.9796V45.8238ZM61.9796 47.9346H63.0609V48.7202H61.9796V47.9346ZM61.9796 50.0453H63.0609V50.831H61.9796V50.0453ZM61.9796 52.156H63.0609V52.9418H61.9796V52.156ZM61.408 45.3462V52.9418C59.9097 52.9418 55.9398 52.9418 55.8625 52.9418C55.2601 52.9418 54.7349 53.2037 54.3642 53.635V47.272C54.3642 46.1935 55.2137 45.3616 56.3105 45.3616C56.4032 45.3616 56.5113 45.3462 56.604 45.3616H61.408V45.3462ZM70.8616 12.9456C66.1348 11.9442 59.8942 10.9581 53.8853 10.9581C44.8643 10.9581 35.3335 13.1921 31.1474 14.3168C30.3132 14.5325 29.6954 14.7174 29.3246 14.8252V35.2855C32.0433 34.8541 43.2424 33.1594 53.8699 33.1439C64.4974 33.1439 75.6965 34.8387 78.4152 35.2855V14.8252C78.0445 14.7174 77.4265 14.5479 76.5924 14.3168C75.2177 13.947 73.2249 13.454 70.8616 12.9456ZM45.2196 15.1026C45.5903 15.0101 44.7871 14.4092 45.3122 14.4401C45.6521 14.4555 46.7797 14.4555 47.6293 14.8714C47.7837 14.9331 47.8919 14.6403 48.2163 14.4246C48.2472 14.4092 48.3245 14.3784 48.3708 14.4246C48.7106 14.6249 48.8187 14.9331 48.9886 14.856C49.8382 14.4555 50.9504 14.4555 51.2748 14.4246C51.8154 14.3938 50.9968 15.0101 51.3675 15.0871C53.2829 15.5494 54.7041 17.167 54.7041 19.093C54.7041 19.6476 54.565 20.1714 54.3797 20.6644C54.2715 20.9263 54.0089 20.1868 53.9008 20.6182C53.7154 21.4039 53.5146 21.9894 53.0976 22.7751C52.6959 23.5147 52.0472 21.974 51.8463 22.4054C51.4756 23.1758 50.6105 23.453 50.0081 23.5455C49.9309 23.5455 49.8691 23.5455 49.9618 23.4685C49.9927 23.4377 50.1472 23.299 50.1781 23.0217C50.1781 22.9909 50.1626 22.9446 50.2244 22.9138C50.6878 22.6982 51.0277 22.2667 51.1203 21.7583C51.2593 21.2807 51.4601 20.6028 51.6919 20.1868C52.2171 19.2624 51.5837 18.1531 51.7382 17.9066C52.0935 17.6755 52.3252 17.2749 52.3252 16.8127C52.3252 16.0886 51.7382 15.5031 51.0122 15.5031C50.6261 15.5031 50.2708 15.6726 50.039 15.9499L50.0081 15.9807C49.8845 16.104 49.7765 16.2426 49.6683 16.3814C49.5447 16.5354 49.5757 16.8127 49.7765 16.859C50.6724 17.09 51.2439 19.093 50.8886 19.74C50.7341 20.0327 50.2398 21.1112 50.2398 21.4194C50.2398 21.8199 49.9155 22.1434 49.5138 22.1434C49.2049 22.1434 48.9423 21.9586 48.8341 21.6658L48.8497 21.635C49.0968 21.481 49.6374 21.1574 49.6374 20.8185L49.5293 19.7246C49.9773 19.6784 50.1781 19.4318 50.2398 19.0159C50.2862 18.985 50.3171 18.9542 50.348 18.9234C50.5025 18.7848 50.5951 18.415 50.2708 18.4766C49.8228 18.5537 49.313 18.5382 48.8033 18.677C48.7415 18.6923 48.6952 18.754 48.6797 18.8156C48.6642 18.9081 48.9423 20.233 49.0195 20.5258C49.0195 20.5566 49.0041 20.572 48.9886 20.572C48.7878 20.5566 48.4325 20.5412 48.3399 20.5412C48.2472 20.5412 47.9073 20.5566 47.6911 20.572C47.6757 20.572 47.6448 20.5412 47.6448 20.5258C47.7065 20.2176 48.0001 18.8926 48.0001 18.8926C48.0001 18.831 48.0001 18.7848 47.9692 18.7386C47.8765 18.6153 46.5789 18.5074 46.409 18.4766C46.3317 18.4613 46.2545 18.4921 46.2082 18.5537C46.0846 18.7386 46.3009 18.9389 46.4553 19.0159C46.5171 19.4165 46.7179 19.663 47.1505 19.7092L47.1659 19.7246C47.1505 19.8016 47.0423 20.8185 47.0423 20.8185C47.0423 21.1729 47.5829 21.4656 47.8456 21.6197C47.861 21.635 47.8765 21.6658 47.8765 21.6813C47.7529 21.9278 47.4903 22.1126 47.2122 22.1126C46.8106 22.1126 46.4862 21.7891 46.4862 21.3886C46.4862 21.1266 46.0073 20.0019 45.822 19.6938C45.4358 19.0313 46.0073 17.0592 46.9342 16.8281C47.135 16.7819 47.2431 16.4892 47.0887 16.3351C46.7025 15.9499 46.2545 15.4723 45.6676 15.4723C44.9415 15.4723 44.37 16.0578 44.37 16.7819C44.37 17.6138 45.0033 17.7371 44.9569 17.9682C44.6944 18.7386 44.6944 19.5706 45.0342 20.156C45.2659 20.5566 45.4513 21.219 45.6057 21.6813C45.6985 22.1589 45.9765 22.5749 46.3936 22.806C46.5944 22.9292 46.5017 23.0833 46.5789 23.2528C46.6253 23.3298 46.687 23.3914 46.7334 23.4377C46.8261 23.4993 46.7489 23.5147 46.687 23.5147C46.0846 23.4377 45.1424 23.1758 44.7561 22.3592C44.5553 21.9278 43.8911 23.4685 43.5049 22.729C43.0879 21.9432 42.9025 21.3578 42.7017 20.572C42.5936 20.1406 42.331 20.8801 42.2229 20.6182C42.0375 20.1252 41.8985 19.6167 41.8985 19.0467C41.8985 17.167 43.3196 15.5494 45.2196 15.1026ZM50.6724 16.443C50.6569 16.4275 50.6569 16.3505 50.6878 16.3351C50.7805 16.2581 50.9041 16.2273 51.0277 16.2273C51.3521 16.2273 51.6146 16.4892 51.6146 16.8127C51.6146 16.9976 51.5374 17.1517 51.3984 17.2595C51.3675 17.2903 51.3057 17.2595 51.2902 17.2287C51.1203 16.9206 50.9195 16.6586 50.6724 16.443ZM49.3593 23.0062C49.2204 23.376 48.6952 23.2528 48.4171 23.4838C48.3862 23.5147 48.3089 23.5147 48.2781 23.4838C48.0001 23.2528 47.4903 23.3606 47.3204 22.96C47.3049 22.9292 47.3049 22.8676 47.3821 22.8522C47.7529 22.806 48.0773 22.6365 48.3089 22.3746C48.3245 22.3438 48.3862 22.3283 48.448 22.39C48.6642 22.6211 48.9577 22.806 49.2976 22.8522C49.3285 22.8676 49.3903 22.8984 49.3593 23.0062ZM45.4204 17.2441C45.4049 17.2595 45.3432 17.2903 45.2968 17.2441C45.1733 17.1362 45.0805 16.9668 45.0805 16.7819C45.0805 16.4583 45.3432 16.1964 45.6676 16.1964C45.822 16.1964 45.961 16.2581 46.0692 16.3505C46.1155 16.3813 46.0846 16.4583 46.0692 16.4738C45.822 16.7202 45.6057 16.9668 45.4204 17.2441ZM40.2611 24.7472C39.8595 24.7472 39.705 24.8705 39.4115 25.0554C39.2261 25.1786 39.1798 24.8242 39.3961 24.1002C39.566 23.5301 38.4384 23.2219 38.1757 23.4838C37.7896 23.7766 36.8319 24.3621 35.8741 23.3606C35.6888 23.1603 36.3067 23.2219 36.3376 23.0525C36.3993 22.7906 36.631 22.6365 36.7237 22.5441C36.7855 22.467 36.7855 22.3438 36.6774 22.2975C36.3839 22.1434 35.9823 21.8046 36.0904 21.1882C36.1058 21.0958 35.5961 21.065 35.7661 20.911C36.662 20.0944 37.6351 20.6028 38.0213 20.8647C38.0831 20.8955 38.2221 20.8955 38.2376 20.7722C38.2685 20.5103 38.1294 20.3254 38.6701 19.8941C38.7782 19.8016 38.3611 19.4473 38.6546 19.4627C40.4928 19.9249 39.6587 21.8354 40.0449 22.1743C40.7554 22.806 42.4545 23.299 44.0456 23.6379C44.1846 23.6687 44.6789 23.8382 44.7871 23.8998C46.0846 24.5623 46.8724 24.5007 47.5675 24.2234C47.7837 24.131 47.7837 24.4237 47.7065 24.4853C45.1424 26.935 43.1805 26.3034 42.5009 25.8719C42.0221 25.5638 41.0334 25.5484 40.5855 26.1801C40.5082 26.2571 40.3693 26.3034 40.3074 26.103C40.1684 25.6408 40.3229 25.3327 40.4619 24.9938C40.5546 24.7934 40.3383 24.7472 40.2611 24.7472ZM64.7291 27.012C64.3893 27.3048 63.7714 27.6437 62.7982 27.5975C62.3812 27.5821 62.1804 27.7054 62.0877 27.8132C62.0259 27.8902 61.995 27.9981 61.9796 28.0135C61.9177 28.2138 61.995 28.4294 62.1031 28.599C62.2113 28.753 62.1649 28.8454 62.0105 28.8762C61.856 28.9225 61.6397 28.9225 61.2226 28.7222C61.0373 28.6298 60.9909 28.753 60.9601 28.8301C60.8829 29.0303 61.0218 29.2769 61.2999 29.4618C61.4389 29.585 61.4081 29.7082 61.1917 29.7853C60.821 29.9086 60.4966 29.739 59.956 29.4463C59.6471 29.2769 59.3999 29.246 59.1837 29.4926C59.0601 29.6312 59.0755 29.7545 59.1373 29.8315C59.3536 30.0318 59.4772 30.4478 58.952 31.1102C58.7821 31.3259 58.5967 30.7251 58.4268 30.8021C57.7162 31.141 57.1292 30.6942 56.8975 30.4015C56.8512 30.3399 56.743 30.3245 56.6194 30.4015C56.2641 30.6481 55.4918 31.0332 55.1983 30.3399C55.152 30.2321 54.7349 30.494 54.7349 30.2937C54.7504 29.1536 55.7389 28.9379 56.1715 28.907C56.2951 28.8917 56.326 28.8301 56.2641 28.7222C56.0942 28.4757 55.8934 28.183 56.0016 27.844C56.0788 27.5975 55.4301 27.5358 55.6926 27.3972C57.0057 26.7502 57.7317 27.9981 57.9633 28.1214C58.3495 28.337 60.0487 27.7824 60.2649 26.858C60.3113 26.6731 59.8633 26.5961 59.4308 26.4882C59.3536 26.4728 59.3073 26.365 59.4462 26.2571C60.4812 25.4867 61.3153 24.4853 63.1845 24.3004C63.4161 24.2696 63.5088 24.4699 63.5088 24.5623C63.5397 24.855 63.6169 25.1324 63.7405 25.3943C64.0185 25.9644 64.3429 26.3187 64.6673 26.5806C64.8527 26.7655 64.8218 26.935 64.7291 27.012ZM72.5762 26.4266C72.7461 26.519 72.7461 26.6114 72.6225 26.7193C72.4989 26.8271 72.2981 26.935 71.8502 26.935C71.6493 26.935 71.6493 27.0582 71.6648 27.1507C71.6957 27.3664 71.9274 27.5205 72.2518 27.5667C72.4217 27.6129 72.4681 27.7362 72.2981 27.8902C72.0201 28.1675 71.6648 28.1675 71.0469 28.1522C70.46 28.1367 69.9965 28.8301 70.3364 29.1228C70.5681 29.323 71.0315 29.7545 70.6299 30.9562C70.5063 31.3106 70.2746 30.6326 70.0893 30.7405C69.6104 31.0332 69.1778 30.6634 68.9616 30.4015C68.8689 30.2937 68.7762 30.2937 68.7145 30.4015C68.5137 30.7405 68.0039 31.3259 66.9844 30.7713C66.7681 30.6481 66.3047 31.064 66.2738 30.9254C66.1039 30.1242 66.5209 29.662 66.8608 29.4155C66.8917 29.3847 67.0307 29.1998 66.799 29.2152C66.4592 29.1998 66.0267 29.092 65.9803 28.6606C65.9803 28.5682 65.5324 28.599 65.5633 28.4757C65.6714 27.8902 66.9535 27.4588 67.8494 28.0597C68.6063 28.5527 69.5486 26.858 68.8689 26.0722C68.3746 25.5022 65.5015 27.1045 64.5283 25.0246C64.1421 24.1926 64.621 23.4838 64.2349 23.4222C63.8332 23.3606 62.0259 22.9754 60.0178 24.5778C56.6349 27.2894 52.9585 25.8103 52.0935 25.2094C51.9545 25.1632 51.8309 25.271 51.8773 25.4098C52.0162 25.7641 51.9545 26.0876 51.7845 26.3342C51.4293 26.8734 50.2089 27.4126 49.9927 27.4742C48.5716 27.8902 48.7106 28.9841 48.8651 29.4618C48.9114 29.6158 48.8497 29.6928 48.6952 29.6774C48.2626 29.6004 47.3821 29.323 47.0269 28.4757C46.996 28.3833 46.8878 28.3678 46.7643 28.4603C46.2391 28.8301 46.4245 29.3847 46.548 29.6312C46.5944 29.7237 46.5635 29.8161 46.4399 29.8315C45.961 29.8931 45.6057 29.323 45.1887 29.3693C44.9106 29.4001 44.6017 29.6004 44.4163 29.7237C44.3391 29.7698 44.3237 29.9086 44.37 30.078C44.8952 31.6495 44.0301 31.7111 43.9684 31.6803C43.9066 31.6495 43.9375 31.3876 43.6903 31.3414C42.8253 31.3876 42.5936 30.833 42.5473 30.417C42.5318 30.2783 42.47 30.2321 42.3928 30.2937C42.0684 30.5248 41.2652 30.9562 40.7554 30.3091C40.6781 30.2166 40.4465 30.3091 40.3074 30.3707C40.1993 30.417 40.1993 30.2474 40.1993 30.1858C40.2611 29.2922 40.8635 28.8762 41.2033 28.7222C41.3269 28.6606 41.3424 28.599 41.2342 28.5219C40.9562 28.3216 40.4773 27.8902 40.6318 27.4126C40.6627 27.3202 40.2302 27.1507 40.3383 27.0737C41.3269 26.365 42.5936 27.5358 42.7481 27.6746C42.918 27.8132 43.8139 27.844 46.1001 26.5498C47.5521 25.7333 48.3089 25.0554 48.7261 24.547C48.7724 24.4853 48.8805 24.3774 49.035 24.3774C49.9618 24.3466 50.8732 24.208 51.5837 23.5917C51.7073 23.4685 51.8154 23.5455 51.8773 23.5763C53.1902 24.4853 53.8545 22.4824 54.1325 21.558C54.1634 21.3731 54.2097 21.219 54.4105 21.2037C59.23 21.4348 68.3592 21.4039 68.3592 21.4039C68.3592 21.4039 69.5641 21.4964 69.5022 20.7569C69.4096 19.5551 64.4202 19.5859 60.7129 20.0944C59.369 20.2793 57.4073 20.3871 56.2487 19.9403C55.7699 19.7554 55.3837 19.4627 55.1674 19.0775C54.9357 18.5845 54.9975 18.2918 55.0439 17.9836C55.1057 17.7679 55.2137 17.5214 55.3682 17.2749C56.326 15.8113 58.5194 15.688 59.2145 15.688C59.3381 15.688 59.4308 15.6264 59.4462 15.5339C59.5081 15.195 59.7706 14.4092 60.6974 14.363C60.9601 14.3476 61.2226 14.2552 61.3925 14.1781C61.5007 14.1319 61.5779 14.1627 61.547 14.2552C61.5161 14.3784 61.4698 14.5325 61.3308 14.6558C60.682 15.2104 60.7747 15.4723 60.8519 15.5339C60.8983 15.5648 60.9601 15.5494 61.0064 15.5031C62.9681 13.793 64.1113 14.9331 64.4665 15.3028C64.5283 15.3645 64.5437 15.4723 64.4202 15.5031C63.0917 15.7959 62.5665 16.9822 59.8479 16.7973C59.5235 16.7819 57.2837 16.6586 56.5731 17.6755C56.1715 18.261 56.4495 18.8002 57.6544 19.0775C58.5657 19.2778 60.6974 18.9697 61.7015 18.8926C62.6901 18.8156 66.9689 18.2764 69.2242 18.9234C70.1665 19.2008 71.5567 19.9557 71.2786 21.3886C71.0933 22.2975 70.2282 22.6519 70.2282 22.6519C70.2282 22.6519 67.7567 24.3774 72.19 24.4083C73.5648 24.4083 72.2055 25.5484 72.1437 25.8719C72.1437 26.0876 72.3599 26.3034 72.5762 26.4266ZM64.4511 16.859C64.3121 16.8898 64.1267 16.936 63.9105 17.0746C63.5088 17.3366 61.9023 17.999 61.408 17.2133C61.408 17.2133 62.5357 17.1825 63.2617 16.5354C63.2617 16.5354 64.0494 16.2734 64.5129 16.6894C64.5746 16.7202 64.5746 16.8281 64.4511 16.859ZM53.8853 8C38.8091 8 23.8101 12.0058 23.8101 12.0058V32.0038C23.8101 50.0298 36.7546 68.7646 53.8853 72C71.6493 68.5334 83.9761 50.0145 83.9761 32.0038V12.0058C83.9606 12.0058 71.3868 8 53.8853 8ZM79.4965 39.3067C79.4965 53.9894 68.3129 67.3009 53.8853 67.3163H53.8699C39.4424 67.3009 28.2588 53.974 28.2588 39.3067C28.2588 22.0665 28.2588 14.0395 28.2588 14.0395L28.6295 13.9316C28.6604 13.9316 41.6205 9.91045 53.8699 9.91045C66.1193 9.91045 79.1103 13.9316 79.1103 13.9316L79.481 14.0395C79.4965 14.0395 79.4965 22.0665 79.4965 39.3067Z" fill="#141414"/>
</svg>
