<svg width="294" height="80" viewBox="0 0 294 80" fill="none" xmlns="http://www.w3.org/2000/svg">
<path d="M10.4803 8.26758H63.689V28.4078C63.689 37.5965 60.27 57.149 37.2984 71.6799C37.2984 71.6799 12.4036 61.2626 10.4803 28.4078V8.26758Z" fill="#A51C30"/>
<path d="M37.192 72L37.0317 71.9466C36.7646 71.8397 11.9232 61.1018 10 28.4073V8H63.8497V28.4073C63.8497 36.4741 61.2855 56.7746 37.2988 71.9466L37.192 72ZM10.6945 8.58764V28.3539C12.5109 59.3389 35.1085 70.3439 37.192 71.2521C60.7512 56.2404 63.3155 36.2604 63.3155 28.3539V8.58764H10.6945Z" fill="#1E1E1E"/>
<path d="M50.7612 34.1241C50.7612 34.1241 50.2804 35.6199 48.197 34.0706L40.9315 33.9104C40.9315 33.9104 39.9699 34.2309 39.8631 33.2159C39.8631 33.2159 40.0233 31.2392 39.9699 31.079C39.9699 31.079 40.0233 30.4913 39.0617 30.4913C39.0617 30.4913 37.5659 30.6516 37.5659 29.3695C37.5659 29.3695 37.2988 27.9805 39.3289 28.0339C39.3289 28.0339 39.9699 28.3544 40.0233 27.4997C40.0233 27.4997 39.9165 21.8903 39.9699 21.463C39.9699 21.463 40.1302 20.9287 39.1686 20.8753C39.1686 20.8753 37.7262 21.1958 37.5659 20.2342C37.5659 20.2342 37.4591 18.7918 38.4207 18.7384C38.4207 18.7384 39.596 18.8453 39.8097 18.5247C39.8097 18.5247 40.0768 18.685 40.0233 17.67L40.0768 15.907C40.0768 15.907 40.1836 15.4262 40.9315 15.4796C40.9315 15.4796 42.2671 15.5865 42.4274 15.4262C42.4274 15.4262 42.7479 15.0523 42.8013 14.892C42.8013 14.892 43.4958 14.8386 43.6026 14.9988C43.6026 14.9988 44.6177 15.6933 48.5709 15.4262C48.5709 15.4262 49.1586 15.4262 49.3188 15.5865C49.3188 15.5865 50.0668 16.1741 50.4941 15.5331C50.4941 15.5331 51.1352 15.4262 53.0584 15.4262C53.0584 15.4262 55.1953 15.9604 56.6377 14.7852L57.1185 14.892C57.1185 14.892 57.7061 15.907 58.1335 15.5865C58.1335 15.5865 59.4157 15.4796 59.6294 15.6933C59.6294 15.6933 60.0567 16.3344 59.843 18.0439C59.843 18.0439 59.5759 18.7918 60.8581 18.7918C60.8581 18.7918 62.3005 18.5247 62.0868 19.8603C62.0868 19.8603 62.4607 21.3561 60.1102 21.1424C60.1102 21.1424 59.7896 21.5698 59.843 21.8903C59.843 21.8903 59.7896 26.8052 59.7362 27.3394C59.7362 27.3394 59.6828 28.0873 60.7512 28.0873C60.7512 28.0873 62.1402 27.9805 62.1936 29.2626C62.1936 29.2626 62.3539 30.9187 60.3773 30.5982C60.3773 30.5982 59.7896 30.705 59.6828 31.079L59.5759 33.2159C59.5759 33.2159 59.6294 34.2843 58.4006 34.0172C58.2404 34.0172 51.6694 34.1241 51.1352 33.9638C51.1352 33.9638 50.8147 33.9638 50.7612 34.1241Z" fill="white"/>
<path d="M36.8183 41.3337C36.8183 41.3337 37.1388 41.2269 37.1922 41.0132C37.1922 41.0132 38.1004 40.9064 38.2073 40.7995L41.0386 41.0132C41.0386 41.0132 43.8166 41.2269 45.0453 40.3721C45.0453 40.3721 45.4727 40.3721 45.7932 40.479C45.7932 40.479 46.3809 40.5858 46.5411 40.8529L48.1972 40.7995C48.1972 40.7995 49.1588 41.12 49.052 41.7077V42.509C49.052 42.509 48.8917 44.0583 49.3191 44.1651H50.5478C50.5478 44.1651 51.5628 44.6459 51.456 45.2336C51.456 45.2336 51.5094 46.0883 50.6012 46.2486C50.6012 46.2486 49.6931 46.5157 49.3725 46.4623C49.3725 46.4623 49.052 46.8362 48.9986 47.317L48.8917 52.9798C48.8917 52.9798 48.7849 53.5675 49.6931 53.514C49.6931 53.514 51.0286 53.4072 51.4026 54.1017C51.4026 54.1017 51.7231 55.3304 51.082 55.5441L50.5478 55.8112L49.4259 55.9715C49.4259 55.9715 48.9451 56.0249 48.8917 56.8262V58.3221C48.8917 58.3221 48.9451 59.3371 48.1438 59.3371L46.9151 59.4439C46.9151 59.4439 46.5946 59.711 46.0069 59.5508C46.0069 59.5508 38.6881 59.6576 38.4209 59.6042L37.5662 59.7645C37.5662 59.7645 36.6046 60.6192 35.8567 59.9781L35.269 59.4973C35.269 59.4973 34.8416 59.6042 34.6814 59.5508C34.5211 59.4973 26.5612 59.6576 26.5612 59.6576C26.5612 59.6576 24.8517 59.8179 24.7448 59.2837C24.7448 59.2837 24.5311 57.0933 24.638 56.8262C24.638 56.8262 24.638 56.1852 24.264 56.1317C24.264 56.1317 22.5545 56.0249 22.5545 55.8646C22.5545 55.8646 21.6463 55.2236 21.9134 54.5825C21.9134 54.5825 22.234 53.7277 23.1421 53.6209C23.1421 53.6209 24.5311 53.8346 24.5311 53.4606C24.5311 53.4606 24.638 53.1935 24.638 52.7661C24.638 52.7661 24.7448 47.6376 24.6914 47.2636C24.6914 47.2636 24.7982 46.6226 24.264 46.6226C24.264 46.6226 23.6764 46.7828 23.249 46.5157C23.249 46.5157 22.234 46.5691 22.0203 45.7678C22.0203 45.7678 21.86 45.2336 22.1271 44.8062C22.1271 44.8062 22.6079 43.8446 23.9969 44.1651C23.9969 44.1651 24.7448 44.3788 24.8517 43.8446L24.7982 41.7611C24.7982 41.7611 24.638 41.1735 25.7064 40.9064C25.7064 40.9064 27.0954 41.2803 27.5228 40.5858C27.5228 40.5858 28.0036 39.6242 28.3775 40.2653C28.3775 40.2653 29.1789 41.0666 31.4226 40.9598C31.4226 40.9598 35.3224 40.6392 35.3759 40.8529C35.3759 40.8529 36.3375 40.9598 36.6046 41.2803L36.8183 41.3337Z" fill="white"/>
<path d="M25.1185 34.1228C25.1185 34.1228 24.6377 35.6186 22.5543 34.0694L15.2888 33.9091C15.2888 33.9091 14.3272 34.2296 14.2204 33.2146C14.2204 33.2146 14.3806 31.238 14.3272 31.0777C14.3272 31.0777 14.3806 30.4901 13.419 30.4901C13.419 30.4901 11.9766 30.6503 11.9232 29.3682C11.9232 29.3682 11.6561 27.9792 13.6862 28.0326C13.6862 28.0326 14.3272 28.3532 14.3806 27.4984C14.3806 27.4984 14.2738 21.8891 14.3272 21.4617C14.3272 21.4617 14.4875 20.9275 13.5259 20.874C13.5259 20.874 12.0835 21.1946 11.9232 20.233C11.9232 20.233 11.8164 18.7906 12.778 18.7371C12.778 18.7371 13.9533 18.844 14.167 18.5235C14.167 18.5235 14.4341 18.6837 14.3806 17.6687L14.4341 15.9058C14.4341 15.9058 14.5409 15.425 15.2888 15.4784C15.2888 15.4784 16.6244 15.5852 16.7847 15.425C16.7847 15.425 17.1052 15.051 17.1586 14.8373C17.1586 14.8373 17.8531 14.7839 17.9599 14.9442C17.9599 14.9442 18.975 15.6387 22.9282 15.3715C22.9282 15.3715 23.5159 15.3715 23.6761 15.5318C23.6761 15.5318 24.4241 16.066 24.8514 15.4784C24.8514 15.4784 25.4925 15.3715 27.4157 15.3715C27.4157 15.3715 29.4992 15.9058 30.995 14.7305L31.4758 14.8373C31.4758 14.8373 32.0634 15.8523 32.4908 15.5318C32.4908 15.5318 33.773 15.425 33.9867 15.6387C33.9867 15.6387 34.414 16.2797 34.2003 17.9892C34.2003 17.9892 33.9332 18.7371 35.2154 18.7371C35.2154 18.7371 36.6578 18.47 36.4441 19.8056C36.4441 19.8056 36.818 21.3014 34.4675 21.0877C34.4675 21.0877 34.1469 21.5151 34.2003 21.8356C34.2003 21.8356 34.1469 26.7505 34.0935 27.2847C34.0935 27.2847 34.0401 28.0326 35.1085 28.0326C35.1085 28.0326 36.4975 27.9258 36.5509 29.2079C36.5509 29.2079 36.7112 30.864 34.7346 30.5435C34.7346 30.5435 34.1469 30.6503 34.0401 31.0243L33.9332 33.1612C33.9332 33.1612 33.9867 34.2296 32.7579 33.9625C32.5977 33.9625 26.0267 34.0694 25.4925 33.9091C25.4925 33.9625 25.172 33.9625 25.1185 34.1228Z" fill="white"/>
<path d="M50.7612 34.1241C50.7612 34.1241 50.2804 35.6199 48.197 34.0706L40.9315 33.9104C40.9315 33.9104 39.9699 34.2309 39.8631 33.2159C39.8631 33.2159 40.0233 31.2392 39.9699 31.079C39.9699 31.079 40.0233 30.4913 39.0617 30.4913C39.0617 30.4913 37.5659 30.6516 37.5659 29.3695C37.5659 29.3695 37.2988 27.9805 39.3289 28.0339C39.3289 28.0339 39.9699 28.3544 40.0233 27.4997C40.0233 27.4997 39.9165 21.8903 39.9699 21.463C39.9699 21.463 40.1302 20.9287 39.1686 20.8753C39.1686 20.8753 37.7262 21.1958 37.5659 20.2342C37.5659 20.2342 37.4591 18.7918 38.4207 18.7384C38.4207 18.7384 39.596 18.8453 39.8097 18.5247C39.8097 18.5247 40.0768 18.685 40.0233 17.67L40.0768 15.907C40.0768 15.907 40.1836 15.4262 40.9315 15.4796C40.9315 15.4796 42.2671 15.5865 42.4274 15.4262C42.4274 15.4262 42.7479 15.0523 42.8013 14.892C42.8013 14.892 43.4958 14.8386 43.6026 14.9988C43.6026 14.9988 44.6177 15.6933 48.5709 15.4262C48.5709 15.4262 49.1586 15.4262 49.3188 15.5865C49.3188 15.5865 50.0668 16.1741 50.4941 15.5331C50.4941 15.5331 51.1352 15.4262 53.0584 15.4262C53.0584 15.4262 55.1953 15.9604 56.6377 14.7852L57.1185 14.892C57.1185 14.892 57.7061 15.907 58.1335 15.5865C58.1335 15.5865 59.4157 15.4796 59.6294 15.6933C59.6294 15.6933 60.0567 16.3344 59.843 18.0439C59.843 18.0439 59.5759 18.7918 60.8581 18.7918C60.8581 18.7918 62.3005 18.5247 62.0868 19.8603C62.0868 19.8603 62.4607 21.3561 60.1102 21.1424C60.1102 21.1424 59.7896 21.5698 59.843 21.8903C59.843 21.8903 59.7896 26.8052 59.7362 27.3394C59.7362 27.3394 59.6828 28.0873 60.7512 28.0873C60.7512 28.0873 62.1402 27.9805 62.1936 29.2626C62.1936 29.2626 62.3539 30.9187 60.3773 30.5982C60.3773 30.5982 59.7896 30.705 59.6828 31.079L59.5759 33.2159C59.5759 33.2159 59.6294 34.2843 58.4006 34.0172C58.2404 34.0172 51.6694 34.1241 51.1352 33.9638C51.1352 33.9638 50.8147 33.9638 50.7612 34.1241Z" fill="#1E1E1E"/>
<path d="M50.7612 34.1241C50.7612 34.1241 50.2804 35.6199 48.197 34.0706L40.9315 33.9104C40.9315 33.9104 39.9699 34.2309 39.8631 33.2159C39.8631 33.2159 40.0233 31.2392 39.9699 31.079C39.9699 31.079 40.0233 30.4913 39.0617 30.4913C39.0617 30.4913 37.5659 30.6516 37.5659 29.3695C37.5659 29.3695 37.2988 27.9805 39.3289 28.0339C39.3289 28.0339 39.9699 28.3544 40.0233 27.4997C40.0233 27.4997 39.9165 21.8903 39.9699 21.463C39.9699 21.463 40.1302 20.9287 39.1686 20.8753C39.1686 20.8753 37.7262 21.1958 37.5659 20.2342C37.5659 20.2342 37.4591 18.7918 38.4207 18.7384C38.4207 18.7384 39.596 18.8453 39.8097 18.5247C39.8097 18.5247 40.0768 18.685 40.0233 17.67L40.0768 15.907C40.0768 15.907 40.1836 15.4262 40.9315 15.4796C40.9315 15.4796 42.2671 15.5865 42.4274 15.4262C42.4274 15.4262 42.7479 15.0523 42.8013 14.892C42.8013 14.892 43.4958 14.8386 43.6026 14.9988C43.6026 14.9988 44.6177 15.6933 48.5709 15.4262C48.5709 15.4262 49.1586 15.4262 49.3188 15.5865C49.3188 15.5865 50.0668 16.1741 50.4941 15.5331C50.4941 15.5331 51.1352 15.4262 53.0584 15.4262C53.0584 15.4262 55.1953 15.9604 56.6377 14.7852L57.1185 14.892C57.1185 14.892 57.7061 15.907 58.1335 15.5865C58.1335 15.5865 59.4157 15.4796 59.6294 15.6933C59.6294 15.6933 60.0567 16.3344 59.843 18.0439C59.843 18.0439 59.5759 18.7918 60.8581 18.7918C60.8581 18.7918 62.3005 18.5247 62.0868 19.8603C62.0868 19.8603 62.4607 21.3561 60.1102 21.1424C60.1102 21.1424 59.7896 21.5698 59.843 21.8903C59.843 21.8903 59.7896 26.8052 59.7362 27.3394C59.7362 27.3394 59.6828 28.0873 60.7512 28.0873C60.7512 28.0873 62.1402 27.9805 62.1936 29.2626C62.1936 29.2626 62.3539 30.9187 60.3773 30.5982C60.3773 30.5982 59.7896 30.705 59.6828 31.079L59.5759 33.2159C59.5759 33.2159 59.6294 34.2843 58.4006 34.0172C58.2404 34.0172 51.6694 34.1241 51.1352 33.9638C51.1352 33.9638 50.8147 33.9638 50.7612 34.1241Z" stroke="#1E1E1E" stroke-width="0.0876127"/>
<path d="M42.5873 16.3373C42.5873 16.3373 42.6942 17.192 42.6942 17.4057C42.6942 17.6194 42.5873 29.8531 42.5873 29.8531C42.5873 29.8531 42.6942 30.8147 41.8928 31.2955C41.8928 31.2955 41.6792 31.4024 41.6257 30.7613L41.7326 17.8331C41.6792 17.8331 41.786 16.2839 42.5873 16.3373Z" fill="white"/>
<path d="M42.5873 16.3373C42.5873 16.3373 42.6942 17.192 42.6942 17.4057C42.6942 17.6194 42.5873 29.8531 42.5873 29.8531C42.5873 29.8531 42.6942 30.8147 41.8928 31.2955C41.8928 31.2955 41.6792 31.4024 41.6257 30.7613L41.7326 17.8331C41.6792 17.8331 41.786 16.2839 42.5873 16.3373Z" stroke="#1E1E1E" stroke-width="0.0919933"/>
<path d="M41.145 31.4524C41.145 31.4524 41.2519 19.2721 41.1984 19.0584C41.145 18.8448 41.2519 19.2187 41.2519 19.2187C41.2519 19.2187 41.145 17.0818 41.6793 16.2271C41.6793 16.2271 41.519 15.4791 40.504 16.3873L40.4505 18.1503C40.4505 18.1503 40.4505 19.1653 39.5424 19.1119C39.5424 19.1119 38.5273 19.0584 38.0465 19.5392C38.0465 19.5392 37.7794 20.5008 38.7944 20.3406C38.7944 20.3406 40.3437 20.3406 40.4505 20.9817L40.3437 27.4992C40.3437 27.4992 40.7176 28.5676 39.4889 28.5676C39.4889 28.5676 37.9931 28.4608 38.0465 29.369C38.0465 29.369 38.3671 30.1169 39.5958 29.9032C39.5958 29.9032 40.504 30.0635 40.4505 30.9182V32.5743C40.4505 32.5743 40.3437 33.2154 41.1984 33.2688H47.9297C47.9297 33.2688 48.2502 33.3222 48.2502 32.8948C48.2502 32.8948 48.1968 32.5743 47.716 32.5743L42.1066 32.4675C42.1601 32.4675 41.2519 32.788 41.145 31.4524Z" fill="white"/>
<path d="M42.4806 31.4001C42.4806 31.4001 42.3203 31.9878 42.9614 31.8809H47.3954L48.6241 32.1481C48.6241 32.1481 49.8529 31.8275 48.6241 31.133C48.6241 31.133 44.6709 31.1865 44.2969 31.0796C44.2969 31.0796 43.4956 30.8659 43.2819 30.8125C43.2819 30.8659 42.8545 30.7057 42.4806 31.4001Z" fill="white"/>
<path d="M42.4806 31.4001C42.4806 31.4001 42.3203 31.9878 42.9614 31.8809H47.3954L48.6241 32.1481C48.6241 32.1481 49.8529 31.8275 48.6241 31.133C48.6241 31.133 44.6709 31.1865 44.2969 31.0796C44.2969 31.0796 43.4956 30.8659 43.2819 30.8125C43.2819 30.8659 42.8545 30.7057 42.4806 31.4001Z" stroke="#1E1E1E" stroke-width="0.0919933"/>
<path d="M49.8523 32.0408C49.8523 32.0408 49.0509 32.0408 49.1044 33.1092C49.1044 33.1092 49.2112 33.9106 50.066 33.9106C50.066 33.9106 50.8139 33.8037 50.7605 32.8955C50.707 32.9489 50.2262 31.8271 49.8523 32.0408Z" fill="white"/>
<path d="M50.4402 31.613C50.4402 31.613 50.8141 31.1856 51.0812 31.1856C51.0812 31.1856 55.4085 31.5595 56.1029 31.0787C56.1029 31.0787 56.744 30.9719 56.9043 31.0787C56.9043 31.0787 57.5453 31.613 57.5453 31.8801C57.5453 31.8801 57.4919 32.254 56.744 32.0403C56.744 32.0403 51.8826 32.0938 51.6155 32.0938C51.6689 32.0938 50.3333 32.3609 50.4402 31.613Z" fill="white"/>
<path d="M50.4402 31.613C50.4402 31.613 50.8141 31.1856 51.0812 31.1856C51.0812 31.1856 55.4085 31.5595 56.1029 31.0787C56.1029 31.0787 56.744 30.9719 56.9043 31.0787C56.9043 31.0787 57.5453 31.613 57.5453 31.8801C57.5453 31.8801 57.4919 32.254 56.744 32.0403C56.744 32.0403 51.8826 32.0938 51.6155 32.0938C51.6689 32.0938 50.3333 32.3609 50.4402 31.613Z" stroke="#1E1E1E" stroke-width="0.0919933"/>
<path d="M51.0282 33.0019C51.0282 33.0019 51.0282 32.6279 51.6158 32.6279L57.6526 32.5745C57.6526 32.5745 58.1868 32.8951 58.1868 31.8266C58.1868 31.8266 58.4005 27.1254 58.4539 21.9435C58.4539 20.3942 58.5073 18.7916 58.4539 17.2957C58.4539 17.2957 58.3471 16.6547 58.1334 16.4944C58.1334 16.4944 58.1334 15.7999 58.8813 16.067C58.8813 16.067 59.5223 16.1204 59.3621 17.082L59.4155 18.5779C59.4155 18.5779 59.3087 19.2189 60.4305 19.0587C60.4305 19.0587 61.6058 19.2189 61.6592 19.6463C61.6592 19.6463 61.9798 20.5011 60.6442 20.4476H59.6292C59.6292 20.4476 59.2018 20.7148 59.3087 21.1956L59.2018 27.446C59.2018 27.446 59.095 28.5144 60.1634 28.461C60.1634 28.461 61.2319 28.4076 61.4456 28.7815C61.4456 28.7815 62.1935 29.85 60.5908 29.7431C60.5908 29.7431 59.5758 29.6897 59.3621 29.85C59.3621 29.85 59.2018 30.0637 59.0416 32.0937C59.0416 32.0937 59.1484 33.3224 58.2402 33.1622C58.2402 33.1622 52.2569 33.269 51.6693 33.1087C51.7227 33.269 51.0816 33.4827 51.0282 33.0019Z" fill="white"/>
<path d="M43.2286 15.9611L43.1218 29.7975C43.1218 29.7975 43.0684 30.4385 44.1368 30.5454C44.1368 30.5454 45.3655 30.6522 45.6861 30.5454C45.6861 30.5454 46.4874 30.4919 48.6243 30.5988C48.6243 30.5988 49.1585 31.133 49.2119 30.4919C49.2119 30.4919 49.5325 19.2732 49.3722 16.9761C49.3722 16.9761 49.3188 15.9611 48.5709 15.9611C48.5709 15.9611 45.3121 16.2282 44.9916 15.9611L43.7094 15.6405C43.7094 15.5871 43.1752 15.5871 43.2286 15.9611Z" fill="white"/>
<path d="M50.0663 16.6532C50.0663 16.6532 49.9595 23.1708 49.9595 23.3845L49.8526 28.8335L49.6924 30.7567C49.6924 30.7567 49.9595 31.1307 50.1732 30.8636C50.1732 30.8636 51.5622 30.4896 52.4169 30.6499C52.4169 30.6499 55.1949 30.917 55.7291 30.4896C55.7291 30.4896 56.1565 30.7033 56.3168 30.0088C56.3168 30.0088 56.477 17.9354 56.4236 17.7217C56.4236 17.7217 56.5839 16.0122 56.477 15.7985C56.477 15.7985 56.4236 15.4245 55.7291 15.7451C55.7291 15.7451 55.8359 16.0656 51.7224 15.9587C51.7224 16.0122 50.1198 15.9587 50.0663 16.6532Z" fill="white"/>
<path d="M56.9049 16.4962L56.8514 30.1189C56.8514 30.1189 57.172 31.3477 57.7596 31.1874C57.7596 31.1874 57.8665 30.9203 57.8665 30.4929L58.0267 17.5113C58.0802 17.5113 57.6528 15.4278 56.9049 16.4962Z" fill="white"/>
<path d="M56.9049 16.4962L56.8514 30.1189C56.8514 30.1189 57.172 31.3477 57.7596 31.1874C57.7596 31.1874 57.8665 30.9203 57.8665 30.4929L58.0267 17.5113C58.0802 17.5113 57.6528 15.4278 56.9049 16.4962Z" stroke="#1E1E1E" stroke-width="0.0919933"/>
<path d="M51.6165 20.5536C51.5097 20.1797 52.3645 20.1797 52.3645 20.1797L52.7918 20.2865C53.1124 20.2331 53.3795 20.3934 53.3795 20.3934C53.7 20.8742 53.1658 21.1413 53.1658 21.1413L53.0055 21.7289C52.9521 22.2097 53.0055 26.3233 53.0055 26.3233C53.1124 26.5369 53.4329 26.9109 53.4329 26.9109C53.4329 27.2849 52.9521 27.2314 52.9521 27.2314L51.7234 27.2849C51.3494 27.2314 51.4563 26.8041 51.4563 26.8041C51.8836 26.5904 52.0439 25.789 52.0439 25.789V21.5152L51.6165 20.5536Z" fill="#1E1E1E"/>
<path d="M45.7929 24.5629L45.686 25.8985L46.06 26.5395C46.3271 26.8601 45.8997 27.1272 45.8997 27.1272L44.5107 27.0203C44.2436 26.9135 44.5107 26.4327 44.5107 26.4327C44.8313 26.219 44.8847 25.6848 44.8847 25.6848L44.8313 23.1739L44.8847 21.3576C44.8847 21.1439 44.5642 20.7699 44.5642 20.7699C44.2436 20.7165 44.3505 20.3425 44.3505 20.3425C44.4573 20.1289 45.1518 20.2357 45.1518 20.2357H46.9682C48.6777 20.8233 48.464 22.0521 48.464 22.0521C48.5708 23.2808 47.2353 23.815 47.2353 23.815L47.1284 24.5095L48.3571 26.4861C48.5708 26.6464 48.5174 26.8601 48.5174 26.8601C48.3571 27.3409 47.6627 26.8601 47.6627 26.8601L46.1134 24.4561C46.06 24.2424 45.7929 24.5629 45.7929 24.5629ZM45.8463 21.1439C45.8997 22.1055 45.8997 23.3876 45.8997 23.3876C46.7011 24.0287 47.1818 23.1205 47.1818 23.1205C48.2503 22.1055 47.1819 21.1439 47.0216 20.8768C46.8613 20.6097 46.0066 20.8233 46.0066 20.8233L45.8463 21.1439Z" fill="#1E1E1E"/>
<path d="M36.8183 41.3337C36.8183 41.3337 37.1388 41.2269 37.1922 41.0132C37.1922 41.0132 38.1004 40.9064 38.2073 40.7995L41.0386 41.0132C41.0386 41.0132 43.8166 41.2269 45.0453 40.3721C45.0453 40.3721 45.4727 40.3721 45.7932 40.479C45.7932 40.479 46.3809 40.5858 46.5411 40.8529L48.1972 40.7995C48.1972 40.7995 49.1588 41.12 49.052 41.7077V42.509C49.052 42.509 48.8917 44.0583 49.3191 44.1651H50.5478C50.5478 44.1651 51.5628 44.6459 51.456 45.2336C51.456 45.2336 51.5094 46.0883 50.6012 46.2486C50.6012 46.2486 49.6931 46.5157 49.3725 46.4623C49.3725 46.4623 49.052 46.8362 48.9986 47.317L48.8917 52.9798C48.8917 52.9798 48.7849 53.5675 49.6931 53.514C49.6931 53.514 51.0286 53.4072 51.4026 54.1017C51.4026 54.1017 51.7231 55.3304 51.082 55.5441L50.5478 55.8112L49.4259 55.9715C49.4259 55.9715 48.9451 56.0249 48.8917 56.8262V58.3221C48.8917 58.3221 48.9451 59.3371 48.1438 59.3371L46.9151 59.4439C46.9151 59.4439 46.5946 59.711 46.0069 59.5508C46.0069 59.5508 38.6881 59.6576 38.4209 59.6042L37.5662 59.7645C37.5662 59.7645 36.6046 60.6192 35.8567 59.9781L35.269 59.4973C35.269 59.4973 34.8416 59.6042 34.6814 59.5508C34.5211 59.4973 26.5612 59.6576 26.5612 59.6576C26.5612 59.6576 24.8517 59.8179 24.7448 59.2837C24.7448 59.2837 24.5311 57.0933 24.638 56.8262C24.638 56.8262 24.638 56.1852 24.264 56.1317C24.264 56.1317 22.5545 56.0249 22.5545 55.8646C22.5545 55.8646 21.6463 55.2236 21.9134 54.5825C21.9134 54.5825 22.234 53.7277 23.1421 53.6209C23.1421 53.6209 24.5311 53.8346 24.5311 53.4606C24.5311 53.4606 24.638 53.1935 24.638 52.7661C24.638 52.7661 24.7448 47.6376 24.6914 47.2636C24.6914 47.2636 24.7982 46.6226 24.264 46.6226C24.264 46.6226 23.6764 46.7828 23.249 46.5157C23.249 46.5157 22.234 46.5691 22.0203 45.7678C22.0203 45.7678 21.86 45.2336 22.1271 44.8062C22.1271 44.8062 22.6079 43.8446 23.9969 44.1651C23.9969 44.1651 24.7448 44.3788 24.8517 43.8446L24.7982 41.7611C24.7982 41.7611 24.638 41.1735 25.7064 40.9064C25.7064 40.9064 27.0954 41.2803 27.5228 40.5858C27.5228 40.5858 28.0036 39.6242 28.3775 40.2653C28.3775 40.2653 29.1789 41.0666 31.4226 40.9598C31.4226 40.9598 35.3224 40.6392 35.3759 40.8529C35.3759 40.8529 36.3375 40.9598 36.6046 41.2803L36.8183 41.3337Z" fill="#1E1E1E"/>
<path d="M36.8174 41.2824C36.8174 41.2824 37.1379 41.1755 37.1913 40.9618C37.1913 40.9618 38.0995 40.855 38.2064 40.7482L41.0377 40.9618C41.0377 40.9618 43.8157 41.1755 45.0444 40.3208C45.0444 40.3208 45.4718 40.3208 45.7923 40.4276C45.7923 40.4276 46.38 40.5345 46.5402 40.8016L48.1963 40.7482C48.1963 40.7482 49.1579 41.0687 49.0511 41.6563V42.4042C49.0511 42.4042 48.8908 43.9535 49.3182 44.0603H50.5469C50.5469 44.0603 51.5619 44.5411 51.4551 45.1288C51.4551 45.1288 51.5085 45.9835 50.6004 46.1438C50.6004 46.1438 49.6922 46.4109 49.3716 46.3575C49.3716 46.3575 49.0511 46.7315 48.9977 47.2123L48.8908 52.875C48.8908 52.875 48.784 53.4627 49.6922 53.4093C49.6922 53.4093 51.0277 53.3024 51.4017 53.9969C51.4017 53.9969 51.7222 55.2256 51.0811 55.4393L50.5469 55.7064L49.4251 55.8667C49.4251 55.8667 48.9443 55.9201 48.8908 56.7214V58.2173C48.8908 58.2173 48.9443 59.2323 48.0895 59.2323L46.8608 59.3391C46.8608 59.3391 46.5403 59.6063 45.9526 59.446C45.9526 59.446 38.6337 59.5528 38.3666 59.4994L37.5119 59.6597C37.5119 59.6597 36.5503 60.5144 35.8024 59.8734L35.2147 59.3926C35.2147 59.3926 34.7873 59.4994 34.6271 59.446C34.4668 59.3926 26.5069 59.5528 26.5069 59.5528C26.5069 59.5528 24.7973 59.7131 24.6905 59.1789C24.6905 59.1789 24.4768 56.9886 24.5837 56.7214C24.5837 56.7214 24.5836 56.0804 24.2097 56.027C24.2097 56.027 22.5002 55.9201 22.5002 55.7598C22.5002 55.7598 21.592 55.1188 21.8591 54.4777C21.8591 54.4777 22.1796 53.6229 23.0878 53.5161C23.0878 53.5161 24.4768 53.7298 24.4768 53.3558C24.4768 53.3558 24.5837 53.0887 24.5837 52.6613C24.5837 52.6613 24.6905 47.5328 24.6371 47.1588C24.6371 47.1588 24.7439 46.5178 24.2097 46.5178C24.2097 46.5178 23.622 46.678 23.1947 46.4109C23.1947 46.4109 22.1796 46.4643 21.966 45.6096C21.966 45.6096 21.8057 45.0754 22.0728 44.648C22.0728 44.648 22.5536 43.6864 23.9426 44.0069C23.9426 44.0069 24.7439 44.2206 24.7973 43.6864L24.7439 41.6029C24.7439 41.6029 24.5837 41.0153 25.6521 40.7482C25.6521 40.7482 27.0411 41.1221 27.4685 40.4276C27.4685 40.4276 27.9493 39.466 28.3232 40.1071C28.3232 40.1071 29.1246 40.9084 31.3683 40.8016C31.3683 40.8016 35.2681 40.481 35.3215 40.6947C35.3215 40.6947 36.2832 40.8016 36.5503 41.1221L36.8174 41.2824Z" stroke="#1E1E1E" stroke-width="0.0876127"/>
<path d="M37.9394 58.2688C37.9394 58.2688 38.4736 58.0017 38.7941 58.1085C39.1146 58.162 44.1898 58.0551 44.1898 58.0551C44.1898 58.0551 46.3801 58.2154 46.754 57.9483L47.2883 57.788C47.2883 57.788 47.502 57.5209 47.502 57.2004C47.502 56.8798 47.5554 55.7045 47.5554 55.7045L47.6622 55.2772C47.6622 55.2772 47.6088 54.8498 47.6622 43.3105C47.6622 43.3105 47.8225 42.4024 47.2883 41.8681C47.2883 41.8681 47.2883 41.5476 47.4485 41.5476C47.6088 41.5476 47.5554 41.601 47.5554 41.601C47.5554 41.601 48.3033 41.3873 48.4636 41.7079C48.4636 41.7079 48.7841 42.7229 48.517 43.364C48.517 43.364 48.4101 44.6461 49.1046 44.6461C49.1046 44.6461 49.3717 44.9132 49.8525 44.753C49.8525 44.753 50.9744 44.8598 50.9744 45.2338C50.9744 45.2338 50.9744 46.0351 50.2265 45.8748L49.2115 45.9817C49.2115 45.9817 48.517 46.0885 48.6238 46.9433C48.7307 47.7446 48.5704 53.6211 48.5704 53.6211C48.5704 53.6211 48.5704 54.3156 49.6389 54.2621C49.6389 54.2621 50.9744 54.2087 50.9744 54.5827C50.9744 54.5827 51.2949 55.4374 50.3868 55.4908C50.3868 55.4908 48.5704 55.4374 48.6772 55.9717C48.6772 55.9717 48.5704 57.2004 48.4636 57.4141C48.4636 57.4141 48.6238 58.4291 48.4101 58.5893C48.4101 58.5893 48.3033 59.1236 47.128 59.0701C47.128 59.0701 39.7023 59.0167 38.527 59.1236C38.4736 58.9633 37.7791 58.8565 37.9394 58.2688Z" fill="white"/>
<path d="M36.6041 57.4668C36.6041 57.4668 37.352 57.5736 37.352 58.2681C37.352 58.9626 37.4054 59.3366 36.978 59.4434C36.5507 59.5503 36.0699 59.39 35.963 58.8558C35.8027 58.2681 36.0164 57.5736 36.6041 57.4668Z" fill="white"/>
<path d="M37.4588 57.0958C37.4588 57.0958 38.2068 56.5615 38.5273 56.6684C38.5273 56.6684 42.4806 56.9355 43.6558 56.7218C44.8846 56.5081 44.1366 56.6684 44.1366 56.6684C44.1366 56.6684 45.1517 56.6684 45.4722 56.2944C45.4722 56.2944 45.7927 56.1876 45.953 56.5081L46.5941 57.2026C46.5941 57.2026 46.6475 57.63 45.8996 57.5766C45.8996 57.5766 38.8478 57.5766 38.6341 57.63C38.6876 57.63 37.352 57.8437 37.4588 57.0958Z" fill="white"/>
<path d="M37.4588 57.0958C37.4588 57.0958 38.2068 56.5615 38.5273 56.6684C38.5273 56.6684 42.4806 56.9355 43.6558 56.7218C44.8846 56.5081 44.1366 56.6684 44.1366 56.6684C44.1366 56.6684 45.1517 56.6684 45.4722 56.2944C45.4722 56.2944 45.7927 56.1876 45.953 56.5081L46.5941 57.2026C46.5941 57.2026 46.6475 57.63 45.8996 57.5766C45.8996 57.5766 38.8478 57.5766 38.6341 57.63C38.6876 57.63 37.352 57.8437 37.4588 57.0958Z" stroke="#1E1E1E" stroke-width="0.0919933"/>
<path d="M27.2554 41.8184C27.2554 41.8184 27.576 41.8184 27.5225 42.3526L27.4157 55.3876C27.4157 55.3876 27.5225 56.2424 26.8281 56.83C26.8281 56.83 26.4541 57.3108 26.4541 56.5629L26.6144 43.2608C26.6144 43.2073 26.6144 42.2457 27.2554 41.8184Z" fill="white"/>
<path d="M27.2554 41.8184C27.2554 41.8184 27.576 41.8184 27.5225 42.3526L27.4157 55.3876C27.4157 55.3876 27.5225 56.2424 26.8281 56.83C26.8281 56.83 26.4541 57.3108 26.4541 56.5629L26.6144 43.2608C26.6144 43.2073 26.6144 42.2457 27.2554 41.8184Z" stroke="#1E1E1E" stroke-width="0.0919933"/>
<path d="M26.561 41.8694C26.561 41.8694 26.0268 42.831 26.0802 43.0446L26.0268 45.9295C26.0268 45.9295 25.9733 47.7992 26.0268 48.0129C26.0802 48.2266 25.9733 53.6757 25.9733 53.6757C25.9733 53.6757 25.9199 54.6907 25.9733 55.0647V57.4153C25.9733 57.4153 25.8665 58.4303 26.6678 58.1632C26.6678 58.1632 34.2538 58.0029 34.7346 58.1098C34.7346 58.1098 35.4291 58.2166 35.162 58.5906C35.162 58.5906 35.162 58.9111 34.6812 58.8042C34.6812 58.8042 31.1019 59.1248 27.8431 59.0179C27.8431 59.0179 25.7062 59.1248 25.546 58.9111C25.546 58.9111 25.2254 58.8577 25.2254 57.629C25.2254 57.629 25.2254 56.4537 25.1186 56.24C25.1186 56.24 25.2254 55.6523 24.1036 55.4921C24.1036 55.4921 22.6077 55.7592 22.5543 54.851C22.5543 54.851 22.768 54.2099 24.2638 54.2633C24.2638 54.2633 25.3323 54.4236 25.1186 53.5689L25.2254 47.2116C25.2254 47.2116 25.3323 46.0897 24.6378 46.0363C24.6378 46.0363 23.9433 45.9829 23.7296 46.0897C23.7296 46.0897 22.5009 46.0897 22.5543 45.3418C22.5543 45.3418 22.9817 44.5939 24.2638 44.7542C24.2638 44.7542 25.2254 44.9144 25.2788 43.846C25.2788 43.846 25.2254 41.6557 25.7596 41.5488C25.7596 41.5488 26.8815 41.6022 26.561 41.8694Z" fill="white"/>
<path d="M27.843 56.1367C27.843 56.1367 28.4306 56.7778 29.4457 56.7244L35.3221 56.8312C35.3221 56.8312 35.9632 56.8846 35.9098 57.2052C35.9098 57.2052 35.8029 57.7394 35.055 57.5257L28.0033 57.4189L27.2553 57.4723C27.2553 57.4723 26.7211 57.3654 27.5759 56.4038L27.843 56.1367Z" fill="white"/>
<path d="M27.843 56.1367C27.843 56.1367 28.4306 56.7778 29.4457 56.7244L35.3221 56.8312C35.3221 56.8312 35.9632 56.8846 35.9098 57.2052C35.9098 57.2052 35.8029 57.7394 35.055 57.5257L28.0033 57.4189L27.2553 57.4723C27.2553 57.4723 26.7211 57.3654 27.5759 56.4038L27.843 56.1367Z" stroke="#1E1E1E" stroke-width="0.0919933"/>
<path d="M45.953 55.6013C45.953 55.6013 46.4872 56.6163 46.7009 56.7231C46.7009 56.7231 47.1817 57.2573 47.0749 56.2957L47.1817 43.8483C47.1817 43.8483 47.0749 43.421 47.1817 42.7265L46.6475 41.7649C46.6475 41.7649 46.1133 41.3375 46.1133 42.032L46.0064 55.2807L45.953 55.6013Z" fill="white"/>
<path d="M45.953 55.6013C45.953 55.6013 46.4872 56.6163 46.7009 56.7231C46.7009 56.7231 47.1817 57.2573 47.0749 56.2957L47.1817 43.8483C47.1817 43.8483 47.0749 43.421 47.1817 42.7265L46.6475 41.7649C46.6475 41.7649 46.1133 41.3375 46.1133 42.032L46.0064 55.2807L45.953 55.6013Z" stroke="#1E1E1E" stroke-width="0.0919933"/>
<path d="M36.3904 49.6694C36.3904 49.6694 36.4438 50.6844 36.2836 51.6994C36.2301 52.2336 36.4438 54.7445 36.2301 56.08C36.2301 56.08 36.1767 56.5074 35.2685 56.1335C35.2685 56.1335 29.766 56.2403 29.5523 56.08C29.5523 56.08 28.0565 56.1335 27.8962 55.3321C27.8962 55.3321 28.1099 49.4022 28.0031 49.1886C28.0031 49.1886 27.8962 45.9298 28.0031 45.6627C28.0031 45.6627 28.1099 42.671 28.0565 42.3505C28.0565 42.3505 28.1099 41.656 27.9497 41.3355C27.9497 41.3355 27.9497 40.9081 28.6976 41.1752C28.6976 41.1752 28.9647 41.656 30.3537 41.4423C30.3537 41.4423 31.3687 41.6026 32.3837 41.4957C32.3837 41.4957 34.574 41.3355 35.1617 41.4957C35.1617 41.4957 36.0164 41.3355 36.2836 42.2971L36.2301 44.9682L36.4972 45.823L36.8178 45.6093L36.9246 44.9682L36.978 42.1368C36.978 42.1368 37.1383 41.6026 37.8328 41.5492C37.8328 41.5492 38.9012 41.4423 39.1149 41.4957C39.2752 41.6026 41.6258 41.7094 42.2669 41.6026C42.9079 41.4957 43.0148 42.03 44.9914 41.0684C44.9914 41.0684 45.5256 41.1218 45.5256 41.4423C45.5256 41.4423 45.3654 45.1285 45.5256 45.823C45.5256 45.823 45.5256 52.5542 45.4188 53.035L45.5256 55.1719C45.5256 55.1719 45.6325 56.1335 44.0832 56.1869C44.0832 56.1869 45.0448 56.2937 39.0615 56.1335C39.0615 56.1335 38.0999 56.08 37.0849 56.5608C37.0849 56.5608 36.8712 56.5074 36.8712 55.9732C36.8712 55.9732 37.0315 53.9432 36.8712 51.9665L36.7643 49.7762L36.3904 49.6694Z" fill="white"/>
<path d="M32.4907 46.6261C32.4907 46.6261 32.5975 49.8314 32.4907 50.2588L32.4373 50.9533C32.4373 50.9533 32.5975 51.4341 32.8646 51.5944C32.8646 51.5944 33.0783 52.182 32.5441 52.1286C32.5441 52.1286 31.4757 52.0218 31.2085 52.0752C31.2085 52.0752 30.6209 52.0752 31.2085 51.3273C31.2085 51.3273 31.4222 51.0067 31.3688 50.2588C31.3688 50.2588 31.3688 46.6261 31.4757 46.4124C31.4757 46.4124 31.5825 45.9316 31.262 45.8248L30.7277 45.8782L30.0867 46.4658C30.0867 46.4658 29.9798 47.1069 29.6593 46.4124V46.0919L30.0333 45.0769L30.3004 45.0234C30.3004 45.0234 30.6743 45.2905 31.0483 45.344H33.0783L33.8262 45.0234C33.8262 45.0234 34.1468 45.0769 34.0399 45.4508C34.0399 45.4508 34.1468 46.4658 33.6126 46.5727C33.6126 46.5727 33.292 46.4658 33.0783 45.985C33.1318 45.9316 32.5441 45.6111 32.4907 46.6261Z" fill="#1E1E1E"/>
<path d="M42.0534 45.4461C42.0534 45.4461 40.3973 45.3393 40.3973 47.1022C40.3973 47.1022 40.237 48.3309 42.0534 49.0788C42.0534 49.0788 43.3889 49.7199 43.2821 50.5212C43.2821 50.5212 43.1218 52.0171 41.6794 51.2692C41.6794 51.2692 40.9849 50.8952 41.0384 50.5212C41.0384 50.5212 40.8247 50.0404 40.5576 50.1473C40.5576 50.1473 40.237 50.2541 40.3973 51.6431C40.3973 51.6431 40.3973 52.2308 41.0384 51.6431L41.3589 51.75C41.3589 51.75 42.5342 52.7116 43.4958 51.5363C43.4958 51.5363 44.5642 50.5212 43.8163 49.3459C43.8163 49.3459 43.2287 48.4912 42.2671 48.0638C42.2671 48.0638 41.3055 47.6364 41.0918 46.8885C41.0918 46.8885 41.4123 45.6064 42.5342 46.3009C42.5342 46.3009 42.9616 46.8351 43.2287 46.8885C43.2287 46.8885 43.5492 46.8885 43.4958 46.0872L43.4424 45.4461C43.4424 45.4461 43.3355 44.9653 42.7479 45.4461C42.7479 45.4461 42.1602 45.6598 42.0534 45.4461Z" fill="#1E1E1E"/>
<path d="M36.7646 44.5393C37.0851 44.753 37.0851 45.1804 37.0851 45.1804C37.9399 47.4775 38.6878 50.7897 38.6878 50.7897C38.9015 51.2171 39.2755 51.5911 39.2755 51.5911C40.0234 51.8582 39.2755 52.0719 39.2755 52.0719C38.9549 52.1787 37.9933 52.0184 37.9933 52.0184C37.4591 51.9116 37.6728 51.7513 37.6728 51.7513C37.8865 51.5376 37.7262 50.6829 37.7262 50.6829C37.6728 50.3623 37.2988 49.7747 37.2988 49.7747C37.1386 49.6679 36.818 50.0952 36.818 50.0952C36.818 50.0952 36.3372 50.2555 36.2838 50.0952C36.2304 49.935 35.9633 49.7747 35.9633 49.7747C35.429 49.7747 35.2153 51.0568 35.2153 51.0568C35.5359 52.1253 35.2153 51.965 35.2153 51.965C34.9482 52.2856 34.1469 52.0719 34.1469 52.0719C33.7729 51.965 34.0401 51.6979 34.0401 51.6979C34.5209 51.5911 34.6277 51.1103 34.6277 51.1103C34.8414 50.7897 36.2304 45.1804 36.2304 45.1804C36.3906 44.8598 36.4975 44.3256 36.7646 44.5393ZM36.0701 47.4241C36.0167 47.6378 35.6961 48.8665 35.6961 48.8665L35.9633 49.2939C35.9633 49.2939 36.6578 49.3473 36.9249 49.3473C37.192 49.3473 37.2454 49.1336 37.2454 48.9199C37.2454 48.7062 36.7646 47.4241 36.7646 47.4241L36.5509 47.1036L36.0701 47.4241Z" fill="#1E1E1E"/>
<path d="M25.1185 34.1228C25.1185 34.1228 24.6377 35.6186 22.5543 34.0694L15.2888 33.9091C15.2888 33.9091 14.3272 34.2296 14.2204 33.2146C14.2204 33.2146 14.3806 31.238 14.3272 31.0777C14.3272 31.0777 14.3806 30.4901 13.419 30.4901C13.419 30.4901 11.9766 30.6503 11.9232 29.3682C11.9232 29.3682 11.6561 27.9792 13.6862 28.0326C13.6862 28.0326 14.3272 28.3532 14.3806 27.4984C14.3806 27.4984 14.2738 21.8891 14.3272 21.4617C14.3272 21.4617 14.4875 20.9275 13.5259 20.874C13.5259 20.874 12.0835 21.1946 11.9232 20.233C11.9232 20.233 11.8164 18.7906 12.778 18.7371C12.778 18.7371 13.9533 18.844 14.167 18.5235C14.167 18.5235 14.4341 18.6837 14.3806 17.6687L14.4341 15.9058C14.4341 15.9058 14.5409 15.425 15.2888 15.4784C15.2888 15.4784 16.6244 15.5852 16.7847 15.425C16.7847 15.425 17.1052 15.051 17.1586 14.8373C17.1586 14.8373 17.8531 14.7839 17.9599 14.9442C17.9599 14.9442 18.975 15.6387 22.9282 15.3715C22.9282 15.3715 23.5159 15.3715 23.6761 15.5318C23.6761 15.5318 24.4241 16.066 24.8514 15.4784C24.8514 15.4784 25.4925 15.3715 27.4157 15.3715C27.4157 15.3715 29.4992 15.9058 30.995 14.7305L31.4758 14.8373C31.4758 14.8373 32.0634 15.8523 32.4908 15.5318C32.4908 15.5318 33.773 15.425 33.9867 15.6387C33.9867 15.6387 34.414 16.2797 34.2003 17.9892C34.2003 17.9892 33.9332 18.7371 35.2154 18.7371C35.2154 18.7371 36.6578 18.47 36.4441 19.8056C36.4441 19.8056 36.818 21.3014 34.4675 21.0877C34.4675 21.0877 34.1469 21.5151 34.2003 21.8356C34.2003 21.8356 34.1469 26.7505 34.0935 27.2847C34.0935 27.2847 34.0401 28.0326 35.1085 28.0326C35.1085 28.0326 36.4975 27.9258 36.5509 29.2079C36.5509 29.2079 36.7112 30.864 34.7346 30.5435C34.7346 30.5435 34.1469 30.6503 34.0401 31.0243L33.9332 33.1612C33.9332 33.1612 33.9867 34.2296 32.7579 33.9625C32.5977 33.9625 26.0267 34.0694 25.4925 33.9091C25.4925 33.9625 25.172 33.9625 25.1185 34.1228Z" fill="#1E1E1E"/>
<path d="M25.1185 34.1228C25.1185 34.1228 24.6377 35.6186 22.5543 34.0694L15.2888 33.9091C15.2888 33.9091 14.3272 34.2296 14.2204 33.2146C14.2204 33.2146 14.3806 31.238 14.3272 31.0777C14.3272 31.0777 14.3806 30.4901 13.419 30.4901C13.419 30.4901 11.9766 30.6503 11.9232 29.3682C11.9232 29.3682 11.6561 27.9792 13.6862 28.0326C13.6862 28.0326 14.3272 28.3532 14.3806 27.4984C14.3806 27.4984 14.2738 21.8891 14.3272 21.4617C14.3272 21.4617 14.4875 20.9275 13.5259 20.874C13.5259 20.874 12.0835 21.1946 11.9232 20.233C11.9232 20.233 11.8164 18.7906 12.778 18.7371C12.778 18.7371 13.9533 18.844 14.167 18.5235C14.167 18.5235 14.4341 18.6837 14.3806 17.6687L14.4341 15.9058C14.4341 15.9058 14.5409 15.425 15.2888 15.4784C15.2888 15.4784 16.6244 15.5852 16.7847 15.425C16.7847 15.425 17.1052 15.051 17.1586 14.8373C17.1586 14.8373 17.8531 14.7839 17.9599 14.9442C17.9599 14.9442 18.975 15.6387 22.9282 15.3715C22.9282 15.3715 23.5159 15.3715 23.6761 15.5318C23.6761 15.5318 24.4241 16.066 24.8514 15.4784C24.8514 15.4784 25.4925 15.3715 27.4157 15.3715C27.4157 15.3715 29.4992 15.9058 30.995 14.7305L31.4758 14.8373C31.4758 14.8373 32.0634 15.8523 32.4908 15.5318C32.4908 15.5318 33.773 15.425 33.9867 15.6387C33.9867 15.6387 34.414 16.2797 34.2003 17.9892C34.2003 17.9892 33.9332 18.7371 35.2154 18.7371C35.2154 18.7371 36.6578 18.47 36.4441 19.8056C36.4441 19.8056 36.818 21.3014 34.4675 21.0877C34.4675 21.0877 34.1469 21.5151 34.2003 21.8356C34.2003 21.8356 34.1469 26.7505 34.0935 27.2847C34.0935 27.2847 34.0401 28.0326 35.1085 28.0326C35.1085 28.0326 36.4975 27.9258 36.5509 29.2079C36.5509 29.2079 36.7112 30.864 34.7346 30.5435C34.7346 30.5435 34.1469 30.6503 34.0401 31.0243L33.9332 33.1612C33.9332 33.1612 33.9867 34.2296 32.7579 33.9625C32.5977 33.9625 26.0267 34.0694 25.4925 33.9091C25.4925 33.9625 25.172 33.9625 25.1185 34.1228Z" stroke="#1E1E1E" stroke-width="0.0876127"/>
<path d="M16.9445 16.3373C16.9445 16.3373 17.0514 17.192 17.0514 17.4057C17.0514 17.6194 16.9445 29.8531 16.9445 29.8531C16.9445 29.8531 17.0514 30.8147 16.25 31.2955C16.25 31.2955 16.0363 31.4024 15.9829 30.7613L16.0898 17.8331C16.0363 17.8331 16.1432 16.2839 16.9445 16.3373Z" fill="white"/>
<path d="M16.9445 16.3373C16.9445 16.3373 17.0514 17.192 17.0514 17.4057C17.0514 17.6194 16.9445 29.8531 16.9445 29.8531C16.9445 29.8531 17.0514 30.8147 16.25 31.2955C16.25 31.2955 16.0363 31.4024 15.9829 30.7613L16.0898 17.8331C16.0363 17.8331 16.1432 16.2839 16.9445 16.3373Z" stroke="#1E1E1E" stroke-width="0.0919933"/>
<path d="M15.5023 31.4524C15.5023 31.4524 15.6092 19.2721 15.5557 19.0584C15.5023 18.8448 15.6092 19.2187 15.6092 19.2187C15.6092 19.2187 15.5023 17.1352 16.0366 16.2271C16.0366 16.2271 15.8763 15.4791 14.8613 16.3873L14.8078 18.1503C14.8078 18.1503 14.8078 19.1653 13.8997 19.1119C13.8997 19.1119 12.8846 19.0584 12.4038 19.5392C12.4038 19.5392 12.1367 20.5009 13.1517 20.2872C13.1517 20.2872 14.701 20.2872 14.8078 20.9282L14.701 27.4458C14.701 27.4458 15.0749 28.5142 13.8462 28.5142C13.8462 28.5142 12.4038 28.4074 12.4038 29.3155C12.4038 29.3155 12.7244 30.0635 13.9531 29.8498C13.9531 29.8498 14.8613 30.01 14.8078 30.8648V32.5209C14.8078 32.5209 14.701 33.162 15.5557 33.2154H22.287C22.287 33.2154 22.6075 33.2688 22.6075 32.8414C22.6075 32.8414 22.5541 32.5209 22.0733 32.5209L16.4639 32.414C16.5174 32.4675 15.6092 32.788 15.5023 31.4524Z" fill="white"/>
<path d="M16.6778 31.5017C16.6778 31.5017 16.5176 32.0894 17.1586 31.9825H21.5927L22.8214 32.2496C22.8214 32.2496 24.0501 31.9291 22.8214 31.2346C22.8214 31.2346 18.8682 31.288 18.4942 31.1812C18.4942 31.1812 17.6929 30.9675 17.4792 30.9141C17.4792 30.9675 17.0518 30.8072 16.6778 31.5017Z" fill="white"/>
<path d="M16.6778 31.5017C16.6778 31.5017 16.5176 32.0894 17.1586 31.9825H21.5927L22.8214 32.2496C22.8214 32.2496 24.0501 31.9291 22.8214 31.2346C22.8214 31.2346 18.8682 31.288 18.4942 31.1812C18.4942 31.1812 17.6929 30.9675 17.4792 30.9141C17.4792 30.9675 17.0518 30.8072 16.6778 31.5017Z" stroke="#1E1E1E" stroke-width="0.0919933"/>
<path d="M24.0497 32.1462C24.0497 32.1462 23.2484 32.1462 23.2484 33.2147C23.2484 33.2147 23.3553 34.016 24.21 34.016C24.21 34.016 25.0113 33.9092 24.9045 33.001C24.9045 33.0544 24.4237 31.9326 24.0497 32.1462Z" fill="white"/>
<path d="M24.6373 31.7204C24.6373 31.7204 25.0113 31.293 25.2784 31.293C25.2784 31.293 29.6056 31.667 30.3001 31.1862C30.3001 31.1862 30.9412 31.0793 31.1014 31.1862C31.1014 31.1862 31.7425 31.7204 31.7425 31.9875C31.7425 31.9875 31.6891 32.3615 30.9412 32.1478C30.9412 32.1478 26.0797 32.2012 25.8126 32.2012C25.866 32.2012 24.5305 32.4683 24.6373 31.7204Z" fill="white"/>
<path d="M24.6373 31.7204C24.6373 31.7204 25.0113 31.293 25.2784 31.293C25.2784 31.293 29.6056 31.667 30.3001 31.1862C30.3001 31.1862 30.9412 31.0793 31.1014 31.1862C31.1014 31.1862 31.7425 31.7204 31.7425 31.9875C31.7425 31.9875 31.6891 32.3615 30.9412 32.1478C30.9412 32.1478 26.0797 32.2012 25.8126 32.2012C25.866 32.2012 24.5305 32.4683 24.6373 31.7204Z" stroke="#1E1E1E" stroke-width="0.0919933"/>
<path d="M25.3326 33.0012C25.3326 33.0012 25.3326 32.6807 25.9203 32.6807L31.957 32.6272C31.957 32.6272 32.4912 32.9478 32.4912 31.8793C32.4912 31.8793 32.7049 27.1782 32.7583 21.9962C32.7583 20.447 32.8118 18.8443 32.7583 17.3485C32.7583 17.3485 32.6515 16.7074 32.4378 16.5471C32.4378 16.5471 32.4378 15.8526 33.1857 16.1197C33.1857 16.1197 33.8268 16.1732 33.6665 17.1348L33.72 18.6306C33.72 18.6306 33.6131 19.2717 34.735 19.1114C34.735 19.1114 35.9103 19.2717 35.9637 19.699C35.9637 19.699 36.3377 20.5538 34.9487 20.447H33.9336C33.9336 20.447 33.5063 20.7141 33.6131 21.1949L33.5063 27.4453C33.5063 27.4453 33.3994 28.5137 34.4679 28.4603C34.4679 28.4603 35.5363 28.4069 35.75 28.7808C35.75 28.7808 36.4979 29.8493 34.8952 29.7959C34.8952 29.7959 33.9336 29.7424 33.6665 29.9027C33.6665 29.9027 33.5063 30.1164 33.346 32.1464C33.346 32.1464 33.4528 33.3752 32.5447 33.2149C32.5447 33.2149 26.5614 33.3217 25.9737 33.1615C26.0271 33.2683 25.4395 33.482 25.3326 33.0012Z" fill="white"/>
<path d="M17.5858 15.9618L17.479 29.7982C17.479 29.7982 17.4255 30.4393 18.494 30.5462C18.494 30.5462 19.7227 30.653 20.0432 30.5462C20.0432 30.5462 20.8446 30.4927 22.9815 30.5996C22.9815 30.5996 23.5157 31.1338 23.5691 30.4927C23.5691 30.4927 23.8896 19.274 23.7294 16.9235C23.7294 16.9235 23.676 15.9084 22.928 15.9084C22.928 15.9084 19.6693 16.1755 19.3487 15.9084L18.0666 15.5879C18.0666 15.5879 17.5324 15.5879 17.5858 15.9618Z" fill="white"/>
<path d="M31.2618 16.4962L31.2084 30.1189C31.2084 30.1189 31.5289 31.3477 32.1166 31.1874C32.1166 31.1874 32.2234 30.9203 32.2234 30.4929L32.3837 17.5113C32.4371 17.5113 32.0097 15.4278 31.2618 16.4962Z" fill="white"/>
<path d="M31.2618 16.4962L31.2084 30.1189C31.2084 30.1189 31.5289 31.3477 32.1166 31.1874C32.1166 31.1874 32.2234 30.9203 32.2234 30.4929L32.3837 17.5113C32.4371 17.5113 32.0097 15.4278 31.2618 16.4962Z" stroke="#1E1E1E" stroke-width="0.0919933"/>
<path d="M24.4239 16.6005C24.4239 16.6005 24.3171 23.118 24.3171 23.3317L24.2637 28.7808L24.1034 30.704C24.1034 30.704 24.3705 31.078 24.5842 30.8108C24.5842 30.8108 25.9732 30.4903 26.8279 30.5972C26.8279 30.5972 29.6059 30.8643 30.1401 30.4369C30.1401 30.4369 30.5675 30.6506 30.7278 29.9561C30.7278 29.9561 30.888 17.8826 30.8346 17.6689C30.8346 17.6689 30.9949 15.9594 30.9415 15.7457C30.9415 15.7457 30.888 15.3718 30.1935 15.6923C30.1935 15.6923 30.3004 16.0129 26.1869 15.906C26.0266 15.9594 24.4774 15.906 24.4239 16.6005Z" fill="white"/>
<path d="M23.0881 20.6083L22.7142 21.4097C22.7142 21.4097 21.7526 25.5766 21.2718 26.4314C21.2718 26.4314 21.1649 27.2861 20.4704 26.5916C20.4704 26.5916 18.7609 21.3028 18.7075 21.1426L18.1198 20.7686C18.1198 20.7686 17.7993 20.2878 18.387 20.2344L19.9896 20.2878C19.9896 20.2878 20.5239 20.7152 19.8294 21.196C19.8294 21.196 19.9362 21.8905 20.8444 24.5082C20.8444 24.5082 21.1115 25.5232 21.432 24.7753L22.2868 21.7302L22.0197 20.822C22.0197 20.822 21.7526 20.3946 22.1265 20.3412C22.0197 20.3412 22.9279 20.2344 23.0881 20.6083Z" fill="#1E1E1E"/>
<path d="M25.5458 21.2491L25.4924 25.8435L25.3855 26.164C25.3855 26.164 24.9581 26.7516 25.2787 26.7516C25.2787 26.7516 24.9047 27.0188 28.0566 27.0722C28.0566 27.0722 29.2854 27.2859 28.9648 25.7366C28.9648 25.7366 28.858 25.149 28.3772 26.0037C28.3772 26.0037 28.2703 26.6982 26.7211 26.4845C26.7211 26.4845 26.4005 26.164 26.4005 25.8435V23.9203C26.4005 23.9203 26.3471 23.4395 27.095 23.4929C27.095 23.4929 27.8964 24.0271 28.0566 23.8134C28.0566 23.8134 28.3772 23.1189 28.0566 22.6915C28.0566 22.6915 27.6827 22.6381 27.6293 22.7984C27.6293 22.7984 27.3621 23.3326 26.6142 23.0121C26.6142 23.0121 26.2937 22.3176 26.5074 21.7834C26.5074 21.7834 26.4005 20.7149 27.1485 20.7683C27.1485 20.7683 28.0032 20.9286 28.1101 21.1957C28.1101 21.1957 28.3238 21.7299 28.5374 21.0889L28.3238 20.341C28.3238 20.341 28.2169 20.0204 28.0032 20.1273C28.0032 20.1273 26.5608 20.341 26.3471 20.1807L25.1718 20.2875C25.1718 20.2875 25.0116 20.7149 25.5458 20.9286C25.4389 20.982 25.5458 21.0889 25.5458 21.2491Z" fill="#1E1E1E"/>
<path d="M115.224 53.9272C115.224 53.3194 114.837 52.8773 114.064 52.7116V52.3248C114.506 52.3248 115.998 52.38 116.385 52.38C116.771 52.38 118.153 52.3248 118.595 52.3248V52.7116C117.876 52.8773 117.49 53.3194 117.49 53.9272V61.497C117.49 63.873 118.816 65.2543 121.579 65.2543C123.954 65.2543 125.778 64.2045 125.778 61.6628V53.8719C125.778 53.3194 125.446 52.8773 124.562 52.6563V52.2695C124.894 52.2695 126.109 52.3248 126.496 52.3248C126.828 52.3248 128.099 52.2695 128.43 52.2695V52.6563C127.546 52.8773 127.215 53.2641 127.215 53.8719V61.2208C127.215 64.536 125.281 66.4147 121.136 66.4147C117.269 66.4147 115.279 64.6465 115.279 61.5523L115.224 53.9272Z" fill="black"/>
<path d="M131.801 65.9149C132.685 65.7491 133.072 65.3071 133.072 64.7545V54.2562C133.072 53.3721 132.574 52.9853 131.801 52.7643V52.3775C132.243 52.4328 133.016 52.4328 133.403 52.4328C133.79 52.4328 134.343 52.4328 134.674 52.3775L143.736 63.0416V53.9246C143.736 53.3721 143.404 52.9301 142.52 52.709V52.3223C142.852 52.3223 144.012 52.3775 144.454 52.3775C144.786 52.3775 146.057 52.3223 146.388 52.3223V52.709C145.504 52.9301 145.117 53.3168 145.117 53.9246V66.5227H144.565C144.233 66.4674 143.57 66.0806 142.575 64.9755L134.453 55.527V64.7545C134.453 65.3071 134.785 65.7491 135.669 65.9149V66.3016C135.337 66.3016 134.177 66.2464 133.735 66.2464C133.348 66.2464 132.132 66.3016 131.801 66.3016V65.9149Z" fill="black"/>
<path d="M203.522 63.042H203.909C204.13 63.8155 204.572 64.5338 205.18 64.9759C205.843 65.4179 206.837 65.6389 207.666 65.6389C209.489 65.6389 210.65 64.7548 210.65 63.3182C210.65 61.8264 209.158 61.0528 207.39 60.1687C206.064 59.5057 203.467 58.4006 203.467 55.9141C203.467 53.5934 205.235 52.1016 208.108 52.1016C209.987 52.1016 210.871 52.5436 212.142 52.4883L212.086 55.3063H211.81C211.313 53.6487 209.766 53.0409 208.108 53.0409C206.229 53.0409 205.566 54.0907 205.566 55.1958C205.566 56.7429 207.058 57.5165 208.826 58.2901C210.76 59.1741 212.86 60.224 212.86 62.6552C212.86 64.9206 211.092 66.6335 207.777 66.6335C205.843 66.6335 204.682 66.0809 203.632 65.9704L203.522 63.042Z" fill="black"/>
<path d="M242.587 60.4999L238.885 54.5877C238.277 53.5379 237.78 52.9853 237.061 52.7643V52.3775C237.559 52.3775 238.94 52.4328 239.327 52.4328C239.658 52.4328 241.15 52.3775 241.703 52.3775V52.7643C241.205 52.8196 240.984 53.0958 240.984 53.4274C240.984 53.7589 241.205 54.1457 241.426 54.4772C241.647 54.8087 244.134 59.0081 244.134 59.0081L246.786 54.4772C247.062 54.0352 247.228 53.5931 247.228 53.2616C247.228 52.9853 247.007 52.7643 246.565 52.709V52.3223C247.007 52.3223 247.946 52.3775 248.223 52.3775C248.499 52.3775 249.604 52.3223 250.046 52.3223V52.709C249.052 53.1511 248.389 53.9799 247.781 55.0297L244.41 60.6657L242.587 60.4999ZM244.742 59.9474V64.6993C244.742 65.1966 245.073 65.7491 245.902 65.9149V66.3016C245.46 66.3016 243.968 66.2464 243.526 66.2464C243.195 66.2464 241.758 66.3016 241.261 66.3016V65.9149C242.089 65.7491 242.476 65.1966 242.476 64.6993V60.1684" fill="black"/>
<path d="M173.85 52.3259H182.525C182.801 52.3259 183.243 52.3259 183.52 52.1602H183.906L183.851 54.9781H183.464C183.133 54.0941 182.801 53.3758 181.088 53.3758H177.331V58.2934H180.26C180.702 58.2934 181.199 58.2381 181.42 58.1829C182.083 58.0171 182.359 57.6856 182.47 57.1331H182.857C182.801 57.5751 182.801 58.5144 182.801 58.846C182.801 59.1222 182.857 60.1721 182.857 60.6141H182.47C182.304 60.0615 182.028 59.6195 181.42 59.4537C181.199 59.3985 180.702 59.3432 180.26 59.3432H177.331V65.0897H181.42C183.188 65.0897 183.741 64.3714 184.183 63.2663L184.569 63.3768L184.183 66.25C182.857 66.1395 182.028 66.1395 180.536 66.1395H176.226C175.784 66.1395 174.292 66.1948 173.85 66.1948V65.808C174.624 65.6422 175.066 65.2555 175.066 64.5372V53.9283C175.066 53.2652 174.734 52.8785 173.85 52.7127V52.3259Z" fill="black"/>
<path d="M151.637 54.0385C151.637 53.3202 151.195 52.9334 150.367 52.7676V52.3809C150.809 52.3809 152.356 52.4361 152.798 52.4361C153.185 52.4361 154.732 52.3809 155.174 52.3809V52.7676C154.345 52.9334 153.903 53.3202 153.903 54.0385V64.6474C153.903 65.3657 154.345 65.7524 155.174 65.9182V66.305C154.676 66.305 153.24 66.2497 152.798 66.2497C152.411 66.2497 150.864 66.305 150.367 66.305V65.9182C151.251 65.7524 151.637 65.3657 151.637 64.6474V54.0385Z" fill="black"/>
<path d="M217.501 54.0385C217.501 53.3202 217.059 52.9334 216.23 52.7676V52.3809C216.673 52.3809 218.22 52.4361 218.662 52.4361C219.048 52.4361 220.596 52.3809 221.038 52.3809V52.7676C220.209 52.9334 219.767 53.3202 219.767 54.0385V64.6474C219.767 65.3657 220.209 65.7524 221.038 65.9182V66.305C220.596 66.305 219.104 66.2497 218.662 66.2497C218.275 66.2497 216.728 66.305 216.23 66.305V65.9182C217.059 65.7524 217.501 65.3657 217.501 64.6474V54.0385Z" fill="black"/>
<path d="M229.547 52.3806C224.795 52.3806 224.021 52.2701 223.027 52.2148V55.0881H223.413C223.745 53.8172 224.463 53.5409 225.403 53.5409H228.386V64.5918C228.386 65.3654 228 65.6969 227.115 65.8627V66.2495C227.613 66.2495 229.16 66.1942 229.547 66.1942C229.989 66.1942 231.481 66.2495 231.923 66.2495V65.8627C231.094 65.6969 230.652 65.3102 230.652 64.5918V53.5409H233.636C234.575 53.5409 235.293 53.8725 235.625 55.0881H236.012V52.2148C235.072 52.3254 234.354 52.3806 229.547 52.3806Z" fill="black"/>
<path d="M191.587 64.5913C191.587 65.3096 192.029 65.6964 192.857 65.8621V66.2489C192.415 66.2489 190.868 66.1937 190.426 66.1937C190.039 66.1937 188.548 66.2489 188.105 66.2489V65.8621C188.879 65.6964 189.321 65.3096 189.321 64.5913V53.9272C189.321 53.2641 188.99 52.8773 188.105 52.7116V52.3248C188.603 52.3248 190.039 52.38 190.481 52.38C191.144 52.38 193.078 52.2695 193.852 52.2695C197.167 52.2695 199.046 53.6509 199.046 56.0268C199.046 57.9055 197.665 59.1211 195.51 59.6736C195.51 59.6736 196.007 59.9499 196.504 60.5024C197.112 61.1655 198.659 63.4862 199.322 64.2597C199.985 65.0333 200.814 65.9726 201.698 65.9726V66.3042C201.256 66.4147 200.593 66.4699 200.041 66.4699C198.88 66.4699 197.996 66.0831 197.112 64.9781C196.338 64.0387 195.068 62.1601 194.294 61.1655C193.797 60.5577 193.244 60.0604 192.139 59.8946C191.918 59.8394 191.752 59.8394 191.476 59.7841L191.587 64.5913ZM191.587 58.9553C192.029 59.0106 192.692 59.0658 193.355 59.0658C195.952 59.0658 196.78 57.574 196.78 56.2479C196.78 54.3692 195.51 53.2089 193.244 53.2089C192.747 53.2089 192.084 53.2641 191.587 53.3746V58.9553Z" fill="black"/>
<path d="M158.544 54.0937C158.213 53.4307 157.771 52.9334 156.997 52.7676V52.3809C157.494 52.3809 159.207 52.4361 159.594 52.4361C159.925 52.4361 161.417 52.3809 161.97 52.3809V52.7676C161.528 52.8229 160.975 53.0992 160.975 53.5412C160.975 53.8727 161.196 54.3148 161.583 55.1436L165.175 63.3212L168.6 55.1436C168.877 54.4805 169.043 53.9832 169.043 53.5965C169.043 53.1544 168.656 52.8782 168.048 52.7676V52.3809C168.49 52.3809 169.595 52.4361 169.927 52.4361C170.258 52.4361 171.529 52.3809 172.026 52.3809V52.7676C171.197 52.9887 170.645 53.4859 170.203 54.591L165.175 66.4155H164.014L158.544 54.0937Z" fill="black"/>
<path d="M171.363 16.8499C170.755 15.579 169.871 14.6397 168.379 14.3082V13.5898C169.319 13.5898 172.413 13.7004 173.131 13.7004C173.794 13.7004 176.778 13.5898 177.773 13.5898V14.3082C176.944 14.4739 175.949 14.9712 175.949 15.8553C175.949 16.4631 176.336 17.3471 177.054 18.9495L183.851 34.4208L190.315 18.8943C190.813 17.6234 191.2 16.6841 191.2 15.9105C191.2 15.0817 190.426 14.5292 189.376 14.3082V13.5898C190.26 13.5898 192.305 13.7004 192.968 13.7004C193.575 13.7004 196.007 13.5898 196.946 13.5898V14.3082C195.344 14.7502 194.349 15.6895 193.465 17.7339L183.961 40.112H181.806L171.363 16.8499Z" fill="black"/>
<path d="M79.6402 39.2291C80.8558 38.9528 81.7399 38.4002 81.7399 36.9636V16.4642C81.7399 15.1381 80.9111 14.5856 79.6402 14.1988V13.4805C80.3033 13.4805 83.066 13.591 83.7843 13.591C84.5579 13.591 87.4864 13.4805 88.1495 13.4805V14.1988C86.9339 14.475 85.9945 15.0276 85.9945 16.4642V25.0287H101.245V16.4642C101.245 15.0828 100.416 14.5303 99.1452 14.1988V13.4805C99.8082 13.4805 102.681 13.591 103.455 13.591C104.118 13.591 106.991 13.4805 107.654 13.4805V14.1988C106.439 14.475 105.499 15.0276 105.499 16.4642V36.9636C105.499 38.2897 106.384 38.8975 107.654 39.2291V39.8921C106.991 39.8921 104.173 39.8368 103.455 39.8368C102.681 39.8368 99.8082 39.8921 99.1452 39.8921V39.2291C100.361 38.9528 101.245 38.4002 101.245 36.9636V27.2941H85.9393V36.9636C85.9393 38.345 86.7681 38.8975 88.0942 39.2291V39.8921C87.4311 39.8921 84.5026 39.8368 83.7291 39.8368C83.066 39.8368 80.248 39.8921 79.585 39.8921L79.6402 39.2291Z" fill="black"/>
<path d="M256.29 39.2282C257.892 38.952 258.777 38.3442 258.777 36.8523V16.5186C258.777 15.1373 257.892 14.5847 256.401 14.2532V13.5349C257.285 13.5349 260.158 13.6454 260.931 13.6454C262.202 13.6454 265.794 13.3691 268.612 13.3691C278.005 13.3691 283.696 18.6183 283.696 26.575C283.696 34.3106 277.729 40.0571 268.059 40.0571C265.241 40.0571 261.926 39.836 260.655 39.836C259.882 39.836 257.174 39.9465 256.29 39.9465V39.2282ZM262.976 37.9021C263.915 38.0679 265.683 38.1784 267.12 38.1784C275.021 38.1784 279.11 33.4265 279.11 26.796C279.11 19.9444 274.8 15.082 267.396 15.082C265.904 15.082 264.026 15.1925 262.976 15.3583V37.9021Z" fill="black"/>
<path d="M149.924 36.7965C149.924 38.1778 150.808 38.8961 152.356 39.2277V39.946C151.471 39.946 148.598 39.8355 147.769 39.8355C147.051 39.8355 144.233 39.946 143.349 39.946V39.2277C144.841 38.9514 145.67 38.2331 145.67 36.7965V16.5733C145.67 15.3577 145.007 14.5289 143.349 14.2526V13.5343C144.233 13.5343 147.051 13.6448 147.825 13.6448C149.095 13.6448 152.798 13.4238 154.234 13.4238C160.533 13.4238 164.07 16.0208 164.07 20.4964C164.07 24.0327 161.417 26.4086 157.439 27.348C157.439 27.348 158.378 27.9005 159.262 28.9503C160.367 30.2764 163.462 34.6415 164.677 36.1887C165.893 37.6805 167.495 39.3934 169.208 39.4487V40.0565C168.379 40.2222 167.053 40.388 166.059 40.388C163.904 40.388 162.191 39.6144 160.533 37.6253C159.097 35.8571 156.61 32.1551 155.118 30.3317C154.179 29.1714 153.074 28.232 151.029 27.9005C150.643 27.8452 150.256 27.79 149.814 27.7347L149.924 36.7965ZM149.924 26.0771C150.753 26.1876 152.024 26.2429 153.24 26.2429C158.213 26.2429 159.76 23.4249 159.76 20.8832C159.76 17.2916 157.384 15.1367 153.074 15.1367C152.19 15.1367 150.864 15.2472 149.98 15.413V26.0771H149.924Z" fill="black"/>
<path d="M233.249 36.7965C233.249 38.1778 234.133 38.8961 235.68 39.2277V39.946C234.796 39.946 231.923 39.8355 231.094 39.8355C230.376 39.8355 227.558 39.946 226.674 39.946V39.2277C228.165 38.9514 228.994 38.2331 228.994 36.7965V16.5733C228.994 15.3577 228.331 14.5289 226.674 14.2526V13.5343C227.558 13.5343 230.32 13.6448 231.149 13.6448C232.42 13.6448 236.122 13.4238 237.559 13.4238C243.858 13.4238 247.394 16.0208 247.394 20.4964C247.394 24.0327 244.797 26.4086 240.764 27.348C240.764 27.348 241.703 27.9005 242.587 28.9503C243.692 30.2764 246.786 34.6415 248.002 36.1887C249.273 37.6805 250.82 39.3934 252.533 39.4487V40.0565C251.704 40.2222 250.433 40.388 249.439 40.388C247.284 40.388 245.571 39.6144 243.913 37.6253C242.476 35.8571 239.99 32.1551 238.498 30.3317C237.559 29.1714 236.454 28.232 234.465 27.9005C234.078 27.8452 233.691 27.79 233.249 27.7347V36.7965ZM233.249 26.0771C234.078 26.1876 235.349 26.2429 236.564 26.2429C241.482 26.2429 243.084 23.4249 243.084 20.8832C243.084 17.2916 240.708 15.1367 236.398 15.1367C235.514 15.1367 234.188 15.2472 233.304 15.413L233.249 26.0771Z" fill="black"/>
<path d="M111.633 39.2282C113.29 38.8415 114.23 37.7364 114.838 36.2997L123.292 15.9661C123.678 15.1373 124.065 13.3691 124.065 13.3691H126.441C126.441 13.3691 126.883 15.082 127.215 15.9661L136.166 36.355C136.829 37.7364 137.492 38.7862 139.26 39.2282V39.8913C138.266 39.8913 135.282 39.836 134.619 39.836C133.956 39.836 131.083 39.8913 130.088 39.8913V39.2282C131.414 38.8967 131.801 38.2337 131.801 37.6259C131.801 37.0733 131.58 36.4655 131.304 35.8577L129.37 31.4926H119.534L117.766 35.913C117.545 36.4103 117.324 37.1286 117.324 37.5706C117.324 38.2889 117.711 38.8967 119.203 39.2835V39.9465C118.319 39.9465 115.998 39.8913 115.501 39.8913L111.688 39.9465V39.2282H111.633ZM128.486 29.3377L124.286 19.5576L120.363 29.3377H128.486Z" fill="black"/>
<path d="M195.454 39.2282C197.112 38.8415 198.051 37.7364 198.659 36.2997L207.113 15.9661C207.445 15.1373 207.887 13.3691 207.887 13.3691H210.263C210.263 13.3691 210.705 15.082 211.036 15.9661L219.987 36.355C220.595 37.7364 221.314 38.7862 223.082 39.2282V39.8913C222.142 39.8913 219.103 39.836 218.44 39.836C217.777 39.836 214.904 39.8913 213.909 39.8913V39.2282C215.236 38.8967 215.622 38.2337 215.622 37.6259C215.622 37.0733 215.401 36.4655 215.125 35.8577L213.191 31.4926H203.356L201.588 35.913C201.367 36.4103 201.146 37.1286 201.146 37.5706C201.146 38.2889 201.532 38.8967 203.024 39.2835V39.9465C202.14 39.9465 199.819 39.8913 199.267 39.8913L195.454 39.9465V39.2282ZM212.307 29.3377L208.108 19.5576L204.185 29.3377H212.307Z" fill="black"/>
</svg>
