<svg width="320" height="80" viewBox="0 0 320 80" fill="none" xmlns="http://www.w3.org/2000/svg">
<path d="M147.136 6.66602L149.585 15.3726C149.876 16.4883 150.167 17.6037 150.361 18.5254C150.483 19.0587 150.58 19.5681 150.677 20.0534H150.725C150.822 19.5684 150.919 19.0591 151.041 18.5254C151.235 17.6037 151.477 16.4883 151.792 15.3726L154.241 6.66602H159.261V24.0062H155.988V14.0629C155.988 13.3596 155.988 12.4865 156.06 11.7348C156.085 11.3225 156.109 10.8861 156.133 10.4738H156.084C156.012 10.8861 155.915 11.2738 155.842 11.6622C155.672 12.3412 155.502 13.1172 155.332 13.7722L152.349 24.0059H148.979L146.069 13.7722C145.875 13.1175 145.729 12.3415 145.56 11.6622C145.487 11.2742 145.39 10.8861 145.317 10.4738H145.269C145.293 10.8861 145.317 11.3225 145.341 11.7348C145.366 12.4865 145.414 13.3596 145.414 14.0629V24.0062H142.189V6.66602H147.136ZM168.962 22.6238H168.914C168.606 23.1249 168.171 23.535 167.653 23.8122C166.902 24.1614 166.08 24.3276 165.253 24.2972C162.682 24.2972 160.912 22.9875 160.912 20.4898C160.912 19.1317 161.445 18.21 162.367 17.6037C163.288 16.9973 164.5 16.682 165.907 16.488C167.993 16.197 168.915 16.0273 168.915 15.0813C168.915 14.1596 168.236 13.6019 166.829 13.6019C165.277 13.6019 164.525 14.1352 164.429 15.3479H161.496C161.503 14.8013 161.628 14.2626 161.862 13.7687C162.096 13.2748 162.435 12.8373 162.854 12.4862C163.727 11.7345 165.036 11.2495 166.854 11.2495C170.587 11.2495 172.092 12.8985 172.092 15.8333V22.1631C172.092 23.1088 172.238 23.6669 172.529 23.8852V24.0065H169.352C169.128 23.5775 168.995 23.1067 168.962 22.6238ZM168.235 21.2415C168.468 21.0391 168.655 20.7897 168.785 20.5096C168.914 20.2296 168.983 19.9253 168.986 19.6167V17.75C168.404 18.1137 167.531 18.2834 166.682 18.4777C164.936 18.8657 164.112 19.2537 164.112 20.4178C164.112 21.5818 164.888 21.9941 166.052 21.9941C166.848 22.0275 167.628 21.7587 168.235 21.2415H168.235ZM173.255 19.9804H176.31C176.529 21.4355 177.523 22.0418 179.026 22.0418C180.481 22.0418 181.306 21.4841 181.306 20.6111C181.306 20.0291 180.894 19.6894 180.312 19.4714C179.564 19.2526 178.802 19.0825 178.032 18.962C176.892 18.7437 175.825 18.5014 175.001 17.9434C174.152 17.3857 173.618 16.561 173.618 15.2029C173.591 14.6176 173.712 14.0348 173.971 13.509C174.23 12.9831 174.617 12.5314 175.098 12.1958C176.019 11.5412 177.256 11.2258 178.687 11.2258C182.009 11.2258 183.756 12.8022 184.023 15.3486H181.039C180.87 13.9906 180.069 13.5296 178.639 13.5296C177.33 13.5296 176.506 13.9902 176.506 14.9119C176.506 15.4696 176.918 15.7366 177.573 15.9306C178.203 16.149 179.052 16.246 179.925 16.44C180.968 16.6583 182.058 16.9007 182.908 17.4587C183.757 18.0407 184.315 18.9137 184.315 20.3688C184.33 20.9393 184.205 21.5048 183.952 22.0161C183.698 22.5274 183.323 22.9689 182.86 23.3022C181.741 24.045 180.418 24.418 179.076 24.3689C175.438 24.3699 173.449 22.6482 173.255 19.9804ZM185.041 19.9804H188.096C188.315 21.4355 189.309 22.0418 190.813 22.0418C192.268 22.0418 193.092 21.4841 193.092 20.6111C193.092 20.0291 192.68 19.6894 192.098 19.4714C191.35 19.2526 190.588 19.0825 189.818 18.962C188.679 18.7437 187.612 18.5014 186.787 17.9434C185.938 17.3857 185.405 16.561 185.405 15.2029C185.377 14.6176 185.499 14.0348 185.757 13.509C186.016 12.9831 186.404 12.5314 186.884 12.1958C187.806 11.5412 189.042 11.2258 190.473 11.2258C193.795 11.2258 195.542 12.8022 195.809 15.3486H192.825C192.656 13.9906 191.855 13.5296 190.425 13.5296C189.116 13.5296 188.292 13.9902 188.292 14.9119C188.292 15.4696 188.704 15.7366 189.359 15.9306C189.989 16.149 190.838 16.246 191.711 16.44C192.754 16.6583 193.845 16.9007 194.694 17.4587C195.543 18.0407 196.101 18.9137 196.101 20.3688C196.116 20.9393 195.991 21.5048 195.738 22.0161C195.484 22.5274 195.109 22.9689 194.646 23.3022C193.527 24.0449 192.204 24.418 190.862 24.3689C187.224 24.3699 185.235 22.6482 185.042 19.9804H185.041ZM205.048 22.6238H205C204.692 23.1249 204.257 23.535 203.738 23.8122C202.988 24.1614 202.166 24.3276 201.338 24.2972C198.768 24.2972 196.997 22.9875 196.997 20.4898C196.997 19.1317 197.531 18.21 198.452 17.6037C199.374 16.9973 200.586 16.682 201.993 16.488C204.079 16.197 205.001 16.0273 205.001 15.0813C205.001 14.1596 204.321 13.6019 202.915 13.6019C201.363 13.6019 200.611 14.1352 200.515 15.3479H197.581C197.588 14.8013 197.713 14.2626 197.948 13.7687C198.182 13.2748 198.52 12.8373 198.939 12.4862C199.812 11.7345 201.122 11.2495 202.939 11.2495C206.673 11.2495 208.178 12.8985 208.178 15.8333V22.1631C208.178 23.1088 208.324 23.6669 208.615 23.8852V24.0065H205.438C205.214 23.5775 205.081 23.1067 205.049 22.6238H205.048ZM204.32 21.2415C204.553 21.0391 204.741 20.7897 204.87 20.5096C205 20.2296 205.069 19.9253 205.072 19.6167V17.75C204.49 18.1137 203.617 18.2834 202.768 18.4777C201.022 18.8657 200.197 19.2537 200.197 20.4178C200.197 21.5818 200.973 21.9941 202.137 21.9941C202.934 22.0276 203.714 21.7588 204.321 21.2415H204.32ZM211.232 22.4542C210.078 21.183 209.46 19.5141 209.51 17.7977C209.468 16.0797 210.074 14.4087 211.208 13.1172C211.782 12.4997 212.482 12.0116 213.259 11.6854C214.037 11.3592 214.875 11.2024 215.718 11.2255C217.119 11.1838 218.491 11.6295 219.599 12.4865C220.569 13.3357 221.198 14.5075 221.369 15.785H218.143C218.064 15.2418 217.788 14.7467 217.367 14.3935C216.947 14.0403 216.412 13.8537 215.863 13.8689C213.85 13.8689 212.856 15.3483 212.856 17.7977C212.856 20.1744 213.777 21.7265 215.815 21.7265C217.173 21.7265 218.094 21.0474 218.313 19.6164H221.49C221.408 20.9019 220.824 22.1037 219.865 22.9632C218.761 23.9122 217.342 24.414 215.888 24.3699C215.02 24.3964 214.158 24.2395 213.355 23.9093C212.553 23.5792 211.83 23.0833 211.233 22.4542H211.232ZM226.147 13.1899C227.069 11.8565 228.039 11.2255 229.761 11.2255C230.342 11.2083 230.92 11.3164 231.455 11.5423C231.991 11.7683 232.472 12.1069 232.865 12.5352C233.662 13.4648 234.086 14.6576 234.053 15.882V24.0065H230.755V16.3663C230.755 15.0083 230.003 14.0866 228.596 14.0866C227.141 14.0866 226.074 15.2263 226.074 16.9483V24.0055H222.776V6.66602H226.076V13.1899H226.147ZM243.803 22.5512H243.73C243.345 23.1368 242.814 23.611 242.188 23.926C241.562 24.241 240.864 24.3858 240.165 24.3459C237.376 24.3459 235.848 22.6242 235.848 19.8594V11.5662H239.122V19.2997C239.122 20.7548 239.753 21.5551 241.184 21.5551C242.736 21.5551 243.682 20.3911 243.682 18.742V11.5662H246.98V24.0075H243.803L243.803 22.5512ZM248.192 19.9804H251.248C251.467 21.4355 252.461 22.0418 253.965 22.0418C255.42 22.0418 256.244 21.4841 256.244 20.6111C256.244 20.0291 255.832 19.6894 255.25 19.4714C254.502 19.2526 253.74 19.0825 252.97 18.962C251.831 18.7437 250.764 18.5014 249.939 17.9434C249.09 17.3857 248.556 16.561 248.556 15.2029C248.529 14.6176 248.65 14.0348 248.909 13.509C249.168 12.9831 249.555 12.5314 250.036 12.1958C250.958 11.5412 252.194 11.2258 253.625 11.2258C256.947 11.2258 258.694 12.8022 258.96 15.3486H255.977C255.808 13.9906 255.007 13.5296 253.577 13.5296C252.268 13.5296 251.444 13.9902 251.444 14.9119C251.444 15.4696 251.856 15.7366 252.511 15.9306C253.141 16.149 253.99 16.246 254.863 16.44C255.906 16.6583 256.996 16.9007 257.846 17.4587C258.695 18.0407 259.253 18.9137 259.253 20.3688C259.268 20.9393 259.143 21.5048 258.889 22.0161C258.636 22.5274 258.261 22.9689 257.798 23.3022C256.679 24.045 255.356 24.418 254.014 24.3689C250.376 24.3699 248.386 22.6482 248.192 19.9804ZM261.773 22.4542C260.657 21.2901 260.099 19.6167 260.099 17.7737C260.061 16.0591 260.677 14.3943 261.822 13.1172C262.383 12.5089 263.066 12.0259 263.826 11.6999C264.587 11.3739 265.408 11.2122 266.235 11.2255C268.248 11.2255 269.752 11.9772 270.795 13.3112C271.838 14.6453 272.371 16.4883 272.371 18.7194H263.35C263.616 20.6594 264.635 21.8235 266.527 21.8235C267.836 21.8235 268.564 21.2415 268.927 20.2954H272.178C271.952 21.4314 271.323 22.4475 270.407 23.1572C269.295 23.9843 267.937 24.4116 266.551 24.3699C264.465 24.3699 262.889 23.6422 261.773 22.4542ZM263.398 16.4396H268.928C268.831 14.8396 267.812 13.7729 266.284 13.7729C264.538 13.7719 263.689 14.7903 263.398 16.4396ZM274.506 11.5662V7.68471H277.731V11.5662H279.864V13.8699H277.731V20.3451C277.731 21.2908 278.216 21.5818 278.968 21.5818H279.599C279.712 21.5858 279.826 21.5776 279.938 21.5575V23.9825C279.761 24.0033 279.583 24.0114 279.405 24.0069C279.041 24.0312 278.532 24.0312 277.877 24.0312C277.073 24.0671 276.277 23.8554 275.597 23.4248C274.943 22.9642 274.506 22.2121 274.506 21.0481V13.8689H272.784V11.5662H274.506ZM282.169 11.5662V7.68471H285.395V11.5662H287.528V13.8699H285.395V20.3451C285.395 21.2908 285.88 21.5818 286.632 21.5818H287.262C287.376 21.5858 287.49 21.5776 287.602 21.5575V23.9825C287.425 24.0033 287.246 24.0114 287.068 24.0069C286.705 24.0312 286.195 24.0312 285.541 24.0312C284.737 24.0671 283.941 23.8554 283.261 23.4248C282.606 22.9642 282.169 22.2121 282.169 21.0481V13.8689H280.448V11.5662H282.169ZM288.426 19.9814H291.481C291.7 21.4365 292.694 22.0428 294.198 22.0428C295.653 22.0428 296.477 21.4851 296.477 20.6121C296.477 20.0301 296.065 19.6904 295.483 19.4724C294.735 19.2536 293.973 19.0835 293.203 18.9631C292.063 18.7447 290.996 18.5024 290.172 17.9444C289.323 17.3867 288.789 16.562 288.789 15.2039C288.762 14.6186 288.883 14.0358 289.142 13.51C289.401 12.9841 289.788 12.5324 290.269 12.1968C291.19 11.5422 292.427 11.2268 293.858 11.2268C297.181 11.2268 298.927 12.8032 299.194 15.3496H296.212C296.042 13.9916 295.242 13.5306 293.812 13.5306C292.502 13.5306 291.678 13.9912 291.678 14.9129C291.678 15.4706 292.091 15.7376 292.745 15.9316C293.376 16.15 294.225 16.247 295.098 16.441C296.14 16.6593 297.231 16.9017 298.08 17.4597C298.929 18.0417 299.487 18.9147 299.487 20.3698C299.502 20.9403 299.377 21.5058 299.124 22.0171C298.87 22.5284 298.495 22.9699 298.032 23.3032C296.914 24.0459 295.59 24.419 294.249 24.3699C290.608 24.3699 288.619 22.6482 288.425 19.9804L288.426 19.9814ZM145.705 29.2084V46.5485H142.189V29.2084H145.705ZM151.283 35.8049C151.645 35.1538 152.182 34.6176 152.834 34.2574C153.486 33.8972 154.226 33.7276 154.969 33.7678C155.551 33.7504 156.129 33.8584 156.664 34.0843C157.2 34.3103 157.681 34.6489 158.074 35.0772C158.872 36.0068 159.295 37.1996 159.263 38.424V46.5485H155.964V38.909C155.964 37.5509 155.213 36.6292 153.806 36.6292C152.351 36.6292 151.284 37.7693 151.284 39.491V46.5482H147.986V34.1072H151.211V35.8049H151.283ZM160.377 42.5228H163.433C163.651 43.9778 164.646 44.5842 166.149 44.5842C167.604 44.5842 168.429 44.0265 168.429 43.1534C168.429 42.5714 168.016 42.2318 167.434 42.0137C166.686 41.795 165.925 41.6248 165.155 41.5044C164.015 41.2861 162.948 41.0437 162.123 40.4857C161.274 39.928 160.741 39.1033 160.741 37.7453C160.713 37.1599 160.835 36.5771 161.093 36.0513C161.352 35.5255 161.74 35.0737 162.22 34.7382C163.142 34.0835 164.379 33.7682 165.81 33.7682C169.132 33.7682 170.878 35.3445 171.145 37.891H168.162C167.992 36.5329 167.192 36.0719 165.762 36.0719C164.452 36.0719 163.629 36.5326 163.629 37.4543C163.629 38.012 164.041 38.279 164.695 38.473C165.326 38.6913 166.175 38.7883 167.048 38.9823C168.09 39.2007 169.181 39.443 170.031 40.001C170.879 40.583 171.438 41.4561 171.438 42.9111C171.453 43.4816 171.328 44.0472 171.074 44.5585C170.821 45.0697 170.446 45.5113 169.982 45.8445C168.864 46.5873 167.541 46.9604 166.199 46.9112C162.56 46.9122 160.571 45.1905 160.377 42.5228ZM173.522 34.1075V30.2267H176.747V34.1072H178.88V36.4109H176.747V42.8861C176.747 43.8318 177.232 44.1228 177.984 44.1228H178.614C178.728 44.1268 178.842 44.1186 178.954 44.0985V46.5235C178.777 46.5443 178.599 46.5524 178.421 46.5479C178.057 46.5722 177.548 46.5722 176.893 46.5722C176.089 46.6081 175.293 46.3965 174.613 45.9659C173.959 45.5052 173.522 44.7532 173.522 43.5891V36.4109H171.8V34.1072L173.522 34.1075ZM183.731 29.6694V32.6281H180.433V29.6694H183.731ZM183.731 34.1075V46.5489H180.433V34.1072L183.731 34.1075ZM186.714 34.1075V30.2267H189.94V34.1072H192.075V36.4109H189.942V42.8861C189.942 43.8318 190.427 44.1228 191.179 44.1228H191.809C191.923 44.1268 192.036 44.1186 192.148 44.0985V46.5235C191.971 46.5443 191.793 46.5524 191.615 46.5479C191.251 46.5722 190.742 46.5722 190.087 46.5722C189.283 46.6081 188.487 46.3965 187.807 45.9659C187.153 45.5052 186.716 44.7532 186.716 43.5891V36.4109H184.994V34.1072L186.714 34.1075ZM201.483 45.0935H201.409C201.024 45.6794 200.492 46.1537 199.866 46.4688C199.24 46.7838 198.542 46.9285 197.842 46.8882C195.054 46.8882 193.525 45.1662 193.525 42.4018V34.1072H196.8V41.8434C196.8 43.2984 197.43 44.0988 198.861 44.0988C200.413 44.0988 201.359 42.9348 201.359 41.2857V34.1072H204.657V46.5485H201.48L201.483 45.0935ZM207.644 34.1075V30.2267H210.869V34.1072H213.002V36.4109H210.869V42.8861C210.869 43.8318 211.354 44.1228 212.106 44.1228H212.736C212.85 44.1274 212.964 44.1199 213.076 44.1005V46.5255C212.899 46.5463 212.721 46.5544 212.543 46.5499C212.179 46.5742 211.67 46.5742 211.015 46.5742C210.211 46.6101 209.415 46.3985 208.735 45.9679C208.08 45.5072 207.644 44.7552 207.644 43.5911V36.4109H205.922V34.1072L207.644 34.1075ZM215.501 44.9965C214.385 43.8325 213.828 42.1591 213.828 40.316C213.79 38.6015 214.405 36.9367 215.55 35.6596C216.111 35.0512 216.794 34.5682 217.555 34.2422C218.315 33.9162 219.136 33.7546 219.964 33.7678C221.976 33.7678 223.48 34.5195 224.523 35.8536C225.566 37.1876 226.099 39.0307 226.099 41.2617H217.076C217.343 43.2018 218.362 44.3658 220.253 44.3658C221.563 44.3658 222.29 43.7838 222.653 42.8378H225.903C225.677 43.9737 225.048 44.9899 224.133 45.6995C223.021 46.5266 221.662 46.9539 220.277 46.9122C218.193 46.9122 216.617 46.1845 215.501 44.9962V44.9965ZM217.126 38.982H222.655C222.558 37.3819 221.54 36.3152 220.012 36.3152C218.266 36.3139 217.417 37.3336 217.126 38.9817V38.982ZM232.623 44.9965C232.027 44.3788 231.56 43.6493 231.248 42.8501C230.936 42.0509 230.785 41.1978 230.804 40.34C230.77 38.6012 231.423 36.9192 232.623 35.6596C233.234 35.0435 233.964 34.558 234.769 34.2327C235.573 33.9073 236.436 33.7488 237.303 33.7668C238.174 33.7511 239.04 33.9104 239.848 34.2354C240.656 34.5603 241.391 35.0443 242.008 35.6586C243.191 36.927 243.834 38.6052 243.803 40.339C243.839 42.0665 243.194 43.7389 242.008 44.9955C241.395 45.6178 240.662 46.1087 239.853 46.4381C239.044 46.7676 238.177 46.9287 237.303 46.9116C236.434 46.9311 235.569 46.7712 234.763 46.4416C233.958 46.112 233.229 45.62 232.623 44.9962V44.9965ZM240.456 40.34C240.456 37.8906 239.341 36.2656 237.303 36.2656C235.266 36.2656 234.151 37.8906 234.151 40.34C234.151 42.7651 235.266 44.3901 237.303 44.3901C239.341 44.3901 240.456 42.7651 240.456 40.34ZM245.913 34.1065V32.9908C245.913 31.4631 246.495 30.4444 247.489 29.838C248.459 29.256 249.842 29.062 251.442 29.2317V31.7781C249.89 31.7054 249.211 31.8751 249.211 33.1848V34.1065H251.444V36.4832H249.211V46.5479H245.912V36.4839H244.215V34.1072L245.913 34.1065ZM150.919 51.7504V54.7091H145.705V69.0906H142.189V54.7091H136.974V51.7504H150.919ZM150.556 67.5385C149.44 66.3745 148.882 64.7011 148.882 62.858C148.844 61.1435 149.46 59.4787 150.604 58.2016C151.165 57.5932 151.848 57.1102 152.609 56.7842C153.37 56.4582 154.191 56.2966 155.018 56.3098C157.031 56.3098 158.534 57.0615 159.577 58.3956C160.62 59.7296 161.154 61.5727 161.154 63.8037H152.132C152.399 65.7438 153.417 66.9078 155.309 66.9078C156.619 66.9078 157.346 66.3258 157.709 65.3798H160.959C160.732 66.5157 160.104 67.5319 159.188 68.2415C158.076 69.0686 156.718 69.4959 155.332 69.4542C153.247 69.4542 151.671 68.7269 150.556 67.5385ZM152.181 61.524H157.71C157.613 59.9239 156.594 58.8572 155.067 58.8572C153.32 58.8562 152.471 59.8749 152.181 61.524ZM163.652 67.5385C162.497 66.2673 161.88 64.5985 161.93 62.882C161.887 61.164 162.494 59.4931 163.627 58.2016C164.202 57.584 164.901 57.0959 165.679 56.7697C166.457 56.4435 167.295 56.2868 168.138 56.3098C169.539 56.2681 170.91 56.7138 172.019 57.5709C172.988 58.42 173.617 59.5919 173.789 60.8693H170.563C170.484 60.3262 170.208 59.831 169.788 59.4779C169.368 59.1247 168.832 58.938 168.284 58.9532C166.271 58.9532 165.277 60.4326 165.277 62.882C165.277 65.2588 166.198 66.8108 168.235 66.8108C169.593 66.8108 170.515 66.1318 170.733 64.7008H173.91C173.828 65.9863 173.245 67.1882 172.285 68.0475C171.182 68.9966 169.763 69.4984 168.308 69.4542C167.44 69.481 166.577 69.3242 165.775 68.994C164.972 68.6639 164.249 68.1679 163.651 67.5385H163.652ZM178.567 58.2742C179.488 56.9409 180.458 56.3098 182.18 56.3098C182.761 56.2926 183.339 56.4007 183.875 56.6267C184.411 56.8526 184.891 57.1913 185.285 57.6195C186.082 58.5491 186.506 59.7419 186.473 60.9663V69.0906H183.175V61.4513C183.175 60.0933 182.423 59.1716 181.017 59.1716C179.562 59.1716 178.494 60.3113 178.494 62.0333V69.0906H175.196V51.7504H178.494V58.2742H178.567ZM191.663 58.3469C192.024 57.6959 192.562 57.1596 193.214 56.7994C193.866 56.4392 194.606 56.2696 195.349 56.3098C195.93 56.2926 196.508 56.4007 197.044 56.6267C197.579 56.8527 198.06 57.1913 198.453 57.6195C199.251 58.5494 199.675 59.7427 199.642 60.9676V69.0919H196.342V61.4513C196.342 60.0933 195.591 59.1716 194.184 59.1716C192.729 59.1716 191.662 60.3113 191.662 62.0333V69.0906H188.363V56.6492H191.589V58.3469H191.663ZM202.746 67.5385C202.15 66.9208 201.683 66.1913 201.371 65.3921C201.058 64.5929 200.908 63.7398 200.927 62.882C200.893 61.1431 201.546 59.4611 202.746 58.2016C203.357 57.5857 204.087 57.1004 204.892 56.7752C205.697 56.45 206.559 56.2917 207.427 56.3098C208.298 56.2941 209.163 56.4534 209.971 56.7784C210.779 57.1034 211.514 57.5873 212.131 58.2016C213.314 59.47 213.957 61.1482 213.926 62.882C213.962 64.6095 213.317 66.2819 212.131 67.5385C211.519 68.1608 210.785 68.6517 209.976 68.9811C209.167 69.3106 208.3 69.4717 207.427 69.4546C206.557 69.4741 205.692 69.314 204.886 68.9844C204.081 68.6547 203.352 68.1625 202.745 67.5385H202.746ZM210.579 62.882C210.579 60.4326 209.464 58.8076 207.427 58.8076C205.39 58.8076 204.274 60.4326 204.274 62.882C204.274 65.3071 205.39 66.9322 207.427 66.9322C209.464 66.9322 210.579 65.3074 210.579 62.882H210.579ZM218.655 51.7504V69.0906H215.356V51.7504H218.655ZM221.905 67.5385C221.309 66.9208 220.842 66.1913 220.53 65.3921C220.218 64.5929 220.067 63.7398 220.086 62.882C220.052 61.1431 220.706 59.4611 221.905 58.2016C222.516 57.5857 223.247 57.1004 224.051 56.7752C224.856 56.45 225.718 56.2917 226.586 56.3098C227.457 56.2941 228.322 56.4534 229.13 56.7784C229.938 57.1033 230.673 57.5873 231.291 58.2016C232.473 59.47 233.117 61.1482 233.085 62.882C233.121 64.6095 232.477 66.2819 231.291 67.5385C230.678 68.1609 229.945 68.6517 229.136 68.9812C228.327 69.3106 227.459 69.4717 226.586 69.4546C225.716 69.4742 224.851 69.3141 224.045 68.9844C223.24 68.6548 222.511 68.1625 221.904 67.5385H221.905ZM229.739 62.882C229.739 60.4326 228.623 58.8076 226.586 58.8076C224.548 58.8076 223.433 60.4326 223.433 62.882C223.433 65.3071 224.549 66.9322 226.586 66.9322C228.623 66.9322 229.738 65.3074 229.738 62.882H229.739ZM234.128 69.4542H237.402C237.669 70.2303 238.348 70.8366 239.9 70.8366C241.743 70.8366 242.665 69.9879 242.665 68.2415V66.8835H242.592C242.202 67.3634 241.705 67.7451 241.141 67.9979C240.576 68.2506 239.96 68.3673 239.343 68.3385C238.642 68.3431 237.948 68.2058 237.302 67.9349C236.656 67.6639 236.071 67.265 235.583 66.7621C235.013 66.1906 234.566 65.5083 234.27 64.7572C233.974 64.0061 233.835 63.2023 233.861 62.3954C233.861 60.5523 234.419 59.0242 235.389 57.9572C235.873 57.4174 236.468 56.9901 237.135 56.7052C237.801 56.4203 238.521 56.2848 239.246 56.3082C240.798 56.3082 241.938 56.9145 242.689 57.9572H242.738V56.6475H245.915V68.1429C245.915 69.8889 245.381 71.0763 244.435 71.926C243.392 72.896 241.792 73.3327 239.949 73.3327C236.504 73.3347 234.491 71.8796 234.127 69.4542H234.128ZM242.155 64.7008C242.634 64.0036 242.873 63.1691 242.834 62.324C242.865 61.4726 242.609 60.6355 242.107 59.9473C241.838 59.6186 241.497 59.3574 241.109 59.1847C240.722 59.012 240.299 58.9326 239.876 58.9529C238.178 58.9529 237.086 60.2383 237.086 62.3483C237.086 64.4817 238.178 65.6951 239.9 65.6951C240.327 65.7179 240.754 65.6399 241.146 65.4672C241.538 65.2945 241.883 65.0321 242.155 64.7011L242.155 64.7008ZM249.334 70.5696C250.667 70.5696 251.177 69.9149 251.177 68.8719C251.17 68.4527 251.104 68.0365 250.983 67.6352C250.813 67.1258 250.595 66.4468 250.231 65.5018L246.884 56.6498H250.351L252.194 62.252C252.388 62.834 252.558 63.4887 252.728 64.0467C252.8 64.3621 252.897 64.6531 252.994 64.9684H253.043C253.115 64.6531 253.188 64.3621 253.261 64.0467C253.4 63.4402 253.57 62.8412 253.77 62.252L255.517 56.6498H258.839L254.498 69.4062C254.013 70.8129 253.552 71.7343 252.898 72.3163C252.219 72.9227 251.37 73.1653 250.109 73.1653H248.169V70.5703L249.334 70.5696ZM72.8285 69.0902H86.7006V27.4743H72.8279L72.8285 69.0902ZM93.6368 20.5378H128.316V6.66602H93.6362L93.6368 20.5378ZM72.8279 6.66602H86.6999V20.5381H72.8279V6.66602ZM52.0196 69.0906H65.8917V6.66602H52.0196V69.0906ZM31.2113 55.2185H45.0834V6.66602H31.2116L31.2113 55.2185ZM10.4033 69.0906H24.2754V6.66602H10.4033V69.0906ZM93.6362 69.0906H107.508V27.4743H93.6362V69.0906Z" fill="#750113"/>
</svg>
