<svg width="341" height="80" viewBox="0 0 341 80" fill="none" xmlns="http://www.w3.org/2000/svg">
<path d="M324.547 12.5417V12.4351C324.494 11.6351 324.494 10.6752 324.494 9.60855V9.39523L324.28 9.44856C324.014 9.50189 322.68 9.50189 321.454 9.50189H317.507C316.707 9.50189 315.961 9.50189 315.054 9.44856H314.947C314.787 9.55522 314.734 9.76854 314.734 9.87521C314.734 10.0352 314.787 10.1952 314.894 10.3018L315.321 10.3552C316.387 10.4618 316.441 10.6218 316.441 12.8617V20.5413C316.441 22.7812 316.387 22.9412 315.321 23.0479L314.734 23.1012L314.681 23.1545C314.574 23.2612 314.521 23.4745 314.574 23.6345C314.574 23.7945 314.681 23.9011 314.787 23.9545H314.894C315.907 23.9011 316.601 23.9011 317.561 23.9011C318.414 23.9011 319.161 23.9011 320.387 23.9545H320.494C320.654 23.9011 320.707 23.6878 320.707 23.5278C320.707 23.3678 320.654 23.2078 320.547 23.1012L319.747 22.9945C318.681 22.8879 318.574 22.7812 318.574 20.488V17.6081C318.574 17.1815 318.574 17.1815 319.107 17.1815H320.547C321.294 17.1815 321.88 17.1815 322.147 17.2882C322.467 17.3948 322.627 17.5548 322.734 17.9815L322.947 18.8881L323 18.9414C323.214 19.1014 323.64 19.1014 323.8 18.8881L323.854 18.8347V18.7814C323.854 18.5681 323.854 18.2481 323.8 17.9815C323.8 17.6081 323.747 17.1282 323.747 16.7548C323.747 16.3282 323.747 15.8482 323.8 15.4749C323.8 15.1549 323.854 14.8349 323.854 14.6216V14.5683L323.8 14.515C323.694 14.355 323.48 14.355 323.374 14.355C323.214 14.355 323.054 14.4083 322.947 14.515L322.734 15.4216C322.627 15.9549 322.467 16.0082 322.307 16.0616C322.094 16.1149 321.4 16.1682 320.547 16.1682H319.107C318.574 16.1682 318.574 16.1682 318.574 15.7416V11.2085C318.574 10.5152 318.574 10.5152 319.054 10.5152H320.334C321.24 10.5152 321.934 10.5152 322.36 10.6218C323.267 10.8352 323.534 11.4751 323.747 12.5417V12.5951L323.8 12.6484C323.907 12.7017 324.014 12.7551 324.12 12.7551C324.28 12.7551 324.494 12.7017 324.547 12.5417ZM310.201 16.7015C310.201 13.075 307.854 9.18191 302.628 9.18191C298.202 9.18191 294.842 12.4884 294.842 16.9148C294.842 20.5947 297.508 24.3278 302.628 24.3278C306.948 24.3278 310.201 21.0213 310.201 16.7015ZM307.748 17.3415C307.748 21.7679 305.135 23.3145 302.895 23.3145C298.468 23.3145 297.295 18.8347 297.295 16.2215C297.295 11.7418 299.962 10.1952 302.255 10.1952C306.308 10.1952 307.748 14.035 307.748 17.3415ZM290.255 53.7663C290.255 62.9925 297.135 71.152 308.494 71.152C318.414 71.152 326.307 63.6324 326.307 53.233C326.307 44.2201 320.334 35.6339 308.494 35.6339C297.988 35.6872 290.255 43.5268 290.255 53.7663ZM295.428 52.113C295.428 40.8603 302.361 37.2338 307.694 37.2338C317.507 37.2338 321.24 46.3533 321.24 54.8329C321.24 64.9124 315.374 69.5521 309.241 69.5521C299.108 69.6054 295.428 59.7393 295.428 52.113ZM284.069 10.3018C284.176 10.1952 284.229 10.0352 284.229 9.87521C284.229 9.71521 284.122 9.55522 284.016 9.50189L283.962 9.44856H283.909C282.416 9.55522 281.509 9.55522 279.909 9.44856H279.803C279.696 9.50189 279.589 9.60855 279.589 9.76854C279.536 9.92854 279.589 10.1419 279.749 10.2485L279.803 10.3018L280.229 10.3552C280.656 10.4085 280.923 10.5152 280.976 10.5685C280.923 10.8885 280.176 12.2751 279.696 13.1284L279.589 13.2884C279.056 14.3016 278.469 15.3683 277.723 16.6482C277.136 15.6349 276.603 14.515 276.069 13.4484L275.429 12.1684C275.269 11.8484 274.79 10.7818 274.79 10.6218C274.79 10.5685 274.896 10.5152 275.536 10.4085L275.856 10.3552L275.909 10.3018C276.016 10.1952 276.069 9.98187 276.016 9.76854C275.963 9.60855 275.909 9.50189 275.749 9.44856H275.643C275.109 9.50189 274.363 9.50189 273.35 9.50189C272.336 9.50189 271.59 9.50189 270.896 9.44856H270.79C270.683 9.50189 270.63 9.60855 270.576 9.76854C270.523 9.92854 270.576 10.1419 270.683 10.2485L270.736 10.3018L271.376 10.4085C271.963 10.5152 272.23 10.5685 272.923 11.9551L275.429 16.8615C276.016 18.0348 276.069 18.2481 276.069 19.4214V20.488C276.069 22.7812 276.016 22.9412 274.949 23.0479L274.203 23.1012L274.15 23.1545C274.043 23.2612 273.99 23.4745 274.043 23.6345C274.096 23.7945 274.15 23.9011 274.256 23.9545H274.363C275.536 23.9011 276.283 23.9011 277.136 23.9011C277.989 23.9011 278.789 23.9011 280.016 23.9545H280.123C280.229 23.9011 280.283 23.7945 280.336 23.6345C280.336 23.4745 280.336 23.3145 280.229 23.1545L280.176 23.1012L279.323 23.0479C278.309 22.9945 278.203 22.8345 278.203 20.488V19.368C278.203 17.7681 278.256 17.6081 279.163 16.0082L280.496 13.6617C280.603 13.4484 280.709 13.235 280.869 13.075C281.722 11.5818 282.309 10.5685 283.216 10.4085L284.069 10.3018ZM276.603 36.4338C275.749 36.2205 273.03 35.6872 270.096 35.6872C262.363 35.6872 257.297 38.0871 253.831 41.7136C250.631 45.0734 249.191 49.4998 249.191 53.8729C249.191 58.406 250.844 62.4591 253.937 65.499C257.884 69.4988 263.483 71.2054 269.563 71.2054C272.336 71.2054 276.016 70.5654 278.736 69.8721C279.696 69.6054 280.656 69.3921 281.243 69.3921C281.456 69.2321 281.456 68.9121 281.296 68.7522C280.389 68.3788 280.069 67.1522 280.069 65.1257V62.2458C280.069 59.6326 280.123 58.1927 282.256 57.926L283.056 57.8194C283.429 57.4994 283.376 56.7528 283.002 56.5395C281.296 56.6461 279.589 56.6994 277.563 56.6994C274.523 56.6994 271.696 56.6461 270.203 56.5395C269.83 56.6994 269.776 57.6061 270.203 57.8194L272.443 58.086C275.643 58.4594 275.803 58.7793 275.803 63.0458V65.0723C275.803 66.7256 275.536 67.6322 275.269 68.0055C274.683 68.8588 272.816 69.5521 269.616 69.5521C259.324 69.5521 254.204 61.8192 254.204 51.953C254.204 44.2734 258.577 37.1805 268.496 37.1805C273.723 37.1805 277.563 38.9404 279.003 44.4867C279.323 44.8067 280.229 44.7534 280.389 44.3268C279.909 41.2336 279.643 38.5671 279.643 36.9138C279.163 37.0205 277.563 36.6472 276.603 36.4338ZM267.857 9.18191V9.07525C267.803 8.91525 267.537 8.91525 267.483 8.91525C267.43 8.91525 267.377 8.91525 267.27 8.96859H267.217L267.163 9.02192C266.897 9.50189 266.79 9.55522 265.617 9.55522H256.764C255.804 9.55522 255.377 9.50189 255.271 9.02192V8.96859L255.217 8.91525C255.164 8.86192 255.057 8.80859 254.897 8.80859C254.844 8.80859 254.684 8.80859 254.577 8.86192L254.524 8.91525V8.96859C254.364 9.82187 254.044 11.1551 253.724 12.1151V12.1684L253.777 12.2218C253.884 12.4884 254.364 12.5951 254.577 12.4351H254.631V12.3817C254.844 11.9018 255.057 11.4218 255.537 10.9418C256.017 10.5152 257.084 10.4618 258.044 10.4618H259.217C259.697 10.4618 259.697 10.4618 259.697 10.9951V20.5413C259.697 22.8345 259.59 22.9412 258.524 23.0479L257.777 23.1012H257.724C257.617 23.1545 257.51 23.3145 257.51 23.5278C257.51 23.6878 257.564 23.8478 257.724 23.9011H257.83C259.164 23.8478 259.91 23.8478 260.817 23.8478C261.67 23.8478 262.363 23.8478 263.59 23.9011H263.697C263.857 23.7945 263.91 23.5812 263.91 23.4745C263.91 23.3145 263.857 23.1545 263.75 23.0479L263.003 22.9412C261.937 22.8345 261.883 22.7279 261.883 20.4347V10.8352C261.883 10.6218 261.883 10.4085 261.937 10.3552C261.99 10.3018 262.203 10.3018 262.363 10.3018H263.857C264.977 10.3018 265.777 10.4618 266.257 10.7818C266.47 10.9418 266.63 11.4751 266.737 12.2218V12.2751L266.79 12.3284C266.843 12.4351 267.003 12.4884 267.163 12.4884C267.377 12.4884 267.537 12.3817 267.59 12.2751V12.1684C267.43 11.7951 267.59 10.0352 267.857 9.18191ZM248.338 20.5413V12.915C248.338 10.5685 248.391 10.4085 249.511 10.3552L250.097 10.3018H250.151C250.257 10.2485 250.311 10.0885 250.311 9.87521C250.311 9.82187 250.257 9.55522 250.097 9.44856H249.991C248.977 9.50189 248.231 9.50189 247.324 9.50189C246.418 9.50189 245.671 9.50189 244.658 9.44856H244.551C244.391 9.55522 244.338 9.76854 244.338 9.87521C244.338 10.0352 244.391 10.1952 244.498 10.3018H244.551L245.138 10.3552C246.204 10.4618 246.311 10.5685 246.311 12.915V20.5413C246.311 22.8345 246.258 22.9412 245.138 23.1012L244.551 23.1545L244.498 23.2078C244.391 23.3145 244.338 23.5278 244.391 23.6878C244.391 23.8478 244.498 23.9545 244.604 24.0078H244.711C245.778 23.9545 246.524 23.9545 247.378 23.9545C248.231 23.9545 248.924 23.9545 250.044 24.0078H250.151C250.311 23.9011 250.364 23.6878 250.364 23.5812C250.364 23.4212 250.311 23.2612 250.204 23.1545L249.617 23.0479C248.391 22.9945 248.338 22.8345 248.338 20.5413ZM244.818 69.0721C242.631 68.8055 241.938 68.0589 240.445 63.6324L233.405 42.9935C232.658 40.7536 231.805 38.3537 231.165 36.1138C231.058 35.7405 230.685 35.6339 230.418 35.6339C229.832 36.2738 228.979 37.2338 227.752 37.6071C227.912 38.4071 227.592 39.4203 226.899 41.2336L221.672 55.0995C219.539 60.8592 218.099 64.1657 217.139 66.5656C216.446 68.4322 215.273 68.9655 214.046 69.0721L212.339 69.2321C212.019 69.4988 212.126 70.2987 212.446 70.5121C213.833 70.4587 215.699 70.3521 217.352 70.3521C219.752 70.4054 221.352 70.4054 222.686 70.5121C223.166 70.2987 223.166 69.4988 222.792 69.2321L221.086 69.0721C219.859 68.9655 219.592 68.6455 219.592 68.0589C219.592 67.4722 219.966 66.0856 220.712 63.7924L222.526 58.406C222.899 57.3394 223.165 57.1794 224.499 57.1794H232.232C233.778 57.1794 233.992 57.3394 234.312 58.4594L236.551 65.4457C236.978 66.6723 237.191 67.5789 237.191 68.1655C237.191 68.6988 236.498 68.9655 235.378 69.0721L233.885 69.2321C233.512 69.4988 233.565 70.2987 233.992 70.5121C235.485 70.4587 237.405 70.3521 239.911 70.3521C242.205 70.3521 244.018 70.4054 246.098 70.5121C246.364 70.2987 246.471 69.4988 246.098 69.2321L244.818 69.0721ZM231.592 55.0995H225.299C223.859 55.0995 223.805 55.0462 224.232 53.8729L227.485 44.9667C228.072 43.4201 228.552 42.1935 228.712 41.9269H228.819C229.139 42.5668 229.565 43.9534 229.992 45.18L232.765 53.5529C233.192 54.8862 233.085 55.0995 231.592 55.0995ZM233.672 12.3817C233.672 11.5818 233.992 10.1952 236.072 10.1952C237.938 10.1952 238.525 11.4218 238.845 12.4884L238.898 12.5417C238.951 12.6484 239.058 12.6484 239.218 12.6484C239.378 12.6484 239.591 12.5951 239.698 12.4351L239.751 12.3817C239.751 11.5285 239.591 10.3018 239.378 9.71521L239.218 9.60855H239.111C238.951 9.60855 238.685 9.55522 238.418 9.50189C237.885 9.3419 237.085 9.23524 236.391 9.23524C233.672 9.23524 231.858 10.7818 231.858 13.075C231.858 15.0483 233.352 16.3282 234.258 16.9148L236.285 18.1414C237.778 19.1014 237.938 20.0613 237.938 21.0213C237.938 22.1412 237.138 23.3145 235.432 23.3145C233.245 23.3145 232.338 21.6613 231.912 20.2213V20.168C231.858 20.0613 231.752 20.008 231.592 20.008C231.432 20.008 231.272 20.0613 231.112 20.2213L231.058 20.2747V20.328C231.112 21.2879 231.378 22.8879 231.645 23.3678V23.4212H231.698C232.125 23.6878 233.298 24.2211 235.112 24.2211C237.938 24.2211 239.805 22.5679 239.805 20.1147C239.805 18.4081 238.898 17.0215 237.031 15.8482L235.325 14.7816C234.792 14.4616 233.672 13.6083 233.672 12.3817ZM228.285 24.0611C228.392 24.0078 228.445 23.8478 228.392 23.7412C228.392 23.6345 228.285 23.5278 228.179 23.4745H228.125C227.592 23.4212 227.112 23.2078 226.739 22.8879C225.245 21.6613 224.072 19.848 222.472 17.2348C222.366 17.0748 222.366 16.9682 222.366 16.9148C223.059 16.5949 225.085 15.5816 225.085 13.235C225.085 11.4218 224.072 10.5152 223.219 10.0885C222.152 9.50189 220.766 9.44856 219.592 9.44856C217.619 9.44856 216.126 9.50189 214.793 9.60855H214.739C214.633 9.66188 214.526 9.82187 214.526 9.98187C214.526 10.1419 214.579 10.3552 214.686 10.4085H214.739L215.486 10.5152C216.179 10.6218 216.286 10.7285 216.286 12.8617V20.5413C216.286 22.7812 216.233 22.9412 215.166 23.0479L214.579 23.1012L214.526 23.1545C214.419 23.3145 214.419 23.4745 214.419 23.6345C214.473 23.7945 214.526 23.9011 214.633 23.9545H214.739C215.699 23.9011 216.446 23.9011 217.406 23.9011C218.312 23.9011 219.006 23.9011 219.966 23.9545H220.072C220.232 23.9011 220.286 23.6878 220.286 23.5812C220.286 23.3678 220.232 23.2078 220.179 23.1545L220.126 23.1012L219.646 23.0479C218.526 22.8879 218.526 22.7812 218.526 20.5413V17.8215C218.526 17.5015 218.526 17.5015 219.379 17.5015C220.179 17.5015 220.499 17.7148 220.766 18.0881C221.086 18.5681 221.459 19.1547 221.832 19.7414C222.206 20.328 222.579 20.9146 222.846 21.3413C224.339 23.4212 225.405 24.1145 227.379 24.1145C227.645 24.1678 228.019 24.1678 228.285 24.0611ZM221.832 16.1149C221.246 16.5949 220.392 16.6482 219.752 16.6482C218.792 16.6482 218.472 16.5949 218.419 16.5949V10.9951C218.419 10.5152 218.419 10.4618 219.646 10.4618C222.046 10.4618 222.899 12.1684 222.899 13.6083C222.846 14.7816 222.526 15.5816 221.832 16.1149ZM210.793 20.9146V20.808C210.686 20.5946 210.473 20.488 210.313 20.488C210.206 20.488 210.1 20.5413 210.046 20.5947L209.993 20.648C209.406 21.8746 208.82 22.5146 208.553 22.6212C208.073 22.8345 207.433 22.9412 205.886 22.9412C204.126 22.9412 203.647 22.7279 203.433 22.5146C203.113 22.1946 203.06 21.5013 203.06 20.3813V17.3415C203.06 16.9148 203.06 16.9148 203.593 16.9148H204.82C205.566 16.9148 206.1 16.9148 206.42 17.0215C206.74 17.0748 206.846 17.2882 206.953 17.7148L207.166 18.5681L207.22 18.6214C207.326 18.7281 207.433 18.7814 207.646 18.7814C207.86 18.7814 208.02 18.7281 208.073 18.5681V18.4614C208.073 18.2481 208.073 17.9815 208.02 17.6615C208.02 17.2882 207.966 16.8082 207.966 16.3815C207.966 15.9549 208.02 15.4749 208.02 15.0483C208.02 14.7283 208.073 14.4083 208.073 14.195V14.0883C208.02 13.9817 207.86 13.875 207.646 13.875C207.486 13.875 207.326 13.9283 207.22 14.035L207.006 14.9949C206.9 15.4749 206.793 15.5816 206.58 15.6349C206.366 15.6882 205.726 15.7416 204.82 15.7416H203.593C203.06 15.7416 203.06 15.7416 203.06 15.3149V11.2085C203.06 10.5152 203.06 10.5152 203.54 10.5152H205.086C205.993 10.5152 206.686 10.5152 207.113 10.6218C208.073 10.8885 208.286 11.4751 208.606 12.4351L208.66 12.5417L208.713 12.5951C208.766 12.7017 208.926 12.7551 209.086 12.7551C209.246 12.7551 209.46 12.7017 209.513 12.5417L209.566 12.4884L209.513 12.1684C209.406 10.9418 209.3 9.87521 209.193 9.55522L209.14 9.39523L208.98 9.44856C208.766 9.50189 207.433 9.50189 206.153 9.50189H202.153C201.353 9.50189 200.607 9.50189 199.647 9.44856H199.54C199.38 9.55522 199.327 9.76854 199.327 9.87521C199.327 10.0885 199.38 10.1952 199.487 10.3018L199.913 10.3552C201.033 10.4618 201.087 10.6218 201.087 12.8617V20.5413C201.087 22.8345 200.98 22.9412 199.913 23.0479L199.167 23.1012L199.113 23.1545C199.007 23.2612 198.953 23.4745 199.007 23.6345C199.007 23.7945 199.113 23.9011 199.22 23.9545H199.327C200.553 23.9011 201.3 23.9011 202.207 23.9011H204.127C205.993 23.9011 207.86 23.9011 209.833 23.9545H209.94L209.993 23.8478C210.1 23.3145 210.686 21.6613 210.793 20.9146ZM196.127 10.2485C196.287 10.1419 196.287 9.98187 196.287 9.82187C196.287 9.66188 196.18 9.55522 196.074 9.50189H195.967C195.274 9.55522 194.58 9.55522 193.887 9.55522C193.034 9.55522 192.234 9.55522 191.7 9.50189H191.594C191.487 9.55522 191.38 9.71521 191.38 9.87521C191.38 10.0352 191.434 10.1952 191.54 10.3018L191.594 10.3552L192.02 10.4085C192.767 10.5152 192.82 10.6752 192.82 10.6752C192.82 10.8352 192.82 11.0485 192.66 11.4751C192.287 12.3817 191.274 14.8349 190.687 16.2749C190.527 16.6482 190.314 17.1282 190.101 17.6615C189.674 18.6214 189.194 19.7947 188.767 20.7013C187.754 18.3548 186.847 16.0616 185.887 13.6617C185.247 12.1151 184.927 10.9951 184.821 10.7285C184.874 10.6752 185.034 10.5685 185.674 10.4618L186.047 10.4085L186.101 10.3552C186.207 10.2485 186.261 10.0885 186.261 9.92854C186.261 9.76854 186.154 9.60855 186.047 9.55522H185.941C184.981 9.60855 184.234 9.60855 183.381 9.60855C182.474 9.60855 181.781 9.60855 181.194 9.55522H181.141L181.088 9.60855C180.981 9.66188 180.874 9.82187 180.874 9.98187C180.874 10.1419 180.928 10.3018 181.034 10.4085L181.088 10.4618L181.514 10.5152C182.368 10.6218 182.634 10.9951 183.114 12.1684L186.901 21.4479C187.327 22.5679 187.701 23.5278 187.861 24.2745V24.3811L187.914 24.4345C188.021 24.4878 188.181 24.4878 188.287 24.4878C188.394 24.4878 188.501 24.4345 188.607 24.3811L188.661 24.3278V24.2745C189.034 23.1012 190.047 20.5947 190.901 18.7281L192.074 16.1149C193.087 13.875 193.887 12.1684 194.474 11.2085C194.74 10.7818 195.007 10.5685 195.434 10.5152L196.127 10.2485ZM182.208 40.007C178.314 43.0468 175.755 47.8999 175.755 53.6063C175.755 60.2193 178.954 64.9124 183.061 67.7389C186.794 70.2454 191.22 71.152 195.86 71.152C199.167 71.152 202.847 70.4054 203.966 69.9788C204.553 69.7654 205.14 69.5521 205.78 69.4455C206.526 68.4855 207.86 65.0723 208.233 62.4058C208.02 62.0325 207.273 61.9258 206.9 62.1925C205.726 65.2323 202.793 69.5521 196.18 69.5521C187.754 69.5521 180.928 63.5791 180.928 52.8063C180.928 42.1935 187.594 37.2338 195.434 37.2338C202.847 37.2338 205.193 41.2336 205.94 44.7001C206.313 45.0201 207.06 44.9667 207.326 44.5934C206.9 41.4469 206.686 38.2471 206.633 37.0738C206.153 37.1271 205.833 37.0205 205.193 36.8605C202.793 36.1672 198.9 35.6339 196.127 35.6339C190.687 35.6872 185.941 37.1271 182.208 40.007ZM175.648 20.5413V12.915C175.648 10.6218 175.701 10.4085 176.821 10.3552L177.408 10.3018H177.461C177.568 10.2485 177.621 10.0885 177.621 9.87521C177.621 9.82187 177.568 9.55522 177.408 9.44856H177.301C176.288 9.50189 175.541 9.50189 174.635 9.50189C173.728 9.50189 172.981 9.50189 171.968 9.44856H171.861C171.702 9.55522 171.648 9.76854 171.648 9.87521C171.648 10.0885 171.702 10.1952 171.808 10.3018H171.861L172.448 10.3552C173.515 10.4618 173.621 10.6218 173.621 12.915V20.5413C173.621 22.8345 173.568 22.9412 172.448 23.1012L171.861 23.1545L171.808 23.2078C171.702 23.3145 171.648 23.5278 171.702 23.6878C171.702 23.8478 171.808 23.9545 171.915 24.0078H172.021C173.088 23.9545 173.835 23.9545 174.688 23.9545C175.541 23.9545 176.288 23.9545 177.355 24.0078H177.461C177.621 23.9011 177.675 23.6878 177.675 23.5812C177.675 23.4212 177.621 23.2612 177.515 23.1545L176.928 23.0479C175.701 22.9945 175.648 22.8345 175.648 20.5413ZM164.875 62.5658V44.2734C164.875 38.8337 164.982 37.9804 168.022 37.7138L169.302 37.6071C169.622 37.3938 169.515 36.4872 169.195 36.3272C166.635 36.4338 164.875 36.4872 162.849 36.4872C160.715 36.4872 158.956 36.4338 156.396 36.3272C156.076 36.4872 155.969 37.3938 156.289 37.6071L157.569 37.7138C160.609 37.9804 160.715 38.8337 160.715 44.2734V62.5125C160.715 67.9522 160.609 68.6455 157.569 69.0188L156.289 69.1788C155.969 69.4988 156.076 70.2987 156.396 70.4587C158.956 70.3521 160.715 70.2987 162.849 70.2987C164.875 70.2987 166.635 70.3521 169.195 70.4587C169.515 70.2987 169.622 69.3921 169.302 69.1788L168.022 69.0188C164.982 68.6988 164.875 68.0055 164.875 62.5658ZM167.542 10.2485C167.648 10.1419 167.702 9.98187 167.702 9.82187C167.702 9.66188 167.595 9.55522 167.488 9.44856L167.435 9.39523H167.382C166.688 9.44856 166.102 9.44856 165.195 9.44856C164.449 9.44856 163.755 9.44856 162.689 9.39523H162.582C162.475 9.44856 162.369 9.55522 162.315 9.71521C162.262 9.92854 162.315 10.0885 162.475 10.1952L162.529 10.2485L162.955 10.3018C163.702 10.4085 164.075 10.5152 164.182 10.6752C164.449 11.1018 164.609 12.6484 164.609 14.9949V20.168C163.862 19.4214 163.115 18.5148 162.102 17.4481L159.115 14.0883C156.982 11.7418 155.809 10.1419 155.542 9.44856L155.489 9.3419H155.382C155.116 9.39523 154.796 9.39523 154.422 9.39523C154.049 9.39523 152.929 9.39523 152.023 9.3419H151.916C151.809 9.39523 151.703 9.50189 151.703 9.66188C151.649 9.82187 151.703 10.0352 151.809 10.1419L151.863 10.1952L152.289 10.2485C152.876 10.3018 153.302 10.4618 153.516 10.7285C153.942 11.1551 153.942 11.5818 153.942 12.1684V18.5148C153.942 19.528 153.942 21.9812 153.676 22.6745C153.622 22.7812 153.462 22.9412 152.876 22.9945L152.236 23.0479L152.183 23.1012C152.076 23.2078 152.023 23.3678 152.076 23.5278C152.129 23.6878 152.183 23.8478 152.289 23.9011L152.343 23.9545H152.396C153.142 23.9011 153.729 23.9011 154.636 23.9011C155.382 23.9011 156.076 23.9011 157.142 23.9545H157.196L157.249 23.9011C157.356 23.8478 157.409 23.7412 157.462 23.5812C157.462 23.4212 157.462 23.2612 157.356 23.1545L157.302 23.1012L156.556 23.0479C156.022 22.9945 155.702 22.8879 155.596 22.7279C155.382 22.3012 155.222 20.7546 155.222 18.4081V13.7683C155.222 13.395 155.222 12.9684 155.276 12.7017C155.596 13.075 156.182 13.7683 156.716 14.355C157.089 14.7816 157.409 15.1549 157.622 15.3683L162.582 21.0213C164.235 22.8879 165.035 23.8478 165.302 24.2211L165.355 24.2745H165.462C165.728 24.2745 165.942 24.1678 166.048 23.9011V23.7945C165.995 23.5278 165.995 22.6745 165.995 20.0613V14.675C165.995 13.555 165.995 11.3151 166.315 10.6218C166.315 10.5685 166.582 10.4085 167.382 10.2485H167.542ZM148.396 10.2485C148.503 10.1419 148.556 9.98187 148.503 9.82187C148.503 9.71521 148.396 9.55522 148.289 9.50189H148.183C147.436 9.55522 146.849 9.55522 145.943 9.55522C145.143 9.55522 144.343 9.55522 143.49 9.50189H143.436L143.383 9.55522C143.276 9.60855 143.223 9.76854 143.17 9.87521C143.17 10.0352 143.17 10.1952 143.276 10.3018L143.33 10.3552L143.916 10.4085C144.396 10.4618 144.716 10.5685 144.876 10.7818C145.143 11.2085 145.25 12.7551 145.25 15.1016V17.5548C145.25 20.0613 144.556 23.1012 141.143 23.1012C138.317 23.1012 136.983 21.3413 136.983 17.5548V12.8617C136.983 10.5685 137.037 10.4085 138.103 10.3552L138.637 10.3018H138.69C138.797 10.2485 138.85 10.0885 138.85 9.92854C138.85 9.76854 138.797 9.60855 138.637 9.50189H138.53C137.517 9.55522 136.823 9.55522 135.917 9.55522C135.063 9.55522 134.263 9.55522 133.25 9.50189H133.144C132.984 9.55522 132.93 9.76854 132.93 9.92854C132.93 10.0885 132.984 10.2485 133.09 10.3018H133.144L133.73 10.3552C134.797 10.4618 134.85 10.6218 134.85 12.8617V17.9281C134.85 20.488 135.383 22.0879 136.557 23.1012C137.517 23.9011 138.903 24.3278 140.663 24.3278C142.37 24.3278 143.97 23.6878 144.876 22.7279C145.89 21.6079 146.423 19.9014 146.423 17.5015V15.1016C146.423 14.035 146.423 11.4751 146.689 10.8352C146.796 10.6218 147.169 10.4618 147.596 10.4085L148.183 10.3552L148.396 10.2485ZM123.811 37.6071C124.131 37.3938 124.024 36.4872 123.704 36.3272C121.517 36.4338 119.758 36.4872 117.731 36.4872C115.544 36.4872 113.785 36.3805 111.278 36.3272C110.958 36.4872 110.851 37.3938 111.171 37.6071L112.505 37.7138C115.171 37.9271 115.544 38.7804 115.544 44.1668V62.6191C115.544 68.0055 115.438 68.5388 112.558 69.0188L111.705 69.1788C111.385 69.4988 111.491 70.2987 111.811 70.4587C113.838 70.4054 115.544 70.2987 117.784 70.2987C119.811 70.2987 121.517 70.3521 124.291 70.4587C124.611 70.2987 124.717 69.3921 124.397 69.1788L122.904 69.0188C120.024 68.6988 119.758 68.0055 119.758 62.6191V55.4195C119.758 53.8729 119.864 53.7663 122.317 53.7663H136.983C139.437 53.7663 139.543 53.8729 139.543 55.4195V62.6725C139.543 68.0589 139.543 68.5922 136.397 69.0721L135.437 69.2321C135.117 69.5521 135.223 70.3521 135.543 70.5121C137.783 70.4054 139.65 70.3521 141.73 70.3521C143.756 70.3521 145.463 70.4054 147.916 70.5121C148.236 70.3521 148.343 69.4455 148.023 69.2321L146.796 69.0721C143.81 68.6988 143.703 68.0589 143.703 62.6725V44.1668C143.703 38.7804 143.81 38.0337 146.796 37.7138L147.863 37.6071C148.183 37.3938 148.076 36.4872 147.756 36.3272C145.463 36.4338 143.703 36.4872 141.676 36.4872C139.597 36.4872 137.837 36.4338 135.49 36.3272C135.17 36.4872 135.063 37.3938 135.383 37.6071L136.343 37.7138C139.383 38.0337 139.49 38.7804 139.49 44.1668V50.0865C139.49 51.6864 139.383 51.7397 136.93 51.7397H122.264C119.811 51.7397 119.704 51.6864 119.704 50.0865V44.1668C119.704 38.7804 119.811 38.0337 122.797 37.7138L123.811 37.6071ZM121.731 20.9146V20.808C121.624 20.5946 121.411 20.488 121.251 20.488C121.144 20.488 121.037 20.5413 120.984 20.5947L120.931 20.648C120.344 21.8746 119.758 22.5146 119.491 22.6212C119.011 22.8345 118.371 22.9412 116.824 22.9412C115.064 22.9412 114.584 22.7279 114.371 22.5146C114.051 22.1946 113.998 21.5013 113.998 20.3813V17.3415C113.998 16.9148 113.998 16.9148 114.531 16.9148H115.758C116.504 16.9148 117.038 16.9148 117.358 17.0215C117.678 17.0748 117.784 17.2882 117.891 17.7148L118.104 18.5681L118.158 18.6214C118.211 18.7281 118.371 18.7814 118.584 18.7814C118.798 18.7814 118.958 18.7281 119.011 18.5681V18.4614C119.011 18.2481 119.011 17.9815 118.958 17.6615C118.958 17.2882 118.904 16.8082 118.904 16.3815C118.904 15.9549 118.904 15.4749 118.958 15.0483C118.958 14.7283 119.011 14.4083 119.011 14.195V14.0883C118.958 13.9817 118.798 13.875 118.584 13.875C118.424 13.875 118.264 13.9283 118.158 14.035L117.944 14.9949C117.838 15.4749 117.731 15.5816 117.518 15.6349C117.304 15.6882 116.664 15.7416 115.758 15.7416H114.531C113.998 15.7416 113.998 15.7416 113.998 15.3149V11.2085C113.998 10.5152 113.998 10.5152 114.478 10.5152H116.024C116.931 10.5152 117.624 10.5152 118.051 10.6218C119.011 10.8885 119.224 11.4751 119.544 12.4351L119.598 12.5417L119.651 12.5951C119.704 12.7017 119.864 12.7551 120.024 12.7551C120.184 12.7551 120.397 12.7017 120.451 12.5417L120.504 12.4884L120.451 12.1684C120.344 10.9418 120.238 9.87521 120.131 9.55522L120.078 9.39523L119.918 9.44856C119.704 9.50189 118.371 9.50189 117.091 9.50189H113.091C112.291 9.50189 111.545 9.50189 110.585 9.44856H110.478C110.318 9.55522 110.265 9.76854 110.265 9.87521C110.265 10.0352 110.318 10.1952 110.425 10.3018L110.851 10.3552C111.971 10.4618 112.025 10.6218 112.025 12.8617V20.5413C112.025 22.8345 111.918 22.9412 110.851 23.0479L110.105 23.1012L110.051 23.1545C109.945 23.2612 109.891 23.4745 109.945 23.6345C109.945 23.7945 110.051 23.9011 110.158 23.9545H110.265C111.491 23.9011 112.238 23.9011 113.145 23.9011H115.064C116.931 23.9011 118.798 23.9011 120.771 23.9545H120.877L120.931 23.8478C121.037 23.3145 121.571 21.6613 121.731 20.9146ZM103.865 20.5947V12.915C103.865 10.6218 103.918 10.5152 104.985 10.4085L105.412 10.3552H105.465C105.572 10.3018 105.625 10.1419 105.625 9.92854C105.625 9.87521 105.572 9.60855 105.412 9.50189H105.305C104.292 9.55522 103.545 9.55522 102.798 9.55522C101.892 9.55522 101.145 9.55522 100.239 9.50189H100.132C99.9719 9.60855 99.9186 9.82187 99.9186 9.92854C99.9186 10.1419 99.9719 10.2485 100.079 10.3552L100.559 10.4085C101.625 10.5152 101.732 10.6752 101.732 12.915V15.3683C101.732 15.9016 101.732 15.9016 100.825 15.9016H94.6922C93.7855 15.9016 93.7855 15.9016 93.7855 15.3683V12.915C93.7855 10.6218 93.8389 10.5152 94.9055 10.4085L95.3321 10.3552H95.3855C95.4921 10.3018 95.5455 10.1419 95.5455 9.92854C95.5455 9.87521 95.4921 9.60855 95.3321 9.50189H95.2255C94.2655 9.55522 93.5189 9.55522 92.7723 9.55522C92.2389 9.55522 91.7056 9.55522 91.1723 9.50189C90.8524 9.50189 90.479 9.50189 90.0524 9.44856H89.9457C89.7857 9.55522 89.7324 9.76854 89.7324 9.87521C89.7324 10.0885 89.7857 10.1952 89.8924 10.3018H89.9457L90.5324 10.3552C91.4923 10.4085 91.6523 10.6218 91.6523 12.8617V20.5413C91.6523 22.7812 91.599 22.8345 90.5324 23.0479L90.1057 23.1012L90.0524 23.1545C89.9457 23.2612 89.8924 23.4745 89.9457 23.6345C89.9457 23.7945 90.0524 23.9011 90.1591 23.9545H90.2657C90.5857 23.9545 90.8524 23.9545 91.119 23.9011C91.599 23.9011 92.1323 23.8478 92.7189 23.8478C93.5189 23.8478 94.2122 23.8478 95.4388 23.9011H95.5455C95.7054 23.8478 95.7588 23.6345 95.7588 23.4745C95.7588 23.3145 95.7054 23.1545 95.5988 23.0479L94.9055 22.9412C93.8922 22.8345 93.7322 22.7279 93.7322 20.4347V17.3948C93.7322 16.8615 93.7322 16.8615 94.6388 16.8615H100.772C101.678 16.8615 101.678 16.8615 101.678 17.3948V20.4347C101.678 22.7279 101.678 22.7812 100.505 22.9412L100.025 22.9945L99.9719 23.0479C99.8652 23.1545 99.8119 23.3678 99.8652 23.5278C99.8652 23.6878 99.9719 23.7945 100.079 23.8478H100.185C101.198 23.7945 101.945 23.7945 102.745 23.7945C103.598 23.7945 104.345 23.7945 105.305 23.8478H105.412C105.572 23.7412 105.625 23.5278 105.625 23.4212C105.625 23.2612 105.572 23.1012 105.465 22.9945L104.878 22.8879C103.918 22.9945 103.865 22.8345 103.865 20.5947ZM86.3193 9.18191V9.12858L86.2659 9.07525C86.1593 8.91525 85.9459 8.91525 85.8926 8.91525C85.8393 8.91525 85.786 8.91525 85.6793 8.96859H85.626L85.5726 9.02192C85.306 9.50189 85.1993 9.55522 84.026 9.55522H75.1732C74.2132 9.55522 73.7866 9.50189 73.6799 9.02192V8.96859L73.6266 8.91525C73.5733 8.86192 73.4666 8.80859 73.3066 8.80859C73.2533 8.80859 73.0933 8.80859 72.9866 8.86192L72.9333 8.91525V8.96859C72.7733 9.82187 72.4533 11.1551 72.1333 12.1151V12.1684L72.1867 12.2218C72.2933 12.4884 72.7733 12.5951 72.9866 12.4351H73.0399V12.3817C73.2533 11.9018 73.4666 11.4218 73.9466 10.9418C74.4265 10.5152 75.4932 10.4618 76.4531 10.4618H77.6264C78.1063 10.4618 78.1063 10.4618 78.1063 10.9951V20.5413C78.1063 22.8345 77.9997 22.9412 76.9331 23.0479L76.1864 23.1012H76.1331C76.0265 23.1545 75.9198 23.3145 75.9198 23.5278C75.9198 23.6878 75.9731 23.8478 76.1331 23.9011H76.2398C77.573 23.8478 78.3197 23.8478 79.2263 23.8478C80.0796 23.8478 80.7729 23.8478 81.9995 23.9011H82.1061C82.2661 23.8478 82.3195 23.6345 82.3195 23.4745C82.3195 23.3145 82.2661 23.1545 82.1595 23.0479L81.4128 22.9412C80.3462 22.8345 80.2929 22.7279 80.2929 20.4347V10.8352C80.2929 10.6218 80.2929 10.4085 80.3462 10.3552C80.3996 10.3018 80.6129 10.3018 80.7729 10.3018H82.2661C83.3861 10.3018 84.186 10.4618 84.666 10.7818C84.8793 10.9418 85.0393 11.4751 85.146 12.2218V12.2751L85.1993 12.3284C85.2526 12.4351 85.4126 12.4884 85.5726 12.4884C85.7859 12.4884 85.9459 12.3817 85.9993 12.2751V12.1684C85.9459 11.7951 86.0526 10.0352 86.3193 9.18191ZM71.76 53.6063C71.76 60.2193 74.9598 64.9124 79.0663 67.7389C82.7994 70.2454 87.2259 71.152 91.8656 71.152C95.1721 71.152 98.8519 70.4054 99.9719 69.9788C100.559 69.7654 101.145 69.5521 101.785 69.4455C102.532 68.4855 103.865 65.0723 104.238 62.4058C104.025 62.0325 103.278 61.9258 102.905 62.1925C101.732 65.2323 98.7986 69.5521 92.1856 69.5521C83.7594 69.5521 76.9331 63.5791 76.9331 52.8063C76.9331 42.1935 83.5994 37.2338 91.439 37.2338C98.8519 37.2338 101.198 41.2336 101.945 44.7001C102.318 45.0201 103.065 44.9667 103.332 44.5934C102.905 41.4469 102.692 38.2471 102.638 37.0738C102.158 37.1271 101.838 37.0205 101.198 36.8605C98.7986 36.1672 94.9055 35.6339 92.1323 35.6339C86.7992 35.6339 82.0528 37.0738 78.2663 40.007C74.3199 43.0468 71.76 47.9532 71.76 53.6063Z" fill="#800000"/>
<path d="M58.4032 44.993L58.4013 9.25944C29.6953 6.49162 8.03003 9.25944 8.03003 9.25944V44.9995C10.3177 69.2218 33.0045 72.067 33.2198 72.0289C37.2721 71.2974 56.2917 67.4726 58.4045 44.994" fill="#800000"/>
<path d="M28.397 11.3009C27.1064 11.2957 25.5657 11.5241 23.8147 12.1993C22.1669 12.8348 18.1558 12.3024 18.1558 12.3024V27.7604C21.6732 27.9996 26.2547 26.1879 28.5226 26.3385C30.8682 26.4946 32.8664 27.5785 32.8664 27.5785V12.4533C32.8664 12.4533 31.2366 11.312 28.397 11.3009ZM38.4238 11.3158C35.9439 11.3946 33.5732 12.5062 33.5732 12.5062C33.5776 13.0304 33.5732 27.5902 33.5732 27.5902C33.5732 27.5902 35.125 26.3385 38.3309 26.3385C39.886 26.3385 46.0007 28.0164 48.9482 27.8154V12.4336C48.9482 12.4336 44.6083 13.0477 40.8547 11.661C40.0875 11.3781 39.2505 11.2898 38.4238 11.3158ZM13.2857 15.0436C11.1418 15.0436 11.0961 18.3277 13.2857 18.3277C15.4404 18.3277 15.4404 15.0436 13.2857 15.0436ZM49.5501 15.646V18.5739C50.3096 18.7984 52.3918 17.6106 53.221 17.2474C53.8152 16.9885 54.6548 17.1575 54.6961 17.4502C54.7219 17.638 54.74 17.7715 54.7529 17.8581C54.7426 17.7715 54.7245 17.638 54.6987 17.4502C54.6987 17.4502 54.6057 15.7253 52.756 15.7253C52.1541 15.7253 51.423 16.4582 49.5501 15.646ZM15.5332 15.9229V17.801H17.442V15.9229H15.5332ZM13.286 21.6039C11.046 21.6039 11.046 24.8865 13.286 24.8865C15.4541 24.8865 15.4407 21.6039 13.286 21.6039ZM49.4987 21.6896V24.6175C49.4987 24.6175 51.134 24.6044 52.9475 23.4362C53.4925 23.0851 54.2959 23.2285 54.6963 23.5468H54.6989C54.6989 23.5468 54.4535 21.6297 52.8312 21.8671C49.8423 22.3029 49.4987 21.6896 49.4987 21.6896ZM15.5334 22.4651V24.3435H17.4422V22.4651H15.5334ZM33.2745 29.5052C33.1919 29.5049 33.1087 29.5106 33.0237 29.5227C32.5399 29.5772 31.9519 29.8627 31.8054 30.3739C31.5104 30.6648 31.5241 29.8849 30.9253 30.2269C30.6703 30.5734 31.3353 31.3367 31.1777 31.3835C30.5249 31.5819 30.6063 30.4044 30.2345 30.3739C29.6985 30.5641 28.3479 31.7986 29.6755 32.7761C29.6344 32.1166 30.884 31.398 31.2973 32.8552C32.5504 32.7596 32.9728 33.5191 33.1273 33.9487C34.9731 34.2794 34.4435 35.5013 34.3892 35.5013C34.2162 35.2378 33.4208 34.0133 32.1201 34.8606C31.8191 35.0544 31.2975 35.2455 31.0405 34.9898C31.0658 35.4005 31.5835 35.7699 31.9374 35.6718C33.0932 35.3566 33.3859 36.4338 32.5006 36.7258C32.6902 37.0203 33.0542 37.0022 33.3885 36.7981C33.8855 36.4958 33.9449 36.2272 34.1257 36.0438C34.4383 37.5498 32.5316 37.6971 31.923 37.7875C32.016 38.1078 32.2213 38.1776 32.606 38.2887C30.5931 38.3584 30.1978 40.2468 30.3164 41.337C30.7708 41.3705 31.4693 40.3837 31.4091 40.9495C29.9834 42.4633 29.5016 44.4886 30.2529 45.7777C30.6101 45.6304 30.7204 45.2378 30.8473 44.9148C30.9015 44.8787 31.6334 45.2042 30.4637 46.6069C30.382 46.9711 29.9708 48.0716 30.8728 48.3351C31.2169 47.9321 31.1666 47.5756 31.2417 47.1623C31.5034 47.0564 31.6765 47.9037 31.5747 48.1621C30.3988 48.6477 30.545 52.2566 31.9072 54.1941C31.2766 52.7862 31.3611 50.9779 31.9072 49.5338C32.328 48.4178 33.2521 45.912 33.2766 45.9404C33.8003 46.5837 34.4642 49.3478 34.4642 50.4922C35.1978 49.8515 35.3425 49.154 35.9444 48.6813C36.2286 49.6862 36.3448 50.3475 36.5721 51.2362C36.864 50.3708 37.6365 49.3917 36.5334 46.5862C36.7607 46.3796 37.1792 47.5576 37.311 47.5007C37.4117 47.462 37.5615 46.873 37.187 45.7777C36.412 45.0518 36.2389 43.99 36.3603 43.9099C36.4585 43.8454 36.8072 45.013 37.2205 45.0698C37.3032 44.1657 37.5228 43.2409 37.4556 42.5356C37.4401 42.3522 37.1379 41.417 36.2802 40.6446C35.7842 40.1977 35.5931 39.2626 35.637 39.074C36.1175 39.5157 36.0116 39.8412 36.4197 40.0195C36.5902 39.6371 36.4714 38.2292 35.978 37.6118C35.6964 37.1443 35.8307 37.2088 36.1691 37.493C36.6109 38.0174 36.3991 37.9761 36.7788 38.1957C37.6158 36.222 36.8563 35.8397 36.9157 35.7002C36.9674 35.5736 37.5615 36.6198 38.0653 36.2168C37.2438 35.7829 37.2645 35.1215 37.1715 34.4085C37.1017 33.8454 36.7375 33.6335 36.877 33.4956C37.6985 34.114 37.9232 33.4287 37.949 33.2913C37.7915 33.3809 37.0604 33.4783 36.9725 32.3421C36.9364 31.8945 36.2492 31.6968 36.2492 31.6968C36.6729 31.616 38.0265 31.5408 37.7036 30.1972C37.5383 30.5137 37.1379 31.0138 36.2957 30.8175C36.2931 30.8177 36.8356 30.6715 36.7375 30.0877C35.5181 30.7718 34.5132 29.5072 33.2745 29.5052ZM23.3193 30.4607C23.1224 30.4615 22.9049 30.4876 22.6649 30.5429C21.746 30.7542 19.1847 32.1016 18.8297 30.6367C17.9072 32.2714 19.7329 31.9857 20.2839 31.9521C20.0669 32.1032 19.7918 32.3481 19.1113 32.2019C17.6693 33.1518 12.3989 36.501 10.877 37.3432C12.9199 38.2938 16.0638 36.3124 16.1087 36.3124L16.1459 36.3486C16.139 37.8237 11.9961 39.9368 10.2201 40.89C12.9643 41.8355 15.5613 39.291 15.2495 39.9084C14.8773 40.6317 11.5273 43.5224 10.0667 45.0673C11.2043 45.3798 12.2488 44.4628 13.0734 43.7601C13.9729 42.9954 15.4792 41.0683 15.2495 42.0241C12.8145 45.0285 10.8977 51.2724 12.0788 51.6728C12.7548 50.2571 15.5559 43.0445 15.7318 43.0781C15.9171 43.1143 15.512 44.982 15.4503 46.2194C15.3126 48.937 15.294 50.2235 15.8827 52.8998C16.1852 52.4865 16.4766 52.4943 16.9553 52.5278C17.0145 52.2669 16.9966 52.3341 16.6959 51.9363C15.9173 50.9081 16.8117 49.5028 16.4381 48.6451C16.1258 47.927 15.9494 48.5005 15.808 47.7565C16.0269 47.5576 16.606 47.4956 16.8442 47.4594C17.0984 44.6668 18.0328 43.246 17.6843 45.0078C17.5058 45.8991 17.234 47.3793 17.3629 47.4232C17.4924 47.4671 17.504 47.4646 17.6153 47.524C17.6665 47.5524 22.3063 39.9187 19.7339 45.2093C19.3965 45.9017 18.0266 47.7694 18.0266 47.7694C18.3883 48.1414 18.7282 48.5728 18.7721 48.8363C18.7838 48.906 24.9896 40.6679 20.7626 47.307C20.5037 47.7126 19.2348 49.074 18.9109 49.4692C18.868 49.5209 19.0281 51.0114 19.0281 51.0114C19.6729 50.5645 20.5959 49.663 21.0261 49.0895C20.9692 48.2473 21.1658 48.3584 21.2123 47.5343C21.4092 47.4077 21.6657 47.7591 21.9767 48.0381C22.1237 48.1698 26.2369 41.0089 23.6569 46.3796C23.2431 47.2424 22.327 48.2654 22.2844 48.348C22.4582 48.534 22.7163 49.123 23.0119 49.8076C23.0235 49.836 28.5125 41.8898 25.1769 47.8934C24.9142 48.3661 23.2614 50.3553 23.2823 50.4069C23.6882 51.4015 24.0436 52.3677 24.0428 52.3677C23.9424 51.5927 23.7845 50.0659 25.3908 48.8079C25.5993 50.1848 25.9692 50.2416 26.4479 50.6653C26.6577 50.8513 27.0506 51.6366 27.0968 50.9675C27.2335 49.0094 26.5975 49.0585 26.1234 48.2266C26.0103 48.0251 26.0312 47.5782 26.1196 47.6041C30.0728 47.7229 29.9416 51.4248 30.6013 51.4222C30.3009 50.4793 30.2193 49.5519 30.5753 48.7924C29.5158 48.0406 29.7811 46.7567 29.9834 46.2013C28.7933 44.9691 29.4763 42.3522 30.0449 41.7994C29.2795 40.686 30.2237 39.9265 30.0206 39.2419C29.6987 36.8239 27.543 37.5447 27.0599 35.2455C26.7228 35.6537 26.0999 37.0461 26.3918 37.5111C26.7269 38.0407 27.4458 38.0872 27.489 38.4772C27.5071 38.6426 27.5608 39.105 27.442 39.2031C27.0335 39.2755 26.7561 38.9009 26.3373 38.7356C25.5003 38.4049 23.4737 39.7921 23.351 38.5677C23.2735 37.7952 23.6158 38.3507 23.5781 37.6377C23.5443 36.9014 23.1731 37.4207 23.1679 36.47C23.164 35.7751 24.0033 35.5555 24.064 35.2765C24.2136 34.5868 25.4668 36.2918 26.2012 34.4835C25.7747 34.5429 24.908 34.2432 24.9899 33.8221C25.1878 32.7971 25.2214 30.4525 23.3193 30.4607ZM44.9007 30.4739C44.6992 30.4798 44.521 30.509 44.3711 30.5672C43.9113 30.7488 43.8235 30.7216 43.3301 31.1045C43.1131 31.0133 42.5112 30.6281 41.6587 31.655C41.3952 31.9727 41.08 32.3432 41.0645 32.616C41.0258 33.3031 41.0774 32.6511 41.2479 33.3034C41.3151 33.577 41.0051 34.0779 39.7522 34.499C39.2665 34.6617 39.3879 35.1396 39.3879 35.1396C39.6282 35.0259 40.0079 34.7547 40.5943 35.0311C41.7413 35.5684 41.9661 34.7185 42.6791 34.114C42.6791 34.114 42.4827 34.8761 42.6791 34.9174C43.5677 35.1009 43.2706 35.7674 43.1596 35.8681C42.0358 36.8704 42.506 37.2502 42.1056 37.8676C41.7284 38.4514 41.1446 38.6736 40.274 38.6452C39.0779 38.6064 41.8447 36.7955 39.1968 36.0438C39.6127 36.7361 39.7806 37.2941 38.8532 37.8314C38.272 38.1698 38.5664 39.8929 37.0707 39.0947C37.0707 39.0972 36.9493 40.3708 36.7762 40.4251C38.8093 42.205 37.6726 43.1763 37.776 45.7208C38.4115 47.338 37.714 48.1104 37.5538 48.1982C37.6545 49.2961 37.7579 49.898 38.4425 50.7893C38.941 51.4377 38.3985 52.4323 38.9049 53.1246C39.3724 51.4739 39.871 52.161 40.0053 49.8644C40.1913 49.4795 40.9638 48.7975 41.4029 48.7536C41.3977 50.1409 41.9067 51.4015 41.7982 51.9853C41.7982 51.9853 42.9658 51.7709 43.3275 51.9001C43.6142 51.9983 43.8364 52.3754 43.8441 52.6053C43.4463 52.8533 43.4463 52.7578 42.847 53.1969C41.7982 53.959 41.3151 55.5167 41.3151 55.5193C41.3125 55.5193 43.7796 53.5534 43.9552 53.1969C44.0973 52.9153 44.2316 52.4839 44.3608 52.037C44.3763 51.9879 43.0898 51.2388 42.7359 50.5516C41.6354 48.4075 44.446 51.82 44.5106 51.5229C44.676 50.7815 45.1926 50.084 45.1926 50.084C45.0144 49.8722 44.5726 49.743 43.901 48.5573C42.3639 45.8526 45.6835 49.7146 45.6835 49.7146C46.5618 49.2109 46.5669 49.8825 46.678 50.5955C46.6884 50.6627 48.1712 51.7554 48.2435 51.8252C48.662 51.4351 48.9668 50.9055 49.1373 50.5439C49.158 50.4948 46.4584 48.1001 45.996 47.307C42.2735 40.9236 49.0082 50.1409 49.3259 49.8877C49.5042 49.3865 49.5662 48.702 49.5455 47.7694C49.5455 47.7487 48.2797 46.873 47.4685 45.5348C44.3401 40.3708 49.5197 47.0771 49.5197 47.028C49.4577 45.9223 48.5509 41.1251 49.1787 42.5666C49.499 43.3054 50.5065 46.3718 50.3205 49.4925C50.6692 48.9267 52.1133 48.348 52.661 48.206C52.537 43.5741 49.6953 38.4359 50.4703 39.3891C52.4052 41.7813 53.0252 46.9634 54.353 51.4299C54.353 51.4274 55.2055 51.8639 55.0247 46.2013C54.9859 45.0518 54.5184 43.5276 53.95 42.4633C52.8263 40.3605 50.5478 36.8136 50.615 36.7903C51.1626 36.3408 52.5008 39.3995 53.6633 40.6033C54.4176 41.3809 56.5101 42.143 56.6548 42.0422C54.9756 38.7872 50.9095 35.7209 51.3331 35.3411C54.3298 38.1466 55.2753 38.2835 55.3993 38.1337L52.7023 35.5142C51.9402 34.4912 50.9301 33.7059 51.0722 33.7395C52.2761 34.0055 50.4445 32.7382 49.0314 32.3517C48.7757 32.283 48.3675 32.2603 48.3546 32.1326C48.3313 31.9149 48.6853 32.0079 48.9823 31.9149C49.1761 31.8588 49.3724 31.7095 49.3776 31.431C48.8377 31.5498 48.2848 31.4243 47.8224 31.2145C47.0474 30.8547 45.7739 30.4476 44.9007 30.4739ZM28.1963 32.3269C28.1963 32.3269 27.3185 32.9782 27.7189 33.6594C28.6316 35.2197 31.1777 33.284 32.5551 34.2355C32.428 33.9513 32.2118 33.68 31.9041 33.5395C30.6228 32.9288 28.1694 34.2458 28.1963 32.3269ZM33.4022 47.2553C30.7372 51.4377 32.9726 56.3201 32.8062 56.2581C31.6486 54.4498 30.8057 54.3775 30.5536 52.9877C30.4169 52.2333 29.0434 48.0949 26.5215 48.02C27.793 49.1153 27.4859 49.2677 27.5701 51.0605C26.7597 55.5529 33.0436 56.0179 32.6228 58.348C31.7612 56.966 30.4471 56.3847 28.4668 55.3075C27.589 54.61 26.5998 54.3052 26.5458 53.2176C26.651 52.4271 26.6962 52.5898 26.5611 51.5617C26.4631 50.828 25.7416 51.2724 25.2113 49.7405C24.0769 50.766 24.4923 51.9285 24.5846 52.5924C24.6114 52.7784 24.7409 53.4759 24.566 53.8841C24.1617 53.6077 23.8827 53.0342 23.4322 52.4581C22.6182 51.417 22.6277 50.1538 22.2193 49.2755C22.0307 48.8673 21.7602 48.3145 21.6014 48.3067L21.5719 48.3222C21.3733 49.9549 21.4701 51.3808 22.2103 52.6053C22.2103 52.6053 22.0062 52.9567 21.8414 53.0471C21.1382 52.8611 20.1379 52.2669 19.7318 51.1199C18.8566 51.8562 19.4774 52.8068 19.4358 52.7913C17.4686 51.7838 19.458 47.8779 16.6572 47.9916C17.3474 48.7433 16.9111 49.7095 16.8509 50.6136C16.8352 52.0758 18.6954 53.215 18.6954 53.215C16.621 52.5149 16.1937 53.4862 16.2188 53.4862C16.2188 53.4862 19.2761 54.8141 24.1023 55.3152C24.7225 55.3824 25.6078 56.1083 25.4611 56.1083C24.8424 56.0618 23.6151 55.2636 21.8455 56.8342C22.8855 56.8626 23.5998 58.5573 25.2945 57.5834C29.6615 56.346 31.28 58.5159 31.9909 59.0713C31.8385 59.3452 28.6349 57.059 26.0917 58.5754C24.739 59.3813 22.568 58.6503 20.8667 57.3793C21.5541 59.1334 24.4792 61.107 25.4438 61.1096C26.6303 61.1122 28.1444 59.5622 29.8648 59.6474C32.6192 59.7843 33.0025 62.2437 32.6974 62.0525C32.6977 62.0551 30.5303 58.4694 27.7452 62.2979C29.0462 61.7012 30.7876 61.8536 32.3118 62.5769C32.5174 62.6751 31.9382 63.3157 31.5288 63.7807C31.2611 64.083 30.0991 65.806 28.8426 64.1114C28.6548 63.8582 28.0558 62.285 24.126 62.6182C25.6101 63.2873 27.2485 65.044 28.0576 65.8448C30.1157 67.883 33.2283 63.3726 33.3471 63.8763C33.3471 64.889 33.8674 65.3824 34.1412 65.93C34.831 67.3095 33.2652 67.0796 32.4169 66.7231C32.4169 66.7231 34.0405 69.2547 35.4019 67.8468C36.908 66.2865 33.4298 65.1085 34.5339 63.866C35.1565 63.1685 37.342 65.4289 38.3314 65.4366C41.0025 65.7337 40.863 63.1969 42.2735 63.2718C40.9457 61.9259 39.5352 62.6596 39.2407 63.0031C38.352 64.0416 37.3187 63.3441 36.6057 62.7861C36.2131 62.2721 35.5595 62.192 34.9757 62.347C34.6992 62.3702 35.5362 61.3679 36.6264 61.5797C39.0831 62.0551 41.545 61.1742 42.1521 60.8357C43.1389 60.2778 43.6943 59.3374 44.8 58.286C44.4538 58.3506 42.4104 59.4873 41.7542 59.8179C39.7858 60.8099 38.5535 59.526 38.334 59.5312C37.9542 59.5415 38.0524 59.2444 38.6465 59.0533C40.6641 58.6038 42.0591 56.8213 43.9862 56.1212C46.1097 55.1706 48.8067 55.8138 50.6047 54.0365C51.1807 53.5508 51.5114 52.7242 52.2528 52.4788C51.6922 51.9673 51.1446 52.9877 50.8578 52.6363C51.3719 51.82 51.7 51.2026 51.7542 50.1874C51.7826 49.6371 52.4181 49.1282 52.568 48.826C51.9583 48.9164 50.3231 49.8774 49.995 50.4328C48.8971 51.8846 48.9539 53.2434 44.3634 55.2687C44.1335 55.2687 45.2107 54.486 45.5181 53.5792C45.6628 53.1556 46.2673 51.1871 45.8514 50.2364C44.9007 51.2 45.097 51.5152 44.8284 52.2308C44.1438 54.1062 43.7692 54.2845 42.0565 55.4418C41.8292 55.5968 40.5143 57.6273 38.8119 57.7229C38.9824 57.6764 38.8842 57.2527 39.4603 56.8755C41.3693 55.6278 40.6408 52.9283 43.1337 52.4788C41.8912 52.0396 41.0413 53.246 40.8139 53.1246C41.8162 51.7348 40.9353 50.5594 41.08 49.4227C40.7468 49.601 40.4109 50.0065 40.3799 50.3424C40.1913 52.3651 39.2484 52.719 39.1529 53.5896C39.3518 55.0311 38.1945 56.1548 37.3445 57.1675C37.1792 56.3279 37.4014 55.5813 38.4579 54.8864C39.0418 54.5041 38.4037 53.3519 38.4037 53.3519C38.166 54.6126 37.4582 54.9975 37.0165 55.0595C36.6341 55.1137 38.3675 53.2977 38.166 51.6366C38.0756 50.8978 37.8664 51.2259 37.7475 50.3966C36.2492 52.0577 37.3445 53.0884 35.8126 55.0052C35.0867 55.912 34.8129 57.511 34.7173 57.5498C34.7328 55.1731 34.8103 55.8681 35.8669 53.9357C36.7375 52.347 35.8178 50.8642 35.7016 49.9058C33.7977 51.2155 33.9552 53.7446 33.9062 53.1969C33.8597 52.6596 33.6215 51.7115 33.8777 50.8513C34.3014 49.4279 33.4022 47.2553 33.4022 47.2553ZM21.0865 49.9161C20.3699 50.6317 20.1201 50.6498 20.1601 50.9598C20.3219 51.3989 20.6368 51.7063 20.9736 52.0809C21.3973 52.4271 21.5531 52.7371 21.242 51.7296C21.0509 51.0605 21.0971 50.5749 21.0865 49.9161ZM46.6341 51.0605C46.6264 51.2129 46.6212 51.1923 46.5954 51.3731C46.5334 51.7916 46.5334 52.1197 46.4016 52.595C46.3887 52.6415 46.8718 52.8378 47.0914 53.0264C47.4014 52.7371 47.6803 52.5924 48.0058 52.1843C47.9335 52.1403 46.6367 51.0114 46.6341 51.0605ZM46.2983 52.9877C46.2828 52.9851 46.2724 52.9877 46.2699 52.9954C46.1872 53.2124 46.0787 53.4604 45.934 53.7497C45.8049 54.0107 46.195 53.8247 46.7943 53.2977C46.7943 53.2977 46.4119 53.0109 46.2983 52.9877ZM51.3719 53.7678C50.9043 54.3801 50.2146 54.9122 49.5248 55.1886C49.0392 56.7257 49.2691 58.3144 49.8322 57.4955C50.6382 56.3434 51.0981 55.106 51.3719 53.7678ZM16.1175 53.9125C16.4399 55.0001 16.6776 55.9507 17.281 57.0977C17.6254 57.7513 18.2245 56.1755 17.6109 54.5712C17.116 54.3594 16.5761 54.2225 16.1175 53.9125Z" fill="white"/>
<path d="M40.2141 12.5703L39.8576 12.8739L39.8654 13.3029L40.0875 13.5223H40.3071L40.5732 13.2913V12.9193L40.2141 12.5703ZM38.863 13.0454C38.5763 13.0531 38.1501 13.0921 37.9666 13.1211C37.7238 13.158 37.7238 13.2766 37.9279 13.3014C38.1294 13.3218 38.1681 13.3639 38.2741 13.6359C38.3722 13.9092 37.884 15.1497 37.7651 15.4417C37.6205 15.2291 37.1064 14.0945 37.1064 13.9405C37.1064 13.8302 37.3337 13.7196 37.4319 13.6933C37.6205 13.6346 37.6179 13.5037 37.4732 13.475C37.0702 13.4182 35.6494 13.2931 35.3988 13.2619C35.2154 13.2461 35.1328 13.4561 35.3549 13.4561C35.5822 13.4623 35.8173 13.3949 36.0679 13.7594C36.3547 14.1717 37.2536 16.1079 37.4706 16.9219C37.5766 16.7509 38.4755 14.1451 38.5272 13.8695C38.5892 13.5995 38.7804 13.3357 39.0439 13.2575C39.3177 13.1844 39.2919 13.0686 39.0904 13.05C39.0387 13.0441 38.9586 13.0431 38.863 13.0454ZM42.7638 13.2745C42.7303 13.2784 42.6915 13.3091 42.6683 13.3755C42.6088 13.5481 42.1206 14.2203 41.6168 14.437C41.3559 14.5393 41.932 14.778 41.8933 14.7672C41.8907 15.4145 41.9837 16.3851 42.1206 16.7736C42.2058 17.0053 42.4693 17.3817 42.6502 17.267C42.769 17.1931 43.0222 16.6899 43.1022 16.6258C43.2417 16.5117 43.1048 16.3177 42.9886 16.4347C42.8594 16.5478 42.7483 16.3704 42.7122 16.2526C42.6683 16.1373 42.5494 14.7139 42.6114 14.6863C42.6114 14.6863 43.7584 14.5465 43.8747 14.5465C43.9522 14.5465 43.9547 14.2957 43.8747 14.2957C43.7274 14.2957 42.7561 14.3159 42.7328 14.2611C42.6605 14.0526 42.6424 13.7997 42.8103 13.4476C42.862 13.3381 42.8181 13.2683 42.7638 13.2745ZM26.7876 13.4915C26.4373 13.5011 25.6215 13.8974 25.4787 14.934C25.3412 15.9284 26.2751 16.4665 27.015 16.4962C27.2622 16.4962 27.5701 16.1771 27.7231 16.1022C28.0506 15.941 27.9287 15.7819 27.5549 15.8674C26.7388 16.0733 26.3567 15.4187 26.2749 15.2438C26.605 14.9064 27.1664 14.3549 27.5081 14.0743C27.2826 13.8661 27.1888 13.5212 26.7876 13.4915ZM29.6463 13.7367C29.0974 13.7147 28.4782 14.211 28.2764 14.5228C28.009 14.9356 28.3368 15.2972 28.6861 15.5651C28.4632 15.7563 28.1529 16.0511 27.8657 16.32C27.9804 16.4448 28.6091 16.7424 28.9618 16.7338C29.4949 16.7219 29.9878 16.4471 30.2916 16.203C30.8463 15.7638 30.6541 15.2975 30.0899 14.9684C30.0359 14.9358 29.984 14.926 29.9305 14.916C30.2805 14.6382 30.5861 14.3908 30.6649 14.2934C30.4391 14.1384 30.1924 13.7612 29.6463 13.7367ZM26.4993 13.8286C26.5921 14.057 26.8277 14.2216 26.9597 14.3009C26.7275 14.5274 26.3663 14.9366 26.216 15.0474C26.0096 14.3843 26.0876 14.1562 26.4993 13.8286ZM24.6846 13.8382C24.5508 13.9495 24.2431 14.1342 24.0716 14.2296C23.9372 14.0764 23.7719 14.0761 23.5035 13.8658C23.3549 13.9795 23.0253 14.221 22.8481 14.436C23.1604 14.5274 23.396 14.5455 23.4162 14.8129C23.4275 15.0317 23.3929 16.3753 23.411 16.6212C23.5784 16.6581 23.783 16.6413 24.0207 16.6295C24.0393 16.4367 24.0307 14.7511 24.0307 14.5646C24.1204 14.5145 24.2123 14.4654 24.2568 14.4244C24.3552 14.4995 24.5505 14.7839 24.7078 14.8769C24.8287 14.7873 25.139 14.591 25.2718 14.4572C25.4118 14.3202 25.263 14.2208 25.1392 14.3401C25.0465 14.2293 24.8106 13.9867 24.6846 13.8382ZM39.9894 13.8917L39.824 13.9098L39.0645 14.5773C38.987 14.6938 39.1911 14.6938 39.2919 14.5551L39.8447 14.8715L39.868 16.3528C39.9093 16.53 40.0565 16.7013 40.2761 16.9203H40.7179L41.1932 16.3034C40.847 16.244 40.7075 16.1805 40.4647 15.9069L40.475 14.376L39.9894 13.8917ZM22.2002 14.0033C22.1568 13.9997 22.1121 14.0211 22.1103 14.0769C22.1008 14.2812 21.9799 14.2991 21.8233 14.2489C21.4983 14.1518 20.7786 13.9973 20.3596 14.2378C19.9912 14.4543 19.4268 14.9617 19.4368 15.6005C19.4477 16.6517 19.845 16.74 20.3056 17.0229C20.737 17.2766 21.333 17.1125 21.8783 16.9552C22.0943 16.8961 22.1212 17.0325 22.2253 17.1859C22.4012 17.4218 22.5433 17.2709 22.4177 17.08C22.3694 17.0182 22.2777 16.9196 22.2738 16.7948C22.2738 16.7132 22.2839 15.8529 22.2839 15.7465C22.2839 15.6447 22.0811 15.6556 22.0811 15.7465C22.0721 15.8989 22.094 16.1588 21.9579 16.3701C21.5805 16.9534 20.8626 17.1937 20.3581 16.4786C20.186 16.2409 20.1454 15.8813 20.124 15.6248C20.0899 15.2823 20.3493 14.839 20.364 14.7984C21.0067 13.957 21.898 14.5819 21.97 14.924C22.0178 15.1523 22.069 15.4321 22.069 15.5788C22.0633 15.6762 22.2741 15.6664 22.278 15.5651C22.278 15.4605 22.2839 14.1676 22.2839 14.0769C22.2857 14.0348 22.2436 14.0066 22.2002 14.0033ZM29.0757 14.2216C29.2472 14.2451 29.6257 14.4479 29.8517 14.6587C29.8024 14.6982 29.6626 14.8116 29.5117 14.9325C29.4229 14.9477 29.3319 14.9581 29.2392 14.9462C28.9602 14.9064 28.8259 14.6966 28.6967 14.5274C28.5639 14.3505 28.907 14.204 29.0757 14.2216ZM45.4195 14.6168C45.3523 14.6091 45.2955 14.6106 45.2438 14.6171C44.8718 14.6731 44.4895 15.1534 44.3655 15.314C44.2777 15.4411 44.3009 15.6008 44.3655 15.6607C44.4404 15.7212 44.5386 15.7821 44.6393 15.8434C44.6238 15.8333 44.6057 15.8227 44.5876 15.8155C44.4146 15.9803 44.1588 16.4551 44.1666 16.7767C44.1692 17.1001 44.4611 17.5695 44.6574 17.7449C44.8744 17.5778 45.1947 17.2967 45.6649 17.2061C45.7166 17.4326 45.8251 17.5695 46.0059 17.6979L46.6207 17.0265C46.6207 17.0265 46.3469 16.8118 46.1841 16.6132C46.1841 16.4727 46.1841 15.1278 46.2435 15.0552C45.8974 14.7462 45.621 14.6395 45.4195 14.6168ZM44.9312 15.0214C45.0242 15.0214 45.6313 15.3458 45.6132 15.5168C45.6339 15.6377 45.6365 15.893 45.6339 16.1484C45.3316 16.0405 44.7349 15.7602 44.5205 15.5809C44.4611 15.5354 44.4559 15.5091 44.5256 15.3962C44.6651 15.1916 44.8201 15.0128 44.9312 15.0214ZM31.1937 15.1399C31.0653 15.1327 30.8644 15.4874 31.6404 15.4582C31.7618 15.4535 31.8517 15.1776 31.1937 15.1399ZM29.264 15.4417C29.4492 15.5256 29.6378 15.6093 29.8437 15.7307C30.1408 15.8989 29.9881 16.219 29.6675 16.367C29.3418 16.5166 28.7582 16.096 28.6675 15.9229C28.7869 15.8199 29.0116 15.6413 29.264 15.4417ZM31.1847 15.6057C31.0514 15.5974 30.8494 15.8413 31.6277 15.9214C31.7486 15.9353 31.9109 15.6496 31.1847 15.6057ZM44.7323 15.8968C45.0242 16.0601 45.3652 16.2032 45.6339 16.2892C45.6313 16.5199 45.6236 16.7279 45.6236 16.8038C45.6236 16.9017 45.6313 16.9813 45.6391 17.0588C45.4815 17.0673 45.3446 17.1094 45.1431 17.2061C44.9777 17.0712 44.5489 16.5525 44.8641 15.9725C44.8201 15.9462 44.7762 15.9234 44.7323 15.8968ZM27.9904 16.9795C27.9566 16.9751 27.9233 17.0118 27.9178 17.0921C27.9067 17.2549 27.7081 17.205 27.5585 17.205C27.4066 17.2017 26.9633 17.1348 26.5812 17.3468C26.3379 17.4882 25.7812 17.924 26.0927 18.4468C26.2749 18.7516 27.3438 18.9999 27.6094 19.1758C27.8765 19.3502 27.9367 19.7989 27.6812 20.0048C27.3635 20.2569 26.4991 20.0441 26.3663 19.8911C26.1909 19.6977 26.124 19.538 26.0873 19.3135C26.0504 19.0839 25.8571 19.1032 25.8571 19.3135C25.8571 19.5228 25.9067 20.2412 25.945 20.4099C25.9798 20.5853 26.1547 20.5272 26.1715 20.3939C26.1912 20.2706 26.2728 20.2347 26.388 20.2252C26.6339 20.2053 27.0312 20.353 27.4717 20.3166C27.9953 20.2789 28.4066 19.4675 28.18 18.8359C27.9695 18.236 27.3012 18.3414 26.8512 18.198C26.4373 18.0852 26.2663 17.8248 26.7174 17.5285C27.2482 17.1859 27.9067 17.7356 27.9698 17.8514C28.0672 18.0263 28.1483 18.0234 28.1483 17.7958C28.1622 17.2996 28.1162 17.5804 28.0672 17.1128C28.0586 17.0294 28.0243 16.9839 27.9904 16.9795ZM24.9581 17.1239C24.9421 17.1298 24.9253 17.1513 24.9101 17.1929C24.8414 17.3626 24.3552 18.1167 24.0413 18.2404C23.7851 18.3456 23.814 18.4047 23.9793 18.4468C24.11 18.4721 24.2457 18.6287 24.2209 18.6269C24.195 19.2523 24.1333 20.0247 24.3278 20.3525C24.4516 20.5592 24.791 20.7733 24.945 20.638C25.1245 20.4946 25.2568 20.2528 25.3299 20.196C25.4681 20.0818 25.3542 19.9655 25.2377 20.0748C25.1449 20.1663 24.9005 19.9539 24.8899 19.9397C24.8106 19.8465 24.6946 18.6274 24.7486 18.5995C24.7486 18.5995 25.5244 18.5039 25.6262 18.5057C25.7029 18.5111 25.7132 18.2639 25.6306 18.2595C25.5045 18.2595 24.9124 18.3417 24.8915 18.2838C24.8589 18.1546 24.7791 17.7199 24.9736 17.3468C25.0421 17.2247 25.0059 17.1056 24.9581 17.1239ZM31.0101 17.1345L30.675 17.4362L30.6812 17.8508L30.8861 18.0609H31.094L31.343 17.8361V17.4796L31.0101 17.1345ZM38.0493 17.4951C38.008 17.4913 37.9692 17.513 37.9692 17.5713C37.9692 17.6517 37.791 17.6984 37.6179 17.6517C37.2743 17.5432 36.272 17.6982 35.8251 17.9428C35.4272 18.1696 34.8176 18.6925 34.8253 19.3489C34.8383 20.4326 35.2697 20.5248 35.7605 20.808C36.2281 21.0717 37.0108 21.0188 37.5998 20.864C37.822 20.7992 37.9434 20.7855 37.9356 20.9777C37.9356 21.0981 38.1036 21.072 38.1036 20.9826C38.1036 20.8942 38.1139 19.9854 38.1139 19.8847C38.1139 19.7715 37.9486 19.7881 37.9486 19.8847C37.9486 20.0366 37.9486 20.0815 37.7987 20.298C37.3957 20.8966 36.3831 20.872 35.8406 20.1404C35.6546 19.8911 35.4867 19.5582 35.7011 19.4951C35.9155 19.4298 36.5665 19.5649 36.9953 19.601C37.2536 19.6178 37.8504 19.6788 37.9253 19.7217C37.9899 19.7715 38.0906 19.8335 38.0906 19.7041C38.0958 19.577 38.0958 19.159 38.0958 19.0301C38.0958 18.9048 38.0002 18.9648 37.9279 19.0092C37.853 19.0604 37.2201 19.1663 36.9643 19.2112C36.7086 19.2585 35.9207 19.3223 35.714 19.252C35.5022 19.1813 35.5719 18.756 35.7605 18.5129C36.3107 17.7865 37.419 17.8372 37.8194 18.4411C37.9563 18.6514 37.9563 18.7013 37.9563 18.8589C37.9563 18.9539 38.1165 18.965 38.1165 18.8589C38.1242 18.7563 38.1294 17.6592 38.1294 17.5713C38.1294 17.5285 38.0881 17.499 38.0493 17.4951ZM20.7466 17.6884C20.3457 17.8328 19.7567 18.1921 19.5048 18.5654C19.1413 19.1218 18.9416 19.9991 19.572 20.5129C19.8688 20.7609 20.1144 20.9539 20.7197 20.8464C20.8398 20.6059 20.8936 20.5261 21.1057 20.2489C20.6887 20.3164 20.3671 20.2412 20.0623 20.0107C19.435 19.5246 19.6293 18.7411 19.814 18.4729C20.1524 17.9707 20.6337 18.6889 20.7197 18.7863C20.8316 18.653 21.0245 18.4615 21.2134 18.3135C21.0264 18.0666 20.8737 17.8374 20.7466 17.6884ZM40.8444 17.7274C40.7334 17.817 40.3717 18.2115 40.1702 18.3363C40.1237 18.1193 39.7905 17.8855 39.5192 17.8372C39.434 17.9309 38.7985 18.4153 38.5091 18.5563C38.4187 18.5987 38.4523 18.793 38.5789 18.7434C38.6951 18.6922 38.8915 18.5437 39.1188 18.4357C39.3823 18.538 39.6794 18.8049 39.7052 19.3543C39.731 19.9612 39.4159 20.5982 39.0723 20.8862C39.6665 20.7325 39.744 20.3776 40.0669 19.9609C40.2477 20.2265 40.5809 20.5473 40.8238 20.686C40.9969 20.5721 41.4825 20.0262 41.5884 19.9139C41.2371 19.8204 40.5603 19.4626 40.3924 19.0849C40.2606 18.8046 40.2916 18.6726 40.4234 18.4517C40.5422 18.607 41.3663 18.9854 41.7357 18.3543C41.3301 18.2068 40.9659 17.9413 40.8444 17.7274ZM22.6947 17.9387C22.3402 17.9707 21.8277 18.3856 21.675 18.7423C21.6133 18.8852 21.7009 19.3995 21.7662 19.4559C21.8127 19.4969 21.8486 19.5248 21.8894 19.5563C21.6562 19.7726 21.4381 19.9573 21.4448 20.2786C21.4549 20.5889 21.7009 20.8645 22.0191 21.0089C22.1896 20.7498 22.4552 20.591 22.7401 20.5241C22.7634 20.7715 22.8207 20.9521 22.9832 21.0764C23.0997 20.9475 23.566 20.545 23.6564 20.4538C23.7548 20.3608 23.6812 20.2492 23.566 20.3605C23.4975 20.4241 23.3312 20.3298 23.2818 20.2489C23.2818 20.1133 23.2818 18.6884 23.3415 18.6233C23.1307 18.3949 22.9302 17.9128 22.6947 17.9387ZM29.6711 17.9916C29.4399 18.1389 29.0837 18.4422 28.9295 18.5698C28.7373 18.7323 28.343 19.2939 28.5606 19.8958C28.7783 20.5132 29.2898 20.7072 29.6711 20.7374C29.7843 20.5261 29.9948 20.2053 30.1111 20.0562C30.2826 19.8284 30.1077 19.6909 29.9878 19.9539C29.8951 20.1559 29.4001 19.9351 29.2211 19.7625C28.9798 19.538 28.8297 18.9493 29.0217 18.7423C29.2157 18.5336 29.4944 18.6289 29.8533 18.6189C30.0896 18.6067 30.14 18.389 30.1806 18.2776C30.0664 18.2241 29.8951 18.1273 29.6711 17.9916ZM43.4097 18.2626C43.1746 18.3926 42.1568 18.9214 42.0715 19.5321C41.9475 20.4326 42.2317 20.6121 42.6269 21.1074C42.8491 21.3882 43.2211 21.4011 43.3916 21.3574C43.575 21.2314 44.2415 20.5977 44.3138 20.5184C44.381 20.4406 44.2854 20.3696 44.2027 20.4489C44.1201 20.5248 44.1511 20.5571 44.04 20.5734C43.9289 20.592 43.4742 20.6682 43.2107 20.5305C42.8801 20.3572 42.4513 19.9506 42.5494 19.4522C42.6218 19.0844 42.8801 18.934 42.9989 18.8232C43.1668 19.0095 43.3347 19.2197 43.5879 19.2197C43.8333 19.2215 44.0917 19.1071 44.1692 19.0053C43.9651 18.8413 43.5027 18.3543 43.4097 18.2626ZM22.3092 18.3766C22.3981 18.3828 22.7166 18.77 22.6947 18.9387C22.7109 19.0322 22.7182 19.2045 22.7223 19.3851C22.3273 19.6419 22.201 19.6333 21.9287 19.3262C21.7936 19.1694 21.806 18.8733 21.8683 18.7615C21.991 18.569 22.2064 18.3747 22.3092 18.3766ZM31.2149 18.4088L31.0651 18.4285L30.4172 19.026C30.2428 19.1823 30.3994 19.2564 30.5934 19.0839L30.9274 19.2879L30.94 20.6899C30.9744 20.8576 31.1211 20.9159 31.3275 21.1285L31.6902 20.8162L31.9778 20.5067C31.6554 20.4458 31.6554 20.467 31.4838 20.3125L31.4965 18.8242L31.2149 18.4088ZM45.9646 18.5375C45.1121 18.8415 44.5825 19.5163 44.5592 20.314C44.5437 20.7803 44.9416 21.7423 45.7605 21.7475C46.0136 21.5047 46.2797 21.2474 46.5458 21.072C46.7137 20.7684 46.9617 20.2776 46.9436 19.9038C46.923 19.4442 46.6388 18.7622 45.9646 18.5375ZM45.4737 19.1234C45.8561 19.2642 46.303 19.6398 46.3417 19.9852C46.396 20.4323 46.2668 20.9635 46.0266 21.2536C45.869 21.1766 45.2903 20.731 45.1586 20.3902C44.9855 19.9301 44.9855 19.4215 45.4737 19.1234ZM22.7264 19.5623C22.7277 19.7945 22.7264 20.0146 22.7264 20.0986C22.7241 20.1756 22.7267 20.2409 22.728 20.3107C22.6515 20.3298 22.5655 20.3479 22.4585 20.4019C22.3136 20.2786 21.6265 20.0541 22.0765 19.6909C22.3526 19.8539 22.4593 19.7271 22.7264 19.5623ZM47.4035 19.7485C47.2614 19.7485 47.1865 19.9487 47.3621 19.9952C47.4732 20.0262 47.6824 20.0634 47.8814 20.073C48.0183 20.0854 47.9744 19.8718 47.8736 19.8302C47.7677 19.7896 47.5455 19.7485 47.4035 19.7485ZM47.3957 20.2267C47.2485 20.2267 47.1787 20.4184 47.3518 20.4716C47.4629 20.5044 47.6644 20.5344 47.8684 20.5496C48.0002 20.5659 47.9563 20.3492 47.8581 20.3081C47.7574 20.2717 47.5326 20.2288 47.3957 20.2267ZM27.6094 20.9154C27.5135 21.1043 27.3586 21.2773 27.0767 21.4065C27.2482 21.5561 27.472 21.7483 27.6195 21.8454C27.7892 21.6566 27.945 21.4819 28.1403 21.2975C27.9468 21.2593 27.7228 21.1621 27.6094 20.9154ZM26.0377 21.2657C26.0137 21.2709 25.9876 21.3032 25.9687 21.3685C25.9142 21.5395 25.5076 22.29 25.2684 22.4644C25.0648 22.6173 25.5079 22.8302 25.4681 22.8183C25.4844 23.4455 25.3929 24.0908 25.6063 24.4096C25.7422 24.6072 26.1625 24.7521 26.2356 24.5625C26.3064 24.3714 26.6257 23.9821 26.6972 23.9162C26.83 23.7987 26.7127 23.6914 26.6014 23.8072C26.3707 24.0513 26.2418 23.9387 26.0715 23.7767C25.9899 23.6837 25.9584 22.8061 26.0176 22.7798C26.0176 22.7798 26.441 22.7183 26.5427 22.7183C26.6213 22.7183 26.6148 22.4744 26.5322 22.4744C26.4051 22.4744 26.0271 22.4783 26.0054 22.4186C25.9581 22.2972 26.0808 21.7064 26.1018 21.4409C26.1129 21.3236 26.078 21.2569 26.0377 21.2657ZM35.0165 21.2722C35.0294 21.5804 35.1431 24.2308 35.1095 24.5992C35.0888 24.8095 35.3704 25.0324 35.6262 25.2078C35.7527 25.0567 36.024 24.6599 36.2487 24.4933C36.3831 24.3843 36.2901 24.3135 36.1893 24.3535C35.9852 24.4481 35.7812 24.3742 35.7605 24.1391C35.7424 23.9046 35.7424 21.6235 35.7605 21.2944C35.6055 21.2944 35.1638 21.2861 35.0165 21.2722ZM40.599 21.3393C40.5654 21.3417 40.5267 21.3711 40.5034 21.4352C40.4363 21.6173 40.0178 22.0585 39.589 22.2688C39.3461 22.3897 39.9144 22.6137 39.8757 22.6036C39.8679 23.2453 39.7388 24.2944 39.9584 24.6274C40.0953 24.8309 40.4053 24.965 40.6119 24.8854C40.8109 24.8056 41.0666 24.4073 41.1415 24.3419C41.2914 24.2311 41.1648 24.1133 41.0408 24.228C40.9194 24.3422 40.5861 24.2603 40.5422 24.1451C40.5086 24.0247 40.4647 22.6243 40.5241 22.5961C40.5241 22.5961 40.9219 22.5873 41.0304 22.5907C41.1131 22.5907 41.1183 22.3362 41.0356 22.3362C40.8909 22.3342 40.568 22.3052 40.5499 22.2476C40.5034 22.1156 40.5603 21.6894 40.6455 21.516C40.6972 21.4065 40.6533 21.3355 40.599 21.3393ZM21.2284 21.7067C20.9241 21.911 19.9171 22.3342 19.7642 23.3742C19.6296 24.3747 20.5732 24.9699 21.0261 25.1629C21.1403 24.9325 21.3717 24.5594 21.5993 24.298C21.7716 24.0965 21.5815 24.0433 21.4268 24.198C21.2178 24.4264 20.5944 24.2094 20.4291 23.9084C20.7303 23.6816 21.5154 23.025 21.8571 22.7449C21.6316 22.5339 21.2829 22.0082 21.2284 21.7067ZM30.334 21.7994C29.9863 21.8348 29.466 22.3324 29.3542 22.4954C29.2692 22.617 29.3792 23.2053 29.4456 23.2611C29.4642 23.2745 29.4727 23.2791 29.4895 23.2949C29.2562 23.5349 29.0834 23.7999 29.0863 24.134C29.0976 24.4517 29.2038 24.7676 29.5267 24.911C29.813 24.7002 30.1813 24.4442 30.5363 24.3773C30.7104 24.5866 30.9772 24.7253 31.1377 24.8516C31.2488 24.7178 31.6029 24.4303 31.7008 24.3409C31.7941 24.2458 31.7008 24.1123 31.6029 24.2376C31.5275 24.3525 31.2782 24.2693 31.2069 24.1523C31.2069 24.0169 31.0775 22.5879 31.1348 22.522C30.9284 22.2921 30.5735 21.7736 30.334 21.7994ZM38.039 21.8904C37.6644 21.9214 37.1891 22.5749 37.0702 22.7444C36.9772 22.8669 37.0754 23.3347 37.1451 23.3933C37.171 23.4168 37.1813 23.4186 37.2046 23.4388C37.0289 23.6046 36.7137 24.0358 36.7215 24.3535C36.7267 24.6788 36.8816 24.9911 37.0702 25.1668C37.3931 24.9423 37.5921 24.6331 38.1268 24.4272C38.194 24.6767 38.3696 24.7149 38.5789 24.8723C38.7029 24.7364 39.1575 24.1776 39.2583 24.08C39.359 23.9844 39.3022 23.8862 39.1575 23.9846C39.0155 24.0802 38.9173 24.0213 38.677 23.7643C38.6848 23.6248 38.6615 22.4845 38.7158 22.421C38.4988 22.1864 38.2973 21.8663 38.039 21.8904ZM22.8011 21.927C22.6053 22.112 22.451 22.2804 22.1648 22.5065C22.2976 22.6592 22.5231 22.8516 22.5433 23.1143C22.5606 23.3796 22.5508 24.6108 22.5676 24.919C22.7768 24.919 22.7396 24.941 23.0992 24.9273C23.0638 24.718 23.0938 23.1203 23.0938 22.8914C23.2284 22.7627 23.2477 22.7426 23.4025 22.6274C23.5138 22.725 23.7745 22.7824 23.7745 22.9539C23.7745 23.126 23.8254 23.8844 23.7647 24.1647C23.6897 24.5065 23.7231 24.7521 23.9075 25.0973C24.0475 24.941 24.5709 24.5749 24.6846 24.4837C24.7964 24.3866 24.738 24.3138 24.5931 24.3535C24.4384 24.3869 24.4105 24.4166 24.4105 24.3187C24.4105 24.1342 24.3379 23.3021 24.3263 22.7708C24.3072 22.2381 24.0475 22.0815 23.898 22.0079C23.7455 22.1774 23.4048 22.3915 23.2007 22.5643C23.0473 22.4512 22.9716 22.1965 22.8011 21.927ZM27.945 21.9624L27.7892 21.9841L27.1452 22.5855C26.9747 22.7346 27.125 22.8064 27.3234 22.6416L27.7497 22.8619L27.7597 24.2239C27.7956 24.392 27.945 24.4305 28.1524 24.6442L28.4203 24.3711L28.7014 24.0603C28.3854 24.0022 28.5324 24.0048 28.3653 23.8511L28.3557 22.5654L27.945 21.9624ZM20.7381 22.2905C20.8292 22.5222 21.1191 22.9632 21.2501 23.0407C21.0245 23.2667 20.4715 23.6416 20.3157 23.7511C20.0328 23.3957 19.8799 22.816 20.7381 22.2905ZM42.0508 22.3277C41.901 22.4806 41.6375 22.6568 41.3921 22.9301C41.5962 22.9446 41.7667 22.988 41.8648 23.1836C41.963 23.3771 41.8778 24.1947 41.8933 24.5093C41.9088 24.8152 42.0948 24.8803 42.3376 25.1334C42.5778 25.0725 43.2547 24.7899 43.482 24.6336C43.4613 24.8849 43.7791 25.167 43.9651 25.2218C44.0917 25.0846 44.2286 25.01 44.4146 24.8384C44.2337 24.718 44.257 24.701 44.1898 24.462C44.1356 24.2314 44.2027 23.3582 44.2079 22.9836C44.0658 22.7671 43.8307 22.5075 43.5905 22.3277C43.42 22.4822 43.1927 22.6891 42.924 22.9715C43.1255 22.9444 43.5182 23.0244 43.5362 23.1921C43.5466 23.4086 43.5802 23.8821 43.5362 24.2497C43.4897 24.6199 42.4952 24.4504 42.4797 24.2006C42.459 23.9441 42.5313 23.2063 42.5365 22.857C42.3944 22.6411 42.3118 22.5217 42.0508 22.3277ZM29.8225 22.3515C29.9075 22.3515 30.436 22.6708 30.4081 22.8413C30.4283 22.9632 30.4185 23.1926 30.4048 23.4176C30.1418 23.4233 29.9163 23.3424 29.6298 23.0906C29.5753 23.0448 29.5241 22.7183 29.5864 22.6124C29.7125 22.4117 29.7125 22.3497 29.8225 22.3515ZM37.6256 22.4403C37.7238 22.4465 38.1036 22.7075 38.0855 22.8836C38.1036 22.9981 38.1087 23.237 38.1061 23.4801C37.822 23.5145 37.6205 23.5468 37.3027 23.2779C37.2433 23.2306 37.2278 22.7974 37.295 22.6891C37.4319 22.4806 37.5171 22.4403 37.6256 22.4403ZM45.5202 22.7142C45.3523 22.8284 44.8692 23.2696 44.6651 23.3858C44.9596 23.3933 45.3962 23.4905 45.4143 23.7643C45.4246 23.9859 45.3962 25.3698 45.4143 25.623C45.5926 25.6612 45.807 25.6429 46.0679 25.6281C46.0808 25.4321 46.0756 23.8366 46.0808 23.6431C46.1686 23.5938 46.272 23.5447 46.3236 23.4998C46.4244 23.5752 46.7318 23.9294 46.91 24.0244C47.0315 23.9314 47.3518 23.6514 47.4939 23.5189C47.6411 23.3719 47.4809 23.2779 47.3518 23.3969C47.251 23.2779 46.9772 23.0505 46.7318 22.8772C46.5923 22.9934 46.303 23.2035 46.117 23.2996C45.98 23.1448 45.7966 22.9301 45.5202 22.7142ZM29.7094 23.4649C29.9506 23.6274 30.0881 23.6067 30.3921 23.577C30.3797 23.7413 30.3678 23.8922 30.3678 23.9596C30.3678 24.0327 30.3978 24.0906 30.4182 24.1523C30.2612 24.2081 30.0615 24.2414 29.9072 24.3187C29.7677 24.1954 29.2537 23.8444 29.7094 23.4649ZM37.4655 23.6289C37.6747 23.746 37.7806 23.6739 38.1036 23.6385C38.1036 23.8431 38.0984 24.027 38.0958 24.1254C37.9537 24.2277 37.7781 24.3171 37.5766 24.4171C37.4164 24.2848 37.1813 24.1717 37.4655 23.6289ZM33.4683 30.4979C32.8855 30.4917 32.3751 30.8774 32.3751 30.95C32.3751 31.1469 32.582 31.2471 33.172 30.8759C32.7101 31.4109 33.2353 31.8467 33.2353 31.8467C33.0431 31.818 32.7688 31.7532 32.5934 31.6529C32.5577 31.8464 32.8235 31.9169 32.9506 32.0004C33.9289 32.4029 34.5722 31.4615 35.4324 31.2957V31.2592C34.8563 31.1763 34.4043 30.7728 33.8773 30.5736C33.7403 30.522 33.6027 30.4995 33.4683 30.4979ZM33.7868 30.8379C34.0064 30.902 34.5308 31.1972 34.7194 31.321L33.7843 31.7932C33.7843 31.7932 34.0452 31.5114 34.0426 31.3104C34.0426 31.0371 33.7868 30.8379 33.7868 30.8379Z" fill="#800000"/>
</svg>
