<svg width="268" height="80" viewBox="0 0 268 80" fill="none" xmlns="http://www.w3.org/2000/svg">
<path d="M52.6352 28.6585C52.6352 28.6585 52.6352 40.718 52.6352 41.5058C51.8696 41.5058 43.3299 41.5058 43.3299 41.5058L43.2235 41.7685C43.0616 42.1695 42.7716 42.5402 41.7553 42.5402C40.7401 42.5402 40.4501 42.1695 40.2877 41.7685L40.1818 41.5058C40.1818 41.5058 31.6573 41.5058 30.8911 41.5058C30.8911 40.718 30.8911 28.6585 30.8911 28.6585H30.0509V29.0498L29.2444 28.8022C29.1511 28.485 28.8611 28.252 28.5141 28.252C28.092 28.252 27.7485 28.5949 27.7485 29.0171C27.7485 29.4397 28.092 29.7827 28.5141 29.7827C28.6987 29.7827 28.8657 29.7146 28.9978 29.6056L30.0509 29.9289V30.9618L29.2596 30.8201C29.1431 30.5473 28.8722 30.3556 28.556 30.3556C28.1339 30.3556 27.7904 30.6981 27.7904 31.1212C27.7904 31.5438 28.1339 31.8863 28.556 31.8863C28.7744 31.8863 28.9701 31.7935 29.1098 31.6472L30.0509 31.8162V32.8693L29.2238 32.833C29.0901 32.61 28.8485 32.4592 28.5696 32.4592C28.148 32.4592 27.804 32.8022 27.804 33.2243C27.804 33.647 28.148 33.9899 28.5696 33.9899C28.8248 33.9899 29.0487 33.8639 29.1885 33.6722L30.0509 33.7105V34.8544L29.2056 34.8847C29.0669 34.6905 28.8405 34.5624 28.5842 34.5624C28.1621 34.5624 27.8186 34.9053 27.8186 35.3275C27.8186 35.7501 28.1621 36.0931 28.5842 36.0931C28.8606 36.0931 29.1012 35.9448 29.2354 35.7249L30.0509 35.6957V36.7503L29.1264 36.9091C28.9872 36.7603 28.79 36.666 28.5696 36.666C28.148 36.666 27.804 37.009 27.804 37.4316C27.804 37.8543 28.148 38.1967 28.5696 38.1967C28.8833 38.1967 29.1526 38.0076 29.2712 37.7368L30.0509 37.6026V38.6375L29.0402 38.9462C28.908 38.8373 28.7406 38.7687 28.556 38.7687C28.1339 38.7687 27.7904 39.1111 27.7904 39.5343C27.7904 39.9569 28.1339 40.2994 28.556 40.2994C28.9035 40.2994 29.1935 40.0669 29.2868 39.7496L30.0509 39.5161V40.5172L28.9343 40.9989C28.8137 40.9192 28.6695 40.8723 28.5141 40.8723C28.092 40.8723 27.7485 41.2153 27.7485 41.6374C27.7485 42.06 28.092 42.403 28.5141 42.403C28.8904 42.403 29.2021 42.1296 29.2656 41.7711L30.0509 41.4321V42.3465C30.0509 42.3465 39.2185 42.3465 39.6643 42.3465C40.0547 43.0279 40.73 43.3809 41.7553 43.3809C42.7807 43.3809 43.4565 43.0279 43.8474 42.3465C44.2927 42.3465 53.4754 42.3465 53.4754 42.3465V28.6585H52.6352Z" fill="#0F1E45"/>
<path d="M35.4314 25.7246C37.3746 25.7246 38.9498 25.4225 38.9498 25.0498C38.9498 24.6771 37.3746 24.375 35.4314 24.375C33.4883 24.375 31.9131 24.6771 31.9131 25.0498C31.9131 25.4225 33.4883 25.7246 35.4314 25.7246Z" fill="#0F1E45"/>
<path d="M40.2747 20.1618L38.2437 21.5891L38.2265 21.7338L38.7092 21.9507C38.8045 21.9986 38.8055 22.0753 38.7571 22.1217L37.4816 23.1985L37.3606 23.1879L36.4568 21.8559C36.3947 21.7696 36.4169 21.6834 36.5264 21.6652L37.1326 21.5664V21.4131L35.5605 19.1914H35.3013L33.7292 21.4131V21.5664L34.336 21.6652C34.4449 21.6834 34.4676 21.7696 34.4051 21.8559L33.5013 23.1879L33.3802 23.1985L32.1889 22.1217C32.14 22.0753 32.141 21.9986 32.2364 21.9507L32.7195 21.7338L32.7019 21.5891L30.5871 20.1618L30.4156 20.2289L31.6574 24.0236C32.2878 23.7401 33.7358 23.5409 35.4314 23.5329C37.127 23.5409 38.575 23.7401 39.2055 24.0236L40.4472 20.2289L40.2747 20.1618Z" fill="#0F1E45"/>
<path d="M41.741 51.168C43.6841 51.168 45.2593 50.8659 45.2593 50.4932C45.2593 50.1205 43.6841 49.8184 41.741 49.8184C39.7979 49.8184 38.2227 50.1205 38.2227 50.4932C38.2227 50.8659 39.7979 51.168 41.741 51.168Z" fill="#0F1E45"/>
<path d="M46.5848 45.6051L44.5537 47.0324L44.5366 47.1772L45.0193 47.3941C45.1146 47.442 45.1156 47.5186 45.0672 47.565L43.7912 48.6418L43.6706 48.6312L42.7668 47.2992C42.7048 47.213 42.727 47.1268 42.8359 47.1086L43.4427 47.0098V46.8569L41.8701 44.6348H41.6114L40.0393 46.8569V47.0098L40.646 47.1086C40.7545 47.1268 40.7772 47.213 40.7151 47.2992L39.8108 48.6312L39.6898 48.6418L38.499 47.565C38.4501 47.5186 38.4511 47.442 38.5464 47.3941L39.0296 47.1772L39.0119 47.0324L36.8967 45.6051L36.7252 45.6722L37.9674 49.4669C38.5979 49.1835 40.0459 48.9843 41.741 48.9762C43.4366 48.9843 44.8846 49.1835 45.515 49.4669L46.7572 45.6722L46.5848 45.6051Z" fill="#0F1E45"/>
<path d="M48.0353 25.7246C49.9787 25.7246 51.5542 25.4225 51.5542 25.0498C51.5542 24.6771 49.9787 24.375 48.0353 24.375C46.0919 24.375 44.5165 24.6771 44.5165 25.0498C44.5165 25.4225 46.0919 25.7246 48.0353 25.7246Z" fill="#0F1E45"/>
<path d="M52.879 20.1618L50.848 21.5891L50.8309 21.7338L51.3136 21.9507C51.4089 21.9986 51.4099 22.0753 51.3615 22.1217L50.086 23.1985L49.9649 23.1879L49.0611 21.8559C48.9991 21.7696 49.0213 21.6834 49.1302 21.6652L49.7369 21.5664V21.4131L48.1644 19.1914H47.9057L46.3336 21.4131V21.5664L46.9403 21.6652C47.0493 21.6834 47.072 21.7696 47.0094 21.8559L46.1056 23.1879L45.9846 23.1985L44.7933 22.1076C44.7444 22.0612 44.7454 21.9845 44.8407 21.9366L45.3239 21.7338L45.3062 21.5891L43.191 20.1618L43.02 20.2289L44.2617 24.0236C44.8922 23.7401 46.3402 23.5409 48.0358 23.5329C49.7309 23.5409 51.1789 23.7401 51.8093 24.0236L53.0515 20.2289L52.879 20.1618Z" fill="#0F1E45"/>
<path d="M41.3253 30.5658C41.3253 29.486 40.9597 28.615 40.1689 28.1505C39.6731 27.8595 39.0023 27.7642 38.1747 27.7642L32.1562 27.7637V39.9165H38.7062C40.2163 39.9165 41.1044 40.2564 41.1816 41.6106H41.3258L41.3253 30.5658ZM36.9067 31.3289C37.0353 31.3178 37.0858 31.2911 37.1024 31.1917C37.1155 31.109 37.1317 30.9668 37.1453 30.7232L37.175 30.182C37.1937 29.8446 37.1725 29.8154 36.9607 29.7962V29.6913H37.5901L38.0592 30.7525L38.4687 29.6913H39.1198V29.7962C38.9161 29.8149 38.9055 29.8255 38.9135 30.1069L38.9403 31.0041C38.9483 31.3012 38.9534 31.3093 39.1465 31.3284V31.4328H38.3083V31.3284C38.509 31.3093 38.5171 31.3012 38.5141 31.0041L38.506 30.061H38.4949L37.978 31.4036H37.8337L37.3435 30.1553H37.3379L37.3193 30.7499C37.3107 30.9799 37.3137 31.1085 37.3243 31.1912C37.3354 31.2906 37.3944 31.3148 37.5679 31.3284V31.4328H36.9067V31.3289ZM38.4243 33.9621L38.3845 33.943C38.1651 33.8411 37.9154 33.7024 37.9154 33.4154C37.9154 33.1128 38.1353 32.8662 38.5554 32.8662C38.6387 32.8662 38.7244 32.8768 38.8021 32.8985C38.8636 32.9141 38.9065 32.9247 38.9408 32.9363C38.9514 33.0407 38.9705 33.1718 38.9998 33.3539L38.8823 33.3725C38.8233 33.196 38.7294 33.0059 38.5176 33.0059C38.3809 33.0059 38.2846 33.1103 38.2846 33.2389C38.2846 33.3725 38.389 33.4502 38.5605 33.5284L38.6195 33.5551C38.8661 33.6676 39.0775 33.8043 39.0775 34.1175C39.0775 34.4468 38.8127 34.6879 38.3971 34.6879C38.2897 34.6879 38.1797 34.6667 38.1076 34.6425C38.0274 34.6153 37.9709 34.5941 37.9391 34.5784C37.9174 34.4549 37.8826 34.3106 37.8504 34.1311L37.9684 34.0963C38.0239 34.2521 38.1827 34.5492 38.445 34.5492C38.5837 34.5492 38.6911 34.4579 38.6911 34.2839C38.6921 34.1255 38.5877 34.0373 38.4243 33.9621ZM36.6611 33.1506C36.7095 33.2999 36.9208 33.8285 37.0202 34.0907C37.1034 33.8628 37.2744 33.3514 37.3178 33.2253C37.3733 33.0614 37.3576 33.0321 37.2371 33.019L37.1569 33.0104V32.9065H37.8055V33.0114C37.6522 33.0306 37.6148 33.0437 37.5104 33.2873C37.4943 33.3246 37.1675 34.1205 36.9667 34.6667H36.7605C36.5754 34.1846 36.3242 33.5228 36.2274 33.2707C36.1391 33.0402 36.0856 33.0271 35.9565 33.0109V32.9065H36.822V33.0114L36.7307 33.022C36.6319 33.0326 36.6319 33.0563 36.6611 33.1506ZM35.8854 29.6515C36.3761 29.6515 36.7539 30.0106 36.7539 30.5411C36.7539 31.1146 36.3625 31.4732 35.8486 31.4732C35.3074 31.4732 34.9564 31.0793 34.9564 30.5865C34.9569 30.1528 35.2459 29.6515 35.8854 29.6515ZM32.9067 31.4333V31.3289C33.1024 31.3123 33.1236 31.2936 33.1236 31.0046V30.1205C33.1236 29.8315 33.1024 29.8123 32.9284 29.7967V29.6918H33.7107C34.0405 29.6918 34.3134 29.7569 34.4929 29.9304C34.619 30.0509 34.7234 30.2491 34.7234 30.4796C34.7234 31.1469 34.217 31.4333 33.5982 31.4333H32.9067ZM34.6901 36.2257C34.505 36.2418 34.4838 36.2605 34.4838 36.5494V37.4336C34.4838 37.7226 34.505 37.7412 34.6901 37.7579V37.8618H33.8221V37.7584C34.0067 37.7417 34.0279 37.7231 34.0279 37.4341V36.55C34.0279 36.261 34.0067 36.2423 33.8221 36.2262V36.1213H34.6901V36.2257ZM34.7325 34.6481H34.0652V34.5436C34.1832 34.5381 34.2528 34.5008 34.2659 34.4065C34.2765 34.3232 34.2871 34.176 34.2871 33.8945V33.4018C34.2871 33.2036 34.2816 33.1688 34.2286 33.0936C34.1883 33.0372 34.1212 33.019 34.0254 33.0109V32.9065H34.6175L35.5092 34.0186H35.5142V33.6595C35.5142 33.3781 35.5036 33.2308 35.493 33.1476C35.4799 33.0538 35.4073 33.0195 35.2303 33.0109V32.9065H35.9132V33.0114C35.779 33.017 35.7094 33.0543 35.6963 33.1481C35.6857 33.2308 35.6746 33.3786 35.6746 33.66V34.6672H35.4441L34.4531 33.4028H34.4475V33.8956C34.4475 34.177 34.4581 34.3243 34.4692 34.4075C34.4823 34.5018 34.5544 34.5361 34.7315 34.5447V34.6481H34.7325ZM36.1931 37.8623H34.8641V37.7584C35.0679 37.7417 35.089 37.7231 35.089 37.4341V36.55C35.089 36.261 35.0679 36.2423 34.8883 36.2262V36.1213H35.7593V36.2262C35.5662 36.2423 35.545 36.261 35.545 36.55V37.4689C35.545 37.6081 35.5505 37.6752 35.5984 37.6994C35.6413 37.7211 35.7028 37.7236 35.7856 37.7236C35.8718 37.7236 35.9868 37.716 36.0433 37.6459C36.0861 37.5955 36.1315 37.5228 36.1744 37.3811L36.2899 37.4003C36.2738 37.5007 36.2168 37.7796 36.1931 37.8623ZM37.6875 37.8623H36.3585V37.7584C36.5623 37.7417 36.5834 37.7231 36.5834 37.4341V36.55C36.5834 36.261 36.5623 36.2423 36.3827 36.2262V36.1213H37.2537V36.2262C37.0605 36.2423 37.0394 36.261 37.0394 36.55V37.4689C37.0394 37.6081 37.0449 37.6752 37.0928 37.6994C37.1357 37.7211 37.1972 37.7236 37.2799 37.7236C37.3662 37.7236 37.4812 37.716 37.5377 37.6459C37.5805 37.5955 37.6259 37.5228 37.6688 37.3811L37.7843 37.4003C37.7687 37.5007 37.7117 37.7796 37.6875 37.8623ZM39.3649 36.2257C39.2116 36.2443 39.1748 36.2579 39.0699 36.5015C39.0543 36.5389 38.7269 37.3347 38.5267 37.8809H38.3199C38.1353 37.3988 37.8837 36.7371 37.7868 36.4849C37.6986 36.2549 37.6451 36.2413 37.516 36.2252V36.1202H38.3819V36.2252L38.2902 36.2357C38.1918 36.2463 38.1918 36.2705 38.2206 36.3644C38.269 36.5141 38.4808 37.0422 38.5797 37.3045C38.6629 37.0765 38.8344 36.5651 38.8772 36.439C38.9332 36.2756 38.9171 36.2458 38.7965 36.2327L38.7168 36.2246V36.1197H39.3649V36.2257ZM40.1956 29.7962C40.011 29.8118 39.9898 29.831 39.9898 30.12V31.0041C39.9898 31.2931 40.011 31.3118 40.1956 31.3284V31.4328H39.3276V31.3284C39.5127 31.3118 39.5339 31.2931 39.5339 31.0041V30.12C39.5339 29.831 39.5127 29.8118 39.3276 29.7962V29.6913H40.1956V29.7962Z" fill="#0F1E45"/>
<path d="M33.7106 29.8262C33.6491 29.8262 33.6143 29.8347 33.5951 29.8453C33.582 29.8504 33.5795 29.9124 33.5795 29.979V31.0079C33.5795 31.2459 33.638 31.2918 33.7666 31.2918C33.9971 31.2918 34.2306 31.0376 34.2306 30.563C34.2306 29.9871 33.9386 29.8262 33.7106 29.8262Z" fill="#0F1E45"/>
<path d="M35.899 31.3363C36.13 31.3363 36.2556 31.1139 36.2556 30.6287C36.2556 30.0905 36.063 29.793 35.832 29.793C35.6262 29.793 35.4547 30.0285 35.4547 30.497C35.4547 30.9827 35.6363 31.3363 35.899 31.3363Z" fill="#0F1E45"/>
<path d="M48.6953 36.6641L48.5294 37.1755H48.8724L48.7034 36.6641H48.6953Z" fill="#0F1E45"/>
<path d="M49.3244 30.2344L49.1584 30.7463H49.5014L49.3324 30.2344H49.3244Z" fill="#0F1E45"/>
<path d="M47.8248 33.708C47.8248 34.1932 48.0069 34.5472 48.2697 34.5472C48.5002 34.5472 48.6257 34.3248 48.6257 33.8396C48.6257 33.3015 48.4331 33.0039 48.2026 33.0039C47.9963 33.0039 47.8248 33.2394 47.8248 33.708Z" fill="#0F1E45"/>
<path d="M45.3172 27.7642C44.4901 27.7642 43.8188 27.859 43.3235 28.1505C42.5327 28.615 42.167 29.486 42.167 30.5658L42.166 41.6106H42.3103C42.3874 40.2564 43.2756 39.9165 44.7851 39.9165H51.3775V27.7637L45.3172 27.7642ZM46.7289 29.6913H47.3205L48.2122 30.8034H48.2177V30.4443C48.2177 30.1629 48.2071 30.0156 48.1965 29.9324C48.1829 29.8391 48.1103 29.8043 47.9338 29.7957V29.6908H48.6167V29.7957C48.4825 29.8007 48.4129 29.8386 48.3993 29.9324C48.3892 30.0156 48.3776 30.1629 48.3776 30.4443V31.452H48.1476L47.1566 30.1871H47.1505V30.6803C47.1505 30.9618 47.1621 31.109 47.1722 31.1917C47.1858 31.2861 47.2579 31.3203 47.4345 31.3289V31.4333H46.7677V31.3289C46.8852 31.3229 46.9548 31.2861 46.9684 31.1917C46.979 31.109 46.9896 30.9618 46.9896 30.6803V30.1871C46.9896 29.9894 46.9841 29.9541 46.9306 29.8794C46.8908 29.8229 46.8237 29.8048 46.7279 29.7962V29.6913H46.7289ZM49.124 33.7559C49.124 34.3293 48.7332 34.6879 48.2187 34.6879C47.6776 34.6879 47.3265 34.294 47.3265 33.8012C47.3265 33.3675 47.6155 32.8662 48.2555 32.8662C48.7463 32.8662 49.124 33.2253 49.124 33.7559ZM47.1031 34.5436V34.6481H46.2351V34.5436C46.4202 34.5275 46.4414 34.5083 46.4414 34.2194V33.3352C46.4414 33.0457 46.4202 33.0271 46.2351 33.0109V32.9065H47.1031V33.0114C46.9185 33.0276 46.8973 33.0462 46.8973 33.3357V34.2199C46.8968 34.5083 46.918 34.527 47.1031 34.5436ZM45.7237 31.3289C45.9088 31.3123 45.93 31.2936 45.93 31.0046V30.1205C45.93 29.8315 45.9088 29.8123 45.7237 29.7967V29.6918H46.5917V29.7967C46.4071 29.8123 46.3859 29.8315 46.3859 30.1205V31.0046C46.3859 31.2936 46.4071 31.3123 46.5917 31.3289V31.4333H45.7237V31.3289ZM45.7403 34.5436V34.6481H44.8033V34.5436C45.0176 34.5275 45.0388 34.5083 45.0388 34.2194V33.0457H44.9934C44.8134 33.0457 44.7412 33.0785 44.6984 33.1264C44.6666 33.1663 44.6343 33.2359 44.5995 33.3862H44.487C44.4976 33.1612 44.5138 32.9766 44.5183 32.84H44.6015C44.6419 32.901 44.6686 32.9065 44.7407 32.9065H45.8094C45.8795 32.9065 45.8922 32.8904 45.9355 32.84H46.0182C46.0213 32.9524 46.0344 33.1799 46.048 33.3781L45.9305 33.3862C45.8901 33.2258 45.8609 33.1562 45.8205 33.1103C45.7746 33.0619 45.6864 33.0457 45.5578 33.0457H45.4937V34.2194C45.4942 34.5083 45.5154 34.527 45.7403 34.5436ZM43.964 31.4333H43.3028V31.3289C43.4314 31.3178 43.4819 31.2911 43.4985 31.1917C43.5116 31.109 43.5278 30.9668 43.5414 30.7232L43.5711 30.182C43.5898 29.8446 43.5686 29.8154 43.3568 29.7962V29.6913H43.9857L44.4553 30.7525L44.8648 29.6913H45.5159V29.7962C45.3122 29.8149 45.3016 29.8255 45.3096 30.1069L45.3364 31.0041C45.3444 31.3012 45.3495 31.3093 45.5426 31.3284V31.4328H44.7044V31.3284C44.9046 31.3093 44.9132 31.3012 44.9102 31.0041L44.9021 30.061H44.891L44.3741 31.4036H44.2298L43.7396 30.1553H43.734L43.7154 30.7499C43.7068 30.9799 43.7098 31.1085 43.7204 31.1912C43.731 31.2906 43.7905 31.3148 43.964 31.3284V31.4333ZM46.3113 37.8623H45.473V37.7584C45.6733 37.7397 45.6818 37.7311 45.6788 37.4341L45.6712 36.4909H45.6601L45.1432 37.8335H44.999L44.5087 36.5853H44.5032L44.4845 37.1799C44.4759 37.4104 44.479 37.5385 44.4901 37.6212C44.5007 37.7205 44.5597 37.7448 44.7337 37.7584V37.8623H44.072V37.7584C44.2011 37.7473 44.2515 37.7205 44.2676 37.6212C44.2808 37.5385 44.2974 37.3963 44.3105 37.1527L44.3403 36.6115C44.3589 36.2741 44.3377 36.2448 44.1259 36.2257V36.1208H44.7559L45.2244 37.1819L45.6339 36.1208H46.285V36.2257C46.0818 36.2443 46.0707 36.2554 46.0788 36.5363L46.106 37.4336C46.1136 37.7306 46.1186 37.7392 46.3118 37.7579V37.8623H46.3113ZM47.8359 37.8623H46.4722V37.7584C46.6784 37.7417 46.6996 37.7231 46.6996 37.4341V36.55C46.6996 36.261 46.6784 36.2423 46.4989 36.2262V36.1213H47.7688C47.7714 36.1672 47.7845 36.3628 47.7981 36.5631L47.6806 36.5711C47.6533 36.44 47.6246 36.3649 47.5812 36.322C47.5389 36.2761 47.4501 36.26 47.3084 36.26H47.263C47.1611 36.26 47.1556 36.26 47.1556 36.3538V36.8707H47.2897C47.5202 36.8707 47.5283 36.8551 47.555 36.6513H47.6725V37.2833H47.555C47.5278 37.0477 47.5202 37.0311 47.2897 37.0311H47.1556V37.4679C47.1556 37.6071 47.1611 37.6741 47.2095 37.6984C47.2524 37.72 47.3139 37.7226 47.3966 37.7226C47.5041 37.7226 47.6221 37.7064 47.6806 37.6424C47.726 37.594 47.7719 37.4951 47.8122 37.366L47.9297 37.3852C47.9161 37.5168 47.8601 37.7902 47.8359 37.8623ZM49.7106 37.8623H48.8693V37.7584L48.95 37.7473C49.0489 37.7342 49.0539 37.7069 49.0196 37.6106L48.9233 37.3372H48.484L48.4033 37.5945C48.369 37.71 48.369 37.7362 48.4921 37.7498L48.5692 37.7579V37.8618H47.9454V37.7584C48.0825 37.7397 48.1229 37.7281 48.2107 37.5037L48.7463 36.1187L48.9309 36.0809L49.1129 36.5873C49.2284 36.9065 49.3429 37.2223 49.4448 37.4956C49.531 37.7281 49.5795 37.7417 49.7101 37.7584L49.7106 37.8623ZM50.3395 31.4333H49.4983V31.3289L49.579 31.3178C49.6778 31.3047 49.6828 31.278 49.6486 31.1811L49.5522 30.9078H49.1129L49.0322 31.165C48.9979 31.2805 48.9979 31.3072 49.121 31.3203L49.1982 31.3289V31.4333H48.5743V31.3289C48.711 31.3098 48.7518 31.2987 48.8396 31.0742L49.3752 29.6893L49.5598 29.6515L49.7419 30.1578C49.8568 30.4766 49.9718 30.7928 50.0737 31.0662C50.16 31.2987 50.2084 31.3123 50.339 31.3289L50.3395 31.4333Z" fill="#0F1E45"/>
<path d="M38.6236 60.1101C39.0105 60.1101 39.3242 59.7964 39.3242 59.4095C39.3242 59.0226 39.0105 58.709 38.6236 58.709C38.2367 58.709 37.9231 59.0226 37.9231 59.4095C37.9231 59.7964 38.2367 60.1101 38.6236 60.1101Z" fill="#0F1E45"/>
<path d="M45.7285 61.278C46.1154 61.278 46.429 60.9644 46.429 60.5775C46.429 60.1906 46.1154 59.877 45.7285 59.877C45.3416 59.877 45.028 60.1906 45.028 60.5775C45.028 60.9644 45.3416 61.278 45.7285 61.278Z" fill="#0F1E45"/>
<path d="M41.7129 10.6413C42.0998 10.6413 42.4134 10.3277 42.4134 9.94078C42.4134 9.55388 42.0998 9.24023 41.7129 9.24023C41.326 9.24023 41.0123 9.55388 41.0123 9.94078C41.0123 10.3277 41.326 10.6413 41.7129 10.6413Z" fill="#0F1E45"/>
<path d="M58.3862 17.1726C58.7731 17.1726 59.0868 16.8589 59.0868 16.472C59.0868 16.0851 58.7731 15.7715 58.3862 15.7715C57.9993 15.7715 57.6857 16.0851 57.6857 16.472C57.6857 16.8589 57.9993 17.1726 58.3862 17.1726Z" fill="#0F1E45"/>
<path d="M23.9486 46.5706C24.2179 46.958 24.3541 47.3725 24.353 47.8017C24.352 48.2915 24.1886 48.6884 23.3121 49.2946L20.7827 51.0977L20.3167 50.4274C20.3167 50.4274 22.9086 48.5825 22.951 48.5532C23.3978 48.2441 23.5885 48.0186 23.589 47.664C23.5895 47.4396 23.5073 47.195 23.3454 46.962C23.0917 46.5968 22.7669 46.4808 22.4799 46.4803C22.2196 46.4798 21.9397 46.6624 21.4414 47.0099L19.0624 48.6238L18.6055 47.9662L20.869 46.4324C21.4989 45.9901 22.0008 45.6865 22.4668 45.6875C23.1476 45.689 23.6444 46.1313 23.9486 46.5706Z" fill="#0F1E45"/>
<path d="M15.8645 41.6387L20.678 39.9512L20.9438 40.6805L18.1901 44.0445L21.6701 42.6681L21.9298 43.3782L17.1718 45.2055L16.906 44.4762L19.6734 41.1082L16.1237 42.3499L15.8645 41.6387Z" fill="#0F1E45"/>
<path d="M15.1442 37.808L20.1821 37.0605L20.3011 37.8675L15.2637 38.6144L15.1442 37.808Z" fill="#0F1E45"/>
<path d="M14.9953 31.7281L15.0149 30.8828L20.0428 32.9259L20.0075 33.7647L14.845 35.3045L14.8505 34.4582L19.0366 33.2845L14.9953 31.7281Z" fill="#0F1E45"/>
<path d="M19.5926 20.3359C18.8729 20.3375 18.54 20.749 18.0811 21.5792L17.4829 22.6509L21.9691 25.0854L22.3564 24.3849L20.4924 23.3671L20.6013 23.1658C20.915 22.5985 21.0234 22.5122 21.8233 22.5798L23.2769 22.7084L23.692 21.9559L22.0175 21.8132C21.6811 21.7819 21.4158 21.7572 21.2005 21.8197C21.1284 21.8404 21.0431 21.8843 20.9594 21.9433C20.9786 21.852 21.0134 21.7638 21.0139 21.671C21.0154 21.5272 20.9947 21.3855 20.9518 21.2559C20.854 20.9568 20.6406 20.7147 20.3179 20.5357C20.0773 20.403 19.8367 20.3354 19.5926 20.3359ZM18.6868 21.8793C18.9859 21.3361 19.1987 21.1303 19.5144 21.1318C19.6314 21.1318 19.7792 21.1611 19.927 21.2428C20.1176 21.3487 20.2639 21.5247 20.3184 21.7138C20.3396 21.7875 20.3481 21.8606 20.3476 21.9337C20.3451 22.2363 20.1766 22.5405 20.0001 22.8582L19.8957 23.0473L18.4603 22.2762L18.6868 21.8793Z" fill="#0F1E45"/>
<path d="M25.1669 13.1407L25.815 12.6465L28.9056 16.6944L28.2575 17.1892L25.1669 13.1407Z" fill="#0F1E45"/>
<path d="M27.9634 11.1528L31.2583 9.4375L31.5801 10.0558L30.298 10.7231L32.328 14.6232L31.6043 14.9995L29.5743 11.0998L28.2847 11.7711L27.9634 11.1528Z" fill="#0F1E45"/>
<path d="M36.1824 7.89191L37.0413 7.65234L36.3498 11.0597L36.9096 12.9939L36.1329 13.2183L35.5852 11.2983L33.1674 8.77452L34.0046 8.53193L35.7446 10.3451L36.1824 7.89191Z" fill="#0F1E45"/>
<path d="M51.7233 14.8488L54.3091 10.4609L56.7421 11.8943L56.3885 12.495L54.6515 11.4711L53.9364 12.6851L55.5715 13.6484L55.2255 14.236L53.5899 13.2722L52.4198 15.2593L51.7233 14.8488Z" fill="#0F1E45"/>
<path d="M64.8101 26.1957L66.6641 23.9766L66.9526 24.8551L65.5717 26.4353L67.6229 26.8957L67.8947 27.7239L65.0885 27.0445L63.0953 29.4336L62.8119 28.5697L64.3164 26.8161L62.067 26.3031L61.7926 25.4674L64.8101 26.1957Z" fill="#0F1E45"/>
<path d="M63.3535 31.207L68.4298 30.793L68.6598 33.6088L67.9643 33.6652L67.8014 31.6554L66.3973 31.7699L66.5516 33.6622L65.8722 33.7172L65.7169 31.8254L63.4191 32.013L63.3535 31.207Z" fill="#0F1E45"/>
<path d="M65.5984 35.7402C65.0093 35.7402 64.4691 35.8991 64.0409 36.2098C63.2723 36.7666 63.1321 37.567 63.1321 38.035C63.1321 39.7569 64.75 40.4453 65.9655 40.4453C66.549 40.4463 67.0832 40.2875 67.5038 39.9823C68.3617 39.3615 68.4086 38.4274 68.4086 38.1268C68.4091 36.6249 67.0277 35.7402 65.5984 35.7402ZM65.9993 39.6217C65.0078 39.6217 63.8483 39.081 63.8483 38.0809C63.8483 37.7188 63.9743 37.2321 64.4222 36.9068C64.7253 36.6869 65.1182 36.5704 65.558 36.5704C66.0629 36.5704 66.9742 36.7126 67.4523 37.3718C67.6168 37.5988 67.7005 37.8625 67.7 38.144C67.7 38.5338 67.5411 38.9973 67.1225 39.3004C66.8269 39.5148 66.4371 39.6217 65.9993 39.6217Z" fill="#0F1E45"/>
<path d="M62.6425 18.7871C62.1276 18.7871 61.5799 18.9505 61.0513 19.2854C60.0729 19.9063 59.7163 20.7954 59.7163 21.4445C59.7163 21.8647 59.8313 22.2767 60.0719 22.6555C60.6151 23.5129 61.4301 23.7222 61.9803 23.7197C62.5064 23.7171 63.0612 23.5431 63.5842 23.2108C64.2141 22.8113 64.9156 22.0689 64.9156 21.0642C64.9156 20.6466 64.7966 20.2361 64.5555 19.8558C64.1092 19.1523 63.4107 18.7871 62.6425 18.7871ZM61.8497 22.9364C61.3928 22.9364 60.9797 22.7447 60.6952 22.2954C60.55 22.0669 60.4794 21.8203 60.4779 21.5701C60.4754 20.9946 60.8405 20.4036 61.5083 19.9789C61.9501 19.6985 62.3843 19.5608 62.7727 19.5623C63.2639 19.5623 63.6639 19.7787 63.9302 20.1993C64.088 20.4474 64.1596 20.7112 64.1596 20.975C64.1596 21.5373 63.8036 22.0886 63.158 22.4976C62.7056 22.7846 62.2502 22.9364 61.8497 22.9364Z" fill="#0F1E45"/>
<path d="M48.7471 8.29883C47.6854 8.29883 46.7609 9.01349 46.3882 10.2834C46.3055 10.5654 46.2531 10.8448 46.2531 11.1151C46.2531 11.624 46.3388 12.0265 46.5466 12.4073C47.0182 13.2692 47.8806 13.5632 48.5357 13.5632C48.9059 13.5632 49.2625 13.4785 49.5898 13.3C50.4492 12.8299 51.0166 11.739 51.0166 10.6955C51.0166 10.2426 50.9289 9.81541 50.7276 9.45026C50.3151 8.69827 49.549 8.29883 48.7471 8.29883ZM48.4853 12.841C48.1166 12.841 47.584 12.661 47.286 12.1168C47.1422 11.8535 47.0782 11.5337 47.0782 11.2029C47.0782 10.291 47.6859 9.01097 48.7955 9.01097C49.4184 9.01097 50.2011 9.47497 50.2011 10.6264C50.2011 11.3612 49.6846 12.841 48.4853 12.841Z" fill="#0F1E45"/>
<path d="M20.5368 26.7669L21.2212 26.9601L20.4485 29.7572L15.5195 28.4066L16.3613 25.5762L17.0316 25.7653L16.4127 27.8044L17.772 28.1776L18.296 26.3251L18.9516 26.5117L18.4291 28.3582L19.9664 28.7798L20.5368 26.7669Z" fill="#0F1E45"/>
<path d="M21.8298 16.1259C22.5369 15.333 23.2607 15.3875 23.2607 15.3875L23.3847 16.0598C23.3847 16.0598 22.8264 16.078 22.3896 16.5672C22.1995 16.7805 22.1037 17.0029 22.1037 17.2032C22.1037 17.3686 22.1682 17.5123 22.2974 17.6283C22.6504 17.9426 23.2536 17.593 23.6309 17.4417C23.9214 17.3217 24.3339 17.1537 24.746 17.1537C25.0536 17.1537 25.3714 17.241 25.6619 17.5007C26.0008 17.8039 26.1713 18.1836 26.1713 18.5831C26.1713 19.0158 26.0028 19.4006 25.6649 19.7794C25.0148 20.5067 24.1418 20.5864 24.1418 20.5864L23.9678 19.905C24.4827 19.786 24.8721 19.5882 25.1091 19.323C25.2947 19.1152 25.386 18.8822 25.386 18.6774C25.386 18.4852 25.3058 18.3062 25.1484 18.1655C25.0213 18.052 24.866 18.0111 24.6976 18.0147C24.3702 18.0147 23.9784 18.2018 23.6546 18.3364C23.0362 18.5916 22.3831 18.7979 21.7991 18.2759C21.5015 18.0106 21.3436 17.6763 21.3436 17.3056C21.3431 16.9127 21.499 16.4961 21.8298 16.1259Z" fill="#0F1E45"/>
<path d="M62.0008 42.331L63.9259 43.202L63.8306 43.4189C63.5689 44.012 63.4685 44.1078 62.6651 44.1113L61.2065 44.1123L60.8595 44.8981L62.5405 44.8926C62.8809 44.8926 63.1452 44.8931 63.353 44.8134C63.4196 44.7872 63.4962 44.7448 63.5674 44.6873C63.5628 44.7312 63.5477 44.773 63.5477 44.8169C63.5457 45.004 63.5805 45.1896 63.6511 45.352C63.8806 45.8897 64.5085 46.1534 64.9674 46.1524C65.7774 46.1514 66.0881 45.6668 66.481 44.7751C66.4956 44.7418 66.9546 43.6836 66.9546 43.6836L62.3236 41.5977L62.0008 42.331ZM65.0078 45.351C64.7783 45.3515 64.3879 45.2194 64.2412 44.8396C64.2043 44.7433 64.1887 44.6454 64.1897 44.5466C64.1922 44.2677 64.3249 43.9782 64.46 43.6736L64.5468 43.4774L66.0145 44.1371L65.8521 44.5299C65.5777 45.1523 65.4007 45.3505 65.0078 45.351Z" fill="#0F1E45"/>
<path d="M59.3183 47.1538C58.7902 47.815 58.3893 48.4061 58.3893 49.1702C58.3893 49.8183 58.6838 50.5556 59.4293 51.1503C59.923 51.5447 60.4813 51.7585 61.0568 51.7585C61.7654 51.7585 62.3333 51.5462 63.2159 50.4396L64.0203 49.4279L60.04 46.25L59.3183 47.1538ZM61.1339 50.9884C60.7285 50.9884 60.3492 50.832 59.9538 50.5168C59.5528 50.196 59.1271 49.6977 59.1271 49.0607C59.1271 48.6184 59.3677 48.1968 59.7369 47.7338L60.0748 47.3117L62.9834 49.6332L62.7615 49.9116C62.2208 50.5884 61.8526 50.9884 61.1339 50.9884Z" fill="#0F1E45"/>
<path d="M70.9243 34.2738C70.9243 18.2108 57.8354 5.14258 41.7471 5.14258C25.6593 5.14258 12.5699 18.2108 12.5699 34.2738C12.5699 43.9105 17.329 52.8929 25.3013 58.3354C26.086 61.255 28.7571 63.4142 31.9314 63.4142C32.7904 63.4142 33.622 63.2518 34.4133 62.9461C35.4811 63.2987 36.5841 63.5902 37.6836 63.8171C37.3744 64.7018 36.922 65.5405 36.4913 66.2658C36.4913 66.2658 36.5008 66.2638 36.5155 66.2607C36.5069 66.2663 36.4983 66.2703 36.4903 66.2759L37.098 66.8836C37.2533 66.7989 37.4284 66.7459 37.617 66.7459C38.2182 66.7459 38.7064 67.2346 38.7064 67.8353C38.7064 68.436 38.2177 68.9247 37.617 68.9247C37.093 68.9247 36.633 68.5888 36.3914 68.2292C36.3914 68.2292 36.2497 68.7194 36.2497 69.365C36.2457 71.4575 38.5293 73.8487 41.6977 74.8569C44.8625 73.8714 47.1472 71.4631 47.1457 69.369C47.1457 68.6483 47.0039 68.2292 47.0039 68.2292C46.7608 68.5222 46.3659 68.9247 45.7713 68.9247C45.1711 68.9247 44.6819 68.436 44.6819 67.8353C44.6819 67.2346 45.1711 66.7459 45.7713 66.7459C45.9821 66.7459 46.1773 66.8084 46.3437 66.9123L46.9333 66.3228C46.9469 66.3263 46.956 66.3283 46.956 66.3283C46.6227 65.5309 46.3785 64.7971 46.2131 64.0935C51.4589 63.3869 55.885 61.1668 59.4049 57.4664L59.4024 57.4628C66.725 51.8994 70.9243 43.4586 70.9243 34.2738ZM31.9319 62.5951C28.6194 62.5951 25.9246 59.8928 25.9246 56.5711C25.9246 55.5307 26.1894 54.5507 26.6544 53.6953C26.9636 53.9763 27.2944 54.2678 27.6374 54.5618C27.3459 55.1791 27.1774 55.8656 27.1774 56.5918C27.1774 58.3989 28.0893 59.8918 29.8137 60.9086C30.8037 61.4926 31.9249 62.0196 33.1116 62.4786C32.7268 62.5558 32.3324 62.5951 31.9319 62.5951ZM41.7471 53.8295C40.4973 53.8295 39.2662 53.7095 38.0588 53.479C36.8947 51.1963 34.5092 49.7271 31.9319 49.7271C31.299 49.7271 30.6882 49.8199 30.1057 49.9803C25.1525 46.2991 22.197 40.4451 22.197 34.2738C22.197 23.4908 30.9671 14.7187 41.7471 14.7187C52.5266 14.7187 61.2972 23.4913 61.2972 34.2738C61.2972 45.0563 52.5266 53.8295 41.7471 53.8295ZM46.0971 54.1785C45.5111 55.0147 45.162 56.1778 45.0576 57.3549C43.2072 56.8783 41.5287 56.2373 40.0641 55.5695C40.343 55.0309 41.1394 54.6491 41.7471 54.6491C43.24 54.6486 44.6945 54.4836 46.0971 54.1785ZM39.8997 54.5628C39.6515 54.7479 39.4508 54.9693 39.3091 55.2129C38.5702 54.8543 37.6427 54.3924 37.036 54.0529C37.8959 54.2431 39.0171 54.4842 39.8997 54.5628ZM31.9319 50.5462C33.9448 50.5462 35.8286 51.5781 36.9326 53.2324C35.9652 52.9872 35.016 52.668 34.0891 52.2731L34.0865 52.2791L34.0558 52.2615C33.4082 51.9563 32.7147 51.8015 31.9935 51.8015C30.3896 51.8015 28.9709 52.5883 28.0954 53.7907C27.7262 53.5864 27.3575 53.371 26.9954 53.1466C28.0817 51.5771 29.8883 50.5462 31.9319 50.5462ZM45.7718 65.9057C44.696 65.9057 43.8134 66.6672 43.8134 67.8353C43.8134 68.9792 44.7081 69.7649 45.7718 69.7649C45.9337 69.7649 46.088 69.7377 46.2378 69.6989C46.0134 71.3168 44.1291 73.1279 41.6987 73.9415C39.2874 73.134 37.4036 71.3093 37.1545 69.7004C37.3038 69.7387 37.4571 69.7649 37.618 69.7649C38.7785 69.7649 39.5764 68.9529 39.5764 67.8353C39.5764 66.7696 38.7397 65.9334 37.6598 65.9097C37.9897 65.3075 38.3049 64.668 38.5384 63.9816C39.876 64.2141 41.1933 64.3412 42.4184 64.3412C43.4226 64.3412 44.3985 64.2867 45.3512 64.1899C45.4773 64.7421 45.6649 65.3191 45.8853 65.9152C45.8475 65.9132 45.8106 65.9057 45.7718 65.9057ZM42.4184 63.5226C38.5061 63.5226 33.6235 62.1926 30.2686 60.2136C29.2518 59.6139 28.0404 58.4988 28.0404 56.5918C28.0404 56.0769 28.1418 55.5862 28.3198 55.1343C29.5721 56.1692 30.8668 57.1396 31.6783 57.5844C31.8654 57.6868 31.9728 57.7367 32.1907 57.7367C32.7117 57.7367 33.1338 57.3125 33.1338 56.7895C33.1338 56.3896 32.9169 56.0653 32.5588 55.9084C31.8649 55.6048 30.4128 55.0046 28.8494 54.1947C29.5726 53.2404 30.7109 52.6201 31.994 52.6201C32.5805 52.6201 33.1454 52.7462 33.6719 52.9943L34.7442 53.6192C38.1536 55.7017 46.9248 61.0417 57.5151 58.1079C53.4954 61.7352 48.5447 63.5226 42.4184 63.5226ZM58.8446 56.8395C54.1047 58.5164 49.6805 58.4014 45.9065 57.5582C46.03 55.8726 46.727 54.0711 47.7937 53.7362C56.1064 51.158 62.1602 43.4081 62.1602 34.2743C62.1602 23.0399 53.0027 13.9001 41.7471 13.9001C30.4915 13.9001 21.334 23.0399 21.334 34.2743C21.334 40.5242 24.2532 46.4615 29.1676 50.3107C28.0005 50.8241 27.0055 51.6532 26.2852 52.6861C25.9125 52.432 25.5534 52.1692 25.2216 51.8963L25.036 52.0829C25.2579 52.3513 25.6024 52.7053 26.0169 53.1027C25.4122 54.1205 25.0612 55.3052 25.0612 56.5722C25.0612 56.7694 25.0743 56.9635 25.0914 57.1567C17.7779 51.8267 13.4329 43.3547 13.4329 34.2753C13.4329 18.6637 26.1349 5.96316 41.7471 5.96316C57.3593 5.96316 70.0613 18.6637 70.0613 34.2753C70.0613 43.2165 65.9731 51.4318 58.8446 56.8395Z" fill="#0F1E45"/>
<path d="M110.433 50.9167C110.433 58.6632 104.453 64.2876 96.9824 64.2876C89.3659 64.2876 83.5291 58.5998 83.5291 51.193C83.5291 43.4408 89.5076 37.8164 96.9824 37.8164C104.598 37.8171 110.433 43.512 110.433 50.9167ZM106.16 51.0563C106.16 44.0119 102.744 39.0975 96.9824 39.0975C90.719 39.0975 87.7984 44.9996 87.7984 51.0563C87.7984 58.0964 91.2161 63.0072 96.9824 63.0072C103.245 63.0079 106.16 57.1065 106.16 51.0563Z" fill="#0F1E45"/>
<path d="M192.565 50.9167C192.565 58.6632 186.586 64.2876 179.114 64.2876C171.498 64.2876 165.66 58.5998 165.66 51.193C165.66 43.4408 171.641 37.8164 179.114 37.8164C186.73 37.8171 192.565 43.512 192.565 50.9167ZM188.296 51.0563C188.296 44.0119 184.877 39.0975 179.114 39.0975C172.851 39.0975 169.934 44.9996 169.934 51.0563C169.934 58.0964 173.35 63.0072 179.114 63.0072C185.376 63.0079 188.296 57.1065 188.296 51.0563Z" fill="#0F1E45"/>
<path d="M202.955 51.1912H206.158C210.999 51.1912 212.067 48.1368 212.067 45.2136C212.067 43.0074 211.07 40.9429 208.793 39.9495C207.583 39.4496 206.443 39.4496 204.877 39.4496H202.955V51.1912ZM208.864 55.3165C207.368 53.1823 206.799 52.4032 204.95 52.4032H202.955V61.0855C202.955 61.7976 203.24 62.1472 204.025 62.2925L206.942 62.932V63.862H195.483V62.932L198.117 62.2925C198.898 62.0824 199.183 61.7976 199.183 61.0855V41.0156C199.183 40.302 198.898 40.02 198.117 39.8078L195.483 39.1669V38.2383H206.656C209.007 38.2383 210.643 38.4548 211.995 38.949C214.771 40.02 216.336 42.657 216.336 45.1409C216.336 48.2764 213.988 50.9134 210.072 51.8285V51.9709C210.857 52.3341 211.282 52.8291 214.059 56.4638L217.546 61.0855C218.044 61.7976 218.685 62.2206 219.468 62.3666L222.03 62.9327V63.8628H215.91C215.198 63.8628 214.842 63.6448 214.202 62.7882L208.864 55.3165Z" fill="#0F1E45"/>
<path d="M158.686 46.9932H159.754V55.5351H158.686L158.045 52.9743C157.831 52.045 157.262 51.6918 156.409 51.6918H150.216V61.0854C150.216 61.7976 150.5 62.1472 151.284 62.2925L154.202 62.932V63.862H142.745V62.932L145.378 62.2925C146.161 62.0824 146.446 61.7976 146.446 61.0854V41.0156C146.446 40.302 146.161 40.02 145.378 39.8078L142.745 39.1669V38.2383H162.103V44.6503H161.035L159.826 40.8019C159.541 39.8078 159.114 39.4503 158.26 39.4503H150.216V50.4797H156.41C157.262 50.4797 157.76 50.1294 158.046 49.1986L158.686 46.9932Z" fill="#0F1E45"/>
<path d="M224.093 63.862V62.932L226.726 62.2925C227.51 62.0824 227.794 61.7976 227.794 61.0855V41.0156C227.794 40.302 227.51 40.02 226.726 39.8078L224.093 39.1669V38.2383H236.122C239.395 38.2383 241.744 38.6663 243.666 39.5201C248.506 41.7284 250.713 46.494 250.713 51.1912C250.713 55.7516 249.004 60.0165 244.663 62.2932C242.671 63.3671 239.895 63.8628 236.266 63.8628H224.093V63.862ZM231.567 39.4489V61.507C231.567 62.4371 231.78 62.655 232.706 62.655H235.837C238.826 62.655 241.032 62.2199 242.598 61.0847C245.231 59.1656 246.442 55.6776 246.442 51.2631C246.442 46.922 245.232 42.6563 241.674 40.5912C240.18 39.7345 238.258 39.4489 235.267 39.4489H231.567Z" fill="#0F1E45"/>
<path d="M120.469 62.9334V63.8635H111.431V62.9334L113.704 62.3673C114.563 62.1479 115.129 61.8709 115.698 61.2307L123.529 51.4091L115.698 41.0163C115.201 40.3027 114.563 39.9502 113.777 39.7352L111.641 39.1669V38.2383H122.886V39.1669L120.469 39.6625C119.612 39.8078 119.826 40.161 120.251 40.7321L126.017 48.9878H126.159L132.067 40.7321C132.495 40.161 132.638 39.9495 131.855 39.7352L129.576 39.1669V38.2383H138.616V39.1669L136.338 39.7352C135.485 39.9502 134.915 40.2315 134.344 40.8724L126.943 50.202L135.198 61.0862C135.699 61.7983 136.338 62.1479 137.12 62.3673L139.257 62.9334V63.8635H128.012V62.9334L130.43 62.4385C131.286 62.2939 131.142 62.0162 130.715 61.4358L124.452 52.6126H124.31L117.977 61.376C117.548 61.9436 117.406 62.1487 118.188 62.368L120.469 62.9334Z" fill="#0F1E45"/>
<path d="M93.5095 26.1809C92.8016 26.8881 91.7398 27.3609 90.2592 27.3609C88.9673 27.3609 87.7709 26.9543 86.9612 26.1439C85.8559 25.0387 85.9065 23.6287 85.9065 22.1218V14.9949H87.36V22.6509C87.36 23.6194 87.3308 24.5637 88.0786 25.3114C88.5977 25.8292 89.3953 26.1097 90.3147 26.1097C91.2135 26.1097 91.9335 25.8 92.3836 25.3506C93.2168 24.5181 93.1641 23.6109 93.1641 21.4175V14.9941H94.5955V21.0394C94.5941 23.3374 94.6874 25.0024 93.5095 26.1809Z" fill="#0F1E45"/>
<path d="M106.407 27.1323L100.559 17.1825L100.595 27.1323H99.2601V14.9941H100.751L106.618 24.9995L106.582 14.9941H107.917V27.1323H106.407Z" fill="#0F1E45"/>
<path d="M112.978 27.1309V14.9941H114.439V27.1309H112.978Z" fill="#0F1E45"/>
<path d="M123.519 27.1309H121.848L117.662 14.9941H119.184L122.726 25.7088L126.372 14.9941H127.785L123.519 27.1309Z" fill="#0F1E45"/>
<path d="M131.088 27.1309V14.9941H137.686V16.204H132.519V20.2098H137.37V21.3897H132.519V25.884H137.831V27.1309H131.088Z" fill="#0F1E45"/>
<path d="M147.059 16.8207C146.363 16.125 145.46 16.1563 144.471 16.1563H143.126V20.6883H143.608C144.834 20.6883 146.154 20.7524 146.986 19.9199C147.389 19.5176 147.614 18.9536 147.614 18.3376C147.613 17.6554 147.345 17.107 147.059 16.8207ZM148.384 27.1309L146.99 23.9848C146.126 22.0499 145.732 21.8519 143.972 21.8519H143.126V27.1309H141.696V14.9941H144.313C145.933 14.9941 147.154 14.9827 148.11 15.9384C148.717 16.5459 149.056 17.3527 149.056 18.3654C149.056 19.2085 148.811 19.91 148.303 20.4505C147.865 20.9155 147.143 21.3242 146.356 21.4083C146.784 21.4332 147.136 21.6625 147.366 21.8932C147.695 22.2229 147.937 22.7236 148.292 23.5169L149.904 27.1309H148.384Z" fill="#0F1E45"/>
<path d="M164.082 27.1309V14.9941H165.543V27.1309H164.082Z" fill="#0F1E45"/>
<path d="M173.877 16.204V27.1309H172.417V16.204H168.81V14.9941H177.474V16.204H173.877Z" fill="#0F1E45"/>
<path d="M184.459 22.3328V27.1297H183.017V22.3328L179.165 14.9929H180.834L183.825 20.6842L186.73 14.9922L188.313 14.9929L184.459 22.3328Z" fill="#0F1E45"/>
<path d="M201.927 16.0062C199.548 16.0062 198.004 18.0144 198.004 21.0409C198.004 24.0568 199.724 26.1105 202.005 26.1105C204.541 26.1105 205.953 23.9528 205.953 20.9455C205.953 17.9844 204.286 16.0062 201.927 16.0062ZM201.932 27.3617C198.791 27.3617 196.493 24.7675 196.493 21.1185C196.493 17.3699 198.766 14.7656 202.044 14.7656C205.221 14.7656 207.463 17.3421 207.463 21.0067C207.464 24.7639 205.217 27.3617 201.932 27.3617Z" fill="#0F1E45"/>
<path d="M212.905 16.204V20.2098H217.597V21.3897H212.905V27.1309H211.456V14.9941H217.902V16.204H212.905Z" fill="#0F1E45"/>
<path d="M152.846 17.9581C152.846 16.093 154.347 14.7656 156.54 14.7656C158.759 14.7656 159.823 15.9114 159.932 16.0297L159.22 16.892C158.948 16.682 157.977 15.9684 156.636 15.9684C155.087 15.9684 154.23 16.7781 154.23 17.8762C154.23 18.4082 154.447 18.7906 154.799 19.1046C155.214 19.4785 155.822 19.7541 156.476 20.0553C157.289 20.4292 158.405 20.85 159.151 21.6256C159.669 22.1611 160.059 22.859 160.059 23.8153C160.059 25.8342 158.658 27.371 156.139 27.371C153.992 27.371 152.637 26.1889 152.51 26.0706L153.178 25.0858C153.523 25.3414 154.87 26.139 156.103 26.139C157.929 26.139 158.612 25.1399 158.612 23.9336C158.612 23.3724 158.357 22.9223 157.98 22.5591C157.413 22.0137 156.556 21.6491 155.736 21.2738C154.92 20.9013 154.134 20.5111 153.579 19.9257C153.213 19.5412 152.846 18.9123 152.846 17.9581Z" fill="#0F1E45"/>
</svg>
