<svg width="199" height="80" viewBox="0 0 199 80" fill="none" xmlns="http://www.w3.org/2000/svg">
<path d="M109.515 24.6901L97.9855 44.1253V57.1954C99.322 60.344 102.674 60.7517 105.891 60.9103V62.7224H83.2845V60.9103C86.5011 60.7744 90.4198 60.276 91.4618 58.1921V44.6916L79.7282 24.8261C77.6896 21.4736 75.7415 20.341 71.8228 20.0692V18.257H91.4618V20.0692C87.7469 20.2731 86.569 20.9753 85.5271 21.8134L96.4226 40.6823L107.114 21.8813C106.004 21.0432 104.532 20.2731 100.817 20.0692V18.257H117.602V20.0692C113.842 20.2051 111.463 21.4736 109.515 24.6901ZM132.439 63.3567C128.656 63.3567 126.844 60.7744 126.708 58.9622C124.33 61.4766 121.249 63.3567 118.327 63.3567C114.544 63.3567 111.327 61.0462 111.327 57.0595C111.327 55.1114 111.826 53.0728 112.8 51.4645L126.708 46.4358V41.2712C126.708 38.1226 125.236 35.1099 122.087 35.1099C120.207 35.1099 118.372 37.4204 118.236 40.9768L111.939 42.0187V41.3165C114.046 35.0193 120.954 32.573 124.307 32.573C130.672 32.573 132.982 35.9254 132.915 41.1127L132.711 55.791C132.643 58.6678 134.183 59.3473 135.587 59.3473C136.697 59.3473 137.83 58.6451 139.144 57.3313V59.3473C137.603 61.1821 134.885 63.3567 132.439 63.3567ZM118.463 51.9402C118.191 53.0501 117.964 54.0468 117.964 55.5645C117.964 57.6711 119.142 59.7551 121.453 59.7551C123.559 59.7551 124.737 59.0529 126.617 57.5805L126.685 48.1347C124.896 49.0181 120.411 50.9662 118.463 51.9402ZM139.778 62.7224V61.1142C142.927 60.9103 143.833 60.2081 144.399 59.0075V22.7874C144.399 20.409 144.059 19.4349 139.234 19.0046V17.6001L152.01 14.4062L152.44 15.5841L150.424 18.0985V59.0075C151.127 60.412 152.44 60.8876 155.317 61.1142V62.7224H139.778ZM172.079 63.2661C164.74 63.2661 159.077 57.4672 159.077 49.3579C159.077 39.4364 165.171 32.6409 173.756 32.6409C180.687 32.6409 184.515 36.5597 184.515 42.7889V44.0574L165.646 43.9215C165.51 44.6916 165.442 45.9601 165.442 47.4778C165.442 54.6131 169.927 59.302 175.862 59.302C179.419 59.302 181.253 58.0335 184.04 55.6777L185.082 57.286C181.095 60.8876 177.81 63.2661 172.079 63.2661ZM172.714 34.8155C169.225 34.8155 166.779 37.6016 165.941 42.0187L178.241 41.8828C178.241 38.1679 175.93 34.8155 172.714 34.8155Z" fill="#00356B"/>
<path d="M15.1868 7.03182C15.0098 12.3408 15.0983 17.9153 15.0983 23.3128C15.0983 26.6752 14.9213 30.303 15.1868 33.6653C15.5407 38.178 15.6292 41.7173 17.0449 44.9027C20.0534 51.539 27.486 55.6977 34.6531 58.1752C35.8034 58.6177 36.9537 58.8831 38.1925 59.237C38.4579 59.3255 38.9003 59.591 39.1658 59.591C39.8736 59.6795 42.7051 58.5292 43.413 58.2637C50.6686 55.7862 58.7206 51.2735 61.6406 44.4603C62.8793 41.5404 63.0563 38.4435 63.3217 34.3732C63.4987 31.4533 63.4102 28.1794 63.4102 25.1709V6.94336L15.1868 7.03182ZM68.6307 52.2468C68.0114 52.3353 66.4187 53.7511 65.7993 54.105C63.4987 55.3438 61.1981 56.671 58.6321 57.6443C58.6321 58.8831 58.4552 58.8831 59.34 58.4407C62.2599 57.2019 64.649 55.6977 67.3035 54.282C67.1265 54.7244 66.3302 57.8213 66.4187 58.2637C66.5071 58.7062 68.7192 60.9182 69.1616 61.2722C67.8344 61.6261 66.9496 62.2455 65.6223 62.6879C65.6223 62.7764 65.5338 62.9534 65.5338 63.1303C65.5338 63.3958 65.6223 63.6612 65.8878 63.6612C66.8611 63.6612 69.5156 61.8915 70.5774 61.5376C70.0465 61.1837 67.392 58.5292 67.3035 57.9983C67.215 57.5559 68.0114 54.6359 68.0999 54.105C68.2768 53.4856 68.5423 52.8662 68.6307 52.3353C68.7192 52.3353 68.8077 52.1584 68.6307 52.2468ZM9.87777 52.5123C9.7008 52.5123 10.3202 54.1935 10.4087 54.7244C10.4972 55.2553 11.205 57.9983 11.1165 58.3522C11.0281 58.7946 8.28507 61.5376 7.84265 61.8915C8.1081 61.98 8.28507 61.98 8.55052 62.0685C9.96625 62.6879 11.205 63.4843 12.7092 64.0152C12.8862 63.2188 12.9747 63.1303 12.2668 62.7764C11.382 62.4224 10.4972 61.8031 9.43535 61.5376C10.4972 60.6528 11.205 59.5025 12.1783 58.5292C11.8244 57.4674 11.7359 56.1401 11.382 54.9898L11.205 54.5474C11.205 54.5474 11.2935 54.4589 11.8244 54.8129C13.5056 55.8747 15.2753 56.848 17.1334 57.6443C17.9298 57.9983 18.8146 58.3522 19.6109 58.7062C19.6109 58.4407 19.6994 57.9983 19.6994 57.6443C17.4873 56.5825 15.3637 55.6977 13.2401 54.5474C12.2668 54.0165 11.2935 53.3971 10.3202 52.7778C10.3202 52.7778 10.0547 52.5123 9.87777 52.5123ZM64.2066 57.5559C62.4369 58.7946 60.1363 59.591 57.9243 60.3873C54.3849 61.7146 50.4032 63.0418 46.0675 63.4842C33.7683 64.723 22 62.4225 14.3904 57.8213C14.3904 60.4758 13.5941 65.4309 12.7092 67.3775C13.771 67.643 14.5674 68.0854 15.5407 68.4393C17.3104 69.0587 19.08 69.7666 20.8497 70.3859C28.4593 72.6865 39.5197 73.7483 48.8105 72.2441C52.7037 71.6247 56.5085 70.7399 59.8709 69.5011C61.8175 68.7932 63.6757 67.643 65.7993 67.2005C65.3569 66.3157 65.2684 65.3424 65.0914 64.2806C64.7375 62.157 64.2066 59.9449 64.2066 57.5559Z" fill="#222222"/>
<path d="M61.9945 8.18147C51.288 8.09298 40.0506 8.26998 29.1671 8.26998H20.4958C19.1685 8.26998 17.6643 8.35843 16.4255 8.18147C16.7795 10.482 16.514 13.402 16.514 15.8795V28.8866C16.514 36.3192 16.6025 42.69 19.6994 46.8487C21.9115 49.8572 24.9199 52.0692 28.2823 53.9274C30.9368 55.4316 33.8568 56.4934 37.0422 57.5552C37.5731 57.7322 38.6349 58.2631 39.1658 58.3516C39.5197 58.3516 40.1391 57.9092 40.493 57.8207C42.7936 57.2013 44.7402 56.4049 46.7753 55.5201C51.8189 53.2195 56.8624 50.2996 59.5169 45.61C59.8709 45.0791 60.0478 44.4597 60.3133 43.9288C60.4903 43.5748 60.6672 43.1324 60.8442 42.7785C60.9327 42.5131 60.9327 42.4246 60.9327 42.2476C61.0212 41.9822 61.1096 41.7167 61.1981 41.3628C61.2866 41.0973 61.2866 40.8319 61.3751 40.4779C61.4636 40.124 61.4636 39.7701 61.5521 39.4161C61.6406 38.9737 61.729 38.4428 61.729 37.9119C61.729 37.558 61.8175 37.1156 61.8175 36.5847C61.9945 34.2841 61.906 31.7181 61.906 29.4175V15.5256C61.906 13.3135 61.8175 10.659 61.9945 8.62388C61.9945 8.44692 62.4369 8.18147 61.9945 8.18147Z" fill="#00356B"/>
<path d="M52.5267 16.0567C51.5534 16.4991 50.4916 17.03 49.0759 17.1185C44.2978 17.5609 39.9621 15.4373 39.1657 20.3924C38.8118 15.4373 33.7682 17.4724 29.2556 17.1185C27.9283 17.03 26.8665 16.5876 25.9817 16.0567C25.5393 16.853 24.9199 17.5609 24.389 18.2688C23.7696 18.1803 23.1502 18.1803 22.5308 18.1803C22.8848 20.4809 22.6193 23.2238 22.6193 25.6129V43.2211H31.6446C33.2373 43.2211 35.2724 43.398 36.4227 42.9556C35.7149 44.9023 36.4227 45.7871 38.8118 45.7871C41.3778 45.7871 42.9705 45.4332 41.9972 42.9556C43.3244 43.3096 45.2711 43.2211 47.0407 43.2211H55.8891V18.0918C55.2697 18.0918 54.6503 18.0918 54.1194 18.1803C53.5885 17.4724 52.9691 16.7646 52.5267 16.0567ZM57.5703 17.7379C57.4818 17.7379 57.4818 17.8263 57.4818 17.9148C57.6588 19.0651 57.7472 20.4809 57.6587 21.8081C57.5703 22.8699 57.5703 23.4008 56.42 23.3123C56.42 23.4893 56.42 23.5778 56.42 23.7548C57.1278 23.9317 57.9242 24.0202 58.8975 24.0202C58.8975 24.1972 58.8975 24.2856 58.809 24.4626C58.4551 25.1705 57.2163 24.905 56.42 24.8165C56.42 24.9935 56.5085 25.259 56.5085 25.3474C57.1278 25.4359 58.1012 25.7014 58.6321 25.4359C60.0478 24.7281 59.6054 19.95 60.0478 18.0033C59.0745 18.6227 58.8975 18.8881 58.0127 18.0918C57.8357 18.0918 57.6587 17.7379 57.5703 17.7379ZM20.9381 18.2688C19.7879 19.1536 19.8763 19.1536 18.6376 18.5342C18.903 20.4808 18.6376 25.259 20.2303 25.7014C20.8497 25.8783 21.5575 25.6129 22.0884 25.5244C22.0884 25.4359 22.1769 25.1705 22.1769 24.9935C20.9381 25.1705 20.4072 25.259 19.6994 24.5511C19.6994 24.5511 19.6994 24.2857 19.6994 24.1972C20.5842 24.1087 21.469 24.1087 22.1769 23.8432C22.1769 23.7547 22.1769 23.5778 22.1769 23.4893C21.9115 23.4893 21.5575 23.4893 21.3806 23.4008C20.5842 23.1353 20.9381 19.3306 20.9381 18.2688ZM20.9381 31.6298C20.6727 31.8952 20.4072 32.2492 20.1418 32.5146C19.6109 32.957 19.08 32.3376 18.6376 31.9837C18.7261 33.2225 18.903 37.5582 19.3454 38.266C19.6994 38.7969 20.4957 38.8854 21.2921 38.7969C22.4424 38.62 22.3539 38.0891 21.1151 38.266C20.2303 38.3545 19.8763 38.1775 19.6109 37.4697L19.6994 37.2927C20.5842 37.2927 21.469 37.2927 22.0884 37.1157C21.823 36.1424 21.469 37.1157 21.1151 36.5848C20.5842 35.7885 20.8497 32.6031 20.9381 31.6298ZM57.3933 32.1607C57.5703 33.134 57.7472 36.3194 57.3048 37.0273C56.8624 37.5582 56.5085 36.5848 56.243 37.5581C56.9509 37.7351 57.7472 37.7351 58.6321 37.7351L58.7205 37.9121C58.4551 38.62 58.1012 38.7969 57.2163 38.7084C55.8891 38.5315 55.8891 39.1509 57.0394 39.2393C57.9242 39.3278 58.6321 39.2393 58.986 38.7084C59.4284 38.0006 59.6054 33.6649 59.6939 32.4261C59.3399 32.6916 58.7205 33.311 58.1896 32.957C57.9242 32.8685 57.6587 32.4261 57.3933 32.1607Z" fill="#222222"/>
<path d="M51.8189 17.0307C50.8456 17.5616 49.5183 18.004 47.8371 17.9156C45.7135 17.8271 42.5281 17.2962 41.0239 18.2695C40.316 18.7119 39.7852 19.5967 39.5197 20.5701C39.4312 21.0125 39.5197 21.3664 39.4312 21.8089C38.9888 28.0027 39.3427 34.5505 39.3427 40.8328C41.2009 37.205 46.3329 39.4171 50.3147 38.1783C50.7571 38.0013 51.5534 37.8244 51.8189 37.4704C52.1728 37.028 51.9074 34.1965 51.9074 33.4002V16.9423C51.9959 17.0308 51.8189 17.0307 51.8189 17.0307ZM26.4242 17.1192V33.4002C26.4242 34.1965 26.1587 37.028 26.5126 37.5589C27.132 38.6207 31.0253 38.7977 32.8834 38.6207C35.8919 38.3552 38.0155 38.7977 38.9003 40.7443V26.587C38.9003 24.6403 39.1658 22.2513 38.8118 20.5701C38.6349 19.7737 38.1925 19.0659 37.6616 18.6235C35.7149 17.0308 31.9101 18.2695 28.8132 18.0041C27.9284 17.8271 27.132 17.3847 26.4242 17.1192ZM58.0127 18.8889C58.1012 20.3046 58.1012 21.9858 57.9242 23.3131C58.1897 23.4016 58.4551 23.4015 58.8976 23.4015C59.2515 22.1628 59.0745 20.3931 59.2515 18.9774C58.5436 19.5083 58.6321 19.5968 58.0127 18.8889ZM20.4073 19.2428C19.6994 19.8622 19.9649 19.9507 19.1685 19.3313C19.3455 20.7471 19.257 22.3398 19.5225 23.7555C19.8764 23.7555 20.2303 23.667 20.4958 23.667C20.4958 23.4016 20.4073 23.0476 20.4073 22.8707C20.3188 21.6319 20.4073 20.2161 20.4073 19.2428ZM56.3315 23.7555V24.8173C57.2164 24.9058 58.4551 25.1712 58.7206 24.4634C58.8091 24.2864 58.7206 24.1979 58.8091 24.0209C57.9242 24.0209 57.0394 23.9325 56.3315 23.7555ZM22.0885 23.844C21.3806 24.0209 20.4958 24.1094 19.6109 24.1979C19.6109 24.1979 19.6109 24.4634 19.6109 24.5518C20.3188 25.2597 20.8497 25.1712 22.0885 24.9943V23.844ZM20.4073 32.7808C19.7879 33.5771 19.9649 33.4887 19.1685 32.8693C19.3455 34.108 19.3455 35.4353 19.5225 36.5856C19.7879 36.5856 20.2303 36.5856 20.4958 36.5856C20.4958 35.4353 20.4073 34.0196 20.4073 32.7808ZM57.9242 33.3117C57.8358 34.5505 57.8358 35.9662 57.8358 37.205C58.1012 37.205 58.5436 37.205 58.8091 37.205C58.986 35.9662 59.0745 34.639 59.163 33.4887C58.3667 34.0196 58.5436 34.108 57.9242 33.3117ZM22.0885 37.1165C21.3806 37.2934 20.5843 37.2934 19.6994 37.2934L19.6109 37.4704C19.8764 38.1783 20.2303 38.3553 21.1152 38.2668C21.4691 38.2668 21.7345 38.2668 21.9115 38.2668L22.0885 37.1165ZM56.2431 37.5589L56.3315 38.7977C56.5085 38.7092 56.774 38.7092 57.2164 38.7092C58.1012 38.7977 58.4551 38.6207 58.7206 37.9128L58.6321 37.7359C57.7473 37.8243 56.8624 37.7359 56.2431 37.5589ZM36.9537 43.0449C37.0422 43.3988 37.0422 44.0182 37.3076 44.2836C37.75 44.9915 40.1391 44.9915 40.9354 44.5491C41.3778 44.2836 41.3779 43.4873 41.5548 43.0449C41.5548 43.0449 41.2009 43.0449 41.2894 43.1334C40.1391 44.0182 38.104 43.7527 36.9537 43.0449ZM63.2333 59.1489C51.288 66.5815 27.132 66.6699 15.0983 59.2373C15.3637 60.9185 14.5674 65.4312 13.948 66.6699C15.0098 66.9354 15.8946 67.5548 16.868 67.9087C18.5491 68.5281 20.3188 69.1475 22.0885 69.6784C29.1671 71.7135 39.2543 72.5098 47.7487 71.2711C51.6419 70.7402 55.3582 69.8553 58.7206 68.6166C59.9594 68.1741 61.1981 67.6432 62.4369 67.2008C63.1448 66.9354 63.5872 66.493 64.472 66.4045C63.8526 65.1657 63.3217 61.007 63.2333 59.1489Z" fill="white"/>
<path d="M52.6153 17.4724C52.8807 19.1536 52.7038 21.3657 52.7038 23.2239V33.9304C52.7038 35.2576 52.4383 36.9388 52.7038 38.2661C52.7922 38.8855 53.5001 39.5933 53.7656 40.0357C54.031 40.4782 54.3849 40.8321 54.6504 41.186C54.3849 38.8854 54.5619 36.1425 54.5619 33.6649V19.5076C53.6771 19.2422 53.1462 18.2688 52.6153 17.4724ZM25.8933 17.561H25.8048C25.6278 17.6494 25.6278 18.0918 25.4509 18.2688C25.0969 18.8882 24.566 19.3306 23.8582 19.6845V34.0188C23.8582 36.2309 24.0351 38.7085 23.7697 40.7436C23.7697 40.9206 23.6812 41.4515 23.8582 41.363C24.1236 41.2745 25.7163 38.7085 25.8048 38.2661C26.0702 36.8503 25.8048 35.1691 25.8048 33.7534V22.693C25.8048 21.1003 25.6278 19.2422 25.8933 17.7379C25.9818 17.8264 25.9818 17.6494 25.8933 17.561ZM51.8189 38.3546C51.0226 38.797 50.1377 39.1509 48.9874 39.3279C46.156 39.5933 42.6166 38.797 40.847 40.0357C39.9621 40.6551 39.5197 41.7169 39.4312 42.8672C39.9621 42.6902 40.493 42.6018 40.9355 42.3363C41.1124 42.2478 41.3779 41.8939 41.5548 41.8054C42.1742 41.7169 43.236 42.0708 44.1209 41.9824C45.802 41.8939 47.7487 42.0709 49.6068 41.8939C50.8456 41.8054 52.8807 41.6284 54.031 41.9824C53.4116 40.8321 52.5268 39.6818 51.8189 38.3546ZM26.5127 38.5315C25.8933 40.0357 25.0084 41.0975 24.1236 42.4248C24.92 42.0708 26.2472 42.0708 27.486 42.0708C30.229 42.0708 33.4144 42.4248 36.0689 42.0708C36.1574 42.0708 36.5998 41.8054 36.6883 41.8054C36.7767 41.8054 37.1307 42.2478 37.2192 42.3363C37.6616 42.6018 38.281 42.7787 38.8119 42.8672C38.7234 41.4515 38.1925 40.4781 37.1307 39.8588C35.2725 38.797 31.7332 39.6818 29.0787 39.3279C28.1938 39.3279 27.3975 38.8854 26.5127 38.5315Z" fill="#FABD0A"/>
<path d="M28.1053 21.3671C27.132 22.1634 27.309 23.3137 28.2823 23.7561C28.0169 24.1101 27.5744 24.5525 27.486 25.0834C27.3975 25.9682 27.7514 26.4991 27.3975 27.207C27.3975 27.207 27.3975 27.2954 27.486 27.3839C27.6629 27.03 28.1053 26.6761 28.1938 26.2336C28.2823 25.6143 28.0169 24.9949 28.1938 24.464C28.2823 24.0216 28.7247 23.5791 28.9902 23.2252C29.875 23.6676 31.4677 24.0216 30.9368 25.3488C30.8483 25.5258 30.7598 25.7912 30.5829 25.8797C30.1405 26.0567 29.2556 25.9682 28.7247 25.9682C28.5478 26.4106 28.4593 26.6761 28.3708 27.1185C28.4593 27.1185 28.8132 27.03 28.8132 27.03C30.5829 27.03 30.6714 27.2954 31.2023 25.8797C31.3792 25.2603 31.8216 24.3755 31.7332 23.5791C31.5562 22.4289 29.698 22.9597 29.7865 21.1901C29.2556 21.6325 28.9902 22.9598 28.1938 22.2519C28.0169 22.1634 28.0169 21.721 28.1053 21.3671ZM32.441 21.4555C32.2641 22.4288 32.0871 23.4022 33.0604 23.7561C32.795 24.5525 32.8834 25.0833 32.9719 26.0567C31.8216 26.3221 31.9986 26.1452 31.7332 27.2955C34.3877 27.2955 33.7683 26.7645 33.3259 24.9064C33.0604 23.7561 33.5913 23.3137 34.8301 23.6676C35.4495 23.8446 35.184 26.4106 35.184 27.207C35.7149 27.03 35.8034 26.6761 36.0688 26.2336C35.4495 25.6143 35.8919 22.7828 35.2725 22.5173C33.9452 21.8979 32.8834 23.3137 32.441 21.4555ZM50.2262 21.4555C50.0492 21.721 49.6953 21.9864 49.6068 22.2519C49.3414 23.3137 50.7571 23.0482 49.9607 24.11C48.8105 23.6676 47.5717 23.1367 47.6602 21.544C47.3947 21.721 47.2178 21.898 47.1293 22.1634C46.7753 23.3137 47.4832 24.0216 48.1911 24.464C48.0141 24.5525 47.8371 24.7294 47.6602 24.8179C47.2178 25.2603 47.3062 25.8797 47.3947 26.6761C47.3062 26.6761 47.0408 26.7645 46.9523 26.7645C46.8638 26.853 46.9523 27.03 46.8638 27.1185C47.6602 27.207 48.722 27.3839 48.545 26.3221C48.4565 26.0567 48.1026 25.7912 48.1026 25.5258C48.0141 25.0834 48.1911 24.9064 48.368 24.641C49.4298 25.1719 50.9341 25.7027 50.2262 27.1185C50.5801 27.03 50.4916 27.207 50.6686 26.9415C51.288 26.0567 51.3765 25.1718 50.4916 24.5525C50.4032 24.464 50.1377 24.287 50.1377 24.287C50.6686 23.9331 51.3765 23.1367 50.7571 22.4289C50.6686 22.3404 50.3147 22.1634 50.3147 21.9865C50.2262 21.6325 50.4916 21.721 50.2262 21.4555ZM36.3343 21.544C35.8919 22.6058 35.8034 23.8446 37.3076 23.7561C37.1306 24.8179 37.3076 26.1452 37.1307 27.207C37.75 27.1185 37.8385 26.6761 38.104 26.1452C38.0155 26.0567 37.927 26.0567 37.8385 25.9682C37.6615 25.6143 37.5731 24.287 37.75 23.7561C37.8385 23.4907 38.2809 23.4907 38.104 22.8713C37.927 22.2519 36.7767 22.6943 36.5113 22.0749C36.5113 21.9864 36.3343 21.544 36.3343 21.544ZM44.5632 21.544C44.2093 22.5174 44.0324 23.9331 45.5366 23.6676C45.3596 24.3755 45.0057 28.5342 46.0675 26.5876C46.156 26.4991 46.156 26.4106 46.156 26.2336L46.0675 25.9682C45.7135 25.3488 45.979 24.3755 45.8905 23.5791C46.3329 23.4022 46.6869 23.1367 46.3329 22.5173C45.8905 22.0749 45.0057 22.9598 44.5632 21.544ZM40.7585 21.8095C40.493 22.1634 40.5815 22.5173 40.67 23.0482C41.0239 24.5525 42.7936 23.2252 43.236 24.11C43.5899 24.8179 43.3245 26.3221 43.3245 27.207C43.7669 27.1185 43.8554 26.853 44.1208 26.4106C44.2978 26.4106 44.1208 26.2336 44.1208 26.2336C43.6784 25.6143 43.9439 23.1367 43.5899 22.7828C42.5281 21.898 41.4663 23.4022 40.7585 21.8095ZM48.722 29.3306C48.368 29.9499 47.7487 30.6578 48.4565 31.3657C48.545 31.4542 48.8989 31.7196 48.9874 31.8966C49.1644 32.2505 48.9874 33.2238 49.3414 32.339C50.2262 30.4808 48.9874 31.0117 48.8105 30.0384C48.722 29.6845 48.9874 29.419 48.722 29.3306ZM35.2725 29.5075C33.7683 31.3657 35.7149 31.1002 35.4495 32.7814C35.6264 32.6044 35.8034 32.6044 35.9804 32.339C36.7767 30.8348 35.184 30.7463 35.2725 29.5075ZM43.8554 29.6845C43.5015 30.4808 43.1475 31.4542 44.2093 31.8081C43.5899 32.8699 43.6784 33.9317 43.5015 35.4359C44.6517 35.4359 46.156 35.3474 47.3947 35.5244C47.4832 34.3741 47.8371 33.4008 47.6602 32.2505C47.3947 29.8615 45.979 31.2772 44.2093 30.5693C43.8554 30.3924 44.0324 29.8615 43.8554 29.6845ZM30.4059 29.773C29.9635 30.5693 29.7865 31.4542 30.7598 31.8966C30.052 32.7814 30.1405 34.0202 30.052 35.5244C31.2023 35.4359 32.7065 35.4359 33.8568 35.5244C33.9452 34.3741 34.2992 33.3123 34.1222 31.9851C33.7683 29.6845 30.5829 31.6311 30.4059 29.773ZM16.7795 61.627C16.514 63.0427 16.1601 64.5469 15.8062 65.8742C15.9831 65.8742 16.1601 65.8742 16.3371 65.9627C16.7795 66.1397 17.3989 66.4936 17.8413 66.5821C17.8413 66.5821 18.1067 66.5821 18.0182 66.5821C18.1067 66.4051 18.4607 65.9627 18.5491 65.8742C18.6376 65.6972 16.6025 65.9627 16.691 65.4318C16.9564 64.37 17.3104 63.0427 17.4873 62.0694C17.3104 61.8925 17.0449 61.804 16.7795 61.627ZM61.6405 61.7155C60.8442 61.8925 59.7824 61.8925 59.5169 62.6888C58.8091 64.4585 60.8442 64.1045 61.8175 64.7239C61.906 64.8124 61.9945 64.9009 62.083 64.9894C62.6139 66.5821 60.4018 65.6972 59.9594 65.4318C60.0478 65.6087 60.0478 65.6972 60.0478 65.8742C60.1363 66.0512 60.2248 66.3166 60.4018 66.4936C60.5787 66.8475 61.3751 66.5821 61.906 66.4051C62.6139 66.1396 63.2332 65.5203 62.8793 64.5469C62.5254 63.7506 61.4636 63.8391 60.7557 63.4852C60.4018 63.3082 60.4018 62.9543 60.4018 62.9543C60.8442 61.627 62.7023 63.7506 62.3484 62.8658C61.9945 62.6003 61.6405 61.804 61.6405 61.7155ZM19.7879 62.9543C19.6109 63.9276 18.8146 65.7857 18.9916 66.759C19.08 67.113 19.434 67.3784 19.7879 67.5554C22.0885 68.6172 22.5309 65.5203 22.8848 64.0161C22.6194 63.9276 22.4424 63.9276 22.177 63.8391C22 64.9894 21.823 67.8209 20.1418 67.113C19.257 66.7591 20.4073 64.016 20.5843 63.3082C20.3188 63.1312 20.1418 63.0427 19.7879 62.9543ZM56.9509 63.3967C56.774 63.3967 56.42 63.5736 56.2431 63.6621C56.2431 65.4318 55.8891 66.759 55.6237 68.2633C55.8891 68.1748 56.1546 68.0863 56.42 67.9978C56.42 67.4669 56.5085 66.936 56.597 66.4936C57.0394 66.3166 57.9242 66.0512 57.9242 66.0512C58.1897 66.2281 58.4551 66.8475 58.6321 67.0245C58.8091 67.2899 58.8976 67.2015 59.34 67.0245C59.5169 66.936 59.6939 66.936 59.7824 66.936C59.2515 66.2281 58.5436 65.5203 58.1012 64.8124C57.8358 64.4585 56.9509 63.3967 56.9509 63.3967ZM54.7388 64.193C53.677 64.6354 52.6152 64.9009 51.6419 64.9009C51.6419 65.0779 51.5534 65.4318 51.5534 65.6088C51.5534 65.8742 51.6419 66.0512 51.6419 66.0512C51.9074 65.6088 52.2613 65.3433 52.8807 65.1663C53.3231 66.4936 53.5001 67.5554 53.7655 68.7942C54.9158 68.4402 54.8273 68.6172 54.6504 68.2633C54.4734 67.9093 53.7655 64.9009 53.7655 64.9009C54.1195 64.8124 54.9158 65.0779 55.1813 65.2548C55.1813 65.2548 55.3582 65.3433 55.4467 65.3433C55.3582 65.0779 55.1813 64.9894 55.2697 64.9894C54.9158 64.6354 54.8273 64.4585 54.7388 64.193ZM23.6812 64.193C23.6812 64.1045 23.7697 64.4585 23.7697 64.4585C23.7697 64.7239 23.9466 64.9894 24.0351 65.2548C24.2121 65.6088 24.3006 65.9627 24.389 66.4936C23.7697 67.0245 23.0618 67.5554 22.3539 67.9978C22.9733 68.1748 23.2388 68.6172 23.5927 67.9093C24.6545 66.2281 24.743 67.5554 25.0969 68.8827C25.5393 68.9711 25.8048 68.9711 26.1587 69.0596C25.8048 68.1748 25.4508 67.3784 25.2739 66.3166C25.8933 65.8742 26.4242 65.5203 27.0435 65.0778C26.4242 64.9894 26.2472 64.7239 25.8933 65.1663C24.8315 66.4051 25.0084 66.1396 24.6545 64.5469C24.389 64.4585 24.0351 64.2815 23.6812 64.193ZM50.8456 65.0778C50.6686 65.0778 50.5801 65.0778 50.4032 65.0778C50.3147 65.0778 50.0492 65.2548 49.8723 65.2548C50.2262 66.5821 50.3147 67.9978 50.4916 69.502L50.7571 69.4135C50.9341 69.4135 51.288 69.2366 51.465 69.1481C51.288 67.9978 50.9341 66.4936 50.8456 65.0778ZM29.1671 65.3433C28.9902 66.6706 28.6362 68.2633 28.3708 69.5905C29.0787 69.5905 30.1405 69.679 30.6714 69.8559C31.3792 70.0329 31.3792 69.9445 31.6447 69.3251C31.6447 69.2366 31.7332 69.1481 31.7332 68.9711C31.1138 69.2366 30.2289 69.3251 29.3441 69.2366C29.698 67.5554 29.2556 67.4669 30.7598 68.0863C30.7598 67.9978 30.6714 67.8208 30.6714 67.8208C30.6714 67.7324 30.5829 67.4669 30.5829 67.4669V67.2899C30.2289 67.3784 29.9635 67.3784 29.5211 67.2899C29.6096 66.6706 29.698 65.9627 29.7865 65.9627C30.052 66.0512 30.6714 66.2281 30.9368 66.4051C31.2023 66.5821 31.3792 66.759 31.5562 66.936C31.5562 66.8475 31.4677 66.5821 31.4677 66.5821C31.4677 66.3166 31.3792 65.9627 31.2907 65.6972C30.5829 65.6088 29.875 65.5203 29.1671 65.3433ZM47.6602 65.5203C47.5717 65.5203 47.4832 65.5203 47.3947 65.5203C46.7753 65.6087 46.156 65.8742 45.5366 65.8742C45.6251 66.2281 45.7135 66.6706 45.7135 67.0245C45.802 67.9978 45.802 69.0596 45.8905 70.0329C46.156 70.0329 46.5099 69.9444 46.8638 69.8559C46.7753 69.2366 46.6869 68.5287 46.6869 67.9978C46.9523 67.9978 47.1293 67.9978 47.3947 67.9093C48.0141 68.8826 48.8989 69.856 50.2262 69.679L50.3147 69.502C49.4298 68.9711 48.6335 68.2633 48.1026 67.3784C48.4565 66.936 49.0759 65.6087 47.6602 65.5203ZM32.618 65.7857C32.5295 65.9627 32.3525 66.2281 32.2641 66.4051C32.1756 66.6706 32.2641 66.936 32.2641 66.936C32.7065 66.5821 33.0604 66.4936 33.7683 66.4936C33.7683 67.9093 33.5913 68.9711 33.4143 70.2099C34.6531 70.2099 34.4761 70.3869 34.3877 70.0329C34.2992 69.5905 34.5646 66.5821 34.6531 66.5821C35.007 66.5821 35.7149 67.113 35.8919 67.2899L36.0688 67.3784C36.0688 67.113 35.9804 67.0245 35.9804 66.936C35.8919 66.5821 35.8919 66.4051 35.8919 66.0512C34.6531 66.2281 33.5913 66.0512 32.618 65.7857ZM44.1208 65.9627C43.5014 65.9627 42.8821 66.1397 42.0857 66.1397C42.2627 67.4669 42.1742 68.9711 42.1742 70.3869C43.059 70.2984 43.9439 70.2099 45.0057 70.2099C45.3596 69.3251 45.7135 69.2366 44.7402 69.502C43.059 70.0329 42.9706 70.0329 43.059 68.2633C44.8287 68.4402 44.3863 68.6172 44.2978 67.4669C43.9439 67.6439 43.6784 67.7324 43.1475 67.7324C43.1475 67.5554 43.059 66.4936 43.059 66.4936C44.0324 66.4936 44.4748 66.6706 45.0057 67.0245C44.9172 66.759 44.9172 66.5821 44.8287 66.2281C44.5633 66.0512 44.4748 65.9627 44.1208 65.9627ZM37.5731 66.1397C37.5731 66.1397 37.6615 66.4936 37.75 66.5821C38.2809 67.5554 38.5464 68.7057 39.0773 69.7675C39.3427 70.3869 39.5197 71.0947 39.9621 70.1214C40.2276 69.5905 40.316 69.0596 40.493 68.5287C40.7585 67.6439 41.1124 66.8475 41.5548 66.0512C41.2009 66.0512 40.8469 66.0512 40.5815 66.1397C40.4045 67.2015 40.1391 68.0863 39.7852 68.9711C39.2543 68.0863 38.9003 67.113 38.5464 66.0512C38.104 66.2281 38.0155 66.2281 37.5731 66.1397Z" fill="#222222"/>
<path d="M31.1136 31.8972C30.7597 32.6051 30.6712 33.4899 30.7597 34.5517C31.6445 34.3748 32.7948 34.3748 33.5912 34.5517C33.5027 31.8972 33.8566 32.2512 31.1136 31.8972ZM44.4746 31.8972C44.2977 32.5166 44.2092 33.136 44.2092 33.9324C44.2092 34.1978 44.2092 34.2863 44.2092 34.4633C45.0055 34.1978 46.2443 34.1978 47.0406 34.4633C47.0406 31.9857 46.9522 31.8972 44.4746 31.8972ZM56.7738 64.2822C56.7738 64.8131 56.7738 65.2555 56.6853 65.7864L57.6587 65.5209L56.7738 64.2822ZM47.1291 66.0518C46.9522 66.0518 46.7752 66.0518 46.5097 66.1403C46.5097 66.1403 46.5982 67.6445 46.6867 67.6445C47.5715 67.556 48.2794 66.1403 47.1291 66.0518Z" fill="white"/>
</svg>
