<svg width="617" height="347" viewBox="0 0 617 347" fill="none" xmlns="http://www.w3.org/2000/svg">
<path fill-rule="evenodd" clip-rule="evenodd" d="M169.652 3.09766C166.891 3.09766 164.652 5.33623 164.652 8.09766V10.4767C164.652 12.8284 163.006 14.8408 160.747 15.4932C156.375 16.7555 152.206 18.4959 148.301 20.6539C146.242 21.7913 143.655 21.532 141.992 19.8691L140.305 18.1823C138.353 16.2296 135.187 16.2297 133.234 18.1823L121.964 29.4529C120.011 31.4055 120.011 34.5713 121.964 36.5239L123.651 38.2116C125.314 39.8745 125.574 42.4612 124.436 44.5196C122.279 48.4255 120.539 52.5943 119.277 56.9658C118.624 59.2254 116.612 60.8715 114.26 60.8715H111.879C109.117 60.8715 106.879 63.11 106.879 65.8715V81.8105C106.879 84.5719 109.117 86.8105 111.879 86.8105H114.261C116.612 86.8105 118.625 88.4565 119.277 90.716C120.539 95.0874 122.279 99.2561 124.437 103.162C125.574 105.22 125.315 107.807 123.652 109.47L121.965 111.157C120.012 113.11 120.012 116.276 121.965 118.229L133.235 129.499C135.188 131.452 138.354 131.452 140.306 129.499L141.994 127.812C143.656 126.149 146.243 125.89 148.302 127.027C152.207 129.185 156.376 130.925 160.747 132.187C163.006 132.839 164.652 134.852 164.652 137.204V139.584C164.652 142.345 166.891 144.584 169.652 144.584H185.591C188.353 144.584 190.591 142.345 190.591 139.584V137.205C190.591 134.853 192.237 132.841 194.497 132.189C198.869 130.927 203.039 129.186 206.945 127.028C209.004 125.891 211.59 126.15 213.253 127.813L214.939 129.499C216.891 131.451 220.057 131.451 222.01 129.499L233.28 118.228C235.233 116.276 235.233 113.11 233.28 111.157L231.596 109.473C229.933 107.81 229.674 105.223 230.811 103.164C232.969 99.2578 234.71 95.0883 235.972 90.716C236.625 88.4565 238.637 86.8105 240.989 86.8105H243.365C246.127 86.8105 248.365 84.5719 248.365 81.8105V65.8715C248.365 63.1101 246.127 60.8715 243.365 60.8715H240.989C238.637 60.8715 236.625 59.2254 235.973 56.9658C234.71 52.5934 232.97 48.4237 230.812 44.5172C229.674 42.4587 229.934 39.8719 231.596 38.209L233.281 36.5242C235.234 34.5716 235.234 31.4058 233.281 29.4532L222.011 18.1826C220.058 16.2299 216.892 16.2299 214.939 18.1826L213.254 19.8676C211.592 21.5305 209.005 21.7898 206.946 20.6526C203.04 18.4942 198.87 16.7538 194.497 15.4916C192.237 14.8394 190.591 12.8269 190.591 10.475V8.09766C190.591 5.33624 188.353 3.09766 185.591 3.09766H169.652ZM177.618 111.894C198.633 111.894 215.669 94.858 215.669 73.843C215.669 52.828 198.633 35.792 177.618 35.792C156.603 35.792 139.567 52.828 139.567 73.843C139.567 94.858 156.603 111.894 177.618 111.894Z" fill="#7601D3" fill-opacity="0.08"/>
<path fill-rule="evenodd" clip-rule="evenodd" d="M166.402 161.574C164.899 161.574 163.681 162.792 163.681 164.295C163.681 165.575 162.784 166.667 161.56 167.044C159.986 167.529 158.475 168.158 157.043 168.917C155.911 169.517 154.504 169.378 153.598 168.473C152.535 167.41 150.811 167.41 149.748 168.473L145.699 172.522C144.636 173.585 144.636 175.309 145.699 176.372C146.605 177.278 146.743 178.685 146.143 179.817C145.385 181.249 144.756 182.76 144.271 184.334C143.894 185.557 142.801 186.455 141.521 186.455C140.018 186.455 138.799 187.674 138.799 189.177V194.904C138.799 196.407 140.017 197.626 141.521 197.626C142.801 197.626 143.894 198.523 144.27 199.747C144.755 201.322 145.385 202.833 146.143 204.265C146.743 205.396 146.604 206.804 145.699 207.709C144.636 208.773 144.636 210.497 145.699 211.56L149.748 215.609C150.811 216.672 152.535 216.672 153.598 215.609C154.503 214.703 155.911 214.565 157.042 215.165C158.474 215.924 159.986 216.553 161.56 217.038C162.784 217.415 163.681 218.507 163.681 219.787C163.681 221.29 164.899 222.508 166.402 222.508H172.131C173.634 222.508 174.852 221.29 174.852 219.787C174.852 218.508 175.749 217.416 176.972 217.039C178.548 216.554 180.06 215.925 181.493 215.165C182.624 214.566 184.031 214.704 184.936 215.609C185.999 216.672 187.722 216.672 188.785 215.609L192.835 211.559C193.898 210.496 193.898 208.773 192.835 207.71C191.93 206.805 191.792 205.398 192.392 204.267C193.151 202.834 193.781 201.321 194.266 199.745C194.643 198.523 195.734 197.626 197.013 197.626C198.515 197.626 199.732 196.409 199.732 194.907V189.174C199.732 187.672 198.515 186.455 197.013 186.455C195.734 186.455 194.642 185.558 194.266 184.336C193.781 182.76 193.151 181.248 192.391 179.814C191.792 178.683 191.93 177.277 192.835 176.371C193.898 175.309 193.898 173.586 192.835 172.523L188.785 168.473C187.722 167.41 185.999 167.41 184.936 168.473C184.03 169.378 182.624 169.516 181.492 168.917C180.059 168.157 178.547 167.528 176.972 167.043C175.749 166.666 174.852 165.574 174.852 164.295C174.852 162.792 173.634 161.574 172.131 161.574H166.402ZM169.265 208.43C178.315 208.43 185.652 201.093 185.652 192.042C185.652 182.992 178.315 175.655 169.265 175.655C160.214 175.655 152.877 182.992 152.877 192.042C152.877 201.093 160.214 208.43 169.265 208.43Z" fill="#7601D3" fill-opacity="0.08"/>
<path fill-rule="evenodd" clip-rule="evenodd" d="M262.165 13.9961C261.168 13.9961 260.36 14.8043 260.36 15.8013C260.36 16.6504 259.765 17.375 258.953 17.6249C257.909 17.9466 256.906 18.3643 255.956 18.8677C255.205 19.2656 254.271 19.174 253.67 18.5731C252.965 17.8675 251.821 17.8675 251.115 18.5731L248.43 21.2585C247.724 21.9642 247.724 23.1084 248.43 23.8142C249.031 24.4151 249.122 25.3493 248.724 26.1003C248.221 27.05 247.804 28.052 247.483 29.096C247.232 29.908 246.507 30.5035 245.658 30.5035C244.66 30.5035 243.852 31.3122 243.852 32.3098V36.1091C243.852 37.1066 244.66 37.9152 245.658 37.9152C246.507 37.9152 247.232 38.5108 247.482 39.3227C247.804 40.3671 248.221 41.3694 248.724 42.3193C249.122 43.0703 249.031 44.0042 248.43 44.6051C247.724 45.3108 247.724 46.4548 248.43 47.1604L251.116 49.8463C251.821 50.5518 252.965 50.5518 253.67 49.8463C254.271 49.2455 255.205 49.1539 255.956 49.5517C256.906 50.0551 257.909 50.4729 258.953 50.7946C259.765 51.0446 260.36 51.7692 260.36 52.6184C260.36 53.6155 261.168 54.4238 262.166 54.4238H265.967C266.964 54.4238 267.772 53.6157 267.772 52.6189C267.772 51.7699 268.367 51.0453 269.178 50.7956C270.224 50.4738 271.227 50.0559 272.178 49.5521C272.929 49.1546 273.862 49.2462 274.462 49.8466C275.167 50.5516 276.31 50.5516 277.015 49.8466L279.703 47.1584C280.408 46.4536 280.408 45.3108 279.703 44.6059C279.103 44.0056 279.011 43.0726 279.409 42.3224C279.913 41.371 280.331 40.3671 280.653 39.321C280.903 38.5101 281.627 37.9152 282.475 37.9152C283.472 37.9152 284.279 37.1076 284.279 36.1113V32.3076C284.279 31.3112 283.472 30.5035 282.475 30.5035C281.627 30.5035 280.903 29.9087 280.653 29.0977C280.331 28.052 279.913 27.0484 279.409 26.0972C279.011 25.347 279.103 24.4138 279.703 23.8134C280.408 23.1084 280.408 21.9654 279.703 21.2605L277.015 18.5727C276.31 17.8676 275.167 17.8676 274.462 18.5727C273.862 19.1732 272.928 19.2648 272.178 18.8673C271.227 18.3636 270.224 17.9457 269.178 17.624C268.367 17.3742 267.772 16.6498 267.772 15.8008C267.772 14.8041 266.964 13.9961 265.967 13.9961H262.165ZM264.065 45.0838C270.069 45.0838 274.937 40.216 274.937 34.2112C274.937 28.2065 270.069 23.3387 264.065 23.3387C258.06 23.3387 253.192 28.2065 253.192 34.2112C253.192 40.216 258.06 45.0838 264.065 45.0838Z" fill="#7601D3" fill-opacity="0.08"/>
<path d="M182.943 296.266H148.371L337.447 122.316L480.115 129.792L540.452 49.9625L525.355 33.3652L573.777 25.3516L567.098 79.4503L553.21 63.989L484.88 152.492L346.165 144.282L182.943 296.266Z" fill="#B68EFC"/>
<rect x="280.52" y="249.326" width="78.6229" height="34.0132" fill="#2C225D"/>
<path d="M280.52 250.986H359.143V260.986L280.52 255.543V250.986Z" fill="#161034"/>
<path d="M167.33 67.8965C167.33 59.0599 174.494 51.8965 183.33 51.8965H456.334C465.17 51.8965 472.334 59.0599 472.334 67.8965V234.987C472.334 243.823 465.17 250.987 456.334 250.987H183.33C174.494 250.987 167.33 243.823 167.33 234.987V67.8965Z" fill="#49426D"/>
<path d="M177.621 67.4824C177.621 64.1687 180.307 61.4824 183.621 61.4824H456.045C459.358 61.4824 462.045 64.1687 462.045 67.4824V228.002C462.045 231.316 459.358 234.002 456.045 234.002H183.621C180.307 234.002 177.621 231.316 177.621 228.002V67.4824Z" fill="white"/>
<rect x="232.738" y="282.521" width="174.188" height="12.0616" fill="#2C225D"/>
<rect x="291.393" y="77.5859" width="163.372" height="105.509" rx="5" fill="#F8F0FF"/>
<path d="M318.256 178.699H297.387C297.387 175.719 300.772 175.309 301.521 175.883C301.396 174.384 301.097 171.911 304.544 170.662C307.992 169.413 310.358 172.786 310.69 173.351C311.039 171.507 312.771 171.704 313.422 171.704C312.957 170.913 311.795 168.729 312.771 166.544C313.999 163.755 316.939 163.151 318.256 163.198V178.699Z" fill="#B68EFC"/>
<path d="M423.813 178.732V167.128C424.934 166.666 427.63 166.066 429.445 167.36C431.26 168.654 431.007 171.23 430.654 172.357C430.893 171.987 431.736 171.311 433.197 171.569C435.346 172.028 435.668 174.339 435.561 175.437C436.05 174.84 437.409 173.689 438.927 173.861C442.423 174.205 443.13 177.252 443.046 178.732H423.813Z" fill="#B68EFC"/>
<path d="M343.505 93.575H307.092C307.406 90.2547 312.679 90.5366 313.228 90.8113C313.274 89.4847 316.43 83.0349 322.011 83.5838C327.592 84.1328 328.873 88.2957 328.873 90.0797C331.755 88.8446 332.99 90.9489 333.311 91.7721C338.727 89.1372 342.364 91.8761 343.505 93.575Z" fill="white"/>
<path d="M433.616 100.773H410.883C411.174 97.1378 416.796 97.1854 417.669 97.6704C417.62 96.3618 418.347 93.3563 421.886 93.3563C426.617 93.2399 427.347 96.8624 427.121 98.6882C427.363 98.349 428.284 97.6704 430.029 97.6704C432.899 97.6704 433.616 99.7387 433.616 100.773Z" fill="white"/>
<path d="M317.592 178.696V133.215H364.037V178.696H317.592Z" fill="#D7C0FF"/>
<path d="M424.719 178.701H364.038L364.037 133.352L393.846 106.23L424.719 133.352V178.701Z" fill="white"/>
<path d="M429.705 133.965L396.23 104.059L393.85 106.23L425.4 133.965L429.705 133.965Z" fill="#D7C1FF"/>
<path d="M363.22 134.112H315.668L348.553 104.066H396.224L363.22 134.112Z" fill="#B68EFC"/>
<path d="M387.043 153.717C387.043 148.659 391.143 144.559 396.201 144.559V144.559C401.259 144.559 405.36 148.659 405.36 153.717V178.589H387.043V153.717Z" fill="#F4EBFB"/>
<path d="M335.701 154.252C335.701 151.673 333.61 149.582 331.031 149.582V149.582C328.452 149.582 326.361 151.673 326.361 154.252V162.48H335.701V154.252Z" fill="#F4EBFB"/>
<path d="M352.338 154.426C352.338 151.847 350.247 149.756 347.668 149.756V149.756C345.089 149.756 342.998 151.847 342.998 154.426V162.653H352.338V154.426Z" fill="#F4EBFB"/>
<path fill-rule="evenodd" clip-rule="evenodd" d="M395.662 144.574C395.84 144.564 396.02 144.559 396.201 144.559C401.258 144.559 405.358 148.659 405.358 153.717V178.589H403.27V152.673C403.27 148.361 399.907 144.836 395.662 144.574ZM400.006 163.885C400.632 163.885 401.139 163.378 401.139 162.752C401.139 162.127 400.632 161.62 400.006 161.62C399.38 161.62 398.873 162.127 398.873 162.752C398.873 163.378 399.38 163.885 400.006 163.885Z" fill="#AC9ACC"/>
<path fill-rule="evenodd" clip-rule="evenodd" d="M331.301 149.588C331.21 149.583 331.118 149.58 331.026 149.58C328.447 149.58 326.357 151.671 326.357 154.25V162.477H327.422V153.718C327.422 151.519 329.136 149.721 331.301 149.588ZM347.943 149.763C347.853 149.757 347.761 149.755 347.669 149.755C345.09 149.755 342.999 151.846 342.999 154.425V162.652H344.064V153.892C344.064 151.694 345.779 149.896 347.943 149.763Z" fill="#D7C0FF"/>
<path fill-rule="evenodd" clip-rule="evenodd" d="M331.301 149.588C331.21 149.583 331.118 149.58 331.026 149.58C328.447 149.58 326.357 151.671 326.357 154.25V162.477H327.422V153.718C327.422 151.519 329.136 149.721 331.301 149.588ZM347.943 149.763C347.853 149.757 347.761 149.755 347.669 149.755C345.09 149.755 342.999 151.846 342.999 154.425V162.652H344.064V153.892C344.064 151.694 345.779 149.896 347.943 149.763Z" fill="black" fill-opacity="0.2"/>
<rect x="230.553" y="101.596" width="70.8227" height="42.9886" rx="6" fill="#ECD5FF"/>
<path d="M236.088 107.99C236.088 107.438 236.536 106.99 237.088 106.99H257.33C257.883 106.99 258.33 107.438 258.33 107.99V120.174V122.09C258.33 122.642 257.883 123.09 257.33 123.09H237.088C236.536 123.09 236.088 122.642 236.088 122.09V120.174V107.99Z" fill="white"/>
<path d="M250.784 114.522C251.668 114.522 252.385 113.805 252.385 112.92C252.385 112.036 251.668 111.318 250.784 111.318C249.899 111.318 249.182 112.036 249.182 112.92C249.182 113.805 249.899 114.522 250.784 114.522Z" fill="#7601D3"/>
<path d="M258.33 122.091C258.33 122.643 257.883 123.091 257.33 123.091H237.088C236.536 123.091 236.088 122.643 236.088 122.091V120.601C236.088 120.329 236.199 120.068 236.396 119.879L242.59 113.946C242.98 113.572 243.598 113.576 243.983 113.956L250.398 120.273C250.769 120.638 251.358 120.658 251.752 120.319L254.601 117.865C254.991 117.529 255.572 117.544 255.944 117.899L258.02 119.879C258.218 120.068 258.33 120.329 258.33 120.603V122.091Z" fill="#7601D3"/>
<rect x="262.441" y="107.336" width="32.9135" height="1.85716" rx="0.92858" fill="white"/>
<rect x="262.441" y="113.617" width="32.9135" height="1.85716" rx="0.92858" fill="white"/>
<rect x="262.441" y="119.898" width="32.9135" height="1.85716" rx="0.92858" fill="white"/>
<rect x="236.088" y="126.182" width="59.2665" height="1.85716" rx="0.92858" fill="white"/>
<rect x="236.088" y="132.465" width="59.2665" height="1.85716" rx="0.92858" fill="white"/>
<rect x="236.088" y="138.746" width="36.5879" height="1.85716" rx="0.92858" fill="white"/>
<rect x="291.393" y="190.695" width="162.708" height="36.0232" rx="5" fill="#F5F6F7"/>
<rect x="380.848" y="196.873" width="63.2558" height="4.30889" rx="2.15444" fill="#E2E2E2"/>
<rect x="380.848" y="206.609" width="63.2558" height="4.30889" rx="2.15444" fill="#E2E2E2"/>
<rect x="380.848" y="216.35" width="63.2558" height="4.30889" rx="2.15444" fill="#E2E2E2"/>
<path d="M308.067 203.978C308.253 203.614 308.773 203.614 308.958 203.978L310.243 206.496C310.316 206.639 310.452 206.738 310.61 206.763L313.403 207.207C313.806 207.271 313.966 207.765 313.678 208.054L311.68 210.054C311.567 210.168 311.515 210.328 311.54 210.486L311.98 213.279C312.044 213.682 311.623 213.987 311.26 213.802L308.74 212.52C308.597 212.448 308.429 212.448 308.286 212.52L305.766 213.802C305.402 213.987 304.982 213.682 305.045 213.279L305.486 210.486C305.511 210.328 305.459 210.168 305.346 210.054L303.348 208.054C303.059 207.765 303.22 207.271 303.623 207.207L306.415 206.763C306.573 206.738 306.71 206.639 306.782 206.496L308.067 203.978Z" fill="#F4C06D"/>
<path d="M321.917 203.978C322.103 203.614 322.622 203.614 322.808 203.978L324.093 206.496C324.166 206.639 324.302 206.738 324.46 206.763L327.252 207.207C327.655 207.271 327.816 207.765 327.527 208.054L325.529 210.054C325.416 210.168 325.364 210.328 325.389 210.486L325.83 213.279C325.893 213.682 325.473 213.987 325.109 213.802L322.589 212.52C322.447 212.448 322.278 212.448 322.136 212.52L319.616 213.802C319.252 213.987 318.831 213.682 318.895 213.279L319.336 210.486C319.361 210.328 319.308 210.168 319.195 210.054L317.198 208.054C316.909 207.765 317.07 207.271 317.473 207.207L320.265 206.763C320.423 206.738 320.559 206.639 320.632 206.496L321.917 203.978Z" fill="#F4C06D"/>
<path d="M336.657 203.978C336.472 203.614 335.952 203.614 335.767 203.978L334.481 206.496C334.409 206.639 334.272 206.738 334.115 206.763L331.322 207.207C330.919 207.271 330.759 207.765 331.047 208.054L333.045 210.054C333.158 210.168 333.21 210.328 333.185 210.486L332.745 213.279C332.681 213.682 333.101 213.987 333.465 213.802L335.985 212.52C336.128 212.448 336.296 212.448 336.439 212.52L338.959 213.802C339.323 213.987 339.743 213.682 339.679 213.279L339.239 210.486C339.214 210.328 339.266 210.168 339.379 210.054L341.377 208.054C341.665 207.765 341.505 207.271 341.102 207.207L338.309 206.763C338.152 206.738 338.015 206.639 337.943 206.496L336.657 203.978Z" fill="#F4C06D"/>
<path d="M349.614 203.978C349.8 203.614 350.319 203.614 350.505 203.978L351.79 206.496C351.863 206.639 351.999 206.738 352.157 206.763L354.949 207.207C355.353 207.271 355.513 207.765 355.225 208.054L353.227 210.054C353.114 210.168 353.062 210.328 353.087 210.486L353.527 213.279C353.591 213.682 353.17 213.987 352.806 213.802L350.286 212.52C350.144 212.448 349.975 212.448 349.833 212.52L347.313 213.802C346.949 213.987 346.529 213.682 346.592 213.279L347.033 210.486C347.058 210.328 347.006 210.168 346.893 210.054L344.895 208.054C344.606 207.765 344.767 207.271 345.17 207.207L347.962 206.763C348.12 206.738 348.256 206.639 348.329 206.496L349.614 203.978Z" fill="#F4C06D"/>
<path d="M364.355 203.978C364.169 203.614 363.65 203.614 363.464 203.978L362.179 206.496C362.106 206.639 361.97 206.738 361.812 206.763L359.02 207.207C358.616 207.271 358.456 207.765 358.744 208.054L360.742 210.054C360.855 210.168 360.907 210.328 360.882 210.486L360.442 213.279C360.378 213.682 360.799 213.987 361.163 213.802L363.683 212.52C363.825 212.448 363.994 212.448 364.136 212.52L366.656 213.802C367.02 213.987 367.44 213.682 367.377 213.279L366.936 210.486C366.911 210.328 366.963 210.168 367.076 210.054L369.074 208.054C369.363 207.765 369.202 207.271 368.799 207.207L366.007 206.763C365.849 206.738 365.713 206.639 365.64 206.496L364.355 203.978Z" fill="#F4C06D"/>
<path d="M519.77 199.286C537.643 204.075 556.013 193.469 560.802 175.597C565.591 157.725 554.985 139.354 537.112 134.565C519.24 129.777 500.87 140.383 496.081 158.255C494.036 165.887 494.799 173.611 497.736 180.328L488.631 192.955L503.652 189.467C507.826 194.066 513.326 197.559 519.77 199.286Z" fill="#FFDA9E"/>
<path d="M528.191 183.869L525.662 181.601C522.725 178.956 520.298 176.674 518.379 174.755C516.461 172.836 514.934 171.114 513.801 169.587C512.667 168.061 511.875 166.659 511.424 165.379C510.973 164.1 510.748 162.792 510.748 161.455C510.748 158.722 511.664 156.44 513.495 154.609C515.327 152.777 517.609 151.861 520.342 151.861C521.853 151.861 523.292 152.181 524.659 152.821C526.025 153.46 527.202 154.361 528.191 155.524C529.179 154.361 530.356 153.46 531.723 152.821C533.089 152.181 534.528 151.861 536.04 151.861C538.773 151.861 541.055 152.777 542.886 154.609C544.718 156.44 545.633 158.722 545.633 161.455C545.633 162.792 545.408 164.1 544.957 165.379C544.507 166.659 543.715 168.061 542.581 169.587C541.447 171.114 539.921 172.836 538.002 174.755C536.084 176.674 533.656 178.956 530.72 181.601L528.191 183.869Z" fill="#DB4437"/>
<g filter="url(#filter0_d_7461_45437)">
<path d="M168.776 168.248C152.092 173.73 134.123 164.649 128.641 147.965C123.158 131.28 132.24 113.311 148.924 107.829C165.608 102.347 183.578 111.428 189.06 128.112C191.401 135.237 191.086 142.597 188.657 149.118L197.953 160.604L183.534 158.092C179.821 162.67 174.793 166.271 168.776 168.248Z" fill="#C0BEF2"/>
<path fill-rule="evenodd" clip-rule="evenodd" d="M152.246 133.841V149.838H171.549L171.551 149.816C172.738 149.657 173.655 148.639 173.655 147.408C173.655 146.614 173.273 145.908 172.684 145.465C173.915 145.347 174.879 144.31 174.879 143.047C174.879 142.524 174.713 142.04 174.433 141.644C175.336 141.121 175.944 140.145 175.944 139.027C175.944 138.38 175.741 137.781 175.395 137.289C176.419 136.69 177.106 135.58 177.106 134.308C177.106 132.944 176.315 131.765 175.166 131.204H172.143H165.293C165.71 129.641 166.294 125.593 165.293 121.91C164.042 117.308 162.018 117.248 160.669 117.677C159.744 117.971 159.713 118.842 159.666 120.19L159.666 120.193C159.645 120.811 159.619 121.528 159.504 122.335L159.444 122.771L159.444 122.772C159.075 125.5 158.371 130.692 152.246 133.841ZM149.929 133.674H140.965V149.839H149.929V133.674Z" fill="white"/>
</g>
<circle cx="25.8635" cy="25.8635" r="25.8635" transform="matrix(0.998623 0.0524522 -0.998623 0.0524522 169.934 284.369)" fill="white"/>
<circle cx="25.7603" cy="25.7603" r="25.7603" transform="matrix(0.998623 0.0524522 -0.998623 0.0524522 169.934 284.389)" fill="#F5A516"/>
<circle cx="24.7533" cy="24.7533" r="24.7533" transform="matrix(0.998623 0.0524522 -0.998623 0.0524522 169.934 284.498)" fill="#FFD385"/>
<path d="M133.455 287.084C133.455 287.613 137.539 288.092 144.141 288.439V296.706C137.539 296.359 133.455 295.88 133.455 295.351V287.084Z" fill="#FFB633"/>
<path d="M144.141 288.438C148.994 288.692 154.874 288.861 161.082 288.942C163.11 288.968 165.173 288.986 167.246 288.994C177.458 289.033 187.927 288.848 195.736 288.438V296.704C187.927 297.114 177.458 297.3 167.246 297.26C165.173 297.252 163.11 297.235 161.082 297.208C154.874 297.127 148.994 296.959 144.141 296.704V288.438Z" fill="#D3921D"/>
<path d="M206.422 287.084C206.422 287.613 202.339 288.092 195.736 288.439V296.706C202.339 296.359 206.422 295.88 206.422 295.351V287.084Z" fill="#C68309"/>
<path d="M144.141 288.438V296.704C148.994 296.959 154.874 297.127 161.082 297.208C163.11 297.235 165.173 297.252 167.246 297.26V288.994C165.173 288.986 163.11 288.968 161.082 288.942C154.874 288.861 148.994 288.692 144.141 288.438Z" fill="#E2A029"/>
<circle cx="25.8635" cy="25.8635" r="25.8635" transform="matrix(0.998623 0.0524522 -0.998623 0.0524522 176.359 275.729)" fill="white"/>
<circle cx="25.7603" cy="25.7603" r="25.7603" transform="matrix(0.998623 0.0524522 -0.998623 0.0524522 176.359 275.748)" fill="#F5A516"/>
<circle cx="24.7533" cy="24.7533" r="24.7533" transform="matrix(0.998623 0.0524522 -0.998623 0.0524522 176.359 275.857)" fill="#FFD385"/>
<path d="M139.881 278.443C139.881 278.973 143.964 279.452 150.567 279.798V288.065C143.964 287.718 139.881 287.239 139.881 286.71V278.443Z" fill="#FFB633"/>
<path d="M150.566 279.797C155.42 280.052 161.3 280.22 167.508 280.301C169.536 280.328 171.598 280.345 173.672 280.353C183.884 280.392 194.353 280.207 202.162 279.797V288.064C194.353 288.474 183.884 288.659 173.672 288.62C171.598 288.612 169.536 288.594 167.508 288.568C161.3 288.487 155.42 288.318 150.566 288.064V279.797Z" fill="#D3921D"/>
<path d="M212.848 278.443C212.848 278.973 208.764 279.452 202.162 279.798V288.065C208.764 287.718 212.848 287.239 212.848 286.71V278.443Z" fill="#C68309"/>
<path d="M150.566 279.797V288.064C155.42 288.318 161.3 288.487 167.508 288.568C169.536 288.594 171.598 288.612 173.672 288.62V280.353C171.598 280.345 169.536 280.328 167.508 280.301C161.3 280.22 155.42 280.052 150.566 279.797Z" fill="#E2A029"/>
<circle cx="25.8635" cy="25.8635" r="25.8635" transform="matrix(0.998623 0.0524522 -0.998623 0.0524522 168.65 266.9)" fill="white"/>
<circle cx="25.7603" cy="25.7603" r="25.7603" transform="matrix(0.998623 0.0524522 -0.998623 0.0524522 168.65 266.92)" fill="#F5A516"/>
<circle cx="24.7533" cy="24.7533" r="24.7533" transform="matrix(0.998623 0.0524522 -0.998623 0.0524522 168.65 267.029)" fill="#FFD385"/>
<path d="M132.172 269.615C132.172 270.144 136.255 270.623 142.858 270.97V279.237C136.255 278.89 132.172 278.411 132.172 277.882V269.615Z" fill="#FFB633"/>
<path d="M142.857 270.969C147.711 271.224 153.591 271.392 159.799 271.473C161.827 271.5 163.889 271.517 165.963 271.525C176.175 271.564 186.644 271.379 194.453 270.969V279.235C186.644 279.646 176.175 279.831 165.963 279.791C163.889 279.783 161.827 279.766 159.799 279.74C153.591 279.658 147.711 279.49 142.857 279.235V270.969Z" fill="#D3921D"/>
<path d="M205.139 269.615C205.139 270.144 201.055 270.623 194.453 270.97V279.237C201.055 278.89 205.139 278.411 205.139 277.882V269.615Z" fill="#C68309"/>
<path d="M142.857 270.969V279.235C147.711 279.49 153.591 279.658 159.799 279.74C161.827 279.766 163.889 279.783 165.963 279.791V271.525C163.889 271.517 161.827 271.5 159.799 271.473C153.591 271.392 147.711 271.224 142.857 270.969Z" fill="#E2A029"/>
<circle cx="25.8635" cy="25.8635" r="25.8635" transform="matrix(0.998623 0.0524522 -0.998623 0.0524522 190.455 258.072)" fill="white"/>
<circle cx="25.7603" cy="25.7603" r="25.7603" transform="matrix(0.998623 0.0524522 -0.998623 0.0524522 190.455 258.092)" fill="#F5A516"/>
<circle cx="24.7533" cy="24.7533" r="24.7533" transform="matrix(0.998623 0.0524522 -0.998623 0.0524522 190.455 258.201)" fill="#FFD385"/>
<path d="M153.977 260.787C153.977 261.316 158.06 261.795 164.662 262.142V270.409C158.06 270.062 153.977 269.583 153.977 269.054V260.787Z" fill="#FFB633"/>
<path d="M164.662 262.141C169.515 262.396 175.396 262.564 181.604 262.645C183.631 262.671 185.694 262.689 187.767 262.697C197.98 262.736 208.448 262.551 216.257 262.141V270.407C208.448 270.817 197.98 271.003 187.767 270.963C185.694 270.955 183.631 270.938 181.604 270.912C175.396 270.83 169.515 270.662 164.662 270.407V262.141Z" fill="#D3921D"/>
<path d="M226.944 260.787C226.944 261.316 222.86 261.795 216.258 262.142V270.409C222.86 270.062 226.944 269.583 226.944 269.054V260.787Z" fill="#C68309"/>
<path d="M164.662 262.141V270.407C169.515 270.662 175.396 270.83 181.604 270.912C183.631 270.938 185.694 270.955 187.767 270.963V262.697C185.694 262.689 183.631 262.671 181.604 262.645C175.396 262.564 169.515 262.396 164.662 262.141Z" fill="#E2A029"/>
<circle cx="25.8635" cy="25.8635" r="25.8635" transform="matrix(0.998623 0.0524522 -0.998623 0.0524522 183.828 249.244)" fill="white"/>
<circle cx="25.7603" cy="25.7603" r="25.7603" transform="matrix(0.998623 0.0524522 -0.998623 0.0524522 183.828 249.264)" fill="#F5A516"/>
<circle cx="24.7533" cy="24.7533" r="24.7533" transform="matrix(0.998623 0.0524522 -0.998623 0.0524522 183.828 249.373)" fill="#FFD385"/>
<path d="M147.35 251.959C147.35 252.488 151.433 252.967 158.035 253.314V261.581C151.433 261.234 147.35 260.755 147.35 260.226V251.959Z" fill="#FFB633"/>
<path d="M158.035 253.312C162.888 253.567 168.769 253.736 174.977 253.817C177.005 253.843 179.067 253.861 181.14 253.869C191.353 253.908 201.821 253.723 209.631 253.312V261.579C201.821 261.989 191.353 262.175 181.14 262.135C179.067 262.127 177.005 262.11 174.977 262.083C168.769 262.002 162.888 261.834 158.035 261.579V253.312Z" fill="#D3921D"/>
<path d="M220.317 251.959C220.317 252.488 216.233 252.967 209.631 253.314V261.581C216.233 261.234 220.317 260.755 220.317 260.226V251.959Z" fill="#C68309"/>
<path d="M158.035 253.312V261.579C162.888 261.834 168.769 262.002 174.977 262.083C177.005 262.11 179.067 262.127 181.14 262.135V253.869C179.067 253.861 177.005 253.843 174.977 253.817C168.769 253.736 162.888 253.567 158.035 253.312Z" fill="#E2A029"/>
<circle cx="25.8635" cy="25.8635" r="25.8635" transform="matrix(0.998623 0.0524522 -0.998623 0.0524522 172.15 240.604)" fill="white"/>
<circle cx="25.7603" cy="25.7603" r="25.7603" transform="matrix(0.998623 0.0524522 -0.998623 0.0524522 172.15 240.623)" fill="#F5A516"/>
<circle cx="24.7533" cy="24.7533" r="24.7533" transform="matrix(0.998623 0.0524522 -0.998623 0.0524522 172.15 240.732)" fill="#FFD385"/>
<path d="M135.672 243.318C135.672 243.848 139.755 244.327 146.358 244.673V252.94C139.755 252.593 135.672 252.114 135.672 251.585V243.318Z" fill="#FFB633"/>
<path d="M146.357 244.672C151.211 244.927 157.091 245.095 163.299 245.176C165.327 245.203 167.389 245.22 169.463 245.228C179.675 245.267 190.144 245.082 197.953 244.672V252.939C190.144 253.349 179.675 253.534 169.463 253.495C167.389 253.487 165.327 253.469 163.299 253.443C157.091 253.362 151.211 253.193 146.357 252.939V244.672Z" fill="#D3921D"/>
<path d="M208.639 243.318C208.639 243.848 204.555 244.327 197.953 244.673V252.94C204.555 252.593 208.639 252.114 208.639 251.585V243.318Z" fill="#C68309"/>
<path d="M146.357 244.672V252.939C151.211 253.193 157.091 253.362 163.299 253.443C165.327 253.469 167.389 253.487 169.463 253.495V245.228C167.389 245.22 165.327 245.203 163.299 245.176C157.091 245.095 151.211 244.927 146.357 244.672Z" fill="#E2A029"/>
<path d="M89.4483 61.0179C89.4483 61.0179 87.6362 51.9143 84.0012 47.9506C80.3662 43.9869 72.0176 42.0109 72.0176 42.0109C72.0176 42.0109 80.3662 40.0349 84.0012 36.0712C87.6362 32.1075 89.4483 23.0039 89.4483 23.0039C89.4483 23.0039 91.2604 32.1075 94.8954 36.0712C98.5304 40.0349 106.879 42.0109 106.879 42.0109C106.879 42.0109 98.5304 43.9869 94.8954 47.9506C91.2604 51.9143 89.4483 61.0179 89.4483 61.0179Z" fill="#7601D3" fill-opacity="0.12"/>
<path d="M108.88 37.7352C108.88 37.7352 108.036 33.4973 106.344 31.6521C104.652 29.807 100.766 28.8871 100.766 28.8871C100.766 28.8871 104.652 27.9673 106.344 26.1221C108.036 24.2769 108.88 20.0391 108.88 20.0391C108.88 20.0391 109.723 24.2769 111.416 26.1221C113.108 27.9673 116.994 28.8871 116.994 28.8871C116.994 28.8871 113.108 29.807 111.416 31.6521C109.723 33.4973 108.88 37.7352 108.88 37.7352Z" fill="#7601D3" fill-opacity="0.08"/>
<path d="M114.484 246.122C114.484 246.122 113.86 242.983 112.606 241.617C111.353 240.25 108.475 239.569 108.475 239.569C108.475 239.569 111.353 238.888 112.606 237.521C113.86 236.154 114.484 233.016 114.484 233.016C114.484 233.016 115.109 236.154 116.362 237.521C117.616 238.888 120.494 239.569 120.494 239.569C120.494 239.569 117.616 240.25 116.362 241.617C115.109 242.983 114.484 246.122 114.484 246.122Z" fill="#7601D3" fill-opacity="0.06"/>
<path d="M483.197 56.1699C483.197 56.1699 482.068 50.4963 479.802 48.026C477.537 45.5557 472.334 44.3242 472.334 44.3242C472.334 44.3242 477.537 43.0927 479.802 40.6224C482.068 38.1521 483.197 32.4785 483.197 32.4785C483.197 32.4785 484.327 38.1521 486.592 40.6224C488.857 43.0927 494.061 44.3242 494.061 44.3242C494.061 44.3242 488.857 45.5557 486.592 48.026C484.327 50.4963 483.197 56.1699 483.197 56.1699Z" fill="#7601D3" fill-opacity="0.12"/>
<path d="M528.19 278.772C528.19 278.772 526.377 269.662 522.74 265.696C519.102 261.729 510.748 259.752 510.748 259.752C510.748 259.752 519.102 257.775 522.74 253.808C526.377 249.842 528.19 240.732 528.19 240.732C528.19 240.732 530.004 249.842 533.641 253.808C537.279 257.775 545.633 259.752 545.633 259.752C545.633 259.752 537.279 261.729 533.641 265.696C530.004 269.662 528.19 278.772 528.19 278.772Z" fill="#7601D3" fill-opacity="0.12"/>
<defs>
<filter id="filter0_d_7461_45437" x="121.043" y="101.23" width="82.9102" height="75.6152" filterUnits="userSpaceOnUse" color-interpolation-filters="sRGB">
<feFlood flood-opacity="0" result="BackgroundImageFix"/>
<feColorMatrix in="SourceAlpha" type="matrix" values="0 0 0 0 0 0 0 0 0 0 0 0 0 0 0 0 0 0 127 0" result="hardAlpha"/>
<feMorphology radius="2" operator="dilate" in="SourceAlpha" result="effect1_dropShadow_7461_45437"/>
<feOffset dy="1"/>
<feGaussianBlur stdDeviation="2"/>
<feComposite in2="hardAlpha" operator="out"/>
<feColorMatrix type="matrix" values="0 0 0 0 0 0 0 0 0 0 0 0 0 0 0 0 0 0 0.08 0"/>
<feBlend mode="normal" in2="BackgroundImageFix" result="effect1_dropShadow_7461_45437"/>
<feBlend mode="normal" in="SourceGraphic" in2="effect1_dropShadow_7461_45437" result="shape"/>
</filter>
</defs>
</svg>
