<svg width="753" height="424" viewBox="0 0 753 424" fill="none" xmlns="http://www.w3.org/2000/svg">
<path d="M487.044 90.7886C523.086 105.155 551.819 141.197 553.583 178.247C555.096 215.549 529.891 253.859 508.972 286.121C488.053 318.634 471.67 344.847 448.482 358.457C425.042 372.319 395.049 373.327 365.308 373.075C335.315 372.823 305.574 371.563 269.532 361.985C233.743 352.408 191.652 334.765 174.513 303.764C157.374 273.015 165.439 228.907 178.545 185.808C191.652 142.961 210.051 101.122 242.06 85.2437C274.069 69.365 319.437 79.6987 363.796 81.463C408.155 83.2273 451.002 76.1702 487.044 90.7886Z" fill="#FBF7FF"/>
<path fill-rule="evenodd" clip-rule="evenodd" d="M471.916 12C469.154 12 466.916 14.2386 466.916 17V25.009C466.916 27.3606 465.273 29.38 462.999 29.9823C455.116 32.0712 447.654 35.1952 440.768 39.2C438.735 40.3823 436.145 40.1162 434.482 38.4532L428.811 32.7829C426.859 30.8303 423.693 30.8303 421.74 32.7829L401.419 53.104C399.467 55.0566 399.467 58.2224 401.419 60.175L407.091 65.8464C408.754 67.5093 409.02 70.099 407.838 72.1319C403.833 79.0187 400.71 86.4809 398.621 94.3643C398.019 96.6377 396 98.2809 393.648 98.2809H385.635C382.873 98.2809 380.635 100.52 380.635 103.281V132.019C380.635 134.781 382.873 137.019 385.635 137.019H393.648C396 137.019 398.019 138.662 398.622 140.936C400.71 148.819 403.834 156.281 407.838 163.168C409.02 165.201 408.754 167.791 407.091 169.454L401.419 175.126C399.467 177.078 399.467 180.244 401.419 182.197L421.74 202.518C423.693 204.47 426.859 204.47 428.811 202.518L434.482 196.847C436.145 195.184 438.735 194.918 440.768 196.1C447.654 200.105 455.116 203.228 462.999 205.317C465.273 205.92 466.916 207.939 466.916 210.291V218.301C466.916 221.062 469.154 223.301 471.916 223.301H500.654C503.415 223.301 505.654 221.062 505.654 218.301V210.294C505.654 207.942 507.297 205.922 509.571 205.32C517.456 203.232 524.92 200.108 531.808 196.103C533.841 194.921 536.431 195.187 538.094 196.85L543.76 202.516C545.713 204.469 548.879 204.469 550.832 202.516L571.153 182.195C573.105 180.243 573.105 177.077 571.153 175.124L565.487 169.459C563.824 167.796 563.558 165.206 564.74 163.173C568.746 156.285 571.87 148.821 573.959 140.936C574.562 138.662 576.581 137.019 578.933 137.019H586.936C589.697 137.019 591.936 134.781 591.936 132.019V103.281C591.936 100.52 589.697 98.2809 586.936 98.2809H578.933C576.581 98.2809 574.562 96.6377 573.959 94.3643C571.871 86.4792 568.746 79.0154 564.741 72.1274C563.558 70.0944 563.824 67.5045 565.487 65.8416L571.152 60.1765C573.105 58.2239 573.105 55.0581 571.152 53.1055L550.831 32.7844C548.879 30.8318 545.713 30.8318 543.76 32.7844L538.094 38.4504C536.431 40.1133 533.842 40.3794 531.809 39.1973C524.92 35.1921 517.456 32.068 509.571 29.9795C507.297 29.3774 505.654 27.3579 505.654 25.006V17C505.654 14.2386 503.415 12 500.654 12H471.916ZM486.278 174.48C517.663 174.48 543.105 149.038 543.105 117.654C543.105 86.2691 517.663 60.8269 486.278 60.8269C454.894 60.8269 429.451 86.2691 429.451 117.654C429.451 149.038 454.894 174.48 486.278 174.48Z" fill="#F0E3FB"/>
<path fill-rule="evenodd" clip-rule="evenodd" d="M615.286 142.871C614.015 142.871 612.985 143.902 612.985 145.173C612.985 146.255 612.226 147.179 611.191 147.497C609.859 147.908 608.579 148.441 607.367 149.083C606.41 149.591 605.219 149.474 604.453 148.708C603.554 147.808 602.096 147.808 601.196 148.708L597.771 152.133C596.871 153.033 596.871 154.491 597.771 155.391C598.537 156.157 598.654 157.348 598.147 158.305C597.505 159.517 596.973 160.795 596.563 162.126C596.245 163.161 595.32 163.92 594.238 163.92C592.966 163.92 591.936 164.951 591.936 166.222V171.069C591.936 172.34 592.966 173.371 594.238 173.371C595.321 173.371 596.245 174.13 596.563 175.165C596.974 176.497 597.506 177.775 598.148 178.986C598.655 179.944 598.538 181.135 597.772 181.902C596.872 182.801 596.872 184.261 597.772 185.16L601.195 188.584C602.095 189.484 603.554 189.484 604.454 188.584C605.221 187.818 606.412 187.701 607.369 188.209C608.581 188.85 609.859 189.383 611.191 189.793C612.226 190.112 612.985 191.036 612.985 192.119C612.985 193.39 614.016 194.421 615.287 194.421H620.134C621.405 194.421 622.436 193.39 622.436 192.119C622.436 191.036 623.195 190.112 624.229 189.794C625.562 189.384 626.84 188.851 628.052 188.209C629.009 187.702 630.199 187.819 630.965 188.585C631.864 189.484 633.322 189.484 634.221 188.585L637.648 185.158C638.547 184.259 638.547 182.802 637.648 181.903C636.883 181.137 636.766 179.947 637.273 178.99C637.916 177.778 638.449 176.498 638.859 175.164C639.178 174.13 640.102 173.371 641.184 173.371C642.455 173.371 643.485 172.341 643.485 171.07V166.221C643.485 164.951 642.455 163.92 641.184 163.92C640.102 163.92 639.178 163.162 638.86 162.127C638.449 160.794 637.916 159.514 637.273 158.301C636.767 157.345 636.883 156.155 637.649 155.39C638.547 154.491 638.547 153.034 637.649 152.135L634.221 148.707C633.322 147.808 631.865 147.808 630.966 148.707C630.201 149.473 629.011 149.589 628.054 149.083C626.842 148.44 625.562 147.907 624.229 147.497C623.194 147.178 622.436 146.255 622.436 145.172C622.436 143.901 621.405 142.871 620.134 142.871H615.286ZM617.707 182.51C625.364 182.51 631.571 176.303 631.571 168.646C631.571 160.99 625.364 154.783 617.707 154.783C610.051 154.783 603.844 160.99 603.844 168.646C603.844 176.303 610.051 182.51 617.707 182.51Z" fill="#F0E3FB" fill-opacity="0.6"/>
<g filter="url(#filter0_d_7461_45569)">
<path d="M286.41 194.549V166.374L397.112 164.565V185.792H301.64L286.41 194.549Z" fill="#D7C0FF"/>
<path d="M436.469 186.358V165.236H446.87V186.358H436.469Z" stroke="black"/>
<path d="M447.91 186.358V165.236H458.151V186.358H447.91Z" stroke="black"/>
<path d="M447.91 194.279V187.638H458.151V194.279H447.91Z" stroke="black"/>
<path d="M436.469 194.279V187.638H446.87V194.279H436.469Z" stroke="black"/>
<path d="M370.9 237.798V216.676H381.301V237.798H370.9Z" stroke="black"/>
<path d="M382.341 237.798V216.676H392.582V237.798H382.341Z" stroke="black"/>
<path d="M382.341 245.718V239.078H392.582V245.718H382.341Z" stroke="black"/>
<path d="M370.9 245.718V239.078H381.301V245.718H370.9Z" stroke="black"/>
<path d="M265.721 279.982V258.86H276.122V279.982H265.721Z" stroke="black"/>
<path d="M277.162 279.982V258.86H287.403V279.982H277.162Z" stroke="black"/>
<path d="M277.162 287.903V281.262H287.403V287.903H277.162Z" stroke="black"/>
<path d="M265.721 287.903V281.262H276.122V287.903H265.721Z" stroke="black"/>
<path d="M309.844 279.982V258.86H320.245V279.982H309.844Z" stroke="black"/>
<path d="M321.285 279.982V258.86H331.526V279.982H321.285Z" stroke="black"/>
<path d="M321.285 287.903V281.262H331.526V287.903H321.285Z" stroke="black"/>
<path d="M309.844 287.903V281.262H320.245V287.903H309.844Z" stroke="black"/>
<path d="M326.757 119.183L279.111 156.479H395.102L452.122 119.183H326.757Z" fill="#A87FEF"/>
<path d="M250.336 304.552V225.538L342.536 220.711V304.552H250.336Z" fill="#D7C0FF"/>
<path d="M342.537 304.491V220.044L391.132 191.871V166.033L452.084 126.723L501.111 160.511V304.491H342.537Z" fill="#EFE7FC"/>
<path d="M434.549 196.518V163.155H460.071V196.518H434.549Z" fill="white"/>
<path d="M436.469 186.358V165.236H446.87V186.358H436.469Z" fill="#D8E3F1"/>
<path d="M447.91 186.358V165.236H458.151V186.358H447.91Z" fill="#D8E3F1"/>
<path d="M447.91 194.279V187.638H458.151V194.279H447.91Z" fill="#D8E3F1"/>
<path d="M436.469 194.279V187.638H446.87V194.279H436.469Z" fill="#D8E3F1"/>
<path d="M368.982 247.958V214.595H394.505V247.958H368.982Z" fill="white"/>
<path d="M370.9 237.798V216.676H381.301V237.798H370.9Z" fill="#D8E3F1"/>
<path d="M382.341 237.798V216.676H392.582V237.798H382.341Z" fill="#D8E3F1"/>
<path d="M382.341 245.718V239.078H392.582V245.718H382.341Z" fill="#D8E3F1"/>
<path d="M370.9 245.718V239.078H381.301V245.718H370.9Z" fill="#D8E3F1"/>
<path d="M307.926 290.143V256.78H333.448V290.143H307.926Z" fill="#F2F2F2"/>
<path d="M263.803 290.063V256.7H289.325V290.063H263.803Z" fill="#F2F2F2"/>
<path d="M309.844 279.982V258.86H320.245V279.982H309.844Z" fill="#CBD5E1"/>
<path d="M321.285 279.982V258.86H331.526V279.982H321.285Z" fill="#CBD5E1"/>
<path d="M321.285 287.903V281.262H331.526V287.903H321.285Z" fill="#CBD5E1"/>
<path d="M309.844 287.903V281.262H320.245V287.903H309.844Z" fill="#CBD5E1"/>
<path d="M265.721 279.902V258.78H276.122V279.902H265.721Z" fill="#CBD5E1"/>
<path d="M277.162 279.902V258.78H287.403V279.902H277.162Z" fill="#CBD5E1"/>
<path d="M277.162 287.823V281.182H287.403V287.823H277.162Z" fill="#CBD5E1"/>
<path d="M265.721 287.823V281.182H276.122V287.823H265.721Z" fill="#CBD5E1"/>
<path d="M446.293 304.472V255.69V253.688H467.875V304.472H466.317H446.293Z" fill="#AC9ACC"/>
<path d="M446.293 304.473V255.691H466.317V304.473H446.293Z" fill="#E0D3EB"/>
<path d="M472.769 225.2L508.083 244.722V248.999H455.921L420.217 228.753V225.2H472.769Z" fill="white"/>
<path d="M508.083 244.722L472.769 225.2H420.217L455.921 244.722H508.083Z" fill="#A87FEF"/>
<path d="M455.113 304.277V248.425H459.21V304.277H455.113Z" fill="#AC9ACC"/>
<path fill-rule="evenodd" clip-rule="evenodd" d="M461.5 248.425H459.164V304.513H461.499V280.359H465.925V304.513H465.925H468.733V280.359H473.859V304.513H473.859H476.489V280.359H481.659V304.513H481.659H484.244V280.359H489.548V304.513H489.549H492.134V280.359H497.081V304.513H497.082H501.085V276.835H461.5V248.425Z" fill="white"/>
<path d="M276.561 166.256V156.193L395.377 156.256L452.243 118.53L512.531 158.415L508.056 166.256L452.243 129.456L395.377 166.256H276.561Z" fill="white"/>
<path d="M239.961 225.266V218.037H335.18L397.424 185.672V194.789L335.18 225.266H239.961Z" fill="white"/>
<path d="M301.8 185.659H397.239L384.841 192.039L334.98 217.694L244.137 218.017L290.432 192.039L301.8 185.659Z" fill="#A87FEF"/>
<rect x="465.457" y="280.292" width="1.37123" height="24.2252" fill="#AC9ACC"/>
<rect x="473.043" y="280.292" width="1.37123" height="24.2252" fill="#AC9ACC"/>
<rect x="480.623" y="280.292" width="1.37123" height="24.2252" fill="#AC9ACC"/>
<rect x="488.207" y="280.292" width="1.37123" height="24.2252" fill="#AC9ACC"/>
<rect x="495.787" y="280.292" width="1.37123" height="24.2252" fill="#AC9ACC"/>
</g>
<g filter="url(#filter1_d_7461_45569)">
<rect x="239.961" y="94.4873" width="162.708" height="36.0232" rx="5" fill="#F5F6F7"/>
<rect x="329.416" y="100.664" width="63.2558" height="4.30889" rx="2.15444" fill="#E2E2E2"/>
<rect x="329.416" y="110.402" width="63.2558" height="4.30889" rx="2.15444" fill="#E2E2E2"/>
<rect x="329.416" y="120.141" width="63.2558" height="4.30889" rx="2.15444" fill="#E2E2E2"/>
<path d="M256.636 107.771C256.821 107.407 257.341 107.407 257.527 107.771L258.812 110.289C258.884 110.432 259.021 110.531 259.179 110.556L261.971 111C262.374 111.064 262.535 111.558 262.246 111.847L260.248 113.847C260.135 113.961 260.083 114.121 260.108 114.279L260.549 117.071C260.612 117.475 260.192 117.78 259.828 117.595L257.308 116.313C257.165 116.241 256.997 116.241 256.854 116.313L254.334 117.595C253.971 117.78 253.55 117.475 253.614 117.071L254.054 114.279C254.079 114.121 254.027 113.961 253.914 113.847L251.916 111.847C251.628 111.558 251.788 111.064 252.192 111L254.984 110.556C255.142 110.531 255.278 110.432 255.351 110.289L256.636 107.771Z" fill="#F4C06D"/>
<path d="M270.485 107.771C270.671 107.407 271.191 107.407 271.376 107.771L272.661 110.289C272.734 110.432 272.87 110.531 273.028 110.556L275.82 111C276.224 111.064 276.384 111.558 276.096 111.847L274.098 113.847C273.985 113.961 273.933 114.121 273.958 114.279L274.398 117.071C274.462 117.475 274.041 117.78 273.678 117.595L271.158 116.313C271.015 116.241 270.847 116.241 270.704 116.313L268.184 117.595C267.82 117.78 267.4 117.475 267.463 117.071L267.904 114.279C267.929 114.121 267.877 113.961 267.764 113.847L265.766 111.847C265.477 111.558 265.638 111.064 266.041 111L268.833 110.556C268.991 110.531 269.128 110.432 269.2 110.289L270.485 107.771Z" fill="#F4C06D"/>
<path d="M285.226 107.771C285.04 107.407 284.521 107.407 284.335 107.771L283.05 110.289C282.977 110.432 282.841 110.531 282.683 110.556L279.891 111C279.488 111.064 279.327 111.558 279.615 111.847L281.613 113.847C281.726 113.961 281.778 114.121 281.754 114.279L281.313 117.071C281.249 117.475 281.67 117.78 282.034 117.595L284.554 116.313C284.696 116.241 284.865 116.241 285.007 116.313L287.527 117.595C287.891 117.78 288.311 117.475 288.248 117.071L287.807 114.279C287.782 114.121 287.834 113.961 287.947 113.847L289.945 111.847C290.234 111.558 290.073 111.064 289.67 111L286.878 110.556C286.72 110.531 286.584 110.432 286.511 110.289L285.226 107.771Z" fill="#F4C06D"/>
<path d="M298.183 107.771C298.368 107.407 298.888 107.407 299.073 107.771L300.359 110.289C300.431 110.432 300.568 110.531 300.725 110.556L303.518 111C303.921 111.064 304.081 111.558 303.793 111.847L301.795 113.847C301.682 113.961 301.63 114.121 301.655 114.279L302.095 117.071C302.159 117.475 301.739 117.78 301.375 117.595L298.855 116.313C298.712 116.241 298.544 116.241 298.401 116.313L295.881 117.595C295.517 117.78 295.097 117.475 295.161 117.071L295.601 114.279C295.626 114.121 295.574 113.961 295.461 113.847L293.463 111.847C293.175 111.558 293.335 111.064 293.738 111L296.531 110.556C296.689 110.531 296.825 110.432 296.897 110.289L298.183 107.771Z" fill="#F4C06D"/>
<path d="M312.923 107.771C312.737 107.407 312.218 107.407 312.032 107.771L310.747 110.289C310.674 110.432 310.538 110.531 310.38 110.556L307.588 111C307.185 111.064 307.024 111.558 307.313 111.847L309.311 113.847C309.424 113.961 309.476 114.121 309.451 114.279L309.01 117.071C308.947 117.475 309.367 117.78 309.731 117.595L312.251 116.313C312.393 116.241 312.562 116.241 312.704 116.313L315.224 117.595C315.588 117.78 316.009 117.475 315.945 117.071L315.505 114.279C315.48 114.121 315.532 113.961 315.645 113.847L317.643 111.847C317.931 111.558 317.771 111.064 317.367 111L314.575 110.556C314.417 110.531 314.281 110.432 314.208 110.289L312.923 107.771Z" fill="#F4C06D"/>
</g>
<g filter="url(#filter2_d_7461_45569)">
<rect width="14.3555" height="18.8973" transform="matrix(0.707103 0.70712 -0.707093 0.707111 157.373 284.155)" fill="#9F8EF0"/>
<path d="M141.629 296.158C141.908 295.876 142.363 295.875 142.644 296.155L155.622 309.133C155.9 309.412 155.901 309.863 155.624 310.143L130.606 335.423C126.742 339.286 120.479 339.286 116.616 335.423C112.753 331.559 112.753 325.296 116.616 321.433L141.629 296.158Z" fill="#9065B0"/>
<path d="M153.814 307.863L166.8 294.877L163.488 291.02C161.604 291.735 155.967 294.934 148.499 302.002L153.814 307.863Z" fill="#9F8EF0"/>
<path d="M153.814 307.863L166.8 294.877L163.488 291.02C161.604 291.735 155.967 294.934 148.499 302.002L153.814 307.863Z" fill="black" fill-opacity="0.2"/>
<path d="M129.518 336.257L155.629 310.145C155.908 309.866 155.908 309.413 155.629 309.133L149.14 302.644C148.056 301.737 143.709 302.055 134.995 310.586C124.134 321.217 112.94 329.592 116.955 335.443C116.979 335.477 117.007 335.51 117.036 335.539C120.9 339.356 126.85 338.925 129.518 336.257Z" fill="#9065B0"/>
<path d="M129.518 336.257L155.629 310.145C155.908 309.866 155.908 309.413 155.629 309.133L149.14 302.644C148.056 301.737 143.709 302.055 134.995 310.586C124.134 321.217 112.94 329.592 116.955 335.443C116.979 335.477 117.007 335.51 117.036 335.539C120.9 339.356 126.85 338.925 129.518 336.257Z" fill="black" fill-opacity="0.2"/>
<path fill-rule="evenodd" clip-rule="evenodd" d="M139.717 237.974C139.717 278.517 172.584 311.383 213.126 311.383C253.669 311.383 286.535 278.517 286.535 237.974C286.535 197.432 253.669 164.565 213.126 164.565C172.584 164.565 139.717 197.432 139.717 237.974ZM151.752 237.974C151.752 271.874 179.234 299.356 213.134 299.356C247.035 299.356 274.517 271.874 274.517 237.974C274.517 204.073 247.035 176.591 213.134 176.591C179.234 176.591 151.752 204.073 151.752 237.974Z" fill="#9065B0"/>
<circle cx="213.135" cy="237.974" r="61.3825" transform="rotate(90 213.135 237.974)" fill="#D9D9D9" fill-opacity="0.2"/>
<path d="M215.302 185.672C185.742 185.672 161.781 209.634 161.781 239.192C161.781 240.299 161.815 241.398 161.881 242.487C162.008 244.571 164.015 245.954 166.049 245.483C167.81 245.076 168.968 243.408 168.875 241.602C168.835 240.804 168.814 240 168.814 239.191C168.814 213.517 189.626 192.705 215.3 192.705C215.983 192.705 216.663 192.719 217.339 192.749C219.171 192.828 220.848 191.621 221.212 189.824C221.621 187.806 220.225 185.856 218.168 185.747C217.219 185.697 216.264 185.672 215.302 185.672Z" fill="white"/>
</g>
<path d="M230.558 158.155C230.558 158.155 228.746 149.051 225.111 145.087C221.476 141.124 213.127 139.148 213.127 139.148C213.127 139.148 221.476 137.172 225.111 133.208C228.746 129.244 230.558 120.141 230.558 120.141C230.558 120.141 232.37 129.244 236.005 133.208C239.64 137.172 247.988 139.148 247.988 139.148C247.988 139.148 239.64 141.124 236.005 145.087C232.37 149.051 230.558 158.155 230.558 158.155Z" fill="#7601D3" fill-opacity="0.12"/>
<path d="M600.934 289.015C600.934 271.216 586.505 256.787 568.706 256.788C556.361 256.788 545.637 263.729 540.224 273.921L523.935 273.921L536.577 286.47C536.511 287.31 536.478 288.159 536.478 289.015C536.478 306.814 550.907 321.243 568.706 321.243C586.505 321.243 600.934 306.814 600.934 289.015Z" fill="#FCE2B7"/>
<path fill-rule="evenodd" clip-rule="evenodd" d="M581.528 303.131C575.78 303.131 571.12 298.471 571.12 292.723C571.12 292.347 571.14 291.976 571.179 291.611L560.34 287.196L556.943 294.686L552.211 292.723L555.388 285.18L553.199 284.288L549.345 293.42L544.747 291.611L548.588 282.41L545.346 281.09L547.412 275.892L573.245 286.421C575.146 283.926 578.149 282.315 581.528 282.315C587.276 282.315 591.936 286.975 591.936 292.723C591.936 298.471 587.276 303.131 581.528 303.131ZM576.404 292.723C576.404 289.893 578.698 287.599 581.528 287.599C584.358 287.599 586.652 289.893 586.652 292.723C586.652 295.552 584.358 297.847 581.528 297.847C578.698 297.847 576.404 295.552 576.404 292.723Z" fill="#F7BE2D"/>
<rect x="500.746" y="159.958" width="88" height="88" rx="44" fill="#4DC96E"/>
<path d="M522.531 181.501C524.05 180.146 526.398 180.258 527.776 181.75L532.25 186.593C533.628 188.085 533.515 190.393 531.997 191.748L521.054 201.512C519.535 202.866 517.187 202.755 515.809 201.263L511.335 196.42C509.957 194.927 510.07 192.62 511.588 191.265L522.531 181.501Z" fill="white"/>
<path d="M514.821 190.99C515.627 190.271 516.873 190.33 517.605 191.122C518.336 191.914 518.276 193.138 517.47 193.857L515.787 195.36C514.981 196.078 513.735 196.019 513.003 195.227C512.272 194.435 512.332 193.211 513.138 192.492L514.821 190.99Z" fill="white"/>
<path d="M578.157 194.353C579.536 195.845 579.422 198.153 577.904 199.508L572.976 203.904C571.458 205.259 569.11 205.148 567.731 203.656L557.797 192.901C556.418 191.408 556.532 189.101 558.05 187.746L562.978 183.349C564.496 181.994 566.844 182.106 568.222 183.598L578.157 194.353Z" fill="white"/>
<path d="M576.346 195.375C577.077 196.167 577.017 197.392 576.211 198.111C575.405 198.83 574.159 198.771 573.427 197.979L571.899 196.324C571.167 195.532 571.227 194.307 572.033 193.588C572.839 192.869 574.085 192.928 574.817 193.72L576.346 195.375Z" fill="white"/>
<path d="M538.02 196.087L535.398 193.248C534.938 192.751 534.156 192.714 533.65 193.165L522.746 202.894C522.24 203.346 522.202 204.115 522.661 204.612L525.283 207.451C525.626 207.782 526.266 208.849 526.09 210.465C525.869 212.485 528.171 214.475 530.508 217.005L539.047 226.249C540.219 227.517 541.898 227.751 543.07 226.706C544.242 225.66 544.556 224.392 543.008 222.716C544.505 224.337 546.309 226.289 548.473 224.358C550.475 222.572 549.685 221.717 549.117 221.102C550.475 222.572 551.81 223.258 553.434 221.809C554.733 220.65 554.495 219.611 554.214 219.236C554.848 219.922 556.602 220.859 558.551 219.121C560.409 217.463 559.132 216.074 558.511 215.402C558.06 214.914 553.299 209.879 550.334 206.745C549.797 206.177 549.06 205.833 548.274 205.781L544.754 205.551C543.916 205.496 543.091 205.778 542.469 206.333L539.947 208.583C538.364 209.996 535.189 209.625 533.438 207.73C531.585 205.723 532.57 202.697 533.398 201.844C533.509 201.73 533.64 201.637 533.759 201.531L537.936 197.805C538.442 197.353 538.479 196.584 538.02 196.087Z" fill="white"/>
<path d="M565.841 205.096L556.168 194.625C555.709 194.128 554.926 194.09 554.42 194.542L552.171 196.549C552.135 196.581 552.102 196.615 552.071 196.651C551.711 197.061 550.82 197.776 549.766 197.745C548.664 197.713 544.174 197.702 542.066 197.7C541.706 197.708 540.771 197.915 539.91 198.683L534.873 203.178C534.059 203.904 534.144 205.239 535.002 206.168C535.859 207.096 537.368 207.537 538.208 206.788L542.449 203.004C542.655 202.82 542.931 202.736 543.208 202.764C544.66 202.908 548.724 203.206 551.076 203.372C551.314 203.388 551.535 203.494 551.695 203.668L560.123 212.791C560.583 213.289 561.413 213.143 561.662 212.517C561.932 211.838 562.195 211.154 562.287 210.857C562.437 210.365 563.056 209.428 563.396 208.95C563.434 208.896 563.478 208.847 563.528 208.803L565.756 206.814C566.262 206.363 566.3 205.593 565.841 205.096Z" fill="white"/>
<path d="M578.159 194.353C579.537 195.845 579.423 198.153 577.905 199.507L572.977 203.904C571.459 205.259 569.111 205.147 567.733 203.655L557.798 192.9C556.42 191.408 556.533 189.1 558.051 187.746L562.979 183.349C564.497 181.994 566.845 182.106 568.224 183.598L578.159 194.353Z" fill="black"/>
<path d="M576.347 195.375C577.079 196.167 577.019 197.392 576.213 198.111C575.407 198.83 574.16 198.771 573.429 197.979L571.9 196.324C571.168 195.532 571.228 194.307 572.034 193.588C572.84 192.869 574.087 192.928 574.818 193.72L576.347 195.375Z" fill="white"/>
<path d="M562.979 183.349L558.051 187.746C556.533 189.1 556.42 191.408 557.798 192.9L562.765 198.278L573.191 188.975L568.224 183.598C566.845 182.106 564.497 181.994 562.979 183.349Z" fill="black"/>
<path d="M562.979 183.349L558.051 187.746C556.533 189.1 556.42 191.408 557.798 192.9L562.765 198.278L573.191 188.975L568.224 183.598C566.845 182.106 564.497 181.994 562.979 183.349Z" fill="white" fill-opacity="0.2"/>
<path d="M576.346 195.374C577.077 196.166 577.017 197.391 576.211 198.11C575.405 198.829 574.159 198.77 573.427 197.978L571.898 196.323C571.167 195.531 571.227 194.306 572.033 193.587C572.839 192.868 574.085 192.927 574.817 193.719L576.346 195.374Z" fill="#F2C31E"/>
<path d="M522.531 181.501C524.05 180.146 526.398 180.258 527.776 181.75L532.25 186.593C533.628 188.085 533.515 190.393 531.997 191.748L521.054 201.512C519.535 202.866 517.187 202.755 515.809 201.263L511.335 196.42C509.957 194.927 510.07 192.62 511.588 191.265L522.531 181.501Z" fill="#FBD849"/>
<path d="M511.335 196.419L515.809 201.263C517.187 202.755 519.535 202.866 521.054 201.511L526.525 196.63L517.06 186.383L511.588 191.265C510.07 192.619 509.957 194.927 511.335 196.419Z" fill="#F2C31E"/>
<path d="M514.822 190.989C515.628 190.27 516.874 190.329 517.605 191.121C518.337 191.913 518.277 193.138 517.471 193.857L515.787 195.359C514.982 196.078 513.735 196.019 513.004 195.227C512.272 194.435 512.332 193.21 513.138 192.491L514.822 190.989Z" fill="white"/>
<defs>
<filter id="filter0_d_7461_45569" x="231.961" y="112.53" width="288.57" height="202.021" filterUnits="userSpaceOnUse" color-interpolation-filters="sRGB">
<feFlood flood-opacity="0" result="BackgroundImageFix"/>
<feColorMatrix in="SourceAlpha" type="matrix" values="0 0 0 0 0 0 0 0 0 0 0 0 0 0 0 0 0 0 127 0" result="hardAlpha"/>
<feOffset dy="2"/>
<feGaussianBlur stdDeviation="4"/>
<feComposite in2="hardAlpha" operator="out"/>
<feColorMatrix type="matrix" values="0 0 0 0 0 0 0 0 0 0 0 0 0 0 0 0 0 0 0.04 0"/>
<feBlend mode="normal" in2="BackgroundImageFix" result="effect1_dropShadow_7461_45569"/>
<feBlend mode="normal" in="SourceGraphic" in2="effect1_dropShadow_7461_45569" result="shape"/>
</filter>
<filter id="filter1_d_7461_45569" x="230.961" y="86.4873" width="180.707" height="54.0234" filterUnits="userSpaceOnUse" color-interpolation-filters="sRGB">
<feFlood flood-opacity="0" result="BackgroundImageFix"/>
<feColorMatrix in="SourceAlpha" type="matrix" values="0 0 0 0 0 0 0 0 0 0 0 0 0 0 0 0 0 0 127 0" result="hardAlpha"/>
<feMorphology radius="2" operator="dilate" in="SourceAlpha" result="effect1_dropShadow_7461_45569"/>
<feOffset dy="1"/>
<feGaussianBlur stdDeviation="3.5"/>
<feComposite in2="hardAlpha" operator="out"/>
<feColorMatrix type="matrix" values="0 0 0 0 0 0 0 0 0 0 0 0 0 0 0 0 0 0 0.1 0"/>
<feBlend mode="normal" in2="BackgroundImageFix" result="effect1_dropShadow_7461_45569"/>
<feBlend mode="normal" in="SourceGraphic" in2="effect1_dropShadow_7461_45569" result="shape"/>
</filter>
<filter id="filter2_d_7461_45569" x="105.719" y="160.565" width="188.816" height="189.766" filterUnits="userSpaceOnUse" color-interpolation-filters="sRGB">
<feFlood flood-opacity="0" result="BackgroundImageFix"/>
<feColorMatrix in="SourceAlpha" type="matrix" values="0 0 0 0 0 0 0 0 0 0 0 0 0 0 0 0 0 0 127 0" result="hardAlpha"/>
<feOffset dy="4"/>
<feGaussianBlur stdDeviation="4"/>
<feComposite in2="hardAlpha" operator="out"/>
<feColorMatrix type="matrix" values="0 0 0 0 0 0 0 0 0 0 0 0 0 0 0 0 0 0 0.16 0"/>
<feBlend mode="normal" in2="BackgroundImageFix" result="effect1_dropShadow_7461_45569"/>
<feBlend mode="normal" in="SourceGraphic" in2="effect1_dropShadow_7461_45569" result="shape"/>
</filter>
</defs>
</svg>
