<svg width="240" height="80" viewBox="0 0 240 80" fill="none" xmlns="http://www.w3.org/2000/svg">
<rect width="240" height="80" rx="16" fill="white"/>
<mask id="mask0_8419_21106" style="mask-type:alpha" maskUnits="userSpaceOnUse" x="20" y="20" width="40" height="40">
<rect x="20" y="20" width="40" height="40" fill="#D9D9D9"/>
</mask>
<g mask="url(#mask0_8419_21106)">
<path d="M29.7065 54.9928L32.4149 43.2845L23.3315 35.4095L35.3315 34.3678L39.9982 23.3262L44.6649 34.3678L56.6649 35.4095L47.5815 43.2845L50.2899 54.9928L39.9982 48.7845L29.7065 54.9928Z" fill="#FACE1C"/>
</g>
<mask id="mask1_8419_21106" style="mask-type:alpha" maskUnits="userSpaceOnUse" x="60" y="20" width="40" height="40">
<rect x="60" y="20" width="40" height="40" fill="#D9D9D9"/>
</mask>
<g mask="url(#mask1_8419_21106)">
<path d="M69.7065 54.9928L72.4149 43.2845L63.3315 35.4095L75.3315 34.3678L79.9982 23.3262L84.6649 34.3678L96.6649 35.4095L87.5815 43.2845L90.2899 54.9928L79.9982 48.7845L69.7065 54.9928Z" fill="#FACE1C"/>
</g>
<mask id="mask2_8419_21106" style="mask-type:alpha" maskUnits="userSpaceOnUse" x="100" y="20" width="40" height="40">
<rect x="100" y="20" width="40" height="40" fill="#D9D9D9"/>
</mask>
<g mask="url(#mask2_8419_21106)">
<path d="M109.707 54.9928L112.415 43.2845L103.332 35.4095L115.332 34.3678L119.998 23.3262L124.665 34.3678L136.665 35.4095L127.582 43.2845L130.29 54.9928L119.998 48.7845L109.707 54.9928Z" fill="#FACE1C"/>
</g>
<mask id="mask3_8419_21106" style="mask-type:alpha" maskUnits="userSpaceOnUse" x="140" y="20" width="40" height="40">
<rect x="140" y="20" width="40" height="40" fill="#D9D9D9"/>
</mask>
<g mask="url(#mask3_8419_21106)">
<path d="M149.707 54.9928L152.415 43.2845L143.332 35.4095L155.332 34.3678L159.998 23.3262L164.665 34.3678L176.665 35.4095L167.582 43.2845L170.29 54.9928L159.998 48.7845L149.707 54.9928Z" fill="#FACE1C"/>
</g>
<mask id="mask4_8419_21106" style="mask-type:alpha" maskUnits="userSpaceOnUse" x="180" y="20" width="40" height="40">
<rect x="180" y="20" width="40" height="40" fill="#D9D9D9"/>
</mask>
<g mask="url(#mask4_8419_21106)">
<path d="M189.707 54.9928L192.415 43.2845L183.332 35.4095L195.332 34.3678L199.998 23.3262L204.665 34.3678L216.665 35.4095L207.582 43.2845L210.29 54.9928L199.998 48.7845L189.707 54.9928Z" fill="#FACE1C"/>
</g>
</svg>
