<svg width="240" height="80" viewBox="0 0 240 80" fill="none" xmlns="http://www.w3.org/2000/svg">
<rect width="119" height="24" transform="translate(0 2)" fill="#F6F5F4"/>
<path d="M16.6016 12.2578V14.0859H10.6641V12.2578H16.6016ZM11.3594 7.625V19H9.01562V7.625H11.3594ZM18.2734 7.625V19H15.9375V7.625H18.2734ZM24.0625 19.1562C23.4062 19.1562 22.8177 19.0521 22.2969 18.8438C21.776 18.6302 21.3333 18.3359 20.9688 17.9609C20.6094 17.5859 20.3333 17.151 20.1406 16.6562C19.9479 16.1562 19.8516 15.625 19.8516 15.0625V14.75C19.8516 14.1094 19.9427 13.5234 20.125 12.9922C20.3073 12.4609 20.5677 12 20.9062 11.6094C21.25 11.2188 21.6667 10.9193 22.1562 10.7109C22.6458 10.4974 23.1979 10.3906 23.8125 10.3906C24.4115 10.3906 24.9427 10.4896 25.4062 10.6875C25.8698 10.8854 26.2578 11.1667 26.5703 11.5312C26.888 11.8958 27.1276 12.3333 27.2891 12.8438C27.4505 13.349 27.5312 13.9115 27.5312 14.5312V15.4688H20.8125V13.9688H25.3203V13.7969C25.3203 13.4844 25.263 13.2057 25.1484 12.9609C25.0391 12.7109 24.8724 12.513 24.6484 12.3672C24.4245 12.2214 24.138 12.1484 23.7891 12.1484C23.4922 12.1484 23.237 12.2135 23.0234 12.3438C22.8099 12.474 22.6354 12.6562 22.5 12.8906C22.3698 13.125 22.2708 13.401 22.2031 13.7188C22.1406 14.0312 22.1094 14.375 22.1094 14.75V15.0625C22.1094 15.401 22.1562 15.7135 22.25 16C22.349 16.2865 22.487 16.5339 22.6641 16.7422C22.8464 16.9505 23.0651 17.112 23.3203 17.2266C23.5807 17.3411 23.875 17.3984 24.2031 17.3984C24.6094 17.3984 24.987 17.3203 25.3359 17.1641C25.6901 17.0026 25.9948 16.7604 26.25 16.4375L27.3438 17.625C27.1667 17.8802 26.9245 18.125 26.6172 18.3594C26.3151 18.5938 25.9505 18.7865 25.5234 18.9375C25.0964 19.0833 24.6094 19.1562 24.0625 19.1562ZM31.1875 7V19H28.9297V7H31.1875ZM35.4219 7V19H33.1641V7H35.4219ZM36.9219 14.8594V14.6953C36.9219 14.0755 37.0104 13.5052 37.1875 12.9844C37.3646 12.4583 37.6224 12.0026 37.9609 11.6172C38.2995 11.2318 38.7161 10.9323 39.2109 10.7188C39.7057 10.5 40.2734 10.3906 40.9141 10.3906C41.5547 10.3906 42.125 10.5 42.625 10.7188C43.125 10.9323 43.5443 11.2318 43.8828 11.6172C44.2266 12.0026 44.487 12.4583 44.6641 12.9844C44.8411 13.5052 44.9297 14.0755 44.9297 14.6953V14.8594C44.9297 15.474 44.8411 16.0443 44.6641 16.5703C44.487 17.0911 44.2266 17.5469 43.8828 17.9375C43.5443 18.3229 43.1276 18.6224 42.6328 18.8359C42.138 19.0495 41.5703 19.1562 40.9297 19.1562C40.2891 19.1562 39.7188 19.0495 39.2188 18.8359C38.724 18.6224 38.3047 18.3229 37.9609 17.9375C37.6224 17.5469 37.3646 17.0911 37.1875 16.5703C37.0104 16.0443 36.9219 15.474 36.9219 14.8594ZM39.1719 14.6953V14.8594C39.1719 15.2135 39.2031 15.5443 39.2656 15.8516C39.3281 16.1589 39.4271 16.4297 39.5625 16.6641C39.7031 16.8932 39.8854 17.0729 40.1094 17.2031C40.3333 17.3333 40.6068 17.3984 40.9297 17.3984C41.2422 17.3984 41.5104 17.3333 41.7344 17.2031C41.9583 17.0729 42.138 16.8932 42.2734 16.6641C42.4089 16.4297 42.5078 16.1589 42.5703 15.8516C42.638 15.5443 42.6719 15.2135 42.6719 14.8594V14.6953C42.6719 14.3516 42.638 14.0286 42.5703 13.7266C42.5078 13.4193 42.4062 13.1484 42.2656 12.9141C42.1302 12.6745 41.9505 12.487 41.7266 12.3516C41.5026 12.2161 41.2318 12.1484 40.9141 12.1484C40.5964 12.1484 40.3255 12.2161 40.1016 12.3516C39.8828 12.487 39.7031 12.6745 39.5625 12.9141C39.4271 13.1484 39.3281 13.4193 39.2656 13.7266C39.2031 14.0286 39.1719 14.3516 39.1719 14.6953Z" fill="black"/>
<rect width="119" height="24" transform="translate(0 28)" fill="#FCE9E8"/>
<path d="M15.216 31.464L17.104 31.896C16.432 34.424 15.296 36.936 14.016 38.52C13.68 38.184 12.912 37.56 12.48 37.272C13.696 35.896 14.672 33.688 15.216 31.464ZM14.768 38.584L16.624 38.968C16.176 41 15.344 43.048 14.448 44.344C14.08 44.04 13.264 43.544 12.816 43.304C13.712 42.184 14.4 40.36 14.768 38.584ZM15.568 34.28H22.128V36.056H14.848L15.568 34.28ZM17.408 35.064H19.312V44.296C19.312 45.224 19.152 45.752 18.576 46.072C18.016 46.376 17.232 46.456 16.208 46.456C16.112 45.896 15.824 45.048 15.552 44.52C16.224 44.552 16.896 44.536 17.12 44.536C17.328 44.536 17.408 44.488 17.408 44.28V35.064ZM19.872 39L21.6 38.424C22.432 40.072 23.12 42.2 23.344 43.656L21.504 44.296C21.328 42.856 20.656 40.648 19.872 39ZM21.616 34.28H21.872L22.176 34.232L23.52 34.472C23.328 35.784 23.04 37.272 22.832 38.232L21.184 37.944C21.328 37.08 21.504 35.656 21.616 34.536V34.28ZM11.792 31.48L13.6 32.04C12.56 34.776 10.896 37.656 9.152 39.48C8.976 39.016 8.464 37.96 8.128 37.496C9.584 36.04 10.976 33.768 11.792 31.48ZM10.24 35.896L12.064 34.072L12.08 34.088V46.424H10.24V35.896ZM31.232 32.216H37.728V33.992H31.232V32.216ZM30.688 37.784H39.52V39.592H30.688V37.784ZM34.064 35.912H36V44.312C36 45.272 35.808 45.784 35.184 46.088C34.544 46.376 33.664 46.44 32.48 46.424C32.384 45.896 32.064 45.064 31.808 44.552C32.624 44.584 33.456 44.6 33.728 44.584C33.984 44.568 34.064 44.504 34.064 44.28V35.912ZM37.04 32.216H37.504L37.904 32.12L39.152 33.064C38.208 34.456 36.848 36.152 35.6 37.208C35.344 36.872 34.816 36.344 34.512 36.088C35.456 35.176 36.56 33.592 37.04 32.632V32.216ZM24.592 34.6H29.76V36.376H24.592V34.6ZM26.736 31.416L28.544 31.608C27.936 35.016 27.008 39.304 26.256 42.184L24.688 41.352C25.376 38.824 26.24 34.6 26.736 31.416ZM25.52 41.08L26.576 39.736C28.24 40.776 30.352 42.328 31.28 43.528L30.128 45.08C29.232 43.864 27.2 42.184 25.52 41.08ZM29.104 34.6H29.408L29.744 34.552L30.88 34.744C30.512 40.984 28.96 44.52 25.792 46.488C25.536 46.024 25.024 45.336 24.64 44.968C27.36 43.544 28.784 40.008 29.104 34.952V34.6Z" fill="#EA5044"/>
<rect width="119" height="24" transform="translate(0 54)" fill="#F4EBFF"/>
<path d="M13.4688 66.0078H10.5469L10.5312 64.3984H12.9844C13.4167 64.3984 13.7708 64.3438 14.0469 64.2344C14.3229 64.1198 14.5286 63.9557 14.6641 63.7422C14.8047 63.5234 14.875 63.2578 14.875 62.9453C14.875 62.5911 14.8073 62.3047 14.6719 62.0859C14.5417 61.8672 14.3359 61.7083 14.0547 61.6094C13.7786 61.5104 13.4219 61.4609 12.9844 61.4609H11.3594V71H9.01562V59.625H12.9844C13.6458 59.625 14.237 59.6875 14.7578 59.8125C15.2839 59.9375 15.7292 60.1276 16.0938 60.3828C16.4583 60.638 16.737 60.9609 16.9297 61.3516C17.1224 61.737 17.2188 62.1953 17.2188 62.7266C17.2188 63.1953 17.112 63.6276 16.8984 64.0234C16.6901 64.4193 16.3594 64.7422 15.9062 64.9922C15.4583 65.2422 14.8724 65.3802 14.1484 65.4062L13.4688 66.0078ZM13.3672 71H9.90625L10.8203 69.1719H13.3672C13.7786 69.1719 14.1146 69.1068 14.375 68.9766C14.6354 68.8411 14.8281 68.6589 14.9531 68.4297C15.0781 68.2005 15.1406 67.9375 15.1406 67.6406C15.1406 67.3073 15.0833 67.0182 14.9688 66.7734C14.8594 66.5286 14.6823 66.3411 14.4375 66.2109C14.1927 66.0755 13.8698 66.0078 13.4688 66.0078H11.2109L11.2266 64.3984H14.0391L14.5781 65.0312C15.2708 65.0208 15.8281 65.1432 16.25 65.3984C16.6771 65.6484 16.987 65.974 17.1797 66.375C17.3776 66.776 17.4766 67.2057 17.4766 67.6641C17.4766 68.3932 17.3177 69.0078 17 69.5078C16.6823 70.0026 16.2161 70.375 15.6016 70.625C14.9922 70.875 14.2474 71 13.3672 71ZM18.7344 66.8594V66.6953C18.7344 66.0755 18.8229 65.5052 19 64.9844C19.1771 64.4583 19.4349 64.0026 19.7734 63.6172C20.112 63.2318 20.5286 62.9323 21.0234 62.7188C21.5182 62.5 22.0859 62.3906 22.7266 62.3906C23.3672 62.3906 23.9375 62.5 24.4375 62.7188C24.9375 62.9323 25.3568 63.2318 25.6953 63.6172C26.0391 64.0026 26.2995 64.4583 26.4766 64.9844C26.6536 65.5052 26.7422 66.0755 26.7422 66.6953V66.8594C26.7422 67.474 26.6536 68.0443 26.4766 68.5703C26.2995 69.0911 26.0391 69.5469 25.6953 69.9375C25.3568 70.3229 24.9401 70.6224 24.4453 70.8359C23.9505 71.0495 23.3828 71.1562 22.7422 71.1562C22.1016 71.1562 21.5312 71.0495 21.0312 70.8359C20.5365 70.6224 20.1172 70.3229 19.7734 69.9375C19.4349 69.5469 19.1771 69.0911 19 68.5703C18.8229 68.0443 18.7344 67.474 18.7344 66.8594ZM20.9844 66.6953V66.8594C20.9844 67.2135 21.0156 67.5443 21.0781 67.8516C21.1406 68.1589 21.2396 68.4297 21.375 68.6641C21.5156 68.8932 21.6979 69.0729 21.9219 69.2031C22.1458 69.3333 22.4193 69.3984 22.7422 69.3984C23.0547 69.3984 23.3229 69.3333 23.5469 69.2031C23.7708 69.0729 23.9505 68.8932 24.0859 68.6641C24.2214 68.4297 24.3203 68.1589 24.3828 67.8516C24.4505 67.5443 24.4844 67.2135 24.4844 66.8594V66.6953C24.4844 66.3516 24.4505 66.0286 24.3828 65.7266C24.3203 65.4193 24.2188 65.1484 24.0781 64.9141C23.9427 64.6745 23.763 64.487 23.5391 64.3516C23.3151 64.2161 23.0443 64.1484 22.7266 64.1484C22.4089 64.1484 22.138 64.2161 21.9141 64.3516C21.6953 64.487 21.5156 64.6745 21.375 64.9141C21.2396 65.1484 21.1406 65.4193 21.0781 65.7266C21.0156 66.0286 20.9844 66.3516 20.9844 66.6953ZM30.3281 64.3516V71H28.0781V62.5469H30.1875L30.3281 64.3516ZM30 66.4766H29.3906C29.3906 65.8516 29.4714 65.2891 29.6328 64.7891C29.7943 64.2839 30.0208 63.8542 30.3125 63.5C30.6042 63.1406 30.9505 62.8672 31.3516 62.6797C31.7578 62.487 32.2109 62.3906 32.7109 62.3906C33.1068 62.3906 33.4688 62.4479 33.7969 62.5625C34.125 62.6771 34.4062 62.8594 34.6406 63.1094C34.8802 63.3594 35.0625 63.6901 35.1875 64.1016C35.3177 64.513 35.3828 65.0156 35.3828 65.6094V71H33.1172V65.6016C33.1172 65.2266 33.0651 64.9349 32.9609 64.7266C32.8568 64.5182 32.7031 64.3724 32.5 64.2891C32.3021 64.2005 32.0573 64.1562 31.7656 64.1562C31.4635 64.1562 31.2005 64.2161 30.9766 64.3359C30.7578 64.4557 30.5755 64.6224 30.4297 64.8359C30.2891 65.0443 30.1823 65.2891 30.1094 65.5703C30.0365 65.8516 30 66.1536 30 66.4766ZM37.2188 62.5469H39.4766V71.5078C39.4766 72.1328 39.362 72.6615 39.1328 73.0938C38.9036 73.526 38.5729 73.8542 38.1406 74.0781C37.7083 74.3021 37.1849 74.4141 36.5703 74.4141C36.3776 74.4141 36.1901 74.4036 36.0078 74.3828C35.8203 74.362 35.6276 74.3281 35.4297 74.2812L35.4375 72.5547C35.5625 72.5755 35.6849 72.5911 35.8047 72.6016C35.9193 72.6172 36.0365 72.625 36.1562 72.625C36.3906 72.625 36.5859 72.5859 36.7422 72.5078C36.8984 72.4297 37.0156 72.3073 37.0938 72.1406C37.1771 71.9792 37.2188 71.7682 37.2188 71.5078V62.5469ZM37.0391 60.3438C37.0391 60.0156 37.1536 59.7448 37.3828 59.5312C37.6172 59.3177 37.9245 59.2109 38.3047 59.2109C38.6901 59.2109 38.9974 59.3177 39.2266 59.5312C39.4557 59.7448 39.5703 60.0156 39.5703 60.3438C39.5703 60.6719 39.4557 60.9427 39.2266 61.1562C38.9974 61.3698 38.6901 61.4766 38.3047 61.4766C37.9245 61.4766 37.6172 61.3698 37.3828 61.1562C37.1536 60.9427 37.0391 60.6719 37.0391 60.3438ZM40.9062 66.8594V66.6953C40.9062 66.0755 40.9948 65.5052 41.1719 64.9844C41.349 64.4583 41.6068 64.0026 41.9453 63.6172C42.2839 63.2318 42.7005 62.9323 43.1953 62.7188C43.6901 62.5 44.2578 62.3906 44.8984 62.3906C45.5391 62.3906 46.1094 62.5 46.6094 62.7188C47.1094 62.9323 47.5286 63.2318 47.8672 63.6172C48.2109 64.0026 48.4714 64.4583 48.6484 64.9844C48.8255 65.5052 48.9141 66.0755 48.9141 66.6953V66.8594C48.9141 67.474 48.8255 68.0443 48.6484 68.5703C48.4714 69.0911 48.2109 69.5469 47.8672 69.9375C47.5286 70.3229 47.112 70.6224 46.6172 70.8359C46.1224 71.0495 45.5547 71.1562 44.9141 71.1562C44.2734 71.1562 43.7031 71.0495 43.2031 70.8359C42.7083 70.6224 42.2891 70.3229 41.9453 69.9375C41.6068 69.5469 41.349 69.0911 41.1719 68.5703C40.9948 68.0443 40.9062 67.474 40.9062 66.8594ZM43.1562 66.6953V66.8594C43.1562 67.2135 43.1875 67.5443 43.25 67.8516C43.3125 68.1589 43.4115 68.4297 43.5469 68.6641C43.6875 68.8932 43.8698 69.0729 44.0938 69.2031C44.3177 69.3333 44.5911 69.3984 44.9141 69.3984C45.2266 69.3984 45.4948 69.3333 45.7188 69.2031C45.9427 69.0729 46.1224 68.8932 46.2578 68.6641C46.3932 68.4297 46.4922 68.1589 46.5547 67.8516C46.6224 67.5443 46.6562 67.2135 46.6562 66.8594V66.6953C46.6562 66.3516 46.6224 66.0286 46.5547 65.7266C46.4922 65.4193 46.3906 65.1484 46.25 64.9141C46.1146 64.6745 45.9349 64.487 45.7109 64.3516C45.487 64.2161 45.2161 64.1484 44.8984 64.1484C44.5807 64.1484 44.3099 64.2161 44.0859 64.3516C43.8672 64.487 43.6875 64.6745 43.5469 64.9141C43.4115 65.1484 43.3125 65.4193 43.25 65.7266C43.1875 66.0286 43.1562 66.3516 43.1562 66.6953ZM55.2969 68.9766V62.5469H57.5469V71H55.4297L55.2969 68.9766ZM55.5469 67.2422L56.2109 67.2266C56.2109 67.7891 56.1458 68.3125 56.0156 68.7969C55.8854 69.276 55.6901 69.6927 55.4297 70.0469C55.1693 70.3958 54.8411 70.6693 54.4453 70.8672C54.0495 71.0599 53.5833 71.1562 53.0469 71.1562C52.6354 71.1562 52.2552 71.099 51.9062 70.9844C51.5625 70.8646 51.2656 70.6797 51.0156 70.4297C50.7708 70.1745 50.5781 69.849 50.4375 69.4531C50.3021 69.0521 50.2344 68.5703 50.2344 68.0078V62.5469H52.4844V68.0234C52.4844 68.2734 52.513 68.4844 52.5703 68.6562C52.6328 68.8281 52.7188 68.9688 52.8281 69.0781C52.9375 69.1875 53.0651 69.2656 53.2109 69.3125C53.362 69.3594 53.5286 69.3828 53.7109 69.3828C54.1745 69.3828 54.5391 69.2891 54.8047 69.1016C55.0755 68.9141 55.2656 68.6589 55.375 68.3359C55.4896 68.0078 55.5469 67.6432 55.5469 67.2422ZM61.5156 64.3906V71H59.2656V62.5469H61.3828L61.5156 64.3906ZM64.0625 62.4922L64.0234 64.5781C63.9141 64.5625 63.7812 64.5495 63.625 64.5391C63.474 64.5234 63.3359 64.5156 63.2109 64.5156C62.8932 64.5156 62.6172 64.5573 62.3828 64.6406C62.1536 64.7188 61.9609 64.8359 61.8047 64.9922C61.6536 65.1484 61.5391 65.3385 61.4609 65.5625C61.388 65.7865 61.3464 66.0417 61.3359 66.3281L60.8828 66.1875C60.8828 65.6406 60.9375 65.138 61.0469 64.6797C61.1562 64.2161 61.3151 63.8125 61.5234 63.4688C61.737 63.125 61.9974 62.8594 62.3047 62.6719C62.612 62.4844 62.9635 62.3906 63.3594 62.3906C63.4844 62.3906 63.612 62.401 63.7422 62.4219C63.8724 62.4375 63.9792 62.4609 64.0625 62.4922Z" fill="#9065B0"/>
<rect width="119" height="24" transform="translate(121 2)" fill="#E4ECF3"/>
<path d="M132.472 7.384C133.656 7.512 135.144 7.576 136.84 7.576C138.408 7.576 140.248 7.48 141.464 7.352V9.48C140.344 9.576 138.376 9.672 136.84 9.672C135.176 9.672 133.784 9.592 132.472 9.496V7.384ZM133.816 14.152C133.672 14.728 133.544 15.24 133.544 15.784C133.544 16.792 134.536 17.544 136.84 17.544C138.984 17.544 141.032 17.304 142.456 16.904L142.472 19.16C141.064 19.48 139.144 19.688 136.904 19.688C133.256 19.688 131.4 18.472 131.4 16.264C131.4 15.352 131.608 14.568 131.72 13.96L133.816 14.152ZM154.232 7.128C154.056 7.336 153.896 7.608 153.72 7.88C152.92 9.016 151.8 11.064 151.016 12.488C151.608 12.136 152.232 11.992 152.84 11.992C154.04 11.992 154.76 12.744 154.824 14.088C154.856 14.792 154.824 16.072 154.904 16.744C154.968 17.368 155.4 17.624 155.928 17.624C157.32 17.624 158.184 15.816 158.632 13.832L160.376 15.24C159.528 17.992 158.056 19.816 155.592 19.816C153.816 19.816 153 18.744 152.92 17.592C152.872 16.728 152.872 15.432 152.824 14.776C152.776 14.216 152.472 13.88 151.896 13.88C150.808 13.88 149.896 15 149.336 16.296C148.904 17.224 148.36 19.016 148.12 19.864L145.864 19.096C147.032 15.896 150.312 9.368 151.176 7.832C151.368 7.416 151.672 6.888 151.96 6.216L154.232 7.128ZM168.152 7.816C170.12 8.088 173.32 8.008 175.032 7.8V9.864C173.08 10.056 170.168 10.056 168.168 9.864L168.152 7.816ZM169.432 14.648C169.304 15.192 169.24 15.576 169.24 15.992C169.24 16.712 169.864 17.144 171.496 17.144C172.92 17.144 174.104 17.016 175.496 16.712L175.544 18.872C174.504 19.08 173.208 19.192 171.4 19.192C168.648 19.192 167.32 18.2 167.32 16.568C167.32 15.928 167.416 15.304 167.608 14.488L169.432 14.648ZM165.688 6.744C165.576 7.08 165.368 7.896 165.304 8.184C165.08 9.24 164.52 12.44 164.52 14.04C164.52 14.36 164.536 14.76 164.584 15.08C164.824 14.536 165.08 13.992 165.32 13.448L166.312 14.232C165.848 15.576 165.32 17.304 165.16 18.152C165.112 18.392 165.064 18.744 165.064 18.904C165.08 19.08 165.08 19.352 165.096 19.576L163.256 19.688C162.936 18.6 162.632 16.648 162.632 14.472C162.632 12.056 163.112 9.368 163.288 8.12C163.352 7.688 163.432 7.08 163.448 6.568L165.688 6.744ZM184.232 6.248C184.072 6.824 183.976 7.368 183.848 7.88C183.592 9.16 183.112 11.512 182.632 13C183.928 12.296 185.176 12.008 186.616 12.008C189.192 12.008 190.92 13.368 190.92 15.432C190.92 19.016 187.448 20.328 182.264 19.768L181.704 17.704C185.224 18.264 188.76 17.848 188.76 15.48C188.76 14.536 187.928 13.72 186.36 13.72C184.52 13.72 182.888 14.392 181.944 15.608C181.768 15.832 181.64 16.024 181.496 16.296L179.608 15.64C180.792 13.304 181.688 9.416 181.896 7.768C181.976 7.096 181.992 6.68 181.96 6.152L184.232 6.248ZM178.648 8.12C179.688 8.296 180.968 8.424 181.96 8.424C184.008 8.424 187.048 8.184 189.672 7.624L189.72 9.544C187.688 9.88 184.296 10.264 181.976 10.264C180.76 10.264 179.608 10.2 178.664 10.104L178.648 8.12ZM199.24 9.176C200.168 9.272 201.08 9.32 202.056 9.32C204.008 9.32 206.008 9.16 207.672 8.808V10.792C205.992 11.048 203.976 11.176 202.056 11.192C201.112 11.192 200.2 11.16 199.256 11.096L199.24 9.176ZM205.336 6.488C205.288 6.792 205.256 7.176 205.24 7.512C205.208 8.04 205.176 9.144 205.176 10.296C205.176 13.24 205.432 15.32 205.432 16.84C205.432 18.52 204.6 19.736 202.296 19.736C200.072 19.736 198.696 18.824 198.696 17.144C198.696 15.512 200.072 14.392 202.264 14.392C205.272 14.392 207.208 15.896 208.456 17.048L207.368 18.728C205.528 17.016 203.912 15.944 202.104 15.944C201.192 15.944 200.568 16.312 200.568 16.92C200.568 17.576 201.208 17.864 202.072 17.864C203.048 17.864 203.384 17.352 203.384 16.408C203.384 15.304 203.176 12.616 203.176 10.312C203.176 9.096 203.16 8.024 203.144 7.544C203.144 7.288 203.096 6.792 203.048 6.488H205.336ZM197.528 6.648C197.4 6.968 197.208 7.8 197.144 8.088C196.904 9.16 196.376 12.68 196.376 14.28C196.376 14.584 196.392 15 196.44 15.32C196.664 14.76 196.936 14.216 197.16 13.672L198.152 14.456C197.704 15.784 197.176 17.4 197 18.28C196.952 18.504 196.904 18.856 196.92 19.016C196.92 19.192 196.92 19.464 196.936 19.688L195.128 19.816C194.808 18.712 194.488 16.872 194.488 14.712C194.488 12.296 194.968 9.272 195.16 8.04C195.224 7.592 195.288 6.968 195.304 6.472L197.528 6.648Z" fill="#0984CF"/>
<rect width="119" height="24" transform="translate(121 28)" fill="#FFF7D6"/>
<path d="M139.176 31.608H141.304V42.376H139.176V31.608ZM140.696 35.848H143.272V37.592H140.696V35.848ZM131.752 44.472H141.832V46.168H131.752V44.472ZM131.752 41.256H133.88V45.224H131.752V41.256ZM133.768 32.552C136.04 32.552 137.8 34.136 137.8 36.328C137.8 38.504 136.04 40.088 133.768 40.088C131.496 40.088 129.736 38.504 129.736 36.328C129.736 34.136 131.496 32.552 133.768 32.552ZM133.768 34.408C132.68 34.408 131.816 35.112 131.816 36.328C131.816 37.528 132.68 38.232 133.768 38.232C134.872 38.232 135.72 37.528 135.72 36.328C135.72 35.112 134.872 34.408 133.768 34.408ZM145.223 32.36H147.335V38.584H145.223V32.36ZM145.223 38.152H146.423C148.983 38.152 150.759 38.088 152.743 37.704L152.983 39.4C150.935 39.8 149.079 39.88 146.423 39.88H145.223V38.152ZM154.631 31.608H156.759V40.488H154.631V31.608ZM151.111 32.92H155.159V34.536H151.111V32.92ZM151.111 35.48H155.159V37.096H151.111V35.48ZM151.735 40.68C154.871 40.68 156.807 41.752 156.807 43.56C156.807 45.384 154.871 46.44 151.735 46.44C148.599 46.44 146.663 45.384 146.663 43.56C146.663 41.752 148.599 40.68 151.735 40.68ZM151.735 42.328C149.815 42.328 148.791 42.728 148.791 43.56C148.791 44.392 149.815 44.792 151.735 44.792C153.671 44.792 154.695 44.392 154.695 43.56C154.695 42.728 153.671 42.328 151.735 42.328ZM168.582 31.608H170.694V46.424H168.582V31.608ZM170.214 37.384H172.838V39.16H170.214V37.384ZM159.014 33.8H167.638V35.496H159.014V33.8ZM163.35 36.328C165.51 36.328 167.11 37.8 167.11 39.864C167.11 41.928 165.51 43.4 163.35 43.4C161.19 43.4 159.59 41.928 159.59 39.864C159.59 37.8 161.19 36.328 163.35 36.328ZM163.35 38.056C162.342 38.056 161.622 38.728 161.622 39.864C161.622 41 162.342 41.672 163.35 41.672C164.358 41.672 165.078 41 165.078 39.864C165.078 38.728 164.358 38.056 163.35 38.056ZM162.278 31.848H164.406V34.44H162.278V31.848ZM179.636 36.584H182.084V38.312H179.636V36.584ZM176.468 32.888H178.1V35.384C178.1 38.744 177.172 42.024 174.804 43.48L173.524 41.88C175.7 40.536 176.468 37.896 176.468 35.384V32.888ZM176.932 32.888H178.532V35.288C178.532 37.704 179.156 40.168 181.172 41.48L180.02 43.144C177.668 41.688 176.932 38.488 176.932 35.288V32.888ZM184.5 31.608H186.532V46.424H184.5V31.608ZM181.492 31.832H183.476V45.752H181.492V31.832ZM191.475 39.128H193.587V43.288H191.475V39.128ZM196.851 39.128H198.979V43.288H196.851V39.128ZM188.531 42.984H201.939V44.712H188.531V42.984ZM195.219 32.328C198.403 32.328 200.755 33.896 200.755 36.312C200.755 38.728 198.403 40.28 195.219 40.28C192.019 40.28 189.683 38.728 189.683 36.312C189.683 33.896 192.019 32.328 195.219 32.328ZM195.219 33.992C193.155 33.992 191.779 34.84 191.779 36.312C191.779 37.768 193.155 38.632 195.219 38.632C197.283 38.632 198.659 37.768 198.659 36.312C198.659 34.84 197.283 33.992 195.219 33.992Z" fill="#F6A200"/>
<rect width="119" height="24" transform="translate(121 54)" fill="#E2F2F1"/>
<path d="M139.281 59.625V71H136.938V61.4609H132.367V71H130.023V59.625H139.281ZM143.438 64.1719V74.25H141.188V62.5469H143.273L143.438 64.1719ZM148.789 66.6797V66.8438C148.789 67.4583 148.716 68.0286 148.57 68.5547C148.43 69.0807 148.221 69.5391 147.945 69.9297C147.669 70.3151 147.326 70.6172 146.914 70.8359C146.508 71.0495 146.039 71.1562 145.508 71.1562C144.992 71.1562 144.544 71.0521 144.164 70.8438C143.784 70.6354 143.464 70.3438 143.203 69.9688C142.948 69.5885 142.742 69.1484 142.586 68.6484C142.43 68.1484 142.31 67.612 142.227 67.0391V66.6094C142.31 65.9948 142.43 65.4323 142.586 64.9219C142.742 64.4062 142.948 63.9609 143.203 63.5859C143.464 63.2057 143.781 62.9115 144.156 62.7031C144.536 62.4948 144.982 62.3906 145.492 62.3906C146.029 62.3906 146.5 62.4922 146.906 62.6953C147.318 62.8984 147.661 63.1901 147.938 63.5703C148.219 63.9505 148.43 64.4036 148.57 64.9297C148.716 65.4557 148.789 66.0391 148.789 66.6797ZM146.531 66.8438V66.6797C146.531 66.3203 146.5 65.9896 146.438 65.6875C146.38 65.3802 146.286 65.112 146.156 64.8828C146.031 64.6536 145.865 64.4766 145.656 64.3516C145.453 64.2214 145.206 64.1562 144.914 64.1562C144.607 64.1562 144.344 64.2057 144.125 64.3047C143.911 64.4036 143.737 64.5469 143.602 64.7344C143.466 64.9219 143.365 65.1458 143.297 65.4062C143.229 65.6667 143.188 65.9609 143.172 66.2891V67.375C143.198 67.7604 143.271 68.1068 143.391 68.4141C143.51 68.7161 143.695 68.9557 143.945 69.1328C144.195 69.3099 144.523 69.3984 144.93 69.3984C145.227 69.3984 145.477 69.3333 145.68 69.2031C145.883 69.0677 146.047 68.8828 146.172 68.6484C146.302 68.4141 146.393 68.1432 146.445 67.8359C146.503 67.5286 146.531 67.1979 146.531 66.8438ZM152.43 67.8594L155.266 62.5469H157.516V71H155.266V65.6797L152.43 71H150.18V62.5469H152.43V67.8594ZM163.461 67.4688H160.812L160.797 65.9922H162.984C163.276 65.9922 163.513 65.9635 163.695 65.9062C163.878 65.8438 164.01 65.7526 164.094 65.6328C164.182 65.5078 164.227 65.3568 164.227 65.1797C164.227 65.0234 164.198 64.8906 164.141 64.7812C164.089 64.6667 164.008 64.5729 163.898 64.5C163.789 64.4271 163.651 64.375 163.484 64.3438C163.323 64.3073 163.133 64.2891 162.914 64.2891H161.648V71H159.398V62.5469H162.914C163.466 62.5469 163.961 62.5964 164.398 62.6953C164.836 62.7891 165.208 62.9323 165.516 63.125C165.828 63.3177 166.065 63.5625 166.227 63.8594C166.393 64.151 166.477 64.4974 166.477 64.8984C166.477 65.1589 166.417 65.4036 166.297 65.6328C166.182 65.862 166.01 66.0651 165.781 66.2422C165.552 66.4193 165.268 66.5651 164.93 66.6797C164.596 66.7891 164.211 66.8568 163.773 66.8828L163.461 67.4688ZM163.461 71H160.258L161.031 69.2578H163.461C163.737 69.2578 163.964 69.224 164.141 69.1562C164.318 69.0885 164.448 68.9896 164.531 68.8594C164.62 68.724 164.664 68.5625 164.664 68.375C164.664 68.1927 164.625 68.0339 164.547 67.8984C164.469 67.763 164.341 67.6589 164.164 67.5859C163.992 67.5078 163.758 67.4688 163.461 67.4688H161.359L161.375 65.9922H163.766L164.312 66.5859C164.906 66.6224 165.396 66.7344 165.781 66.9219C166.167 67.1094 166.451 67.349 166.633 67.6406C166.82 67.9271 166.914 68.2422 166.914 68.5859C166.914 68.987 166.839 69.3385 166.688 69.6406C166.536 69.9427 166.312 70.1953 166.016 70.3984C165.724 70.5964 165.365 70.7474 164.938 70.8516C164.51 70.9505 164.018 71 163.461 71ZM172.188 71.1562C171.531 71.1562 170.943 71.0521 170.422 70.8438C169.901 70.6302 169.458 70.3359 169.094 69.9609C168.734 69.5859 168.458 69.151 168.266 68.6562C168.073 68.1562 167.977 67.625 167.977 67.0625V66.75C167.977 66.1094 168.068 65.5234 168.25 64.9922C168.432 64.4609 168.693 64 169.031 63.6094C169.375 63.2188 169.792 62.9193 170.281 62.7109C170.771 62.4974 171.323 62.3906 171.938 62.3906C172.536 62.3906 173.068 62.4896 173.531 62.6875C173.995 62.8854 174.383 63.1667 174.695 63.5312C175.013 63.8958 175.253 64.3333 175.414 64.8438C175.576 65.349 175.656 65.9115 175.656 66.5312V67.4688H168.938V65.9688H173.445V65.7969C173.445 65.4844 173.388 65.2057 173.273 64.9609C173.164 64.7109 172.997 64.513 172.773 64.3672C172.549 64.2214 172.263 64.1484 171.914 64.1484C171.617 64.1484 171.362 64.2135 171.148 64.3438C170.935 64.474 170.76 64.6562 170.625 64.8906C170.495 65.125 170.396 65.401 170.328 65.7188C170.266 66.0312 170.234 66.375 170.234 66.75V67.0625C170.234 67.401 170.281 67.7135 170.375 68C170.474 68.2865 170.612 68.5339 170.789 68.7422C170.971 68.9505 171.19 69.112 171.445 69.2266C171.706 69.3411 172 69.3984 172.328 69.3984C172.734 69.3984 173.112 69.3203 173.461 69.1641C173.815 69.0026 174.12 68.7604 174.375 68.4375L175.469 69.625C175.292 69.8802 175.049 70.125 174.742 70.3594C174.44 70.5938 174.076 70.7865 173.648 70.9375C173.221 71.0833 172.734 71.1562 172.188 71.1562ZM181.148 62.5469V71H178.891V62.5469H181.148ZM183.867 62.5469V64.2891H176.211V62.5469H183.867Z" fill="#2A9E9A"/>
</svg>
