<svg width="240" height="80" viewBox="0 0 240 80" fill="none" xmlns="http://www.w3.org/2000/svg">
<mask id="path-1-inside-1_8419_21120" fill="white">
<path d="M0 0H240V80H0V0Z"/>
</mask>
<path d="M240 79H0V81H240V79Z" fill="black" fill-opacity="0.16" mask="url(#path-1-inside-1_8419_21120)"/>
<path d="M8 70.5859C8 66.1677 11.5817 62.5859 16 62.5859H30.6667C35.0849 62.5859 38.6667 66.1677 38.6667 70.5859V80H8V70.5859Z" fill="#248FFA"/>
<path d="M46.6667 60.4883C46.6667 56.07 50.2485 52.4883 54.6667 52.4883H69.3334C73.7517 52.4883 77.3334 56.07 77.3334 60.4883V79.999H46.6667V60.4883Z" fill="#248FFA"/>
<path d="M85.3333 32.3906C85.3333 27.9723 88.915 24.3906 93.3333 24.3906H108C112.418 24.3906 116 27.9723 116 32.3906V79.999H85.3333V32.3906Z" fill="#248FFA"/>
<path d="M124 70.5859C124 66.1677 127.582 62.5859 132 62.5859H146.667C151.085 62.5859 154.667 66.1677 154.667 70.5859V80H124V70.5859Z" fill="#248FFA"/>
<path d="M162.667 32.3906C162.667 27.9723 166.248 24.3906 170.667 24.3906H185.333C189.752 24.3906 193.333 27.9723 193.333 32.3906V79.999H162.667V32.3906Z" fill="#248FFA"/>
<path d="M201.333 8C201.333 3.58172 204.915 0 209.333 0H224C228.418 0 232 3.58172 232 8V80H201.333V8Z" fill="#248FFA"/>
</svg>
