<svg width="240" height="80" viewBox="0 0 240 80" fill="none" xmlns="http://www.w3.org/2000/svg">
<mask id="path-1-inside-1_8425_54855" fill="white">
<path d="M0 0H240V80H0V0Z"/>
</mask>
<path d="M240 79H0V81H240V79Z" fill="black" fill-opacity="0.08" mask="url(#path-1-inside-1_8425_54855)"/>
<path d="M8 15.5195C8 11.1013 11.5817 7.51953 16 7.51953H25.1429C29.5611 7.51953 33.1429 11.1013 33.1429 15.5195V80H8V15.5195Z" fill="black" fill-opacity="0.08"/>
<path d="M41.1426 27.8203C41.1426 23.402 44.7243 19.8203 49.1426 19.8203H58.2854C62.7037 19.8203 66.2854 23.402 66.2854 27.8203V80.001H41.1426V27.8203Z" fill="black" fill-opacity="0.08"/>
<path d="M74.2856 32.3906C74.2856 27.9723 77.8674 24.3906 82.2856 24.3906H91.4285C95.8468 24.3906 99.4285 27.9723 99.4285 32.3906V79.999H74.2856V32.3906Z" fill="black" fill-opacity="0.08"/>
<path d="M107.429 20.3203C107.429 15.902 111.01 12.3203 115.429 12.3203H124.572C128.99 12.3203 132.572 15.902 132.572 20.3203V80.001H107.429V20.3203Z" fill="black" fill-opacity="0.08"/>
<path d="M140.571 32.3906C140.571 27.9723 144.153 24.3906 148.571 24.3906H157.714C162.132 24.3906 165.714 27.9723 165.714 32.3906V79.999H140.571V32.3906Z" fill="black" fill-opacity="0.08"/>
<path d="M173.714 39.8184C173.714 35.4001 177.296 31.8184 181.714 31.8184H190.857C195.275 31.8184 198.857 35.4001 198.857 39.8184V80H173.714V39.8184Z" fill="black" fill-opacity="0.08"/>
<path d="M206.857 8C206.857 3.58172 210.439 0 214.857 0H224C228.418 0 232 3.58172 232 8V80H206.857V8Z" fill="black" fill-opacity="0.08"/>
<mask id="path-10-inside-2_8425_54855" fill="white">
<path d="M0 54.3164H240V80H0V54.3164Z"/>
</mask>
<path d="M240 79H0V81H240V79Z" fill="black" fill-opacity="0.08" mask="url(#path-10-inside-2_8425_54855)"/>
<path d="M8 65.0156C8 60.5973 11.5817 57.0156 16 57.0156H25.1429C29.5611 57.0156 33.1429 60.5973 33.1429 65.0156V79.9993H8V65.0156Z" fill="#9065B0"/>
<path d="M41.1426 72.8164C41.1426 68.3981 44.7243 64.8164 49.1426 64.8164H58.2854C62.7037 64.8164 66.2854 68.3981 66.2854 72.8164V80H41.1426V72.8164Z" fill="#9065B0"/>
<path d="M74.2856 72.8164C74.2856 68.3981 77.8674 64.8164 82.2856 64.8164H91.4285C95.8468 64.8164 99.4285 68.3981 99.4285 72.8164V79.9997H74.2856V72.8164Z" fill="#9065B0"/>
<path d="M107.429 65.0156C107.429 60.5973 111.01 57.0156 115.429 57.0156H124.572C128.99 57.0156 132.572 60.5973 132.572 65.0156V79.9993H107.429V65.0156Z" fill="#9065B0"/>
<path d="M140.571 69.0645C140.571 64.6462 144.153 61.0645 148.571 61.0645H157.714C162.132 61.0645 165.714 64.6462 165.714 69.0645V80.0006H140.571V69.0645Z" fill="#9065B0"/>
<path d="M173.714 75.2148C173.714 70.7966 177.296 67.2148 181.714 67.2148H190.857C195.275 67.2148 198.857 70.7966 198.857 75.2148V79.999H173.714V75.2148Z" fill="#9065B0"/>
<path d="M206.857 62.3164C206.857 57.8981 210.439 54.3164 214.857 54.3164H224C228.418 54.3164 232 57.8981 232 62.3164V80H206.857V62.3164Z" fill="#9065B0"/>
</svg>
