<svg width="240" height="80" viewBox="0 0 240 80" fill="none" xmlns="http://www.w3.org/2000/svg">
<mask id="path-1-inside-1_8425_54808" fill="white">
<path d="M0 0H240V80H0V0Z"/>
</mask>
<path d="M240 79H0V81H240V79Z" fill="black" fill-opacity="0.16" mask="url(#path-1-inside-1_8425_54808)"/>
<path d="M8 68.8633C8 64.445 11.5817 60.8633 16 60.8633H69.3333C73.7516 60.8633 77.3333 64.445 77.3333 68.8633V80.001H8V68.8633Z" fill="#C6DEF1"/>
<path d="M85.3333 42.0312C85.3333 37.613 88.915 34.0312 93.3333 34.0312H146.667C151.085 34.0312 154.667 37.613 154.667 42.0313V80.001H85.3333V42.0312Z" fill="#FACE1C"/>
<path d="M162.667 76.4883C162.667 72.07 166.248 68.4883 170.667 68.4883H224C228.418 68.4883 232 72.07 232 76.4883V79.999H162.667V76.4883Z" fill="#E4B87A"/>
<rect x="101" y="38" width="37" height="37" rx="18.5" fill="white"/>
<mask id="mask0_8425_54808" style="mask-type:alpha" maskUnits="userSpaceOnUse" x="105" y="42" width="29" height="29">
<rect x="105" y="42" width="29" height="29" fill="#D9D9D9"/>
</mask>
<g mask="url(#mask0_8425_54808)">
<path d="M126.215 53.04L124.773 49.8681L121.601 48.4263L124.773 46.9845L126.215 43.8125L127.657 46.9845L130.829 48.4263L127.657 49.8681L126.215 53.04ZM126.215 69.1882L124.773 66.0163L121.601 64.5745L124.773 63.1327L126.215 59.9607L127.657 63.1327L130.829 64.5745L127.657 66.0163L126.215 69.1882ZM114.681 65.7279L111.797 59.384L105.453 56.5004L111.797 53.6168L114.681 47.2728L117.564 53.6168L123.908 56.5004L117.564 59.384L114.681 65.7279Z" fill="#9065B0"/>
</g>
<circle cx="119.5" cy="56.5" r="18.789" stroke="url(#paint0_linear_8425_54808)" stroke-width="2.42197"/>
<path d="M135.056 34.0305L106.594 33.8243L141.243 14.4375L135.056 34.0305Z" fill="url(#paint1_linear_8425_54808)" stroke="url(#paint2_linear_8425_54808)"/>
<path d="M120.206 2.47656L134.849 34.0316H105.769L120.206 2.47656Z" fill="url(#paint3_linear_8425_54808)"/>
<g filter="url(#filter0_f_8425_54808)">
<path d="M112.781 18.9745C113.606 16.4996 114.225 14.2309 118.556 6.1875C117.112 10.5186 114.225 16.9121 112.781 18.9745Z" fill="white"/>
</g>
<g filter="url(#filter1_f_8425_54808)">
<path d="M130.518 34.029C120.619 33.2041 114.019 28.2543 111.544 21.8607C118.556 20.8295 129.598 30.2255 130.518 34.029Z" fill="#C66329"/>
</g>
<path d="M105.769 34.0305H130.106L99.582 14.4375L105.769 34.0305Z" fill="url(#paint4_linear_8425_54808)" stroke="url(#paint5_linear_8425_54808)"/>
<circle cx="120" cy="2.68115" r="2.43115" fill="url(#paint6_linear_8425_54808)" stroke="url(#paint7_linear_8425_54808)" stroke-width="0.5"/>
<circle cx="141.037" cy="14.6437" r="2.01867" fill="url(#paint8_linear_8425_54808)" stroke="url(#paint9_linear_8425_54808)" stroke-width="0.5"/>
<circle cx="99.903" cy="14.6445" r="2.01867" transform="rotate(-45 99.903 14.6445)" fill="url(#paint10_linear_8425_54808)" stroke="url(#paint11_linear_8425_54808)" stroke-width="0.5"/>
<defs>
<filter id="filter0_f_8425_54808" x="110.781" y="4.1875" width="9.7749" height="16.7871" filterUnits="userSpaceOnUse" color-interpolation-filters="sRGB">
<feFlood flood-opacity="0" result="BackgroundImageFix"/>
<feBlend mode="normal" in="SourceGraphic" in2="BackgroundImageFix" result="shape"/>
<feGaussianBlur stdDeviation="1" result="effect1_foregroundBlur_8425_54808"/>
</filter>
<filter id="filter1_f_8425_54808" x="101.544" y="11.7812" width="38.9744" height="32.248" filterUnits="userSpaceOnUse" color-interpolation-filters="sRGB">
<feFlood flood-opacity="0" result="BackgroundImageFix"/>
<feBlend mode="normal" in="SourceGraphic" in2="BackgroundImageFix" result="shape"/>
<feGaussianBlur stdDeviation="5" result="effect1_foregroundBlur_8425_54808"/>
</filter>
<linearGradient id="paint0_linear_8425_54808" x1="119.5" y1="36.5" x2="119.5" y2="76.5" gradientUnits="userSpaceOnUse">
<stop stop-color="#FFC700"/>
<stop offset="1" stop-color="#FFFBA2"/>
</linearGradient>
<linearGradient id="paint1_linear_8425_54808" x1="120.412" y1="33.8243" x2="140.005" y2="16.0874" gradientUnits="userSpaceOnUse">
<stop stop-color="#FFE508"/>
<stop offset="1" stop-color="#E87A03"/>
</linearGradient>
<linearGradient id="paint2_linear_8425_54808" x1="130.725" y1="19.7998" x2="132.375" y2="22.8934" gradientUnits="userSpaceOnUse">
<stop stop-color="#FFBB5B"/>
<stop offset="1" stop-color="#FFBC7D" stop-opacity="0"/>
</linearGradient>
<linearGradient id="paint3_linear_8425_54808" x1="121.443" y1="10.9325" x2="127.424" y2="34.4441" gradientUnits="userSpaceOnUse">
<stop stop-color="#FFE408"/>
<stop offset="1" stop-color="#E67102"/>
</linearGradient>
<linearGradient id="paint4_linear_8425_54808" x1="103.294" y1="26.3996" x2="126.394" y2="33.8243" gradientUnits="userSpaceOnUse">
<stop stop-color="#FFE308"/>
<stop offset="1" stop-color="#FFA600"/>
</linearGradient>
<linearGradient id="paint5_linear_8425_54808" x1="122.062" y1="28.462" x2="121.237" y2="30.3182" gradientUnits="userSpaceOnUse">
<stop stop-color="#FFE33F"/>
<stop offset="1" stop-color="#FFDA00" stop-opacity="0"/>
</linearGradient>
<linearGradient id="paint6_linear_8425_54808" x1="120" y1="0" x2="120" y2="5.3623" gradientUnits="userSpaceOnUse">
<stop stop-color="#FFE508"/>
<stop offset="1" stop-color="#E97E03"/>
</linearGradient>
<linearGradient id="paint7_linear_8425_54808" x1="120" y1="0" x2="120" y2="5.3623" gradientUnits="userSpaceOnUse">
<stop stop-color="white" stop-opacity="0.3"/>
<stop offset="1" stop-color="white" stop-opacity="0"/>
</linearGradient>
<linearGradient id="paint8_linear_8425_54808" x1="142.48" y1="12.9937" x2="139.593" y2="16.0874" gradientUnits="userSpaceOnUse">
<stop stop-color="#E77302"/>
<stop offset="1" stop-color="#FFE508"/>
</linearGradient>
<linearGradient id="paint9_linear_8425_54808" x1="142.687" y1="13.4062" x2="139.387" y2="16.2936" gradientUnits="userSpaceOnUse">
<stop stop-color="white" stop-opacity="0.3"/>
<stop offset="1" stop-color="white" stop-opacity="0"/>
</linearGradient>
<linearGradient id="paint10_linear_8425_54808" x1="100.259" y1="12.3759" x2="99.3843" y2="16.7509" gradientUnits="userSpaceOnUse">
<stop stop-color="#E77302"/>
<stop offset="1" stop-color="#FFC839"/>
</linearGradient>
<linearGradient id="paint11_linear_8425_54808" x1="101.553" y1="13.4071" x2="98.253" y2="16.2945" gradientUnits="userSpaceOnUse">
<stop stop-color="white" stop-opacity="0.3"/>
<stop offset="1" stop-color="white" stop-opacity="0"/>
</linearGradient>
</defs>
</svg>
