<svg width="616" height="347" viewBox="0 0 616 347" fill="none" xmlns="http://www.w3.org/2000/svg">
<path d="M114.42 90.0104V294.618L244.167 297.81L270.796 296.179V167.382M114.42 90.0104L270.796 167.382M114.42 90.0104L250.76 85.1103M346.608 39.4009L345.249 297.81L507.438 296.179V137.221M346.608 39.4009L270.796 167.382M346.608 39.4009L465.129 90.0104M346.608 39.4009L250.76 85.1103M507.438 137.221L270.796 167.382M507.438 137.221L465.129 90.0104M465.129 90.0104L507.438 61.069M230.395 28.5801L250.76 85.1103" stroke="#7601D3" stroke-linecap="round" stroke-dasharray="6 6"/>
<ellipse cx="231.12" cy="37.0902" rx="15.067" ry="15.0668" fill="#885FC7"/>
<ellipse cx="250.276" cy="84.3035" rx="11.4872" ry="11.4871" fill="#D9DEE9"/>
<ellipse cx="345.845" cy="47.1274" rx="37.1766" ry="37.1762" fill="#B9C2D3"/>
<ellipse cx="503.971" cy="137.447" rx="29.8323" ry="29.832" fill="#B9C2D3"/>
<ellipse cx="273.074" cy="173.994" rx="28.3259" ry="28.3256" fill="#B9C2D3"/>
<ellipse cx="114.42" cy="87.4916" rx="32.2243" ry="32.224" fill="#B9C2D3"/>
<path fill-rule="evenodd" clip-rule="evenodd" d="M118.676 88.376C121.999 86.7871 124.295 83.3937 124.295 79.4641C124.295 74.0118 119.875 69.5918 114.423 69.5918C108.971 69.5918 104.551 74.0118 104.551 79.4641C104.551 83.3933 106.846 86.7863 110.169 88.3754C102.538 90.2759 96.8828 97.175 96.8828 105.395H131.96C131.96 97.1758 126.306 90.2772 118.676 88.376Z" fill="white"/>
<path fill-rule="evenodd" clip-rule="evenodd" d="M350.857 48.1676C354.773 46.2956 357.479 42.2973 357.479 37.6671C357.479 31.243 352.271 26.0352 345.847 26.0352C339.423 26.0352 334.215 31.243 334.215 37.6671C334.215 42.2966 336.919 46.2945 340.835 48.1668C331.843 50.4059 325.18 58.5349 325.18 68.2201H366.509C366.509 58.5361 359.848 50.4079 350.857 48.1676Z" fill="white"/>
<path fill-rule="evenodd" clip-rule="evenodd" d="M507.535 138.185C510.319 136.855 512.242 134.012 512.242 130.721C512.242 126.153 508.539 122.451 503.972 122.451C499.405 122.451 495.703 126.153 495.703 130.721C495.703 134.011 497.626 136.853 500.409 138.185C494.016 139.776 489.279 145.555 489.279 152.441H518.661C518.661 145.557 513.926 139.778 507.535 138.185Z" fill="white"/>
<path fill-rule="evenodd" clip-rule="evenodd" d="M276.638 174.734C279.422 173.403 281.345 170.561 281.345 167.269C281.345 162.702 277.643 159 273.076 159C268.509 159 264.807 162.702 264.807 167.269C264.807 170.56 266.729 173.402 269.512 174.733C263.12 176.325 258.383 182.104 258.383 188.99H287.764C287.764 182.105 283.029 176.327 276.638 174.734Z" fill="white"/>
<ellipse cx="345.845" cy="158.277" rx="31.4918" ry="31.4915" fill="white"/>
<ellipse cx="345.846" cy="158.276" rx="20.6645" ry="20.6643" fill="#F4C06D"/>
<path d="M348.676 158.277C348.676 161.811 348.365 164.996 347.87 167.285C347.621 168.433 347.332 169.328 347.026 169.925C346.874 170.224 346.729 170.422 346.604 170.54C346.482 170.656 346.411 170.665 346.386 170.665C346.361 170.665 346.289 170.656 346.167 170.54C346.042 170.422 345.898 170.224 345.745 169.925C345.44 169.328 345.15 168.433 344.902 167.285C344.406 164.996 344.096 161.811 344.096 158.277C344.096 154.743 344.406 151.558 344.902 149.269C345.15 148.121 345.44 147.226 345.745 146.629C345.898 146.33 346.042 146.132 346.167 146.014C346.289 145.898 346.361 145.889 346.386 145.889C346.411 145.889 346.482 145.898 346.604 146.014C346.729 146.132 346.874 146.33 347.026 146.629C347.332 147.226 347.621 148.121 347.87 149.269C348.365 151.558 348.676 154.743 348.676 158.277Z" stroke="white"/>
<path d="M348.006 159.897C345.507 162.396 343.035 164.429 341.067 165.696C340.079 166.333 339.241 166.761 338.604 166.967C338.284 167.07 338.042 167.108 337.87 167.104C337.702 167.099 337.645 167.055 337.627 167.037C337.609 167.02 337.565 166.963 337.561 166.794C337.556 166.623 337.594 166.38 337.697 166.061C337.903 165.423 338.332 164.585 338.968 163.598C340.236 161.629 342.268 159.158 344.767 156.658C347.267 154.159 349.738 152.127 351.707 150.859C352.694 150.223 353.532 149.794 354.17 149.588C354.489 149.485 354.732 149.447 354.903 149.452C355.072 149.456 355.129 149.5 355.147 149.518C355.164 149.535 355.208 149.593 355.213 149.761C355.218 149.933 355.179 150.175 355.076 150.495C354.87 151.132 354.442 151.97 353.805 152.958C352.538 154.926 350.505 157.398 348.006 159.897Z" stroke="white"/>
<path d="M346.387 160.568C342.853 160.568 339.668 160.258 337.379 159.762C336.231 159.514 335.336 159.224 334.739 158.919C334.44 158.766 334.242 158.622 334.124 158.497C334.008 158.375 333.999 158.303 333.999 158.278C333.999 158.253 334.008 158.182 334.124 158.059C334.242 157.935 334.44 157.79 334.739 157.637C335.336 157.332 336.231 157.043 337.379 156.794C339.668 156.299 342.853 155.988 346.387 155.988C349.921 155.988 353.106 156.299 355.395 156.794C356.543 157.043 357.438 157.332 358.035 157.637C358.334 157.79 358.532 157.935 358.65 158.059C358.766 158.182 358.775 158.253 358.775 158.278C358.775 158.303 358.766 158.375 358.65 158.497C358.532 158.622 358.334 158.766 358.035 158.919C357.438 159.224 356.543 159.514 355.395 159.762C353.106 160.258 349.921 160.568 346.387 160.568Z" stroke="white"/>
<path d="M344.767 159.897C342.268 157.397 340.235 154.926 338.968 152.957C338.332 151.97 337.903 151.132 337.697 150.494C337.594 150.175 337.556 149.932 337.56 149.761C337.565 149.592 337.609 149.535 337.627 149.517C337.644 149.5 337.701 149.456 337.87 149.451C338.041 149.446 338.284 149.485 338.603 149.588C339.241 149.794 340.079 150.222 341.067 150.859C343.035 152.126 345.506 154.159 348.006 156.658C350.505 159.157 352.537 161.629 353.805 163.597C354.441 164.585 354.87 165.423 355.076 166.06C355.179 166.38 355.217 166.622 355.213 166.794C355.208 166.962 355.164 167.019 355.146 167.037C355.129 167.055 355.071 167.099 354.903 167.103C354.732 167.108 354.489 167.07 354.169 166.967C353.532 166.761 352.694 166.332 351.706 165.696C349.738 164.428 347.266 162.396 344.767 159.897Z" stroke="white"/>
<circle cx="336.889" cy="149.102" r="1.56642" fill="white"/>
<circle cx="355.143" cy="149.521" r="1.56642" fill="white"/>
<circle cx="359.039" cy="158.279" r="1.56642" fill="#DB4437"/>
<circle cx="333.951" cy="158.277" r="1.56642" fill="#DB4437"/>
<circle cx="346.387" cy="145.625" r="1.56642" fill="#DB4437"/>
<circle cx="346.387" cy="170.93" r="1.56642" fill="#DB4437"/>
<circle cx="336.867" cy="167.059" r="1.56642" fill="white"/>
<circle cx="355.143" cy="167.035" r="1.56642" fill="white"/>
<ellipse cx="301.401" cy="114.705" rx="8.22872" ry="8.22864" fill="#7601D3"/>
<ellipse cx="199.495" cy="129.77" rx="16.5577" ry="16.5576" fill="#885FC7"/>
<ellipse cx="392.114" cy="94.7626" rx="10.458" ry="10.4579" fill="#D8A6FF"/>
<ellipse cx="114.422" cy="195.5" rx="29.6777" ry="29.6774" fill="white"/>
<ellipse cx="511.05" cy="59.8432" rx="22.7536" ry="22.7534" fill="#D8A6FF"/>
<ellipse cx="467.752" cy="91.7885" rx="16.0777" ry="16.0776" fill="#1C1348"/>
<path d="M467.558 91.4076L459.539 88.3518L473.648 84.8164L467.558 91.4076Z" fill="white"/>
<path d="M467.016 92.0033L461.079 98.6215C461.256 98.7815 461.717 99.075 462.145 98.9688C462.681 98.836 473.915 95.9114 475.046 95.5712C475.951 95.2989 476.22 94.9322 476.241 94.7828L468.365 91.6717L467.75 92.3488L467.016 92.0033Z" fill="white"/>
<path d="M460.805 97.9346L459.156 89.0724L466.29 91.8162L460.805 97.9346Z" fill="white"/>
<path d="M476.161 93.8914L468.879 91.0838L474.478 85.0781L476.161 93.8914Z" fill="white"/>
<g filter="url(#filter0_d_7461_44603)">
<rect x="199.494" y="185.447" width="219.342" height="142.069" rx="7.59743" fill="#1C1348"/>
<rect x="208.637" y="195.5" width="201.984" height="124.128" fill="white"/>
<path d="M326.239 247.324L323.19 240.617L316.483 237.568L323.19 234.52L326.239 227.812L329.288 234.52L335.995 237.568L329.288 240.617L326.239 247.324ZM326.239 281.469L323.19 274.762L316.483 271.713L323.19 268.664L326.239 261.957L329.288 268.664L335.995 271.713L329.288 274.762L326.239 281.469ZM301.849 274.152L295.752 260.738L282.338 254.641L295.752 248.543L301.849 235.129L307.947 248.543L321.361 254.641L307.947 260.738L301.849 274.152Z" fill="#9065B0"/>
<path d="M192.207 326.93H426.117V330.241C426.117 333.726 423.292 336.55 419.808 336.55H198.513C195.03 336.55 192.207 333.727 192.207 330.244V326.93Z" fill="#D9D9D9"/>
<path d="M287.084 326.93H331.238V326.93C331.238 329.426 329.215 331.449 326.719 331.449H291.604C289.107 331.449 287.084 329.426 287.084 326.93V326.93Z" fill="url(#paint0_linear_7461_44603)"/>
</g>
<path d="M114.422 208.799L112.501 207.077C110.272 205.069 108.429 203.336 106.972 201.879C105.515 200.422 104.356 199.114 103.495 197.955C102.635 196.797 102.033 195.732 101.691 194.76C101.349 193.789 101.178 192.796 101.178 191.78C101.178 189.705 101.873 187.973 103.264 186.582C104.654 185.191 106.387 184.496 108.462 184.496C109.61 184.496 110.702 184.739 111.74 185.225C112.777 185.71 113.671 186.394 114.422 187.277C115.172 186.394 116.066 185.71 117.104 185.225C118.141 184.739 119.234 184.496 120.382 184.496C122.457 184.496 124.189 185.191 125.58 186.582C126.971 187.973 127.666 189.705 127.666 191.78C127.666 192.796 127.495 193.789 127.153 194.76C126.811 195.732 126.209 196.797 125.348 197.955C124.487 199.114 123.329 200.422 121.872 201.879C120.415 203.336 118.572 205.069 116.342 207.077L114.422 208.799Z" fill="#DB4437"/>
<path d="M433.547 245.365C466.605 245.365 493.404 225.519 493.404 201.038C493.404 176.557 466.605 156.711 433.547 156.711C400.488 156.711 373.689 176.557 373.689 201.038C373.689 210.625 377.8 219.502 384.786 226.754C387.766 232.264 390.728 244.656 378.733 250.138C390.18 252.395 412.94 243.105 415.351 243.279C421.089 244.634 427.202 245.365 433.547 245.365Z" fill="#9F8EF0"/>
<rect x="400.635" y="188.773" width="65.1953" height="8.54193" rx="4.27097" fill="white"/>
<rect x="401.516" y="207.324" width="48.2227" height="8.54193" rx="4.27097" fill="white"/>
<path d="M185.402 304.143C163.996 304.143 146.644 291.292 146.644 275.44C146.644 259.589 163.996 246.738 185.402 246.738C206.807 246.738 224.16 259.589 224.16 275.44C224.16 281.648 221.499 287.396 216.975 292.092C215.045 295.66 213.128 303.684 220.895 307.233C213.483 308.695 198.745 302.68 197.184 302.792C193.469 303.669 189.51 304.143 185.402 304.143Z" fill="#9F8EF0"/>
<rect x="161.328" y="266.695" width="43.2199" height="5.6627" rx="2.83135" fill="white"/>
<rect x="161.912" y="278.994" width="31.9682" height="5.6627" rx="2.83135" fill="white"/>
<defs>
<filter id="filter0_d_7461_44603" x="184.207" y="175.447" width="249.91" height="167.104" filterUnits="userSpaceOnUse" color-interpolation-filters="sRGB">
<feFlood flood-opacity="0" result="BackgroundImageFix"/>
<feColorMatrix in="SourceAlpha" type="matrix" values="0 0 0 0 0 0 0 0 0 0 0 0 0 0 0 0 0 0 127 0" result="hardAlpha"/>
<feOffset dy="-2"/>
<feGaussianBlur stdDeviation="4"/>
<feComposite in2="hardAlpha" operator="out"/>
<feColorMatrix type="matrix" values="0 0 0 0 0 0 0 0 0 0 0 0 0 0 0 0 0 0 0.16 0"/>
<feBlend mode="normal" in2="BackgroundImageFix" result="effect1_dropShadow_7461_44603"/>
<feBlend mode="normal" in="SourceGraphic" in2="effect1_dropShadow_7461_44603" result="shape"/>
</filter>
<linearGradient id="paint0_linear_7461_44603" x1="331.238" y1="328.602" x2="287.084" y2="328.345" gradientUnits="userSpaceOnUse">
<stop stop-opacity="0.44"/>
<stop offset="0.535" stop-opacity="0.35975"/>
<stop offset="1" stop-opacity="0.29"/>
</linearGradient>
</defs>
</svg>
