<svg width="752" height="424" viewBox="0 0 752 424" fill="none" xmlns="http://www.w3.org/2000/svg">
<path d="M329.604 367.074C113.578 290.164 119.817 150.822 149.94 90.7649C177.902 35.0163 279.901 1.94104 333.072 83.3812C363.637 130.197 445.131 108.207 481.089 99.5767C521.567 89.862 606.706 114.713 617.309 217.92C627.912 321.126 492.896 416.556 329.604 367.074Z" fill="#FBF7FF"/>
<path fill-rule="evenodd" clip-rule="evenodd" d="M504.16 319.178C504.16 318.073 503.265 317.178 502.16 317.178H484.864C483.76 317.178 482.864 318.073 482.864 319.178V322.574C482.864 323.45 482.292 324.219 481.467 324.513C480.335 324.917 479.229 325.376 478.153 325.888C477.361 326.264 476.412 326.125 475.793 325.505L473.388 323.101C472.607 322.32 471.341 322.32 470.56 323.101L458.33 335.331C457.549 336.112 457.549 337.378 458.33 338.159L460.736 340.565C461.355 341.184 461.494 342.133 461.118 342.924C460.608 343.999 460.149 345.104 459.746 346.235C459.451 347.06 458.683 347.632 457.807 347.632H454.408C453.304 347.632 452.408 348.527 452.408 349.632V366.927C452.408 368.032 453.304 368.927 454.408 368.927H457.806C458.682 368.927 459.45 369.499 459.745 370.325C460.148 371.456 460.607 372.562 461.118 373.638C461.494 374.43 461.356 375.378 460.736 375.998L458.332 378.402C457.551 379.183 457.551 380.449 458.332 381.23L470.561 393.46C471.343 394.241 472.609 394.241 473.39 393.46L475.793 391.057C476.413 390.437 477.361 390.298 478.153 390.674C479.229 391.186 480.335 391.645 481.467 392.049C482.292 392.343 482.864 393.112 482.864 393.988V397.384C482.864 398.489 483.76 399.384 484.864 399.384H502.16C503.265 399.384 504.16 398.489 504.16 397.384V393.989C504.16 393.113 504.732 392.344 505.557 392.05C506.689 391.646 507.794 391.187 508.87 390.676C509.662 390.3 510.61 390.439 511.23 391.059L513.63 393.459C514.411 394.24 515.678 394.24 516.459 393.459L528.689 381.23C529.47 380.449 529.47 379.182 528.689 378.401L526.289 376.002C525.669 375.382 525.531 374.434 525.907 373.642C526.419 372.565 526.878 371.458 527.282 370.325C527.577 369.499 528.345 368.927 529.221 368.927H532.614C533.719 368.927 534.614 368.032 534.614 366.927V349.632C534.614 348.527 533.719 347.632 532.614 347.632H529.22C528.344 347.632 527.576 347.06 527.281 346.235C526.877 345.103 526.418 343.997 525.907 342.92C525.531 342.129 525.67 341.18 526.289 340.56L528.69 338.16C529.471 337.379 529.471 336.113 528.69 335.331L516.46 323.102C515.679 322.321 514.413 322.321 513.632 323.102L511.23 325.503C510.611 326.123 509.662 326.262 508.871 325.886C507.795 325.375 506.689 324.916 505.557 324.512C504.732 324.218 504.16 323.449 504.16 322.573V319.178ZM493.509 382.31C506.78 382.31 517.538 371.552 517.538 358.281C517.538 345.01 506.78 334.252 493.509 334.252C480.238 334.252 469.48 345.01 469.48 358.281C469.48 371.552 480.238 382.31 493.509 382.31Z" fill="#F0E3FB"/>
<path fill-rule="evenodd" clip-rule="evenodd" d="M548.575 288.131C548.575 287.081 547.725 286.23 546.675 286.23H540.245C539.195 286.23 538.344 287.081 538.344 288.131C538.344 288.964 537.798 289.689 537.026 290C536.921 290.043 536.816 290.086 536.712 290.131C535.945 290.458 535.045 290.331 534.456 289.742C533.713 288.999 532.509 288.999 531.767 289.742L527.222 294.287C526.479 295.03 526.479 296.234 527.222 296.977C527.811 297.567 527.938 298.467 527.611 299.234C527.568 299.336 527.525 299.44 527.483 299.543C527.172 300.316 526.446 300.862 525.613 300.862C524.562 300.862 523.711 301.714 523.711 302.764L523.711 309.192C523.711 310.242 524.562 311.094 525.612 311.094C526.445 311.094 527.171 311.64 527.483 312.412C527.525 312.517 527.568 312.622 527.612 312.726C527.939 313.492 527.812 314.392 527.223 314.981C526.481 315.724 526.481 316.927 527.223 317.67L531.769 322.216C532.512 322.958 533.715 322.958 534.458 322.216C535.047 321.627 535.947 321.5 536.713 321.827C536.817 321.871 536.921 321.914 537.026 321.956C537.798 322.268 538.344 322.993 538.344 323.826C538.344 324.876 539.195 325.727 540.245 325.727H546.675C547.725 325.727 548.575 324.876 548.575 323.826C548.575 322.994 549.121 322.269 549.894 321.957C549.999 321.915 550.103 321.872 550.207 321.827C550.973 321.501 551.872 321.628 552.461 322.216C553.203 322.958 554.406 322.958 555.148 322.216L559.696 317.668C560.438 316.926 560.438 315.724 559.696 314.982C559.108 314.394 558.981 313.495 559.308 312.729C559.353 312.624 559.397 312.518 559.44 312.411C559.751 311.639 560.476 311.094 561.308 311.094C562.357 311.094 563.207 310.243 563.207 309.194V302.762C563.207 301.713 562.357 300.862 561.308 300.862C560.476 300.862 559.751 300.316 559.44 299.545C559.397 299.439 559.354 299.334 559.309 299.23C558.982 298.464 559.109 297.565 559.698 296.976C560.44 296.234 560.44 295.031 559.698 294.289L555.15 289.741C554.408 288.999 553.205 288.999 552.463 289.741C551.874 290.33 550.975 290.457 550.209 290.13C550.104 290.086 549.999 290.042 549.893 289.999C549.121 289.688 548.575 288.963 548.575 288.131ZM543.457 317.523C549.833 317.523 555.002 312.355 555.002 305.978C555.002 299.602 549.833 294.434 543.457 294.434C537.081 294.434 531.912 299.602 531.912 305.978C531.912 312.355 537.081 317.523 543.457 317.523Z" fill="#F0E3FB"/>
<path d="M648.794 104.567H524.611C516.087 104.567 509.177 111.477 509.177 120.001V185.482L487.508 200.916H524.611H648.794C657.317 200.916 664.227 194.006 664.227 185.482V120.001C664.227 111.477 657.317 104.567 648.794 104.567Z" fill="#D5D1FF"/>
<path d="M520.344 121.696C520.344 119.271 522.309 117.306 524.734 117.306H568.77C571.195 117.306 573.16 119.271 573.16 121.696V165.732C573.16 168.157 571.195 170.122 568.77 170.122H524.734C522.309 170.122 520.344 168.157 520.344 165.732V121.696Z" fill="#AAACFF"/>
<path d="M541.751 125.922V127.59V130.37H545.087V127.59V125.922H548.422V127.59V130.37H551.758V127.59V125.922H555.094V127.59V130.37H556.762H560.098V133.706V135.374H562.878H564.546V138.71H562.878H560.098V142.045H562.878H564.546V145.381H562.878H560.098V148.717H562.878H564.546V152.053H562.878H560.098V153.721V157.057H556.762H555.094V159.837V161.505H551.758V159.837V157.057H548.422V159.837V161.505H545.087V159.837V157.057H541.751V159.837V161.505H538.415V159.837V157.057H536.747H533.411V153.721V152.053H530.631H528.963V148.717H530.631H533.411V145.381H530.631H528.963V142.045H530.631H533.411V138.71H530.631H528.963V135.374H530.631H533.411V133.706V130.37H536.747H538.415V127.59V125.922H541.751ZM556.762 133.706H536.747V153.721H556.762V133.706ZM553.704 138.154V139.266V148.161V149.273H550.924V148.161V139.266V138.154H553.704ZM545.038 138.154L545.274 138.765L549.347 149.273H546.365L545.823 147.883H542.126L541.584 149.273H538.609L542.682 138.765L542.918 138.154H545.038ZM543.975 143.116L543.203 145.103H544.746L543.975 143.116Z" fill="white"/>
<path d="M581.172 121.94C581.172 120.485 582.351 119.306 583.806 119.306H647.224C648.679 119.306 649.858 120.485 649.858 121.94C649.858 123.394 648.679 124.574 647.224 124.574H583.806C582.351 124.574 581.172 123.394 581.172 121.94Z" fill="white"/>
<path d="M581.172 133.1C581.172 131.645 582.351 130.466 583.806 130.466H647.224C648.679 130.466 649.858 131.645 649.858 133.1C649.858 134.555 648.679 135.734 647.224 135.734H583.806C582.351 135.734 581.172 134.555 581.172 133.1Z" fill="white"/>
<path d="M581.172 144.261C581.172 142.806 582.351 141.626 583.806 141.626H647.224C648.679 141.626 649.858 142.806 649.858 144.261C649.858 145.715 648.679 146.895 647.224 146.895H583.806C582.351 146.895 581.172 145.715 581.172 144.261Z" fill="white"/>
<path d="M581.172 155.421C581.172 153.966 582.351 152.787 583.806 152.787H647.224C648.679 152.787 649.858 153.966 649.858 155.421C649.858 156.876 648.679 158.055 647.224 158.055H583.806C582.351 158.055 581.172 156.876 581.172 155.421Z" fill="white"/>
<path d="M581.172 166.58C581.172 165.126 582.351 163.946 583.806 163.946H626.053C627.508 163.946 628.687 165.126 628.687 166.58C628.687 168.035 627.508 169.215 626.053 169.215H583.806C582.351 169.215 581.172 168.035 581.172 166.58Z" fill="white"/>
<path d="M520.344 185.139C520.344 183.684 521.523 182.505 522.978 182.505H596.68C598.134 182.505 599.314 183.684 599.314 185.139C599.314 186.594 598.134 187.773 596.68 187.773H522.978C521.523 187.773 520.344 186.594 520.344 185.139Z" fill="white"/>
<path d="M407.177 112.794C422.051 112.794 434.109 100.736 434.109 85.8621C434.109 70.9877 422.051 58.9297 407.177 58.9297C392.302 58.9297 380.244 70.9877 380.244 85.8621C380.244 92.2143 382.443 98.053 386.122 102.658L381.679 114.357L392.617 108.524C396.815 111.226 401.813 112.794 407.177 112.794Z" fill="#C0BEF2"/>
<path d="M407.177 99.5091L405.143 97.6862C402.783 95.5595 400.831 93.7249 399.289 92.1825C397.747 90.6401 396.52 89.2554 395.608 88.0284C394.697 86.8015 394.06 85.6738 393.698 84.6455C393.335 83.6173 393.154 82.5656 393.154 81.4905C393.154 79.2937 393.89 77.4592 395.363 75.9868C396.835 74.5145 398.67 73.7783 400.867 73.7783C402.082 73.7783 403.239 74.0354 404.337 74.5495C405.435 75.0637 406.382 75.7882 407.177 76.723C407.971 75.7882 408.918 75.0637 410.016 74.5495C411.114 74.0354 412.271 73.7783 413.487 73.7783C415.683 73.7783 417.518 74.5145 418.99 75.9868C420.463 77.4592 421.199 79.2937 421.199 81.4905C421.199 82.5656 421.018 83.6173 420.655 84.6455C420.293 85.6738 419.656 86.8015 418.745 88.0284C417.833 89.2554 416.606 90.6401 415.064 92.1825C413.522 93.7249 411.57 95.5595 409.21 97.6862L407.177 99.5091Z" fill="white"/>
<path d="M139.567 217.478C122.654 218.583 108.048 205.767 106.943 188.854C105.839 171.941 118.654 157.335 135.567 156.23C152.481 155.126 167.087 167.941 168.191 184.855C168.663 192.078 166.596 198.88 162.755 204.389L168.676 217.362L155.805 211.541C151.232 214.926 145.666 217.08 139.567 217.478Z" fill="#C0BEF2"/>
<path d="M132.61 201.881C131.271 202.732 129.52 201.771 129.52 200.184V177.247C129.52 175.661 131.271 174.699 132.61 175.551L150.632 187.019C151.873 187.81 151.873 189.622 150.632 190.412L132.61 201.881Z" fill="white"/>
<path d="M457.005 162.771C448.347 159.927 439.023 164.639 436.179 173.296C433.334 181.953 438.046 191.278 446.703 194.122C455.361 196.967 464.685 192.255 467.529 183.597C468.744 179.9 468.581 176.081 467.321 172.698L472.144 166.738L464.662 168.041C462.735 165.666 460.127 163.797 457.005 162.771Z" fill="#C0BEF2"/>
<path fill-rule="evenodd" clip-rule="evenodd" d="M448.428 176.269V184.57H458.444L458.445 184.558C459.061 184.476 459.536 183.948 459.536 183.309C459.536 182.897 459.339 182.531 459.033 182.301C459.672 182.24 460.172 181.701 460.172 181.046C460.172 180.775 460.086 180.524 459.94 180.318C460.409 180.047 460.724 179.54 460.724 178.96C460.724 178.624 460.619 178.313 460.439 178.058C460.971 177.748 461.327 177.171 461.327 176.511C461.327 175.803 460.917 175.192 460.321 174.901H458.752H455.198C455.414 174.09 455.717 171.989 455.198 170.078C454.549 167.69 453.498 167.659 452.798 167.882C452.318 168.034 452.303 168.486 452.278 169.186L452.278 169.187C452.267 169.508 452.254 169.88 452.194 170.299L452.163 170.525L452.163 170.526C451.971 171.941 451.606 174.635 448.428 176.269ZM447.226 176.183H442.574V184.57H447.226V176.183Z" fill="white"/>
<rect x="182.156" y="147.074" width="225.311" height="158.474" rx="12" fill="#1C1348"/>
<rect x="192.381" y="157.988" width="204.858" height="135.95" fill="#F8F0FF"/>
<path d="M287.6 223.051C291.818 231.017 293.054 240.226 291.085 249.022C289.116 257.817 284.072 265.621 276.862 271.028C269.651 276.436 260.746 279.091 251.752 278.517C242.757 277.943 234.262 274.177 227.797 267.897C221.332 261.617 217.322 253.236 216.487 244.261C215.652 235.287 218.048 226.309 223.244 218.945C228.44 211.58 236.094 206.312 244.829 204.089C253.564 201.866 262.805 202.834 270.89 206.819L254.161 240.757L287.6 223.051Z" fill="#94BBF9"/>
<path d="M277.972 201.753C283.509 204.745 288.212 209.071 291.656 214.339L259.986 235.042L277.972 201.753Z" fill="#7601D3"/>
<rect x="215.32" y="173.898" width="43.6692" height="4.54868" fill="#7594E9"/>
<rect x="264.99" y="173.898" width="32.9785" height="4.54868" fill="#7594E9"/>
<rect x="303.969" y="173.898" width="35.3242" height="4.54868" fill="#7594E9"/>
<rect x="215.32" y="182.306" width="31.9555" height="4.54868" fill="#C4D1FB"/>
<rect x="254.275" y="182.306" width="31.9555" height="4.54868" fill="#C4D1FB"/>
<rect x="333.25" y="236.949" width="4.43861" height="17.0376" fill="#7594E9"/>
<rect x="341.492" y="228.47" width="4.43861" height="25.5168" fill="#7594E9"/>
<rect x="349.734" y="232.505" width="4.43861" height="21.4818" fill="#7594E9"/>
<rect x="357.975" y="221.813" width="4.43861" height="32.1728" fill="#7594E9"/>
<rect x="366.217" y="215.157" width="4.43861" height="38.8298" fill="#F8746D"/>
<rect x="326.35" y="263.582" width="22.4892" height="2.60223" fill="#7594E9"/>
<rect x="351.162" y="263.582" width="13.8459" height="2.60223" fill="#7594E9"/>
<rect x="368.391" y="263.582" width="13.8459" height="2.60223" fill="#7594E9"/>
<rect x="326.852" y="269.982" width="13.8459" height="2.60223" fill="#C4D1FB"/>
<rect x="344.984" y="269.982" width="13.8459" height="2.60223" fill="#C4D1FB"/>
<path d="M330.103 226.747L326.35 223.973L336.631 212.305L357.274 210.591L364.373 202.35L361.925 200.474L372.777 195.904L370.819 207.001L367.881 204.798L359.64 215.079L338.507 216.711L330.103 226.747Z" fill="#F8746D"/>
<path d="M168.676 305.549H415.032V306.92C415.032 313.548 409.659 318.92 403.032 318.92H180.676C174.048 318.92 168.676 313.548 168.676 306.92V305.549Z" fill="#D9D9D9"/>
<path d="M262.719 305.549H320.988V305.549C320.988 308.077 318.939 310.126 316.411 310.126H267.296C264.768 310.126 262.719 308.077 262.719 305.549V305.549Z" fill="#D9D9D9"/>
<path d="M262.719 305.549H320.988V305.549C320.988 308.077 318.939 310.126 316.411 310.126H267.296C264.768 310.126 262.719 308.077 262.719 305.549V305.549Z" fill="black" fill-opacity="0.2"/>
<circle cx="458.53" cy="262.221" r="41.6667" fill="#B07D20"/>
<circle cx="453.747" cy="256.824" r="41.6667" fill="#FFB633"/>
<path fill-rule="evenodd" clip-rule="evenodd" d="M453.748 290.585C472.393 290.585 487.508 275.47 487.508 256.825C487.508 238.179 472.393 223.064 453.748 223.064C435.103 223.064 419.988 238.179 419.988 256.825C419.988 275.47 435.103 290.585 453.748 290.585ZM453.749 288.433C471.206 288.433 485.357 274.281 485.357 256.824C485.357 239.367 471.206 225.216 453.749 225.216C436.292 225.216 422.141 239.367 422.141 256.824C422.141 274.281 436.292 288.433 453.749 288.433Z" fill="white"/>
<path fill-rule="evenodd" clip-rule="evenodd" d="M456.191 271.73V275.727H449.095V271.752C447.872 271.548 446.747 271.231 445.721 270.801C443.803 269.99 442.294 268.805 441.207 267.246C440.135 265.687 439.553 263.785 439.463 261.546H445.472C445.562 262.72 445.925 263.698 446.559 264.479C446.74 264.698 446.936 264.902 447.147 265.087C447.683 265.566 448.318 265.947 449.05 266.223L449.095 256.262C446.438 255.545 444.324 254.485 442.754 253.081C441.154 251.62 440.354 249.684 440.354 247.268C440.354 245.279 440.89 243.539 441.969 242.044C442.573 241.218 443.29 240.493 444.128 239.87C444.807 239.372 445.562 238.938 446.4 238.572C447.246 238.191 448.144 237.9 449.095 237.693V233.563H456.191V237.647C457.202 237.859 458.153 238.164 459.029 238.572C460.841 239.395 462.26 240.542 463.294 242.014C464.328 243.471 464.857 245.154 464.894 247.053H459.014C458.855 245.615 458.214 244.494 457.066 243.694C456.795 243.501 456.5 243.328 456.191 243.181V252.511C457.195 252.782 458.169 253.122 459.112 253.526C460.297 254.032 461.354 254.666 462.29 255.436C463.234 256.206 463.981 257.13 464.532 258.217C465.076 259.305 465.355 260.58 465.355 262.041C465.355 264.015 464.849 265.755 463.838 267.261C462.826 268.755 461.369 269.922 459.459 270.767C458.478 271.201 457.383 271.522 456.191 271.73ZM456.191 258.304C456.244 258.327 456.289 258.346 456.342 258.368C457.255 258.75 457.965 259.233 458.47 259.818C458.976 260.388 459.233 261.112 459.24 261.992C459.233 262.528 459.142 263.03 458.961 263.494C458.818 263.864 458.621 264.207 458.372 264.528C457.836 265.196 457.104 265.728 456.191 266.129V258.304ZM449.057 250.427L449.095 243.192C448.325 243.562 447.714 244.041 447.283 244.63C446.8 245.29 446.559 246.041 446.544 246.887C446.544 247.589 446.702 248.2 447.019 248.717C447.351 249.231 447.797 249.672 448.355 250.035C448.582 250.174 448.816 250.306 449.057 250.427Z" fill="white"/>
<circle cx="413.209" cy="238.682" r="19.6742" fill="#B07D20"/>
<circle cx="410.95" cy="236.134" r="19.6742" fill="#FFB633"/>
<path fill-rule="evenodd" clip-rule="evenodd" d="M410.951 252.074C419.754 252.074 426.891 244.937 426.891 236.133C426.891 227.329 419.754 220.192 410.951 220.192C402.147 220.192 395.01 227.329 395.01 236.133C395.01 244.937 402.147 252.074 410.951 252.074ZM410.95 251.058C419.193 251.058 425.875 244.376 425.875 236.133C425.875 227.89 419.193 221.208 410.95 221.208C402.707 221.208 396.025 227.89 396.025 236.133C396.025 244.376 402.707 251.058 410.95 251.058Z" fill="white" fill-opacity="0.2"/>
<path fill-rule="evenodd" clip-rule="evenodd" d="M412.102 243.172V245.059H408.751V243.182C408.174 243.086 407.643 242.936 407.158 242.733C406.253 242.35 405.54 241.791 405.026 241.054C404.52 240.318 404.246 239.42 404.203 238.363H407.04C407.083 238.918 407.254 239.379 407.554 239.748C407.639 239.852 407.732 239.948 407.832 240.035C408.085 240.261 408.384 240.441 408.73 240.572L408.751 235.868C407.497 235.53 406.499 235.029 405.757 234.366C405.002 233.676 404.624 232.762 404.624 231.621C404.624 230.682 404.877 229.861 405.386 229.155C405.672 228.765 406.01 228.422 406.406 228.128C406.727 227.893 407.083 227.688 407.479 227.515C407.878 227.335 408.302 227.198 408.751 227.1V225.15H412.102V227.079C412.579 227.179 413.028 227.323 413.442 227.515C414.297 227.904 414.967 228.446 415.456 229.141C415.944 229.829 416.194 230.623 416.211 231.52H413.435C413.36 230.841 413.057 230.312 412.515 229.934C412.387 229.843 412.248 229.761 412.102 229.691V234.097C412.576 234.225 413.036 234.386 413.481 234.576C414.041 234.815 414.54 235.115 414.982 235.478C415.427 235.842 415.78 236.278 416.04 236.792C416.297 237.305 416.429 237.907 416.429 238.597C416.429 239.529 416.19 240.351 415.712 241.062C415.235 241.767 414.547 242.318 413.645 242.717C413.182 242.922 412.665 243.074 412.102 243.172ZM412.102 236.833C412.127 236.843 412.148 236.852 412.173 236.863C412.604 237.043 412.939 237.271 413.178 237.547C413.417 237.816 413.538 238.158 413.542 238.574C413.538 238.827 413.495 239.064 413.41 239.283C413.342 239.458 413.249 239.62 413.132 239.771C412.879 240.087 412.533 240.338 412.102 240.527V236.833ZM408.733 233.113L408.751 229.697C408.388 229.871 408.099 230.098 407.896 230.376C407.668 230.688 407.554 231.042 407.546 231.441C407.546 231.773 407.621 232.062 407.771 232.306C407.928 232.548 408.138 232.757 408.402 232.928C408.509 232.994 408.619 233.056 408.733 233.113Z" fill="white"/>
</svg>
