<svg width="616" height="347" viewBox="0 0 616 347" fill="none" xmlns="http://www.w3.org/2000/svg">
<rect x="317.898" y="260.002" width="87.3109" height="37.7717" fill="#2C225D"/>
<path d="M317.898 261.846H405.209V272.951L317.898 266.906V261.846Z" fill="#161034"/>
<path d="M192.203 58.5239C192.203 48.7109 200.158 40.7559 209.971 40.7559H513.142C522.955 40.7559 530.91 48.7109 530.91 58.5239V244.078C530.91 253.891 522.955 261.846 513.142 261.846H209.971C200.158 261.846 192.203 253.891 192.203 244.078V58.5239Z" fill="#49426D"/>
<path d="M203.633 58.0634C203.633 54.3835 206.616 51.4004 210.296 51.4004H512.823C516.503 51.4004 519.486 54.3835 519.486 58.0634V236.321C519.486 240.001 516.503 242.984 512.823 242.984H210.296C206.616 242.984 203.633 240.001 203.633 236.321V58.0634Z" fill="white"/>
<rect x="228.535" y="70.3965" width="82.693" height="7.59117" fill="#D9D9D9" fill-opacity="0.4"/>
<rect x="332.582" y="71.4004" width="28.1381" height="6.58834" fill="#D9D9D9" fill-opacity="0.4"/>
<rect x="365.754" y="71.4004" width="80.8331" height="6.58834" fill="#D9D9D9" fill-opacity="0.4"/>
<rect x="384.613" y="82.9941" width="80.8331" height="6.58834" fill="#D9D9D9" fill-opacity="0.4"/>
<rect x="395.273" y="95.5938" width="103.14" height="6.58834" fill="#D9D9D9" fill-opacity="0.4"/>
<rect x="395.016" y="107.188" width="103.14" height="6.58834" fill="#D9D9D9" fill-opacity="0.4"/>
<rect x="394.758" y="118.783" width="103.14" height="6.58834" fill="#D9D9D9" fill-opacity="0.4"/>
<rect x="365.754" y="131.887" width="103.14" height="6.58834" fill="#D9D9D9" fill-opacity="0.4"/>
<rect x="380.352" y="144.484" width="103.14" height="6.58834" fill="#D9D9D9" fill-opacity="0.4"/>
<rect x="392.652" y="157.082" width="103.14" height="6.58834" fill="#D9D9D9" fill-opacity="0.4"/>
<rect x="392.652" y="169.68" width="103.14" height="6.58834" fill="#D9D9D9" fill-opacity="0.4"/>
<rect x="392.652" y="182.277" width="103.14" height="6.58834" fill="#D9D9D9" fill-opacity="0.4"/>
<rect x="365.754" y="193.082" width="63.2828" height="6.58834" fill="#D9D9D9" fill-opacity="0.4"/>
<rect x="379.531" y="205.682" width="80.5047" height="6.58834" fill="#D9D9D9" fill-opacity="0.4"/>
<rect x="392.652" y="218.277" width="107.403" height="6.58834" fill="#D9D9D9" fill-opacity="0.4"/>
<rect x="332.582" y="83.498" width="28.1381" height="6.58834" fill="#D9D9D9" fill-opacity="0.4"/>
<rect x="332.582" y="95.5938" width="28.1381" height="6.58834" fill="#D9D9D9" fill-opacity="0.4"/>
<rect x="332.582" y="107.691" width="28.1381" height="6.58834" fill="#D9D9D9" fill-opacity="0.4"/>
<rect x="332.582" y="119.789" width="28.1381" height="6.58834" fill="#D9D9D9" fill-opacity="0.4"/>
<rect x="332.582" y="131.887" width="28.1381" height="6.58834" fill="#D9D9D9" fill-opacity="0.4"/>
<rect x="332.582" y="143.984" width="28.1381" height="6.58834" fill="#D9D9D9" fill-opacity="0.4"/>
<rect x="332.582" y="156.08" width="28.1381" height="6.58834" fill="#D9D9D9" fill-opacity="0.4"/>
<rect x="332.582" y="168.178" width="28.1381" height="6.58834" fill="#D9D9D9" fill-opacity="0.4"/>
<rect x="332.582" y="180.275" width="28.1381" height="6.58834" fill="#D9D9D9" fill-opacity="0.4"/>
<rect x="332.582" y="192.373" width="28.1381" height="6.58834" fill="#D9D9D9" fill-opacity="0.4"/>
<rect x="332.582" y="204.471" width="28.1381" height="6.58834" fill="#D9D9D9" fill-opacity="0.4"/>
<rect x="332.582" y="216.566" width="28.1381" height="6.58834" fill="#D9D9D9" fill-opacity="0.4"/>
<rect x="320.531" y="61.5586" width="1.27968" height="167.611" fill="#D9D9D9" fill-opacity="0.4"/>
<rect x="228.535" y="82.9941" width="82.693" height="7.59117" fill="#D9D9D9" fill-opacity="0.4"/>
<rect x="228.535" y="95.5938" width="82.693" height="7.59117" fill="#D9D9D9" fill-opacity="0.4"/>
<rect x="228.535" y="108.191" width="82.693" height="7.59117" fill="#D9D9D9" fill-opacity="0.4"/>
<rect x="228.535" y="120.789" width="82.693" height="7.59117" fill="#D9D9D9" fill-opacity="0.4"/>
<rect x="228.535" y="133.387" width="82.693" height="7.59117" fill="#D9D9D9" fill-opacity="0.4"/>
<rect x="228.535" y="145.984" width="82.693" height="7.59117" fill="#D9D9D9" fill-opacity="0.4"/>
<rect x="255.184" y="158.582" width="56.0436" height="7.59117" fill="#D9D9D9" fill-opacity="0.4"/>
<rect x="228.535" y="158.582" width="24.6246" height="7.59117" fill="#D9D9D9" fill-opacity="0.4"/>
<rect x="228.535" y="171.18" width="24.6246" height="7.59117" fill="#D9D9D9" fill-opacity="0.4"/>
<rect x="228.535" y="183.779" width="24.6246" height="7.59117" fill="#D9D9D9" fill-opacity="0.4"/>
<rect x="228.535" y="196.379" width="24.6246" height="7.59117" fill="#D9D9D9" fill-opacity="0.4"/>
<rect x="228.535" y="221.578" width="24.6246" height="7.59117" fill="#D9D9D9" fill-opacity="0.4"/>
<rect x="255.184" y="171.18" width="56.0436" height="7.59117" fill="#D9D9D9" fill-opacity="0.4"/>
<rect x="255.184" y="183.779" width="56.0436" height="7.59117" fill="#D9D9D9" fill-opacity="0.4"/>
<rect x="255.184" y="196.377" width="56.0436" height="7.59117" fill="#D9D9D9" fill-opacity="0.4"/>
<rect x="228.535" y="208.975" width="82.693" height="7.59117" fill="#D9D9D9" fill-opacity="0.4"/>
<rect x="255.184" y="221.572" width="56.0436" height="7.59117" fill="#D9D9D9" fill-opacity="0.4"/>
<rect x="264.84" y="296.865" width="193.437" height="13.3944" fill="#2C225D"/>
<g filter="url(#filter0_d_7461_45658)">
<rect width="15.9812" height="5.04584" transform="matrix(-0.5 0.866025 0.866025 0.5 190.484 98.3164)" fill="#7E9CF4"/>
<rect width="21.5921" height="6.0619" transform="matrix(-0.5 0.866025 0.866025 0.5 196.297 98.3359)" fill="#91B4FA"/>
<circle cx="7.04949" cy="7.04949" r="7.04949" transform="matrix(-0.5 0.866025 0.866025 0.5 194.422 101.58)" fill="#91B4FA"/>
<path fill-rule="evenodd" clip-rule="evenodd" d="M211.283 99.2227L194.673 112.247L196.924 115.119L210.791 104.246L222.279 117.609L225.047 115.23L211.286 99.2244L211.285 99.225L211.283 99.2227Z" fill="#91B4FA"/>
<rect width="7.2059" height="20.6699" transform="matrix(-0.5 0.866025 0.866025 0.5 170.625 91.3086)" fill="#170D88"/>
<path fill-rule="evenodd" clip-rule="evenodd" d="M247.84 95.6592C250.508 95.3923 252.887 97.3384 253.154 100.006C253.381 102.278 255.168 104.057 257.406 104.509C260.287 105.09 263.082 105.939 265.759 107.032C267.875 107.895 270.349 107.4 271.795 105.631C273.494 103.555 276.554 103.249 278.63 104.948L286.537 111.416C288.613 113.115 288.919 116.175 287.221 118.251C285.774 120.02 285.779 122.543 287.044 124.445C288.645 126.853 290.031 129.423 291.171 132.132C292.058 134.237 294.156 135.636 296.429 135.409C299.097 135.142 301.476 137.088 301.743 139.756L302.761 149.925C303.028 152.593 301.081 154.973 298.413 155.24C296.141 155.467 294.361 157.254 293.909 159.493C293.328 162.374 292.479 165.168 291.387 167.845C290.524 169.961 291.019 172.435 292.788 173.882C294.864 175.58 295.17 178.641 293.472 180.717L287.004 188.624C285.305 190.7 282.245 191.006 280.169 189.308C278.4 187.861 275.877 187.866 273.975 189.131C271.567 190.733 268.996 192.119 266.287 193.26C264.183 194.146 262.784 196.244 263.012 198.516C263.279 201.183 261.332 203.562 258.665 203.829L248.493 204.847C245.826 205.114 243.448 203.168 243.181 200.501C242.953 198.229 241.167 196.45 238.929 195.999C236.046 195.418 233.25 194.569 230.571 193.476C228.456 192.613 225.983 193.108 224.537 194.875C222.839 196.951 219.78 197.257 217.704 195.559L209.795 189.088C207.719 187.39 207.413 184.332 209.111 182.256C210.557 180.489 210.552 177.967 209.287 176.065C207.685 173.656 206.297 171.083 205.156 168.372C204.271 166.269 202.174 164.871 199.903 165.098C197.236 165.365 194.858 163.419 194.591 160.753L193.573 150.578C193.306 147.912 195.251 145.534 197.918 145.267C200.189 145.039 201.968 143.253 202.419 141.016C203 138.133 203.85 135.336 204.943 132.657C205.806 130.543 205.311 128.07 203.544 126.624C201.468 124.926 201.162 121.867 202.86 119.792L209.331 111.882C211.029 109.806 214.088 109.5 216.164 111.198C217.931 112.644 220.453 112.639 222.354 111.375C224.764 109.772 227.336 108.385 230.047 107.244C232.151 106.359 233.55 104.261 233.323 101.99C233.056 99.3225 235.001 96.944 237.669 96.6771L247.84 95.6592ZM251.082 179.346C235.015 180.953 220.688 169.232 219.08 153.166C217.472 137.099 229.193 122.771 245.26 121.164C261.326 119.556 275.654 131.277 277.262 147.343C278.87 163.41 267.148 177.738 251.082 179.346Z" fill="#9065B0"/>
<path fill-rule="evenodd" clip-rule="evenodd" d="M301.773 23.1933C303.533 23.0172 305.102 24.3009 305.278 26.0605C305.428 27.559 306.606 28.7326 308.083 29.0304C309.983 29.4137 311.827 29.9739 313.593 30.6946C314.988 31.264 316.62 30.9374 317.574 29.7711C318.694 28.4016 320.713 28.1996 322.082 29.3199L327.298 33.5865C328.667 34.707 328.869 36.7256 327.749 38.0952C326.795 39.2617 326.798 40.9259 327.632 42.1807C328.689 43.7688 329.603 45.4644 330.355 47.2512C330.939 48.6396 332.324 49.5624 333.823 49.4124C335.582 49.2363 337.152 50.5203 337.328 52.2803L337.999 58.9875C338.175 60.7475 336.891 62.3171 335.131 62.4932C333.633 62.6432 332.459 63.822 332.161 65.2987C331.778 67.1991 331.218 69.0422 330.497 70.808C329.928 72.2034 330.254 73.8353 331.421 74.7895C332.791 75.91 332.993 77.9287 331.872 79.2984L327.606 84.5137C326.485 85.8832 324.467 86.0852 323.097 84.9648C321.931 84.0106 320.267 84.0139 319.012 84.8484C317.424 85.9047 315.728 86.8191 313.941 87.5714C312.553 88.1558 311.63 89.5398 311.78 91.0383C311.956 92.798 310.673 94.3673 308.913 94.5434L302.204 95.2148C300.445 95.3908 298.876 94.1073 298.7 92.348C298.55 90.8495 297.371 89.676 295.895 89.3784C293.993 88.9952 292.149 88.4348 290.382 87.7138C288.987 87.1447 287.356 87.4712 286.402 88.6372C285.282 90.0063 283.264 90.2082 281.895 89.0882L276.678 84.82C275.309 83.7001 275.107 81.6825 276.227 80.3135C277.181 79.1476 277.177 77.4841 276.343 76.23C275.286 74.6407 274.371 72.9438 273.618 71.1555C273.034 69.7679 271.651 68.8457 270.153 68.9956C268.394 69.1716 266.826 67.8884 266.649 66.1295L265.978 59.4183C265.802 57.6594 267.085 56.0908 268.844 55.9148C270.342 55.7649 271.515 54.5869 271.813 53.1111C272.196 51.2091 272.757 49.3644 273.478 47.5972C274.047 46.2026 273.721 44.5716 272.555 43.6178C271.186 42.498 270.984 40.4804 272.104 39.1115L276.372 33.8939C277.492 32.5248 279.51 32.3229 280.879 33.4429C282.045 34.3967 283.708 34.3935 284.963 33.5593C286.552 32.5023 288.249 31.5876 290.037 30.835C291.425 30.2509 292.347 28.8672 292.197 27.3688C292.021 25.6096 293.305 24.0408 295.064 23.8647L301.773 23.1933ZM303.911 78.3936C293.314 79.4541 283.863 71.7227 282.802 61.1251C281.742 50.5275 289.473 41.0767 300.071 40.0162C310.669 38.9557 320.119 46.687 321.18 57.2847C322.24 67.8823 314.509 77.3331 303.911 78.3936Z" fill="#9065B0"/>
<path fill-rule="evenodd" clip-rule="evenodd" d="M334.803 142.566C335.967 142.566 336.911 143.51 336.911 144.675C336.911 145.666 337.606 146.513 338.554 146.805C339.774 147.18 340.945 147.668 342.055 148.256C342.932 148.721 344.023 148.614 344.724 147.912C345.548 147.088 346.884 147.088 347.708 147.912L350.845 151.05C351.669 151.873 351.669 153.209 350.845 154.033C350.143 154.735 350.036 155.826 350.501 156.702C351.089 157.812 351.577 158.983 351.952 160.203C352.244 161.151 353.091 161.846 354.083 161.846C355.247 161.846 356.191 162.791 356.191 163.955L356.191 168.394C356.191 169.559 355.247 170.503 354.083 170.503C353.091 170.503 352.244 171.198 351.952 172.146C351.577 173.366 351.089 174.537 350.501 175.647C350.036 176.524 350.143 177.614 350.845 178.316C351.669 179.14 351.669 180.476 350.845 181.3L347.708 184.437C346.884 185.261 345.548 185.261 344.724 184.437C344.023 183.735 342.932 183.628 342.055 184.093C340.945 184.681 339.774 185.169 338.554 185.545C337.607 185.836 336.911 186.683 336.911 187.674C336.911 188.839 335.967 189.783 334.803 189.783L330.363 189.783C329.199 189.783 328.255 188.839 328.255 187.675C328.255 186.683 327.56 185.837 326.612 185.545C325.391 185.17 324.22 184.682 323.109 184.093C322.233 183.629 321.142 183.736 320.441 184.437C319.617 185.261 318.282 185.261 317.459 184.437L314.32 181.299C313.496 180.475 313.496 179.14 314.32 178.317C315.021 177.615 315.128 176.525 314.664 175.649C314.075 174.538 313.587 173.366 313.211 172.145C312.92 171.198 312.074 170.503 311.082 170.503C309.918 170.503 308.975 169.559 308.975 168.395L308.975 163.954C308.975 162.79 309.918 161.846 311.082 161.846C312.074 161.846 312.92 161.152 313.211 160.204C313.587 158.983 314.075 157.811 314.664 156.701C315.128 155.824 315.021 154.734 314.32 154.033C313.496 153.209 313.496 151.874 314.32 151.051L317.459 147.912C318.282 147.088 319.617 147.088 320.441 147.912C321.142 148.613 322.233 148.72 323.109 148.256C324.22 147.668 325.391 147.18 326.612 146.804C327.56 146.512 328.255 145.666 328.255 144.674C328.255 143.51 329.199 142.566 330.363 142.566L334.803 142.566ZM332.585 178.874C325.572 178.874 319.886 173.189 319.886 166.175C319.886 159.162 325.572 153.477 332.585 153.477C339.598 153.477 345.283 159.162 345.283 166.175C345.283 173.189 339.598 178.874 332.585 178.874Z" fill="#9065B0"/>
<path fill-rule="evenodd" clip-rule="evenodd" d="M193.064 130.354L196.038 109.456L199.651 109.97L197.168 127.416L214.486 130.684L213.81 134.27L193.068 130.356L193.068 130.354L193.064 130.354Z" fill="#91B4FA"/>
</g>
<path d="M168.637 96.3047C168.637 106.402 137.591 130.745 114.386 125.948C110.303 124.521 107.716 125.029 106.932 125.461L105.15 134.454C110.038 135.642 118.129 141.649 111.389 156.167C102.962 174.316 98.7494 179.339 99.6407 188.575C100.532 197.812 106.284 229.652 85.7052 229.166" stroke="#333333"/>
<circle cx="15.4375" cy="15.4375" r="15.4375" transform="matrix(-1 0 0 1 87.5352 209.021)" fill="black" fill-opacity="0.87"/>
<path d="M169.91 98.2481C172.767 96.6952 173.473 92.9072 171.366 90.4298V90.4298C169.86 88.6585 167.35 88.1238 165.253 89.1276L109.303 115.906C105.592 117.682 104.335 122.347 106.651 125.747V125.747C108.594 128.599 112.38 129.515 115.411 127.868L169.91 98.2481Z" fill="#ECE8FC"/>
<path d="M115.369 126.841C116.854 122.43 114.262 117.69 109.747 116.561V116.561C105.811 115.577 101.764 117.704 100.343 121.504L61.4702 225.47C59.6856 230.243 61.8532 235.588 66.4583 237.769V237.769C71.7659 240.283 78.0782 237.601 79.9522 232.035L115.369 126.841Z" fill="#E9D6F8"/>
<path d="M82.9672 227.744C79.4278 222.661 72.5863 221.136 67.2228 224.232V224.232C61.5741 227.494 59.5948 234.689 62.7807 240.38L83.0091 276.518C86.6764 283.07 94.8707 285.545 101.552 282.118V282.118C109.07 278.263 111.463 268.663 106.634 261.729L82.9672 227.744Z" fill="#9F8EF0"/>
<circle cx="2.27878" cy="2.27878" r="2.27878" transform="matrix(-1 0 0 1 170.285 91.3086)" fill="white"/>
<circle cx="3.84009" cy="3.84009" r="3.84009" transform="matrix(-1 0 0 1 111.492 120.49)" fill="white"/>
<circle cx="1.80118" cy="1.80118" r="1.80118" transform="matrix(-1 0 0 1 105.238 134.25)" fill="black" fill-opacity="0.87"/>
<circle cx="1.55274" cy="1.55274" r="1.55274" transform="matrix(-1 0 0 1 75.2031 219.102)" fill="black" fill-opacity="0.87"/>
<circle cx="1.16081" cy="1.16081" r="1.16081" transform="matrix(-1 0 0 1 163.398 96.0137)" fill="black" fill-opacity="0.87"/>
<circle cx="5.90256" cy="5.90256" r="5.90256" transform="matrix(-1 0 0 1 78 226.465)" fill="#F4C06D"/>
<path d="M144.48 275.922C144.48 267.638 137.765 260.922 129.48 260.922H65.4058C57.1215 260.922 50.4058 267.638 50.4058 275.922V305.272H144.48V275.922Z" fill="#1C1348"/>
<path d="M168.637 310.261C168.637 302.987 162.74 297.09 155.465 297.09H41.3012V310.261H168.637V310.261Z" fill="#6A40AD"/>
<circle cx="2.89774" cy="2.89774" r="2.89774" transform="matrix(-1 0 0 1 135.996 268.359)" fill="#F4C06D"/>
<circle cx="2.89774" cy="2.89774" r="2.89774" transform="matrix(-1 0 0 1 127.137 268.359)" fill="#D9D9D9"/>
<circle cx="2.89774" cy="2.89774" r="2.89774" transform="matrix(-1 0 0 1 63.3281 268.359)" fill="#F4C06D"/>
<rect x="446.582" y="2.38672" width="161.961" height="165.792" rx="9" fill="#885FC7"/>
<rect x="454.465" y="10.2832" width="146.198" height="150" rx="3" fill="#F8F0FF"/>
<path d="M590.252 80.3585H565.139L557.121 71.4004H540.24L521.361 97.9708H515.133H489.566L464.375 115.012L479.06 93.4414L489.566 87.364L500.428 90.8284L514.757 87.364L558.962 115.012" stroke="#DEC6F2" stroke-width="2"/>
<path d="M565.596 90.8979L590.33 64.9395L590.252 80.3594L589.952 115.013H534.008H464.375L489.647 112.143L515.133 104.269L540.24 87.3648L565.596 90.8979Z" fill="white"/>
<rect x="464.375" y="31.5605" width="72.5944" height="5.00433" rx="2.50217" fill="#DEC6F2"/>
<rect x="464.375" y="42.7539" width="72.5944" height="5.00433" rx="2.50217" fill="#DEC6F2"/>
<rect x="464.375" y="53.9473" width="51.0902" height="5.00433" rx="2.50217" fill="#DEC6F2"/>
<rect x="464.375" y="128.441" width="125.955" height="3.44439" fill="white"/>
<rect x="464.297" y="135.18" width="93.7344" height="3.44439" fill="white"/>
<rect width="29.8867" height="3.44439" transform="matrix(-1 0 0 1 590.328 135.18)" fill="white"/>
<rect x="464.297" y="142.762" width="36.9102" height="3.44439" fill="white"/>
<rect x="563.629" y="29.8262" width="26.1221" height="26.1221" rx="2.5" stroke="#DEC6F2"/>
<path d="M576.654 33.7782V43.3927L571.903 51.7528C569.191 50.0183 567.395 46.9811 567.395 43.5249C567.395 38.3027 571.496 34.0385 576.654 33.7782ZM572.772 52.2476L577.445 44.0249H586.9C586.64 49.1824 582.376 53.2841 577.154 53.2841C575.577 53.2841 574.089 52.9107 572.772 52.2476ZM577.654 40.1687V33.7782C578.293 33.8105 578.916 33.9042 579.517 34.0536L577.654 40.1687ZM578.066 42.2477L580.474 34.3448C582.169 34.9578 583.646 36.0273 584.756 37.4053L578.066 42.2477ZM585.343 38.2149C586.251 39.6122 586.811 41.256 586.9 43.0249H578.697L585.343 38.2149Z" stroke="#DEC6F2"/>
<defs>
<filter id="filter0_d_7461_45658" x="159.023" y="19.1777" width="205.168" height="197.693" filterUnits="userSpaceOnUse" color-interpolation-filters="sRGB">
<feFlood flood-opacity="0" result="BackgroundImageFix"/>
<feColorMatrix in="SourceAlpha" type="matrix" values="0 0 0 0 0 0 0 0 0 0 0 0 0 0 0 0 0 0 127 0" result="hardAlpha"/>
<feOffset dy="4"/>
<feGaussianBlur stdDeviation="4"/>
<feComposite in2="hardAlpha" operator="out"/>
<feColorMatrix type="matrix" values="0 0 0 0 0 0 0 0 0 0 0 0 0 0 0 0 0 0 0.16 0"/>
<feBlend mode="normal" in2="BackgroundImageFix" result="effect1_dropShadow_7461_45658"/>
<feBlend mode="normal" in="SourceGraphic" in2="effect1_dropShadow_7461_45658" result="shape"/>
</filter>
</defs>
</svg>
