<svg width="752" height="424" viewBox="0 0 752 424" fill="none" xmlns="http://www.w3.org/2000/svg">
<path d="M510.449 37.1663C538.412 50.6302 550.84 91.7988 558.608 131.155C566.376 170.252 569.224 207.278 559.385 240.938C549.287 274.598 526.761 304.892 497.502 331.561C468.244 357.971 432.254 381.015 390.827 388.783C349.399 396.291 302.275 389.041 266.544 364.703C230.813 340.105 206.474 298.678 194.305 254.661C182.394 210.644 182.394 164.297 204.144 133.226C225.893 102.415 269.133 87.1382 304.864 76.2635C340.596 65.3888 368.559 59.1746 404.032 48.8177C439.763 38.4609 482.744 23.9612 510.449 37.1663Z" fill="#FBF7FF"/>
<path fill-rule="evenodd" clip-rule="evenodd" d="M290.687 247.441C288.411 247.441 286.566 249.286 286.566 251.562C286.566 253.501 285.207 255.155 283.355 255.725C280.97 256.46 278.681 257.413 276.512 258.563C274.798 259.47 272.666 259.261 271.295 257.89C269.685 256.28 267.074 256.28 265.464 257.89L259.332 264.022C257.722 265.632 257.722 268.243 259.332 269.854C260.703 271.225 260.912 273.357 260.005 275.071C258.856 277.239 257.902 279.528 257.168 281.913C256.598 283.765 254.943 285.124 253.004 285.124C250.728 285.124 248.883 286.97 248.883 289.246V297.922C248.883 300.198 250.728 302.043 253.004 302.043C254.943 302.043 256.597 303.402 257.168 305.255C257.902 307.64 258.855 309.928 260.004 312.097C260.912 313.811 260.703 315.943 259.332 317.314C257.721 318.924 257.721 321.535 259.332 323.146L265.464 329.278C267.074 330.888 269.685 330.888 271.295 329.278C272.666 327.907 274.797 327.698 276.511 328.605C278.681 329.755 280.97 330.709 283.355 331.443C285.207 332.014 286.566 333.668 286.566 335.606C286.566 337.882 288.411 339.727 290.687 339.727H299.365C301.64 339.727 303.485 337.882 303.485 335.607C303.485 333.668 304.843 332.015 306.695 331.445C309.082 330.71 311.372 329.756 313.542 328.606C315.255 327.699 317.386 327.908 318.757 329.279C320.367 330.888 322.976 330.888 324.586 329.279L330.721 323.144C332.33 321.535 332.33 318.925 330.721 317.316C329.35 315.945 329.141 313.814 330.048 312.101C331.198 309.93 332.153 307.64 332.887 305.253C333.458 303.401 335.111 302.043 337.049 302.043C339.324 302.043 341.168 300.199 341.168 297.924V289.244C341.168 286.969 339.324 285.124 337.048 285.124C335.111 285.124 333.457 283.766 332.887 281.914C332.152 279.528 331.198 277.237 330.048 275.067C329.14 273.354 329.35 271.223 330.72 269.852C332.33 268.243 332.33 265.633 330.72 264.023L324.586 257.889C322.976 256.279 320.366 256.279 318.756 257.889C317.386 259.26 315.255 259.469 313.541 258.562C311.371 257.412 309.082 256.458 306.696 255.724C304.843 255.154 303.485 253.5 303.485 251.562C303.485 249.286 301.64 247.441 299.364 247.441H290.687ZM295.023 318.404C308.73 318.404 319.842 307.292 319.842 293.585C319.842 279.878 308.73 268.766 295.023 268.766C281.316 268.766 270.204 279.878 270.204 293.585C270.204 307.292 281.316 318.404 295.023 318.404Z" fill="#F0E3FB"/>
<path fill-rule="evenodd" clip-rule="evenodd" d="M354.363 242.295C353.161 242.716 352.528 244.032 352.949 245.234C353.308 246.257 352.897 247.382 352.024 248.026C350.9 248.856 349.868 249.783 348.935 250.791C348.198 251.588 347.034 251.872 346.056 251.402C344.908 250.849 343.529 251.332 342.977 252.48L340.873 256.854C340.32 258.003 340.803 259.381 341.952 259.934C342.93 260.404 343.434 261.491 343.272 262.564C343.067 263.922 342.987 265.308 343.04 266.703C343.082 267.787 342.459 268.811 341.435 269.17C340.233 269.591 339.6 270.908 340.021 272.11L341.626 276.691C342.047 277.894 343.364 278.527 344.566 278.106C345.59 277.747 346.716 278.158 347.36 279.032C348.189 280.155 349.116 281.186 350.124 282.119C350.92 282.856 351.204 284.021 350.734 284.999C350.181 286.148 350.664 287.527 351.813 288.08L356.186 290.183C357.334 290.736 358.713 290.253 359.266 289.104C359.736 288.126 360.824 287.621 361.897 287.783C363.255 287.989 364.64 288.069 366.035 288.016C367.119 287.974 368.143 288.596 368.502 289.62C368.923 290.822 370.239 291.455 371.441 291.034L376.024 289.428C377.226 289.007 377.859 287.692 377.437 286.49C377.079 285.466 377.49 284.341 378.363 283.697C379.487 282.868 380.52 281.94 381.454 280.932C382.191 280.135 383.355 279.851 384.333 280.322C385.481 280.874 386.86 280.391 387.412 279.243L389.516 274.868C390.069 273.72 389.586 272.342 388.438 271.79C387.46 271.319 386.955 270.233 387.117 269.16C387.323 267.801 387.403 266.414 387.35 265.018C387.308 263.935 387.93 262.912 388.953 262.553C390.154 262.132 390.787 260.817 390.366 259.616L388.76 255.031C388.339 253.829 387.024 253.197 385.822 253.618C384.799 253.976 383.675 253.565 383.031 252.692C382.201 251.568 381.273 250.534 380.264 249.6C379.468 248.864 379.184 247.7 379.654 246.722C380.206 245.575 379.723 244.197 378.575 243.644L374.2 241.54C373.052 240.987 371.674 241.47 371.122 242.618C370.651 243.596 369.565 244.1 368.492 243.938C367.133 243.733 365.747 243.652 364.351 243.706C363.267 243.748 362.243 243.126 361.885 242.102C361.464 240.901 360.148 240.268 358.947 240.689L354.363 242.295ZM369.784 278.97C377.024 276.434 380.836 268.509 378.299 261.27C375.763 254.031 367.838 250.218 360.599 252.755C353.359 255.291 349.547 263.216 352.084 270.455C354.62 277.695 362.545 281.507 369.784 278.97Z" fill="#F0E3FB"/>
<path fill-rule="evenodd" clip-rule="evenodd" d="M371.456 311.648C370.732 311.901 370.35 312.695 370.604 313.419C370.82 314.036 370.572 314.714 370.046 315.103C369.37 315.602 368.748 316.16 368.186 316.768C367.742 317.248 367.04 317.419 366.45 317.136C365.758 316.803 364.927 317.094 364.593 317.786L363.327 320.42C362.993 321.112 363.285 321.944 363.977 322.277C364.567 322.561 364.872 323.216 364.774 323.863C364.65 324.68 364.602 325.513 364.634 326.352C364.659 327.006 364.284 327.624 363.666 327.841C362.941 328.095 362.559 328.889 362.813 329.614L363.779 332.372C364.033 333.097 364.827 333.479 365.552 333.225C366.17 333.009 366.849 333.257 367.237 333.783C367.736 334.46 368.294 335.081 368.901 335.643C369.381 336.087 369.552 336.79 369.269 337.379C368.935 338.072 369.227 338.903 369.919 339.236L372.553 340.504C373.245 340.836 374.076 340.545 374.409 339.853C374.693 339.264 375.348 338.959 375.995 339.057C376.814 339.181 377.648 339.23 378.489 339.198C379.142 339.173 379.759 339.548 379.975 340.164C380.229 340.889 381.022 341.27 381.746 341.016L384.508 340.048C385.232 339.795 385.613 339.002 385.36 338.279C385.144 337.662 385.392 336.984 385.917 336.597C386.595 336.097 387.218 335.537 387.781 334.929C388.225 334.45 388.926 334.279 389.514 334.562C390.206 334.894 391.036 334.604 391.369 333.912L392.638 331.274C392.97 330.583 392.679 329.753 391.988 329.421C391.399 329.138 391.096 328.483 391.193 327.838C391.318 327.017 391.366 326.18 391.334 325.337C391.308 324.685 391.683 324.069 392.299 323.853C393.022 323.6 393.403 322.808 393.149 322.085L392.18 319.32C391.927 318.597 391.135 318.216 390.412 318.469C389.796 318.685 389.119 318.438 388.731 317.912C388.231 317.234 387.671 316.611 387.062 316.048C386.583 315.605 386.412 314.904 386.695 314.315C387.027 313.624 386.737 312.794 386.045 312.461L383.408 311.193C382.716 310.86 381.886 311.151 381.553 311.843C381.27 312.431 380.615 312.736 379.969 312.638C379.15 312.514 378.315 312.466 377.474 312.498C376.821 312.524 376.204 312.149 375.988 311.532C375.734 310.808 374.942 310.426 374.217 310.68L371.456 311.648ZM380.75 333.747C385.112 332.218 387.409 327.443 385.881 323.081C384.353 318.719 379.577 316.422 375.215 317.95C370.853 319.479 368.556 324.254 370.084 328.616C371.613 332.978 376.388 335.275 380.75 333.747Z" fill="#F0E3FB"/>
<path d="M416.736 237.486L404.922 225.053H506.755C502.79 233.07 499.129 237.157 491.868 243.832C484.606 250.508 475.433 253.209 470.108 254.763C464.783 256.317 456.451 256.597 448.578 255.502C440.705 254.406 433.746 250.732 430.28 248.867C427.508 247.375 423.204 243.936 421.399 242.403L416.736 237.486Z" fill="#1C1348"/>
<path d="M185.116 145.331C174.248 160.494 167.824 179.242 167.824 199.535C167.824 223.309 176.642 244.962 191.092 261.216L215.711 237.597C206.86 227.532 201.469 214.182 201.469 199.534C201.469 186.2 205.936 173.941 213.414 164.258L185.116 145.331Z" fill="#D6D3FF"/>
<path d="M356.905 174.525L380.03 198.858L414.025 234.629L390.576 259.725L355.797 223.565L332.801 199.657L315.297 181.457L340.682 157.455L356.905 174.525Z" fill="#C4A7F1"/>
<path d="M501.876 165.914C508.61 175.322 512.589 186.949 512.589 199.534C512.589 213.075 507.982 225.507 500.293 235.26L524.262 259.725C537.942 243.65 546.234 222.589 546.234 199.535C546.234 180.024 540.295 161.942 530.179 147.101L501.876 165.914Z" fill="#D6D3FF"/>
<path d="M396.274 265.652C412.197 281.297 433.763 290.903 457.508 290.903C484.12 290.903 507.996 278.837 524.258 259.727L500.289 235.261C490.191 248.07 474.778 256.255 457.508 256.255C443.615 256.255 430.925 250.958 421.234 242.218L414.023 234.631L390.574 259.727L396.274 265.652Z" fill="#CEBAF7"/>
<path d="M457.511 108.168C434.149 108.168 412.896 117.467 397.051 132.667L375.594 155.04L400.634 177.855L421.237 156.851C430.928 148.111 443.618 142.815 457.511 142.815C475.71 142.815 491.847 151.904 501.875 165.915L530.178 147.101C514.129 123.557 487.565 108.168 457.511 108.168Z" fill="#CEBAF7"/>
<path d="M256.548 256.254C240.353 256.254 225.79 249.056 215.712 237.597L191.094 261.217C207.315 279.461 230.634 290.903 256.548 290.903C272.643 290.903 287.738 286.489 300.753 278.772C301.481 278.34 302.094 277.857 302.786 277.312L302.86 277.253C303.583 276.684 305.791 274.546 305.791 274.546L327.143 252.778L303.732 229.97L299.612 234.265L291.964 242.241C291.964 242.241 289.705 244.524 288.727 245.321C287.75 246.117 286.9 246.888 285.877 247.552C277.385 253.065 267.328 256.254 256.548 256.254Z" fill="#CEBAF7"/>
<path d="M318.938 134.576C302.911 118.249 280.872 108.168 256.547 108.168C227.253 108.168 201.274 122.789 185.117 145.332L213.414 164.259C223.505 151.192 239.076 142.815 256.547 142.815C268.094 142.815 278.81 146.474 287.665 152.728L308.97 174.879L315.297 181.458L340.683 157.456L318.938 134.576Z" fill="#CEBAF7"/>
<path d="M380.03 198.859L355.796 223.565L327.141 252.778L303.73 229.969L332.8 199.658L356.904 174.526L375.592 155.04L400.632 177.855L380.03 198.859Z" fill="#D3C4F7"/>
<path d="M341.378 133.305C340.936 134.104 339.979 134.465 339.119 134.157V134.157C338.133 133.804 337.632 132.707 338.01 131.73L344.099 116.029C344.827 114.151 347.161 113.509 348.748 114.75V114.75C349.91 115.659 350.24 117.277 349.526 118.568L341.378 133.305Z" fill="#EAD2FC"/>
<path d="M361.19 148.8C360.521 149.422 360.401 150.437 360.907 151.198V151.198C361.488 152.07 362.673 152.292 363.53 151.689L377.302 141.999C378.95 140.84 379.011 138.419 377.424 137.178V137.178C376.262 136.269 374.612 136.339 373.531 137.343L361.19 148.8Z" fill="#EAD2FC"/>
<rect x="384.293" y="106.052" width="8.01494" height="16.9993" transform="rotate(-141.968 384.293 106.052)" fill="#9065B0"/>
<path d="M378.617 118.725L366.614 109.336L371.148 103.54C373.74 100.225 378.529 99.6399 381.844 102.232V102.232C385.158 104.825 385.743 109.614 383.151 112.928L378.617 118.725Z" fill="#9F8EF0"/>
<rect x="378.25" y="119.199" width="15.2389" height="4.19836" transform="rotate(-141.968 378.25 119.199)" fill="#9F8EF0"/>
<rect x="378.25" y="119.199" width="15.2389" height="4.19836" transform="rotate(-141.968 378.25 119.199)" fill="black" fill-opacity="0.2"/>
<path fill-rule="evenodd" clip-rule="evenodd" d="M375.696 116.442L369.32 111.455C368.883 109.237 366.878 107.653 364.6 107.763L364.583 107.749L364.571 107.764C364.502 107.768 364.432 107.773 364.363 107.78L348.634 109.347C345.073 109.702 342.708 113.201 343.705 116.637C344.562 119.587 347.593 121.334 350.575 120.597L363.135 117.492L371.328 123.901L371.339 136.837C371.342 139.909 373.768 142.43 376.837 142.551C380.413 142.691 383.239 139.553 382.726 136.012L380.459 120.369C380.116 118.007 378.032 116.327 375.696 116.442Z" fill="#9F8EF0"/>
<circle cx="376.97" cy="136.731" r="2.04117" transform="rotate(-141.968 376.97 136.731)" fill="black"/>
<circle cx="375.266" cy="121.214" r="1.33874" transform="rotate(-141.968 375.266 121.214)" fill="black"/>
<circle cx="365.192" cy="113.331" r="1.33874" transform="rotate(-141.968 365.192 113.331)" fill="black"/>
<circle cx="349.103" cy="114.933" r="2.04117" transform="rotate(-141.968 349.103 114.933)" fill="black"/>
<path fill-rule="evenodd" clip-rule="evenodd" d="M344.74 130.069C343.965 130.144 343.398 130.833 343.473 131.607C343.536 132.267 343.128 132.875 342.516 133.13C341.728 133.458 340.981 133.858 340.28 134.321C339.727 134.686 338.995 134.685 338.483 134.263C337.883 133.768 336.995 133.854 336.5 134.455L334.613 136.745C334.119 137.345 334.204 138.233 334.805 138.728C335.316 139.149 335.458 139.867 335.205 140.48C334.885 141.257 334.635 142.068 334.464 142.904C334.33 143.553 333.812 144.07 333.153 144.134C332.378 144.209 331.811 144.897 331.886 145.672L332.171 148.625C332.246 149.399 332.934 149.966 333.709 149.892C334.369 149.828 334.976 150.236 335.231 150.848C335.56 151.635 335.959 152.383 336.422 153.084C336.788 153.638 336.786 154.37 336.365 154.882C335.87 155.483 335.955 156.371 336.556 156.867L338.844 158.751C339.445 159.247 340.334 159.161 340.83 158.56C341.251 158.048 341.97 157.906 342.584 158.159C343.36 158.479 344.17 158.728 345.006 158.899C345.655 159.032 346.171 159.55 346.235 160.21C346.309 160.984 346.998 161.551 347.772 161.476L350.726 161.191C351.5 161.116 352.067 160.428 351.993 159.653C351.929 158.994 352.337 158.387 352.948 158.132C353.736 157.803 354.484 157.404 355.184 156.941C355.738 156.576 356.47 156.577 356.982 156.999C357.583 157.494 358.472 157.408 358.967 156.807L360.852 154.519C361.347 153.918 361.261 153.029 360.66 152.534C360.148 152.112 360.007 151.393 360.259 150.78C360.579 150.004 360.828 149.194 361 148.359C361.133 147.71 361.651 147.193 362.311 147.13C363.085 147.055 363.652 146.366 363.578 145.592L363.292 142.638C363.218 141.864 362.529 141.297 361.755 141.372C361.095 141.435 360.488 141.027 360.233 140.416C359.905 139.628 359.505 138.88 359.043 138.18C358.677 137.627 358.679 136.895 359.1 136.383C359.595 135.783 359.509 134.895 358.908 134.4L356.619 132.513C356.018 132.019 355.13 132.104 354.636 132.705C354.214 133.216 353.496 133.357 352.884 133.105C352.107 132.785 351.297 132.535 350.46 132.363C349.811 132.23 349.294 131.712 349.23 131.052C349.156 130.277 348.467 129.709 347.692 129.784L344.74 130.069ZM348.542 154.079C353.207 153.628 356.623 149.482 356.173 144.817C355.722 140.152 351.576 136.735 346.911 137.186C342.246 137.636 338.83 141.783 339.28 146.448C339.731 151.113 343.877 154.529 348.542 154.079Z" fill="#9065B0"/>
<rect x="401.809" y="78.8525" width="21.3674" height="9.23239" transform="rotate(-6.5277 401.809 78.8525)" fill="#9065B0"/>
<rect x="473.148" y="94.5283" width="5.03051" height="12.0611" rx="2.51526" transform="rotate(-45 473.148 94.5283)" fill="#1C1348"/>
<rect x="469.121" y="121.732" width="14.4978" height="25.9575" transform="rotate(-41.1077 469.121 121.732)" fill="#9065B0"/>
<path d="M497.113 146.798C512.689 146.798 525.318 134.171 525.318 118.592C525.318 103.014 512.689 90.3867 497.113 90.3867C481.535 90.3867 468.906 103.014 468.906 118.592H471.716C471.716 104.566 483.087 93.1964 497.113 93.1964C511.137 93.1964 522.508 104.566 522.508 118.592C522.508 132.619 511.137 143.989 497.113 143.989V146.798Z" fill="#1C1348"/>
<rect x="499.969" y="117.499" width="51.7423" height="117.034" rx="25.8711" transform="rotate(41.741 499.969 117.499)" fill="#9F8EF0"/>
<path d="M451.83 67.7378C446.97 62.5675 438.934 62.049 433.449 66.5517C427.958 71.0595 426.906 79.0542 431.044 84.829L463.586 130.015L489.748 107.862L451.83 67.7378Z" fill="#9F8EF0"/>
<path d="M441.678 89.5999L437.271 68.8076L417.804 71.1641L420.612 91.5878L441.678 89.5999Z" fill="#9F8EF0"/>
<path d="M385.318 84.8426C385.812 90.353 390.693 94.411 396.201 93.8912L409.026 92.6811L406.705 72.5077L394.063 74.0379C388.708 74.6861 384.836 79.4701 385.318 84.8426Z" fill="#9F8EF0"/>
<path d="M467.639 125.252C470.395 128.141 474.018 135.178 466.456 140.22C457.004 146.522 438.491 152.825 435.537 167.595C433.173 179.412 439.672 186.043 443.217 187.881" stroke="black"/>
<rect x="432.711" y="178.819" width="46.6474" height="71.4424" rx="23.3237" fill="#1C1348"/>
<path d="M454.171 205.575L455.837 209.242L457.504 205.575L461.171 203.909L457.504 202.242L455.837 198.575L454.171 202.242L450.504 203.909L454.171 205.575Z" fill="white" fill-opacity="0.6"/>
<path fill-rule="evenodd" clip-rule="evenodd" d="M454.421 218.964C453.678 218.964 453.076 218.362 453.076 217.619C453.076 216.987 452.633 216.447 452.029 216.261C451.251 216.022 450.504 215.71 449.796 215.335C449.237 215.039 448.541 215.107 448.094 215.555C447.569 216.08 446.717 216.08 446.191 215.555L444.191 213.554C443.665 213.029 443.665 212.177 444.191 211.651C444.638 211.204 444.706 210.508 444.41 209.949C444.035 209.241 443.724 208.495 443.485 207.717C443.298 207.112 442.759 206.669 442.126 206.669C441.383 206.669 440.781 206.067 440.781 205.324V202.493C440.781 201.751 441.383 201.149 442.126 201.149C442.759 201.149 443.298 200.705 443.485 200.101C443.724 199.323 444.035 198.576 444.41 197.868C444.706 197.309 444.638 196.613 444.191 196.166C443.665 195.64 443.665 194.789 444.191 194.263L446.191 192.262C446.717 191.737 447.569 191.737 448.094 192.262C448.541 192.71 449.237 192.778 449.796 192.482C450.504 192.107 451.251 191.796 452.029 191.556C452.633 191.37 453.076 190.83 453.076 190.198C453.076 189.455 453.678 188.853 454.421 188.853H457.252C457.995 188.853 458.597 189.455 458.597 190.198C458.597 190.83 459.04 191.37 459.644 191.556C460.423 191.795 461.17 192.107 461.878 192.482C462.437 192.778 463.132 192.71 463.58 192.262C464.105 191.737 464.956 191.737 465.482 192.262L467.483 194.264C468.008 194.789 468.008 195.64 467.483 196.166C467.036 196.613 466.968 197.308 467.264 197.867C467.639 198.575 467.95 199.323 468.19 200.101C468.376 200.705 468.916 201.149 469.548 201.149C470.29 201.149 470.892 201.75 470.892 202.493V205.325C470.892 206.067 470.29 206.669 469.548 206.669C468.916 206.669 468.376 207.112 468.19 207.716C467.95 208.495 467.639 209.242 467.264 209.95C466.968 210.509 467.036 211.204 467.483 211.652C468.008 212.177 468.008 213.028 467.483 213.553L465.482 215.555C464.956 216.08 464.105 216.08 463.58 215.555C463.132 215.108 462.437 215.039 461.878 215.336C461.17 215.711 460.423 216.022 459.644 216.262C459.04 216.448 458.597 216.987 458.597 217.62C458.597 218.362 457.995 218.964 457.252 218.964H454.421ZM455.836 195.81C460.308 195.81 463.933 199.436 463.933 203.908C463.933 208.38 460.308 212.006 455.836 212.006C451.363 212.006 447.738 208.38 447.738 203.908C447.738 199.436 451.363 195.81 455.836 195.81Z" fill="white" fill-opacity="0.2"/>
<path d="M153.366 117.001C156.597 117.001 159.672 116.33 162.459 115.121L174.728 141.624C168.211 144.56 160.98 146.194 153.369 146.194C134.826 146.194 118.549 136.499 109.328 121.902L135.035 107.8C139.202 113.385 145.862 117.001 153.366 117.001Z" fill="#FFBF01"/>
<path d="M130.508 94.1423C130.508 96.4782 130.859 98.7323 131.51 100.855L105.717 115.12C102.887 108.703 101.316 101.606 101.316 94.1423C101.316 75.2859 111.342 58.7719 126.354 49.6396L140.46 75.273C134.451 79.3916 130.508 86.3063 130.508 94.1423Z" fill="#A0BFFF"/>
<path d="M153.365 42.0898C146.311 42.0898 139.584 43.4931 133.449 46.0357L146.91 72.2067C148.956 71.6057 151.122 71.2833 153.363 71.2833C154.938 71.2833 156.477 71.4428 157.963 71.7464L165.494 43.5106C161.603 42.5817 157.541 42.0898 153.365 42.0898Z" fill="#5D81EC"/>
<path d="M205.421 94.1431C205.421 72.4489 192.149 53.8551 173.283 46.0361L163.707 73.7514C171.135 77.5259 176.224 85.2398 176.224 94.1431C176.224 101.05 173.161 107.241 168.319 111.432L182.22 137.473C196.207 128.142 205.421 112.218 205.421 94.1431Z" fill="#A0BFFF"/>
<path d="M164.965 120.534C161.418 122.096 157.497 122.962 153.371 122.962C143.611 122.962 134.983 118.109 129.77 110.687L135.035 107.8C139.202 113.385 145.861 117.001 153.366 117.001C156.596 117.001 159.672 116.33 162.459 115.121L164.965 120.534Z" fill="#FFA60B"/>
<path d="M126.206 103.789C125.135 100.773 124.551 97.5247 124.551 94.1415C124.551 84.0564 129.731 75.1831 137.574 70.0332L140.458 75.2726C134.449 79.3912 130.508 86.305 130.508 94.1415C130.508 96.4768 130.857 98.731 131.51 100.854L126.206 103.789Z" fill="#87ACE7"/>
<path d="M159.505 65.9773C157.527 65.5491 155.476 65.3232 153.371 65.3232C150.147 65.3232 147.043 65.8534 144.148 66.831L146.913 72.2068C148.96 71.605 151.124 71.2828 153.366 71.2828C153.716 71.2828 154.063 71.2911 154.407 71.3062C154.795 71.3241 155.181 71.3517 155.564 71.3875C155.949 71.4247 156.329 71.4701 156.707 71.5266C157.131 71.5885 157.549 71.6615 157.965 71.7455L159.505 65.9773Z" fill="#2B6ADC"/>
<path d="M165.668 68.0713C175.433 72.6856 182.189 82.6246 182.189 94.1418C182.189 103.333 177.884 111.521 171.184 116.797L168.32 111.431C173.161 107.24 176.224 101.049 176.224 94.1418C176.224 85.2382 171.134 77.5243 163.707 73.75L165.668 68.0713Z" fill="#87ACE7"/>
<path fill-rule="evenodd" clip-rule="evenodd" d="M442.626 86.415C447.621 86.415 451.67 82.3659 451.67 77.3711C451.67 72.3763 447.621 68.3271 442.626 68.3271C437.631 68.3271 433.582 72.3763 433.582 77.3711C433.582 82.3659 437.631 86.415 442.626 86.415ZM442.628 83.8799C446.222 83.8799 449.137 80.9656 449.137 77.3707C449.137 73.7757 446.222 70.8615 442.628 70.8615C439.033 70.8615 436.118 73.7757 436.118 77.3707C436.118 80.9656 439.033 83.8799 442.628 83.8799Z" fill="#9065B0"/>
<path fill-rule="evenodd" clip-rule="evenodd" d="M395.495 90.001C398.983 90.001 401.811 87.1735 401.811 83.6855C401.811 80.1976 398.983 77.3701 395.495 77.3701C392.007 77.3701 389.18 80.1976 389.18 83.6855C389.18 87.1735 392.007 90.001 395.495 90.001ZM395.495 88.4365C398.119 88.4365 400.246 86.3095 400.246 83.6857C400.246 81.0619 398.119 78.9349 395.495 78.9349C392.871 78.9349 390.744 81.0619 390.744 83.6857C390.744 86.3095 392.871 88.4365 395.495 88.4365Z" fill="white"/>
<path fill-rule="evenodd" clip-rule="evenodd" d="M501.694 166.737C509.02 166.737 514.959 160.799 514.959 153.473C514.959 146.147 509.02 140.208 501.694 140.208C494.368 140.208 488.43 146.147 488.43 153.473C488.43 160.799 494.368 166.737 501.694 166.737ZM501.693 162.542C506.702 162.542 510.762 158.482 510.762 153.473C510.762 148.465 506.702 144.405 501.693 144.405C496.685 144.405 492.625 148.465 492.625 153.473C492.625 158.482 496.685 162.542 501.693 162.542Z" fill="#9065B0"/>
<rect x="491.746" y="259.725" width="73.9219" height="46.2941" rx="8" fill="#9065B0"/>
<path fill-rule="evenodd" clip-rule="evenodd" d="M533.383 265.861L519.322 296.071L522.948 297.759L537.01 267.549L533.383 265.861ZM501.262 280.009L514.69 266.583L517.518 269.411L505.505 281.423L514.807 290.725L511.978 293.554L501.262 282.837L499.848 281.423L501.262 280.009ZM541.919 267.747L554.699 280.527L556.113 281.941L554.699 283.355L543.338 294.717L540.51 291.889L550.456 281.941L539.09 270.575L541.919 267.747Z" fill="white"/>
<g filter="url(#filter0_d_7461_45759)">
<path d="M196.91 308.589L215.09 290.41L211.48 286.799L196.91 301.369L189.561 294.02L185.951 297.63L196.91 308.589ZM182.47 320.967C181.052 320.967 179.837 320.462 178.827 319.452C177.817 318.442 177.312 317.228 177.312 315.809V279.708C177.312 278.29 177.817 277.076 178.827 276.066C179.837 275.056 181.052 274.551 182.47 274.551H218.571C219.989 274.551 221.204 275.056 222.214 276.066C223.224 277.076 223.729 278.29 223.729 279.708V315.809C223.729 317.228 223.224 318.442 222.214 319.452C221.204 320.462 219.989 320.967 218.571 320.967H182.47Z" fill="#34A853"/>
</g>
<path d="M215.092 290.41L196.912 308.59L185.953 297.63L189.563 294.02L196.912 301.369L211.482 286.8L215.092 290.41Z" fill="white"/>
<g filter="url(#filter1_d_7461_45759)">
<path d="M310.297 203.117H245.23C242.469 203.117 240.23 205.356 240.23 208.117V232.346C240.23 235.107 242.469 237.346 245.23 237.346H254.233C253.652 239.804 254.276 246.332 261.417 252.777C261.417 246.245 266.788 239.768 269.473 237.346H310.297C313.058 237.346 315.297 235.107 315.297 232.346V208.117C315.297 205.356 313.058 203.117 310.297 203.117Z" fill="white"/>
<circle cx="262.23" cy="219.932" r="5.12109" fill="#7601D3" fill-opacity="0.6"/>
<circle cx="277.762" cy="219.932" r="5.12109" fill="#7601D3" fill-opacity="0.6"/>
<circle cx="293.301" cy="219.932" r="5.12109" fill="#7601D3" fill-opacity="0.6"/>
</g>
<defs>
<filter id="filter0_d_7461_45759" x="173.312" y="274.551" width="54.4141" height="54.416" filterUnits="userSpaceOnUse" color-interpolation-filters="sRGB">
<feFlood flood-opacity="0" result="BackgroundImageFix"/>
<feColorMatrix in="SourceAlpha" type="matrix" values="0 0 0 0 0 0 0 0 0 0 0 0 0 0 0 0 0 0 127 0" result="hardAlpha"/>
<feOffset dy="4"/>
<feGaussianBlur stdDeviation="2"/>
<feComposite in2="hardAlpha" operator="out"/>
<feColorMatrix type="matrix" values="0 0 0 0 0 0 0 0 0 0 0 0 0 0 0 0 0 0 0.04 0"/>
<feBlend mode="normal" in2="BackgroundImageFix" result="effect1_dropShadow_7461_45759"/>
<feBlend mode="normal" in="SourceGraphic" in2="effect1_dropShadow_7461_45759" result="shape"/>
</filter>
<filter id="filter1_d_7461_45759" x="231.23" y="195.117" width="93.0664" height="67.6592" filterUnits="userSpaceOnUse" color-interpolation-filters="sRGB">
<feFlood flood-opacity="0" result="BackgroundImageFix"/>
<feColorMatrix in="SourceAlpha" type="matrix" values="0 0 0 0 0 0 0 0 0 0 0 0 0 0 0 0 0 0 127 0" result="hardAlpha"/>
<feMorphology radius="2" operator="dilate" in="SourceAlpha" result="effect1_dropShadow_7461_45759"/>
<feOffset dy="1"/>
<feGaussianBlur stdDeviation="3.5"/>
<feComposite in2="hardAlpha" operator="out"/>
<feColorMatrix type="matrix" values="0 0 0 0 0 0 0 0 0 0 0 0 0 0 0 0 0 0 0.1 0"/>
<feBlend mode="normal" in2="BackgroundImageFix" result="effect1_dropShadow_7461_45759"/>
<feBlend mode="normal" in="SourceGraphic" in2="effect1_dropShadow_7461_45759" result="shape"/>
</filter>
</defs>
</svg>
