<svg width="617" height="347" viewBox="0 0 617 347" fill="none" xmlns="http://www.w3.org/2000/svg">
<circle cx="177.637" cy="140.035" r="20.9023" fill="#B07D20"/>
<circle cx="177.923" cy="140.321" r="20.6162" fill="#FFB633"/>
<path fill-rule="evenodd" clip-rule="evenodd" d="M167.814 123.401C171.201 121.378 175.113 120.42 179.043 120.643C179.386 120.663 179.639 120.966 179.609 121.309V121.309C179.579 121.651 179.277 121.903 178.933 121.885C178.599 121.867 178.262 121.857 177.923 121.857C170.532 121.857 164.156 126.2 161.206 132.473C161.06 132.784 160.696 132.93 160.381 132.795V132.795C160.066 132.659 159.919 132.294 160.064 131.983C161.729 128.416 164.427 125.425 167.814 123.401Z" fill="white"/>
<circle cx="177.923" cy="140.321" r="15.7822" fill="white"/>
<circle cx="177.923" cy="140.321" r="15.2373" fill="#FFB633"/>
<path fill-rule="evenodd" clip-rule="evenodd" d="M180.066 149.715V151.98H176.046V149.728C175.353 149.613 174.715 149.433 174.134 149.189C173.047 148.729 172.192 148.058 171.576 147.175C170.969 146.291 170.639 145.214 170.588 143.945H173.993C174.044 144.61 174.249 145.164 174.608 145.607C174.711 145.731 174.822 145.847 174.942 145.951C175.246 146.223 175.605 146.439 176.02 146.595L176.046 140.951C174.54 140.545 173.342 139.944 172.453 139.148C171.546 138.321 171.093 137.224 171.093 135.855C171.093 134.728 171.396 133.742 172.008 132.895C172.35 132.427 172.756 132.016 173.231 131.663C173.616 131.381 174.044 131.135 174.519 130.928C174.998 130.712 175.507 130.547 176.046 130.429V128.09H180.066V130.404C180.639 130.524 181.178 130.697 181.674 130.928C182.701 131.394 183.505 132.044 184.091 132.878C184.677 133.704 184.976 134.657 184.998 135.733H181.666C181.576 134.918 181.212 134.283 180.562 133.83C180.408 133.721 180.241 133.622 180.066 133.539V138.826C180.635 138.98 181.187 139.172 181.721 139.401C182.393 139.687 182.992 140.047 183.522 140.483C184.057 140.919 184.48 141.443 184.792 142.059C185.1 142.675 185.259 143.398 185.259 144.225C185.259 145.344 184.972 146.33 184.399 147.183C183.826 148.03 183 148.691 181.918 149.17C181.362 149.416 180.742 149.598 180.066 149.715ZM180.066 142.108C180.096 142.121 180.122 142.132 180.152 142.145C180.669 142.361 181.071 142.634 181.358 142.966C181.644 143.289 181.79 143.699 181.794 144.198C181.79 144.501 181.738 144.786 181.636 145.049C181.555 145.258 181.443 145.453 181.302 145.635C180.999 146.013 180.584 146.315 180.066 146.542V142.108ZM176.024 137.645L176.046 133.545C175.609 133.755 175.263 134.027 175.019 134.36C174.745 134.734 174.608 135.16 174.6 135.639C174.6 136.037 174.69 136.383 174.869 136.676C175.058 136.967 175.31 137.217 175.626 137.423C175.755 137.502 175.887 137.577 176.024 137.645Z" fill="white"/>
<circle cx="204.312" cy="112.025" r="15.043" fill="#B07D20"/>
<circle cx="204.517" cy="112.228" r="14.837" fill="#FFB633"/>
<path fill-rule="evenodd" clip-rule="evenodd" d="M197.243 100.055C199.681 98.5983 202.496 97.9088 205.325 98.0698C205.571 98.0839 205.754 98.302 205.732 98.5484V98.5484C205.71 98.7946 205.493 98.9758 205.246 98.9625C205.005 98.9495 204.762 98.9429 204.518 98.9429C199.198 98.9429 194.609 102.069 192.486 106.584C192.381 106.807 192.119 106.912 191.893 106.815V106.815C191.667 106.718 191.561 106.455 191.665 106.231C192.864 103.664 194.805 101.511 197.243 100.055Z" fill="white"/>
<circle cx="204.518" cy="112.229" r="11.3581" fill="white"/>
<circle cx="204.518" cy="112.229" r="10.9397" fill="#FFB633"/>
<path fill-rule="evenodd" clip-rule="evenodd" d="M205.941 119.738V121.459H202.887V119.748C202.36 119.66 201.876 119.523 201.434 119.338C200.609 118.989 199.959 118.479 199.491 117.808C199.029 117.137 198.779 116.318 198.74 115.354H201.327C201.366 115.86 201.522 116.28 201.795 116.617C201.873 116.711 201.957 116.799 202.048 116.878C202.279 117.085 202.552 117.249 202.867 117.367L202.887 113.08C201.743 112.771 200.833 112.315 200.157 111.71C199.468 111.081 199.124 110.248 199.124 109.208C199.124 108.352 199.354 107.603 199.819 106.959C200.079 106.604 200.388 106.292 200.748 106.024C201.041 105.809 201.366 105.622 201.726 105.465C202.09 105.301 202.477 105.175 202.887 105.086V103.309H205.941V105.067C206.376 105.158 206.786 105.289 207.163 105.465C207.943 105.819 208.554 106.313 208.999 106.946C209.444 107.574 209.671 108.298 209.688 109.115H207.156C207.088 108.496 206.812 108.014 206.318 107.669C206.201 107.587 206.074 107.512 205.941 107.448V111.465C206.373 111.582 206.792 111.728 207.199 111.902C207.709 112.12 208.164 112.392 208.567 112.724C208.973 113.055 209.295 113.453 209.532 113.921C209.766 114.389 209.886 114.938 209.886 115.567C209.886 116.417 209.668 117.166 209.233 117.814C208.797 118.458 208.17 118.96 207.348 119.324C206.926 119.51 206.454 119.649 205.941 119.738ZM205.941 113.959C205.964 113.968 205.983 113.977 206.006 113.986C206.399 114.15 206.705 114.358 206.922 114.61C207.14 114.856 207.251 115.168 207.254 115.546C207.251 115.777 207.212 115.993 207.134 116.193C207.072 116.352 206.987 116.5 206.88 116.638C206.649 116.926 206.334 117.155 205.941 117.327V113.959ZM202.87 110.568L202.887 107.453C202.555 107.613 202.292 107.819 202.107 108.072C201.899 108.357 201.795 108.68 201.788 109.044C201.788 109.346 201.856 109.609 201.993 109.832C202.136 110.053 202.328 110.243 202.568 110.399C202.666 110.459 202.766 110.516 202.87 110.568Z" fill="white"/>
<circle cx="164.568" cy="95.5996" r="20.0332" fill="#B07D20"/>
<circle cx="164.841" cy="95.8683" r="19.759" fill="#FFB633"/>
<path fill-rule="evenodd" clip-rule="evenodd" d="M155.154 79.6582C158.4 77.7188 162.149 76.8006 165.916 77.0149C166.245 77.0336 166.487 77.3243 166.458 77.6526V77.6526C166.429 77.9806 166.14 78.2221 165.811 78.2043C165.49 78.187 165.167 78.1783 164.842 78.1783C157.758 78.1783 151.646 82.3407 148.819 88.3532C148.68 88.6503 148.331 88.7905 148.029 88.661V88.661C147.727 88.5315 147.587 88.1813 147.726 87.8836C149.322 84.4649 151.907 81.5979 155.154 79.6582Z" fill="white"/>
<circle cx="164.843" cy="95.8701" r="15.126" fill="white"/>
<circle cx="164.843" cy="95.8701" r="14.6729" fill="#FFB633"/>
<path fill-rule="evenodd" clip-rule="evenodd" d="M166.908 105.653V107.835H163.033V105.665C162.365 105.554 161.751 105.381 161.191 105.146C160.144 104.703 159.319 104.056 158.726 103.204C158.14 102.353 157.823 101.315 157.773 100.092H161.054C161.104 100.733 161.302 101.267 161.648 101.694C161.747 101.813 161.854 101.925 161.97 102.026C162.262 102.287 162.608 102.496 163.008 102.646L163.033 97.2071C161.582 96.8155 160.428 96.2364 159.571 95.4697C158.697 94.6721 158.26 93.6149 158.26 92.2958C158.26 91.2097 158.552 90.2596 159.142 89.4435C159.472 88.9921 159.863 88.5964 160.321 88.2564C160.692 87.9843 161.104 87.7473 161.561 87.5474C162.023 87.3392 162.514 87.1805 163.033 87.0672V84.8125H166.908V87.0425C167.46 87.1579 167.979 87.3248 168.457 87.5474C169.447 87.9967 170.222 88.6232 170.786 89.427C171.351 90.2225 171.64 91.1417 171.66 92.1784H168.449C168.363 91.3931 168.012 90.781 167.386 90.3441C167.237 90.239 167.077 90.1442 166.908 90.0638V95.1585C167.456 95.3069 167.988 95.4924 168.503 95.7129C169.15 95.9891 169.727 96.3353 170.238 96.7558C170.753 97.1762 171.161 97.6811 171.462 98.2747C171.759 98.8682 171.912 99.5648 171.912 100.362C171.912 101.44 171.635 102.39 171.083 103.213C170.531 104.029 169.735 104.666 168.692 105.127C168.157 105.364 167.559 105.54 166.908 105.653ZM166.908 98.3221C166.936 98.3344 166.961 98.3448 166.99 98.3571C167.489 98.5653 167.876 98.8291 168.152 99.1485C168.429 99.4597 168.569 99.8554 168.573 100.336C168.569 100.628 168.519 100.902 168.42 101.156C168.342 101.358 168.235 101.545 168.099 101.721C167.806 102.085 167.406 102.376 166.908 102.594V98.3221ZM163.012 94.0209L163.033 90.07C162.613 90.272 162.279 90.5337 162.044 90.8552C161.78 91.2159 161.648 91.626 161.64 92.0877C161.64 92.471 161.726 92.8049 161.899 93.0872C162.081 93.3675 162.324 93.6087 162.629 93.8065C162.753 93.8828 162.88 93.9549 163.012 94.0209Z" fill="white"/>
<circle cx="131.889" cy="109.211" r="11.8203" fill="#B07D20"/>
<circle cx="132.049" cy="109.369" r="11.6585" fill="#FFB633"/>
<path fill-rule="evenodd" clip-rule="evenodd" d="M126.333 99.8061C128.248 98.6618 130.46 98.12 132.683 98.2465C132.877 98.2576 133.02 98.429 133.003 98.6227V98.6227C132.985 98.8161 132.815 98.9585 132.621 98.9481C132.431 98.9378 132.241 98.9327 132.049 98.9327C127.869 98.9327 124.263 101.389 122.595 104.937C122.512 105.112 122.307 105.194 122.129 105.118V105.118C121.951 105.042 121.868 104.835 121.95 104.66C122.891 102.642 124.417 100.951 126.333 99.8061Z" fill="white"/>
<circle cx="132.05" cy="109.37" r="8.92488" fill="white"/>
<circle cx="132.05" cy="109.37" r="8.72161" fill="#FFB633"/>
<path fill-rule="evenodd" clip-rule="evenodd" d="M133.104 114.703V115.988H130.823V114.711C130.43 114.645 130.068 114.543 129.738 114.405C129.122 114.144 128.637 113.763 128.287 113.262C127.943 112.761 127.756 112.149 127.727 111.43H129.658C129.687 111.807 129.804 112.121 130.008 112.372C130.066 112.443 130.129 112.508 130.197 112.568C130.369 112.722 130.573 112.844 130.809 112.933L130.823 109.731C129.969 109.5 129.289 109.159 128.785 108.708C128.27 108.238 128.013 107.616 128.013 106.839C128.013 106.2 128.185 105.641 128.532 105.16C128.726 104.894 128.957 104.661 129.226 104.461C129.445 104.301 129.687 104.161 129.957 104.044C130.229 103.921 130.517 103.828 130.823 103.761V102.434H133.104V103.746C133.429 103.814 133.735 103.913 134.017 104.044C134.599 104.308 135.055 104.677 135.388 105.15C135.72 105.619 135.89 106.16 135.902 106.77H134.012C133.961 106.308 133.755 105.948 133.386 105.69C133.298 105.628 133.204 105.573 133.104 105.525V108.525C133.427 108.612 133.74 108.721 134.043 108.851C134.424 109.014 134.764 109.218 135.065 109.465C135.368 109.713 135.609 110.01 135.786 110.359C135.961 110.709 136.05 111.119 136.05 111.589C136.05 112.223 135.888 112.783 135.563 113.267C135.237 113.747 134.769 114.122 134.155 114.394C133.84 114.533 133.488 114.637 133.104 114.703ZM133.104 110.387C133.121 110.395 133.136 110.401 133.153 110.408C133.446 110.53 133.675 110.686 133.837 110.874C134 111.057 134.082 111.29 134.085 111.573C134.082 111.745 134.053 111.906 133.995 112.056C133.949 112.175 133.886 112.285 133.806 112.388C133.633 112.603 133.398 112.774 133.104 112.903V110.387ZM130.811 107.855L130.823 105.529C130.576 105.648 130.379 105.802 130.241 105.991C130.085 106.204 130.008 106.445 130.003 106.717C130.003 106.943 130.054 107.139 130.156 107.305C130.263 107.47 130.406 107.612 130.585 107.729C130.658 107.774 130.733 107.816 130.811 107.855Z" fill="white"/>
<rect x="210.057" y="149.811" width="9.2991" height="89.5659" fill="#DFDFDE"/>
<rect x="291.348" y="151.15" width="9.2991" height="89.5659" fill="#DFDFDE"/>
<rect x="373.957" y="151.15" width="9.2991" height="89.5659" fill="#DFDFDE"/>
<rect x="219.357" y="149.811" width="9.2991" height="89.5659" fill="#B6B6B6"/>
<rect x="300.645" y="151.15" width="9.2991" height="89.5659" fill="#B6B6B6"/>
<rect x="383.254" y="151.15" width="9.2991" height="89.5659" fill="#B6B6B6"/>
<rect x="228.654" y="149.811" width="9.2991" height="89.5659" fill="#949495"/>
<rect x="309.945" y="151.15" width="9.2991" height="89.5659" fill="#949495"/>
<rect x="392.557" y="151.15" width="9.2991" height="89.5659" fill="#949495"/>
<path d="M305.296 62.123L409.492 128.894H201.1L305.296 62.123Z" fill="#DFDFDE"/>
<path d="M305.298 70.9512L388.829 124.48H221.766L305.298 70.9512Z" fill="#B6B6B6"/>
<rect x="192.24" y="128.57" width="227.786" height="11.473" fill="#4B4D50"/>
<rect x="206.857" y="140.043" width="33.3194" height="11.1078" fill="#949495"/>
<rect x="192.24" y="238.803" width="227.786" height="5.68943" fill="#949495"/>
<rect x="192.24" y="244.492" width="227.786" height="6.09673" fill="#DFDFDE"/>
<rect x="177.455" y="250.588" width="257.195" height="8.48451" fill="#949495"/>
<rect x="177.455" y="259.072" width="257.195" height="11.7963" fill="#DFDFDE"/>
<rect x="289.053" y="140.043" width="33.3194" height="11.1078" fill="#949495"/>
<rect x="371.246" y="140.043" width="33.3194" height="11.1078" fill="#949495"/>
<path d="M270.152 40.209H304.248V55.8102H270.152L280.174 47.6478L270.152 40.209Z" fill="#F4C06D"/>
<rect x="304.34" y="39.5996" width="1.91175" height="23.3101" fill="#D9D9D9"/>
<circle cx="305.294" cy="100.378" r="13.3275" fill="#DFDFDE"/>
<rect x="268.537" y="119.756" width="76.0882" height="25.8417" fill="#4B4D50"/>
<rect x="269.982" y="121.084" width="73.1964" height="23.4527" fill="white"/>
<path d="M286.544 133.532H282.955L282.936 131.555H285.949C286.48 131.555 286.915 131.488 287.254 131.353C287.594 131.213 287.846 131.011 288.013 130.749C288.185 130.48 288.272 130.154 288.272 129.77C288.272 129.335 288.189 128.983 288.022 128.714C287.862 128.446 287.61 128.251 287.264 128.129C286.925 128.007 286.487 127.947 285.949 127.947H283.953V139.664H281.074V125.691H285.949C286.762 125.691 287.488 125.768 288.128 125.922C288.774 126.075 289.321 126.309 289.769 126.622C290.217 126.936 290.559 127.332 290.796 127.812C291.032 128.286 291.151 128.849 291.151 129.501C291.151 130.077 291.02 130.608 290.757 131.094C290.501 131.581 290.095 131.977 289.538 132.284C288.988 132.591 288.268 132.761 287.379 132.793L286.544 133.532ZM286.42 139.664H282.168L283.291 137.418H286.42C286.925 137.418 287.338 137.339 287.657 137.179C287.977 137.012 288.214 136.788 288.368 136.507C288.521 136.225 288.598 135.902 288.598 135.538C288.598 135.128 288.528 134.773 288.387 134.472C288.252 134.172 288.035 133.941 287.734 133.781C287.434 133.615 287.037 133.532 286.544 133.532H283.771L283.79 131.555H287.245L287.907 132.332C288.758 132.319 289.442 132.47 289.961 132.783C290.485 133.09 290.866 133.49 291.103 133.983C291.346 134.476 291.467 135.003 291.467 135.566C291.467 136.462 291.272 137.217 290.882 137.831C290.492 138.439 289.919 138.896 289.164 139.203C288.416 139.511 287.501 139.664 286.42 139.664Z" fill="black"/>
<path d="M299.308 128.081L295.508 139.664H292.446L297.638 125.691H299.586L299.308 128.081ZM302.465 139.664L298.655 128.081L298.348 125.691H300.315L305.536 139.664H302.465ZM302.292 134.463V136.718H294.913V134.463H302.292Z" fill="black"/>
<path d="M318.204 125.691V139.664H315.325L309.711 130.298V139.664H306.832V125.691H309.711L315.334 135.067V125.691H318.204Z" fill="black"/>
<path d="M323.587 125.691V139.664H320.708V125.691H323.587ZM331.955 125.691L326.418 132.591L323.223 136.027L322.704 133.302L324.864 130.346L328.424 125.691H331.955ZM328.683 139.664L324.566 133.206L326.697 131.421L332.09 139.664H328.683Z" fill="black"/>
<path d="M380.619 63.2617C400.353 76.7539 435.388 107.555 417.656 122.824C395.491 141.91 370.864 70.4902 431.201 86.4982" stroke="#B68EFC" stroke-width="2" stroke-linecap="round" stroke-linejoin="round" stroke-dasharray="4 4"/>
<rect x="402.521" y="105.146" width="119.342" height="82.8242" rx="9" fill="#885FC7"/>
<rect x="408.33" y="111.191" width="107.727" height="70.7363" rx="7" fill="#F8F0FF"/>
<rect x="415.631" y="119.721" width="53.4922" height="2.5" rx="1.25" fill="#DEC6F2"/>
<rect x="415.631" y="125.312" width="53.4922" height="2.5" rx="1.25" fill="#DEC6F2"/>
<rect x="415.631" y="130.904" width="37.6465" height="2.5" rx="1.25" fill="#DEC6F2"/>
<path d="M419.088 150.617L428.123 158.274L443.56 145.723L458.967 150.617L480.342 147.318L500.699 130.904" stroke="#DEC6F2" stroke-width="3"/>
<rect x="419.215" y="172.986" width="81.4844" height="1.7207" fill="white"/>
<path d="M385.582 216.051C385.582 206.898 393.939 203.941 402.219 201.503C407.631 199.91 419.584 199.91 419.584 199.91C419.584 199.91 431.932 200.477 439.241 203.141C446.889 205.929 454.469 212.356 454.469 217.77V247.706C454.469 256.859 450.304 261.27 446.687 266.233C440.211 275.12 427.961 286.874 420.868 286.75C410.95 286.577 394.108 266.485 394.108 266.485C394.108 266.485 385.582 256.859 385.582 247.706V216.051Z" fill="#B68EFC"/>
<path d="M391.881 221.035C391.881 213.554 398.711 211.138 405.477 209.146C409.9 207.844 419.67 207.844 419.67 207.844C419.67 207.844 429.761 208.307 435.734 210.484C441.984 212.763 448.179 218.015 448.179 222.44V246.905C448.179 254.385 444.775 257.99 441.819 262.046C438.045 267.226 431.872 273.596 426.538 276.789C424.392 278.073 422.382 278.843 420.718 278.814C412.613 278.673 398.849 262.253 398.849 262.253C398.849 262.253 391.881 254.385 391.881 246.905V221.035Z" fill="#6364D5"/>
<path d="M448.175 246.905V222.44C448.175 218.015 441.981 212.763 435.731 210.484C429.757 208.307 419.666 207.844 419.666 207.844C424.56 212.554 433.378 222.227 432.781 232.199C432.034 244.663 416.109 247.842 426.535 276.789C431.868 273.596 438.042 267.225 441.816 262.046C444.771 257.99 448.175 254.385 448.175 246.905Z" fill="#6364D5"/>
<path d="M448.175 246.905V222.44C448.175 218.015 441.981 212.763 435.731 210.484C429.757 208.307 419.666 207.844 419.666 207.844C424.56 212.554 433.378 222.227 432.781 232.199C432.034 244.663 416.109 247.842 426.535 276.789C431.868 273.596 438.042 267.225 441.816 262.046C444.771 257.99 448.175 254.385 448.175 246.905Z" fill="black" fill-opacity="0.2"/>
<path d="M393.395 222.238C393.395 215.16 399.856 212.874 406.258 210.99C410.443 209.758 419.685 209.758 419.685 209.758C419.685 209.758 420.548 209.797 421.908 209.909C425.073 210.168 430.931 210.815 434.884 212.256C440.797 214.412 446.657 219.381 446.657 223.567V246.713C446.657 253.79 443.437 257.201 440.641 261.038C437.129 265.858 431.421 271.767 426.433 274.834C424.309 276.14 422.315 276.931 420.677 276.902C413.009 276.768 399.987 261.233 399.987 261.233C399.987 261.233 393.395 253.79 393.395 246.713V222.238Z" fill="#A58AF3"/>
<path d="M446.657 246.711V223.564C446.657 219.378 440.797 214.409 434.884 212.254C430.931 210.813 425.073 210.165 421.908 209.906C425.419 214.942 431.918 227.183 429.832 235.862C427.225 246.711 417.982 258.482 426.433 274.832C431.421 271.765 437.129 265.855 440.641 261.036C443.437 257.198 446.657 253.788 446.657 246.711Z" fill="#9578EF"/>
<path d="M436.9 230.14C437.86 228.318 437.161 226.063 435.339 225.102C433.516 224.143 431.261 224.841 430.302 226.663L417.885 250.232L409.441 236.274C408.376 234.512 406.082 233.948 404.322 235.013C402.559 236.079 401.994 238.372 403.061 240.134L414.918 259.738C415.612 260.888 416.875 261.575 418.218 261.535C419.561 261.495 420.78 260.735 421.406 259.546L436.9 230.14Z" fill="white"/>
<path d="M366.454 68.7037L349.729 44.5664L390.697 50.3883L382.002 56.9572L380.433 64.5558L375.874 61.5874L366.454 68.7037Z" fill="#E2BCFF"/>
<path d="M378.196 59.8332L349.729 44.5664L382.002 56.9572L380.433 64.5558L375.874 61.5874L378.196 59.8332Z" fill="#9B6CE8"/>
<path d="M380.433 64.5565L378.195 59.834L375.873 61.5881L380.433 64.5565Z" fill="#6A40AD"/>
<path d="M366.454 68.7037L349.729 44.5664L378.196 59.8332L375.874 61.5874L366.454 68.7037Z" fill="#D8A6FF"/>
<path d="M120.688 229.779C120.688 226.412 123.417 223.682 126.785 223.682H232.197C235.565 223.682 238.295 226.412 238.295 229.779V289.782C238.295 293.149 235.565 295.879 232.197 295.879H126.785C123.417 295.879 120.688 293.149 120.688 289.782V229.779Z" fill="#9065B0"/>
<path d="M132.974 230.768H138.313L138.313 234.712H136.512C135.389 234.712 134.479 235.622 134.479 236.744V238.546H130.535V233.207C130.535 231.86 131.627 230.768 132.974 230.768Z" fill="white"/>
<path d="M130.535 244.917V239.578H134.479V241.379C134.479 242.502 135.389 243.412 136.512 243.412H138.313V247.356H132.974C131.627 247.356 130.535 246.264 130.535 244.917Z" fill="white"/>
<path d="M144.685 247.356H139.345V243.412H141.147C142.269 243.412 143.179 242.502 143.179 241.379V239.578H147.124V244.917C147.124 246.264 146.032 247.356 144.685 247.356Z" fill="white"/>
<path d="M147.124 233.207V238.546H143.179V236.744C143.179 235.622 142.269 234.712 141.147 234.712H139.345L139.345 230.768H144.685C146.032 230.768 147.124 231.86 147.124 233.207Z" fill="white"/>
<path d="M136.681 235.287C135.783 235.287 135.055 236.015 135.055 236.913V241.21C135.055 242.108 135.783 242.836 136.681 242.836H140.978C141.876 242.836 142.604 242.108 142.604 241.21V236.913C142.604 236.015 141.876 235.287 140.978 235.287H136.681Z" fill="white"/>
<path fill-rule="evenodd" clip-rule="evenodd" d="M129.621 273.434C129.621 272.345 130.504 271.463 131.592 271.463H151.308C152.396 271.463 153.279 272.345 153.279 273.434C153.279 274.523 152.396 275.406 151.308 275.406H131.592C130.504 275.406 129.621 274.523 129.621 273.434ZM129.621 280.511C129.621 279.423 130.504 278.54 131.592 278.54H182.334C183.423 278.54 184.305 279.423 184.305 280.511C184.305 281.6 183.423 282.483 182.334 282.483H131.592C130.504 282.483 129.621 281.6 129.621 280.511ZM157.584 271.463C156.495 271.463 155.612 272.345 155.612 273.434C155.612 274.523 156.495 275.406 157.584 275.406H177.299C178.387 275.406 179.27 274.523 179.27 273.434C179.27 272.345 178.387 271.463 177.299 271.463H157.584ZM181.603 273.434C181.603 272.345 182.486 271.463 183.575 271.463H203.29C204.379 271.463 205.261 272.345 205.261 273.434C205.261 274.523 204.379 275.406 203.29 275.406H183.575C182.486 275.406 181.603 274.523 181.603 273.434ZM209.566 271.463C208.477 271.463 207.594 272.345 207.594 273.434C207.594 274.523 208.477 275.406 209.566 275.406H229.281C230.37 275.406 231.252 274.523 231.252 273.434C231.252 272.345 230.37 271.463 229.281 271.463H209.566Z" fill="white"/>
</svg>
