<svg width="753" height="424" viewBox="0 0 753 424" fill="none" xmlns="http://www.w3.org/2000/svg">
<g clip-path="url(#clip0_7461_45302)">
<path d="M385.036 408.548C349.977 408.249 314.888 401.12 277.465 388.819C240.042 376.518 200.04 359.185 175.074 328.932C149.968 298.434 140.039 255.261 145.078 214.859C150.116 174.456 170.262 137.068 195.415 107.222C220.672 76.9905 250.69 54.4427 283.26 38.5728C315.586 22.844 350.218 13.9343 384.439 15.0427C418.52 15.9066 451.841 27.3155 484.515 42.6848C517.33 58.2986 549.291 78.6442 570.503 107.478C591.856 136.556 602.459 174.123 606.912 214.588C611.365 255.054 609.629 297.789 589.452 328.348C569.031 359.048 529.887 377.083 492.82 389.681C455.611 402.035 420.339 408.706 385.036 408.548Z" fill="#FBF7FF"/>
<path fill-rule="evenodd" clip-rule="evenodd" d="M313.879 197.635C313.879 196.53 312.983 195.635 311.879 195.635H262.067C260.962 195.635 260.067 196.53 260.067 197.635V216.389C260.067 217.317 259.429 218.12 258.529 218.346C247.363 221.148 236.836 225.562 227.211 231.327C226.416 231.803 225.397 231.686 224.741 231.03L211.477 217.766C210.696 216.985 209.429 216.985 208.648 217.766L173.426 252.988C172.645 253.769 172.645 255.035 173.426 255.816L186.689 269.079C187.345 269.735 187.462 270.754 186.985 271.55C181.22 281.174 176.806 291.7 174.003 302.866C173.777 303.765 172.974 304.403 172.046 304.403H153.309C152.204 304.403 151.309 305.298 151.309 306.403L151.309 356.215C151.309 357.319 152.204 358.215 153.309 358.215H172.046C172.973 358.215 173.777 358.853 174.003 359.752C176.807 370.922 181.224 381.451 186.992 391.078C187.468 391.874 187.351 392.893 186.695 393.549L173.436 406.808C172.655 407.589 172.655 408.856 173.436 409.637L208.658 444.859C209.439 445.64 210.706 445.64 211.487 444.859L224.751 431.594C225.407 430.939 226.426 430.821 227.222 431.298C236.844 437.059 247.367 441.471 258.529 444.272C259.429 444.498 260.067 445.302 260.067 446.229V464.986C260.067 466.091 260.962 466.986 262.067 466.986H311.879C312.983 466.986 313.879 466.091 313.879 464.986V446.224C313.879 445.297 314.516 444.493 315.416 444.268C326.578 441.465 337.101 437.051 346.723 431.287C347.518 430.811 348.538 430.928 349.194 431.584L362.472 444.863C363.253 445.644 364.52 445.644 365.301 444.863L400.523 409.64C401.304 408.859 401.304 407.593 400.523 406.812L387.243 393.532C386.587 392.876 386.47 391.857 386.946 391.061C392.709 381.439 397.123 370.915 399.925 359.752C400.15 358.853 400.954 358.215 401.881 358.215H420.66C421.765 358.215 422.66 357.319 422.66 356.215V306.403C422.66 305.298 421.765 304.403 420.66 304.403H401.881C400.954 304.403 400.15 303.765 399.924 302.866C397.123 291.707 392.712 281.187 386.952 271.567C386.476 270.771 386.593 269.752 387.249 269.096L400.533 255.813C401.314 255.032 401.314 253.765 400.533 252.984L365.311 217.762C364.529 216.981 363.263 216.981 362.482 217.762L349.204 231.04C348.548 231.696 347.529 231.813 346.733 231.337C337.109 225.57 326.582 221.154 315.416 218.351C314.516 218.125 313.879 217.321 313.879 216.394V197.635ZM286.965 411.577C331.292 411.577 367.227 375.643 367.227 331.316C367.227 286.988 331.292 251.054 286.965 251.054C242.638 251.054 206.703 286.988 206.703 331.316C206.703 375.643 242.638 411.577 286.965 411.577Z" fill="#F4EBFC"/>
<rect x="497.762" y="119.892" width="47.0517" height="6.94553" rx="1" transform="rotate(-15 497.762 119.892)" fill="#FFB45B"/>
<path d="M508.638 142.92C504.283 137.129 502.652 128.985 502.381 125.637L521.518 120.509L522.105 120.352L522.541 120.235L541.678 115.107C543.117 118.143 545.777 126.011 544.9 133.203C543.804 142.193 533.028 151.713 533.532 153.831C534.037 155.948 547.961 159.099 553.535 165.427C557.412 169.394 559.297 180.401 559.595 181.51C559.827 182.376 546.841 185.35 539.838 186.834C533.031 189.051 520.298 192.968 520.066 192.102C519.769 190.993 515.898 180.517 517.272 175.144C518.935 166.877 529.418 157.186 528.796 155.1C528.175 153.014 514.082 150.157 508.638 142.92Z" fill="#D3E5FF"/>
<rect x="517.27" y="192.698" width="47.0517" height="6.94553" rx="1" transform="rotate(-15 517.27 192.698)" fill="#FFB45B"/>
<path d="M525.778 149.508C513.168 145.828 508.456 138.133 507.676 134.745C513.202 133.377 527.617 129.259 541.076 123.734C544.455 132.946 536.148 144.715 533.743 147.374C531.819 149.5 530.776 151.749 530.494 152.608C529.887 151.891 528.093 150.268 525.778 149.508Z" fill="#F3C168"/>
<path d="M541.072 123.735C538.605 124.731 522.655 137.723 507.672 134.746C513.197 133.378 527.613 129.26 541.072 123.735Z" fill="#F1B140"/>
<path d="M531.185 179.326C525.697 184.554 524.495 189.209 524.58 190.883L555.39 182.627C552.361 177.937 545.461 176.326 542.429 175.161C540.003 174.228 537.137 172.43 536.007 171.648C535.098 173.636 532.86 177.955 531.185 179.326Z" fill="#F3C168"/>
<circle cx="532.548" cy="160.741" r="0.981505" transform="rotate(-15 532.548 160.741)" fill="#F3C168"/>
<circle cx="534.134" cy="165.568" r="0.981505" transform="rotate(-15 534.134 165.568)" fill="#F3C168"/>
<circle cx="535.38" cy="169.559" r="0.981505" transform="rotate(-15 535.38 169.559)" fill="#F3C168"/>
<ellipse cx="511.148" cy="134.807" rx="2.51136" ry="5.07732" transform="rotate(-18.5149 511.148 134.807)" fill="#EFFAFC"/>
<ellipse cx="524.976" cy="167.515" rx="2.34362" ry="3.88685" transform="rotate(29.3989 524.976 167.515)" fill="#EFFAFC"/>
<ellipse cx="521.383" cy="173.531" rx="0.764104" ry="1.26725" transform="rotate(29.3989 521.383 173.531)" fill="#EFFAFC"/>
<circle cx="278.517" cy="108.129" r="18.5264" fill="#B07D20"/>
<circle cx="278.771" cy="108.382" r="18.2728" fill="#FFB633"/>
<path fill-rule="evenodd" clip-rule="evenodd" d="M269.812 93.3858C272.814 91.5923 276.281 90.7431 279.764 90.9413C280.068 90.9586 280.293 91.2275 280.266 91.5312V91.5312C280.239 91.8347 279.971 92.058 279.667 92.0416C279.371 92.0256 279.072 92.0176 278.772 92.0176C272.221 92.0176 266.569 95.8667 263.954 101.427C263.825 101.702 263.502 101.831 263.223 101.712V101.712C262.944 101.592 262.814 101.268 262.942 100.992C264.418 97.8308 266.809 95.1795 269.812 93.3858Z" fill="white"/>
<circle cx="278.77" cy="108.383" r="13.9883" fill="white"/>
<circle cx="278.771" cy="108.382" r="13.5053" fill="#FFB633"/>
<path fill-rule="evenodd" clip-rule="evenodd" d="M280.67 116.708V118.716H277.107V116.72C276.493 116.617 275.928 116.458 275.412 116.242C274.449 115.834 273.691 115.239 273.145 114.456C272.607 113.674 272.315 112.718 272.27 111.594H275.287C275.333 112.184 275.515 112.675 275.833 113.067C275.924 113.177 276.023 113.279 276.129 113.372C276.398 113.613 276.716 113.804 277.084 113.943L277.107 108.941C275.772 108.58 274.711 108.048 273.922 107.343C273.119 106.609 272.717 105.637 272.717 104.424C272.717 103.425 272.986 102.551 273.528 101.8C273.831 101.385 274.192 101.021 274.612 100.708C274.954 100.458 275.333 100.24 275.753 100.056C276.178 99.8649 276.629 99.7189 277.107 99.6147V97.541H280.67V99.5919C281.178 99.6981 281.656 99.8516 282.096 100.056C283.006 100.47 283.718 101.046 284.238 101.785C284.757 102.517 285.022 103.362 285.041 104.316H282.088C282.009 103.593 281.686 103.03 281.11 102.629C280.974 102.532 280.826 102.445 280.67 102.371V107.056C281.175 107.193 281.664 107.363 282.137 107.566C282.733 107.82 283.263 108.139 283.733 108.525C284.207 108.912 284.583 109.376 284.859 109.922C285.132 110.468 285.273 111.109 285.273 111.843C285.273 112.834 285.019 113.708 284.511 114.464C284.003 115.215 283.271 115.8 282.312 116.225C281.819 116.443 281.269 116.604 280.67 116.708ZM280.67 109.966C280.697 109.977 280.72 109.987 280.746 109.998C281.205 110.19 281.561 110.432 281.815 110.726C282.069 111.012 282.198 111.376 282.202 111.818C282.198 112.087 282.153 112.339 282.062 112.572C281.99 112.758 281.891 112.931 281.766 113.092C281.497 113.427 281.129 113.694 280.67 113.895V109.966ZM277.088 106.01L277.107 102.376C276.72 102.562 276.413 102.803 276.197 103.099C275.954 103.43 275.833 103.808 275.825 104.232C275.825 104.585 275.905 104.892 276.064 105.151C276.231 105.409 276.455 105.631 276.735 105.813C276.849 105.883 276.967 105.949 277.088 106.01Z" fill="white"/>
<circle cx="260.497" cy="123.717" r="17.7705" fill="#B07D20"/>
<circle cx="260.74" cy="123.96" r="17.5272" fill="#FFB633"/>
<path fill-rule="evenodd" clip-rule="evenodd" d="M252.149 109.575C255.028 107.855 258.354 107.04 261.695 107.23C261.987 107.247 262.202 107.505 262.176 107.796V107.796C262.15 108.087 261.894 108.301 261.602 108.286C261.317 108.27 261.031 108.263 260.742 108.263C254.459 108.263 249.037 111.955 246.529 117.288C246.405 117.551 246.096 117.676 245.829 117.561V117.561C245.561 117.446 245.436 117.135 245.559 116.871C246.975 113.839 249.269 111.296 252.149 109.575Z" fill="white"/>
<circle cx="260.74" cy="123.961" r="13.4175" fill="white"/>
<circle cx="260.741" cy="123.96" r="12.9543" fill="#FFB633"/>
<path fill-rule="evenodd" clip-rule="evenodd" d="M262.562 131.946V133.871H259.144V131.957C258.555 131.859 258.013 131.706 257.518 131.499C256.595 131.108 255.868 130.537 255.344 129.786C254.828 129.035 254.548 128.119 254.504 127.04H257.398C257.442 127.606 257.617 128.077 257.922 128.453C258.009 128.559 258.104 128.657 258.206 128.746C258.464 128.977 258.769 129.16 259.122 129.293L259.144 124.495C257.864 124.15 256.846 123.639 256.089 122.962C255.318 122.259 254.933 121.326 254.933 120.162C254.933 119.204 255.191 118.366 255.711 117.646C256.002 117.248 256.348 116.899 256.751 116.599C257.078 116.359 257.442 116.15 257.846 115.973C258.253 115.79 258.686 115.65 259.144 115.55V113.561H262.562V115.528C263.049 115.63 263.507 115.777 263.929 115.973C264.802 116.37 265.486 116.922 265.984 117.631C266.482 118.333 266.736 119.144 266.755 120.059H263.922C263.846 119.366 263.537 118.826 262.984 118.44C262.853 118.348 262.711 118.264 262.562 118.193V122.688C263.046 122.819 263.515 122.982 263.969 123.177C264.54 123.42 265.049 123.726 265.5 124.097C265.955 124.468 266.315 124.913 266.58 125.437C266.842 125.96 266.976 126.575 266.976 127.279C266.976 128.229 266.733 129.068 266.246 129.793C265.758 130.513 265.057 131.075 264.137 131.482C263.664 131.691 263.137 131.846 262.562 131.946ZM262.562 125.479C262.587 125.489 262.609 125.499 262.635 125.509C263.075 125.693 263.417 125.926 263.66 126.208C263.904 126.482 264.027 126.831 264.031 127.255C264.027 127.513 263.984 127.755 263.897 127.979C263.827 128.157 263.733 128.322 263.613 128.477C263.355 128.799 263.002 129.055 262.562 129.248V125.479ZM259.126 121.684L259.144 118.199C258.773 118.377 258.478 118.608 258.271 118.891C258.038 119.21 257.922 119.571 257.915 119.979C257.915 120.317 257.991 120.611 258.144 120.86C258.304 121.108 258.518 121.32 258.787 121.495C258.897 121.562 259.009 121.626 259.126 121.684Z" fill="white"/>
<circle cx="199.246" cy="121.887" r="17.1538" fill="#B07D20"/>
<circle cx="199.481" cy="122.122" r="16.919" fill="#FFB633"/>
<path fill-rule="evenodd" clip-rule="evenodd" d="M191.186 108.236C193.966 106.575 197.176 105.789 200.401 105.972C200.682 105.988 200.89 106.237 200.865 106.519V106.519C200.84 106.8 200.593 107.006 200.311 106.991C200.036 106.976 199.76 106.969 199.481 106.969C193.416 106.969 188.182 110.533 185.761 115.681C185.642 115.935 185.343 116.055 185.085 115.945V115.945C184.827 115.834 184.706 115.534 184.825 115.279C186.192 112.352 188.406 109.897 191.186 108.236Z" fill="white"/>
<circle cx="199.479" cy="122.122" r="12.9519" fill="white"/>
<circle cx="199.481" cy="122.122" r="12.5047" fill="#FFB633"/>
<path fill-rule="evenodd" clip-rule="evenodd" d="M201.239 129.831V131.69H197.94V129.842C197.371 129.747 196.848 129.6 196.371 129.399C195.479 129.022 194.777 128.471 194.272 127.746C193.773 127.021 193.503 126.137 193.461 125.096H196.255C196.297 125.642 196.466 126.096 196.76 126.46C196.845 126.562 196.936 126.656 197.034 126.742C197.283 126.965 197.578 127.142 197.919 127.271L197.94 122.639C196.704 122.305 195.721 121.812 194.991 121.159C194.247 120.48 193.875 119.58 193.875 118.457C193.875 117.532 194.124 116.723 194.626 116.028C194.907 115.643 195.241 115.306 195.63 115.017C195.946 114.785 196.297 114.583 196.687 114.413C197.08 114.236 197.498 114.101 197.94 114.004V112.084H201.239V113.983C201.71 114.081 202.152 114.223 202.559 114.413C203.402 114.796 204.062 115.329 204.542 116.014C205.023 116.691 205.269 117.474 205.287 118.357H202.552C202.478 117.688 202.18 117.167 201.647 116.795C201.52 116.705 201.383 116.624 201.239 116.556V120.894C201.706 121.021 202.159 121.179 202.598 121.367C203.149 121.602 203.64 121.897 204.076 122.255C204.514 122.613 204.862 123.043 205.118 123.548C205.371 124.054 205.501 124.647 205.501 125.326C205.501 126.244 205.265 127.053 204.795 127.753C204.325 128.448 203.647 128.991 202.759 129.384C202.303 129.585 201.794 129.735 201.239 129.831ZM201.239 123.588C201.264 123.599 201.285 123.608 201.31 123.618C201.734 123.796 202.064 124.02 202.299 124.292C202.535 124.557 202.654 124.894 202.657 125.303C202.654 125.552 202.612 125.786 202.528 126.002C202.461 126.174 202.37 126.333 202.254 126.483C202.005 126.793 201.664 127.041 201.239 127.227V123.588ZM197.922 119.926L197.94 116.561C197.582 116.733 197.298 116.956 197.097 117.23C196.873 117.537 196.76 117.886 196.753 118.279C196.753 118.606 196.827 118.89 196.975 119.131C197.129 119.369 197.336 119.575 197.596 119.743C197.701 119.808 197.81 119.869 197.922 119.926Z" fill="white"/>
<g filter="url(#filter0_d_7461_45302)">
<path d="M478.589 366.871L520.846 277.634L518.422 274.953L458.547 253.251L418.461 338.148L475.782 366.871H478.589Z" fill="#6A40AD"/>
<path d="M518.422 274.953L475.782 366.871L418.461 338.148L458.547 253.251L518.422 274.953Z" fill="#9F8EF0"/>
<path d="M471.035 358.455C481.408 346.787 502.298 299.303 511.447 277.019L455.842 261.219C442.978 284.447 417.089 331.269 416.441 332.727C417.454 332.727 464.856 354.403 471.035 358.455Z" fill="#E9E4FC"/>
<path d="M475.497 348.964C482.027 342.081 502.114 298.157 511.342 277.056L457.078 256.651C457.078 256.651 445.984 279.433 437.887 293.487C429.477 308.086 414.726 329.884 414.726 329.884C425.571 334.663 448.431 344.972 453.107 347.972C458.953 351.722 473.07 351.17 475.497 348.964Z" fill="white"/>
<path d="M470.547 338.192C470.217 339.793 473.028 345.295 474.475 347.846C473.395 346.789 470.918 344.122 469.649 341.915C466.946 344.894 457.903 346.65 453.719 347.156C457.995 345.547 467.346 341.502 470.547 338.192Z" fill="#E8E4FC"/>
<path d="M434.289 320.559C435.778 319.072 441.681 317.936 444.447 317.554C443.304 316.695 438.725 316.863 436.578 317.054C436.325 314.99 435.553 310.292 434.425 307.441C434.384 307.293 434.339 307.181 434.289 307.111C434.335 307.218 434.381 307.328 434.425 307.441C434.974 309.437 434.755 318.096 434.289 320.559Z" fill="#7601D3"/>
<path d="M445.582 301.224C447.071 299.737 452.974 298.601 455.74 298.219C454.597 297.36 450.018 297.528 447.871 297.719C447.618 295.655 446.846 290.957 445.718 288.106C445.677 287.958 445.632 287.846 445.582 287.776C445.628 287.883 445.673 287.993 445.718 288.106C446.267 290.102 446.048 298.761 445.582 301.224Z" fill="#7601D3"/>
<path d="M455.84 281.406C457.329 279.919 463.232 278.783 465.998 278.401C464.855 277.542 460.275 277.709 458.129 277.901C457.876 275.837 457.103 271.139 455.976 268.288C455.935 268.139 455.89 268.027 455.84 267.958C455.886 268.065 455.931 268.175 455.976 268.288C456.525 270.284 456.306 278.942 455.84 281.406Z" fill="#7601D3"/>
<path d="M437.164 323.788L443.193 313.809L434.114 310.275L428.709 320.254L437.164 323.788Z" stroke="black"/>
<path d="M448.459 304.453L454.488 294.474L445.409 290.94L440.004 300.919L448.459 304.453Z" stroke="black"/>
<path d="M458.715 284.634L464.744 274.656L455.665 271.122L450.26 281.101L458.715 284.634Z" stroke="black"/>
<path d="M499.174 266.467L498.666 261.965C500.744 260.643 504.113 257.27 500.975 254.353C497.053 250.705 491.547 249.81 489.207 254.353C488.717 255.276 488.672 257.372 488.711 258.304L485.448 260.518L496.625 265.362L499.174 266.467Z" fill="#CB9F57"/>
<path d="M489.209 254.353C491.549 249.81 497.054 250.705 500.977 254.353C501.784 255.695 501.2 259.893 496.434 260.814C496.434 262.133 496.562 264.396 496.626 265.362L485.449 260.518L488.712 258.304C488.674 257.372 488.718 255.276 489.209 254.353Z" fill="#FFEAC7"/>
<path d="M497.34 257.641C499.259 256.309 497.521 254.343 496.412 253.527C495.286 252.791 493.448 252.841 492.493 253.306C491.538 253.772 491.195 255.437 492.15 256.514C493.105 257.591 494.941 259.305 497.34 257.641Z" fill="white"/>
<rect width="17.2089" height="1.37203" rx="0.686015" transform="matrix(-0.897835 -0.440332 -0.440332 0.897835 479.09 292.952)" fill="#FDECD8"/>
<rect width="17.2089" height="1.37203" rx="0.686015" transform="matrix(-0.897835 -0.440332 -0.440332 0.897835 469.311 313.515)" fill="#FDECD8"/>
<rect width="17.2089" height="1.37203" rx="0.686015" transform="matrix(-0.897835 -0.440332 -0.440332 0.897835 458.707 333.046)" fill="#FDECD8"/>
<rect width="17.2089" height="1.37203" rx="0.686015" transform="matrix(-0.897835 -0.440332 -0.440332 0.897835 483.471 283.116)" fill="#FDECD8"/>
<rect width="17.2089" height="1.37203" rx="0.686015" transform="matrix(-0.897835 -0.440332 -0.440332 0.897835 473.693 303.678)" fill="#FDECD8"/>
<rect width="17.2089" height="1.37203" rx="0.686015" transform="matrix(-0.897835 -0.440332 -0.440332 0.897835 463.09 323.21)" fill="#FDECD8"/>
<rect width="32.5474" height="1.37203" rx="0.686015" transform="matrix(-0.897835 -0.440332 -0.440332 0.897835 495.824 293.3)" fill="#FDECD8"/>
<rect width="32.5474" height="1.37203" rx="0.686015" transform="matrix(-0.897835 -0.440332 -0.440332 0.897835 486.047 313.861)" fill="#FDECD8"/>
<rect width="32.5474" height="1.37203" rx="0.686015" transform="matrix(-0.897835 -0.440332 -0.440332 0.897835 475.443 333.394)" fill="#FDECD8"/>
<rect width="32.5474" height="1.37203" rx="0.686015" transform="matrix(-0.897835 -0.440332 -0.440332 0.897835 494.57 296.328)" fill="#FDECD8"/>
<rect width="24.1021" height="1.37203" rx="0.686015" transform="matrix(-0.897835 -0.440332 -0.440332 0.897835 477.211 313.173)" fill="#FDECD8"/>
<rect width="22.6443" height="1.37203" rx="0.686015" transform="matrix(-0.897835 -0.440332 -0.440332 0.897835 465.299 332.062)" fill="#FDECD8"/>
<path d="M476.251 257.468C490.889 259.878 501.533 266.653 505.025 269.739C499.513 265.721 496.08 272.753 495.053 276.771C488.905 274.594 475.391 269.739 470.512 267.73C471.086 260.482 474.889 257.468 476.251 257.468Z" fill="#68299A"/>
<path d="M493.774 274.054C494.717 271.081 497.431 268.685 498.67 267.858C496.743 268.33 492.665 269.51 491.768 270.454C490.447 270.029 478.24 267.918 472.302 266.915C478.142 268.901 490.612 273.109 493.774 274.054Z" fill="#9F8EF0"/>
</g>
<circle cx="244.199" cy="83.5439" r="38.8633" fill="#B07D20"/>
<circle cx="244.732" cy="84.0754" r="38.3313" fill="#FFB633"/>
<path fill-rule="evenodd" clip-rule="evenodd" d="M225.937 52.6177C232.234 48.8555 239.507 47.0742 246.813 47.4898C247.452 47.5262 247.922 48.0904 247.866 48.7275V48.7275C247.809 49.3642 247.248 49.8327 246.61 49.7983C245.988 49.7648 245.362 49.7478 244.732 49.7478C230.99 49.7478 219.133 57.8222 213.649 69.4855C213.377 70.0621 212.701 70.3341 212.115 70.0828V70.0828C211.529 69.8315 211.257 69.1519 211.526 68.5743C214.622 61.9423 219.638 56.3805 225.937 52.6177Z" fill="white"/>
<circle cx="244.732" cy="84.076" r="29.3436" fill="white"/>
<circle cx="244.731" cy="84.0755" r="28.3304" fill="#FFB633"/>
<path fill-rule="evenodd" clip-rule="evenodd" d="M248.716 101.542V105.752H241.241V101.565C239.953 101.351 238.768 101.017 237.686 100.563C235.666 99.7086 234.076 98.4601 232.931 96.8179C231.802 95.1757 231.189 93.1717 231.094 90.8138H237.424C237.519 92.0504 237.901 93.0802 238.569 93.9033C238.76 94.1339 238.967 94.3486 239.189 94.5435C239.754 95.0485 240.422 95.4501 241.193 95.7403L241.241 85.247C238.442 84.4916 236.215 83.3742 234.561 81.8951C232.875 80.3563 232.032 78.3165 232.032 75.7717C232.032 73.6762 232.597 71.8432 233.734 70.2686C234.37 69.3978 235.126 68.6343 236.008 67.9783C236.724 67.4534 237.519 66.9961 238.402 66.6104C239.293 66.2088 240.239 65.9027 241.241 65.684V61.334H248.716V65.6363C249.782 65.8589 250.784 66.181 251.707 66.6104C253.615 67.4773 255.11 68.686 256.2 70.2368C257.289 71.7716 257.846 73.545 257.886 75.545H251.691C251.524 74.0301 250.848 72.8492 249.639 72.0062C249.353 71.8034 249.042 71.6205 248.716 71.4654V81.2947C249.774 81.581 250.8 81.9388 251.794 82.3643C253.043 82.8971 254.156 83.5651 255.142 84.3762C256.136 85.1874 256.923 86.1616 257.504 87.3067C258.076 88.4519 258.371 89.7959 258.371 91.3347C258.371 93.4142 257.838 95.2473 256.772 96.8338C255.707 98.4084 254.172 99.637 252.16 100.528C251.126 100.985 249.973 101.323 248.716 101.542ZM248.716 87.3982C248.772 87.422 248.82 87.4419 248.875 87.4658C249.838 87.8674 250.585 88.3763 251.118 88.9927C251.651 89.5931 251.921 90.3565 251.929 91.283C251.921 91.8476 251.826 92.3764 251.635 92.8655C251.484 93.2552 251.277 93.617 251.015 93.955C250.45 94.6588 249.679 95.2194 248.716 95.6409V87.3982ZM241.201 79.0998L241.241 71.4774C240.43 71.867 239.786 72.372 239.333 72.9923C238.824 73.6881 238.569 74.4794 238.553 75.3701C238.553 76.1097 238.72 76.7538 239.054 77.2986C239.404 77.8393 239.873 78.3045 240.462 78.6863C240.7 78.8334 240.947 78.9725 241.201 79.0998Z" fill="white"/>
<path d="M129.2 338.826C110.486 326.996 78.5363 293.254 100.452 252.925C106.203 242.253 125.38 236.127 134.835 235.595C144.29 235.062 158.938 233.597 156.408 208.295C153.878 182.993 166.13 153.296 198.223 153.562C213.457 153.562 219.6 161.233 220.767 165.068C229.041 163.821 245.088 165.365 248.536 186.054C251.1 201.44 242.862 211.571 236.939 214.165C237.386 216.461 237.718 219.262 237.786 222.269C244.516 233.483 256.722 259.024 251.707 271.475C246.692 283.927 167.946 321.564 129.2 338.826Z" fill="black"/>
<path d="M149.536 263.615C130.493 271.858 126.683 294.048 127.159 304.112C125.017 325.145 138.978 422.485 139.951 426.238C139.062 429.129 138.049 441.198 137.653 446.871H276.673L268.641 395.578C271.161 400.878 280.768 411.549 299.042 411.833C321.884 412.189 326.239 380.014 326.15 365.793C326.061 351.573 322.239 325.086 322.151 320.998C322.062 316.909 320.059 300.738 311.711 294.166C303.363 287.594 285.422 291.502 279.738 296.475C275.191 300.454 279.028 330.224 281.515 344.612C279.857 341 275.191 327.524 269.791 302.514C263.041 271.252 249.897 258.285 243.68 256.331C210.997 244.608 173.34 253.312 149.536 263.615Z" fill="#D8A6FF"/>
<path d="M176.186 247.071C171.814 247.991 170.016 252.289 168.552 258.309C164.537 274.821 171.187 301.744 171.187 301.744C181.907 295.032 177.202 288.972 181.286 286.373C186.187 283.997 191.742 287.872 198.216 292.044C187.189 281.017 182.849 268.031 179.109 254.365C192.228 245.389 206.249 257.242 211.62 264.291L216.731 292.044C217.834 286.913 222.991 279.173 224.239 277.879C226.84 275.183 225.936 279.105 228.459 282.307C226.301 274.395 216.129 251.465 213.978 250.414C196.265 241.759 181.651 245.921 176.186 247.071Z" fill="#9065B0"/>
<path d="M170.311 214.166C172.805 202.298 184.93 205.652 187.064 206.418C208.79 204.388 218.757 189.754 222.102 179.669C223.649 182.547 224.976 189.282 217.907 193.2C224.081 189.883 227.473 186.233 223.243 175.11C240.657 179.237 239.794 200.645 236.938 214.166C239.052 225.026 235.414 247.466 219.815 248.891C217.621 249.091 215.589 249.149 213.707 249.089C213.249 253.758 212.196 263.347 211.651 264.359C210.969 265.625 193.062 277.448 178.653 254.842C179.341 251.918 181.491 237.213 182.18 229.215C177.297 230.247 167.817 226.033 170.311 214.166Z" fill="white"/>
<path d="M195.718 237.742C196.748 241.761 202.358 247.821 213.707 249.089M213.707 249.089C215.589 249.149 217.621 249.091 219.815 248.891C235.414 247.466 239.052 225.026 236.938 214.166C239.794 200.645 240.657 179.237 223.243 175.11C227.473 186.233 224.081 189.883 217.907 193.2C224.976 189.282 223.649 182.547 222.102 179.669C218.757 189.754 208.79 204.388 187.064 206.418C184.93 205.652 172.805 202.298 170.311 214.166C167.817 226.033 177.297 230.247 182.18 229.215C181.491 237.213 179.341 251.918 178.653 254.842C193.062 277.448 210.969 265.625 211.651 264.359C212.196 263.347 213.249 253.758 213.707 249.089Z" stroke="black" stroke-linecap="round"/>
<path d="M178.68 255.194C181.354 250.923 210.466 264.069 211.148 262.804C215.991 279.029 215.505 275.547 217.141 300.341C194.361 292.412 191.12 290.778 178.68 255.194Z" fill="white"/>
<path d="M223.49 214.75C227.289 214.757 230.913 222.892 222.002 224.12" stroke="black" stroke-linecap="round"/>
<ellipse cx="210.909" cy="210.021" rx="2.39135" ry="3.98807" fill="black"/>
<ellipse cx="232.759" cy="211.106" rx="2.39135" ry="3.98807" fill="black"/>
<path d="M212.2 228.532C211.859 230.928 211.885 237.146 223.582 235.55" stroke="black" stroke-linecap="round"/>
<path d="M292.174 219.448C295.712 219.717 296.194 223.485 295.895 225.314L295.475 228.604L292.174 255.57L289.543 255.83L286.912 256.091L283.803 256.399L286.912 228.179L287.304 224.823C287.453 222.919 288.636 219.18 292.174 219.448Z" fill="#3C5890"/>
<path d="M286.912 228.179L283.803 256.399L286.912 256.091L290.166 228.34L286.912 228.179Z" fill="#5783BE"/>
<path d="M295.895 225.314L287.305 224.823C287.454 222.919 288.637 219.18 292.175 219.448C295.712 219.717 296.194 223.485 295.895 225.314Z" fill="white"/>
<path d="M295.895 225.315L287.304 224.823L286.912 228.179L295.474 228.604L295.895 225.315Z" fill="#9AB1DD"/>
<path d="M293.531 348.703L224.344 358.549L219.643 355.078L258.949 259.216L328.35 249.487L332.659 251.272L293.531 348.703Z" fill="#9F8EF0"/>
<path d="M224.344 358.55L262.955 261.637L332.658 251.272L293.531 348.703L224.344 358.55Z" fill="#6A40AD"/>
<path d="M292.174 255.57L295.474 228.604L292.722 228.479L289.543 255.83L292.174 255.57Z" fill="#5783BE"/>
<path d="M263.359 331.987C257.322 337.963 247.333 343.55 243.093 345.597L221.071 337.588C221.064 337.585 221.057 337.583 221.051 337.58L221.071 337.588C221.7 337.794 223.167 336.189 224.164 328.091C225.425 317.861 236.476 299.553 239.173 302.002C241.33 303.961 239.074 312.262 237.676 316.168C237.852 316.52 238.398 317.085 239.173 316.527C243.907 312.607 264.47 294.559 265.654 296.852C266.837 299.145 256.334 310.166 253.227 315.049C258.701 307.652 271.719 296.778 273.125 298.554C274.249 299.974 264.076 313.15 258.849 319.561C263.607 314.482 273.494 304.679 274.974 306.099C277.459 308.584 266.689 320.152 260.994 325.626C264.791 322.692 272.533 317.267 273.125 319.042C273.864 321.261 270.905 324.516 263.359 331.987Z" fill="white"/>
<path d="M243.093 345.597C247.333 343.55 257.322 337.963 263.359 331.987C270.905 324.516 273.864 321.261 273.125 319.042C272.533 317.267 264.791 322.692 260.994 325.626C266.689 320.152 277.459 308.584 274.974 306.099C273.494 304.679 263.607 314.482 258.849 319.561C264.076 313.15 274.249 299.974 273.125 298.554C271.719 296.778 258.701 307.652 253.227 315.049C256.334 310.166 266.837 299.145 265.654 296.852C264.47 294.559 243.907 312.607 239.173 316.527C238.398 317.085 237.852 316.52 237.676 316.168C239.074 312.262 241.33 303.961 239.173 302.002C236.476 299.553 225.425 317.861 224.164 328.091C223.156 336.276 221.669 337.827 221.051 337.58L243.093 345.597Z" stroke="black"/>
<path d="M280.893 263.429L278.133 261.654C279.352 257.934 284.859 250.676 297.136 251.401C298.69 250.365 301.409 246.607 306.395 247.386C309.512 247.334 309.861 250.807 309.643 252.621C309.743 252.124 310.645 251.223 313.648 251.076C316.808 250.92 316.047 256.159 315.272 258.798L280.893 263.429Z" fill="#FFEAC7"/>
<path d="M315.271 258.798L280.893 263.429C284.993 255.231 294.466 252.857 298.689 252.695C299.941 250.947 303.235 247.437 306.395 247.386C309.512 247.334 309.861 250.807 309.642 252.621C309.743 252.124 310.644 251.223 313.647 251.076C316.807 250.92 316.047 256.159 315.271 258.798Z" fill="#CB9F57"/>
<path d="M153.244 295.209C153.244 295.209 180.254 351.364 185.435 382.439C190.403 362.677 203.684 346.461 213.491 334.692C216.162 331.487 218.576 328.611 220.493 326.083C228.582 333.868 241.733 344.85 248.539 347.119C248.539 348.688 247.357 353.597 245.289 360.458C237.639 385.833 217.86 437.898 200.893 446.382C179.339 457.159 150.978 451.486 139.066 395.899L153.244 295.209Z" fill="#D8A6FF"/>
<path d="M153.244 295.209C153.244 295.209 180.254 351.364 185.435 382.439C191.756 357.295 211.536 337.89 220.493 326.083C228.582 333.868 241.733 344.85 248.539 347.119C248.539 354.492 222.447 435.604 200.893 446.382C179.339 457.159 150.978 451.486 139.066 395.899" stroke="black"/>
<path d="M220.55 210.023C220.55 215.801 215.855 220.486 210.061 220.486C204.267 220.486 199.572 215.801 199.572 210.023C199.572 204.246 204.267 199.561 210.061 199.561C215.855 199.561 220.55 204.246 220.55 210.023Z" stroke="black"/>
<path d="M242.664 211.106C242.664 216.256 238.937 220.334 234.452 220.334C229.967 220.334 226.24 216.256 226.24 211.106C226.24 205.956 229.967 201.878 234.452 201.878C238.937 201.878 242.664 205.956 242.664 211.106Z" stroke="black"/>
<path d="M220.783 209.247C221.566 208.677 223.654 207.879 225.741 209.247" stroke="black" stroke-linecap="round" stroke-linejoin="round"/>
<path d="M249.004 346.746C242.197 344.477 228.523 333.114 220.434 325.33C218.517 327.858 215.765 331.164 213.094 334.37C215.625 339.353 226.411 351.971 245.773 360.624C247.842 353.764 249.196 348.143 249.004 346.746Z" fill="#9065B0"/>
<path d="M390.412 230.318C429.136 230.318 460.528 198.926 460.528 160.202C460.528 121.477 429.136 90.085 390.412 90.085C351.687 90.085 320.295 121.477 320.295 160.202C320.295 173.088 323.771 185.162 329.837 195.537L320.295 218.256L346.889 215.179C358.846 224.658 373.968 230.318 390.412 230.318Z" fill="#FCE2B7"/>
<rect x="421.9" y="126.688" width="12.6789" height="57.6493" fill="#F07B58"/>
<rect x="402.273" y="146.629" width="12.6789" height="37.709" fill="#92483A"/>
<rect x="382.645" y="162.032" width="12.6789" height="22.3044" fill="#FFF4E8"/>
<rect x="363.018" y="152.245" width="12.6789" height="32.0927" fill="#F27A58"/>
<rect x="343.391" y="162.032" width="12.6789" height="22.3044" fill="#F39A6E"/>
<rect x="337.053" y="188.445" width="106.716" height="6.3879" rx="3.19395" fill="#FFF4E8"/>
<path d="M345.869 153.49C345.047 154.228 344.979 155.492 345.717 156.314C346.455 157.136 347.72 157.204 348.541 156.466L345.869 153.49ZM367.816 136.469L369.046 134.892C368.282 134.296 367.201 134.334 366.48 134.981L367.816 136.469ZM388.849 152.874L387.619 154.451C388.427 155.082 389.581 154.999 390.291 154.26L388.849 152.874ZM451.356 87.793L429.174 94.219L445.83 110.216L451.356 87.793ZM348.541 156.466L369.152 137.957L366.48 134.981L345.869 153.49L348.541 156.466ZM366.586 138.046L387.619 154.451L390.079 151.297L369.046 134.892L366.586 138.046ZM390.291 154.26L440.33 102.16L437.445 99.3897L387.406 151.489L390.291 154.26Z" fill="#34A853"/>
<path d="M324.307 82.6011C324.307 82.6011 323.438 78.1736 321.697 76.2459C319.955 74.3182 315.955 73.3572 315.955 73.3572C315.955 73.3572 319.955 72.3962 321.697 70.4685C323.438 68.5407 324.307 64.1133 324.307 64.1133C324.307 64.1133 325.175 68.5407 326.916 70.4685C328.658 72.3962 332.658 73.3572 332.658 73.3572C332.658 73.3572 328.658 74.3182 326.916 76.2459C325.175 78.1736 324.307 82.6011 324.307 82.6011Z" fill="#7601D3" fill-opacity="0.32"/>
<path d="M422.66 42.6458C422.66 42.6458 421.983 39.1927 420.625 37.6892C419.266 36.1857 416.146 35.4362 416.146 35.4362C416.146 35.4362 419.266 34.6867 420.625 33.1832C421.983 31.6797 422.66 28.2266 422.66 28.2266C422.66 28.2266 423.337 31.6797 424.696 33.1832C426.054 34.6867 429.174 35.4362 429.174 35.4362C429.174 35.4362 426.054 36.1857 424.696 37.6892C423.337 39.1927 422.66 42.6458 422.66 42.6458Z" fill="#7601D3" fill-opacity="0.04"/>
<path d="M603.517 359.949C603.517 359.949 602.954 355.521 601.826 353.594C600.697 351.666 598.105 350.705 598.105 350.705C598.105 350.705 600.697 349.744 601.826 347.816C602.954 345.888 603.517 341.461 603.517 341.461C603.517 341.461 604.079 345.888 605.208 347.816C606.336 349.744 608.928 350.705 608.928 350.705C608.928 350.705 606.336 351.666 605.208 353.594C604.079 355.521 603.517 359.949 603.517 359.949Z" fill="#7601D3" fill-opacity="0.16"/>
<path d="M466.523 218.58C466.523 218.58 466.089 216.113 465.219 215.039C464.348 213.965 462.348 213.429 462.348 213.429C462.348 213.429 464.348 212.894 465.219 211.82C466.089 210.746 466.523 208.279 466.523 208.279C466.523 208.279 466.958 210.746 467.828 211.82C468.699 212.894 470.699 213.429 470.699 213.429C470.699 213.429 468.699 213.965 467.828 215.039C466.958 216.113 466.523 218.58 466.523 218.58Z" fill="#7601D3" fill-opacity="0.16"/>
<path d="M295.398 183.989C295.398 183.989 294.116 176.702 291.543 173.529C288.971 170.357 283.062 168.775 283.062 168.775C283.062 168.775 288.971 167.193 291.543 164.02C294.116 160.848 295.398 153.561 295.398 153.561C295.398 153.561 296.681 160.848 299.253 164.02C301.826 167.193 307.734 168.775 307.734 168.775C307.734 168.775 301.826 170.357 299.253 173.529C296.681 176.702 295.398 183.989 295.398 183.989Z" fill="#7601D3" fill-opacity="0.04"/>
<path d="M431.977 387.303C431.977 387.303 431.542 383.887 430.672 382.399C429.801 380.911 427.801 380.17 427.801 380.17C427.801 380.17 429.801 379.428 430.672 377.94C431.542 376.453 431.977 373.036 431.977 373.036C431.977 373.036 432.411 376.453 433.281 377.94C434.152 379.428 436.152 380.17 436.152 380.17C436.152 380.17 434.152 380.911 433.281 382.399C432.411 383.887 431.977 387.303 431.977 387.303Z" fill="#7601D3" fill-opacity="0.04"/>
<path d="M452.748 234.81C452.748 234.81 451.744 229.69 449.73 227.461C447.716 225.231 443.09 224.12 443.09 224.12C443.09 224.12 447.716 223.008 449.73 220.779C451.744 218.55 452.748 213.43 452.748 213.43C452.748 213.43 453.752 218.55 455.766 220.779C457.78 223.008 462.406 224.12 462.406 224.12C462.406 224.12 457.78 225.231 455.766 227.461C453.752 229.69 452.748 234.81 452.748 234.81Z" fill="#7601D3" fill-opacity="0.08"/>
<path d="M586.541 100.157C586.541 100.157 585.673 95.7293 583.931 93.8016C582.19 91.8738 578.189 90.9128 578.189 90.9128C578.189 90.9128 582.19 89.9518 583.931 88.0241C585.673 86.0964 586.541 81.6689 586.541 81.6689C586.541 81.6689 587.409 86.0964 589.151 88.0241C590.893 89.9518 594.893 90.9128 594.893 90.9128C594.893 90.9128 590.893 91.8738 589.151 93.8016C587.409 95.7293 586.541 100.157 586.541 100.157Z" fill="#7601D3" fill-opacity="0.32"/>
</g>
<defs>
<filter id="filter0_d_7461_45302" x="406.727" y="247.272" width="122.119" height="131.599" filterUnits="userSpaceOnUse" color-interpolation-filters="sRGB">
<feFlood flood-opacity="0" result="BackgroundImageFix"/>
<feColorMatrix in="SourceAlpha" type="matrix" values="0 0 0 0 0 0 0 0 0 0 0 0 0 0 0 0 0 0 127 0" result="hardAlpha"/>
<feOffset dy="4"/>
<feGaussianBlur stdDeviation="4"/>
<feComposite in2="hardAlpha" operator="out"/>
<feColorMatrix type="matrix" values="0 0 0 0 0 0 0 0 0 0 0 0 0 0 0 0 0 0 0.16 0"/>
<feBlend mode="normal" in2="BackgroundImageFix" result="effect1_dropShadow_7461_45302"/>
<feBlend mode="normal" in="SourceGraphic" in2="effect1_dropShadow_7461_45302" result="shape"/>
</filter>
<clipPath id="clip0_7461_45302">
<rect x="0.367188" y="0.25" width="752" height="423" rx="8" fill="white"/>
</clipPath>
</defs>
</svg>
