<svg width="226" height="80" viewBox="0 0 226 80" fill="none" xmlns="http://www.w3.org/2000/svg">
<path d="M35.9573 53.4382C32.8463 49.5342 31.0163 46.1121 30.4063 43.1841C29.7963 40.8051 30.0403 38.9141 31.0773 37.5111C32.1753 35.8641 33.8223 35.0711 35.9573 35.0711C38.0923 35.0711 39.7393 35.8641 40.8373 37.5111C41.8743 38.9141 42.1183 40.8051 41.5083 43.1841C40.8373 46.1731 39.0073 49.5891 35.9573 53.4382ZM58.0515 56.0612C57.6245 58.9282 55.6725 61.3072 52.9885 62.4662C47.8035 64.7232 42.6734 61.1242 38.2814 56.2442C45.5465 47.1491 46.8885 40.0731 43.7714 35.492C41.9414 32.869 39.3184 31.588 35.9573 31.588C29.1863 31.588 25.4592 37.322 26.9232 43.9771C27.7772 47.5761 30.0342 51.6692 33.6332 56.2442C31.3762 58.7452 29.2412 60.5142 27.3502 61.6122C25.8862 62.4052 24.4832 62.8932 23.1412 63.0152C16.9802 63.9302 12.1551 57.9522 14.3511 51.7851C14.6561 50.9921 15.2661 49.5281 16.3031 47.2711L16.3641 47.1491C19.7191 39.823 23.8122 31.527 28.5092 22.3099L28.6312 22.0049L29.9732 19.4429C31.0102 17.5519 31.4372 16.6979 33.0842 15.6609C33.8772 15.1729 34.8532 14.9289 35.9512 14.9289C38.1472 14.9289 39.8552 16.2099 40.5872 17.2469C40.9532 17.7959 41.3802 18.5279 41.9292 19.4429L43.2102 21.9439L43.3932 22.3099C48.0902 31.527 52.1833 39.823 55.5383 47.1491L55.5993 47.2101L56.8193 50.0161L57.5513 51.7851C58.1125 53.1942 58.2345 54.5972 58.0515 56.0612ZM60.8575 50.5651C60.4305 49.2231 59.6985 47.6371 58.7835 45.7461V45.6851C54.4525 36.468 50.4204 28.172 46.5774 20.7239L46.3334 20.3579C43.5884 14.7459 41.6364 11.3848 35.9573 11.3848C30.3453 11.3848 27.9602 15.2888 25.5202 20.3579L25.3372 20.7239C21.4942 28.172 17.4621 36.468 13.1311 45.6851V45.8071L11.8501 48.6131C11.3621 49.7721 11.1181 50.3821 11.0571 50.5651C7.94613 59.1112 14.3511 66.6142 22.1042 66.6142C22.1652 66.6142 22.4092 66.6142 22.7142 66.5532H23.5682C27.5942 66.0652 31.7483 63.5032 35.9573 58.9221C40.1663 63.4971 44.3204 66.0652 48.3464 66.5532H49.2004C49.5054 66.6142 49.7494 66.6142 49.8104 66.6142C57.5635 66.6203 63.9685 59.1112 60.8575 50.5651Z" fill="#FF385C"/>
<path d="M92.9956 55.2245C91.5916 55.2462 90.2003 54.9546 88.9231 54.3709C87.6459 53.7873 86.5149 52.9262 85.6123 51.8504C83.6055 49.5381 82.5427 46.555 82.6352 43.4946C82.6028 40.3692 83.7026 37.3377 85.7314 34.9602C86.6763 33.8674 87.8471 32.9927 89.1629 32.3964C90.4787 31.8002 91.9083 31.4966 93.3529 31.5067C94.7151 31.4696 96.0645 31.7777 97.2757 32.4023C98.4868 33.027 99.5202 33.9478 100.28 35.0792L100.458 32.1815H105.936V54.649H100.458L100.26 51.3741C99.4804 52.5859 98.4035 53.5779 97.1318 54.2554C95.8602 54.9329 94.4362 55.2734 92.9956 55.2444V55.2245ZM94.4247 49.8657C95.4557 49.8638 96.4659 49.5752 97.3423 49.0321C98.1759 48.4367 98.8308 47.6428 99.3667 46.7099C99.8629 45.7572 100.101 44.6259 100.101 43.3755C100.101 42.1251 99.8629 40.9938 99.3667 40.0213C98.8904 39.0686 98.1759 38.2946 97.3423 37.6991C96.4653 37.1581 95.4551 36.8717 94.4247 36.8717C93.3942 36.8717 92.3841 37.1581 91.5071 37.6991C90.6735 38.2946 90.0185 39.0885 89.4826 40.0213C88.9866 41.0685 88.7419 42.2171 88.7681 43.3755C88.6967 44.4747 88.9115 45.5736 89.3916 46.565C89.8716 47.5564 90.6005 48.4064 91.5071 49.0321C92.4002 49.568 93.3529 49.8657 94.4247 49.8657ZM115.304 26.0883C115.304 26.7433 115.185 27.3387 114.907 27.815C114.59 28.3136 114.149 28.7217 113.627 28.9998C113.106 29.278 112.521 29.4168 111.93 29.4028C111.335 29.4028 110.739 29.3036 110.184 29.0059C109.672 28.7219 109.242 28.312 108.933 27.815C108.643 27.287 108.499 26.6908 108.516 26.0883C108.516 25.4333 108.636 24.8379 108.933 24.3616C109.231 23.8257 109.648 23.4684 110.184 23.1707C110.72 22.873 111.315 22.7539 111.91 22.7539C112.506 22.7539 113.101 22.873 113.637 23.1509C114.173 23.4684 114.59 23.8852 114.888 24.3417C115.126 24.8379 115.304 25.3738 115.304 26.0883ZM108.933 54.5696V32.1021H114.888V54.5696H108.933ZM130.785 37.9968V38.0564C130.488 37.9373 130.13 37.8778 129.833 37.8182C129.475 37.7587 129.178 37.7587 128.821 37.7587C127.153 37.7587 125.903 38.235 125.049 39.2472C124.176 40.2595 123.759 41.7083 123.759 43.5542V54.5696H117.805V32.1021H123.283L123.462 35.496C124.057 34.3052 124.772 33.4121 125.784 32.7571C126.79 32.0972 127.975 31.7645 129.178 31.8044C129.595 31.8044 130.011 31.8639 130.369 31.9235C130.567 31.983 130.666 31.983 130.785 32.0426V37.9968ZM133.167 54.5696V22.873H139.121V34.98C139.975 33.8884 140.908 33.0548 142.099 32.3998C143.997 31.4748 146.151 31.2127 148.216 31.6552C150.281 32.0977 152.138 33.2193 153.491 34.8411C155.495 37.1474 156.558 40.1232 156.468 43.1771C156.501 46.3024 155.401 49.334 153.372 51.7115C152.419 52.7833 151.288 53.6963 149.998 54.2917C148.668 54.8871 147.299 55.165 145.75 55.165C144.388 55.2021 143.039 54.894 141.828 54.2694C140.617 53.6447 139.583 52.7238 138.824 51.5924L138.645 54.51L133.167 54.5696ZM144.679 49.8657C145.71 49.8638 146.72 49.5752 147.596 49.0321C148.43 48.4367 149.085 47.6428 149.621 46.7099C150.097 45.7572 150.335 44.6259 150.335 43.3755C150.335 42.1251 150.097 40.9938 149.621 40.0213C149.085 39.0686 148.43 38.2946 147.596 37.6991C146.719 37.1581 145.709 36.8717 144.679 36.8717C143.648 36.8717 142.638 37.1581 141.761 37.6991C140.928 38.2946 140.273 39.0885 139.737 40.0213C139.234 41.0669 138.982 42.2155 139.002 43.3755C139.002 44.6259 139.26 45.7572 139.737 46.7099C140.213 47.6626 140.928 48.4367 141.761 49.0321C142.654 49.568 143.607 49.8657 144.679 49.8657ZM158.731 54.5696V32.1021H164.229L164.407 35.0197C165.096 33.8983 166.072 32.9813 167.234 32.3636C168.396 31.746 169.702 31.4501 171.016 31.5067C172.525 31.4523 174.015 31.8554 175.29 32.663C176.565 33.4706 177.566 34.645 178.162 36.0319C178.836 37.461 179.194 39.2075 179.194 41.1725V54.6291H173.239V41.9267C173.239 40.3785 172.862 39.148 172.148 38.235C171.433 37.3419 170.481 36.8655 169.23 36.8655C168.337 36.8655 167.563 37.064 166.848 37.461C166.193 37.8778 165.658 38.4136 165.241 39.1877C164.824 39.9022 164.645 40.8152 164.645 41.7083V54.5696H158.731ZM182.151 54.5696V22.873H188.125V34.98C188.959 33.8884 189.911 33.0548 191.102 32.3998C193.001 31.4748 195.155 31.2127 197.22 31.6552C199.285 32.0977 201.142 33.2193 202.495 34.8411C204.499 37.1474 205.561 40.1232 205.472 43.1771C205.504 46.3024 204.404 49.334 202.376 51.7115C201.431 52.8043 200.26 53.679 198.944 54.2753C197.628 54.8715 196.199 55.1751 194.754 55.165C193.392 55.2021 192.043 54.894 190.831 54.2694C189.62 53.6447 188.587 52.7238 187.827 51.5924L187.629 54.51L182.171 54.5696H182.151ZM193.722 49.8657C194.753 49.8638 195.763 49.5752 196.64 49.0321C197.473 48.4367 198.128 47.6428 198.664 46.7099C199.16 45.7572 199.398 44.6259 199.398 43.3755C199.398 42.1251 199.16 40.9938 198.664 40.0213C198.188 39.0686 197.473 38.2946 196.64 37.6991C195.763 37.1581 194.753 36.8717 193.722 36.8717C192.692 36.8717 191.681 37.1581 190.804 37.6991C189.971 38.2946 189.316 39.0885 188.78 40.0213C188.255 41.0586 188.009 42.2144 188.066 43.3755C187.994 44.4747 188.209 45.5736 188.689 46.565C189.169 47.5564 189.898 48.4064 190.804 49.0321C191.698 49.568 192.591 49.8657 193.722 49.8657Z" fill="#FF385C"/>
</svg>
