<svg width="219" height="80" viewBox="0 0 219 80" fill="none" xmlns="http://www.w3.org/2000/svg">
<path d="M55.9406 41.8956C55.9109 36.4333 58.3738 32.3106 63.3588 29.2743C60.5695 25.2706 56.356 23.0678 50.7924 22.6362C45.5255 22.2194 39.7689 25.7171 37.6622 25.7171C35.4367 25.7171 30.333 22.785 26.3272 22.785C18.0485 22.919 9.25049 29.4082 9.25049 42.6101C9.25049 46.5096 9.96263 50.5381 11.3869 54.6956C13.286 60.1579 20.1404 73.5532 27.2915 73.3299C31.0303 73.2406 33.6712 70.6657 38.5375 70.6657C43.2555 70.6657 45.7035 73.3299 49.8725 73.3299C57.083 73.2257 63.2846 61.0509 65.0946 55.5737C55.4213 51.0044 55.9406 42.1784 55.9406 41.8956V41.8956ZM47.5432 17.4567C51.5935 12.6344 51.2226 8.24368 51.1039 6.66602C47.5284 6.87439 43.389 9.10694 41.03 11.8604C38.4337 14.8074 36.9055 18.4539 37.2319 22.5618C41.1042 22.8594 44.6353 20.865 47.5432 17.4567V17.4567Z" fill="black"/>
<path d="M87.8309 50.4579L83.9438 62.2888H78.9473L91.6695 24.6901H97.5001L110.271 62.2888H105.104L101.104 50.4579H87.8309ZM100.108 46.6606L96.4474 35.8379C95.6133 33.3823 95.0626 31.1544 94.5038 28.9752H94.3985C93.8398 31.2032 93.2324 33.488 92.5117 35.781L88.8513 46.6525L100.108 46.6606ZM114.061 44.0993C114.061 40.6435 113.956 37.8464 113.834 35.285H118.223L118.45 39.9198H118.555C120.556 36.6267 123.722 34.6752 128.111 34.6752C134.614 34.6752 139.497 40.1963 139.497 48.4007C139.497 58.1093 133.61 62.8986 127.277 62.8986C123.722 62.8986 120.612 61.3374 119.001 58.6623H118.895V73.331H114.061V44.0993ZM118.887 51.2954C118.887 52.0272 118.993 52.6858 119.114 53.3038C120.005 56.7027 122.945 59.0526 126.451 59.0526C131.618 59.0526 134.622 54.8162 134.622 48.6202C134.622 43.2048 131.788 38.5863 126.621 38.5863C123.293 38.5863 120.183 40.985 119.227 44.6684C119.057 45.2783 118.895 46.0101 118.895 46.6769L118.887 51.2954ZM144.55 44.0993C144.55 40.6435 144.445 37.8464 144.324 35.285H148.713L148.94 39.9198H149.045C151.045 36.6267 154.212 34.6752 158.601 34.6752C165.104 34.6752 169.987 40.1963 169.987 48.4007C169.987 58.1093 164.099 62.8986 157.767 62.8986C154.212 62.8986 151.102 61.3374 149.49 58.6623H149.385V73.331H144.55V44.0993ZM149.385 51.2954C149.385 52.0272 149.49 52.6858 149.612 53.3038C150.503 56.7027 153.442 59.0526 156.949 59.0526C162.115 59.0526 165.12 54.8162 165.12 48.6202C165.12 43.2048 162.285 38.5863 157.119 38.5863C153.79 38.5863 150.681 40.985 149.725 44.6684C149.555 45.2783 149.393 46.0101 149.393 46.6769L149.385 51.2954ZM175.048 22.6816H179.939V62.2807H175.048V22.6816ZM189.771 49.6773C189.876 56.3123 194.103 59.0526 198.986 59.0526C202.485 59.0526 204.598 58.4427 206.428 57.6621L207.263 61.1748C205.546 61.9554 202.598 62.8498 198.322 62.8498C190.046 62.8498 185.098 57.3857 185.098 49.2382C185.098 41.0907 189.876 34.6752 197.707 34.6752C206.485 34.6752 208.817 42.4242 208.817 47.3924C208.817 48.4007 208.712 49.1731 208.647 49.6773H189.771ZM204.104 46.1646C204.161 43.0422 202.825 38.1879 197.326 38.1879C192.378 38.1879 190.216 42.7657 189.827 46.1646H204.104Z" fill="black"/>
</svg>
