<svg width="477" height="80" viewBox="0 0 477 80" fill="none" xmlns="http://www.w3.org/2000/svg">
<path d="M71.2835 34.5421L41.4653 51.3294L9.53569 33.3932L8 34.223V47.2444L41.4653 66.0102L71.2835 49.2869V56.1806L41.4653 72.9678L9.53569 55.0315L8 55.8614V58.0952L41.4653 76.8613L74.8665 58.0952V45.0741L73.3308 44.2443L41.4653 62.1166L11.5833 45.3933V38.4996L41.4653 55.2229L74.8665 36.457V23.6273L73.203 22.6698L41.4653 40.4782L13.119 24.6485L41.4653 8.75494L64.7567 21.84L66.8044 20.6911V19.0953L41.4653 4.86133L8 23.6273V25.6698L41.4653 44.4357L71.2835 27.6485V34.5421Z" fill="#EE3D2C"/>
<path d="M137.379 66.2135V8.89453H128.548V30.3413C128.548 30.6605 128.356 30.9158 128.036 31.0435C127.716 31.1711 127.397 31.0435 127.204 30.852C124.197 27.3413 119.526 25.3626 114.407 25.3626C103.465 25.3626 94.8911 34.5541 94.8911 46.2987C94.8911 52.0433 96.8745 57.3412 100.522 61.2348C104.169 65.1287 109.096 67.2347 114.407 67.2347C119.462 67.2347 124.133 65.1287 127.204 61.4901C127.397 61.2348 127.78 61.1712 128.036 61.2348C128.356 61.3626 128.548 61.6179 128.548 61.9372V66.2135H137.379ZM116.327 59.2562C109.288 59.2562 103.785 53.5752 103.785 46.2987C103.785 39.0222 109.288 33.3413 116.327 33.3413C123.365 33.3413 128.868 39.0222 128.868 46.2987C128.868 53.5752 123.365 59.2562 116.327 59.2562Z" fill="black"/>
<path d="M184.602 66.2215V26.3279H175.836V30.3492C175.836 30.6683 175.644 30.9237 175.324 31.0513C175.004 31.179 174.684 31.0513 174.492 30.796C171.549 27.2853 166.941 25.3066 161.695 25.3066C150.753 25.3066 142.178 34.4981 142.178 46.2427C142.178 57.9873 150.753 67.1788 161.695 67.1788C166.75 67.1788 171.421 65.0724 174.492 61.3706C174.684 61.1153 175.068 61.0514 175.324 61.1153C175.644 61.2427 175.836 61.4981 175.836 61.8173V66.1575H184.602V66.2215ZM163.678 59.2642C156.64 59.2642 151.137 53.5831 151.137 46.3066C151.137 39.0302 156.64 33.3492 163.678 33.3492C170.717 33.3492 176.22 39.0302 176.22 46.3066C176.22 53.5831 170.717 59.2642 163.678 59.2642Z" fill="black"/>
<path d="M259.656 66.2215V26.3279H250.89V30.3492C250.89 30.6683 250.698 30.9237 250.378 31.0513C250.058 31.179 249.738 31.0513 249.546 30.796C246.603 27.2853 241.996 25.3066 236.749 25.3066C225.743 25.3066 217.233 34.4981 217.233 46.3066C217.233 58.1151 225.807 67.2427 236.749 67.2427C241.804 67.2427 246.475 65.1363 249.546 61.4341C249.738 61.1788 250.122 61.1153 250.378 61.1788C250.698 61.3067 250.89 61.562 250.89 61.8812V66.2215H259.656ZM238.732 59.2642C231.694 59.2642 226.191 53.5831 226.191 46.3066C226.191 39.0302 231.694 33.3492 238.732 33.3492C245.771 33.3492 251.274 39.0302 251.274 46.3066C251.274 53.5831 245.771 59.2642 238.732 59.2642Z" fill="black"/>
<path d="M275.72 61.4901C275.783 61.4901 275.912 61.4265 275.976 61.4265C276.167 61.4265 276.423 61.554 276.551 61.6818C279.559 65.1923 284.23 67.1712 289.349 67.1712C300.291 67.1712 308.865 57.9797 308.865 46.2348C308.865 40.4901 306.881 35.1924 303.234 31.2988C299.587 27.4051 294.66 25.2988 289.349 25.2988C284.294 25.2988 279.623 27.4051 276.551 31.0435C276.359 31.2988 276.039 31.3626 275.72 31.2988C275.4 31.1711 275.208 30.9158 275.208 30.5966V8.89453H266.377V66.2135H275.208V62.1925C275.208 61.8732 275.4 61.6179 275.72 61.4901ZM274.824 46.2987C274.824 39.0222 280.327 33.3413 287.365 33.3413C294.404 33.3413 299.907 39.0222 299.907 46.2987C299.907 53.5752 294.404 59.2562 287.365 59.2562C280.327 59.2562 274.824 53.5116 274.824 46.2987Z" fill="black"/>
<path d="M334.397 34.502C335.229 34.502 335.997 34.5658 336.509 34.6934V25.6296C336.188 25.5658 335.613 25.502 335.037 25.502C330.43 25.502 326.206 27.8637 323.967 31.6296C323.775 31.9488 323.455 32.0764 323.135 31.9488C322.815 31.8849 322.559 31.5658 322.559 31.2467V26.3318H313.793V66.2892H322.623V48.6722C322.623 39.9274 327.102 34.502 334.397 34.502Z" fill="black"/>
<path d="M351.033 26.3242H342.074V66.2815H351.033V26.3242Z" fill="black"/>
<path d="M346.424 8.96484C343.416 8.96484 340.985 11.3904 340.985 14.3904C340.985 17.3904 343.416 19.8159 346.424 19.8159C349.431 19.8159 351.862 17.3904 351.862 14.3904C351.862 11.3904 349.431 8.96484 346.424 8.96484Z" fill="black"/>
<path d="M377.269 25.3066C364.983 25.3066 356.087 34.1151 356.087 46.3066C356.087 52.2427 358.202 57.5406 361.974 61.3706C365.816 65.2002 371.188 67.3066 377.203 67.3066C382.195 67.3066 386.033 66.3493 393.33 60.9874L388.275 55.6895C384.689 58.0512 381.362 59.2003 378.101 59.2003C370.677 59.2003 365.111 53.647 365.111 46.3066C365.111 38.9662 370.677 33.413 378.101 33.413C381.618 33.413 384.883 34.5619 388.148 36.9236L393.776 31.6258C387.187 26.0088 381.235 25.3066 377.269 25.3066Z" fill="black"/>
<path d="M408.877 48.6669C409.005 48.5391 409.199 48.4755 409.392 48.4755H409.454C409.648 48.4755 409.838 48.603 410.031 48.7308L424.172 66.22H435.051L416.751 44.1349C416.492 43.8157 416.492 43.369 416.813 43.1137L433.641 26.3265H422.828L408.304 40.8798C408.11 41.0712 407.792 41.1351 407.471 41.0712C407.215 40.9434 407.022 40.6881 407.022 40.3692V8.96484H398.129V66.2839H406.96V50.7094C406.96 50.518 407.022 50.2627 407.215 50.1349L408.877 48.6669Z" fill="black"/>
<path d="M449.44 67.2401C456.67 67.2401 464.029 62.8359 464.029 54.4743C464.029 48.9849 460.574 45.2189 453.537 42.9211L448.735 41.3253C445.473 40.2402 443.936 38.7083 443.936 36.6019C443.936 34.1764 446.113 32.5168 449.184 32.5168C452.127 32.5168 454.75 34.4317 456.415 37.751L463.518 33.9211C460.896 28.5594 455.454 25.2402 449.184 25.2402C441.248 25.2402 435.493 30.3466 435.493 37.3039C435.493 42.8572 438.82 46.5593 445.664 48.7296L450.594 50.3254C454.048 51.4105 455.52 52.8146 455.52 55.0488C455.52 58.4317 452.383 59.6444 449.695 59.6444C446.113 59.6444 442.914 57.3466 441.38 53.5805L434.149 57.4105C436.515 63.4743 442.337 67.2401 449.44 67.2401Z" fill="black"/>
<path d="M209.174 66.8551C211.989 66.8551 214.485 66.5998 215.893 66.408V58.7484C214.741 58.8762 212.693 59.0037 211.478 59.0037C207.894 59.0037 205.143 58.3656 205.143 50.6421V34.2379C205.143 33.7911 205.463 33.472 205.911 33.472H214.549V26.2592H205.911C205.463 26.2592 205.143 25.94 205.143 25.4932V14.0039H196.312V25.5571C196.312 26.0039 195.993 26.323 195.545 26.323H189.402V33.5358H195.545C195.993 33.5358 196.312 33.8549 196.312 34.3018V52.8763C196.312 66.8551 205.655 66.8551 209.174 66.8551Z" fill="black"/>
</svg>
