<svg width="410" height="80" viewBox="0 0 410 80" fill="none" xmlns="http://www.w3.org/2000/svg">
<path d="M123.312 30.3752V50.0509H128.218C129.47 50.0323 130.706 49.7628 131.852 49.2584C132.998 48.7539 134.031 48.0247 134.89 47.1139C136.654 45.2468 137.619 42.7649 137.579 40.1968C137.617 38.9213 137.402 37.6509 136.947 36.4587C136.492 35.2664 135.806 34.1759 134.928 33.2497C134.065 32.3376 133.024 31.6119 131.871 31.1171C130.717 30.6223 129.474 30.369 128.218 30.3727H123.315L123.312 30.3752ZM128.218 24.2061C137.362 24.2061 144.279 31.2909 144.279 40.1968C144.279 49.1028 137.362 56.2275 128.218 56.2275H117.398C117.295 56.2262 117.193 56.2046 117.099 56.1639C117.004 56.1233 116.918 56.0643 116.846 55.9904C116.774 55.9165 116.717 55.8292 116.679 55.7334C116.641 55.6376 116.622 55.5352 116.623 55.432V25.0342C116.623 24.5939 116.971 24.2361 117.398 24.2361L128.218 24.2061ZM167.847 50.7364C172 50.7489 175.75 48.1947 177.349 44.2645C178.132 42.3443 178.341 40.2382 177.951 38.2014C177.561 36.1646 176.589 34.2847 175.152 32.7894C173.74 31.3186 171.916 30.3107 169.919 29.8989C167.923 29.4871 165.848 29.6907 163.97 30.4828C160.132 32.1039 157.625 35.939 157.618 40.1968C157.618 46.0007 162.188 50.7089 167.847 50.7364ZM167.85 23.4806C177.474 23.4806 184.831 31.0657 184.831 40.1968C184.831 49.3279 177.474 56.913 167.847 56.913C158.223 56.913 150.928 49.3655 150.928 40.1968C150.928 31.0282 158.288 23.4806 167.85 23.4806ZM208.209 50.7364C213.871 50.7214 218.451 46.0082 218.446 40.2043C218.439 34.3954 213.848 29.6923 208.189 29.6898C202.525 29.6898 197.932 34.3904 197.925 40.1968C197.925 42.9937 199.008 45.6755 200.937 47.6518C201.881 48.6258 203.011 49.4006 204.259 49.9304C205.508 50.4602 206.853 50.7342 208.209 50.7364ZM208.207 23.4806C217.801 23.4806 225.158 31.0282 225.158 40.1968C225.158 49.3655 217.771 56.913 208.207 56.913C198.645 56.913 191.225 49.3655 191.225 40.1968C191.225 31.0282 198.583 23.4806 208.207 23.4806ZM247.598 30.3752H240.681V38.8434H247.598C248.145 38.8676 248.69 38.7796 249.201 38.5847C249.713 38.3898 250.178 38.0921 250.57 37.7102C251.371 36.9346 251.826 35.8589 251.836 34.7282C251.856 34.1545 251.76 33.5827 251.554 33.047C251.347 32.5114 251.035 32.023 250.635 31.6111C250.243 31.2057 249.77 30.887 249.247 30.6755C248.724 30.4639 248.162 30.3642 247.598 30.3828V30.3752ZM233.989 25.0342C233.989 24.5939 234.339 24.2361 234.767 24.2361H247.791C254 24.2361 258.493 28.9018 258.493 34.7607C258.54 38.7233 256.376 42.3633 252.922 44.137L258.928 55.0267C259.011 55.1519 259.058 55.2976 259.063 55.4478C259.069 55.5979 259.032 55.7466 258.958 55.8773C258.886 56.006 258.778 56.1112 258.648 56.1803C258.517 56.2495 258.37 56.2798 258.223 56.2676H252.952C252.805 56.2696 252.662 56.2304 252.537 56.1542C252.412 56.0781 252.311 55.9682 252.246 55.8373L246.457 45.0601H240.656V55.407C240.658 55.5104 240.639 55.613 240.601 55.7091C240.563 55.8052 240.506 55.8929 240.434 55.967C240.362 56.0412 240.276 56.1003 240.181 56.1412C240.086 56.182 239.984 56.2037 239.88 56.205H234.802C234.699 56.2037 234.597 56.182 234.502 56.1412C234.407 56.1003 234.321 56.0412 234.249 55.967C234.177 55.8929 234.12 55.8052 234.082 55.7091C234.044 55.613 234.025 55.5104 234.027 55.407L233.991 25.0367L233.989 25.0342ZM275.935 30.5253V50.2035H280.838C282.09 50.1866 283.325 49.9188 284.471 49.416C285.618 48.9133 286.652 48.1858 287.512 47.2766C289.277 45.4116 290.243 42.9315 290.207 40.3644C290.247 39.0873 290.034 37.8149 289.58 36.6204C289.126 35.426 288.44 34.3331 287.562 33.4048C286.698 32.4912 285.656 31.7646 284.499 31.2697C283.343 30.7749 282.098 30.5224 280.84 30.5279L275.935 30.5253ZM280.838 24.3487C289.981 24.3487 296.899 31.441 296.899 40.3644C296.899 49.2879 289.981 56.3801 280.838 56.3801H270.051C269.947 56.3788 269.845 56.3571 269.75 56.3163C269.655 56.2755 269.569 56.2163 269.497 56.1421C269.425 56.068 269.368 55.9804 269.33 55.8843C269.292 55.7882 269.273 55.6855 269.275 55.5821V25.1868C269.275 24.744 269.623 24.3862 270.051 24.3862L280.838 24.3487ZM317.302 32.174L313.507 42.696H321.09L317.302 32.174ZM311.281 48.6425L308.797 55.6472C308.747 55.812 308.643 55.9555 308.503 56.0552C308.363 56.1548 308.193 56.2049 308.021 56.1975H302.632C302.495 56.2103 302.357 56.1859 302.232 56.127C302.108 56.068 302.002 55.9766 301.924 55.8623C301.846 55.7467 301.798 55.6128 301.786 55.4734C301.774 55.334 301.799 55.194 301.857 55.0668L313.5 24.699C313.554 24.5388 313.659 24.4008 313.799 24.306C313.939 24.2111 314.106 24.1646 314.275 24.1736H320.304C320.474 24.1641 320.641 24.2103 320.782 24.3052C320.922 24.4001 321.028 24.5384 321.082 24.699L332.725 55.0668C332.783 55.1942 332.807 55.3344 332.794 55.4737C332.782 55.6131 332.734 55.7469 332.655 55.8623C332.578 55.9761 332.471 56.067 332.347 56.1256C332.222 56.1841 332.084 56.2081 331.947 56.195H326.561C326.389 56.2024 326.219 56.1523 326.079 56.0527C325.938 55.953 325.835 55.8095 325.785 55.6447L323.301 48.64H311.281V48.6425ZM338.972 32.8569C338.972 27.8285 343.21 23.4806 349.902 23.4806C353.505 23.4002 356.994 24.7482 359.608 27.2306C359.688 27.3059 359.751 27.3967 359.794 27.4973C359.838 27.598 359.86 27.7064 359.86 27.816C359.86 27.9256 359.838 28.0341 359.794 28.1347C359.751 28.2354 359.688 28.3261 359.608 28.4014L356.624 31.441C356.552 31.5148 356.467 31.5735 356.372 31.6136C356.278 31.6537 356.176 31.6744 356.073 31.6744C355.97 31.6744 355.869 31.6537 355.774 31.6136C355.68 31.5735 355.594 31.5148 355.523 31.441C354.117 30.1234 352.271 29.3769 350.344 29.3471C347.668 29.3471 345.689 30.9406 345.689 32.7794C345.689 38.7233 361.507 35.2935 361.507 46.7312C361.499 52.5276 357.229 56.913 349.679 56.913C347.582 56.9345 345.503 56.5341 343.564 55.7355C341.625 54.937 339.867 53.7567 338.394 52.2649C338.314 52.1896 338.251 52.0989 338.207 51.9982C338.164 51.8975 338.142 51.7891 338.142 51.6795C338.142 51.5699 338.164 51.4615 338.207 51.3608C338.251 51.2601 338.314 51.1694 338.394 51.0941L341.281 48.1321C341.353 48.0547 341.44 47.9929 341.537 47.9507C341.633 47.9084 341.738 47.8866 341.844 47.8866C341.949 47.8866 342.054 47.9084 342.151 47.9507C342.248 47.9929 342.335 48.0547 342.407 48.1321C344.224 49.9331 346.67 50.956 349.229 50.984C352.573 50.984 354.777 49.1528 354.777 46.8588C354.777 40.9123 338.967 44.3446 338.967 32.9044M390.191 24.9941V37.0122H376.802V24.9941C376.803 24.891 376.784 24.7886 376.746 24.6928C376.708 24.597 376.651 24.5096 376.579 24.4357C376.507 24.3619 376.421 24.3029 376.326 24.2622C376.232 24.2215 376.13 24.1999 376.027 24.1986H370.948C370.845 24.1999 370.743 24.2215 370.648 24.2622C370.553 24.3029 370.468 24.3619 370.396 24.4357C370.324 24.5096 370.267 24.597 370.229 24.6928C370.19 24.7886 370.171 24.891 370.173 24.9941V55.357C370.173 55.7973 370.523 56.155 370.948 56.155H376.027C376.452 56.155 376.802 55.7973 376.802 55.357V43.1488H390.181V55.357C390.181 55.7973 390.531 56.155 390.957 56.155H396.035C396.463 56.155 396.81 55.7973 396.81 55.357V24.9941C396.812 24.891 396.793 24.7886 396.754 24.6928C396.716 24.597 396.659 24.5096 396.587 24.4357C396.515 24.3619 396.43 24.3029 396.335 24.2622C396.24 24.2215 396.138 24.1999 396.035 24.1986H390.957C390.75 24.2039 390.554 24.2903 390.41 24.4392C390.267 24.5881 390.188 24.7875 390.191 24.9941ZM88.1164 28.2513C84.594 21.722 77.7019 17.6567 70.2069 17.6818H13.4989C13.116 17.6833 12.7419 17.7975 12.4234 18.0102C12.1049 18.2228 11.856 18.5245 11.7077 18.8776C11.5616 19.2284 11.5236 19.6149 11.5984 19.9874C11.6733 20.36 11.8577 20.7018 12.128 20.969L24.4813 33.2272C25.572 34.3129 27.058 34.9208 28.604 34.9208H68.5808C71.4302 34.8908 73.7593 37.1473 73.7893 39.9567C73.8193 42.766 71.5353 45.0676 68.6859 45.0951H41.1249C40.7417 45.0953 40.3669 45.2083 40.0475 45.42C39.7281 45.6318 39.4781 45.9329 39.3287 46.2859C39.1812 46.6371 39.1422 47.0245 39.2166 47.3981C39.2911 47.7717 39.4756 48.1144 39.7465 48.3823L52.1073 60.6505C53.2048 61.7357 54.6866 62.3435 56.23 62.3416H68.6959C84.9142 62.3416 97.1774 45.2302 88.1164 28.2438" fill="#FF3008"/>
</svg>
