<svg width="201" height="80" viewBox="0 0 201 80" fill="none" xmlns="http://www.w3.org/2000/svg">
<path d="M35.5397 20.2695C23.2173 20.2695 12.949 25.4962 12.949 41.2671C12.949 53.761 19.8538 61.6284 35.8573 61.6284C54.6947 61.6284 55.9021 49.2208 55.9021 49.2208H46.7748C46.7748 49.2208 44.818 55.9018 35.3008 55.9018C27.5493 55.9018 21.9743 50.6658 21.9743 43.3275H56.8572V38.722C56.8572 31.4617 52.2478 20.2695 35.5397 20.2695ZM35.221 26.1552C42.5995 26.1552 47.6297 30.6751 47.6297 37.4494H22.176C22.176 30.2573 28.7422 26.1552 35.221 26.1552Z" fill="#E53238"/>
<path d="M56.8509 5V53.7106C56.8509 56.4755 56.6533 60.3579 56.6533 60.3579H65.3588C65.3588 60.3579 65.6717 57.5697 65.6717 55.0211C65.6717 55.0211 69.9728 61.7499 81.6683 61.7499C93.9837 61.7499 102.349 53.1996 102.349 40.951C102.349 29.5555 94.6655 20.3904 81.6881 20.3904C69.5358 20.3904 65.7597 26.952 65.7597 26.952V5H56.8509ZM79.4411 26.4154C87.8044 26.4154 93.123 32.6221 93.123 40.951C93.123 49.8824 86.9804 55.725 79.5011 55.725C70.5748 55.725 65.7597 48.7555 65.7597 41.0303C65.7597 33.8318 70.0801 26.4154 79.4411 26.4154Z" fill="#0064D2"/>
<path d="M123.985 20.2695C105.448 20.2695 104.259 30.4187 104.259 32.0409H113.486C113.486 32.0409 113.969 26.1156 123.349 26.1156C129.444 26.1156 134.167 28.9055 134.167 34.2679V36.1768H123.349C108.988 36.1768 101.395 40.378 101.395 48.9032C101.395 57.2927 108.41 61.8574 117.891 61.8574C130.811 61.8574 134.973 54.719 134.973 54.719C134.973 57.5584 135.191 60.3564 135.191 60.3564H143.394C143.394 60.3564 143.076 56.8883 143.076 54.6694V35.491C143.076 22.9155 132.932 20.2695 123.985 20.2695ZM134.167 41.9034V44.4486C134.167 47.7681 132.118 56.0213 120.058 56.0213C113.454 56.0213 110.622 52.7256 110.622 48.9026C110.622 41.9483 120.157 41.9034 134.167 41.9034Z" fill="#F5AF02"/>
<path d="M138.108 21.8691H148.488L163.385 51.713L178.248 21.8691H187.652L160.579 75.0006H150.715L158.527 60.1893L138.108 21.8691Z" fill="#86B817"/>
</svg>
