<svg width="159" height="80" viewBox="0 0 159 80" fill="none" xmlns="http://www.w3.org/2000/svg">
<path d="M27.927 40.0008C27.927 37.0796 29.0875 34.278 31.1531 32.2124C33.2187 30.1468 36.0203 28.9863 38.9415 28.9863C41.8627 28.9863 44.6643 30.1468 46.7299 32.2124C48.7955 34.278 49.956 37.0796 49.956 40.0008C49.956 42.922 48.7955 45.7236 46.7299 47.7892C44.6643 49.8549 41.8627 51.0153 38.9415 51.0153C36.0203 51.0153 33.2187 49.8549 31.1531 47.7892C29.0875 45.7236 27.927 42.922 27.927 40.0008Z" fill="#1ABCFE"/>
<path d="M5.89795 62.0282C5.89795 59.1069 7.0584 56.3054 9.12402 54.2397C11.1896 52.1741 13.9912 51.0137 16.9124 51.0137H27.9269V62.0282C27.9269 64.9494 26.7665 67.751 24.7009 69.8166C22.6352 71.8822 19.8337 73.0427 16.9124 73.0427C13.9912 73.0427 11.1896 71.8822 9.12402 69.8166C7.0584 67.751 5.89795 64.9494 5.89795 62.0282Z" fill="#0ACF83"/>
<path d="M27.927 6.95703V28.986H38.9415C41.8627 28.986 44.6643 27.8256 46.7299 25.7599C48.7955 23.6943 49.956 20.8928 49.956 17.9715C49.956 15.0503 48.7955 12.2487 46.7299 10.1831C44.6643 8.11748 41.8627 6.95703 38.9415 6.95703L27.927 6.95703Z" fill="#FF7262"/>
<path d="M5.89795 17.9715C5.89795 20.8928 7.0584 23.6943 9.12402 25.7599C11.1896 27.8256 13.9912 28.986 16.9124 28.986H27.9269V6.95703H16.9124C13.9912 6.95703 11.1896 8.11748 9.12402 10.1831C7.0584 12.2487 5.89795 15.0503 5.89795 17.9715Z" fill="#F24E1E"/>
<path d="M5.89795 40.0008C5.89795 42.922 7.0584 45.7236 9.12402 47.7892C11.1896 49.8549 13.9912 51.0153 16.9124 51.0153H27.9269V28.9863H16.9124C13.9912 28.9863 11.1896 30.1468 9.12402 32.2124C7.0584 34.278 5.89795 37.0796 5.89795 40.0008Z" fill="#A259FF"/>
<path d="M64.04 25.0215V48.3954L67.0545 48.407V37.2766H74.3009V34.3316H67.0429V27.9548H76.4922V25.0215H64.04ZM81.8951 29.7751C82.4179 29.7751 82.9192 29.5674 83.2888 29.1978C83.6585 28.8282 83.8661 28.3268 83.8661 27.8041C83.8661 27.2813 83.6585 26.78 83.2888 26.4104C82.9192 26.0407 82.4179 25.8331 81.8951 25.8331C81.3724 25.8331 80.871 26.0407 80.5014 26.4104C80.1318 26.78 79.9241 27.2813 79.9241 27.8041C79.9241 28.3268 80.1318 28.8282 80.5014 29.1978C80.871 29.5674 81.3724 29.7751 81.8951 29.7751ZM80.3763 32.7084V48.407H83.3908V32.7084H80.3763Z" fill="black"/>
<path fill-rule="evenodd" clip-rule="evenodd" d="M94.5327 32.2559C90.5443 32.2559 87.7617 35.6298 87.7617 39.6414C87.7617 43.653 90.5443 47.0269 94.5327 47.0269C96.3646 47.0269 97.8719 46.3312 98.9733 45.1718V47.2588C98.981 47.8823 98.865 48.5012 98.632 49.0797C98.399 49.6582 98.0537 50.1847 97.6159 50.6289C97.1782 51.0731 96.6568 51.4261 96.0818 51.6676C95.5068 51.909 94.8897 52.0341 94.2661 52.0356C93.3037 52.0356 92.353 51.6646 91.5994 51.1312L90.0922 53.7399C91.2576 54.4933 92.6048 54.9181 93.9916 54.9696C95.3784 55.0211 96.7534 54.6973 97.9715 54.0325C99.1897 53.3676 100.206 52.3863 100.913 51.192C101.62 49.9978 101.991 48.6349 101.988 47.2472V32.7196H98.9733V34.1225C97.8719 32.9631 96.3646 32.2675 94.5327 32.2675V32.2559ZM90.7646 39.6414C90.7646 37.1486 92.6661 35.1892 94.869 35.1892C97.0719 35.1892 98.9617 37.1602 98.9617 39.6414C98.9617 42.1341 97.0603 44.0819 94.869 44.0819C92.6661 44.0819 90.7646 42.1341 90.7646 39.6414Z" fill="black"/>
<path d="M112.817 35.1898C111.955 35.2051 111.133 35.5591 110.53 36.1752C109.927 36.7914 109.59 37.6203 109.594 38.4826V48.4072H106.579V32.7087H109.594V34.1464C110.045 33.5486 110.63 33.0659 111.303 32.7374C111.976 32.409 112.717 32.2442 113.466 32.2565C115.576 32.2565 117.199 33.3 118.127 34.9C118.644 34.0979 119.353 33.4366 120.188 32.9753C121.024 32.5139 121.961 32.267 122.915 32.2565C126.336 32.2565 128.481 35.0159 128.481 38.4362V48.4072H125.489V38.471C125.492 37.6087 125.156 36.7799 124.553 36.1637C123.95 35.5475 123.128 35.1935 122.266 35.1782C121.404 35.1935 120.582 35.5475 119.979 36.1637C119.376 36.7799 119.04 37.6087 119.043 38.471V48.3956H116.028V38.471C116.032 37.6107 115.697 36.7835 115.096 36.1677C114.495 35.5518 113.677 35.1965 112.817 35.1782V35.1898Z" fill="black"/>
<path fill-rule="evenodd" clip-rule="evenodd" d="M144.515 34.4937C143.831 33.7799 143.008 33.2133 142.097 32.8286C141.186 32.4438 140.206 32.249 139.217 32.256C134.742 32.256 131.565 36.0358 131.565 40.5575C131.565 45.0792 134.742 48.8589 139.217 48.8589C140.206 48.864 141.185 48.6682 142.096 48.2836C143.006 47.8989 143.83 47.3334 144.515 46.6213V48.4068H147.518V32.7082H144.504V34.4937H144.515ZM134.568 40.5575C134.568 37.5662 136.863 35.1894 139.542 35.1894C142.208 35.1894 144.515 37.5662 144.515 40.5575C144.515 43.5488 142.22 45.914 139.542 45.914C136.875 45.914 134.568 43.5488 134.568 40.5575Z" fill="black"/>
</svg>
