<svg width="234" height="80" viewBox="0 0 234 80" fill="none" xmlns="http://www.w3.org/2000/svg">
<path d="M43.5928 38.9725H52.7377V51.8334C49.8844 52.7514 46.2816 53.2548 42.5365 53.2548C27.3583 53.2548 18.4376 40.2404 18.4376 27.5302C18.4376 15.0641 26.5066 6.31991 37.7638 6.31991C44.8873 6.31991 49.0322 8.73626 52.7404 12.1022V16.2982L59.6934 9.3361C55.2955 6.35682 48.9273 3.52539 39.825 3.52539C19.843 3.52539 10.7095 17.8393 10.7095 29.6026C10.7095 46.3465 22.8895 56.4332 38.1957 56.4332C45.6172 56.4332 52.2068 55.2988 59.8186 53.1781V39.8907C59.8186 39.2113 60.1167 38.7451 60.5625 38.3357L62.9644 35.9307H46.6535L43.5928 38.9725Z" fill="url(#paint0_linear_8515_143950)"/>
<path d="M84.5586 21.498C73.0572 21.498 65.9309 29.9131 65.9309 38.8452C65.9309 46.555 71.672 55.7086 83.3037 55.7086C94.4928 55.7086 101.358 47.2771 101.358 38.1886C101.358 29.7227 94.6489 21.5012 84.5586 21.5012V21.498ZM82.6503 23.9514C90.7592 23.9514 94.3705 34.5296 94.3705 42.0744C94.3705 53.295 85.9637 53.5168 84.9587 53.5168C81.1116 53.5168 78.4228 51.1887 76.4101 48.1353C74.6385 45.3212 72.9067 40.093 72.9067 34.9844C72.9067 29.8958 74.5702 27.4111 77.1881 25.5832C79.3289 24.213 81.3333 23.9514 82.6476 23.9514H82.6503Z" fill="url(#paint1_linear_8515_143950)"/>
<path d="M159.743 21.4922C149.697 21.4922 144.263 27.8602 144.263 34.97C144.263 40.3828 148.136 46.4892 156.125 46.4892H158.146C158.146 46.4892 157.596 47.8281 157.593 49.1216C157.593 51.0294 158.277 52.1008 159.731 53.7497C145.983 54.5883 140.458 60.1404 140.458 66.1075C140.458 71.3329 145.456 76.4755 155.957 76.4755C168.39 76.4755 174.829 69.5643 174.829 62.7816C174.829 58 172.45 55.3789 166.425 50.8588C164.654 49.4801 164.31 48.602 164.31 47.57C164.31 46.0917 165.193 45.1135 165.517 44.7442C166.088 44.1415 167.076 43.4536 167.445 43.1238C169.469 41.4067 172.328 38.8655 172.328 33.7936C172.328 30.314 170.883 27.3206 167.589 24.5175H171.61L174.631 21.4928H159.743V21.4922ZM156.972 23.7551C158.794 23.7551 160.316 24.4004 161.923 25.7394C163.706 27.3485 166.554 31.6724 166.554 37.0226C166.554 42.7963 162.074 44.3769 159.649 44.3769C158.462 44.3769 157.04 44.0443 155.836 43.2199C153.161 41.4832 150.507 36.8605 150.507 31.3596C150.507 26.396 153.459 23.7551 156.972 23.7551ZM160.949 55.9415C161.716 55.9415 162.267 56.0044 162.267 56.0044C162.267 56.0044 164.075 57.2978 165.339 58.2641C168.28 60.5924 170.114 62.372 170.114 65.542C170.114 69.9001 166.076 73.3171 159.538 73.3171C152.361 73.3171 146.875 69.9711 146.875 64.5075C146.875 59.9814 150.634 56.0862 160.949 55.9415Z" fill="url(#paint2_linear_8515_143950)"/>
<path d="M176.806 54.7067H190.595L192.696 52.6034L188.741 52.1087C187.676 51.9779 187.044 51.0568 187.044 50.1642V8.45718C187.044 7.6356 187.424 7.21486 187.702 6.94735L190.189 4.45703H178.43L175.369 7.5216H179.94V50.724C179.94 51.338 179.747 51.7559 179.332 52.1851L176.806 54.7067Z" fill="url(#paint3_linear_8515_143950)"/>
<path d="M209.28 21.498C201.58 21.498 193.401 27.3742 193.401 37.9239C193.401 46.6368 199.269 55.7086 210.234 55.7086C212.968 55.7086 215.22 55.3564 217.329 54.387C219.592 53.3437 221.77 51.6493 223.359 49.52C220.359 51.0353 217.911 52.0303 214.66 52.0303C208.482 52.0303 202.525 47.567 200.442 39.3626L222.266 30.53C221.006 26.0298 217.451 21.498 209.283 21.498H209.28ZM207.855 23.9116C211.986 23.9116 214.972 27.3145 214.972 29.9782C214.972 30.8396 214.433 31.2945 213.365 31.7152L199.95 37.1478C199.95 37.1478 199.587 35.4563 199.587 33.6284C199.587 25.9613 205.124 23.9116 207.855 23.9116Z" fill="url(#paint4_linear_8515_143950)"/>
<path d="M123.586 21.498C112.084 21.498 104.958 29.9131 104.958 38.8452C104.958 46.555 110.699 55.7086 122.331 55.7086C133.52 55.7086 140.385 47.2771 140.385 38.1886C140.385 29.7227 133.676 21.5012 123.586 21.5012V21.498ZM121.678 23.9514C129.787 23.9514 133.398 34.5296 133.398 42.0744C133.398 53.295 124.991 53.5168 123.986 53.5168C120.139 53.5168 117.45 51.1887 115.438 48.1353C113.666 45.3212 111.934 40.093 111.934 34.9844C111.934 29.8958 113.597 27.4111 116.215 25.5832C118.356 24.213 120.361 23.9514 121.675 23.9514H121.678Z" fill="url(#paint5_linear_8515_143950)"/>
<defs>
<linearGradient id="paint0_linear_8515_143950" x1="36.707" y1="3.37562" x2="36.707" y2="56.4303" gradientUnits="userSpaceOnUse">
<stop stop-color="#196EEF"/>
<stop offset="0.5" stop-color="#186DEE"/>
<stop offset="1" stop-color="#1065E7"/>
</linearGradient>
<linearGradient id="paint1_linear_8515_143950" x1="83.5155" y1="21.417" x2="83.5155" y2="55.723" gradientUnits="userSpaceOnUse">
<stop stop-color="#DE5744"/>
<stop offset="0.5" stop-color="#DB4632"/>
<stop offset="1" stop-color="#D13D29"/>
</linearGradient>
<linearGradient id="paint2_linear_8515_143950" x1="157.518" y1="21.414" x2="157.518" y2="76.4964" gradientUnits="userSpaceOnUse">
<stop stop-color="#1A6FEF"/>
<stop offset="0.25" stop-color="#1E72EF"/>
<stop offset="0.5" stop-color="#166BEC"/>
<stop offset="0.75" stop-color="#1267E9"/>
<stop offset="1" stop-color="#1063E5" stop-opacity="0.87"/>
</linearGradient>
<linearGradient id="paint3_linear_8515_143950" x1="183.907" y1="4.33875" x2="183.907" y2="54.7551" gradientUnits="userSpaceOnUse">
<stop stop-color="#0AA561"/>
<stop offset="0.5" stop-color="#009B58"/>
<stop offset="1" stop-color="#00914B"/>
</linearGradient>
<linearGradient id="paint4_linear_8515_143950" x1="208.255" y1="21.417" x2="208.255" y2="55.6286" gradientUnits="userSpaceOnUse">
<stop stop-color="#DE5644"/>
<stop offset="0.5" stop-color="#DA4531"/>
<stop offset="1" stop-color="#CE3A28"/>
</linearGradient>
<linearGradient id="paint5_linear_8515_143950" x1="122.544" y1="21.4915" x2="122.544" y2="55.6551" gradientUnits="userSpaceOnUse">
<stop stop-color="#FFC01A"/>
<stop offset="0.5" stop-color="#FFBA03"/>
<stop offset="1" stop-color="#FFB300"/>
</linearGradient>
</defs>
</svg>
