<svg width="275" height="80" viewBox="0 0 275 80" fill="none" xmlns="http://www.w3.org/2000/svg">
<path d="M5.39062 15.8203H14.6082V36.2989H34.0486V15.8203H43.2781V66.0889H34.0486V45.1802H14.6082V66.0889H5.39062V15.8203ZM72.4792 49.7156C72.4792 53.9237 69.0508 57.348 64.8437 57.348C60.6351 57.348 57.2087 53.9237 57.2087 49.7156V28.0733H48.4672V49.7156C48.4672 58.7447 55.8141 66.0889 64.8437 66.0889C73.8713 66.0889 81.2176 58.7447 81.2176 49.7156V28.0733H72.4792V49.7156ZM105.621 28.3268C101.284 28.3268 98.2576 29.5851 95.3347 32.4543V15.8203H86.5648V46.6476C86.5648 58.1865 94.9077 66.0889 104.281 66.0889C114.701 66.0889 123.831 58.0456 123.831 47.2084C123.831 36.5085 115.412 28.3268 105.621 28.3268ZM105.838 57.9759C99.8959 57.9759 95.3517 53.0129 95.3517 47.2084C95.3517 41.4028 99.8959 36.4383 105.838 36.4383C110.874 36.4383 115.421 41.4028 115.421 47.2084C115.421 53.0129 110.874 57.9759 105.838 57.9759ZM138.56 30.5362C138.56 26.1278 141.497 24.7301 144.713 24.7301C147.302 24.7301 150.728 26.688 152.964 29.0662L158.696 22.3534C155.831 18.5078 150.028 15.8497 145.273 15.8497C135.761 15.8497 128.908 21.3744 128.908 30.5362C128.908 47.5285 149.818 42.1422 149.818 51.655C149.818 54.5887 146.952 57.1786 143.667 57.1786C138.49 57.1786 136.811 54.661 134.434 52.003L128.07 58.5753C132.128 63.5408 137.161 66.0595 143.176 66.0595C152.196 66.0595 159.469 60.4651 159.469 51.7226C159.469 32.8426 138.56 38.7174 138.56 30.5362ZM182.557 27.8342C173.185 27.8342 164.841 35.732 164.841 47.2734V78.1803H173.61V61.4673C176.534 64.3344 179.559 65.5948 183.896 65.5948C193.687 65.5948 202.107 57.4141 202.107 46.7142C202.107 35.8755 192.975 27.8342 182.557 27.8342ZM184.115 57.4843C178.173 57.4843 173.628 52.5147 173.628 46.7142C173.628 40.9087 178.173 35.9442 184.115 35.9442C189.149 35.9442 193.696 40.9087 193.696 46.7142C193.696 52.5147 189.149 57.4843 184.115 57.4843ZM266.659 57.9759C261.487 57.9759 260.018 55.7391 260.018 52.3112V37.1374H268.059V29.4462H260.018V19.3055L251.14 23.2905V54.1994C251.14 62.1023 256.592 66.0889 264.072 66.0889C265.19 66.0889 266.731 66.0166 267.571 65.8096L269.739 57.8385C268.76 57.9062 267.641 57.9759 266.659 57.9759Z" fill="#45535E"/>
<path d="M243.533 37.5839C241.851 34.6914 239.487 32.3726 236.53 30.6269C234.321 29.3407 232.03 28.5244 229.448 28.1738V18.9832C232.03 17.8871 233.632 15.4608 233.632 12.6303C233.632 8.77234 230.538 5.64597 226.683 5.64597C222.825 5.64597 219.677 8.77234 219.677 12.6303C219.677 15.4608 221.187 17.8871 223.768 18.9832V28.178C221.703 28.4764 219.561 29.1203 217.605 30.1096C213.611 27.0756 200.511 17.1224 192.848 11.3091C193.03 10.6538 193.17 9.97848 193.17 9.26594C193.17 4.99282 189.71 1.5293 185.435 1.5293C181.16 1.5293 177.701 4.99282 177.701 9.26594C177.701 13.5386 181.164 17.0031 185.438 17.0031C186.897 17.0031 188.245 16.5766 189.409 15.8754L191.026 17.1022L213.247 33.1125C212.072 34.1911 210.978 35.4179 210.103 36.7945C208.329 39.6007 207.246 42.6883 207.246 46.0563V46.759C207.246 49.1233 207.695 51.3554 208.46 53.4522C209.134 55.2831 210.119 56.9477 211.339 58.4528L203.964 65.8456C202.896 65.4478 201.735 65.3662 200.621 65.6105C199.507 65.8547 198.487 66.4146 197.683 67.2232C197.126 67.7773 196.685 68.4363 196.384 69.1622C196.084 69.8881 195.931 70.6664 195.933 71.4519C195.934 73.0489 196.556 74.5498 197.686 75.6791C198.24 76.2363 198.898 76.6781 199.624 76.9789C200.35 77.2797 201.128 77.4336 201.914 77.4315C202.699 77.4335 203.478 77.2796 204.204 76.9788C204.93 76.678 205.589 76.2363 206.143 75.6791C206.699 75.125 207.141 74.4661 207.441 73.7406C207.741 73.015 207.895 72.2372 207.893 71.4519C207.893 70.8338 207.798 70.2308 207.618 69.6576L215.241 62.0341C216.286 62.7559 217.414 63.3636 218.628 63.8877C221.021 64.9224 223.662 65.5528 226.553 65.5528H227.083C230.279 65.5528 233.294 64.8021 236.128 63.2665C239.115 61.6437 241.452 59.4246 243.218 56.5915C244.993 53.7506 245.971 50.6119 245.971 47.1587V46.9862C245.971 43.5893 245.184 40.4552 243.533 37.5839ZM234.219 53.5761C232.15 55.8753 229.772 57.2916 227.083 57.2916H226.64C225.105 57.2916 223.603 56.8672 222.132 56.0953C220.475 55.2454 219.215 54.0331 218.184 52.498C217.118 50.9914 216.54 49.3464 216.54 47.6022V47.0725C216.54 45.3577 216.869 43.7318 217.698 42.1963C218.584 40.5177 219.782 39.2124 221.374 38.1746C222.938 37.144 224.607 36.6385 226.467 36.6385H226.64C228.327 36.6385 229.923 36.971 231.43 37.7419C232.965 38.5639 234.219 39.6869 235.191 41.1641C236.136 42.6419 236.697 44.2358 236.878 45.9722C236.906 46.3331 236.921 46.7028 236.921 47.0559C236.921 49.4125 236.02 51.595 234.219 53.5761Z" fill="#F8761F"/>
</svg>
