<svg width="187" height="80" viewBox="0 0 187 80" fill="none" xmlns="http://www.w3.org/2000/svg">
<path d="M22.8869 8.3418H10.9304V20.2983H22.8869V8.3418Z" fill="#00C7FD"/>
<path d="M22.5892 70.6376V27.5772H11.271V70.6376H22.5892ZM97.8173 71.0631V60.5108C96.1578 60.5108 94.7537 60.4257 93.7325 60.2555C92.5411 60.0853 91.6476 59.6598 91.0519 59.0641C90.4562 58.4684 90.0732 57.6174 89.8605 56.5111C89.6903 55.4474 89.6052 54.0432 89.6052 52.3412V37.2786H97.8173V27.5772H89.6052V10.7701H78.2444V52.4263C78.2444 55.958 78.5422 58.9364 79.1379 61.3192C79.7336 63.6595 80.7548 65.5742 82.159 67.0209C83.5631 68.4676 85.4353 69.4888 87.6904 70.127C89.9881 70.7653 92.8815 71.0631 96.328 71.0631H97.8173ZM162.833 70.6376V7.45117H151.473V70.6376H162.833ZM67.3091 31.7897C64.1604 28.3857 59.7352 26.6837 54.1186 26.6837C51.3955 26.6837 48.9276 27.2368 46.6724 28.3431C44.4598 29.4494 42.5451 30.9812 41.0559 32.9385L40.4176 33.747V33.0236V27.5772H29.227V70.6376H40.5027V47.7033V49.2776C40.5027 49.0223 40.5027 48.767 40.5027 48.5117C40.6304 44.4695 41.609 41.491 43.4812 39.5763C45.481 37.5339 47.9064 36.5127 50.6721 36.5127C53.9484 36.5127 56.4589 37.5339 58.1183 39.4912C59.7352 41.4485 60.5862 44.2142 60.5862 47.7458V47.8309V70.5951H72.0321V46.1715C72.0747 40.0443 70.4578 35.1936 67.3091 31.7897ZM145.601 49.0223C145.601 45.9162 145.048 43.0228 143.984 40.2996C142.878 37.619 141.346 35.2362 139.431 33.1938C137.474 31.1514 135.133 29.5771 132.41 28.4282C129.687 27.2794 126.666 26.7262 123.39 26.7262C120.284 26.7262 117.348 27.3219 114.624 28.4708C111.901 29.6622 109.518 31.2365 107.519 33.2364C105.519 35.2362 103.902 37.619 102.753 40.3422C101.562 43.0654 101.009 46.0013 101.009 49.1074C101.009 52.2136 101.562 55.1495 102.668 57.8727C103.774 60.5959 105.349 62.9787 107.306 64.9785C109.263 66.9783 111.689 68.5952 114.497 69.7441C117.305 70.9355 120.411 71.5312 123.73 71.5312C133.346 71.5312 139.303 67.1485 142.878 63.0638L134.708 56.8515C133.006 58.8939 128.921 61.6596 123.815 61.6596C120.624 61.6596 117.986 60.9363 115.986 59.447C113.986 58.0003 112.625 55.9579 111.901 53.4475L111.774 53.0646H145.601V49.0223ZM111.859 45.0652C111.859 41.9165 115.475 36.4276 123.262 36.385C131.049 36.385 134.708 41.874 134.708 45.0226L111.859 45.0652Z" fill="#0068B5"/>
<path d="M175.768 65.0217C175.556 64.5111 175.258 64.0856 174.875 63.7027C174.492 63.3198 174.066 63.0219 173.556 62.8091C173.045 62.5964 172.492 62.4688 171.939 62.4688C171.343 62.4688 170.833 62.5964 170.322 62.8091C169.811 63.0219 169.386 63.3198 169.003 63.7027C168.62 64.0856 168.322 64.5111 168.109 65.0217C167.897 65.5323 167.769 66.0855 167.769 66.6386C167.769 67.2343 167.897 67.7449 168.109 68.2555C168.322 68.7661 168.62 69.1916 169.003 69.5746C169.386 69.9575 169.811 70.2554 170.322 70.4681C170.833 70.6809 171.386 70.8085 171.939 70.8085C172.535 70.8085 173.045 70.6809 173.556 70.4681C174.066 70.2554 174.492 69.9575 174.875 69.5746C175.258 69.1916 175.556 68.7661 175.768 68.2555C175.981 67.7449 176.109 67.1918 176.109 66.6386C176.109 66.0855 175.981 65.5323 175.768 65.0217ZM175.088 68.0002C174.917 68.4257 174.662 68.8087 174.364 69.1065C174.066 69.4044 173.683 69.6597 173.258 69.8299C172.832 70.0001 172.407 70.0852 171.896 70.0852C171.428 70.0852 170.96 70.0001 170.535 69.8299C170.109 69.6597 169.726 69.4044 169.428 69.1065C169.131 68.8087 168.875 68.4257 168.705 68.0002C168.535 67.5747 168.45 67.1492 168.45 66.6386C168.45 66.1706 168.535 65.7025 168.705 65.277C168.875 64.8515 169.131 64.4686 169.428 64.1707C169.726 63.8729 170.109 63.6176 170.535 63.4474C170.96 63.2772 171.386 63.1921 171.896 63.1921C172.364 63.1921 172.832 63.2772 173.258 63.4474C173.683 63.6176 174.066 63.8729 174.364 64.1707C174.662 64.4686 174.917 64.8515 175.088 65.277C175.258 65.7025 175.343 66.128 175.343 66.6386C175.385 67.1492 175.258 67.5747 175.088 68.0002ZM172.705 66.979C173.045 66.9365 173.301 66.8088 173.513 66.5961C173.726 66.3833 173.854 66.0855 173.854 65.66C173.854 65.1919 173.726 64.8515 173.428 64.5962C173.173 64.3409 172.705 64.2133 172.152 64.2133H170.279V69.0214H171.173V67.0641H171.811L173.003 69.0214H173.939L172.705 66.979ZM172.237 66.2982C172.109 66.2982 171.981 66.2982 171.811 66.2982H171.173V64.9366H171.811C171.939 64.9366 172.067 64.9366 172.237 64.9366C172.364 64.9366 172.492 64.9792 172.62 65.0217C172.747 65.0643 172.832 65.1494 172.875 65.2345C172.918 65.3196 172.96 65.4472 172.96 65.6174C172.96 65.7876 172.918 65.9153 172.875 66.0004C172.79 66.0855 172.705 66.1706 172.62 66.2131C172.492 66.2557 172.364 66.2982 172.237 66.2982Z" fill="#0068B5"/>
</svg>
