<svg width="307" height="80" viewBox="0 0 307 80" fill="none" xmlns="http://www.w3.org/2000/svg">
<path d="M115.764 13.6777H126.336L144.313 46.1963L162.289 13.6777H172.633V67.1118H164.007V26.1586L148.244 54.5168H140.152L124.389 26.1586V67.1118H115.764V13.6777Z" fill="#1C2B33"/>
<path d="M200.456 68.0646C196.461 68.0646 192.949 67.1804 189.922 65.412C186.894 63.6436 184.534 61.1945 182.842 58.0648C181.149 54.935 180.303 51.3472 180.304 47.3017C180.304 43.2052 181.131 39.5793 182.785 36.424C184.438 33.2693 186.735 30.8011 189.674 29.0193C192.613 27.2387 195.991 26.3481 199.807 26.3477C203.598 26.3477 206.862 27.2445 209.597 29.0383C212.332 30.8326 214.437 33.3453 215.914 36.5765C217.389 39.8083 218.127 43.5995 218.127 47.9504V50.3165H188.853C189.388 53.574 190.704 56.1376 192.804 58.0072C194.903 59.8776 197.555 60.8126 200.761 60.8125C203.331 60.8125 205.545 60.4308 207.402 59.6675C209.26 58.9041 211.003 57.7465 212.631 56.1945L217.211 61.8049C212.656 65.9784 207.071 68.0649 200.456 68.0646V68.0646ZM206.754 36.3665C204.947 34.522 202.58 33.5996 199.655 33.5992C196.804 33.5992 194.419 34.5408 192.498 36.424C190.577 38.3069 189.362 40.8387 188.853 44.0192H209.845C209.59 40.7622 208.56 38.2112 206.754 36.3665V36.3665Z" fill="#1C2B33"/>
<path d="M228.586 34.3631H220.647V27.302H228.586V15.623H236.906V27.302H248.967V34.3631H236.906V52.2634C236.906 55.2401 237.415 57.3647 238.433 58.6371C239.45 59.9098 241.193 60.5459 243.662 60.5454C244.756 60.5454 245.684 60.5009 246.448 60.4119C247.212 60.3231 248.051 60.2022 248.967 60.0492V67.0337C247.922 67.336 246.857 67.5657 245.78 67.721C244.548 67.9023 243.304 67.9916 242.059 67.9881C233.077 67.9881 228.586 63.0773 228.586 53.2557V34.3631Z" fill="#1C2B33"/>
<path d="M292.326 67.1102H284.159V61.5378C282.708 63.6245 280.864 65.2339 278.625 66.3658C276.385 67.4977 273.841 68.0639 270.991 68.0646C267.48 68.0646 264.369 67.1676 261.659 65.3735C258.949 63.5797 256.818 61.1116 255.266 57.9693C253.714 54.8268 252.938 51.2327 252.938 47.1871C252.938 43.116 253.727 39.5155 255.305 36.3855C256.882 33.2561 259.064 30.8007 261.85 29.0193C264.636 27.2387 267.836 26.3481 271.449 26.3477C274.172 26.3477 276.614 26.8757 278.777 27.9318C280.911 28.9639 282.759 30.5037 284.159 32.4162V27.302H292.326V67.1102ZM284.006 41.233C283.115 38.9684 281.709 37.1808 279.789 35.8702C277.867 34.56 275.647 33.9049 273.128 33.9049C269.566 33.9049 266.729 35.1007 264.617 37.4924C262.505 39.8843 261.449 43.1158 261.449 47.1871C261.449 51.284 262.467 54.5283 264.503 56.9198C266.538 59.3117 269.299 60.5075 272.785 60.5074C275.355 60.5074 277.645 59.8457 279.655 58.5225C281.665 57.2 283.115 55.4189 284.006 53.1792L284.006 41.233Z" fill="#1C2B33"/>
<path d="M22.525 48.961C22.525 52.1918 23.2341 54.6722 24.161 56.1729C25.3762 58.1384 27.1887 58.9711 29.0365 58.9711C31.4199 58.9711 33.6002 58.3796 37.802 52.5684C41.1681 47.9106 45.1344 41.3725 47.8032 37.2737L52.3227 30.3297C55.4623 25.5071 59.0962 20.146 63.2626 16.5121C66.664 13.5462 70.3332 11.8984 74.0259 11.8984C80.2256 11.8984 86.131 15.4911 90.6505 22.2292C95.5967 29.6088 97.9977 38.9039 97.9977 48.4961C97.9977 54.1985 96.8737 58.3885 94.9612 61.6987C93.1134 64.9 89.5118 68.0984 83.4534 68.0984V58.9711C88.6409 58.9711 89.9355 54.2044 89.9355 48.7491C89.9355 40.9753 88.123 32.3482 84.1302 26.1838C81.2966 21.8114 77.6245 19.1397 73.5846 19.1397C69.2151 19.1397 65.6989 22.4352 61.7473 28.3112C59.6464 31.4331 57.4896 35.2376 55.068 39.5306L52.4022 44.2532C47.047 53.7483 45.6906 55.911 43.013 59.4801C38.3198 65.7298 34.3123 68.0984 29.0365 68.0984C22.778 68.0984 18.8205 65.3885 16.3695 61.3044C14.3686 57.9766 13.3859 53.61 13.3859 48.6344L22.525 48.961Z" fill="#0081FB"/>
<path d="M20.5918 22.8736C24.7818 16.415 30.8284 11.8984 37.7637 11.8984C41.7801 11.8984 45.7729 13.0872 49.9423 16.4916C54.5031 20.2137 59.3639 26.3427 65.4282 36.444L67.6026 40.0691C72.8519 48.8139 75.8384 53.3128 77.5862 55.4343C79.8342 58.159 81.4084 58.9711 83.4534 58.9711C88.6409 58.9711 89.9355 54.2044 89.9355 48.7491L97.9977 48.4961C97.9977 54.1985 96.8737 58.3885 94.9612 61.6987C93.1133 64.9 89.5118 68.0984 83.4534 68.0984C79.6871 68.0984 76.3504 67.2804 72.6607 63.7996C69.8242 61.1279 66.5081 56.3817 63.957 52.1153L56.3685 39.4394C52.5611 33.0779 49.0684 28.3347 47.047 26.1868C44.8725 23.877 42.0773 21.0876 37.6166 21.0876C34.0062 21.0876 30.9402 23.621 28.3745 27.4961L20.5918 22.8736Z" fill="url(#paint0_linear_8515_143958)"/>
<path d="M37.6166 21.0876C34.0063 21.0876 30.9403 23.621 28.3745 27.4961C24.7465 32.972 22.525 41.1283 22.525 48.961C22.525 52.1918 23.2341 54.6722 24.161 56.1729L16.3695 61.3044C14.3686 57.9766 13.3859 53.61 13.3859 48.6344C13.3859 39.5865 15.8692 30.156 20.5918 22.8736C24.7818 16.415 30.8285 11.8984 37.7637 11.8984L37.6166 21.0876Z" fill="url(#paint1_linear_8515_143958)"/>
<defs>
<linearGradient id="paint0_linear_8515_143958" x1="31.3345" y1="46.3246" x2="89.5942" y2="49.267" gradientUnits="userSpaceOnUse">
<stop stop-color="#0064E1"/>
<stop offset="0.4" stop-color="#0064E1"/>
<stop offset="0.83" stop-color="#0073EE"/>
<stop offset="1" stop-color="#0082FB"/>
</linearGradient>
<linearGradient id="paint1_linear_8515_143958" x1="26.6267" y1="52.7979" x2="26.6267" y2="31.3183" gradientUnits="userSpaceOnUse">
<stop stop-color="#0082FB"/>
<stop offset="1" stop-color="#0064E0"/>
</linearGradient>
</defs>
</svg>
