<svg width="319" height="80" viewBox="0 0 319 80" fill="none" xmlns="http://www.w3.org/2000/svg">
<path d="M305.52 36.9885V31.7826H299.055V23.6894L298.837 23.7564L292.765 25.6143L292.645 25.6506V31.7829H283.061V28.3667C283.061 26.776 283.417 25.5587 284.118 24.7469C284.814 23.9448 285.81 23.537 287.08 23.537C287.993 23.537 288.938 23.7521 289.889 24.1762L290.128 24.2827V18.8002L290.016 18.7589C289.128 18.4399 287.921 18.2793 286.425 18.2793C284.539 18.2793 282.826 18.6896 281.332 19.5029C279.837 20.3173 278.661 21.4799 277.837 22.958C277.016 24.4345 276.599 26.1397 276.599 28.0268V31.7826H272.098V36.9885H276.599V58.9201H283.061V36.9885H292.645V50.9257C292.645 56.6656 295.353 59.5744 300.693 59.5744C301.57 59.5744 302.494 59.4716 303.436 59.2703C304.396 59.0636 305.05 58.8571 305.435 58.6366L305.52 58.5862V53.3322L305.257 53.506C304.906 53.7397 304.47 53.9307 303.958 54.0727C303.443 54.2173 303.014 54.2898 302.681 54.2898C301.43 54.2898 300.505 53.9527 299.931 53.2875C299.35 52.6163 299.055 51.4425 299.055 49.8006V36.9885H305.52ZM257.666 54.2906C255.321 54.2906 253.472 53.5129 252.168 51.9809C250.857 50.4412 250.193 48.246 250.193 45.4569C250.193 42.5793 250.857 40.3271 252.169 38.7602C253.473 37.2036 255.305 36.4135 257.614 36.4135C259.854 36.4135 261.638 37.1681 262.916 38.6574C264.2 40.1545 264.852 42.3886 264.852 45.2997C264.852 48.2465 264.239 50.5102 263.03 52.0244C261.83 53.5272 260.026 54.2906 257.666 54.2906M257.954 31.1289C253.479 31.1289 249.924 32.4401 247.39 35.0261C244.858 37.6125 243.574 41.1916 243.574 45.6651C243.574 49.914 244.827 53.3316 247.299 55.8215C249.772 58.3122 253.137 59.5739 257.299 59.5739C261.637 59.5739 265.121 58.2443 267.654 55.6225C270.186 53.0035 271.47 49.4581 271.47 45.0892C271.47 40.7738 270.266 37.3307 267.89 34.8575C265.513 32.3831 262.169 31.1289 257.954 31.1289M233.155 31.1289C230.111 31.1289 227.593 31.9075 225.669 33.4426C223.734 34.9869 222.752 37.0123 222.752 39.4632C222.752 40.7372 222.964 41.8689 223.381 42.8287C223.801 43.7917 224.45 44.6396 225.312 45.3512C226.168 46.0571 227.49 46.7964 229.24 47.5487C230.712 48.1543 231.81 48.6666 232.507 49.0704C233.189 49.4661 233.672 49.8639 233.945 50.2513C234.211 50.6304 234.346 51.1493 234.346 51.7896C234.346 53.6128 232.98 54.4999 230.171 54.4999C229.129 54.4999 227.94 54.2823 226.638 53.8534C225.345 53.4309 224.125 52.8122 223.02 52.019L222.752 51.8265V58.0482L222.85 58.094C223.765 58.5161 224.918 58.872 226.276 59.1521C227.632 59.4324 228.865 59.575 229.935 59.575C233.238 59.575 235.898 58.7927 237.839 57.2484C239.792 55.6935 240.782 53.6203 240.782 51.0846C240.782 49.2554 240.249 47.6867 239.199 46.4216C238.156 45.1668 236.345 44.0148 233.82 42.9965C231.808 42.189 230.519 41.5187 229.987 41.0041C229.475 40.507 229.214 39.804 229.214 38.9137C229.214 38.1245 229.536 37.4922 230.195 36.9802C230.86 36.4656 231.785 36.2039 232.945 36.2039C234.022 36.2039 235.124 36.374 236.219 36.7073C237.314 37.0406 238.275 37.4871 239.078 38.0332L239.342 38.2136V32.3118L239.241 32.2683C238.5 31.9507 237.524 31.679 236.338 31.4585C235.157 31.2394 234.086 31.1289 233.155 31.1289M205.906 54.2906C203.561 54.2906 201.711 53.5129 200.408 51.9809C199.096 50.4412 198.433 48.2465 198.433 45.4569C198.433 42.5793 199.097 40.3271 200.409 38.7602C201.712 37.2036 203.544 36.4135 205.854 36.4135C208.094 36.4135 209.877 37.1681 211.155 38.6574C212.44 40.1545 213.091 42.3886 213.091 45.2997C213.091 48.2465 212.478 50.5102 211.27 52.0244C210.07 53.5272 208.266 54.2906 205.906 54.2906M206.194 31.1289C201.718 31.1289 198.163 32.4401 195.63 35.0261C193.098 37.6125 191.813 41.1916 191.813 45.6651C191.813 49.9157 193.067 53.3316 195.54 55.8215C198.012 58.3122 201.376 59.5739 205.539 59.5739C209.876 59.5739 213.361 58.2443 215.894 55.6225C218.426 53.0035 219.71 49.4581 219.71 45.0892C219.71 40.7738 218.505 37.3307 216.129 34.8575C213.751 32.3831 210.408 31.1289 206.194 31.1289M182.004 36.4823V31.7826H175.62V58.9195H182.004V45.0379C182.004 42.6775 182.539 40.7383 183.595 39.2736C184.637 37.8264 186.027 37.0931 187.723 37.0931C188.298 37.0931 188.944 37.1878 189.643 37.3754C190.334 37.5618 190.836 37.7643 191.131 37.9773L191.399 38.1717V31.7362L191.296 31.6918C190.702 31.4393 189.861 31.3118 188.796 31.3118C187.192 31.3118 185.757 31.8273 184.527 32.8421C183.448 33.7341 182.668 34.9571 182.071 36.4823H182.004ZM164.188 31.1289C161.26 31.1289 158.648 31.7568 156.426 32.9948C154.199 34.2355 152.478 36.0069 151.306 38.2594C150.14 40.5064 149.548 43.1311 149.548 46.0582C149.548 48.6222 150.122 50.9752 151.257 53.049C152.392 55.1262 153.999 56.7513 156.033 57.8784C158.065 59.004 160.413 59.5747 163.012 59.5747C166.046 59.5747 168.636 58.9682 170.712 57.7721L170.796 57.724V51.8758L170.528 52.0717C169.587 52.7569 168.536 53.3038 167.405 53.6979C166.277 54.0916 165.248 54.2906 164.346 54.2906C161.841 54.2906 159.831 53.5069 158.371 51.9617C156.908 50.4145 156.167 48.242 156.167 45.5081C156.167 42.7571 156.94 40.5287 158.464 38.8845C159.984 37.2451 161.999 36.4135 164.452 36.4135C166.55 36.4135 168.594 37.124 170.529 38.5271L170.796 38.7215V32.5595L170.71 32.5108C169.982 32.1033 168.989 31.7669 167.757 31.5117C166.529 31.2572 165.329 31.1289 164.188 31.1289M145.151 31.7829H138.768V58.9195H145.151V31.7829V31.7829ZM142.025 20.2225C140.974 20.2225 140.058 20.5802 139.305 21.2889C138.549 21.9996 138.165 22.8945 138.165 23.9505C138.165 24.99 138.544 25.8685 139.293 26.5604C140.037 27.2502 140.956 27.5998 142.025 27.5998C143.093 27.5998 144.016 27.2502 144.769 26.5615C145.527 25.8685 145.911 24.9903 145.911 23.9505C145.911 22.9314 145.537 22.0457 144.8 21.3175C144.064 20.5907 143.13 20.2225 142.025 20.2225ZM126.098 29.7807V58.9195H132.612V21.0532H123.596L112.135 49.1792L101.013 21.0532H91.6296V58.9193H97.7517V29.7778H97.9618L109.706 58.9195H114.326L125.887 29.7807H126.098V29.7807Z" fill="#706D6E"/>
<path d="M39.5299 38.4298H9.50024V8.40039H39.5299V38.4298Z" fill="#F1511B"/>
<path d="M72.6856 38.4298H42.6565V8.40039H72.6856V38.4298Z" fill="#80CC28"/>
<path d="M39.5288 71.5994H9.5V41.5703H39.5288V71.5994Z" fill="#00ADEF"/>
<path d="M72.6853 71.5994H42.6562V41.5703H72.6853V71.5994Z" fill="#FBBC09"/>
</svg>
