<svg width="242" height="80" viewBox="0 0 242 80" fill="none" xmlns="http://www.w3.org/2000/svg">
<path d="M220.125 38.5613L231.998 70C228.498 69.4995 225 68.8734 221.437 68.311L214.748 50.9373L207.874 66.8751C204.5 66.3127 201.186 66.1233 197.811 65.6866L209.874 38.1863L198.936 10H209.063L215.187 25.7484L221.75 10H231.998L220.125 38.5613ZM190.937 10H181.75V64.5C184.749 64.6874 187.874 64.8111 190.937 65.1861V10ZM173.811 63.8738C165.437 63.3115 157.062 62.8128 148.5 62.6235V10H157.873V53.7492C163.25 53.8748 168.624 54.3116 173.811 54.5609V63.8738ZM138.499 31.3122V40.687H125.688V61.9992H116.437V10H142.687V19.3748H125.688V31.3122H138.499ZM100.687 19.3748V62.4998C97.5621 62.4998 94.3753 62.4998 91.3122 62.6235V19.3748H81.6243V10H110.437V19.3748H100.687ZM71.4997 41.1857C67.3756 41.1857 62.4998 41.1857 58.9999 41.375V55.3126C64.5 54.9358 70 54.499 75.5619 54.3116V63.3115L49.6251 65.3754V10H75.5619V19.3748H58.9999V31.9983C62.6254 31.9983 68.1873 31.8109 71.4997 31.8109V41.1857ZM19.5623 35.9368V68.6859C16.188 69.0627 13.1868 69.4995 10 70V10H18.938L31.1248 44.0632V10H40.4996V66.1233C37.1872 66.6876 33.8129 66.8751 30.2493 67.3737L19.5623 35.9368Z" fill="#E50914"/>
</svg>
