<svg width="287" height="80" viewBox="0 0 287 80" fill="none" xmlns="http://www.w3.org/2000/svg">
<path d="M109.192 21.6465H94.1423C93.6441 21.6462 93.1621 21.8238 92.7832 22.1474C92.4044 22.471 92.1535 22.9192 92.0759 23.4114L85.989 62.0031C85.9611 62.1822 85.9722 62.3652 86.0218 62.5396C86.0713 62.7139 86.158 62.8754 86.276 63.0131C86.3939 63.1507 86.5403 63.2611 86.705 63.3367C86.8698 63.4123 87.0489 63.4514 87.2302 63.4511H94.4152C94.9137 63.4513 95.3959 63.2734 95.7748 62.9494C96.1537 62.6253 96.4044 62.1766 96.4815 61.684L98.1232 51.2752C98.2003 50.7831 98.4506 50.3346 98.829 50.0106C99.2075 49.6866 99.6892 49.5084 100.187 49.5082H104.952C114.865 49.5082 120.587 44.7109 122.081 35.2043C122.755 31.0452 122.11 27.7773 120.162 25.4887C118.023 22.9756 114.229 21.6465 109.192 21.6465ZM110.929 35.7413C110.105 41.1415 105.979 41.1415 101.99 41.1415H99.7186L101.312 31.0562C101.359 30.7611 101.509 30.4924 101.736 30.2984C101.963 30.1043 102.252 29.9977 102.551 29.9977H103.592C106.309 29.9977 108.873 29.9977 110.198 31.5469C110.988 32.4712 111.23 33.8444 110.929 35.7413ZM154.179 35.5674H146.972C146.674 35.5674 146.385 35.674 146.157 35.8681C145.93 36.0621 145.78 36.3308 145.733 36.6259L145.414 38.6416L144.91 37.911C143.35 35.6466 139.871 34.8896 136.398 34.8896C128.434 34.8896 121.632 40.9215 120.307 49.3827C119.619 53.6035 120.598 57.6393 122.992 60.4539C125.188 63.0418 128.331 64.1201 132.07 64.1201C138.487 64.1201 142.045 59.994 142.045 59.994L141.724 61.9965C141.695 62.1755 141.706 62.3587 141.755 62.5332C141.804 62.7078 141.89 62.8697 142.007 63.0078C142.125 63.1458 142.271 63.2567 142.436 63.3329C142.6 63.409 142.779 63.4486 142.961 63.4489H149.452C149.951 63.4491 150.433 63.2712 150.812 62.9472C151.191 62.6231 151.442 62.1744 151.519 61.6818L155.414 37.0154C155.442 36.8368 155.432 36.654 155.383 36.4798C155.334 36.3056 155.248 36.1441 155.131 36.0064C155.013 35.8687 154.868 35.7582 154.703 35.6824C154.539 35.6066 154.36 35.5674 154.179 35.5674ZM144.133 49.594C143.438 53.7113 140.17 56.4752 136.002 56.4752C133.909 56.4752 132.237 55.804 131.163 54.5321C130.098 53.269 129.693 51.4711 130.032 49.4685C130.681 45.3864 134.004 42.5323 138.108 42.5323C140.155 42.5323 141.818 43.2123 142.914 44.4952C144.012 45.7914 144.448 47.6002 144.133 49.594ZM192.562 35.5674H185.32C184.978 35.568 184.642 35.6518 184.34 35.8117C184.039 35.9716 183.78 36.2028 183.588 36.4851L173.6 51.1982L169.366 37.0594C169.236 36.6282 168.97 36.2503 168.609 35.9815C168.247 35.7128 167.809 35.5676 167.359 35.5674H160.242C160.042 35.5669 159.845 35.6141 159.667 35.7051C159.489 35.796 159.336 35.9282 159.219 36.0905C159.103 36.2528 159.027 36.4406 158.998 36.6382C158.968 36.8358 158.987 37.0376 159.051 37.2267L167.029 60.6365L159.529 71.2236C159.396 71.4113 159.317 71.632 159.3 71.8617C159.284 72.0913 159.332 72.321 159.437 72.5255C159.543 72.7301 159.703 72.9016 159.9 73.0213C160.096 73.1409 160.322 73.2042 160.552 73.2041H167.786C168.123 73.2046 168.456 73.1231 168.755 72.9667C169.055 72.8104 169.312 72.5837 169.504 72.3063L193.592 37.5369C193.723 37.3488 193.799 37.1286 193.814 36.9C193.828 36.6715 193.779 36.4434 193.673 36.2405C193.567 36.0376 193.407 35.8676 193.212 35.749C193.016 35.6303 192.791 35.5675 192.562 35.5674Z" fill="#253B80"/>
<path d="M216.54 21.6487H201.488C200.99 21.6489 200.509 21.8268 200.13 22.1503C199.752 22.4738 199.501 22.9218 199.424 23.4136L193.337 62.0053C193.309 62.1841 193.319 62.3669 193.368 62.5411C193.418 62.7153 193.504 62.8767 193.621 63.0144C193.739 63.152 193.885 63.2625 194.049 63.3383C194.214 63.4141 194.393 63.4533 194.574 63.4533H202.298C202.646 63.4528 202.983 63.3279 203.248 63.1012C203.512 62.8745 203.687 62.5608 203.741 62.2166L205.469 51.2774C205.546 50.7852 205.796 50.3368 206.175 50.0128C206.553 49.6888 207.035 49.5106 207.533 49.5104H212.295C222.211 49.5104 227.93 44.7131 229.427 35.2065C230.102 31.0474 229.453 27.7795 227.506 25.4909C225.369 22.9778 221.577 21.6487 216.54 21.6487ZM218.276 35.7435C217.455 41.1437 213.329 41.1437 209.337 41.1437H207.069L208.664 31.0584C208.71 30.7633 208.86 30.4944 209.086 30.3002C209.313 30.1061 209.602 29.9996 209.901 29.9999H210.942C213.657 29.9999 216.223 29.9999 217.548 31.5491C218.338 32.4734 218.578 33.8466 218.276 35.7435ZM261.525 35.5696H254.322C254.024 35.5688 253.734 35.6752 253.507 35.8694C253.281 36.0636 253.131 36.3328 253.085 36.6281L252.766 38.6438L252.26 37.9132C250.7 35.6488 247.223 34.8918 243.751 34.8918C235.787 34.8918 228.987 40.9237 227.662 49.3849C226.975 53.6057 227.95 57.6415 230.344 60.4561C232.545 63.044 235.683 64.1223 239.422 64.1223C245.839 64.1223 249.397 59.9962 249.397 59.9962L249.076 61.9987C249.047 62.1781 249.058 62.3616 249.107 62.5365C249.156 62.7114 249.243 62.8735 249.361 63.0116C249.479 63.1498 249.626 63.2606 249.791 63.3365C249.956 63.4124 250.135 63.4515 250.317 63.4511H256.807C257.305 63.4508 257.787 63.2726 258.165 62.9486C258.543 62.6247 258.794 62.1762 258.871 61.684L262.768 37.0176C262.796 36.8384 262.784 36.6553 262.734 36.481C262.685 36.3066 262.598 36.1451 262.48 36.0076C262.361 35.87 262.215 35.7596 262.05 35.684C261.885 35.6084 261.706 35.5694 261.525 35.5696ZM251.479 49.5962C250.788 53.7135 247.516 56.4774 243.348 56.4774C241.259 56.4774 239.583 55.8062 238.509 54.5343C237.444 53.2712 237.043 51.4733 237.378 49.4707C238.031 45.3886 241.35 42.5345 245.454 42.5345C247.5 42.5345 249.164 43.2145 250.26 44.4974C251.362 45.7936 251.798 47.6024 251.479 49.5962ZM270.021 22.7072L263.844 62.0053C263.816 62.1841 263.827 62.3669 263.876 62.5411C263.925 62.7153 264.011 62.8767 264.129 63.0144C264.246 63.152 264.392 63.2625 264.557 63.3383C264.721 63.4141 264.9 63.4533 265.081 63.4533H271.291C272.323 63.4533 273.199 62.7051 273.357 61.6862L279.449 23.0967C279.477 22.9178 279.466 22.7349 279.417 22.5606C279.368 22.3863 279.282 22.2247 279.164 22.0869C279.047 21.9491 278.901 21.8384 278.736 21.7624C278.572 21.6863 278.393 21.6468 278.212 21.6465H271.258C270.96 21.6475 270.671 21.7549 270.445 21.9492C270.218 22.1436 270.068 22.4123 270.021 22.7072Z" fill="#179BD7"/>
<path d="M23.4897 70.9553L24.6406 63.645L22.0769 63.5856H9.83496L18.3425 9.6425C18.3678 9.47768 18.4515 9.32745 18.5784 9.21919C18.7052 9.11094 18.8667 9.05186 19.0335 9.05274H39.6752C46.5279 9.05274 51.257 10.4787 53.7261 13.2933C54.8836 14.6136 55.6208 15.9934 55.9773 17.5118C56.3514 19.105 56.358 21.0085 55.9927 23.3302L55.9663 23.4996V24.9872L57.1238 25.643C58.0075 26.0907 58.8018 26.6963 59.4674 27.4299C60.4577 28.5588 61.0981 29.9936 61.3688 31.6946C61.6482 33.4441 61.5558 35.5258 61.0981 37.8827C60.5699 40.5938 59.7161 42.955 58.563 44.8871C57.5456 46.618 56.1776 48.1171 54.5469 49.2883C53.0153 50.3754 51.1954 51.2006 49.1378 51.7288C47.144 52.2481 44.8708 52.51 42.3775 52.51H40.7711C39.6224 52.51 38.5067 52.9237 37.6308 53.6653C36.7562 54.4148 36.176 55.4504 35.9936 56.5877L35.8725 57.2457L33.8392 70.1301L33.7467 70.6032C33.7225 70.7529 33.6807 70.8277 33.6191 70.8783C33.5594 70.9271 33.485 70.9543 33.4079 70.9553H23.4897Z" fill="#253B80"/>
<path d="M58.2196 23.668C58.158 24.0619 58.0876 24.4646 58.0083 24.8783C55.2862 38.8542 45.9732 43.6823 34.079 43.6823H28.0229C26.5683 43.6823 25.3426 44.7386 25.1159 46.1734L22.0152 65.8379L21.1372 71.412C21.1022 71.6331 21.1156 71.8591 21.1763 72.0746C21.2371 72.29 21.3438 72.4897 21.4892 72.66C21.6345 72.8302 21.8151 72.9669 22.0183 73.0607C22.2216 73.1545 22.4428 73.2031 22.6666 73.2032H33.4078C34.6797 73.2032 35.7602 72.279 35.9605 71.0247L36.0661 70.4789L38.0885 57.6451L38.2183 56.9409C38.4164 55.6822 39.499 54.7579 40.771 54.7579H42.3774C52.7841 54.7579 60.9308 50.5328 63.3118 38.3063C64.3065 33.1987 63.7915 28.934 61.1596 25.9346C60.3254 25.0067 59.3292 24.2386 58.2196 23.668Z" fill="#179BD7"/>
<path d="M55.3721 22.5267C54.5029 22.2752 53.6187 22.079 52.7248 21.9391C50.9584 21.6677 49.1732 21.5374 47.3861 21.5496H31.2072C30.5915 21.5491 29.996 21.769 29.5282 22.1693C29.0604 22.5697 28.7513 23.1242 28.6567 23.7326L25.215 45.5316L25.116 46.1676C25.2232 45.4737 25.5752 44.841 26.1084 44.3841C26.6416 43.9272 27.3208 43.6762 28.023 43.6765H34.079C45.9733 43.6765 55.2863 38.8462 58.0084 24.8725C58.0899 24.4588 58.1581 24.0561 58.2197 23.6622C57.5014 23.2855 56.7528 22.9697 55.9817 22.7181C55.7795 22.6511 55.5763 22.5872 55.3721 22.5267Z" fill="#222D65"/>
<path d="M28.6564 23.7353C28.7502 23.1267 29.0591 22.572 29.5271 22.1718C29.9952 21.7716 30.5912 21.5526 31.2069 21.5545H47.3858C49.3025 21.5545 51.0916 21.68 52.7245 21.944C53.8294 22.1177 54.9191 22.3774 55.9836 22.7208C56.7868 22.9871 57.5328 23.3018 58.2216 23.6649C59.0314 18.5001 58.215 14.9836 55.4224 11.7993C52.3438 8.29377 46.7872 6.79297 39.6771 6.79297H19.0354C17.583 6.79297 16.344 7.84925 16.1196 9.28624L7.52181 63.7839C7.48176 64.0369 7.497 64.2956 7.56647 64.5421C7.63594 64.7887 7.758 65.0173 7.92425 65.2122C8.0905 65.4071 8.29699 65.5637 8.52953 65.6711C8.76206 65.7786 9.01512 65.8345 9.27129 65.8348H22.015L25.2147 45.5344L28.6564 23.7353Z" fill="#253B80"/>
</svg>
