<svg width="290" height="80" viewBox="0 0 290 80" fill="none" xmlns="http://www.w3.org/2000/svg">
<circle cx="39.9999" cy="40.0004" r="31.9984" fill="white"/>
<path d="M8.00147 40.0018C7.99854 46.4905 9.96838 52.8268 13.6497 58.1701C17.331 63.5135 22.5498 67.6114 28.6138 69.9203C28.1656 66.7609 28.1926 63.5522 28.6938 60.4008L32.4269 44.5615C32.4269 44.5615 31.467 42.6683 31.467 39.8418C31.467 35.4153 34.0269 32.1088 37.2267 32.1088C39.9466 32.1088 41.2532 34.1621 41.2532 36.5886C41.2532 39.3351 39.5199 43.4149 38.6133 47.2014C37.8667 50.3746 40.2132 52.9611 43.3331 52.9611C48.9861 52.9611 53.3593 46.9881 53.3593 38.3752C53.3593 30.7489 47.8662 25.4158 40.0266 25.4158C38.1652 25.3365 36.307 25.6354 34.5643 26.2943C32.8216 26.9532 31.2306 27.9585 29.8873 29.2494C28.544 30.5404 27.4762 32.0903 26.7486 33.8054C26.021 35.5206 25.6486 37.3654 25.6539 39.2285C25.6539 41.975 26.7206 44.9082 28.0538 46.5081C28.2671 46.8103 28.3383 47.1125 28.2671 47.4147L27.3605 51.0412C27.2539 51.5923 26.8983 51.7345 26.2939 51.4679C22.3208 49.6013 19.8409 43.7882 19.8409 39.1218C19.8409 29.069 27.1472 19.8427 40.9065 19.8427C51.946 19.8427 60.5322 27.709 60.5322 38.2419C60.5322 49.228 53.5992 58.0542 43.9997 58.0542C40.7732 58.0542 37.7333 56.3743 36.6934 54.4011L34.7202 61.974C33.717 65.0102 32.3279 67.9048 30.587 70.5869C37.025 72.5684 43.9241 72.4677 50.3015 70.2991C56.6789 68.1305 62.2093 64.0047 66.1048 58.5093C70.0003 53.014 72.0622 46.4294 71.9968 39.6938C71.9315 32.9581 69.7421 26.4148 65.7407 20.9961C61.7392 15.5774 56.1298 11.5596 49.7116 9.51522C43.2933 7.47081 36.3935 7.50402 29.9952 9.61011C23.5969 11.7162 18.0264 15.7878 14.0774 21.2447C10.1283 26.7017 8.002 33.2658 8.00147 40.0018Z" fill="#E60023"/>
<path d="M117.358 28.5158C120.128 28.5158 122.374 26.2702 122.374 23.5001C122.374 20.73 120.128 18.4844 117.358 18.4844C114.588 18.4844 112.342 20.73 112.342 23.5001C112.342 26.2702 114.588 28.5158 117.358 28.5158Z" fill="#E60023"/>
<path fill-rule="evenodd" clip-rule="evenodd" d="M83.2387 57.7481V20.2859H98.348C101.177 20.2859 103.604 20.8285 105.628 21.9138C107.653 22.9992 109.201 24.5053 110.274 26.432C111.36 28.3587 111.903 30.5843 111.903 33.1085C111.903 35.6452 111.348 37.8768 110.238 39.8036C109.14 41.7181 107.561 43.2059 105.5 44.2668C103.452 45.3278 100.988 45.8582 98.1103 45.8582H91.708V57.7481H83.2387ZM96.6469 39.1267H91.708V27.1821H96.6103C98.0615 27.1821 99.2688 27.4259 100.232 27.9137C101.196 28.4015 101.921 29.0906 102.409 29.9806C102.897 30.8709 103.141 31.9136 103.141 33.1085C103.141 34.3037 102.897 35.3525 102.409 36.2549C101.921 37.1574 101.196 37.8646 100.232 38.3768C99.2809 38.8768 98.0858 39.1267 96.6469 39.1267Z" fill="#E60023"/>
<path d="M113.265 57.7481V30.749H121.624V57.7481H113.265Z" fill="#E60023"/>
<path d="M131.84 57.7481V41.6145C131.852 40.4804 132.066 39.5109 132.48 38.706C132.895 37.889 133.48 37.2671 134.236 36.8403C134.992 36.4012 135.864 36.1817 136.852 36.1817C138.34 36.1817 139.504 36.6452 140.346 37.572C141.2 38.4987 141.62 39.7792 141.608 41.4133V57.7481H149.968V39.8401C149.98 37.6939 149.583 35.8343 148.779 34.2611C147.974 32.6757 146.84 31.4502 145.376 30.5843C143.925 29.7186 142.218 29.2855 140.254 29.2855C138.169 29.2855 136.383 29.7733 134.895 30.749C133.419 31.7124 132.371 33.0294 131.749 34.7H131.438V29.6514H123.481V57.7481H131.84Z" fill="#E60023"/>
<path d="M167.088 29.6514V35.8708H161.912V49.0044C161.912 49.6508 162.009 50.1569 162.204 50.5228C162.412 50.8764 162.698 51.1326 163.064 51.291C163.43 51.4374 163.863 51.5104 164.363 51.5104C164.607 51.5104 164.857 51.4958 165.113 51.4668C165.169 51.4605 165.226 51.4534 165.282 51.4455C165.342 51.4374 165.401 51.4285 165.46 51.419C165.839 51.3459 166.125 51.2849 166.32 51.2362L167.601 57.3641C167.198 57.4982 166.625 57.6505 165.881 57.8213C165.15 57.9921 164.259 58.0957 163.211 58.1322C161.223 58.2176 159.503 57.9738 158.052 57.4006C156.601 56.8152 155.485 55.9067 154.705 54.6751C153.924 53.4435 153.54 51.8946 153.552 50.0289V35.8708H149.766V29.6514H153.552V22.9199H161.912V29.6514H167.088Z" fill="#E60023"/>
<path fill-rule="evenodd" clip-rule="evenodd" d="M172.937 56.5408C175.034 57.6994 177.54 58.2787 180.455 58.2787C182.845 58.2787 184.949 57.9188 186.766 57.1994C188.583 56.4678 190.058 55.4432 191.192 54.1262C192.339 52.797 193.089 51.2362 193.442 49.4435L185.741 49.0959C185.497 49.7545 185.126 50.3153 184.626 50.7788C184.138 51.2301 183.552 51.5715 182.869 51.8031C182.187 52.035 181.437 52.1508 180.62 52.1508C179.388 52.1508 178.327 51.8946 177.437 51.3825C176.546 50.8703 175.857 50.1508 175.37 49.2241C174.894 48.2849 174.656 47.1813 174.656 45.9132V45.785H193.57V43.5901C193.57 41.2364 193.235 39.1695 192.564 37.389C191.906 35.6085 190.973 34.1209 189.766 32.9258C188.558 31.7185 187.138 30.81 185.504 30.2003C183.869 29.5904 182.095 29.2855 180.18 29.2855C177.388 29.2855 174.955 29.8954 172.882 31.1149C170.821 32.3343 169.223 34.0355 168.089 36.2182C166.955 38.389 166.388 40.9194 166.388 43.8096C166.388 46.7973 166.955 49.3764 168.089 51.5472C169.223 53.7055 170.839 55.3702 172.937 56.5408ZM174.661 40.7731C174.699 39.8094 174.947 38.9374 175.406 38.1573C175.894 37.3279 176.565 36.6635 177.418 36.1635C178.272 35.6635 179.242 35.4134 180.327 35.4134C181.388 35.4134 182.321 35.6452 183.126 36.1085C183.943 36.5598 184.583 37.1878 185.046 37.9926C185.51 38.7975 185.747 39.7242 185.76 40.7731H174.661Z" fill="#E60023"/>
<path fill-rule="evenodd" clip-rule="evenodd" d="M194.32 57.7481V29.6514H202.423V34.6635H202.716C203.228 32.8587 204.076 31.5112 205.258 30.621C206.441 29.7186 207.813 29.2672 209.374 29.2672C209.777 29.2672 210.197 29.2918 210.636 29.3405C210.802 29.3583 210.962 29.3796 211.115 29.4042C211.252 29.4263 211.384 29.451 211.51 29.4784C211.626 29.5033 211.737 29.5305 211.844 29.5599V34.5298C212.851 33.138 214.102 31.9996 215.598 31.1149C217.671 29.8954 220.104 29.2855 222.896 29.2855C224.811 29.2855 226.585 29.5904 228.219 30.2003C229.853 30.81 231.274 31.7185 232.481 32.9258C233.688 34.1209 234.621 35.6085 235.28 37.389C235.951 39.1695 236.286 41.2364 236.286 43.5901V45.785H217.372V45.9132C217.372 47.1813 217.61 48.2849 218.085 49.2241C218.573 50.1508 219.262 50.8703 220.152 51.3825C221.043 51.8946 222.103 52.1508 223.335 52.1508C224.152 52.1508 224.902 52.035 225.585 51.8031C226.268 51.5715 226.853 51.2301 227.341 50.7788C227.841 50.3153 228.213 49.7545 228.457 49.0959L235.799 49.4273L235.792 49.3703L244.041 49.0776C244.249 50.1508 244.779 50.9679 245.633 51.5289C246.486 52.0897 247.578 52.3703 248.907 52.3703C250.163 52.3703 251.181 52.1325 251.962 51.6569C252.742 51.1812 253.132 50.5533 253.132 49.7727C253.132 49.1143 252.846 48.5716 252.273 48.1448C251.7 47.718 250.821 47.3886 249.639 47.157L244.736 46.2241C241.968 45.6874 239.901 44.7363 238.535 43.3704C237.182 42.0047 236.505 40.2547 236.505 38.1206C236.505 36.2793 237.005 34.7 238.005 33.383C239.005 32.066 240.413 31.0538 242.23 30.3465C244.06 29.6392 246.206 29.2855 248.669 29.2855C252.352 29.2855 255.248 30.0599 257.358 31.6088C258.675 32.5625 259.64 33.7371 260.252 35.1327V29.6514H264.039V22.9199H272.398V29.6514H277.575V35.8708H272.398V49.0044C272.398 49.6508 272.496 50.1569 272.691 50.5228C272.898 50.8764 273.185 51.1326 273.55 51.291C273.916 51.4374 274.349 51.5104 274.849 51.5104C275.203 51.5104 275.569 51.48 275.947 51.419C276.325 51.3459 276.611 51.2849 276.807 51.2362L278.087 57.3641C277.684 57.4982 277.111 57.6505 276.367 57.8213C275.636 57.9921 274.746 58.0957 273.697 58.1322C271.709 58.2176 269.99 57.9738 268.538 57.4006C267.087 56.8152 265.971 55.9067 265.191 54.6751C264.41 53.4435 264.026 51.8946 264.039 50.0289V35.8708H260.536C260.752 36.5172 260.9 37.206 260.98 37.9377L253.315 38.2671C253.206 37.6695 252.956 37.1328 252.565 36.6574C252.175 36.1817 251.663 35.8097 251.029 35.5416C250.407 35.261 249.675 35.1207 248.834 35.1207C247.712 35.1207 246.761 35.3525 245.98 35.8158C245.2 36.2671 244.816 36.8768 244.828 37.6452C244.816 38.2549 245.053 38.7792 245.541 39.2182C246.041 39.6573 246.919 40.0048 248.175 40.261L253.407 41.2853C256.175 41.8339 258.236 42.7303 259.59 43.9741C260.955 45.2181 261.638 46.8582 261.638 48.8947C261.638 50.7727 261.083 52.4189 259.974 53.8335C258.876 55.2483 257.37 56.3456 255.455 57.1262C253.541 57.8945 251.346 58.2787 248.87 58.2787C245.017 58.2787 241.956 57.4799 239.688 55.8824C237.696 54.4615 236.451 52.6037 235.951 50.3088C235.547 51.7431 234.866 53.0155 233.908 54.1262C232.774 55.4432 231.298 56.4678 229.481 57.1994C227.664 57.9188 225.561 58.2787 223.17 58.2787C220.256 58.2787 217.75 57.6994 215.652 56.5408C213.555 55.3702 211.939 53.7055 210.805 51.5472C209.671 49.3764 209.104 46.7973 209.104 43.8096C209.104 41.1009 209.602 38.7082 210.598 36.6316L210.458 36.6115C210.391 36.6022 210.322 36.5931 210.252 36.5841C209.581 36.4988 208.978 36.4562 208.441 36.4562C207.344 36.4562 206.356 36.7 205.478 37.1878C204.612 37.6634 203.929 38.334 203.429 39.1999C202.929 40.0535 202.679 41.0413 202.679 42.1631V57.7481H194.32ZM217.377 40.7731H228.475C228.463 39.7242 228.225 38.7975 227.762 37.9926C227.298 37.1878 226.658 36.5598 225.841 36.1085C225.036 35.6452 224.103 35.4134 223.042 35.4134C221.957 35.4134 220.988 35.6635 220.134 36.1635C219.28 36.6635 218.61 37.3279 218.122 38.1573C217.663 38.9374 217.415 39.8094 217.377 40.7731Z" fill="#E60023"/>
</svg>
