<svg width="115" height="80" viewBox="0 0 115 80" fill="none" xmlns="http://www.w3.org/2000/svg">
<g clip-path="url(#clip0_8515_143974)">
<path d="M48.0589 8.7284C51.7447 4.88799 56.8761 2.50607 62.5513 2.50607C70.0955 2.50607 76.6774 6.71279 80.1827 12.9578C83.2287 11.5969 86.6003 10.8398 90.1476 10.8398C103.754 10.8398 114.786 21.9672 114.786 35.6929C114.786 49.4201 103.754 60.5475 90.1476 60.5475C88.5178 60.5485 86.892 60.3865 85.2945 60.064C82.2079 65.5698 76.3259 69.2899 69.5746 69.2899C66.7483 69.2899 64.0751 68.6371 61.695 67.4763C58.566 74.8365 51.2758 79.9972 42.7792 79.9972C33.931 79.9972 26.3901 74.3985 23.4956 66.5467C22.2306 66.8153 20.9201 66.9553 19.5753 66.9553C9.04054 66.9554 0.5 58.327 0.5 47.6815C0.5 40.5477 4.33721 34.3188 10.0385 30.9863C8.86471 28.2856 8.21183 25.3046 8.21183 22.1706C8.21183 9.92812 18.1508 0.00390625 30.4097 0.00390625C37.607 0.00390625 44.0035 3.42596 48.0589 8.7284Z" fill="#00A1E0"/>
<path d="M17.0534 41.4867C16.9818 41.674 17.0795 41.7131 17.1023 41.7456C17.3171 41.9019 17.5354 42.0143 17.7551 42.1396C18.9208 42.7582 20.0214 42.9388 21.1724 42.9388C23.5167 42.9388 24.9721 41.6919 24.9721 39.6845V39.6455C24.9721 37.7894 23.3295 37.1155 21.7877 36.6287L21.5875 36.5636C20.4251 36.1859 19.4223 35.8604 19.4223 35.0952V35.0546C19.4223 34.4001 20.0084 33.9181 20.9168 33.9181C21.9262 33.9181 23.1244 34.2536 23.896 34.68C23.896 34.68 24.1223 34.8266 24.2054 34.6068C24.2509 34.4896 24.6417 33.4379 24.6824 33.3239C24.7263 33.2002 24.6482 33.109 24.5685 33.0601C23.6877 32.5245 22.4699 32.1582 21.2099 32.1582L20.9755 32.1598C18.8298 32.1598 17.3321 33.4557 17.3321 35.3132V35.3524C17.3321 37.3108 18.9845 37.9457 20.5328 38.3886L20.7818 38.4651C21.91 38.8118 22.882 39.1097 22.882 39.9042V39.9434C22.882 40.6695 22.2504 41.2099 21.2312 41.2099C20.8356 41.2099 19.5739 41.2018 18.2112 40.3404C18.0467 40.2443 17.9508 40.1744 17.8238 40.0979C17.7571 40.0556 17.5894 39.9823 17.5162 40.2037L17.0534 41.4867ZM51.3732 41.4867C51.3016 41.674 51.3993 41.7131 51.4221 41.7456C51.6369 41.9019 51.8552 42.0143 52.0748 42.1396C53.2404 42.7582 54.3412 42.9388 55.4921 42.9388C57.8364 42.9388 59.2919 41.6919 59.2919 39.6845V39.6455C59.2919 37.7894 57.6492 37.1155 56.1074 36.6287L55.9072 36.5636C54.7448 36.1859 53.7419 35.8604 53.7419 35.0952V35.0546C53.7419 34.4001 54.3279 33.9181 55.2364 33.9181C56.2457 33.9181 57.444 34.2536 58.2157 34.68C58.2157 34.68 58.442 34.8266 58.5249 34.6068C58.5705 34.4896 58.9613 33.4379 59.002 33.3239C59.046 33.2002 58.9678 33.109 58.888 33.0601C58.0073 32.5245 56.7895 32.1582 55.5295 32.1582L55.295 32.1598C53.1493 32.1598 51.6515 33.4557 51.6515 35.3132V35.3524C51.6515 37.3108 53.3039 37.9457 54.8522 38.3886L55.1013 38.4651C56.2295 38.8118 57.2031 39.1097 57.2031 39.9042V39.9434C57.2031 40.6695 56.5698 41.2099 55.5506 41.2099C55.1552 41.2099 53.8934 41.2018 52.5308 40.3404C52.3663 40.2443 52.2687 40.1777 52.1451 40.0979C52.1026 40.0702 51.904 39.9937 51.8356 40.2037L51.3732 41.4867ZM74.8025 37.5548C74.8025 38.6895 74.5908 39.5832 74.1741 40.2149C73.7621 40.8401 73.1386 41.1446 72.2694 41.1446C71.3985 41.1446 70.7782 40.8417 70.3728 40.2149C69.9624 39.5849 69.7542 38.6895 69.7542 37.5548C69.7542 36.4218 69.9624 35.5296 70.3728 34.9044C70.7782 34.2858 71.3985 33.9846 72.2694 33.9846C73.1387 33.9846 73.7622 34.2858 74.1758 34.9044C74.5909 35.5295 74.8025 36.4217 74.8025 37.5548ZM76.7594 35.4514C76.5672 34.8018 76.2677 34.2287 75.8689 33.7518C75.47 33.2731 74.9654 32.889 74.3661 32.6089C73.7686 32.3306 73.0622 32.189 72.2694 32.189C71.4749 32.189 70.7684 32.3306 70.1709 32.6089C69.5717 32.889 69.0671 33.2733 68.6666 33.7518C68.2694 34.2304 67.9698 34.8035 67.7761 35.4514C67.5856 36.0977 67.4895 36.8042 67.4895 37.5548C67.4895 38.3054 67.5856 39.0135 67.7761 39.6582C67.9698 40.3061 68.2678 40.8793 68.6683 41.3578C69.0671 41.8365 69.5735 42.219 70.171 42.4908C70.77 42.7628 71.4749 42.9011 72.2695 42.9011C73.0623 42.9011 73.7673 42.7628 74.3663 42.4908C74.9638 42.219 75.47 41.8363 75.869 41.3578C76.2678 40.8808 76.5673 40.3077 76.7595 39.6582C76.9517 39.0119 77.0477 38.3037 77.0477 37.5548C77.0477 36.8059 76.9515 36.0977 76.7594 35.4514ZM92.8288 40.8415C92.7637 40.651 92.5798 40.7227 92.5798 40.7227C92.2949 40.8318 91.992 40.9327 91.6697 40.9831C91.3424 41.0335 90.9826 41.0597 90.5968 41.0597C89.6494 41.0597 88.8972 40.778 88.3584 40.2212C87.8179 39.6645 87.5151 38.7642 87.5183 37.5464C87.5216 36.4378 87.7885 35.6042 88.2688 34.9694C88.7459 34.3378 89.472 34.0137 90.4406 34.0137C91.2482 34.0137 91.8635 34.1064 92.508 34.31C92.508 34.31 92.6627 34.3767 92.7359 34.1749C92.9068 33.6994 93.0338 33.3592 93.2162 32.8366C93.2684 32.6885 93.1414 32.625 93.0957 32.607C92.8418 32.5077 92.2426 32.3466 91.7901 32.2782C91.3668 32.2131 90.8719 32.1789 90.3216 32.1789C89.4993 32.1789 88.7668 32.3189 88.1401 32.599C87.5149 32.8773 86.9842 33.2615 86.5643 33.7402C86.1442 34.2189 85.8251 34.7918 85.6119 35.4398C85.4003 36.086 85.2928 36.7959 85.2928 37.5464C85.2928 39.1696 85.7308 40.4816 86.5953 41.4422C87.4613 42.4061 88.7621 42.896 90.4586 42.896C91.4614 42.896 92.4903 42.6926 93.2295 42.4011C93.2295 42.4011 93.3711 42.3327 93.3092 42.1684L92.8288 40.8415ZM96.2527 36.4678C96.3455 35.8378 96.5197 35.3135 96.7883 34.905C97.1938 34.2847 97.8123 33.9444 98.6818 33.9444C99.5512 33.9444 100.126 34.2863 100.538 34.905C100.811 35.3135 100.93 35.8607 100.977 36.4678H96.2527ZM102.841 35.0823C102.675 34.4555 102.263 33.8222 101.993 33.5324C101.566 33.0733 101.15 32.7526 100.736 32.5735C100.196 32.3423 99.5478 32.1893 98.838 32.1893C98.011 32.1893 97.2605 32.3277 96.6516 32.6142C96.0412 32.9008 95.5284 33.2916 95.1262 33.7783C94.724 34.2634 94.4213 34.8413 94.2291 35.4974C94.0354 36.1503 93.9377 36.8618 93.9377 37.6121C93.9377 38.3757 94.0387 39.0872 94.2389 39.7269C94.4408 40.3717 94.7631 40.9398 95.1994 41.4102C95.634 41.884 96.1941 42.2553 96.8649 42.5139C97.5308 42.7712 98.3399 42.9047 99.2694 42.903C101.182 42.8965 102.19 42.47 102.605 42.2404C102.679 42.1998 102.749 42.1282 102.66 41.9231L102.227 40.7101C102.163 40.5294 101.978 40.5961 101.978 40.5961C101.505 40.772 100.831 41.0878 99.2596 41.0846C98.2324 41.083 97.4704 40.7802 96.9933 40.3064C96.5034 39.8213 96.264 39.1081 96.2217 38.1021L102.846 38.1086C102.846 38.1086 103.02 38.1054 103.038 37.936C103.045 37.8646 103.266 36.5752 102.841 35.0823ZM43.2014 36.4678C43.2958 35.8378 43.4684 35.3135 43.737 34.905C44.1423 34.2847 44.761 33.9444 45.6303 33.9444C46.4996 33.9444 47.0744 34.2863 47.4878 34.905C47.7596 35.3135 47.8785 35.8607 47.9258 36.4678H43.2014ZM49.7882 35.0823C49.6222 34.4555 49.212 33.8222 48.9417 33.5324C48.5151 33.0733 48.0984 32.7526 47.6849 32.5735C47.1444 32.3423 46.4966 32.1893 45.7867 32.1893C44.9613 32.1893 44.2091 32.3277 43.6003 32.6142C42.9899 32.9008 42.477 33.2916 42.0749 33.7783C41.6728 34.2634 41.3699 34.8413 41.1779 35.4974C40.9858 36.1503 40.8865 36.8618 40.8865 37.6121C40.8865 38.3757 40.9874 39.0872 41.1877 39.7269C41.3896 40.3717 41.712 40.9398 42.1482 41.4102C42.5829 41.884 43.1429 42.2553 43.8136 42.5139C44.4796 42.7712 45.2886 42.9047 46.2182 42.903C48.1311 42.8965 49.1389 42.47 49.554 42.2404C49.6273 42.1998 49.6972 42.1282 49.6094 41.9231L49.178 40.7101C49.1112 40.5294 48.9273 40.5961 48.9273 40.5961C48.4536 40.772 47.7812 41.0878 46.2069 41.0846C45.1813 41.083 44.4194 40.7802 43.9423 40.3064C43.4523 39.8213 43.213 39.1081 43.1706 38.1021L49.7949 38.1086C49.7949 38.1086 49.9691 38.1054 49.987 37.936C49.9933 37.8646 50.2147 36.5752 49.7882 35.0823ZM28.8829 40.8053C28.6241 40.5984 28.5883 40.5464 28.5004 40.4129C28.3701 40.2093 28.3034 39.9196 28.3034 39.5517C28.3034 38.9688 28.4955 38.5504 28.8944 38.2688C28.8896 38.2705 29.4642 37.7723 30.8154 37.7901C31.7645 37.8032 32.6126 37.9432 32.6126 37.9432V40.955H32.6142C32.6142 40.955 31.7726 41.1356 30.8251 41.1926C29.4771 41.2741 28.878 40.8037 28.8829 40.8053ZM31.5186 36.1508C31.25 36.1312 30.9015 36.1198 30.4848 36.1198C29.9167 36.1198 29.368 36.1914 28.8535 36.3298C28.3359 36.4681 27.8703 36.6848 27.4698 36.9711C27.0699 37.2566 26.7412 37.6304 26.5093 38.0635C26.2749 38.4999 26.156 39.0143 26.156 39.5907C26.156 40.1767 26.2569 40.6863 26.4588 41.1031C26.6607 41.5215 26.9521 41.8699 27.3232 42.1386C27.6911 42.4072 28.1454 42.6041 28.6728 42.7229C29.1922 42.8418 29.7814 42.902 30.4262 42.902C31.1051 42.902 31.7823 42.8467 32.4384 42.7343C33.088 42.6235 33.8857 42.4623 34.107 42.412C34.2623 42.3746 34.4169 42.335 34.571 42.2931C34.7355 42.2525 34.7225 42.0766 34.7225 42.0766L34.7192 36.0189C34.7192 34.6903 34.3643 33.7054 33.6659 33.0949C32.9707 32.4861 31.9467 32.1782 30.6232 32.1782C30.1266 32.1782 29.3273 32.2467 28.8486 32.3427C28.8486 32.3427 27.4014 32.6228 26.8054 33.0884C26.8054 33.0884 26.6753 33.1698 26.7469 33.3522L27.2158 34.6123C27.2744 34.7751 27.4324 34.7197 27.4324 34.7197C27.4324 34.7197 27.4828 34.7002 27.5415 34.666C28.8163 33.9725 30.4279 33.9936 30.4279 33.9936C31.1443 33.9936 31.6946 34.1369 32.0657 34.4217C32.4271 34.6985 32.611 35.1168 32.611 35.9992V36.2792C32.0412 36.1979 31.5186 36.1508 31.5186 36.1508ZM84.9468 32.7375C84.9971 32.5877 84.8914 32.516 84.8474 32.4998C84.7351 32.4559 84.1718 32.337 83.7371 32.3093C82.9053 32.2589 82.443 32.3989 82.0293 32.5845C81.6191 32.77 81.1633 33.0695 80.9093 33.4099V32.604C80.9093 32.4917 80.8295 32.4021 80.7188 32.4021H79.0207C78.9101 32.4021 78.8304 32.4916 78.8304 32.604V42.4843C78.8304 42.595 78.9216 42.6862 79.0322 42.6862H80.7725C80.8258 42.6859 80.8769 42.6645 80.9144 42.6266C80.9519 42.5888 80.9729 42.5376 80.9727 42.4843V37.5483C80.9727 36.8857 81.0461 36.2248 81.1926 35.8096C81.3359 35.3993 81.5312 35.0705 81.7722 34.8344C82.0147 34.6 82.2898 34.4356 82.5911 34.3428C82.8987 34.2483 83.2389 34.2174 83.4799 34.2174C83.8267 34.2174 84.2076 34.3069 84.2076 34.3069C84.3345 34.3215 84.4062 34.2434 84.4484 34.1278C84.5625 33.825 84.8849 32.9182 84.9468 32.7375Z" fill="white"/>
<path d="M68.6108 28.1583C68.3992 28.0932 68.2071 28.0491 67.9563 28.002C67.7023 27.9565 67.3996 27.9336 67.0561 27.9336C65.8578 27.9336 64.9135 28.2722 64.251 28.9396C63.5916 29.6039 63.1439 30.6149 62.9192 31.945L62.8377 32.3927H61.3336C61.3336 32.3927 61.1512 32.3862 61.1121 32.5849L60.8664 33.9637C60.8484 34.094 60.9055 34.177 61.0812 34.177H62.5449L61.0601 42.4668C60.9444 43.1343 60.8109 43.6829 60.6628 44.0996C60.5178 44.5099 60.3763 44.8176 60.2005 45.0422C60.0312 45.2572 59.8716 45.4167 59.5947 45.5095C59.3668 45.586 59.1031 45.6218 58.815 45.6218C58.6554 45.6218 58.4423 45.5956 58.2843 45.5631C58.128 45.5321 58.0449 45.498 57.9261 45.4474C57.9261 45.4474 57.7552 45.3825 57.6868 45.5534C57.633 45.695 57.2423 46.7677 57.1951 46.8998C57.1495 47.0315 57.2146 47.1342 57.2976 47.1651C57.493 47.2335 57.6378 47.279 57.9032 47.3425C58.2712 47.4289 58.582 47.4337 58.8734 47.4337C59.4823 47.4337 60.039 47.3474 60.4999 47.1814C60.9623 47.0137 61.3659 46.7222 61.724 46.3283C62.1099 45.9017 62.3524 45.4557 62.5838 44.8452C62.8133 44.2428 63.0104 43.494 63.1665 42.6214L64.6594 34.177H66.8409C66.8409 34.177 67.0248 34.1835 67.0624 33.9833L67.3097 32.606C67.3261 32.4742 67.2707 32.3928 67.0932 32.3928H64.9752C64.9866 32.3457 65.0826 31.5999 65.3252 30.8984C65.4295 30.6005 65.6248 30.3578 65.7893 30.1917C65.9522 30.0289 66.1393 29.9134 66.3446 29.8466C66.5545 29.7782 66.7939 29.7457 67.056 29.7457C67.2546 29.7457 67.4515 29.7685 67.5996 29.7993C67.8048 29.8434 67.8845 29.8662 67.9384 29.8825C68.1549 29.9476 68.1841 29.8841 68.2266 29.78L68.7329 28.3897C68.7849 28.2396 68.6564 28.1761 68.6108 28.1583ZM39.0178 42.4847C39.0178 42.5955 38.9381 42.685 38.8273 42.685H37.0707C36.96 42.685 36.8818 42.5955 36.8818 42.4847V28.3471C36.8818 28.2365 36.96 28.1469 37.0707 28.1469H38.8273C38.9381 28.1469 39.0178 28.2365 39.0178 28.3471V42.4847Z" fill="white"/>
</g>
<defs>
<clipPath id="clip0_8515_143974">
<rect width="114.286" height="80" fill="white" transform="translate(0.5)"/>
</clipPath>
</defs>
</svg>
