<svg width="325" height="80" viewBox="0 0 325 80" fill="none" xmlns="http://www.w3.org/2000/svg">
<path d="M271.19 28.5648C272.83 28.5648 274.18 27.712 274.363 26.6102L275.982 8.2962C275.982 6.48604 273.861 5 271.195 5C268.532 5 266.413 6.48603 266.413 8.29652L268.031 26.6102C268.209 27.7117 269.56 28.5648 271.196 28.5648H271.19ZM261.292 34.2851C262.115 32.8664 262.053 31.2719 261.185 30.5635L246.132 20.0041C244.567 19.0977 242.221 20.1887 240.889 22.4984C239.552 24.8053 239.789 27.3816 241.35 28.2883L258.018 36.0492C259.06 36.4354 260.481 35.692 261.297 34.2743L261.292 34.2851ZM281.097 34.2753C281.918 35.693 283.332 36.4367 284.375 36.0502L301.043 28.2893C302.614 27.3829 302.837 24.8062 301.513 22.4994C300.174 20.192 297.824 19.0987 296.263 20.0051L281.209 30.5644C280.348 31.2718 280.284 32.8677 281.102 34.2861L281.097 34.2753ZM271.19 51.4418C272.83 51.4418 274.18 52.2874 274.363 53.3901L275.982 71.7015C275.982 73.5172 273.861 75 271.195 75C268.532 75 266.413 73.5172 266.413 71.7015L268.031 53.3901C268.209 52.2874 269.56 51.4418 271.196 51.4418H271.19ZM281.097 45.7201C281.918 44.2985 283.332 43.5614 284.375 43.9521L301.043 51.7077C302.614 52.6151 302.837 55.1941 301.513 57.5029C300.174 59.8028 297.824 60.899 296.263 59.994L281.209 49.4444C280.348 48.7314 280.284 47.1346 281.102 45.7172H281.096M261.292 45.7182C262.115 47.1346 262.053 48.7314 261.185 49.4457L246.132 59.9949C244.567 60.9 242.221 59.8038 240.889 57.5038C239.552 55.1951 239.789 52.6161 241.35 51.7087L258.018 43.9531C259.06 43.5623 260.481 44.2995 261.297 45.7215H261.292" fill="#FDBB30"/>
<path d="M176.239 49.4182C176.239 49.9802 176.189 50.5599 176.035 51.0689C175.396 53.1833 173.207 54.9713 170.468 54.9713C168.185 54.9713 166.371 53.6741 166.371 50.9343C166.371 46.7412 170.986 45.5832 176.24 45.6123L176.239 49.4179V49.4182ZM184.479 42.1109C184.479 35.1967 181.525 29.1127 171.542 29.1127C166.418 29.1127 162.351 30.552 160.131 31.8348L161.757 37.3934C163.786 36.1126 167.019 35.0523 170.079 35.0523C175.143 35.0382 175.972 37.9198 175.972 39.7639V40.2005C164.934 40.1841 157.957 44.006 157.957 51.7917C157.957 56.5491 161.51 61.0049 167.688 61.0049C171.484 61.0049 174.663 59.4898 176.565 57.0605H176.753C176.753 57.0605 178.012 62.3348 184.962 60.3168C184.6 58.1234 184.481 55.7819 184.481 52.9663L184.48 42.1109M12.5001 19.6966C12.5001 19.6966 19.713 49.2519 20.8648 54.0485C22.2083 59.6473 24.6298 61.7084 31.6081 60.3168L36.1116 41.9936C37.2536 37.4401 38.0178 34.1936 38.7537 29.5662H38.8818C39.3983 34.2426 40.1312 37.4542 41.0709 42.0087C41.0709 42.0087 42.9033 50.3276 43.8434 54.6955C44.7844 59.0621 47.4036 61.8159 54.2397 60.3168L64.9713 19.6953H56.3093L52.6439 37.2588C51.6584 42.3691 50.7651 46.3668 50.0757 51.0408H49.9532C49.3268 46.4079 48.5292 42.5733 47.5284 37.593L43.7153 19.6953H34.6887L30.6076 37.1418C29.4526 42.4449 28.3694 46.7252 27.6833 51.2438H27.5584C26.854 46.9889 25.9162 41.6071 24.9014 36.4762C24.9014 36.4762 22.4786 23.9969 21.6264 19.6953L12.5001 19.6966ZM81.3562 49.4182C81.3562 49.9802 81.3062 50.5599 81.15 51.0689C80.5129 53.1833 78.3224 54.9713 75.5836 54.9713C73.2997 54.9713 71.4885 53.6741 71.4885 50.9343C71.4885 46.7412 76.1025 45.5832 81.3572 45.6123L81.3562 49.4179V49.4182ZM89.5957 42.1109C89.5957 35.1967 86.6413 29.1127 76.6606 29.1127C71.5349 29.1127 67.4647 30.552 65.2461 31.8348L66.87 37.3934C68.8984 36.1126 72.1319 35.0523 75.1928 35.0523C80.26 35.0382 81.0892 37.9198 81.0892 39.7639V40.2005C70.0469 40.1841 63.0729 44.006 63.0729 51.7917C63.0729 56.5491 66.6246 61.0049 72.7975 61.0049C76.5985 61.0049 79.7757 59.4898 81.6807 57.0605H81.8662C81.8662 57.0605 83.1288 62.3348 90.0773 60.3168C89.714 58.1234 89.5957 55.7819 89.5957 52.9663V42.1109ZM103.347 51.694V19.6966H95.0968V60.3181H103.347V51.694ZM211.276 19.6966V49.6623C211.276 53.7956 212.055 56.6883 213.717 58.4586C215.173 60.0064 217.565 61.0082 220.433 61.0082C222.874 61.0082 225.273 60.5426 226.405 60.1227L226.298 53.6773C225.456 53.8832 224.489 54.0498 223.165 54.0498C220.353 54.0498 219.413 52.2488 219.413 48.5399V37.0745H226.598V29.3013H219.413V19.6966H211.276ZM189.981 29.8018V60.3181H198.491V44.6932C198.491 43.8486 198.542 43.1127 198.676 42.4396C199.306 39.165 201.808 37.0745 205.404 37.0745C206.389 37.0745 207.094 37.1817 207.859 37.2902V29.3013C207.217 29.1735 206.782 29.1137 205.984 29.1137C202.808 29.1137 199.195 31.163 197.678 35.5591H197.448V29.8018H189.981ZM109.124 29.8018V60.3181H117.416V42.4233C117.416 41.5836 117.514 40.6955 117.805 39.9257C118.492 38.124 120.169 36.0139 122.845 36.0139C126.192 36.0139 127.755 38.8425 127.755 42.9249V60.3158H136.041V42.2031C136.041 41.4019 136.15 40.436 136.387 39.7296C137.067 37.679 138.874 36.0116 141.361 36.0116C144.753 36.0116 146.382 38.7906 146.382 43.5957V60.3148H154.672V42.3406C154.672 32.8628 149.859 29.1108 144.426 29.1108C142.021 29.1108 140.122 29.713 138.404 30.7657C136.961 31.6545 135.667 32.9137 134.538 34.569H134.416C133.106 31.2803 130.023 29.1124 126.005 29.1124C120.845 29.1124 118.525 31.7286 117.118 33.9472H116.994V29.8009H109.124" fill="#1A75CF"/>
<path d="M305.224 58.8265H305.349C305.515 58.8265 305.621 58.7579 305.621 58.6559C305.621 58.5399 305.521 58.4769 305.367 58.4769C305.314 58.4769 305.26 58.4876 305.224 58.4876V58.8294V58.8261L305.224 58.8265ZM305.204 59.6492H304.764V58.2132C304.864 58.1936 305.097 58.1586 305.395 58.1586C305.72 58.1586 305.865 58.2043 305.972 58.2762C306.062 58.339 306.127 58.4461 306.127 58.5909C306.127 58.7383 305.991 58.8631 305.791 58.9176V58.9359C305.955 58.9794 306.043 59.0977 306.09 59.3052C306.135 59.5123 306.162 59.5969 306.19 59.6502H305.691C305.647 59.5969 305.621 59.4698 305.592 59.3431C305.564 59.1977 305.495 59.1248 305.348 59.1248H305.203L305.204 59.6492ZM305.387 57.7453C304.754 57.7453 304.276 58.2609 304.276 58.9183C304.276 59.5587 304.755 60.0812 305.404 60.0812C306.055 60.092 306.534 59.559 306.534 58.9078C306.534 58.2596 306.055 57.7453 305.396 57.7453H305.387ZM305.415 57.3555C306.297 57.3555 307.001 58.0501 307.001 58.9075C307.001 59.775 306.297 60.4706 305.403 60.4706C304.509 60.4706 303.796 59.774 303.796 58.9078C303.796 58.0501 304.51 57.3558 305.403 57.3558H305.413" fill="#FDBB30"/>
</svg>
