<svg width="185" height="80" viewBox="0 0 185 80" fill="none" xmlns="http://www.w3.org/2000/svg">
<mask id="mask0_8533_144028" style="mask-type:luminance" maskUnits="userSpaceOnUse" x="9" y="7" width="166" height="65">
<path d="M174.989 7.99805H9.68384V71.998H174.989V7.99805Z" fill="white"/>
</mask>
<g mask="url(#mask0_8533_144028)">
<path d="M174.984 7.99805H165.853C163.32 7.99805 160.952 9.25237 159.53 11.35L147.318 29.3643C146.993 29.842 146.288 29.842 145.962 29.3643L133.751 11.35C132.331 9.25237 129.961 7.99805 127.428 7.99805H118.297L140.05 40.0875L118.417 71.9981H127.548C130.081 71.9981 132.449 70.7437 133.871 68.6461L145.962 50.8106C146.288 50.3329 146.993 50.3329 147.318 50.8106L159.409 68.6461C160.829 70.7437 163.2 71.9981 165.733 71.9981H174.864L153.23 40.0875L174.984 7.99805Z" fill="black"/>
<path d="M99.511 14.5446V71.9981H103.875C107.492 71.9981 110.422 69.0677 110.422 65.4515V7.99805H106.058C102.442 7.99805 99.511 10.9284 99.511 14.5446Z" fill="black"/>
<path d="M91.5129 7.99805H87.6293C83.3534 7.99805 79.6486 10.9551 78.7011 15.1237L70.013 53.3166L62.4087 17.6644C61.002 11.0751 54.2411 6.63163 47.3227 8.54248C42.916 9.75944 39.649 13.4824 38.6961 17.9526L31.1691 53.2686L22.4971 15.1264C21.5469 10.9577 17.8422 7.99805 13.5662 7.99805H9.6853L24.2401 71.9954H29.7545C34.7591 71.9954 39.0831 68.4966 40.1267 63.6021L49.4313 19.9382C49.5461 19.3964 50.0319 19.0041 50.5844 19.0041C51.1369 19.0041 51.6227 19.3964 51.7375 19.9382L61.0501 63.6048C62.0937 68.4993 66.4177 71.9954 71.4223 71.9954H76.9554L91.5129 7.99805Z" fill="black"/>
</g>
</svg>
