<svg width="243" height="80" viewBox="0 0 243 80" fill="none" xmlns="http://www.w3.org/2000/svg">
<path d="M57.0566 63.6122H18.42C15.866 63.6122 13.4431 62.2711 12.2643 59.9813C10.9219 57.3642 11.413 54.2239 13.4758 52.1629L40.3577 25.3063H21.1049C15.8005 25.3063 11.5112 21.021 11.5112 15.7216H47.1027C49.6566 15.7216 52.0795 17.0628 53.2583 19.3527C54.6009 21.9696 54.1097 25.11 52.0469 27.1709L25.165 54.0275H47.4629C52.7672 54.0275 57.0566 58.3129 57.0566 63.6122ZM209.966 15.002C204.433 15.002 199.455 17.3899 196.049 21.2173C192.612 17.3899 187.635 15.002 182.134 15.002C171.853 15.002 163.471 23.7688 163.471 34.0077V63.6122C168.775 63.6122 173.064 59.3269 173.064 54.0275V33.9096C173.064 28.97 176.895 24.7829 181.806 24.5866C186.98 24.3903 191.269 28.5447 191.269 33.6806V54.0275C191.269 59.3269 195.559 63.6122 200.863 63.6122V33.9096C200.863 28.97 204.694 24.7829 209.605 24.5866C214.778 24.3903 219.068 28.5447 219.068 33.6806V54.0275C219.068 59.3269 223.358 63.6122 228.661 63.6122V34.0077C228.628 23.7688 220.246 15.002 209.966 15.002ZM105.45 39.6669C105.45 53.2753 94.3833 64.332 80.7622 64.332C67.1413 64.332 56.0743 53.2753 56.0743 39.6669C56.0743 26.0586 67.174 15.002 80.7622 15.002C94.3507 15.002 105.45 26.0586 105.45 39.6669ZM95.8567 39.6669C95.8567 31.3581 89.079 24.5866 80.7622 24.5866C72.4457 24.5866 65.6678 31.3581 65.6678 39.6669C65.6678 47.9759 72.4457 54.7473 80.7622 54.7473C89.079 54.7473 95.8567 47.9759 95.8567 39.6669ZM158.657 39.6669C158.657 53.2753 147.591 64.332 133.97 64.332C120.348 64.332 109.281 53.2753 109.281 39.6669C109.281 26.0586 120.382 15.002 133.97 15.002C147.557 15.002 158.657 26.0586 158.657 39.6669ZM149.064 39.6669C149.064 31.3581 142.286 24.5866 133.97 24.5866C125.653 24.5866 118.875 31.3581 118.875 39.6669C118.875 47.9759 125.653 54.7473 133.97 54.7473C142.286 54.7473 149.064 47.9759 149.064 39.6669Z" fill="#0B5CFF"/>
</svg>
